<svg xmlns="http://www.w3.org/2000/svg" width="64" height="64" fill="none"><path fill="#D940FF" d="M59.18 30.448c.015 0 .03.002.045.008h-.004c.013.005.02.014.03.023l.01.012c-.172.705-.358 1.397-.552 2.082l-.043.094c-.242.846-.5 1.678-.773 2.497l.004.006a.096.096 0 0 0 .01.012 65.142 65.142 0 0 1-.66 1.836l.005.007.01.013a55.695 55.695 0 0 1-1.411 3.42l-.056.095c-.095.211-.19.42-.288.629l.01-.006a54.385 54.385 0 0 1-2.67 5.024l.001.002a.072.072 0 0 0 .005.009 53.153 53.153 0 0 1-2 3.08l-.015.017a47.141 47.141 0 0 1-3.715 4.645v.004l-.08.072C41.804 59.736 35.944 63 31.073 63a13.092 13.092 0 0 1-3.691-.574l-.001-.006a18.202 18.202 0 0 1-2.578-.978.07.07 0 0 1-.001-.008 24.417 24.417 0 0 1-2.301-1.22.132.132 0 0 1-.002-.007 30.639 30.639 0 0 1-2.583-1.722.03.03 0 0 1 0-.004 40.15 40.15 0 0 1-1.23-.944l.002-.004v-.004c-.45-.365-.899-.742-1.343-1.133l-.024-.014c-.353-.31-.702-.628-1.047-.953l-.04-.025a49.43 49.43 0 0 1-2.08-2.085l-.012-.01a50.904 50.904 0 0 1-1.274-1.403.082.082 0 0 0 .006-.017c.003-.01.006-.02.014-.028a.134.134 0 0 1 .104-.041c.031 0 .062.01.086.03 2.026 1.65 4.775 2.487 8.167 2.487 7.777 0 18.763-4.604 27.983-11.73 5.711-4.413 8.098-8.414 9.828-12.08a.138.138 0 0 1 .124-.079Z"/><path fill="#B347EA" d="M54.519 3.466a.76.76 0 0 0-.004-.005 16.317 16.317 0 0 0-3.217-1.4.074.074 0 0 1-.02.011c-.012.005-.023.01-.028.022a.141.141 0 0 0 .068.177c.52.257.873.52 1.047.789.445.687.527 1.542.244 2.54-1.308 4.587-10.2 11.639-21.129 16.766-9.055 4.245-17.277 6.68-22.554 6.68-3.134 0-5.163-.855-5.865-2.47-.245-.563-.28-1.316-.104-2.239.022-.073.046-.146.07-.22.028-.083.056-.165.08-.248a.137.137 0 0 0-.08-.179h-.01a.147.147 0 0 0-.043-.007c-.004 0-.007.003-.01.007-.003.003-.006.006-.01.006a17.254 17.254 0 0 0-.833 3.635A16.368 16.368 0 0 0 2 29.22c.009.885.086 1.768.231 2.64l-.001.002c.075.465.17.94.282 1.421l-.002.001-.001.002c.226.96.502 1.907.826 2.839.124.358.255.719.395 1.082a.06.06 0 0 1-.003.004l-.001.001-.001.002c.322.837.681 1.687 1.083 2.54l.029.031c.183.39.373.782.572 1.175l-.002.004c.347.683.717 1.366 1.11 2.05.18.318.363.634.552.95l.026.043.175.29.003.002c.328.535.67 1.067 1.02 1.596l-.003.005a58.004 58.004 0 0 0 2.416 3.38l.009.007c.26.337.524.67.79 1v.001a58.518 58.518 0 0 0 1.707 2.008c2.056 1.54 4.746 2.326 8.03 2.326 7.837 0 18.887-4.628 28.155-11.788 5.56-4.302 7.995-8.215 9.725-11.811.256-1 .487-2.016.694-3.05l.015-.038c.129-.637.247-1.28.354-1.926L60.176 26c.136-.813.26-1.634.363-2.467l-.001-.001a61.237 61.237 0 0 0 .138-1.256l.003-.01c.123-1.199.221-2.41.274-3.644a.06.06 0 0 0-.017-.01c.014-.36.026-.722.035-1.086l.005-.026.012-.45v-.002c.01-.359.02-.72.02-1.083 0-.638-.035-1.249-.088-1.838l-.003-.002-.003-.001a.122.122 0 0 1-.003-.002l-.002-.001a18.454 18.454 0 0 0-.256-1.906.085.085 0 0 0-.017-.01 14.97 14.97 0 0 0-.622-2.203l-.002-.016a12.732 12.732 0 0 0-.895-1.926c-.285-.505-.606-.99-.961-1.449h-.007c-.3-.387-.622-.755-.968-1.103h-.005c-.378-.383-.78-.741-1.204-1.073l-.014-.01c-.064-.05-.128-.1-.193-.148h-.003c-.4-.293-.814-.564-1.243-.811Z"/><path fill="#C383FF" d="M43.9 1c.171 0 .342.003.511.008a26.39 26.39 0 0 1 4.332.417.058.058 0 0 0 .011-.009c1.032.187 2.048.453 3.038.798.378.224.649.455.804.695.487.757.591 1.688.279 2.766-1.348 4.734-10.1 11.701-21.282 16.943-9.223 4.323-17.274 6.705-22.671 6.705-3.254 0-5.369-.912-6.12-2.637-.217-.498-.281-1.143-.193-1.913.24-.862.542-1.706.906-2.523h.016c.36-.817.771-1.61 1.233-2.375a24.55 24.55 0 0 1 1.79-2.584h.002a30.354 30.354 0 0 1 3.537-3.76h.004a38.172 38.172 0 0 1 3.427-2.755c4.478-3.213 9.88-5.783 15.528-7.479l.026-.006a56.776 56.776 0 0 1 6.174-1.481l.011-.001a52.26 52.26 0 0 1 3.527-.514l.002-.003A46.803 46.803 0 0 1 43.9 1Z"/><path fill="#fff" d="m23.094 30.02.147-3.215h5.346c.322 0 .624-.22.905-.658.28-.439.42-.917.42-1.435 0-.475-.252-.712-.757-.712h-6.503c-.463 0-.895.133-1.294.4-.4.265-.607.556-.621.873l-.274 6.17c0 .216.105.475.316.777.294.49.617.734.968.734.084 0 .252-.058.505-.173.435-.23.905-.417 1.41-.56a5.107 5.107 0 0 1 1.389-.216c.772 0 1.407.212 1.905.636.498.424.747.974.747 1.65 0 .662-.246 1.22-.737 1.673-.49.453-1.094.68-1.81.68-.547 0-1.024-.112-1.43-.335-.408-.223-.794-.586-1.158-1.09-.127-.201-.344-.302-.653-.302-.463 0-.898.137-1.305.41-.407.273-.61.561-.61.863 0 .13.056.324.168.583.421.805 1.074 1.449 1.958 1.93.884.482 1.866.723 2.946.723.968 0 1.866-.219 2.694-.658a5.446 5.446 0 0 0 2.02-1.834c.52-.783.78-1.657.78-2.621 0-.863-.211-1.654-.632-2.373-.421-.72-1.021-1.298-1.8-1.737-.779-.439-1.659-.658-2.641-.658-.365 0-.765.043-1.2.13a6.96 6.96 0 0 0-1.2.345ZM41.115 34.055h1.206v2.03c-.761.445-1.622.668-2.584.668-.86 0-1.636-.201-2.327-.603-.687-.403-1.235-.975-1.644-1.716-.41-.74-.614-1.593-.614-2.557 0-1.396.453-2.544 1.356-3.443.904-.9 2.06-1.349 3.466-1.349.406-.003.81.048 1.203.151.373.1.81.273 1.313.518.2.1.372.151.517.151.201 0 .402-.098.602-.291.2-.194.372-.457.517-.788.142-.326.216-.679.216-1.036 0-.302-.107-.517-.322-.647-1.192-.748-2.534-1.122-4.026-1.122a7.736 7.736 0 0 0-3.873 1.025c-1.206.683-2.185 1.643-2.939 2.88-.753 1.238-1.13 2.605-1.13 4.1a7.977 7.977 0 0 0 .937 3.809 7.494 7.494 0 0 0 2.658 2.846c1.147.727 2.431 1.09 3.852 1.09a8 8 0 0 0 2.303-.335 6.813 6.813 0 0 0 1.98-.938c.962-.663 1.443-1.612 1.443-2.848v-3.774c0-.49-.266-.734-.797-.734h-2.69a2.462 2.462 0 0 0-1.39.42c-.422.282-.634.58-.634.896 0 .173.115.446.346.82.345.518.696.777 1.055.777Z"/><path fill="#fff" d="m23.094 30.02.147-3.215h5.346c.322 0 .624-.22.905-.658.28-.439.42-.917.42-1.435 0-.475-.252-.712-.757-.712h-6.503c-.463 0-.895.133-1.294.4-.4.265-.607.556-.621.873l-.274 6.17c0 .216.105.475.316.777.294.49.617.734.968.734.084 0 .252-.058.505-.173.435-.23.905-.417 1.41-.56a5.107 5.107 0 0 1 1.389-.216c.772 0 1.407.212 1.905.636.498.424.747.974.747 1.65 0 .662-.246 1.22-.737 1.673-.49.453-1.094.68-1.81.68-.547 0-1.024-.112-1.43-.335-.408-.223-.794-.586-1.158-1.09-.127-.201-.344-.302-.653-.302-.463 0-.898.137-1.305.41-.407.273-.61.561-.61.863 0 .13.056.324.168.583.421.805 1.074 1.449 1.958 1.93.884.482 1.866.723 2.946.723.968 0 1.866-.219 2.694-.658a5.446 5.446 0 0 0 2.02-1.834c.52-.783.78-1.657.78-2.621 0-.863-.211-1.654-.632-2.373-.421-.72-1.021-1.298-1.8-1.737-.779-.439-1.659-.658-2.641-.658-.365 0-.765.043-1.2.13a6.96 6.96 0 0 0-1.2.345ZM41.115 34.055h1.206v2.03c-.761.445-1.622.668-2.584.668-.86 0-1.636-.201-2.327-.603-.687-.403-1.235-.975-1.644-1.716-.41-.74-.614-1.593-.614-2.557 0-1.396.453-2.544 1.356-3.443.904-.9 2.06-1.349 3.466-1.349.406-.003.81.048 1.203.151.373.1.81.273 1.313.518.2.1.372.151.517.151.201 0 .402-.098.602-.291.2-.194.372-.457.517-.788.142-.326.216-.679.216-1.036 0-.302-.107-.517-.322-.647-1.192-.748-2.534-1.122-4.026-1.122a7.736 7.736 0 0 0-3.873 1.025c-1.206.683-2.185 1.643-2.939 2.88-.753 1.238-1.13 2.605-1.13 4.1a7.977 7.977 0 0 0 .937 3.809 7.494 7.494 0 0 0 2.658 2.846c1.147.727 2.431 1.09 3.852 1.09a8 8 0 0 0 2.303-.335 6.813 6.813 0 0 0 1.98-.938c.962-.663 1.443-1.612 1.443-2.848v-3.774c0-.49-.266-.734-.797-.734h-2.69a2.462 2.462 0 0 0-1.39.42c-.422.282-.634.58-.634.896 0 .173.115.446.346.82.345.518.696.777 1.055.777Z"/></svg>