<svg xmlns="http://www.w3.org/2000/svg" data-name="Telia Pebble Icon segments RGB x50" viewBox="0 0 518.92 586.02"><defs><style>.cls-1{fill:#9b009b}.cls-2{fill:#af5aff}.cls-4{fill:#0ff}.cls-6{fill:#990ae3}.cls-7{fill:#00cdff}.cls-10{fill:#fff}</style></defs><g data-name="48"><path d="M457.15 464.96c-.09-.12-.13-.26-.26-.34a1.19 1.19 0 0 0-.91-.17 1.21 1.21 0 0 0-.8.53 331.33 331.33 0 0 1-83.9 84.27c-25.34 17.72-48.78 28.84-69.65 33a88.9 88.9 0 0 1-10.32 1.5h-.14a1.26 1.26 0 0 0-1 1.24c0 .17.11.28.17.42a119.73 119.73 0 0 0 34.11-1.51c46-9.25 95.25-52.92 132.72-119" class="cls-1"/><path d="M451.96 473.92a432.5 432.5 0 0 0 29.29-58.67c-.1-.13-.16-.27-.31-.34s-.41.35-.66.4-1.24 1.64-1.42 2C457.5 460 409.43 520.82 343.11 556.93c-19.5 10.6-37.57 17.64-53.75 20.89a92.28 92.28 0 0 1-22.76 2 1.15 1.15 0 0 0-.32 0 1.28 1.28 0 0 0-1 1.06 1.13 1.13 0 0 0 .1.42 167 167 0 0 0 29.86 4.48c2.29-.29 4.56-.51 6.89-1 21.22-4.27 45-15.53 70.6-33.45a335.45 335.45 0 0 0 79.23-77.41" class="cls-1"/><path d="M488.94 393.87a1.24 1.24 0 0 0-.71-.06 1.22 1.22 0 0 0-.91.71C445.81 484.66 347.48 559.4 281.7 572.6c-14.23 2.86-26.95 3-37.81.45a1.41 1.41 0 0 0-.54 0 1.26 1.26 0 0 0-1 .89 1.19 1.19 0 0 0 0 .5 221.64 221.64 0 0 0 27 7.76 97.27 97.27 0 0 0 20.42-1.92c16.43-3.31 34.74-10.43 54.46-21.16 62.43-34 109.14-91.28 132.58-133.75 4.4-10.05 8.56-20.44 12.38-31.21-.11-.1-.17-.25-.34-.32" class="cls-1"/><path d="M503.52 344.83a296.38 296.38 0 0 1-27.5 60.36c-44.28 74.31-136.85 146.14-206.39 160.13-20.45 4.12-37.34 4.08-51.22-1.93a5.19 5.19 0 0 0-1.49-.41c-.39.08-.51-.25-.67.13a.93.93 0 0 0 0 .52 281.81 281.81 0 0 0 31.94 12.73c10.16 1.62 21.5 1.29 34-1.23 64.88-13.06 160.83-85.27 204.27-173.28a499.07 499.07 0 0 0 17.68-57.65Z" class="cls-1"/><path d="M507.02 329.38a1.37 1.37 0 0 0-.57 0 1.3 1.3 0 0 0-1 .86 298.84 298.84 0 0 1-27.55 61.36c-46.06 77.37-144 152.47-218.26 167.42-21.5 4.32-39.82 3.41-54.47-2.76a1.31 1.31 0 0 0-.73-.06 1.28 1.28 0 0 0-.9.7 1.19 1.19 0 0 0 0 .5c6.8 3.53 13.57 6.73 20.33 9.67 13.09 4 28.53 4.37 46.3.79 71.34-14.35 162.72-85.21 208-161.31 10.71-18 17.77-35.94 23.6-53q3.06-11.72 5.63-23.83c-.11-.08-.18-.2-.33-.24" class="cls-1"/><path d="M511.82 303.74a1.14 1.14 0 0 0-.52 0 1.28 1.28 0 0 0-1 .87c-6.21 20.51-18 51.39-38.65 82-44.71 66.24-142.1 147.62-221.44 163.59-25.39 5.11-47.73 3.4-65.74-5.24a1.22 1.22 0 0 0-.79-.11 1.26 1.26 0 0 0-.87.64v.22q12.87 7.74 25.82 14.23c14.4 4.87 31.55 5.53 51.49 1.52 74.9-15.08 173.58-90.72 219.96-168.61a300.23 300.23 0 0 0 25.65-55.62c2.47-10.85 4.67-21.91 6.48-33.22-.12-.1-.23-.24-.39-.27" class="cls-2"/><path d="M906.34 239.37a1.2 1.2 0 0 0-.5 0 1.25 1.25 0 0 0-1 .86C894 276.09 878.67 307 858 334.71c-59 79.16-154.26 147.16-226.46 161.68-25.16 5.07-46.84 3.69-64.46-4.08a1.17 1.17 0 0 0-.76-.07 1.21 1.21 0 0 0-.86.64c-.07.12 0 .25-.05.4q7.85 5 15.74 9.57c17.49 6.83 38.1 7.95 61.53 3.24 80-16.09 178-98 223.06-164.66A310 310 0 0 0 903 264.29c1.41-8.14 2.67-16.34 3.72-24.69-.12-.08-.19-.2-.35-.23" style="fill:#93f" transform="translate(-391.98 46.6)"/><path d="M517.27 255.36a1.12 1.12 0 0 0-.41 0 1.24 1.24 0 0 0-1 1c-7.79 38.7-29.45 82.76-57.94 117.85-64.09 78.94-158 144-228.3 158.11-31.31 6.3-57.88 3.7-78.5-9a1.2 1.2 0 0 0-.9-.16 1.31 1.31 0 0 0-.6.39c9.26 6.76 18.65 13.14 28.14 19 17.4 6.7 37.51 7.84 62.31 2.85 72.75-14.64 168.63-83 228-162.65 20.09-26.93 35.06-57 45.94-91.42q2.37-17.59 3.62-35.85c-.11-.06-.19-.17-.35-.2" class="cls-2"/><path d="M518.02 241.46a1.54 1.54 0 0 0-.43 0 1.3 1.3 0 0 0-1 .94c-8.89 36-23.06 76.16-66.3 126-69.79 80.51-160 141.61-229.69 155.64-30.4 6.12-56.54 3.57-77.69-7.57a1.26 1.26 0 0 0-1.66.45c-.08.12 0 .29-.08.43 4.6 3.51 9.25 7 13.94 10.27 20.39 10.62 45.52 13.09 75 7.17 70.91-14.19 165.36-79.62 229.78-158.97 27.68-34.08 48.83-76.51 57.38-114.51.51-6.48.93-13 1.2-19.62a1.27 1.27 0 0 0-.41-.23" class="cls-2"/><path d="M518.48 212.84a1.35 1.35 0 0 0-.35 0 1.27 1.27 0 0 0-1 1c-8.42 51.44-33.48 99.23-76.56 146.12-73.84 80.38-162.94 138.98-232.55 152.98-31.65 6.37-58.64 3.54-80.23-8.44a1.29 1.29 0 0 0-.86-.12 1.24 1.24 0 0 0-.8.52c-.08.12 0 .25-.09.38q9.3 7.69 18.91 14.92c21.22 10.1 46.74 12.28 76.19 6.36 70.24-14.14 161-75.56 231.11-156.47 42.1-48.55 56.86-88 65.89-123.37q.87-16.62.68-33.7c-.13-.06-.22-.16-.36-.18" class="cls-2"/><path d="M518.19 199.66a1 1 0 0 0-.34 0 1.27 1.27 0 0 0-1 1c-9.18 51.11-37.69 102.08-84.76 151.49-58.94 61.91-151.44 134-234.19 150.64-32.31 6.5-59.85 3.69-81.89-8.37a1.26 1.26 0 0 0-1.65.39c-.08.11-.06.26-.09.38 4.95 4.38 10 8.67 15.1 12.82 21.79 11.09 48.31 13.6 79.17 7.39 70.09-14.1 159.71-73 233.89-153.71 42.46-46.2 67.43-93.36 76.49-144 0-5.93-.1-11.89-.31-17.9a1.14 1.14 0 0 0-.42-.19" class="cls-2"/><path d="M516.94 176.83a1 1 0 0 0-.29 0 1.24 1.24 0 0 0-1 1c-9.35 57.56-41.31 113.58-95 166.48-80.63 79.52-165.63 132.88-233.21 146.48-34.48 6.94-63.68 3.47-86.79-10.33a1.29 1.29 0 0 0-.9-.15 1.25 1.25 0 0 0-.76.48c-.08.11-.06.25-.11.37q8.88 8.46 18.2 16.57c22.36 11.39 49.59 14 81.31 7.57 83.34-16.77 176.31-89.19 235.54-151.37 46.51-48.84 74.93-99.24 84.75-149.86-.24-8.95-.62-17.95-1.32-27.05a1 1 0 0 0-.42-.19" class="cls-2"/><path d="M515.45 160.6a1.09 1.09 0 0 0-.26 0 1.27 1.27 0 0 0-1 1.12c-4.86 51.94-41.42 113.86-103 174.36-75.54 74.28-168.67 131.2-237.26 145-34.29 6.9-62.15 3.54-82.84-10a1.28 1.28 0 0 0-.94-.19 1.33 1.33 0 0 0-.73.44c-.09.12-.08.26-.13.37q6.09 6.13 12.4 12.06c23.45 13.06 52.33 16.26 86.21 9.44 68.12-13.6 153.57-67.24 234.53-147.03 53.26-52.47 85.18-108.06 95.16-165.24-.46-6.69-1.07-13.41-1.78-20.17a.93.93 0 0 0-.36-.14" class="cls-2"/><path d="M512.02 132.2a1.48 1.48 0 0 0-.47 0 1.27 1.27 0 0 0-.56.27 1.26 1.26 0 0 0-.45 1c-.2 57.41-42 129.53-111.91 192.92-86.61 78.51-169.73 128.89-234.05 141.83-35.53 7.15-65.11 3-87.94-12.23a1.3 1.3 0 0 0-.95-.19 1.21 1.21 0 0 0-.7.41c-.11.11-.11.28-.16.42 5.55 6.08 11.35 12.06 17.3 18 21.15 12.73 48.73 15.8 82.32 9 69.04-13.9 162.69-71.03 238.57-145.69 60.63-59.63 97.11-120.72 103.26-172.53-1-11-2.35-22-4.11-33.15a.85.85 0 0 0-.17-.06" class="cls-4"/><path d="M509.53 117.44c-.14 0-.25-.12-.4-.11h-.11a1.26 1.26 0 0 0-1 1.27c.32 58.83-42 129.54-119.27 199.1-83.44 75.14-169.56 126-236.31 139.39-34 6.83-61.73 3.95-82.46-8.55a1.27 1.27 0 0 0-.91-.16 1.25 1.25 0 0 0-.72.44c-.07.08-.06.2-.11.3 3 3.41 6 6.77 9.08 10.13 23.29 14.65 52.7 18.52 87.79 11.45 64.75-13 148.28-63.62 235.21-142.46 68.89-62.48 110.6-133.49 112.56-190.95-1-6.59-2.1-13.21-3.32-19.85" class="cls-4"/><path d="M895.78 45.41c-.16 0-.31-.14-.47-.1a1.26 1.26 0 0 0-1 1.41c7.58 57.36-40.94 139.26-126.62 213.73C681.41 335.39 598 383.9 532.78 397c-35.81 7.21-64.22 3.38-84.42-11.4a1.26 1.26 0 0 0-1-.21 1.29 1.29 0 0 0-.66.35c-.1.11-.1.25-.16.37 5 6.36 10.35 12.67 15.88 18.92 21.09 12 48.79 14.7 82.48 7.92 67.18-13.52 153.75-64.55 237.52-140C858.64 204.31 901 134.39 902.35 75.55c-.8-4.6-1.55-9.19-2.48-13.82-1.15-5.72-2.55-11.12-4.09-16.32" style="fill:#ff00cd" transform="translate(-391.98 46.6)"/><path d="M505.1 97.21a165.62 165.62 0 0 0-7.14-21.82 1.08 1.08 0 0 0-.43-.07h-.11a1.25 1.25 0 0 0-.9 1.43c10.5 57.63-36.93 135.96-133.45 220.61C280.68 369.6 196.02 418.6 130.85 431.7c-36 7.24-64.17 3.26-83.87-11.8a1.26 1.26 0 0 0-1-.23 1.24 1.24 0 0 0-.63.33c-.1.08-.1.22-.16.33 3.67 5 7.48 10.06 11.5 15.07 20.68 14.2 49.09 17.86 84.63 10.71 65.65-13.21 149.48-61.92 236-137.15 84.31-73.26 132.7-153.82 127.78-211.75" class="cls-4"/><path d="M499.36 79.25a135.74 135.74 0 0 0-13.42-26.19 1 1 0 0 0-.33.11 1.28 1.28 0 0 0-.6 1.6c22 54.7-31.42 145.72-136.18 231.88-86.81 71.37-168.81 117.56-231.06 130.08-37.4 7.53-65.36 2.53-83.1-14.88a1.3 1.3 0 0 0-1.69-.08c-.12.09-.15.26-.21.38 4.4 6.93 9.15 13.9 14.29 20.82 20.22 14.59 48.51 18.42 84.29 11.22 65.6-13.2 150.66-62.39 233.4-134.93 95.62-83.87 143.19-161.8 134.61-220" class="cls-4"/><path d="M488.18 56.52a116.84 116.84 0 0 0-11.49-15.64s-.09-.07-.15 0a1.26 1.26 0 0 0-.37.13 1.27 1.27 0 0 0-.56 1.56c21.2 54.67-30.9 141.18-139.36 231.42-83.56 69.46-167.34 116.61-229.86 129.14-33.88 6.82-59.91 3.33-77.38-10.33a1.22 1.22 0 0 0-1-.25 1.31 1.31 0 0 0-.59.29c-.09.07-.09.17-.14.25q3.51 6 7.42 12c18.61 16.83 46.58 21.59 83.58 14.14 62.61-12.6 145.06-59 232.17-130.6C454.44 203.07 508.02 112.5 488.18 56.52" class="cls-4"/><path d="M478.34 42.83a112 112 0 0 0-12.88-13.23 1.62 1.62 0 0 0-.4.19 1.27 1.27 0 0 0-.2 1.67c29.16 43.14-33.77 145.68-143.26 233.58-81.73 65.56-163.29 110.22-223.79 122.4-39.4 7.93-67.45 1.61-81.1-18.28a1.28 1.28 0 0 0-1.3-.52 1.36 1.36 0 0 0-.37.13 1.4 1.4 0 0 0-.28.36 256.71 256.71 0 0 0 14 26.55c18.05 13.34 44.26 16.74 78.1 9.93 62.92-12.66 147.1-59.94 231-129.72C446.44 185.6 498.76 98.6 478.34 42.83" class="cls-4"/><path d="M468.18 32.14a107.94 107.94 0 0 0-13.46-10.65c-.11.07-.26.1-.35.21a1.26 1.26 0 0 0-.07 1.64c31.86 40-29.64 136.62-146.24 229.66-80.87 64.6-161.1 108.38-220.11 120.25-35.39 7.12-61.4 2-75.2-14.86-.38-.46-.73-.93-1.09-1.4a1.42 1.42 0 0 0-1.37-.55.91.91 0 0 0-.31.12 1.05 1.05 0 0 0-.31.32c2 5.18 4.22 10.45 6.73 15.76 14.91 19.1 43 25.1 81.91 17.27 60.87-12.25 142.84-57 224.87-122.9 108.84-87.41 171.68-189.62 145-234.87" class="cls-6"/><path d="M457.44 23.44a111.29 111.29 0 0 0-17.61-10.43c-.15.08-.31.11-.41.24a1.26 1.26 0 0 0 0 1.59c6.65 8 9.34 18.72 8 31.8-4.75 46.57-59 116.52-141.55 182.57-84.2 67.39-169.69 114.69-228.68 126.56-31.7 6.38-53.75 2.34-65.52-12a45.76 45.76 0 0 1-7.67-14 1.27 1.27 0 0 0-1.45-.82h-.08c-.13 0-.2.16-.31.23.25 1.46.39 2.93.68 4.39a158.28 158.28 0 0 0 8.18 26.63c14.49 17.44 41.25 22.82 77.45 15.54 59.41-12 140-56 221.21-120.76 116.18-92.74 177.7-189.46 147.76-231.54" class="cls-6"/><path d="M450.02 46.85c1.36-13.34-1.4-24.32-8-32.76a123.09 123.09 0 0 0-17.31-6.89c-.09.08-.22.1-.28.2a1.25 1.25 0 0 0 .23 1.57c.53.49 1 1 1.48 1.48 6.18 6.78 8.76 16 7.68 27.46-4.38 46.5-68.64 125-156.29 191-78 58.7-155.86 100-208.17 110.57-30.21 6.08-51 2-61.66-12.13-2.61-3.45-4.5-8.23-5.59-14.18a1.26 1.26 0 0 0-1.4-1h-.1c-.11 0-.18.13-.27.18a147.94 147.94 0 0 0 2.5 20.88 47.64 47.64 0 0 0 6.94 12.18c12.41 15.14 35.27 19.48 68 12.9 59.36-12 145.27-59.46 229.8-127.07C390.6 164.7 445.19 94.07 450.02 46.85" class="cls-6"/><path d="M436.28 38.14c1.15-12.17-1.65-22.06-8.33-29.39-.26-.29-.56-.56-.83-.83a149.07 149.07 0 0 0-31.35-6.71c-.11.14-.34.18-.37.37a1.28 1.28 0 0 0 .92 1.47c5.13 1.36 8.77 3.11 10.81 5.19 5.24 5.35 7.52 12.87 6.78 22.32-3.46 43.49-70.41 122.74-159.2 188.43-73.5 54.38-142.81 91-190.15 100.56-28.08 5.66-47.8 1.66-57-11.55-3.2-4.6-4.87-11.29-5-19.88.15-1.5.33-3 .52-4.47a1.26 1.26 0 0 0-1.1-1.41.89.89 0 0 0-.4 0c-.08 0-.08.12-.15.15a157.52 157.52 0 0 0-.85 34.85c1.22 4.62 2.8 8.66 5 11.61 11.34 15 32.93 19.36 64.18 13.07 52.67-10.6 130.87-52.1 209.19-111 88.22-66.32 152.9-145.61 157.33-192.78" class="cls-7"/><path d="M416.43 30.76c.81-10.21-1.72-18.4-7.49-24.29-1.83-1.87-4.67-3.46-8.47-4.79A185.15 185.15 0 0 0 371.81.03c-.15.2-.43.26-.45.51a1.27 1.27 0 0 0 1.1 1.33c7.1 1 12.08 3 14.82 6 4.16 4.57 5.88 11 5.1 19.2-3.74 40-63.32 110.94-144.88 172.57-71.65 54.14-139.33 90.54-185.68 99.87-25.27 5.09-43.27 1.72-52-9.73-3.78-4.94-5.24-11.67-4.35-20a1.26 1.26 0 0 0-1.06-1.38 1.14 1.14 0 0 0-.45 0s0 0-.05.05a168.6 168.6 0 0 0-3.56 24.26c.58 7 2.27 12.6 5.13 16.71 9.84 14.11 30.45 18.47 59.61 12.6 48.39-9.74 116.27-45.62 191.14-101 90.79-67.14 156.65-145.42 160.2-190.26" class="cls-6"/><path d="M394.91 27.34c.82-8.9-1.11-16-5.75-21.15-2.58-2.85-6.83-4.86-12.48-6.09a240.19 240.19 0 0 0-46.66 4.5 1.3 1.3 0 0 0-.11.48 1.27 1.27 0 0 0 1.35 1.1c15.23-1.24 25.55.72 29.88 5.65 3.47 3.94 4.86 9.42 4.13 16.28-3.79 35.6-61.21 101.11-139.64 159.3-65.73 48.78-124.17 80.12-164.61 88.25-22.31 4.49-37.53 1.59-45.24-8.6-3.95-5.19-5.16-12.17-3.61-20.74a1.28 1.28 0 0 0-.88-1.44 1.42 1.42 0 0 0-.58 0 188.91 188.91 0 0 0-8 29.59c0 6.8 1.66 12.49 5 16.89 9.52 12.46 27.86 16.05 54.54 10.68 46.77-9.44 114.83-45.99 186.77-100.35 82.09-62 142.07-133.72 145.89-174.35" class="cls-6"/><path d="M367.81 28.37c.8-7.59-.8-13.72-4.74-18.22-4.27-4.85-12.88-7.13-25.61-6.83-3.29.54-6.59 1.05-9.89 1.71a429.54 429.54 0 0 0-45.26 11.83c0 .18-.11.34 0 .51a1.26 1.26 0 0 0 1.47.9c2.84-.69 5.61-1.32 8.27-1.85 20.2-4.07 33.89-3.23 38.58 2.37 2.81 3.37 3.89 8 3.23 13.65-3.52 30-55.76 88.08-127 141.24-56.22 41.92-109.15 70.08-145.28 77.35-18.92 3.8-32.05 1.53-38-6.59-4.05-5.53-4.16-13.72-.3-24.35a1.27 1.27 0 0 0-.69-1.59 1 1 0 0 0-.44-.05A222.59 222.59 0 0 0 9.47 248.6c-.95 8.1.41 14.83 4.33 20 8.35 11 24.42 14.23 47.76 9.53 40.75-8.2 99.56-39.69 165.59-88.68C306.12 130.87 363.96 64.6 367.81 28.37" class="cls-7"/><path d="M292.62 13.73a477.64 477.64 0 0 0-51.83 18.57 1.24 1.24 0 0 0 0 .47 1.27 1.27 0 0 0 1.43.78.64.64 0 0 0 .17 0A165.09 165.09 0 0 1 265.02 27c15.36-3.09 26-1.78 30 3.7 13.43 18.66-33.47 76.28-104.6 128.46-47.32 34.73-95.4 60.05-125.4 66.1-14.14 2.84-23.8 1.34-28-4.33-5.47-7.45-1.61-21.92 10.87-40.72a1.09 1.09 0 0 0-.83-1.84 278.84 278.84 0 0 0-27.32 44.91c-2.69 9.55-2.23 17.21 1.77 22.67 6.59 9 20.6 11.58 40.55 7.57 36.48-7.34 89.79-35.71 146.26-77.82 72.92-54.39 124.37-111.85 128-143 .76-6.4-.53-11.64-3.8-15.55-6.65-8-25.14-6.33-39.94-3.44" class="cls-7"/><path d="M297.02 29.22c-4.63-6.43-15.86-8.06-32.5-4.71-4 .82-8.48 2-13.09 3.39a521.15 521.15 0 0 0-69.52 33.81c0 .17 0 .33.06.48a1.25 1.25 0 0 0 1.36.62 1.09 1.09 0 0 0 .36-.12c18.63-10 35.25-16.69 48-19.27 11.49-2.29 19.21-1.19 22.42 3.18 10.32 14.08-25.94 58.32-80.83 98.62-36.5 26.8-73.84 46.4-97.46 51.16-10.9 2.19-18.32 1.1-21.43-3.14-5.34-7.28 1.61-23.27 19.06-43.86a1.27 1.27 0 0 0-.12-1.77c-.14-.11-.31-.07-.47-.13a346.17 346.17 0 0 0-32.44 40.18c-8.75 15.65-10.7 27.57-5.43 34.75 4.86 6.63 15.12 8.42 30.5 5.32 30.84-6.21 78.11-31.08 126.43-66.53 74.67-54.79 119.87-111.53 105.1-131.98" class="cls-7"/><path d="M256.14 45.11c-3.87-5.31-12.25-6.71-24.87-4.17-9.17 1.84-20.37 5.81-32.72 11.51-52.08 27.8-99.66 64.47-135.22 105.67-12.13 16.66-16.15 29.58-11 36.63 3.79 5.17 11.86 6.56 24 4.12 23.94-4.82 61.68-24.59 98.45-51.6 57.91-42.52 92.9-86.43 81.36-102.16m-100.82 85.54c-24.52 17.84-48.94 30.77-63.74 33.75-6.12 1.23-10.23.7-11.88-1.57-5.49-7.55 14.53-34.48 53.06-62.52 23.67-17.22 47.83-29.82 63.06-32.89 6.6-1.33 11-.77 12.74 1.62 5.23 7.19-13.64 32.79-53.24 61.61" class="cls-2"/><path d="M210.61 67.6c-2.4-3.29-7.54-4.18-15.29-2.62-15.56 3.13-40.11 15.91-64 33.33-32.68 23.78-61.67 55-53.62 66.06 2.3 3.17 7.15 4 14.42 2.57 15.12-3.05 39.94-16.15 64.72-34.2 32.89-23.92 61.92-54 53.81-65.14M178.1 85.79c-.35 4.81-11.14 17.51-31.08 32.32-15.53 11.54-31 20.08-39.39 21.77-2.34.47-4.06.36-4.73-.29a1.58 1.58 0 0 1-.36-1.36c.36-5 11.34-18.14 31-32.72 15.1-11.21 30.47-19.58 39.16-21.33 2.53-.51 4.38-.4 5.09.31a1.47 1.47 0 0 1 .36 1.3" class="cls-6"/><path d="M179.52 82.69c-1.39-1.38-3.8-1.71-7.37-1-9 1.82-24.8 10.38-40.17 21.79-18.35 13.62-31.51 27.83-32 34.57a4.1 4.1 0 0 0 1.11 3.33c1.35 1.34 3.64 1.66 7 1 8.71-1.75 24.58-10.47 40.4-22.21 15.6-11.57 31.59-26.65 32.13-34.19a4 4 0 0 0-1.1-3.29" class="cls-6"/><g style="mask:url(#mask)"><g style="opacity:.3"><path d="M457.15 464.96c-.09-.12-.13-.26-.26-.34a1.19 1.19 0 0 0-.91-.17 1.21 1.21 0 0 0-.8.53 331.33 331.33 0 0 1-83.9 84.27c-25.34 17.72-48.78 28.84-69.65 33a88.9 88.9 0 0 1-10.32 1.5h-.14a1.26 1.26 0 0 0-1 1.24c0 .17.11.28.17.42a119.73 119.73 0 0 0 34.11-1.51c46-9.25 95.25-52.92 132.72-119" class="cls-10"/><path d="M451.96 473.92a432.5 432.5 0 0 0 29.29-58.67c-.1-.13-.16-.27-.31-.34s-.41.35-.66.4-1.24 1.64-1.42 2C457.5 460 409.43 520.82 343.11 556.93c-19.5 10.6-37.57 17.64-53.75 20.89a92.28 92.28 0 0 1-22.76 2 1.15 1.15 0 0 0-.32 0 1.28 1.28 0 0 0-1 1.06 1.13 1.13 0 0 0 .1.42 167 167 0 0 0 29.86 4.48c2.29-.29 4.56-.51 6.89-1 21.22-4.27 45-15.53 70.6-33.45a335.45 335.45 0 0 0 79.23-77.41" class="cls-10"/><path d="M488.94 393.87a1.24 1.24 0 0 0-.71-.06 1.22 1.22 0 0 0-.91.71C445.81 484.66 347.48 559.4 281.7 572.6c-14.23 2.86-26.95 3-37.81.45a1.41 1.41 0 0 0-.54 0 1.26 1.26 0 0 0-1 .89 1.19 1.19 0 0 0 0 .5 221.64 221.64 0 0 0 27 7.76 97.27 97.27 0 0 0 20.42-1.92c16.43-3.31 34.74-10.43 54.46-21.16 62.43-34 109.14-91.28 132.58-133.75 4.4-10.05 8.56-20.44 12.38-31.21-.11-.1-.17-.25-.34-.32" class="cls-10"/><path d="M503.52 344.83a296.38 296.38 0 0 1-27.5 60.36c-44.28 74.31-136.85 146.14-206.39 160.13-20.45 4.12-37.34 4.08-51.22-1.93a5.19 5.19 0 0 0-1.49-.41c-.39.08-.51-.25-.67.13a.93.93 0 0 0 0 .52 281.81 281.81 0 0 0 31.94 12.73c10.16 1.62 21.5 1.29 34-1.23 64.88-13.06 160.83-85.27 204.27-173.28a499.07 499.07 0 0 0 17.68-57.65Z" class="cls-10"/><path d="M507.02 329.38a1.37 1.37 0 0 0-.57 0 1.3 1.3 0 0 0-1 .86 298.84 298.84 0 0 1-27.55 61.36c-46.06 77.37-144 152.47-218.26 167.42-21.5 4.32-39.82 3.41-54.47-2.76a1.31 1.31 0 0 0-.73-.06 1.28 1.28 0 0 0-.9.7 1.19 1.19 0 0 0 0 .5c6.8 3.53 13.57 6.73 20.33 9.67 13.09 4 28.53 4.37 46.3.79 71.34-14.35 162.72-85.21 208-161.31 10.71-18 17.77-35.94 23.6-53q3.06-11.72 5.63-23.83c-.11-.08-.18-.2-.33-.24" class="cls-10"/><path d="M511.82 303.74a1.14 1.14 0 0 0-.52 0 1.28 1.28 0 0 0-1 .87c-6.21 20.51-18 51.39-38.65 82-44.71 66.24-142.1 147.62-221.44 163.59-25.39 5.11-47.73 3.4-65.74-5.24a1.22 1.22 0 0 0-.79-.11 1.26 1.26 0 0 0-.87.64v.22q12.87 7.74 25.82 14.23c14.4 4.87 31.55 5.53 51.49 1.52 74.9-15.08 173.58-90.72 219.96-168.61a300.23 300.23 0 0 0 25.65-55.62c2.47-10.85 4.67-21.91 6.48-33.22-.12-.1-.23-.24-.39-.27" class="cls-10"/><path d="M514.36 285.97a1.2 1.2 0 0 0-.5 0 1.25 1.25 0 0 0-1 .86c-10.84 35.86-26.17 66.77-46.84 94.48-59 79.16-154.26 147.16-226.46 161.68-25.16 5.07-46.84 3.69-64.46-4.08a1.17 1.17 0 0 0-.76-.07 1.21 1.21 0 0 0-.86.64c-.07.12 0 .25-.05.4q7.85 5 15.74 9.57c17.49 6.83 38.1 7.95 61.53 3.24 80-16.09 178-98 223.06-164.66a310 310 0 0 0 37.26-77.14c1.41-8.14 2.67-16.34 3.72-24.69-.12-.08-.19-.2-.35-.23" class="cls-10"/><path d="M517.27 255.36a1.12 1.12 0 0 0-.41 0 1.24 1.24 0 0 0-1 1c-7.79 38.7-29.45 82.76-57.94 117.85-64.09 78.94-158 144-228.3 158.11-31.31 6.3-57.88 3.7-78.5-9a1.2 1.2 0 0 0-.9-.16 1.31 1.31 0 0 0-.6.39c9.26 6.76 18.65 13.14 28.14 19 17.4 6.7 37.51 7.84 62.31 2.85 72.75-14.64 168.63-83 228-162.65 20.09-26.93 35.06-57 45.94-91.42q2.37-17.59 3.62-35.85c-.11-.06-.19-.17-.35-.2" class="cls-10"/><path d="M518.02 241.46a1.54 1.54 0 0 0-.43 0 1.3 1.3 0 0 0-1 .94c-8.89 36-23.06 76.16-66.3 126-69.79 80.51-160 141.61-229.69 155.64-30.4 6.12-56.54 3.57-77.69-7.57a1.26 1.26 0 0 0-1.66.45c-.08.12 0 .29-.08.43 4.6 3.51 9.25 7 13.94 10.27 20.39 10.62 45.52 13.09 75 7.17 70.91-14.19 165.36-79.62 229.78-158.97 27.68-34.08 48.83-76.51 57.38-114.51.51-6.48.93-13 1.2-19.62a1.27 1.27 0 0 0-.41-.23" class="cls-10"/><path d="M518.48 212.84a1.35 1.35 0 0 0-.35 0 1.27 1.27 0 0 0-1 1c-8.42 51.44-33.48 99.23-76.56 146.12-73.84 80.38-162.94 138.98-232.55 152.98-31.65 6.37-58.64 3.54-80.23-8.44a1.29 1.29 0 0 0-.86-.12 1.24 1.24 0 0 0-.8.52c-.08.12 0 .25-.09.38q9.3 7.69 18.91 14.92c21.22 10.1 46.74 12.28 76.19 6.36 70.24-14.14 161-75.56 231.11-156.47 42.1-48.55 56.86-88 65.89-123.37q.87-16.62.68-33.7c-.13-.06-.22-.16-.36-.18" class="cls-10"/><path d="M518.19 199.66a1 1 0 0 0-.34 0 1.27 1.27 0 0 0-1 1c-9.18 51.11-37.69 102.08-84.76 151.49-58.94 61.91-151.44 134-234.19 150.64-32.31 6.5-59.85 3.69-81.89-8.37a1.26 1.26 0 0 0-1.65.39c-.08.11-.06.26-.09.38 4.95 4.38 10 8.67 15.1 12.82 21.79 11.09 48.31 13.6 79.17 7.39 70.09-14.1 159.71-73 233.89-153.71 42.46-46.2 67.43-93.36 76.49-144 0-5.93-.1-11.89-.31-17.9a1.14 1.14 0 0 0-.42-.19" class="cls-10"/><path d="M516.94 176.83a1 1 0 0 0-.29 0 1.24 1.24 0 0 0-1 1c-9.35 57.56-41.31 113.58-95 166.48-80.63 79.52-165.63 132.88-233.21 146.48-34.48 6.94-63.68 3.47-86.79-10.33a1.29 1.29 0 0 0-.9-.15 1.25 1.25 0 0 0-.76.48c-.08.11-.06.25-.11.37q8.88 8.46 18.2 16.57c22.36 11.39 49.59 14 81.31 7.57 83.34-16.77 176.31-89.19 235.54-151.37 46.51-48.84 74.93-99.24 84.75-149.86-.24-8.95-.62-17.95-1.32-27.05a1 1 0 0 0-.42-.19" class="cls-10"/><path d="M515.45 160.6a1.09 1.09 0 0 0-.26 0 1.27 1.27 0 0 0-1 1.12c-4.86 51.94-41.42 113.86-103 174.36-75.54 74.28-168.67 131.2-237.26 145-34.29 6.9-62.15 3.54-82.84-10a1.28 1.28 0 0 0-.94-.19 1.33 1.33 0 0 0-.73.44c-.09.12-.08.26-.13.37q6.09 6.13 12.4 12.06c23.45 13.06 52.33 16.26 86.21 9.44 68.12-13.6 153.57-67.24 234.53-147.03 53.26-52.47 85.18-108.06 95.16-165.24-.46-6.69-1.07-13.41-1.78-20.17a.93.93 0 0 0-.36-.14" class="cls-10"/><path d="M512.02 132.2a1.48 1.48 0 0 0-.47 0 1.27 1.27 0 0 0-.56.27 1.26 1.26 0 0 0-.45 1c-.2 57.41-42 129.53-111.91 192.92-86.61 78.51-169.73 128.89-234.05 141.83-35.53 7.15-65.11 3-87.94-12.23a1.3 1.3 0 0 0-.95-.19 1.21 1.21 0 0 0-.7.41c-.11.11-.11.28-.16.42 5.55 6.08 11.35 12.06 17.3 18 21.15 12.73 48.73 15.8 82.32 9 69.04-13.9 162.69-71.03 238.57-145.69 60.63-59.63 97.11-120.72 103.26-172.53-1-11-2.35-22-4.11-33.15a.85.85 0 0 0-.17-.06" class="cls-10"/><path d="M509.53 117.44c-.14 0-.25-.12-.4-.11h-.11a1.26 1.26 0 0 0-1 1.27c.32 58.83-42 129.54-119.27 199.1-83.44 75.14-169.56 126-236.31 139.39-34 6.83-61.73 3.95-82.46-8.55a1.27 1.27 0 0 0-.91-.16 1.25 1.25 0 0 0-.72.44c-.07.08-.06.2-.11.3 3 3.41 6 6.77 9.08 10.13 23.29 14.65 52.7 18.52 87.79 11.45 64.75-13 148.28-63.62 235.21-142.46 68.89-62.48 110.6-133.49 112.56-190.95-1-6.59-2.1-13.21-3.32-19.85" class="cls-10"/><path d="M503.8 92.01c-.16 0-.31-.14-.47-.1a1.26 1.26 0 0 0-1 1.41c7.58 57.36-40.94 139.26-126.62 213.73C289.43 381.99 206.02 430.5 140.8 443.6c-35.81 7.21-64.22 3.38-84.42-11.4a1.26 1.26 0 0 0-1-.21 1.29 1.29 0 0 0-.66.35c-.1.11-.1.25-.16.37 5 6.36 10.35 12.67 15.88 18.92 21.09 12 48.79 14.7 82.48 7.92 67.18-13.52 153.75-64.55 237.52-140 76.22-68.64 118.58-138.56 119.93-197.4-.8-4.6-1.55-9.19-2.48-13.82-1.15-5.72-2.55-11.12-4.09-16.32" class="cls-10"/><path d="M505.1 97.21a165.62 165.62 0 0 0-7.14-21.82 1.08 1.08 0 0 0-.43-.07h-.11a1.25 1.25 0 0 0-.9 1.43c10.5 57.63-36.93 135.96-133.45 220.61C280.68 369.6 196.02 418.6 130.85 431.7c-36 7.24-64.17 3.26-83.87-11.8a1.26 1.26 0 0 0-1-.23 1.24 1.24 0 0 0-.63.33c-.1.08-.1.22-.16.33 3.67 5 7.48 10.06 11.5 15.07 20.68 14.2 49.09 17.86 84.63 10.71 65.65-13.21 149.48-61.92 236-137.15 84.31-73.26 132.7-153.82 127.78-211.75" class="cls-10"/><path d="M499.36 79.25a135.74 135.74 0 0 0-13.42-26.19 1 1 0 0 0-.33.11 1.28 1.28 0 0 0-.6 1.6c22 54.7-31.42 145.72-136.18 231.88-86.81 71.37-168.81 117.56-231.06 130.08-37.4 7.53-65.36 2.53-83.1-14.88a1.3 1.3 0 0 0-1.69-.08c-.12.09-.15.26-.21.38 4.4 6.93 9.15 13.9 14.29 20.82 20.22 14.59 48.51 18.42 84.29 11.22 65.6-13.2 150.66-62.39 233.4-134.93 95.62-83.87 143.19-161.8 134.61-220" class="cls-10"/><path d="M488.18 56.52a116.84 116.84 0 0 0-11.49-15.64s-.09-.07-.15 0a1.26 1.26 0 0 0-.37.13 1.27 1.27 0 0 0-.56 1.56c21.2 54.67-30.9 141.18-139.36 231.42-83.56 69.46-167.34 116.61-229.86 129.14-33.88 6.82-59.91 3.33-77.38-10.33a1.22 1.22 0 0 0-1-.25 1.31 1.31 0 0 0-.59.29c-.09.07-.09.17-.14.25q3.51 6 7.42 12c18.61 16.83 46.58 21.59 83.58 14.14 62.61-12.6 145.06-59 232.17-130.6C454.44 203.07 508.02 112.5 488.18 56.52" class="cls-10"/><path d="M478.34 42.83a112 112 0 0 0-12.88-13.23 1.62 1.62 0 0 0-.4.19 1.27 1.27 0 0 0-.2 1.67c29.16 43.14-33.77 145.68-143.26 233.58-81.73 65.56-163.29 110.22-223.79 122.4-39.4 7.93-67.45 1.61-81.1-18.28a1.28 1.28 0 0 0-1.3-.52 1.36 1.36 0 0 0-.37.13 1.4 1.4 0 0 0-.28.36 256.71 256.71 0 0 0 14 26.55c18.05 13.34 44.26 16.74 78.1 9.93 62.92-12.66 147.1-59.94 231-129.72C446.44 185.6 498.76 98.6 478.34 42.83" class="cls-10"/><path d="M468.18 32.14a107.94 107.94 0 0 0-13.46-10.65c-.11.07-.26.1-.35.21a1.26 1.26 0 0 0-.07 1.64c31.86 40-29.64 136.62-146.24 229.66-80.87 64.6-161.1 108.38-220.11 120.25-35.39 7.12-61.4 2-75.2-14.86-.38-.46-.73-.93-1.09-1.4a1.42 1.42 0 0 0-1.37-.55.91.91 0 0 0-.31.12 1.05 1.05 0 0 0-.31.32c2 5.18 4.22 10.45 6.73 15.76 14.91 19.1 43 25.1 81.91 17.27 60.87-12.25 142.84-57 224.87-122.9 108.84-87.41 171.68-189.62 145-234.87" class="cls-10"/><path d="M457.44 23.44a111.29 111.29 0 0 0-17.61-10.43c-.15.08-.31.11-.41.24a1.26 1.26 0 0 0 0 1.59c6.65 8 9.34 18.72 8 31.8-4.75 46.57-59 116.52-141.55 182.57-84.2 67.39-169.69 114.69-228.68 126.56-31.7 6.38-53.75 2.34-65.52-12a45.76 45.76 0 0 1-7.67-14 1.27 1.27 0 0 0-1.45-.82h-.08c-.13 0-.2.16-.31.23.25 1.46.39 2.93.68 4.39a158.28 158.28 0 0 0 8.18 26.63c14.49 17.44 41.25 22.82 77.45 15.54 59.41-12 140-56 221.21-120.76 116.18-92.74 177.7-189.46 147.76-231.54" class="cls-10"/><path d="M450.02 46.85c1.36-13.34-1.4-24.32-8-32.76a123.09 123.09 0 0 0-17.31-6.89c-.09.08-.22.1-.28.2a1.25 1.25 0 0 0 .23 1.57c.53.49 1 1 1.48 1.48 6.18 6.78 8.76 16 7.68 27.46-4.38 46.5-68.64 125-156.29 191-78 58.7-155.86 100-208.17 110.57-30.21 6.08-51 2-61.66-12.13-2.61-3.45-4.5-8.23-5.59-14.18a1.26 1.26 0 0 0-1.4-1h-.1c-.11 0-.18.13-.27.18a147.94 147.94 0 0 0 2.5 20.88 47.64 47.64 0 0 0 6.94 12.18c12.41 15.14 35.27 19.48 68 12.9 59.36-12 145.27-59.46 229.8-127.07C390.6 164.7 445.19 94.07 450.02 46.85" class="cls-10"/><path d="M436.28 38.14c1.15-12.17-1.65-22.06-8.33-29.39-.26-.29-.56-.56-.83-.83a149.07 149.07 0 0 0-31.35-6.71c-.11.14-.34.18-.37.37a1.28 1.28 0 0 0 .92 1.47c5.13 1.36 8.77 3.11 10.81 5.19 5.24 5.35 7.52 12.87 6.78 22.32-3.46 43.49-70.41 122.74-159.2 188.43-73.5 54.38-142.81 91-190.15 100.56-28.08 5.66-47.8 1.66-57-11.55-3.2-4.6-4.87-11.29-5-19.88.15-1.5.33-3 .52-4.47a1.26 1.26 0 0 0-1.1-1.41.89.89 0 0 0-.4 0c-.08 0-.08.12-.15.15a157.52 157.52 0 0 0-.85 34.85c1.22 4.62 2.8 8.66 5 11.61 11.34 15 32.93 19.36 64.18 13.07 52.67-10.6 130.87-52.1 209.19-111 88.22-66.32 152.9-145.61 157.33-192.78" class="cls-10"/><path d="M416.43 30.76c.81-10.21-1.72-18.4-7.49-24.29-1.83-1.87-4.67-3.46-8.47-4.79A185.15 185.15 0 0 0 371.81.03c-.15.2-.43.26-.45.51a1.27 1.27 0 0 0 1.1 1.33c7.1 1 12.08 3 14.82 6 4.16 4.57 5.88 11 5.1 19.2-3.74 40-63.32 110.94-144.88 172.57-71.65 54.14-139.33 90.54-185.68 99.87-25.27 5.09-43.27 1.72-52-9.73-3.78-4.94-5.24-11.67-4.35-20a1.26 1.26 0 0 0-1.06-1.38 1.14 1.14 0 0 0-.45 0s0 0-.05.05a168.6 168.6 0 0 0-3.56 24.26c.58 7 2.27 12.6 5.13 16.71 9.84 14.11 30.45 18.47 59.61 12.6 48.39-9.74 116.27-45.62 191.14-101 90.79-67.14 156.65-145.42 160.2-190.26" class="cls-10"/><path d="M394.91 27.34c.82-8.9-1.11-16-5.75-21.15-2.58-2.85-6.83-4.86-12.48-6.09a240.19 240.19 0 0 0-46.66 4.5 1.3 1.3 0 0 0-.11.48 1.27 1.27 0 0 0 1.35 1.1c15.23-1.24 25.55.72 29.88 5.65 3.47 3.94 4.86 9.42 4.13 16.28-3.79 35.6-61.21 101.11-139.64 159.3-65.73 48.78-124.17 80.12-164.61 88.25-22.31 4.49-37.53 1.59-45.24-8.6-3.95-5.19-5.16-12.17-3.61-20.74a1.28 1.28 0 0 0-.88-1.44 1.42 1.42 0 0 0-.58 0 188.91 188.91 0 0 0-8 29.59c0 6.8 1.66 12.49 5 16.89 9.52 12.46 27.86 16.05 54.54 10.68 46.77-9.44 114.83-45.99 186.77-100.35 82.09-62 142.07-133.72 145.89-174.35" class="cls-10"/><path d="M367.81 28.37c.8-7.59-.8-13.72-4.74-18.22-4.27-4.85-12.88-7.13-25.61-6.83-3.29.54-6.59 1.05-9.89 1.71a429.54 429.54 0 0 0-45.26 11.83c0 .18-.11.34 0 .51a1.26 1.26 0 0 0 1.47.9c2.84-.69 5.61-1.32 8.27-1.85 20.2-4.07 33.89-3.23 38.58 2.37 2.81 3.37 3.89 8 3.23 13.65-3.52 30-55.76 88.08-127 141.24-56.22 41.92-109.15 70.08-145.28 77.35-18.92 3.8-32.05 1.53-38-6.59-4.05-5.53-4.16-13.72-.3-24.35a1.27 1.27 0 0 0-.69-1.59 1 1 0 0 0-.44-.05A222.59 222.59 0 0 0 9.47 248.6c-.95 8.1.41 14.83 4.33 20 8.35 11 24.42 14.23 47.76 9.53 40.75-8.2 99.56-39.69 165.59-88.68C306.12 130.87 363.96 64.6 367.81 28.37" class="cls-10"/><path d="M292.62 13.73a477.64 477.64 0 0 0-51.83 18.57 1.24 1.24 0 0 0 0 .47 1.27 1.27 0 0 0 1.43.78.64.64 0 0 0 .17 0A165.09 165.09 0 0 1 265.02 27c15.36-3.09 26-1.78 30 3.7 13.43 18.66-33.47 76.28-104.6 128.46-47.32 34.73-95.4 60.05-125.4 66.1-14.14 2.84-23.8 1.34-28-4.33-5.47-7.45-1.61-21.92 10.87-40.72a1.09 1.09 0 0 0-.83-1.84 278.84 278.84 0 0 0-27.32 44.91c-2.69 9.55-2.23 17.21 1.77 22.67 6.59 9 20.6 11.58 40.55 7.57 36.48-7.34 89.79-35.71 146.26-77.82 72.92-54.39 124.37-111.85 128-143 .76-6.4-.53-11.64-3.8-15.55-6.65-8-25.14-6.33-39.94-3.44" class="cls-10"/><path d="M297.02 29.22c-4.63-6.43-15.86-8.06-32.5-4.71-4 .82-8.48 2-13.09 3.39a521.15 521.15 0 0 0-69.52 33.81c0 .17 0 .33.06.48a1.25 1.25 0 0 0 1.36.62 1.09 1.09 0 0 0 .36-.12c18.63-10 35.25-16.69 48-19.27 11.49-2.29 19.21-1.19 22.42 3.18 10.32 14.08-25.94 58.32-80.83 98.62-36.5 26.8-73.84 46.4-97.46 51.16-10.9 2.19-18.32 1.1-21.43-3.14-5.34-7.28 1.61-23.27 19.06-43.86a1.27 1.27 0 0 0-.12-1.77c-.14-.11-.31-.07-.47-.13a346.17 346.17 0 0 0-32.44 40.18c-8.75 15.65-10.7 27.57-5.43 34.75 4.86 6.63 15.12 8.42 30.5 5.32 30.84-6.21 78.11-31.08 126.43-66.53 74.67-54.79 119.87-111.53 105.1-131.98" class="cls-10"/><path d="M256.14 45.11c-3.87-5.31-12.25-6.71-24.87-4.17-9.17 1.84-20.37 5.81-32.72 11.51-52.08 27.8-99.66 64.47-135.22 105.67-12.13 16.66-16.15 29.58-11 36.63 3.79 5.17 11.86 6.56 24 4.12 23.94-4.82 61.68-24.59 98.45-51.6 57.91-42.52 92.9-86.43 81.36-102.16m-100.82 85.54c-24.52 17.84-48.94 30.77-63.74 33.75-6.12 1.23-10.23.7-11.88-1.57-5.49-7.55 14.53-34.48 53.06-62.52 23.67-17.22 47.83-29.82 63.06-32.89 6.6-1.33 11-.77 12.74 1.62 5.23 7.19-13.64 32.79-53.24 61.61" class="cls-10"/><path d="M210.61 67.6c-2.4-3.29-7.54-4.18-15.29-2.62-15.56 3.13-40.11 15.91-64 33.33-32.68 23.78-61.67 55-53.62 66.06 2.3 3.17 7.15 4 14.42 2.57 15.12-3.05 39.94-16.15 64.72-34.2 32.89-23.92 61.92-54 53.81-65.14M178.1 85.79c-.35 4.81-11.14 17.51-31.08 32.32-15.53 11.54-31 20.08-39.39 21.77-2.34.47-4.06.36-4.73-.29a1.58 1.58 0 0 1-.36-1.36c.36-5 11.34-18.14 31-32.72 15.1-11.21 30.47-19.58 39.16-21.33 2.53-.51 4.38-.4 5.09.31a1.47 1.47 0 0 1 .36 1.3" class="cls-10"/><path d="M179.52 82.69c-1.39-1.38-3.8-1.71-7.37-1-9 1.82-24.8 10.38-40.17 21.79-18.35 13.62-31.51 27.83-32 34.57a4.1 4.1 0 0 0 1.11 3.33c1.35 1.34 3.64 1.66 7 1 8.71-1.75 24.58-10.47 40.4-22.21 15.6-11.57 31.59-26.65 32.13-34.19a4 4 0 0 0-1.1-3.29" class="cls-10"/></g></g></g></svg>