<svg xmlns="http://www.w3.org/2000/svg" data-name="Telia Pebble Icon segments RGB x50" viewBox="0 0 519.5 585.53"><defs><style>.cls-1{fill:#00cdff}.cls-2{fill:#990ae3}.cls-4{fill:#ff3264}.cls-6{fill:#93f}.cls-8{fill:#32ff00}.cls-12{fill:#fff}</style></defs><g data-name="37"><path d="M456.06 465.5c-.09-.12-.13-.26-.26-.34a1.24 1.24 0 0 0-1.71.35 331.33 331.33 0 0 1-84.47 83.7c-25.46 17.55-49 28.51-69.87 32.57a90.92 90.92 0 0 1-10.33 1.43h-.14a1.28 1.28 0 0 0-1 1.24c0 .16.11.27.17.41a119.69 119.69 0 0 0 34.12-1.27c46-8.95 95.6-52.28 133.52-118.11" class="cls-1"/><path d="M450.81 474.43a432.44 432.44 0 0 0 29.69-58.46c-.11-.13-.16-.28-.32-.35s-.41.35-.66.4-1.24 1.63-1.43 2c-21.65 42.54-70.12 103-136.69 138.7-19.57 10.47-37.69 17.38-53.89 20.53a92.31 92.31 0 0 1-22.77 1.8 1.16 1.16 0 0 0-.32 0 1.25 1.25 0 0 0-1 1c0 .15.07.28.09.42a166.61 166.61 0 0 0 29.84 4.68c2.29-.28 4.56-.48 6.89-.93 21.25-4.13 45.07-15.23 70.82-33a335.47 335.47 0 0 0 79.76-76.87" class="cls-1"/><path d="M488.33 394.63a1.36 1.36 0 0 0-.72-.07 1.25 1.25 0 0 0-.91.71c-42.12 89.86-140.94 163.93-206.76 176.7-14.25 2.77-27 2.83-37.82.2a1.41 1.41 0 0 0-.54 0 1.24 1.24 0 0 0-1 .88 1 1 0 0 0 .05.5 220.55 220.55 0 0 0 26.95 7.94 96.8 96.8 0 0 0 20.43-1.78c16.45-3.19 34.82-10.19 54.6-20.79 62.66-33.57 109.76-90.54 133.49-132.85q6.71-15 12.59-31.13c-.12-.1-.17-.25-.34-.32" class="cls-1"/><path d="M503.24 345.68a296.23 296.23 0 0 1-27.95 60.19c-44.74 74-137.79 145.2-207.42 158.73-20.48 4-37.37 3.82-51.21-2.28a5.21 5.21 0 0 0-1.49-.42c-.38.07-.5-.26-.67.12a.93.93 0 0 0 0 .52 280.27 280.27 0 0 0 31.85 12.95c10.15 1.69 21.49 1.43 34-1 65-12.61 161.4-84.17 205.42-171.89a496.56 496.56 0 0 0 18.07-57.52Z" class="cls-1"/><path d="M506.94 330.26a1.38 1.38 0 0 0-.57 0 1.3 1.3 0 0 0-1 .85 298.88 298.88 0 0 1-28 61.15c-46.65 77.03-145.06 151.47-219.43 165.91-21.53 4.18-39.85 3.15-54.45-3.12a1.42 1.42 0 0 0-.73-.07 1.28 1.28 0 0 0-.91.7c-.08.15 0 .32 0 .49 6.76 3.58 13.52 6.83 20.25 9.82 13.07 4 28.5 4.56 46.3 1.1 71.39-13.88 163.24-84.12 209.06-159.9 10.84-17.92 18-35.82 24-52.9q3.15-11.69 5.79-23.78c-.11-.08-.17-.21-.32-.25" class="cls-1"/><path d="M511.82 304.65a1.19 1.19 0 0 0-.53 0 1.25 1.25 0 0 0-1 .85c-6.35 20.47-18.29 51.27-39.18 81.75-45.17 65.94-143.12 146.66-222.56 162.09-25.42 4.94-47.75 3.08-65.7-5.68a1.27 1.27 0 0 0-.8-.12 1.28 1.28 0 0 0-.87.64v.22q12.83 7.83 25.73 14.4c14.36 5 31.51 5.74 51.47 1.87 75-14.57 174.17-89.54 221.08-167.12a301 301 0 0 0 26-55.45c2.54-10.83 4.81-21.87 6.69-33.17a1 1 0 0 0-.38-.28" class="cls-1"/><path d="M514.48 286.91a1.2 1.2 0 0 0-.5 0 1.25 1.25 0 0 0-1 .85c-11.11 35.78-26.64 66.59-47.49 94.15-59.55 78.77-155.24 146.12-227.55 160.16-25.19 4.89-46.87 3.37-64.44-4.52a1.21 1.21 0 0 0-.75-.08 1.23 1.23 0 0 0-.87.63c-.07.13 0 .26 0 .4q7.81 5.06 15.68 9.68c17.43 7 38 8.21 61.5 3.65 80.07-15.55 178.71-96.8 224.17-163.14a309.38 309.38 0 0 0 37.71-76.89c1.47-8.13 2.79-16.32 3.9-24.66-.12-.09-.19-.2-.35-.23" class="cls-2"/><path d="M517.6 256.32a1.17 1.17 0 0 0-.42 0 1.24 1.24 0 0 0-1 1c-8 38.64-30 82.56-58.73 117.45-64.63 78.5-158.94 142.89-229.37 156.57-31.35 6.09-57.91 3.31-78.43-9.49a1.28 1.28 0 0 0-.91-.16 1.37 1.37 0 0 0-.6.38c9.21 6.83 18.56 13.27 28 19.21 17.36 6.82 37.46 8.1 62.29 3.28 72.84-14.15 169.18-81.91 229.08-161.11 20.26-26.79 35.44-56.72 46.55-91.11q2.49-17.58 3.87-35.82c-.12-.06-.2-.18-.35-.2" class="cls-2"/><path d="M518.48 242.42a1.24 1.24 0 0 0-.43 0 1.29 1.29 0 0 0-1 .93c-9.11 35.94-23.57 76.02-67.11 125.62-70.36 80-160.94 140.48-230.76 154-30.45 5.92-56.57 3.19-77.64-8.09a1.19 1.19 0 0 0-.84-.12 1.23 1.23 0 0 0-.82.56c-.09.12-.05.28-.09.43q6.87 5.31 13.87 10.37c20.32 10.74 45.43 13.39 74.91 7.66C299.52 520 394.44 455.25 459.4 376.34c27.91-33.89 49.34-76.17 58.16-114.11.55-6.48 1-13 1.33-19.61a1.14 1.14 0 0 0-.41-.24" class="cls-2"/><path d="M697.15 158.84a1.37 1.37 0 0 0-.35 0 1.3 1.3 0 0 0-1 1c-8.76 51.37-34.14 99-77.54 145.59-74.4 79.88-163.88 137.87-233.57 151.4C353 463 326 460 304.52 447.85a1.28 1.28 0 0 0-1.66.39c-.08.12-.06.25-.1.38q9.25 7.75 18.81 15c21.15 10.24 46.66 12.6 76.15 6.88 70.34-13.67 161.46-74.47 232.16-154.9 42.43-48.27 57.46-87.63 66.72-122.93.66-11.07.94-22.31.91-33.7-.13 0-.22-.16-.36-.17" style="fill:#c0f" transform="translate(-178.06 54.97)"/><path d="M518.94 200.62a1.25 1.25 0 0 0-.34 0 1.27 1.27 0 0 0-1 1c-9.52 51-38.38 101.82-85.78 150.91-59.36 61.5-152.34 133-235.2 149.05-32.35 6.28-59.88 3.28-81.84-8.93a1.3 1.3 0 0 0-.86-.13 1.23 1.23 0 0 0-.79.52 1.18 1.18 0 0 0-.09.38c4.93 4.41 9.92 8.73 15 12.92 21.71 11.23 48.21 13.93 79.12 7.92 70.17-13.63 160.19-71.92 234.91-152.12 42.78-45.91 68.07-92.91 77.47-143.45q0-8.91-.19-17.9a1.16 1.16 0 0 0-.42-.2" class="cls-4"/><path d="M517.8 177.79a1 1 0 0 0-.3 0 1.28 1.28 0 0 0-1 1c-9.73 57.5-42.07 113.29-96.11 165.83-81.16 78.91-166.53 131.7-234.2 144.84-34.53 6.71-63.7 3-86.72-10.91a1.27 1.27 0 0 0-1.66.31c-.08.11-.06.25-.11.37q8.82 8.52 18.09 16.69c22.28 11.55 49.49 14.29 81.25 8.13 83.46-16.21 176.91-88 236.56-149.78 46.84-48.52 75.6-98.73 85.76-149.29-.18-8.95-.5-17.95-1.14-27.06a1.09 1.09 0 0 0-.41-.18" class="cls-4"/><path d="M516.41 161.56a1 1 0 0 0-.25 0 1.27 1.27 0 0 0-1 1.11c-5.22 51.94-42.22 113.61-104.16 173.69-76 73.78-169.55 130.06-238.24 143.4-34.33 6.67-62.16 3.12-82.76-10.54a1.28 1.28 0 0 0-1.68.24 1.82 1.82 0 0 0-.13.37q6.06 6.14 12.32 12.14c23.36 13.22 52.22 16.61 86.15 10 68.14-13.23 154-66.27 235.49-145.51 53.61-52.11 85.9-107.48 96.27-164.59-.41-6.69-1-13.42-1.64-20.18a.91.91 0 0 0-.37-.15" class="cls-2"/><path d="M513.14 133.12a1.47 1.47 0 0 0-.47 0 1.17 1.17 0 0 0-.56.27 1.2 1.2 0 0 0-.46 1c-.59 57.41-42.9 129.25-113.22 192.16-87.1 77.95-170.55 127.76-235 140.27-35.49 6.88-65.09 2.56-87.81-12.85a1.28 1.28 0 0 0-1.66.21c-.1.11-.1.28-.16.42 5.51 6.12 11.27 12.14 17.18 18.06 21.07 12.88 48.62 16.14 82.26 9.6 69.13-13.42 163.16-70 239.52-144.06 61-59.22 97.94-120.06 104.43-171.83-1-11-2.2-22-3.88-33.17l-.17-.07" class="cls-2"/><path d="M688.85 63.38a1.14 1.14 0 0 0-.41-.12h-.12a1.25 1.25 0 0 0-1 1.24c-.08 58.83-42.9 129.26-120.61 198.3-83.94 74.57-170.41 124.8-237.25 137.78-34 6.61-61.75 3.54-82.4-9.1a1.23 1.23 0 0 0-.91-.17 1.29 1.29 0 0 0-.72.43c-.08.09-.06.2-.12.31q4.41 5.13 9 10.18c23.2 14.82 52.59 18.88 87.72 12.05 64.84-12.59 148.71-62.62 236.16-140.87 69.31-62 111.5-132.74 113.86-190.19q-1.42-9.88-3.19-19.86" style="fill:#af5aff" transform="translate(-178.06 54.97)"/><path d="M505.23 92.87a1.14 1.14 0 0 0-.47-.1 1.26 1.26 0 0 0-1 1.4c7.19 57.41-41.88 139-128.06 212.87-86.75 74.36-170.49 122.29-235.8 135-35.86 7-64.24 2.94-84.34-12a1.31 1.31 0 0 0-1.67.12c-.1.11-.1.25-.16.37 5 6.4 10.26 12.74 15.75 19 21 12.11 48.69 15 82.42 8.47 67.24-13.03 154.15-63.45 238.42-138.32 76.69-68.16 119.54-137.79 121.28-196.62-.78-4.6-1.49-9.2-2.39-13.83-1.11-5.74-2.48-11.14-4-16.36" class="cls-6"/><path d="M506.5 98.08a167.92 167.92 0 0 0-7-21.87 1.07 1.07 0 0 0-.43-.06h-.11a1.25 1.25 0 0 0-.9 1.43c10 57.67-37.86 135.67-134.94 219.67-82.89 71.72-167.86 120.11-233.13 132.79-36 7-64.19 2.83-83.79-12.37a1.28 1.28 0 0 0-1-.24 1.24 1.24 0 0 0-.64.33c-.09.08-.1.22-.16.33q5.45 7.59 11.4 15.15c20.58 14.34 49 18.19 84.55 11.28 65.74-12.77 149.9-60.91 237-135.56 84.78-72.68 133.72-152.91 129.19-210.88" class="cls-6"/><path d="M500.88 80.09a136 136 0 0 0-13.25-26.28 1.38 1.38 0 0 0-.34.12 1.27 1.27 0 0 0-.6 1.59c21.67 54.85-32.41 145.5-137.76 231-87.27 70.73-169.64 116.37-231.92 128.45-37.45 7.28-65.37 2.08-83-15.44a1.29 1.29 0 0 0-1.69-.09c-.11.09-.14.26-.21.38q6.54 10.44 14.15 20.92c20.12 14.72 48.39 18.74 84.21 11.78 65.69-12.76 151.08-61.36 234.31-133.35 96.16-83.2 144.28-160.81 136.1-219.08" class="cls-6"/><path d="M489.85 57.28a117.79 117.79 0 0 0-11.38-15.72c-.06 0-.09-.06-.15-.05a1.63 1.63 0 0 0-.37.13 1.28 1.28 0 0 0-.58 1.56c20.84 54.77-31.84 140.97-140.91 230.47-84 68.94-168.13 115.48-230.73 127.64-33.93 6.59-59.94 2.92-77.31-10.86a1.22 1.22 0 0 0-1-.25 1.28 1.28 0 0 0-.6.28c-.08.07-.08.17-.14.25q3.48 6 7.34 12c18.5 16.95 46.44 21.9 83.49 14.71 62.69-12.18 145.45-58 233-129 104.59-84.84 158.74-175 139.32-231.16" class="cls-6"/><path d="M480.1 43.53a111.39 111.39 0 0 0-12.79-13.3 1.41 1.41 0 0 0-.39.19 1.26 1.26 0 0 0-.22 1.66c28.87 43.27-34.76 145.44-144.84 232.59-82.17 65.05-164 109.12-224.61 120.88-39.45 7.67-67.46 1.16-81-18.82a1.27 1.27 0 0 0-1.3-.53 1.36 1.36 0 0 0-.37.13c-.13.09-.19.24-.29.35a258.67 258.67 0 0 0 13.86 26.65c18 13.46 44.15 17 78 10.46 63-12.24 147.5-58.95 231.85-128.16 109.18-89.59 162.08-176.18 142-232.1" class="cls-6"/><path d="M470.02 32.77a108.05 108.05 0 0 0-13.39-10.74 1 1 0 0 0-.36.21 1.27 1.27 0 0 0-.08 1.64c31.6 40.24-30.55 136.41-147.78 228.66-81.31 64-161.83 107.29-220.93 118.76-35.43 6.89-61.4 1.56-75.09-15.37q-.55-.69-1.08-1.41a1.42 1.42 0 0 0-1.37-.55 1 1 0 0 0-.31.11 1.05 1.05 0 0 0-.31.32c1.91 5.2 4.15 10.48 6.62 15.81 14.78 19.2 42.84 25.39 81.8 17.82 60.95-11.83 143.2-56.06 225.69-121.37C432.88 179.97 496.39 78.2 470.02 32.77" class="cls-6"/><path d="M637.4-31a113 113 0 0 0-17.55-10.55c-.14.09-.3.12-.41.25a1.28 1.28 0 0 0 0 1.59c6.6 8.06 9.22 18.77 7.8 31.84-5.07 46.55-59.77 116.13-142.79 181.62C399.78 240.58 314 287.31 254.9 298.78c-31.74 6.17-53.75 2-65.43-12.46a45.82 45.82 0 0 1-7.57-14 1.27 1.27 0 0 0-1.45-.82h-.08c-.13 0-.2.16-.31.23.23 1.47.37 2.94.65 4.4a157.85 157.85 0 0 0 8 26.65c14.37 17.53 41.1 23.1 77.34 16.06 59.49-11.55 140.41-55 222-119.26C604.88 107.6 667.05 11.31 637.4-31" style="fill:#0c6" transform="translate(-178.06 54.97)"/><path d="M451.71 47.36c1.45-13.34-1.23-24.33-7.79-32.82a124.73 124.73 0 0 0-17.26-7c-.1.08-.23.1-.29.2a1.26 1.26 0 0 0 .23 1.58c.52.49 1 1 1.47 1.49 6.13 6.82 8.64 16.08 7.49 27.5-4.69 46.47-69.49 124.55-157.62 189.9-78.43 58.18-156.53 99-208.91 109.17-30.26 5.87-51 1.66-61.58-12.55-2.59-3.46-4.44-8.26-5.49-14.22a1.27 1.27 0 0 0-1.4-1h-.1c-.11 0-.18.12-.27.17a148.08 148.08 0 0 0 2.36 20.9A47.89 47.89 0 0 0 9.4 342.9c12.31 15.23 35.15 19.72 67.89 13.36 59.48-11.57 145.7-58.49 230.65-125.53 83.6-65.93 138.67-136.18 143.77-183.37" class="cls-8"/><path d="M438.07 38.56c1.23-12.17-1.5-22.07-8.12-29.45-.26-.29-.56-.57-.83-.84a149.43 149.43 0 0 0-31.31-6.92c-.1.14-.34.18-.36.37a1.26 1.26 0 0 0 .91 1.47c5.12 1.4 8.74 3.17 10.77 5.26 5.2 5.39 7.43 12.92 6.62 22.37-3.74 43.47-71.23 122.27-160.46 187.35-73.87 53.89-143.42 90.07-190.82 99.28-28.13 5.46-47.82 1.33-56.95-11.94-3.17-4.62-4.79-11.33-4.83-19.92.16-1.49.34-3 .54-4.46a1.25 1.25 0 0 0-1.09-1.42.9.9 0 0 0-.4 0c-.07 0-.08.12-.14.14A157 157 0 0 0 .51 314.7c1.18 4.63 2.74 8.68 5 11.64 11.23 15.05 32.79 19.59 64.09 13.51 52.74-10.24 131.22-51.22 209.94-109.61 88.57-65.73 153.78-144.55 158.53-191.68" class="cls-8"/><path d="M418.27 31.04c.88-10.21-1.59-18.41-7.32-24.34-1.81-1.89-4.65-3.49-8.44-4.85a186 186 0 0 0-28.65-1.88c-.15.19-.43.26-.45.51a1.26 1.26 0 0 0 1.09 1.33c7.09 1 12.06 3.08 14.78 6.13 4.13 4.6 5.8 11.07 5 19.23-4 40-64.07 110.52-146 171.6-72 53.65-139.94 89.59-186.35 98.61-25.31 4.91-43.28 1.42-52-10.08-3.74-5-5.15-11.71-4.21-20.06a1.25 1.25 0 0 0-1.05-1.38 1.36 1.36 0 0 0-.45 0h-.05A168.62 168.62 0 0 0 .44 290.1c.54 7 2.19 12.61 5 16.75 9.74 14.17 30.31 18.67 59.51 13 48.46-9.41 116.58-44.83 191.83-99.71C348 153.68 414.42 75.88 418.27 31.04" class="cls-8"/><path d="M574.83-27.5c.89-8.89-1-16-5.6-21.18-2.56-2.87-6.79-4.91-12.43-6.18a240.67 240.67 0 0 0-46.67 4.18 1.21 1.21 0 0 0-.12.48 1.27 1.27 0 0 0 1.34 1.11c15.24-1.14 25.55.89 29.85 5.85 3.44 4 4.79 9.45 4 16.31-4 35.58-61.89 100.7-140.71 158.35-66.08 48.34-124.73 79.28-165.18 87.14-22.34 4.34-37.54 1.34-45.18-8.9-3.91-5.22-5.08-12.21-3.48-20.76a1.25 1.25 0 0 0-1.45-1.48A190 190 0 0 0 181 217c0 6.8 1.57 12.5 4.91 16.92 9.43 12.53 27.76 16.24 54.47 11.05 46.77-9.08 115.06-45.2 187.37-99.07 82.5-61.47 143-132.75 147.05-173.36" style="fill:#ff00cd" transform="translate(-178.06 54.97)"/><path d="M369.67 28.32c.86-7.58-.7-13.72-4.62-18.25-4.24-4.88-12.83-7.22-25.55-7-3.31.51-6.6 1-9.91 1.64a426.89 426.89 0 0 0-45.34 11.53c0 .18-.11.34-.05.5a1.26 1.26 0 0 0 1.46.92c2.85-.68 5.62-1.29 8.28-1.81 20.23-3.92 33.92-3 38.57 2.64 2.78 3.39 3.84 8 3.14 13.67-3.73 30-56.36 87.71-128 140.38-56.4 41.49-109.52 69.33-145.71 76.36-18.94 3.68-32.06 1.32-37.95-6.84-4-5.55-4.07-13.74-.14-24.35a1.26 1.26 0 0 0-.67-1.6 1.35 1.35 0 0 0-.44 0 223 223 0 0 0-12.89 30c-1 8.09.32 14.83 4.2 20.05 8.27 11.07 24.32 14.4 47.69 9.86 40.81-7.93 99.83-39 166.19-87.56 79.36-58 137.65-123.9 141.74-160.13" class="cls-2"/><path d="M294.59 13.17a476.21 476.21 0 0 0-52 18.22 1.07 1.07 0 0 0 0 .47 1.25 1.25 0 0 0 1.42.79h.17a164.2 164.2 0 0 1 22.76-6.4c15.38-3 26-1.6 29.93 3.91 13.3 18.74-34 76.05-105.46 127.75-47.55 34.41-95.78 59.4-125.86 65.25-14.16 2.75-23.81 1.18-27.94-4.52-5.41-7.49-1.46-21.93 11.15-40.65a1.25 1.25 0 0 0-.32-1.74 1.21 1.21 0 0 0-.5-.1 278.14 278.14 0 0 0-27.61 44.73c-2.76 9.53-2.35 17.18 1.61 22.67 6.53 9 20.52 11.73 40.49 7.85 36.54-7.1 90-35.11 146.79-76.83 73.29-53.9 125.13-111 129-142.11.79-6.39-.46-11.64-3.71-15.58-6.58-8-25.09-6.5-39.9-3.71" class="cls-2"/><path d="M298.94 28.7c-4.58-6.47-15.81-8.17-32.47-4.93-4.05.78-8.49 1.94-13.11 3.3a520.14 520.14 0 0 0-69.77 33.34c0 .17 0 .32.05.47a1.27 1.27 0 0 0 1.35.64 1.69 1.69 0 0 0 .36-.12c18.7-9.91 35.37-16.46 48.18-18.95 11.43-2.22 19.14-1.06 22.32 3.34 10.23 14.18-26.33 58.18-81.49 98.08-36.68 26.55-74.16 45.9-97.81 50.49-10.91 2.12-18.33 1-21.41-3.28-5.29-7.32 1.77-23.26 19.36-43.73a1.27 1.27 0 0 0-.11-1.77c-.13-.12-.31-.07-.47-.14a346.37 346.37 0 0 0-32.7 40c-8.86 15.58-10.89 27.49-5.67 34.71 4.81 6.66 15.06 8.52 30.47 5.52 30.92-6.02 78.31-30.58 126.92-65.7 75-54.3 120.57-110.73 106-131.27" class="cls-8"/><path d="M257.94 44.31c-3.84-5.34-12.2-6.8-24.84-4.34-9.18 1.78-20.41 5.67-32.8 11.28-52.31 27.45-100.14 63.8-135.98 104.72-12.24 16.58-16.35 29.47-11.22 36.55 3.75 5.2 11.81 6.64 24 4.29 24-4.66 61.84-24.18 98.8-50.94 58.19-42.13 93.47-85.8 82-101.6m-101.4 84.89c-24.65 17.68-49.15 30.44-64 33.32-6.13 1.19-10.23.63-11.87-1.65-5.43-7.59 14.76-34.38 53.48-62.16 23.79-17.06 48-29.5 63.28-32.46 6.61-1.28 11-.7 12.73 1.7 5.19 7.22-13.86 32.7-53.65 61.25" class="cls-8"/><path d="M212.21 66.44c-2.37-3.31-7.51-4.23-15.27-2.72-15.59 3-40.22 15.63-64.26 32.89-32.84 23.56-62.05 54.57-54.07 65.7 2.28 3.18 7.13 4.07 14.4 2.66 15.15-2.94 40.05-15.88 64.95-33.76 33.05-23.7 62.29-53.56 54.25-64.77m-32.63 18c-.38 4.85-11.26 17.44-31.33 32.11-15.61 11.42-31.13 19.89-39.53 21.52-2.34.45-4.07.33-4.73-.32a1.59 1.59 0 0 1-.35-1.36c.39-5 11.46-18.07 31.2-32.52 15.17-11.1 30.59-19.36 39.3-21.06 2.54-.49 4.38-.37 5.08.34a1.47 1.47 0 0 1 .36 1.31" class="cls-8"/><path d="M181.02 81.37c-1.38-1.4-3.79-1.74-7.36-1-9 1.76-24.87 10.2-40.32 21.51-18.4 13.45-31.7 27.57-32.23 34.31a4 4 0 0 0 1.09 3.33c1.34 1.36 3.62 1.69 7 1 8.72-1.69 24.65-10.3 40.54-21.94 15.67-11.47 31.76-26.41 32.35-33.95a4 4 0 0 0-1.08-3.29" class="cls-8"/><g style="mask:url(#mask)"><g style="opacity:.3"><path d="M456.06 465.5c-.09-.12-.13-.26-.26-.34a1.24 1.24 0 0 0-1.71.35 331.33 331.33 0 0 1-84.47 83.7c-25.46 17.55-49 28.51-69.87 32.57a90.92 90.92 0 0 1-10.33 1.43h-.14a1.28 1.28 0 0 0-1 1.24c0 .16.11.27.17.41a119.69 119.69 0 0 0 34.12-1.27c46-8.95 95.6-52.28 133.52-118.11" class="cls-12"/><path d="M450.81 474.43a432.44 432.44 0 0 0 29.69-58.46c-.11-.13-.16-.28-.32-.35s-.41.35-.66.4-1.24 1.63-1.43 2c-21.65 42.54-70.12 103-136.69 138.7-19.57 10.47-37.69 17.38-53.89 20.53a92.31 92.31 0 0 1-22.77 1.8 1.16 1.16 0 0 0-.32 0 1.25 1.25 0 0 0-1 1c0 .15.07.28.09.42a166.61 166.61 0 0 0 29.84 4.68c2.29-.28 4.56-.48 6.89-.93 21.25-4.13 45.07-15.23 70.82-33a335.47 335.47 0 0 0 79.76-76.87" class="cls-12"/><path d="M488.33 394.63a1.36 1.36 0 0 0-.72-.07 1.25 1.25 0 0 0-.91.71c-42.12 89.86-140.94 163.93-206.76 176.7-14.25 2.77-27 2.83-37.82.2a1.41 1.41 0 0 0-.54 0 1.24 1.24 0 0 0-1 .88 1 1 0 0 0 .05.5 220.55 220.55 0 0 0 26.95 7.94 96.8 96.8 0 0 0 20.43-1.78c16.45-3.19 34.82-10.19 54.6-20.79 62.66-33.57 109.76-90.54 133.49-132.85q6.71-15 12.59-31.13c-.12-.1-.17-.25-.34-.32" class="cls-12"/><path d="M503.24 345.68a296.23 296.23 0 0 1-27.95 60.19c-44.74 74-137.79 145.2-207.42 158.73-20.48 4-37.37 3.82-51.21-2.28a5.21 5.21 0 0 0-1.49-.42c-.38.07-.5-.26-.67.12a.93.93 0 0 0 0 .52 280.27 280.27 0 0 0 31.85 12.95c10.15 1.69 21.49 1.43 34-1 65-12.61 161.4-84.17 205.42-171.89a496.56 496.56 0 0 0 18.07-57.52Z" class="cls-12"/><path d="M506.94 330.26a1.38 1.38 0 0 0-.57 0 1.3 1.3 0 0 0-1 .85 298.88 298.88 0 0 1-28 61.15c-46.65 77.03-145.06 151.47-219.43 165.91-21.53 4.18-39.85 3.15-54.45-3.12a1.42 1.42 0 0 0-.73-.07 1.28 1.28 0 0 0-.91.7c-.08.15 0 .32 0 .49 6.76 3.58 13.52 6.83 20.25 9.82 13.07 4 28.5 4.56 46.3 1.1 71.39-13.88 163.24-84.12 209.06-159.9 10.84-17.92 18-35.82 24-52.9q3.15-11.69 5.79-23.78c-.11-.08-.17-.21-.32-.25" class="cls-12"/><path d="M511.82 304.65a1.19 1.19 0 0 0-.53 0 1.25 1.25 0 0 0-1 .85c-6.35 20.47-18.29 51.27-39.18 81.75-45.17 65.94-143.12 146.66-222.56 162.09-25.42 4.94-47.75 3.08-65.7-5.68a1.27 1.27 0 0 0-.8-.12 1.28 1.28 0 0 0-.87.64v.22q12.83 7.83 25.73 14.4c14.36 5 31.51 5.74 51.47 1.87 75-14.57 174.17-89.54 221.08-167.12a301 301 0 0 0 26-55.45c2.54-10.83 4.81-21.87 6.69-33.17a1 1 0 0 0-.38-.28" class="cls-12"/><path d="M514.48 286.91a1.2 1.2 0 0 0-.5 0 1.25 1.25 0 0 0-1 .85c-11.11 35.78-26.64 66.59-47.49 94.15-59.55 78.77-155.24 146.12-227.55 160.16-25.19 4.89-46.87 3.37-64.44-4.52a1.21 1.21 0 0 0-.75-.08 1.23 1.23 0 0 0-.87.63c-.07.13 0 .26 0 .4q7.81 5.06 15.68 9.68c17.43 7 38 8.21 61.5 3.65 80.07-15.55 178.71-96.8 224.17-163.14a309.38 309.38 0 0 0 37.71-76.89c1.47-8.13 2.79-16.32 3.9-24.66-.12-.09-.19-.2-.35-.23" class="cls-12"/><path d="M517.6 256.32a1.17 1.17 0 0 0-.42 0 1.24 1.24 0 0 0-1 1c-8 38.64-30 82.56-58.73 117.45-64.63 78.5-158.94 142.89-229.37 156.57-31.35 6.09-57.91 3.31-78.43-9.49a1.28 1.28 0 0 0-.91-.16 1.37 1.37 0 0 0-.6.38c9.21 6.83 18.56 13.27 28 19.21 17.36 6.82 37.46 8.1 62.29 3.28 72.84-14.15 169.18-81.91 229.08-161.11 20.26-26.79 35.44-56.72 46.55-91.11q2.49-17.58 3.87-35.82c-.12-.06-.2-.18-.35-.2" class="cls-12"/><path d="M518.48 242.42a1.24 1.24 0 0 0-.43 0 1.29 1.29 0 0 0-1 .93c-9.11 35.94-23.57 76.02-67.11 125.62-70.36 80-160.94 140.48-230.76 154-30.45 5.92-56.57 3.19-77.64-8.09a1.19 1.19 0 0 0-.84-.12 1.23 1.23 0 0 0-.82.56c-.09.12-.05.28-.09.43q6.87 5.31 13.87 10.37c20.32 10.74 45.43 13.39 74.91 7.66C299.52 520 394.44 455.25 459.4 376.34c27.91-33.89 49.34-76.17 58.16-114.11.55-6.48 1-13 1.33-19.61a1.14 1.14 0 0 0-.41-.24" class="cls-12"/><path d="M519.09 213.81a1.37 1.37 0 0 0-.35 0 1.3 1.3 0 0 0-1 1c-8.76 51.37-34.14 99-77.54 145.59-74.4 79.88-163.88 137.87-233.57 151.4-31.69 6.17-58.69 3.17-80.17-8.98a1.28 1.28 0 0 0-1.66.39c-.08.12-.06.25-.1.38q9.25 7.75 18.81 15c21.15 10.24 46.66 12.6 76.15 6.88C290 511.8 381.12 451 451.82 370.57c42.43-48.27 57.46-87.63 66.72-122.93.66-11.07.94-22.31.91-33.7-.13 0-.22-.16-.36-.17" class="cls-12"/><path d="M518.94 200.62a1.25 1.25 0 0 0-.34 0 1.27 1.27 0 0 0-1 1c-9.52 51-38.38 101.82-85.78 150.91-59.36 61.5-152.34 133-235.2 149.05-32.35 6.28-59.88 3.28-81.84-8.93a1.3 1.3 0 0 0-.86-.13 1.23 1.23 0 0 0-.79.52 1.18 1.18 0 0 0-.09.38c4.93 4.41 9.92 8.73 15 12.92 21.71 11.23 48.21 13.93 79.12 7.92 70.17-13.63 160.19-71.92 234.91-152.12 42.78-45.91 68.07-92.91 77.47-143.45q0-8.91-.19-17.9a1.16 1.16 0 0 0-.42-.2" class="cls-12"/><path d="M517.8 177.79a1 1 0 0 0-.3 0 1.28 1.28 0 0 0-1 1c-9.73 57.5-42.07 113.29-96.11 165.83-81.16 78.91-166.53 131.7-234.2 144.84-34.53 6.71-63.7 3-86.72-10.91a1.27 1.27 0 0 0-1.66.31c-.08.11-.06.25-.11.37q8.82 8.52 18.09 16.69c22.28 11.55 49.49 14.29 81.25 8.13 83.46-16.21 176.91-88 236.56-149.78 46.84-48.52 75.6-98.73 85.76-149.29-.18-8.95-.5-17.95-1.14-27.06a1.09 1.09 0 0 0-.41-.18" class="cls-12"/><path d="M516.41 161.56a1 1 0 0 0-.25 0 1.27 1.27 0 0 0-1 1.11c-5.22 51.94-42.22 113.61-104.16 173.69-76 73.78-169.55 130.06-238.24 143.4-34.33 6.67-62.16 3.12-82.76-10.54a1.28 1.28 0 0 0-1.68.24 1.82 1.82 0 0 0-.13.37q6.06 6.14 12.32 12.14c23.36 13.22 52.22 16.61 86.15 10 68.14-13.23 154-66.27 235.49-145.51 53.61-52.11 85.9-107.48 96.27-164.59-.41-6.69-1-13.42-1.64-20.18a.91.91 0 0 0-.37-.15" class="cls-12"/><path d="M513.14 133.12a1.47 1.47 0 0 0-.47 0 1.17 1.17 0 0 0-.56.27 1.2 1.2 0 0 0-.46 1c-.59 57.41-42.9 129.25-113.22 192.16-87.1 77.95-170.55 127.76-235 140.27-35.49 6.88-65.09 2.56-87.81-12.85a1.28 1.28 0 0 0-1.66.21c-.1.11-.1.28-.16.42 5.51 6.12 11.27 12.14 17.18 18.06 21.07 12.88 48.62 16.14 82.26 9.6 69.13-13.42 163.16-70 239.52-144.06 61-59.22 97.94-120.06 104.43-171.83-1-11-2.2-22-3.88-33.17l-.17-.07" class="cls-12"/><path d="M510.79 118.35a1.14 1.14 0 0 0-.41-.12h-.12a1.25 1.25 0 0 0-1 1.24c-.08 58.83-42.9 129.26-120.61 198.3-83.94 74.57-170.41 124.8-237.25 137.78-34 6.61-61.75 3.54-82.4-9.1a1.23 1.23 0 0 0-.91-.17 1.29 1.29 0 0 0-.72.43c-.08.09-.06.2-.12.31q4.41 5.13 9 10.18c23.2 14.82 52.59 18.88 87.72 12.05 64.84-12.59 148.71-62.62 236.16-140.87 69.31-62 111.5-132.74 113.86-190.19q-1.42-9.88-3.19-19.86" class="cls-12"/><path d="M505.23 92.87a1.14 1.14 0 0 0-.47-.1 1.26 1.26 0 0 0-1 1.4c7.19 57.41-41.88 139-128.06 212.87-86.75 74.36-170.49 122.29-235.8 135-35.86 7-64.24 2.94-84.34-12a1.31 1.31 0 0 0-1.67.12c-.1.11-.1.25-.16.37 5 6.4 10.26 12.74 15.75 19 21 12.11 48.69 15 82.42 8.47 67.24-13.03 154.15-63.45 238.42-138.32 76.69-68.16 119.54-137.79 121.28-196.62-.78-4.6-1.49-9.2-2.39-13.83-1.11-5.74-2.48-11.14-4-16.36" class="cls-12"/><path d="M506.5 98.08a167.92 167.92 0 0 0-7-21.87 1.07 1.07 0 0 0-.43-.06h-.11a1.25 1.25 0 0 0-.9 1.43c10 57.67-37.86 135.67-134.94 219.67-82.89 71.72-167.86 120.11-233.13 132.79-36 7-64.19 2.83-83.79-12.37a1.28 1.28 0 0 0-1-.24 1.24 1.24 0 0 0-.64.33c-.09.08-.1.22-.16.33q5.45 7.59 11.4 15.15c20.58 14.34 49 18.19 84.55 11.28 65.74-12.77 149.9-60.91 237-135.56 84.78-72.68 133.72-152.91 129.19-210.88" class="cls-12"/><path d="M500.88 80.09a136 136 0 0 0-13.25-26.28 1.38 1.38 0 0 0-.34.12 1.27 1.27 0 0 0-.6 1.59c21.67 54.85-32.41 145.5-137.76 231-87.27 70.73-169.64 116.37-231.92 128.45-37.45 7.28-65.37 2.08-83-15.44a1.29 1.29 0 0 0-1.69-.09c-.11.09-.14.26-.21.38q6.54 10.44 14.15 20.92c20.12 14.72 48.39 18.74 84.21 11.78 65.69-12.76 151.08-61.36 234.31-133.35 96.16-83.2 144.28-160.81 136.1-219.08" class="cls-12"/><path d="M489.85 57.28a117.79 117.79 0 0 0-11.38-15.72c-.06 0-.09-.06-.15-.05a1.63 1.63 0 0 0-.37.13 1.28 1.28 0 0 0-.58 1.56c20.84 54.77-31.84 140.97-140.91 230.47-84 68.94-168.13 115.48-230.73 127.64-33.93 6.59-59.94 2.92-77.31-10.86a1.22 1.22 0 0 0-1-.25 1.28 1.28 0 0 0-.6.28c-.08.07-.08.17-.14.25q3.48 6 7.34 12c18.5 16.95 46.44 21.9 83.49 14.71 62.69-12.18 145.45-58 233-129 104.59-84.84 158.74-175 139.32-231.16" class="cls-12"/><path d="M480.1 43.53a111.39 111.39 0 0 0-12.79-13.3 1.41 1.41 0 0 0-.39.19 1.26 1.26 0 0 0-.22 1.66c28.87 43.27-34.76 145.44-144.84 232.59-82.17 65.05-164 109.12-224.61 120.88-39.45 7.67-67.46 1.16-81-18.82a1.27 1.27 0 0 0-1.3-.53 1.36 1.36 0 0 0-.37.13c-.13.09-.19.24-.29.35a258.67 258.67 0 0 0 13.86 26.65c18 13.46 44.15 17 78 10.46 63-12.24 147.5-58.95 231.85-128.16 109.18-89.59 162.08-176.18 142-232.1" class="cls-12"/><path d="M470.02 32.77a108.05 108.05 0 0 0-13.39-10.74 1 1 0 0 0-.36.21 1.27 1.27 0 0 0-.08 1.64c31.6 40.24-30.55 136.41-147.78 228.66-81.31 64-161.83 107.29-220.93 118.76-35.43 6.89-61.4 1.56-75.09-15.37q-.55-.69-1.08-1.41a1.42 1.42 0 0 0-1.37-.55 1 1 0 0 0-.31.11 1.05 1.05 0 0 0-.31.32c1.91 5.2 4.15 10.48 6.62 15.81 14.78 19.2 42.84 25.39 81.8 17.82 60.95-11.83 143.2-56.06 225.69-121.37C432.88 179.97 496.39 78.2 470.02 32.77" class="cls-12"/><path d="M459.34 23.97a113 113 0 0 0-17.55-10.55c-.14.09-.3.12-.41.25a1.28 1.28 0 0 0 0 1.59c6.6 8.06 9.22 18.77 7.8 31.84-5.07 46.55-59.77 116.13-142.79 181.62-84.67 66.83-170.45 113.56-229.55 125.03-31.74 6.17-53.75 2-65.43-12.46a45.82 45.82 0 0 1-7.57-14 1.27 1.27 0 0 0-1.45-.82h-.08c-.13 0-.2.16-.31.23.23 1.47.37 2.94.65 4.4a157.85 157.85 0 0 0 8 26.65c14.37 17.53 41.1 23.1 77.34 16.06 59.49-11.55 140.41-55 222-119.26 116.83-91.98 179-188.27 149.35-230.58" class="cls-12"/><path d="M451.71 47.36c1.45-13.34-1.23-24.33-7.79-32.82a124.73 124.73 0 0 0-17.26-7c-.1.08-.23.1-.29.2a1.26 1.26 0 0 0 .23 1.58c.52.49 1 1 1.47 1.49 6.13 6.82 8.64 16.08 7.49 27.5-4.69 46.47-69.49 124.55-157.62 189.9-78.43 58.18-156.53 99-208.91 109.17-30.26 5.87-51 1.66-61.58-12.55-2.59-3.46-4.44-8.26-5.49-14.22a1.27 1.27 0 0 0-1.4-1h-.1c-.11 0-.18.12-.27.17a148.08 148.08 0 0 0 2.36 20.9A47.89 47.89 0 0 0 9.4 342.9c12.31 15.23 35.15 19.72 67.89 13.36 59.48-11.57 145.7-58.49 230.65-125.53 83.6-65.93 138.67-136.18 143.77-183.37" class="cls-12"/><path d="M438.07 38.56c1.23-12.17-1.5-22.07-8.12-29.45-.26-.29-.56-.57-.83-.84a149.43 149.43 0 0 0-31.31-6.92c-.1.14-.34.18-.36.37a1.26 1.26 0 0 0 .91 1.47c5.12 1.4 8.74 3.17 10.77 5.26 5.2 5.39 7.43 12.92 6.62 22.37-3.74 43.47-71.23 122.27-160.46 187.35-73.87 53.89-143.42 90.07-190.82 99.28-28.13 5.46-47.82 1.33-56.95-11.94-3.17-4.62-4.79-11.33-4.83-19.92.16-1.49.34-3 .54-4.46a1.25 1.25 0 0 0-1.09-1.42.9.9 0 0 0-.4 0c-.07 0-.08.12-.14.14A157 157 0 0 0 .51 314.7c1.18 4.63 2.74 8.68 5 11.64 11.23 15.05 32.79 19.59 64.09 13.51 52.74-10.24 131.22-51.22 209.94-109.61 88.57-65.73 153.78-144.55 158.53-191.68" class="cls-12"/><path d="M418.27 31.04c.88-10.21-1.59-18.41-7.32-24.34-1.81-1.89-4.65-3.49-8.44-4.85a186 186 0 0 0-28.65-1.88c-.15.19-.43.26-.45.51a1.26 1.26 0 0 0 1.09 1.33c7.09 1 12.06 3.08 14.78 6.13 4.13 4.6 5.8 11.07 5 19.23-4 40-64.07 110.52-146 171.6-72 53.65-139.94 89.59-186.35 98.61-25.31 4.91-43.28 1.42-52-10.08-3.74-5-5.15-11.71-4.21-20.06a1.25 1.25 0 0 0-1.05-1.38 1.36 1.36 0 0 0-.45 0h-.05A168.62 168.62 0 0 0 .44 290.1c.54 7 2.19 12.61 5 16.75 9.74 14.17 30.31 18.67 59.51 13 48.46-9.41 116.58-44.83 191.83-99.71C348 153.68 414.42 75.88 418.27 31.04" class="cls-12"/><path d="M396.77 27.47c.89-8.89-1-16-5.6-21.18-2.56-2.87-6.79-4.91-12.43-6.18a240.67 240.67 0 0 0-46.67 4.18 1.21 1.21 0 0 0-.12.48 1.27 1.27 0 0 0 1.34 1.11c15.24-1.14 25.55.89 29.85 5.85 3.44 4 4.79 9.45 4 16.31-4 35.58-61.89 100.7-140.71 158.35-66.08 48.34-124.73 79.28-165.18 87.14-22.34 4.34-37.54 1.34-45.18-8.9-3.91-5.22-5.08-12.21-3.48-20.76a1.25 1.25 0 0 0-1.45-1.48 190 190 0 0 0-8.2 29.58c0 6.8 1.57 12.5 4.91 16.92 9.43 12.53 27.76 16.24 54.47 11.05 46.77-9.08 115.06-45.2 187.37-99.07 82.5-61.47 143-132.75 147.05-173.36" class="cls-12"/><path d="M369.67 28.32c.86-7.58-.7-13.72-4.62-18.25-4.24-4.88-12.83-7.22-25.55-7-3.31.51-6.6 1-9.91 1.64a426.89 426.89 0 0 0-45.34 11.53c0 .18-.11.34-.05.5a1.26 1.26 0 0 0 1.46.92c2.85-.68 5.62-1.29 8.28-1.81 20.23-3.92 33.92-3 38.57 2.64 2.78 3.39 3.84 8 3.14 13.67-3.73 30-56.36 87.71-128 140.38-56.4 41.49-109.52 69.33-145.71 76.36-18.94 3.68-32.06 1.32-37.95-6.84-4-5.55-4.07-13.74-.14-24.35a1.26 1.26 0 0 0-.67-1.6 1.35 1.35 0 0 0-.44 0 223 223 0 0 0-12.89 30c-1 8.09.32 14.83 4.2 20.05 8.27 11.07 24.32 14.4 47.69 9.86 40.81-7.93 99.83-39 166.19-87.56 79.36-58 137.65-123.9 141.74-160.13" class="cls-12"/><path d="M294.59 13.17a476.21 476.21 0 0 0-52 18.22 1.07 1.07 0 0 0 0 .47 1.25 1.25 0 0 0 1.42.79h.17a164.2 164.2 0 0 1 22.76-6.4c15.38-3 26-1.6 29.93 3.91 13.3 18.74-34 76.05-105.46 127.75-47.55 34.41-95.78 59.4-125.86 65.25-14.16 2.75-23.81 1.18-27.94-4.52-5.41-7.49-1.46-21.93 11.15-40.65a1.25 1.25 0 0 0-.32-1.74 1.21 1.21 0 0 0-.5-.1 278.14 278.14 0 0 0-27.61 44.73c-2.76 9.53-2.35 17.18 1.61 22.67 6.53 9 20.52 11.73 40.49 7.85 36.54-7.1 90-35.11 146.79-76.83 73.29-53.9 125.13-111 129-142.11.79-6.39-.46-11.64-3.71-15.58-6.58-8-25.09-6.5-39.9-3.71" class="cls-12"/><path d="M298.94 28.7c-4.58-6.47-15.81-8.17-32.47-4.93-4.05.78-8.49 1.94-13.11 3.3a520.14 520.14 0 0 0-69.77 33.34c0 .17 0 .32.05.47a1.27 1.27 0 0 0 1.35.64 1.69 1.69 0 0 0 .36-.12c18.7-9.91 35.37-16.46 48.18-18.95 11.43-2.22 19.14-1.06 22.32 3.34 10.23 14.18-26.33 58.18-81.49 98.08-36.68 26.55-74.16 45.9-97.81 50.49-10.91 2.12-18.33 1-21.41-3.28-5.29-7.32 1.77-23.26 19.36-43.73a1.27 1.27 0 0 0-.11-1.77c-.13-.12-.31-.07-.47-.14a346.37 346.37 0 0 0-32.7 40c-8.86 15.58-10.89 27.49-5.67 34.71 4.81 6.66 15.06 8.52 30.47 5.52 30.92-6.02 78.31-30.58 126.92-65.7 75-54.3 120.57-110.73 106-131.27" class="cls-12"/><path d="M257.94 44.31c-3.84-5.34-12.2-6.8-24.84-4.34-9.18 1.78-20.41 5.67-32.8 11.28-52.31 27.45-100.14 63.8-135.98 104.72-12.24 16.58-16.35 29.47-11.22 36.55 3.75 5.2 11.81 6.64 24 4.29 24-4.66 61.84-24.18 98.8-50.94 58.19-42.13 93.47-85.8 82-101.6m-101.4 84.89c-24.65 17.68-49.15 30.44-64 33.32-6.13 1.19-10.23.63-11.87-1.65-5.43-7.59 14.76-34.38 53.48-62.16 23.79-17.06 48-29.5 63.28-32.46 6.61-1.28 11-.7 12.73 1.7 5.19 7.22-13.86 32.7-53.65 61.25" class="cls-12"/><path d="M212.21 66.44c-2.37-3.31-7.51-4.23-15.27-2.72-15.59 3-40.22 15.63-64.26 32.89-32.84 23.56-62.05 54.57-54.07 65.7 2.28 3.18 7.13 4.07 14.4 2.66 15.15-2.94 40.05-15.88 64.95-33.76 33.05-23.7 62.29-53.56 54.25-64.77m-32.63 18c-.38 4.85-11.26 17.44-31.33 32.11-15.61 11.42-31.13 19.89-39.53 21.52-2.34.45-4.07.33-4.73-.32a1.59 1.59 0 0 1-.35-1.36c.39-5 11.46-18.07 31.2-32.52 15.17-11.1 30.59-19.36 39.3-21.06 2.54-.49 4.38-.37 5.08.34a1.47 1.47 0 0 1 .36 1.31" class="cls-12"/><path d="M181.02 81.37c-1.38-1.4-3.79-1.74-7.36-1-9 1.76-24.87 10.2-40.32 21.51-18.4 13.45-31.7 27.57-32.23 34.31a4 4 0 0 0 1.09 3.33c1.34 1.36 3.62 1.69 7 1 8.72-1.69 24.65-10.3 40.54-21.94 15.67-11.47 31.76-26.41 32.35-33.95a4 4 0 0 0-1.08-3.29" class="cls-12"/></g></g></g></svg>