<svg xmlns="http://www.w3.org/2000/svg" data-name="Telia Pebble Icon segments RGB x50" viewBox="0 0 520.39 584.76"><defs><style>.cls-1{fill:#990ae3}.cls-2{fill:#ffe164}.cls-3{fill:#c0f}.cls-5{fill:#ffd200}.cls-9{fill:#fff}</style></defs><g data-name="29"><path d="M454.39 466.3c-.09-.13-.13-.27-.25-.35a1.3 1.3 0 0 0-.91-.19 1.24 1.24 0 0 0-.81.52 331.16 331.16 0 0 1-85.31 82.84c-25.64 17.3-49.26 28-70.19 31.87a90.39 90.39 0 0 1-10.36 1.32h-.14a1.26 1.26 0 0 0-1 1.22c0 .17.1.28.16.42a119.37 119.37 0 0 0 34.13-.93c46.12-8.47 96.13-51.3 134.71-116.74" class="cls-1"/><path d="M449.05 475.17A433.22 433.22 0 0 0 479.33 417c-.1-.13-.16-.28-.31-.35s-.42.35-.67.39-1.26 1.62-1.45 2c-22.08 42.32-71.16 102.33-138.09 137.31-19.67 10.27-37.86 17-54.09 20a92.63 92.63 0 0 1-22.79 1.57 1.72 1.72 0 0 0-.32 0 1.28 1.28 0 0 0-1 1 1 1 0 0 0 .09.42 166.09 166.09 0 0 0 29.79 5c2.29-.26 4.57-.44 6.89-.86 21.3-3.92 45.23-14.78 71.16-32.26a335.54 335.54 0 0 0 80.53-76.06" class="cls-1"/><path d="M487.38 395.75a1.3 1.3 0 0 0-1.64.62c-43 89.43-142.6 162.5-208.59 174.63-14.28 2.62-27 2.55-37.82-.19a1.4 1.4 0 0 0-.54 0 1.28 1.28 0 0 0-1 .87 1 1 0 0 0 0 .51 220.57 220.57 0 0 0 26.86 8.21 97.49 97.49 0 0 0 20.45-1.57c16.49-3 34.92-9.85 54.81-20.24 63-32.94 110.67-89.42 134.83-131.49 4.57-10 8.9-20.3 12.9-31-.11-.11-.17-.26-.33-.33" class="cls-1"/><path d="M502.78 346.92a296.43 296.43 0 0 1-28.55 59.9c-45.49 73.54-139.26 143.8-209 156.62-20.51 3.77-37.4 3.45-51.17-2.8a5.34 5.34 0 0 0-1.49-.43c-.39.07-.51-.27-.68.11a1.19 1.19 0 0 0 0 .53 280.25 280.25 0 0 0 31.72 13.26c10.13 1.79 21.47 1.65 34-.66 65.08-12 162.24-82.53 207.15-169.8a496.69 496.69 0 0 0 18.69-57.3Z" class="cls-1"/><path d="M506.59 331.58a1.23 1.23 0 0 0-.57 0 1.27 1.27 0 0 0-1 .84 298.88 298.88 0 0 1-28.67 60.86c-47.35 76.58-146.52 150-221 163.7-21.57 4-39.87 2.74-54.41-3.67a1.32 1.32 0 0 0-.73-.07 1.26 1.26 0 0 0-.92.68 1.19 1.19 0 0 0 0 .5c6.73 3.64 13.45 7 20.16 10 13 4.16 28.45 4.84 46.28 1.57 71.58-13.15 164.13-82.46 210.72-157.78 11-17.81 18.37-35.64 24.5-52.65q3.26-11.65 6-23.72c-.11-.08-.18-.21-.32-.25" class="cls-1"/><path d="M511.78 306.02a1.19 1.19 0 0 0-.53 0 1.28 1.28 0 0 0-1 .84c-6.55 20.41-18.83 51.09-40 81.35-45.84 65.48-144.59 145.2-224.19 159.83-25.47 4.68-47.78 2.59-65.64-6.35a1.23 1.23 0 0 0-.79-.12 1.21 1.21 0 0 0-.88.63v.22q12.74 7.95 25.58 14.65c14.3 5.12 31.45 6.07 51.44 2.39 75.14-13.8 175.08-87.77 222.77-164.87a300.5 300.5 0 0 0 26.58-55.18c2.66-10.8 5-21.82 7-33.1-.12-.1-.22-.24-.38-.28" class="cls-1"/><path d="M514.62 288.3a1.46 1.46 0 0 0-.51 0 1.29 1.29 0 0 0-1 .85c-11.47 35.67-27.32 66.31-48.44 93.67-60.33 78.1-156.72 144.52-229.14 157.83-25.25 4.63-46.9 2.89-64.39-5.17a1.15 1.15 0 0 0-.75-.09 1.2 1.2 0 0 0-.88.63c-.07.12 0 .25 0 .39 5.17 3.42 10.36 6.72 15.57 9.84 17.37 7.12 38 8.59 61.46 4.28 80.23-14.74 179.69-95 225.82-160.87a309.83 309.83 0 0 0 38.51-76.51c1.55-8.1 3-16.28 4.14-24.61-.12-.09-.18-.21-.34-.24" class="cls-1"/><path d="M518.04 257.74a1.4 1.4 0 0 0-.41 0 1.24 1.24 0 0 0-1 1c-8.45 38.56-30.85 82.25-59.92 116.85-65.42 77.84-160.38 141.27-231 154.24-31.4 5.77-57.93 2.72-78.33-10.28a1.2 1.2 0 0 0-.9-.17 1.34 1.34 0 0 0-.61.37c9.15 6.92 18.43 13.46 27.82 19.5 17.29 7 37.37 8.47 62.25 3.9 73-13.41 170-80.18 230.7-158.78 20.53-26.59 36-56.36 47.47-90.63q2.67-17.55 4.23-35.78c-.11-.06-.19-.18-.35-.21" class="cls-2"/><path d="M519.06 243.86a1.19 1.19 0 0 0-.42 0 1.29 1.29 0 0 0-1 .92c-9.5 35.83-24.35 75.77-68.42 124.89-71.14 79.32-162.33 138.88-232.28 151.73-30.5 5.61-56.6 2.62-77.56-8.87a1.22 1.22 0 0 0-.83-.14 1.27 1.27 0 0 0-.83.55c-.09.13-.06.29-.09.44 4.54 3.58 9.13 7.1 13.76 10.5 20.22 11 45.29 13.86 74.83 8.43 71.09-13.06 166.66-76.85 232.41-155.1 28.25-33.6 50.11-75.67 59.31-113.52.62-6.47 1.15-13 1.54-19.59a1.18 1.18 0 0 0-.42-.24" class="cls-1"/><path d="M519.96 215.25a1.24 1.24 0 0 0-1.36 1c-9.29 51.28-35.15 98.65-79 144.8-75.2 79.07-165.27 136.15-235.09 149-31.74 5.83-58.68 2.55-80.07-9.8a1.3 1.3 0 0 0-.86-.14 1.24 1.24 0 0 0-.8.52c-.09.11-.06.25-.11.37 6.11 5.23 12.34 10.33 18.66 15.23 21 10.46 46.53 13.08 76.08 7.65 70.47-13 162.21-72.83 233.71-152.54 42.92-47.83 58.34-87 68-122.25q1.14-16.59 1.24-33.68c-.13-.06-.21-.16-.36-.18" class="cls-1"/><path d="M519.9 202.07a1.29 1.29 0 0 0-.34 0 1.31 1.31 0 0 0-1 1c-10 50.94-39.41 101.42-87.3 150-60 60.9-153.68 131.41-236.71 146.66-32.4 6-59.9 2.68-81.73-9.75a1.29 1.29 0 0 0-1.66.36c-.08.12-.06.26-.1.39 4.89 4.45 9.84 8.83 14.89 13.07 21.59 11.45 48.07 14.41 79 8.72 70.33-12.88 160.93-70.25 236.5-149.7 43.24-45.47 69-92.21 78.91-142.66q.14-8.89 0-17.9a1.14 1.14 0 0 0-.42-.19" class="cls-1"/><path d="M519.04 179.22a.93.93 0 0 0-.29 0 1.29 1.29 0 0 0-1 1c-10.3 57.43-43.24 112.9-97.81 164.88-82 78.09-167.86 130-235.66 142.47-34.59 6.36-63.73 2.39-86.6-11.79a1.3 1.3 0 0 0-.9-.17 1.32 1.32 0 0 0-.77.46c-.08.12-.06.25-.11.37 5.82 5.74 11.79 11.39 17.91 16.88 22.17 11.77 49.35 14.79 81.17 8.94 83.62-15.34 177.8-86.19 238.07-147.34 47.32-48 76.59-98 87.27-148.41-.1-8.95-.32-18-.87-27.07a1 1 0 0 0-.41-.19" class="cls-3"/><path d="M1009.37 252.06a1.09 1.09 0 0 0-.26 0 1.26 1.26 0 0 0-1 1.1c-5.74 51.85-43.34 113.14-105.89 172.6-76.78 73-170.86 128.33-239.68 141-34.39 6.32-62.19 2.49-82.65-11.37a1.28 1.28 0 0 0-.94-.21 1.31 1.31 0 0 0-.74.43 1.63 1.63 0 0 0-.13.37q6 6.22 12.2 12.27c23.22 13.45 52 17.13 86 10.88 68.28-12.54 154.65-64.7 237-143.11 54.13-51.57 87-106.61 97.93-163.61q-.52-10.05-1.44-20.2c-.13-.05-.22-.15-.36-.15" style="fill:#642d96" transform="translate(-491.55 -89.08)"/><path d="M514.83 134.51a1.24 1.24 0 0 0-.47 0 1.17 1.17 0 0 0-.56.27 1.23 1.23 0 0 0-.47 1c-1.17 57.39-44.21 128.8-115.16 191-87.89 77.06-171.83 126-236.37 137.88-35.64 6.55-65.15 1.93-87.72-13.72a1.23 1.23 0 0 0-.94-.2 1.22 1.22 0 0 0-.71.4c-.11.11-.11.27-.17.41 5.45 6.17 11.15 12.25 17 18.24 20.93 13.09 48.45 16.62 82.16 10.43 69.26-12.72 163.86-68.31 241-141.63 61.63-58.6 99.14-119.06 106.16-170.76-.87-11-2-22-3.55-33.22a.85.85 0 0 0-.17-.06" class="cls-3"/><path d="M512.63 119.71c-.14 0-.25-.13-.4-.12h-.13a1.27 1.27 0 0 0-1 1.24c-.65 58.84-44.24 128.82-122.65 197.09-84.7 73.72-171.67 123.07-238.64 135.38-34.09 6.26-61.78 2.91-82.3-9.94a1.26 1.26 0 0 0-1.63.25c-.08.08-.07.2-.12.3 2.9 3.46 5.87 6.87 8.91 10.28 23 15 52.39 19.41 87.59 12.94 65-11.94 149.33-61.11 237.57-138.48 69.94-61.3 112.84-131.6 115.78-189q-1.32-9.9-3-19.9" class="cls-5"/><path d="M507.33 94.18a1.06 1.06 0 0 0-.46-.1 1.26 1.26 0 0 0-1 1.39c6.58 57.45-43.34 138.55-130.27 211.56-87.5 73.48-171.72 120.57-237.15 132.59-35.93 6.6-64.26 2.29-84.21-12.82a1.26 1.26 0 0 0-1-.24 1.34 1.34 0 0 0-.67.34 1.72 1.72 0 0 0-.17.37c4.92 6.45 10.14 12.85 15.56 19.19 20.89 12.32 48.54 15.52 82.34 9.31 67.4-12.39 154.81-61.94 239.84-136 77.38-67.37 120.93-136.56 123.27-195.38-.73-4.61-1.4-9.21-2.25-13.86-1.06-5.74-2.37-11.15-3.82-16.39" class="cls-5"/><path d="M508.55 99.41a167.14 167.14 0 0 0-6.78-21.94.93.93 0 0 0-.43-.07h-.11a1.25 1.25 0 0 0-.92 1.42c9.47 57.76-39.22 135.28-137.15 218.29-83.61 70.86-169.07 118.38-234.47 130.4-36.06 6.63-64.21 2.18-83.65-13.21a1.22 1.22 0 0 0-1-.25 1.27 1.27 0 0 0-.65.31c-.09.09-.1.23-.16.34q5.37 7.63 11.25 15.26c20.43 14.54 48.78 18.69 84.43 12.14 65.86-12.08 150.54-59.37 238.32-133.13 85.51-71.82 135.22-151.55 131.32-209.56" class="cls-3"/><path d="M503.11 81.36a136.1 136.1 0 0 0-13-26.41 1 1 0 0 0-.33.11 1.26 1.26 0 0 0-.62 1.59c21.11 55.06-33.88 145.16-140.09 229.55-88 69.88-170.81 114.68-233.21 126.15-37.52 6.89-65.39 1.41-82.84-16.29a1.26 1.26 0 0 0-1.13-.35 1.33 1.33 0 0 0-.56.24 1.41 1.41 0 0 0-.21.38c4.29 7 8.92 14 13.93 21.06 20 14.93 48.2 19.23 84.09 12.64 65.82-12.09 151.7-59.83 235.65-131 97-82.24 145.9-159.36 138.31-217.7" class="cls-3"/><path d="M492.31 58.44a118 118 0 0 0-11.22-15.84c-.06 0-.09-.06-.15-.05a1.27 1.27 0 0 0-1 1.68c20.28 55-33.28 140.64-143.24 229-84.73 68.09-169.3 113.77-232 125.29-34 6.25-60 2.32-77.19-11.64a1.26 1.26 0 0 0-1-.26 1.32 1.32 0 0 0-.6.28c-.08.07-.08.17-.14.25q3.42 6 7.22 12.12c18.32 17.13 46.21 22.36 83.34 15.54 62.81-11.54 146-56.52 234.33-126.66C456.1 204.37 511.17 114.72 492.31 58.41" class="cls-3"/><path d="M482.7 44.58a110.83 110.83 0 0 0-12.66-13.42 1.53 1.53 0 0 0-.39.18 1.28 1.28 0 0 0-.23 1.67c28.43 43.55-36.23 145.07-147.19 231.11-82.78 64.21-165.12 107.44-225.78 118.6-39.53 7.26-67.47.47-80.78-19.65a1.27 1.27 0 0 0-1.29-.54 1.36 1.36 0 0 0-.37.13c-.14.08-.19.23-.29.35a258.61 258.61 0 0 0 13.58 26.78c17.82 13.65 44 17.49 77.92 11.25 63.12-11.59 148.1-57.45 233.14-125.8C448.45 186.75 502.17 100.71 482.7 44.58" class="cls-1"/><path d="M472.73 33.72a108.33 108.33 0 0 0-13.28-10.87 1.07 1.07 0 0 0-.36.2 1.29 1.29 0 0 0-.1 1.64c31.19 40.57-31.93 136.1-150.09 227.16-82 63.17-162.91 105.64-222.11 116.52-35.5 6.52-61.42.94-74.94-16.13-.37-.47-.71-.94-1.07-1.42a1.4 1.4 0 0 0-1.35-.57.94.94 0 0 0-.32.11 1.14 1.14 0 0 0-.31.31c1.86 5.22 4 10.53 6.46 15.88 14.58 19.34 42.58 25.82 81.61 18.65 61.07-11.22 143.78-54.62 226.91-119.08 110.32-85.54 174.86-186.7 148.95-232.4" class="cls-1"/><path d="M462.14 24.84a113.29 113.29 0 0 0-17.44-10.73 1.84 1.84 0 0 0-.41.24 1.26 1.26 0 0 0 0 1.59c6.52 8.13 9 18.87 7.47 31.93-5.53 46.49-60.93 115.51-144.61 180.16-85.35 65.95-171.63 111.81-230.82 122.68-31.8 5.85-53.77 1.43-65.3-13.12a45.92 45.92 0 0 1-7.43-14.11 1.28 1.28 0 0 0-1.44-.84h-.08c-.13 0-.2.16-.31.23.22 1.46.34 2.93.6 4.4A157.47 157.47 0 0 0 10.08 354c14.19 17.68 40.86 23.51 77.17 16.84 59.6-10.95 141-53.59 223.22-117 117.76-90.76 180.9-186.43 151.68-229" class="cls-1"/><path d="M454.28 48.13c1.58-13.32-1-24.34-7.47-32.89a123.18 123.18 0 0 0-17.19-7.19c-.09.08-.22.1-.28.2a1.23 1.23 0 0 0 .21 1.57c.51.5 1 1 1.45 1.51 6.07 6.88 8.49 16.17 7.21 27.58-5.16 46.43-70.76 123.85-159.49 188.3-79 57.38-157.52 97.4-210 107-30.31 5.57-51 1.14-61.44-13.17-2.56-3.49-4.36-8.31-5.35-14.28a1.26 1.26 0 0 0-1.39-1.05H.45c-.11 0-.19.12-.28.17a147.78 147.78 0 0 0 2.15 20.92 47.75 47.75 0 0 0 6.73 12.3c12.15 15.35 34.94 20.07 67.74 14 59.56-10.94 146.25-57 231.92-123.17 84.21-65.07 140-134.77 145.58-181.9" class="cls-1"/><path d="M440.73 39.19c1.35-12.15-1.28-22.09-7.83-29.53-.25-.29-.55-.57-.82-.85a148.72 148.72 0 0 0-31.24-7.23c-.1.14-.33.17-.36.36a1.28 1.28 0 0 0 .89 1.48c5.11 1.45 8.71 3.26 10.72 5.37 5.15 5.45 7.3 13 6.4 22.44-4.19 43.43-72.47 121.53-162.35 185.69-74.41 53.13-144.33 88.61-191.82 97.33-28.19 5.18-47.83.85-56.82-12.51-3.13-4.66-4.69-11.38-4.64-20 .18-1.49.38-3 .59-4.46a1.26 1.26 0 0 0-1.07-1.43 1.32 1.32 0 0 0-.4 0c-.08 0-.09.12-.15.14a157.61 157.61 0 0 0-1.44 34.93c1.14 4.64 2.65 8.7 4.83 11.69 11.08 15.16 32.6 19.92 64 14.15 52.84-9.7 131.74-49.88 211-107.47 89.28-64.85 155.29-143 160.52-190.08" class="cls-2"/><path d="M421 31.48c1-10.21-1.4-18.43-7.08-24.42-1.79-1.9-4.61-3.54-8.38-4.93A184.18 184.18 0 0 0 376.91 0c-.15.19-.43.25-.45.5a1.26 1.26 0 0 0 1.07 1.34c7.08 1.09 12 3.2 14.72 6.28 4.08 4.65 5.69 11.13 4.77 19.28-4.41 39.92-65.18 109.86-147.77 170.11-72.55 52.92-140.8 88.17-187.34 96.72-25.36 4.65-43.29 1-51.85-10.61-3.7-5-5-11.76-4-20.09a1.26 1.26 0 0 0-1-1.4 1.09 1.09 0 0 0-.44 0s0 .05-.06.05a170 170 0 0 0-4 24.2c.47 7 2.06 12.63 4.85 16.79 9.6 14.28 30.13 19 59.38 13.61 48.55-8.92 117-43.65 192.83-97.77 91.9-65.61 159.1-142.74 163.4-187.53" class="cls-2"/><path d="M399.54 27.68c1-8.88-.83-16-5.39-21.23-2.53-2.9-6.74-5-12.37-6.31a241 241 0 0 0-46.71 3.71c0 .17-.14.3-.12.48a1.27 1.27 0 0 0 1.33 1.12c15.25-1 25.54 1.15 29.79 6.16 3.4 4 4.69 9.5 3.85 16.34-4.39 35.54-62.91 100.07-142.31 156.97-66.57 47.67-125.53 78-166 85.46-22.39 4.12-37.56 1-45.1-9.36-3.85-5.25-4.95-12.25-3.26-20.79a1.25 1.25 0 0 0-.86-1.45 1.23 1.23 0 0 0-.57 0 188.74 188.74 0 0 0-8.49 29.46c-.09 6.79 1.45 12.51 4.74 17 9.31 12.62 27.59 16.51 54.36 11.6 46.86-8.61 115.51-44 188.36-97.17 83.12-60.64 144.3-131.3 148.8-171.87" class="cls-5"/><path d="M372.45 28.26c.93-7.57-.56-13.73-4.43-18.3-4.19-4.92-12.76-7.34-25.48-7.26-3.31.48-6.61.94-9.93 1.55a429.62 429.62 0 0 0-45.45 11.06 1.14 1.14 0 0 0-.06.51 1.27 1.27 0 0 0 1.45.93c2.85-.65 5.62-1.23 8.29-1.72 20.27-3.73 34-2.65 38.54 3 2.75 3.41 3.76 8 3 13.7-4 29.94-57.24 87.13-129.39 139.07-56.85 40.95-110.25 68.25-146.54 74.92-19 3.48-32.07 1-37.88-7.23-3.95-5.6-3.93-13.79.12-24.35a1.28 1.28 0 0 0-.67-1.61 1.06 1.06 0 0 0-.43-.05 222 222 0 0 0-13.14 29.91c-1.09 8.08.16 14.83 4 20.09 8.16 11.15 24.18 14.64 47.59 10.33 40.89-7.51 100.22-38 167.07-85.87 79.91-57.24 138.86-122.5 143.34-158.68" class="cls-2"/><path d="M297.51 12.35a476.49 476.49 0 0 0-52.14 17.69 1.07 1.07 0 0 0 0 .47 1.25 1.25 0 0 0 1.41.81h.18a164.61 164.61 0 0 1 22.77-6.13c15.41-2.83 26-1.34 29.89 4.21 13.11 18.88-34.76 75.71-106.75 126.68-47.9 33.92-96.38 58.43-126.52 64-14.18 2.6-23.82.94-27.88-4.8-5.35-7.54-1.24-21.94 11.55-40.53a1.26 1.26 0 0 0-.3-1.75 1.21 1.21 0 0 0-.49-.11 277.87 277.87 0 0 0-28.07 44.45c-2.86 9.5-2.52 17.16 1.38 22.69 6.43 9.08 20.4 11.93 40.41 8.25 36.61-6.72 90.39-34.18 147.56-75.33 73.83-53.15 126.24-109.73 130.42-140.8.86-6.38-.34-11.64-3.55-15.62-6.5-8.05-25-6.75-39.86-4.11" class="cls-5"/><path d="M793.22 117c-4.52-6.51-15.72-8.33-32.42-5.26-4.06.75-8.51 1.86-13.14 3.17a520.84 520.84 0 0 0-70.08 32.63v.48a1.26 1.26 0 0 0 1.35.64 1.34 1.34 0 0 0 .36-.11c18.8-9.72 35.53-16.1 48.37-18.46 11.45-2.1 19.15-.86 22.28 3.56 10.08 14.26-26.92 57.88-82.48 97.25-37 26.18-74.62 45.15-98.31 49.5-10.94 2-18.34.8-21.38-3.49-5.22-7.38 2-23.25 19.8-43.53a1.27 1.27 0 0 0-.09-1.78c-.13-.11-.31-.07-.47-.14A347.2 347.2 0 0 0 534 271.09c-9 15.5-11.16 27.39-6 34.66 4.74 6.7 15 8.66 30.41 5.83 30.94-5.69 78.61-29.76 127.53-64.39 75.52-53.53 121.67-109.5 107.28-130.19" style="fill:#af5aff" transform="translate(-491.55 -89.08)"/><path d="M260.5 43.11c-3.79-5.37-12.14-6.91-24.8-4.59-9.2 1.69-20.46 5.47-32.91 11-52.54 26.91-100.73 62.78-137 103.37-12.41 16.46-16.65 29.31-11.6 36.44 3.7 5.24 11.75 6.76 23.91 4.52 24-4.41 62.08-23.54 99.31-49.93 58.62-41.53 94.34-84.85 83.07-100.77m-102.23 83.77c-24.82 17.44-49.46 30-64.31 32.68-6.14 1.13-10.23.52-11.84-1.78-5.36-7.64 15.1-34.22 54.11-61.61 24-16.82 48.32-29 63.6-31.82 6.62-1.21 11-.58 12.71 1.83 5.11 7.28-14.19 32.56-54.27 60.7" class="cls-5"/><path d="M214.59 64.78c-2.34-3.33-7.47-4.3-15.24-2.88-15.61 2.87-40.37 15.23-64.59 32.25-33.08 23.22-62.59 53.94-54.73 65.14 2.25 3.21 7.08 4.15 14.37 2.81 15.18-2.79 40.21-15.47 65.29-33.1 33.29-23.36 62.83-52.93 54.9-64.22m-32.81 17.69c-.43 4.84-11.44 17.32-31.65 31.79-15.73 11.28-31.33 19.55-39.75 21.1-2.34.43-4.07.29-4.72-.37a1.55 1.55 0 0 1-.34-1.36c.44-5 11.64-18 31.52-32.2 15.29-10.95 30.8-19.06 39.52-20.66 2.54-.47 4.39-.33 5.08.39a1.46 1.46 0 0 1 .34 1.31" class="cls-5"/><path d="M183.26 79.4c-1.37-1.41-3.78-1.78-7.36-1.13-9.06 1.67-25 10-40.53 21.11-18.58 13.31-32 27.3-32.58 34a4.06 4.06 0 0 0 1.06 3.35c1.33 1.37 3.6 1.72 7 1.1 8.74-1.61 24.75-10.06 40.76-21.53 15.78-11.31 32-26.09 32.69-33.62a4 4 0 0 0-1-3.3" class="cls-2"/><g style="mask:url(#mask)"><g style="opacity:.3"><path d="M454.39 466.3c-.09-.13-.13-.27-.25-.35a1.3 1.3 0 0 0-.91-.19 1.24 1.24 0 0 0-.81.52 331.16 331.16 0 0 1-85.31 82.84c-25.64 17.3-49.26 28-70.19 31.87a90.39 90.39 0 0 1-10.36 1.32h-.14a1.26 1.26 0 0 0-1 1.22c0 .17.1.28.16.42a119.37 119.37 0 0 0 34.13-.93c46.12-8.47 96.13-51.3 134.71-116.74" class="cls-9"/><path d="M449.05 475.17A433.22 433.22 0 0 0 479.33 417c-.1-.13-.16-.28-.31-.35s-.42.35-.67.39-1.26 1.62-1.45 2c-22.08 42.32-71.16 102.33-138.09 137.31-19.67 10.27-37.86 17-54.09 20a92.63 92.63 0 0 1-22.79 1.57 1.72 1.72 0 0 0-.32 0 1.28 1.28 0 0 0-1 1 1 1 0 0 0 .09.42 166.09 166.09 0 0 0 29.79 5c2.29-.26 4.57-.44 6.89-.86 21.3-3.92 45.23-14.78 71.16-32.26a335.54 335.54 0 0 0 80.53-76.06" class="cls-9"/><path d="M487.38 395.75a1.3 1.3 0 0 0-1.64.62c-43 89.43-142.6 162.5-208.59 174.63-14.28 2.62-27 2.55-37.82-.19a1.4 1.4 0 0 0-.54 0 1.28 1.28 0 0 0-1 .87 1 1 0 0 0 0 .51 220.57 220.57 0 0 0 26.86 8.21 97.49 97.49 0 0 0 20.45-1.57c16.49-3 34.92-9.85 54.81-20.24 63-32.94 110.67-89.42 134.83-131.49 4.57-10 8.9-20.3 12.9-31-.11-.11-.17-.26-.33-.33" class="cls-9"/><path d="M502.78 346.92a296.43 296.43 0 0 1-28.55 59.9c-45.49 73.54-139.26 143.8-209 156.62-20.51 3.77-37.4 3.45-51.17-2.8a5.34 5.34 0 0 0-1.49-.43c-.39.07-.51-.27-.68.11a1.19 1.19 0 0 0 0 .53 280.25 280.25 0 0 0 31.72 13.26c10.13 1.79 21.47 1.65 34-.66 65.08-12 162.24-82.53 207.15-169.8a496.69 496.69 0 0 0 18.69-57.3Z" class="cls-9"/><path d="M506.59 331.58a1.23 1.23 0 0 0-.57 0 1.27 1.27 0 0 0-1 .84 298.88 298.88 0 0 1-28.67 60.86c-47.35 76.58-146.52 150-221 163.7-21.57 4-39.87 2.74-54.41-3.67a1.32 1.32 0 0 0-.73-.07 1.26 1.26 0 0 0-.92.68 1.19 1.19 0 0 0 0 .5c6.73 3.64 13.45 7 20.16 10 13 4.16 28.45 4.84 46.28 1.57 71.58-13.15 164.13-82.46 210.72-157.78 11-17.81 18.37-35.64 24.5-52.65q3.26-11.65 6-23.72c-.11-.08-.18-.21-.32-.25" class="cls-9"/><path d="M511.78 306.02a1.19 1.19 0 0 0-.53 0 1.28 1.28 0 0 0-1 .84c-6.55 20.41-18.83 51.09-40 81.35-45.84 65.48-144.59 145.2-224.19 159.83-25.47 4.68-47.78 2.59-65.64-6.35a1.23 1.23 0 0 0-.79-.12 1.21 1.21 0 0 0-.88.63v.22q12.74 7.95 25.58 14.65c14.3 5.12 31.45 6.07 51.44 2.39 75.14-13.8 175.08-87.77 222.77-164.87a300.5 300.5 0 0 0 26.58-55.18c2.66-10.8 5-21.82 7-33.1-.12-.1-.22-.24-.38-.28" class="cls-9"/><path d="M514.62 288.3a1.46 1.46 0 0 0-.51 0 1.29 1.29 0 0 0-1 .85c-11.47 35.67-27.32 66.31-48.44 93.67-60.33 78.1-156.72 144.52-229.14 157.83-25.25 4.63-46.9 2.89-64.39-5.17a1.15 1.15 0 0 0-.75-.09 1.2 1.2 0 0 0-.88.63c-.07.12 0 .25 0 .39 5.17 3.42 10.36 6.72 15.57 9.84 17.37 7.12 38 8.59 61.46 4.28 80.23-14.74 179.69-95 225.82-160.87a309.83 309.83 0 0 0 38.51-76.51c1.55-8.1 3-16.28 4.14-24.61-.12-.09-.18-.21-.34-.24" class="cls-9"/><path d="M518.04 257.74a1.4 1.4 0 0 0-.41 0 1.24 1.24 0 0 0-1 1c-8.45 38.56-30.85 82.25-59.92 116.85-65.42 77.84-160.38 141.27-231 154.24-31.4 5.77-57.93 2.72-78.33-10.28a1.2 1.2 0 0 0-.9-.17 1.34 1.34 0 0 0-.61.37c9.15 6.92 18.43 13.46 27.82 19.5 17.29 7 37.37 8.47 62.25 3.9 73-13.41 170-80.18 230.7-158.78 20.53-26.59 36-56.36 47.47-90.63q2.67-17.55 4.23-35.78c-.11-.06-.19-.18-.35-.21" class="cls-9"/><path d="M519.06 243.86a1.19 1.19 0 0 0-.42 0 1.29 1.29 0 0 0-1 .92c-9.5 35.83-24.35 75.77-68.42 124.89-71.14 79.32-162.33 138.88-232.28 151.73-30.5 5.61-56.6 2.62-77.56-8.87a1.22 1.22 0 0 0-.83-.14 1.27 1.27 0 0 0-.83.55c-.09.13-.06.29-.09.44 4.54 3.58 9.13 7.1 13.76 10.5 20.22 11 45.29 13.86 74.83 8.43 71.09-13.06 166.66-76.85 232.41-155.1 28.25-33.6 50.11-75.67 59.31-113.52.62-6.47 1.15-13 1.54-19.59a1.18 1.18 0 0 0-.42-.24" class="cls-9"/><path d="M519.96 215.25a1.24 1.24 0 0 0-1.36 1c-9.29 51.28-35.15 98.65-79 144.8-75.2 79.07-165.27 136.15-235.09 149-31.74 5.83-58.68 2.55-80.07-9.8a1.3 1.3 0 0 0-.86-.14 1.24 1.24 0 0 0-.8.52c-.09.11-.06.25-.11.37 6.11 5.23 12.34 10.33 18.66 15.23 21 10.46 46.53 13.08 76.08 7.65 70.47-13 162.21-72.83 233.71-152.54 42.92-47.83 58.34-87 68-122.25q1.14-16.59 1.24-33.68c-.13-.06-.21-.16-.36-.18" class="cls-9"/><path d="M519.9 202.07a1.29 1.29 0 0 0-.34 0 1.31 1.31 0 0 0-1 1c-10 50.94-39.41 101.42-87.3 150-60 60.9-153.68 131.41-236.71 146.66-32.4 6-59.9 2.68-81.73-9.75a1.29 1.29 0 0 0-1.66.36c-.08.12-.06.26-.1.39 4.89 4.45 9.84 8.83 14.89 13.07 21.59 11.45 48.07 14.41 79 8.72 70.33-12.88 160.93-70.25 236.5-149.7 43.24-45.47 69-92.21 78.91-142.66q.14-8.89 0-17.9a1.14 1.14 0 0 0-.42-.19" class="cls-9"/><path d="M519.04 179.22a.93.93 0 0 0-.29 0 1.29 1.29 0 0 0-1 1c-10.3 57.43-43.24 112.9-97.81 164.88-82 78.09-167.86 130-235.66 142.47-34.59 6.36-63.73 2.39-86.6-11.79a1.3 1.3 0 0 0-.9-.17 1.32 1.32 0 0 0-.77.46c-.08.12-.06.25-.11.37 5.82 5.74 11.79 11.39 17.91 16.88 22.17 11.77 49.35 14.79 81.17 8.94 83.62-15.34 177.8-86.19 238.07-147.34 47.32-48 76.59-98 87.27-148.41-.1-8.95-.32-18-.87-27.07a1 1 0 0 0-.41-.19" class="cls-9"/><path d="M517.82 162.98a1.09 1.09 0 0 0-.26 0 1.26 1.26 0 0 0-1 1.1c-5.74 51.85-43.34 113.14-105.89 172.6-76.78 73-170.86 128.33-239.68 141-34.39 6.32-62.19 2.49-82.65-11.37a1.28 1.28 0 0 0-.94-.21 1.31 1.31 0 0 0-.74.43 1.63 1.63 0 0 0-.13.37q6 6.22 12.2 12.27c23.22 13.45 52 17.13 86 10.88 68.28-12.54 154.65-64.7 237-143.11 54.13-51.57 87-106.61 97.93-163.61q-.52-10.05-1.44-20.2c-.13-.05-.22-.15-.36-.15" class="cls-9"/><path d="M514.83 134.51a1.24 1.24 0 0 0-.47 0 1.17 1.17 0 0 0-.56.27 1.23 1.23 0 0 0-.47 1c-1.17 57.39-44.21 128.8-115.16 191-87.89 77.06-171.83 126-236.37 137.88-35.64 6.55-65.15 1.93-87.72-13.72a1.23 1.23 0 0 0-.94-.2 1.22 1.22 0 0 0-.71.4c-.11.11-.11.27-.17.41 5.45 6.17 11.15 12.25 17 18.24 20.93 13.09 48.45 16.62 82.16 10.43 69.26-12.72 163.86-68.31 241-141.63 61.63-58.6 99.14-119.06 106.16-170.76-.87-11-2-22-3.55-33.22a.85.85 0 0 0-.17-.06" class="cls-9"/><path d="M512.63 119.71c-.14 0-.25-.13-.4-.12h-.13a1.27 1.27 0 0 0-1 1.24c-.65 58.84-44.24 128.82-122.65 197.09-84.7 73.72-171.67 123.07-238.64 135.38-34.09 6.26-61.78 2.91-82.3-9.94a1.26 1.26 0 0 0-1.63.25c-.08.08-.07.2-.12.3 2.9 3.46 5.87 6.87 8.91 10.28 23 15 52.39 19.41 87.59 12.94 65-11.94 149.33-61.11 237.57-138.48 69.94-61.3 112.84-131.6 115.78-189q-1.32-9.9-3-19.9" class="cls-9"/><path d="M507.33 94.18a1.06 1.06 0 0 0-.46-.1 1.26 1.26 0 0 0-1 1.39c6.58 57.45-43.34 138.55-130.27 211.56-87.5 73.48-171.72 120.57-237.15 132.59-35.93 6.6-64.26 2.29-84.21-12.82a1.26 1.26 0 0 0-1-.24 1.34 1.34 0 0 0-.67.34 1.72 1.72 0 0 0-.17.37c4.92 6.45 10.14 12.85 15.56 19.19 20.89 12.32 48.54 15.52 82.34 9.31 67.4-12.39 154.81-61.94 239.84-136 77.38-67.37 120.93-136.56 123.27-195.38-.73-4.61-1.4-9.21-2.25-13.86-1.06-5.74-2.37-11.15-3.82-16.39" class="cls-9"/><path d="M508.55 99.41a167.14 167.14 0 0 0-6.78-21.94.93.93 0 0 0-.43-.07h-.11a1.25 1.25 0 0 0-.92 1.42c9.47 57.76-39.22 135.28-137.15 218.29-83.61 70.86-169.07 118.38-234.47 130.4-36.06 6.63-64.21 2.18-83.65-13.21a1.22 1.22 0 0 0-1-.25 1.27 1.27 0 0 0-.65.31c-.09.09-.1.23-.16.34q5.37 7.63 11.25 15.26c20.43 14.54 48.78 18.69 84.43 12.14 65.86-12.08 150.54-59.37 238.32-133.13 85.51-71.82 135.22-151.55 131.32-209.56" class="cls-9"/><path d="M503.11 81.36a136.1 136.1 0 0 0-13-26.41 1 1 0 0 0-.33.11 1.26 1.26 0 0 0-.62 1.59c21.11 55.06-33.88 145.16-140.09 229.55-88 69.88-170.81 114.68-233.21 126.15-37.52 6.89-65.39 1.41-82.84-16.29a1.26 1.26 0 0 0-1.13-.35 1.33 1.33 0 0 0-.56.24 1.41 1.41 0 0 0-.21.38c4.29 7 8.92 14 13.93 21.06 20 14.93 48.2 19.23 84.09 12.64 65.82-12.09 151.7-59.83 235.65-131 97-82.24 145.9-159.36 138.31-217.7" class="cls-9"/><path d="M492.31 58.44a118 118 0 0 0-11.22-15.84c-.06 0-.09-.06-.15-.05a1.27 1.27 0 0 0-1 1.68c20.28 55-33.28 140.64-143.24 229-84.73 68.09-169.3 113.77-232 125.29-34 6.25-60 2.32-77.19-11.64a1.26 1.26 0 0 0-1-.26 1.32 1.32 0 0 0-.6.28c-.08.07-.08.17-.14.25q3.42 6 7.22 12.12c18.32 17.13 46.21 22.36 83.34 15.54 62.81-11.54 146-56.52 234.33-126.66C456.1 204.37 511.17 114.72 492.31 58.41" class="cls-9"/><path d="M482.7 44.58a110.83 110.83 0 0 0-12.66-13.42 1.53 1.53 0 0 0-.39.18 1.28 1.28 0 0 0-.23 1.67c28.43 43.55-36.23 145.07-147.19 231.11-82.78 64.21-165.12 107.44-225.78 118.6-39.53 7.26-67.47.47-80.78-19.65a1.27 1.27 0 0 0-1.29-.54 1.36 1.36 0 0 0-.37.13c-.14.08-.19.23-.29.35a258.61 258.61 0 0 0 13.58 26.78c17.82 13.65 44 17.49 77.92 11.25 63.12-11.59 148.1-57.45 233.14-125.8C448.45 186.75 502.17 100.71 482.7 44.58" class="cls-9"/><path d="M472.73 33.72a108.33 108.33 0 0 0-13.28-10.87 1.07 1.07 0 0 0-.36.2 1.29 1.29 0 0 0-.1 1.64c31.19 40.57-31.93 136.1-150.09 227.16-82 63.17-162.91 105.64-222.11 116.52-35.5 6.52-61.42.94-74.94-16.13-.37-.47-.71-.94-1.07-1.42a1.4 1.4 0 0 0-1.35-.57.94.94 0 0 0-.32.11 1.14 1.14 0 0 0-.31.31c1.86 5.22 4 10.53 6.46 15.88 14.58 19.34 42.58 25.82 81.61 18.65 61.07-11.22 143.78-54.62 226.91-119.08 110.32-85.54 174.86-186.7 148.95-232.4" class="cls-9"/><path d="M462.14 24.84a113.29 113.29 0 0 0-17.44-10.73 1.84 1.84 0 0 0-.41.24 1.26 1.26 0 0 0 0 1.59c6.52 8.13 9 18.87 7.47 31.93-5.53 46.49-60.93 115.51-144.61 180.16-85.35 65.95-171.63 111.81-230.82 122.68-31.8 5.85-53.77 1.43-65.3-13.12a45.92 45.92 0 0 1-7.43-14.11 1.28 1.28 0 0 0-1.44-.84h-.08c-.13 0-.2.16-.31.23.22 1.46.34 2.93.6 4.4A157.47 157.47 0 0 0 10.08 354c14.19 17.68 40.86 23.51 77.17 16.84 59.6-10.95 141-53.59 223.22-117 117.76-90.76 180.9-186.43 151.68-229" class="cls-9"/><path d="M454.28 48.13c1.58-13.32-1-24.34-7.47-32.89a123.18 123.18 0 0 0-17.19-7.19c-.09.08-.22.1-.28.2a1.23 1.23 0 0 0 .21 1.57c.51.5 1 1 1.45 1.51 6.07 6.88 8.49 16.17 7.21 27.58-5.16 46.43-70.76 123.85-159.49 188.3-79 57.38-157.52 97.4-210 107-30.31 5.57-51 1.14-61.44-13.17-2.56-3.49-4.36-8.31-5.35-14.28a1.26 1.26 0 0 0-1.39-1.05H.45c-.11 0-.19.12-.28.17a147.78 147.78 0 0 0 2.15 20.92 47.75 47.75 0 0 0 6.73 12.3c12.15 15.35 34.94 20.07 67.74 14 59.56-10.94 146.25-57 231.92-123.17 84.21-65.07 140-134.77 145.58-181.9" class="cls-9"/><path d="M440.73 39.19c1.35-12.15-1.28-22.09-7.83-29.53-.25-.29-.55-.57-.82-.85a148.72 148.72 0 0 0-31.24-7.23c-.1.14-.33.17-.36.36a1.28 1.28 0 0 0 .89 1.48c5.11 1.45 8.71 3.26 10.72 5.37 5.15 5.45 7.3 13 6.4 22.44-4.19 43.43-72.47 121.53-162.35 185.69-74.41 53.13-144.33 88.61-191.82 97.33-28.19 5.18-47.83.85-56.82-12.51-3.13-4.66-4.69-11.38-4.64-20 .18-1.49.38-3 .59-4.46a1.26 1.26 0 0 0-1.07-1.43 1.32 1.32 0 0 0-.4 0c-.08 0-.09.12-.15.14a157.61 157.61 0 0 0-1.44 34.93c1.14 4.64 2.65 8.7 4.83 11.69 11.08 15.16 32.6 19.92 64 14.15 52.84-9.7 131.74-49.88 211-107.47 89.28-64.85 155.29-143 160.52-190.08" class="cls-9"/><path d="M421 31.48c1-10.21-1.4-18.43-7.08-24.42-1.79-1.9-4.61-3.54-8.38-4.93A184.18 184.18 0 0 0 376.91 0c-.15.19-.43.25-.45.5a1.26 1.26 0 0 0 1.07 1.34c7.08 1.09 12 3.2 14.72 6.28 4.08 4.65 5.69 11.13 4.77 19.28-4.41 39.92-65.18 109.86-147.77 170.11-72.55 52.92-140.8 88.17-187.34 96.72-25.36 4.65-43.29 1-51.85-10.61-3.7-5-5-11.76-4-20.09a1.26 1.26 0 0 0-1-1.4 1.09 1.09 0 0 0-.44 0s0 .05-.06.05a170 170 0 0 0-4 24.2c.47 7 2.06 12.63 4.85 16.79 9.6 14.28 30.13 19 59.38 13.61 48.55-8.92 117-43.65 192.83-97.77 91.9-65.61 159.1-142.74 163.4-187.53" class="cls-9"/><path d="M399.54 27.68c1-8.88-.83-16-5.39-21.23-2.53-2.9-6.74-5-12.37-6.31a241 241 0 0 0-46.71 3.71c0 .17-.14.3-.12.48a1.27 1.27 0 0 0 1.33 1.12c15.25-1 25.54 1.15 29.79 6.16 3.4 4 4.69 9.5 3.85 16.34-4.39 35.54-62.91 100.07-142.31 156.97-66.57 47.67-125.53 78-166 85.46-22.39 4.12-37.56 1-45.1-9.36-3.85-5.25-4.95-12.25-3.26-20.79a1.25 1.25 0 0 0-.86-1.45 1.23 1.23 0 0 0-.57 0 188.74 188.74 0 0 0-8.49 29.46c-.09 6.79 1.45 12.51 4.74 17 9.31 12.62 27.59 16.51 54.36 11.6 46.86-8.61 115.51-44 188.36-97.17 83.12-60.64 144.3-131.3 148.8-171.87" class="cls-9"/><path d="M372.45 28.26c.93-7.57-.56-13.73-4.43-18.3-4.19-4.92-12.76-7.34-25.48-7.26-3.31.48-6.61.94-9.93 1.55a429.62 429.62 0 0 0-45.45 11.06 1.14 1.14 0 0 0-.06.51 1.27 1.27 0 0 0 1.45.93c2.85-.65 5.62-1.23 8.29-1.72 20.27-3.73 34-2.65 38.54 3 2.75 3.41 3.76 8 3 13.7-4 29.94-57.24 87.13-129.39 139.07-56.85 40.95-110.25 68.25-146.54 74.92-19 3.48-32.07 1-37.88-7.23-3.95-5.6-3.93-13.79.12-24.35a1.28 1.28 0 0 0-.67-1.61 1.06 1.06 0 0 0-.43-.05 222 222 0 0 0-13.14 29.91c-1.09 8.08.16 14.83 4 20.09 8.16 11.15 24.18 14.64 47.59 10.33 40.89-7.51 100.22-38 167.07-85.87 79.91-57.24 138.86-122.5 143.34-158.68" class="cls-9"/><path d="M297.51 12.35a476.49 476.49 0 0 0-52.14 17.69 1.07 1.07 0 0 0 0 .47 1.25 1.25 0 0 0 1.41.81h.18a164.61 164.61 0 0 1 22.77-6.13c15.41-2.83 26-1.34 29.89 4.21 13.11 18.88-34.76 75.71-106.75 126.68-47.9 33.92-96.38 58.43-126.52 64-14.18 2.6-23.82.94-27.88-4.8-5.35-7.54-1.24-21.94 11.55-40.53a1.26 1.26 0 0 0-.3-1.75 1.21 1.21 0 0 0-.49-.11 277.87 277.87 0 0 0-28.07 44.45c-2.86 9.5-2.52 17.16 1.38 22.69 6.43 9.08 20.4 11.93 40.41 8.25 36.61-6.72 90.39-34.18 147.56-75.33 73.83-53.15 126.24-109.73 130.42-140.8.86-6.38-.34-11.64-3.55-15.62-6.5-8.05-25-6.75-39.86-4.11" class="cls-9"/><path d="M301.67 27.92c-4.52-6.51-15.72-8.33-32.42-5.26-4.06.75-8.51 1.86-13.14 3.17a520.84 520.84 0 0 0-70.08 32.63v.48a1.26 1.26 0 0 0 1.35.64 1.34 1.34 0 0 0 .36-.11c18.8-9.72 35.53-16.1 48.37-18.46 11.45-2.1 19.15-.86 22.28 3.56 10.08 14.26-26.92 57.88-82.48 97.25-37 26.18-74.62 45.15-98.31 49.5-10.94 2-18.34.8-21.38-3.49-5.22-7.38 2-23.25 19.8-43.53a1.27 1.27 0 0 0-.09-1.78c-.13-.11-.31-.07-.47-.14a347.2 347.2 0 0 0-33.01 39.63c-9 15.5-11.16 27.39-6 34.66 4.74 6.7 15 8.66 30.41 5.83 30.94-5.69 78.61-29.76 127.53-64.39 75.52-53.53 121.67-109.5 107.28-130.19" class="cls-9"/><path d="M260.5 43.11c-3.79-5.37-12.14-6.91-24.8-4.59-9.2 1.69-20.46 5.47-32.91 11-52.54 26.91-100.73 62.78-137 103.37-12.41 16.46-16.65 29.31-11.6 36.44 3.7 5.24 11.75 6.76 23.91 4.52 24-4.41 62.08-23.54 99.31-49.93 58.62-41.53 94.34-84.85 83.07-100.77m-102.23 83.77c-24.82 17.44-49.46 30-64.31 32.68-6.14 1.13-10.23.52-11.84-1.78-5.36-7.64 15.1-34.22 54.11-61.61 24-16.82 48.32-29 63.6-31.82 6.62-1.21 11-.58 12.71 1.83 5.11 7.28-14.19 32.56-54.27 60.7" class="cls-9"/><path d="M214.59 64.78c-2.34-3.33-7.47-4.3-15.24-2.88-15.61 2.87-40.37 15.23-64.59 32.25-33.08 23.22-62.59 53.94-54.73 65.14 2.25 3.21 7.08 4.15 14.37 2.81 15.18-2.79 40.21-15.47 65.29-33.1 33.29-23.36 62.83-52.93 54.9-64.22m-32.81 17.69c-.43 4.84-11.44 17.32-31.65 31.79-15.73 11.28-31.33 19.55-39.75 21.1-2.34.43-4.07.29-4.72-.37a1.55 1.55 0 0 1-.34-1.36c.44-5 11.64-18 31.52-32.2 15.29-10.95 30.8-19.06 39.52-20.66 2.54-.47 4.39-.33 5.08.39a1.46 1.46 0 0 1 .34 1.31" class="cls-9"/><path d="M183.26 79.4c-1.37-1.41-3.78-1.78-7.36-1.13-9.06 1.67-25 10-40.53 21.11-18.58 13.31-32 27.3-32.58 34a4.06 4.06 0 0 0 1.06 3.35c1.33 1.37 3.6 1.72 7 1.1 8.74-1.61 24.75-10.06 40.76-21.53 15.78-11.31 32-26.09 32.69-33.62a4 4 0 0 0-1-3.3" class="cls-9"/></g></g></g></svg>