<svg xmlns="http://www.w3.org/2000/svg" data-name="Telia Pebble Icon segments RGB x50" viewBox="0 0 521.38 583.88"><defs><style>.cls-1{fill:#af5aff}.cls-2{fill:#00cdff}.cls-4{fill:#93f}.cls-5{fill:#cdff32}.cls-7{fill:#990ae3}.cls-8{fill:#00cdcd}.cls-10{fill:#ff00cd}.cls-13{fill:#fff}</style></defs><g data-name="42"><path d="M452.53 467.13c-.09-.12-.13-.27-.25-.35a1.27 1.27 0 0 0-.9-.2 1.29 1.29 0 0 0-.82.51 331.15 331.15 0 0 1-86.26 81.9c-25.82 17-49.56 27.47-70.54 31.09a91.92 91.92 0 0 1-10.36 1.21h-.1a1.29 1.29 0 0 0-1.06 1.22 1.13 1.13 0 0 0 .16.41 119.48 119.48 0 0 0 34.14-.55c46.21-8 96.69-50.24 136-115.25" class="cls-1"/><path d="M447.09 475.94a430.12 430.12 0 0 0 30.92-57.83c-.1-.13-.15-.28-.3-.35s-.42.34-.67.38-1.28 1.61-1.48 2c-22.54 42.04-72.26 101.53-139.59 135.74-19.79 10-38 16.58-54.31 19.38a92.46 92.46 0 0 1-22.81 1.33 1.15 1.15 0 0 0-.32 0 1.28 1.28 0 0 0-1 1 1 1 0 0 0 .09.42 166.45 166.45 0 0 0 29.68 5.36c2.29-.23 4.57-.39 6.9-.79 21.34-3.68 45.39-14.27 71.51-31.47a335.45 335.45 0 0 0 81.36-75.17" class="cls-1"/><path d="M486.3 396.96a1.24 1.24 0 0 0-.71-.09 1.3 1.3 0 0 0-.93.69c-44.02 88.95-144.36 160.91-210.52 172.31-14.3 2.46-27 2.26-37.8-.6a1.25 1.25 0 0 0-.54 0 1.27 1.27 0 0 0-1 .86 1.1 1.1 0 0 0 0 .51 223.25 223.25 0 0 0 26.78 8.5 96.84 96.84 0 0 0 20.46-1.34c16.52-2.85 35-9.46 55-19.63 63.36-32.24 111.65-88.2 136.27-130 4.68-9.92 9.12-20.2 13.24-30.85-.11-.11-.16-.26-.33-.33" class="cls-1"/><path d="M502.23 348.34a296 296 0 0 1-29.21 59.57c-46.29 73.04-140.83 142.26-210.72 154.31-20.55 3.54-37.43 3-51.14-3.36a5.24 5.24 0 0 0-1.48-.45c-.39.07-.5-.27-.68.11a1 1 0 0 0 0 .52 280.14 280.14 0 0 0 31.52 13.63c10.11 1.91 21.45 1.89 34.06-.28 65.21-11.24 163.14-80.74 209-167.51a496.42 496.42 0 0 0 19.28-57.13Z" class="cls-1"/><path d="M506.21 333a1.24 1.24 0 0 0-.57 0 1.3 1.3 0 0 0-1 .83 299.06 299.06 0 0 1-29.34 60.5c-48.2 76-148.17 148.39-222.85 161.26-21.61 3.72-39.9 2.3-54.36-4.27a1.36 1.36 0 0 0-.74-.09 1.28 1.28 0 0 0-.92.68 1.14 1.14 0 0 0 0 .49c6.69 3.72 13.37 7.11 20 10.24 13 4.31 28.4 5.16 46.26 2.08 71.72-12.36 165-80.63 212.45-155.44 11.21-17.69 18.77-35.43 25.08-52.37q3.38-11.62 6.29-23.66c-.11-.08-.17-.21-.32-.25" class="cls-1"/><path d="M511.68 307.5a1.15 1.15 0 0 0-.52 0 1.27 1.27 0 0 0-1 .83c-6.78 20.34-19.4 50.87-40.92 80.91-46.57 65-146.19 143.59-226 157.34-25.52 4.4-47.8 2.06-65.56-7.07a1.26 1.26 0 0 0-.8-.14 1.29 1.29 0 0 0-.88.62v.23q12.66 8.09 25.42 14.93c14.25 5.28 31.38 6.41 51.42 3 75.29-13 176-85.83 224.57-162.41a299.65 299.65 0 0 0 27.19-54.88c2.77-10.77 5.28-21.76 7.4-33a1 1 0 0 0-.38-.28" class="cls-1"/><path d="M514.72 289.81a1.21 1.21 0 0 0-.5 0 1.27 1.27 0 0 0-1 .83c-11.86 35.54-28 66-49.47 93.13-61.21 77.49-158.32 142.79-230.89 155.3-25.29 4.36-46.93 2.38-64.33-5.88a1.26 1.26 0 0 0-1.63.52c-.08.12 0 .26-.06.4 5.14 3.47 10.29 6.83 15.47 10 17.29 7.31 37.86 9 61.41 4.95 80.38-13.85 180.72-93 227.58-158.39a309.6 309.6 0 0 0 39.35-76c1.63-8.09 3.13-16.26 4.41-24.57-.12-.09-.18-.21-.34-.24" class="cls-1"/><path d="M518.48 259.29a1.18 1.18 0 0 0-.42 0 1.24 1.24 0 0 0-1 1c-8.87 38.47-31.75 81.91-61.2 116.19-66.27 77.11-161.93 139.49-232.64 151.68-31.46 5.42-57.95 2.08-78.21-11.15a1.26 1.26 0 0 0-.9-.18 1.34 1.34 0 0 0-.61.37c9.07 7 18.28 13.66 27.6 19.8 17.21 7.18 37.28 8.89 62.2 4.59 73.13-12.6 170.89-78.3 232.44-156.22 20.83-26.36 36.64-56 48.47-90.11q2.86-17.52 4.62-35.73c-.11-.06-.19-.18-.34-.21" class="cls-1"/><path d="M519.66 245.42a1.24 1.24 0 0 0-.43 0 1.29 1.29 0 0 0-1 .91c-9.89 35.72-25.18 75.49-69.79 124.12-72 78.53-163.85 137.08-234 149.17-30.56 5.26-56.61 2-77.45-9.74a1.22 1.22 0 0 0-.83-.14 1.25 1.25 0 0 0-.83.54c-.09.12-.06.29-.1.44 4.5 3.63 9 7.2 13.65 10.65 20.09 11.18 45.13 14.35 74.72 9.25 71.23-12.27 167.51-75 234.12-152.52 28.62-33.29 50.94-75.11 60.55-112.86.69-6.47 1.29-13 1.75-19.58a1.25 1.25 0 0 0-.4-.24" class="cls-2"/><path d="M520.87 216.82a1.37 1.37 0 0 0-.35 0 1.29 1.29 0 0 0-1 1c-9.85 51.18-36.23 98.26-80.6 143.92-76.06 78.24-166.76 134.32-236.71 146.38-31.81 5.48-58.71 1.9-80-10.67a1.23 1.23 0 0 0-.86-.15 1.2 1.2 0 0 0-.8.5c-.09.11-.06.25-.11.38q9.08 7.94 18.49 15.43c20.93 10.69 46.38 13.59 76 8.49 70.6-12.17 163-71 235.38-150 43.44-47.35 59.3-86.38 69.31-121.49.89-11.05 1.41-22.28 1.62-33.66-.13-.06-.22-.17-.36-.19" class="cls-2"/><path d="M520.95 203.67a1.22 1.22 0 0 0-1.37 1c-10.6 50.8-40.52 101-88.95 149-60.65 60.26-155.12 129.73-238.33 144.07-32.47 5.59-59.93 2-81.62-10.66a1.26 1.26 0 0 0-.86-.14 1.2 1.2 0 0 0-.8.49 1.27 1.27 0 0 0-.11.38c4.84 4.51 9.74 8.94 14.75 13.24 21.46 11.69 47.91 14.94 78.93 9.59 70.47-12.14 161.71-68.51 238.1-147.12 43.74-45 70-91.44 80.48-141.78q.24-8.9.2-17.9a1.16 1.16 0 0 0-.42-.2" class="cls-2"/><path d="M965 143.11a1.41 1.41 0 0 0-.29 0 1.25 1.25 0 0 0-1 1c-11 57.29-44.46 112.38-99.6 163.77-82.8 77.2-169.27 128.12-237.21 139.87-34.66 6-63.75 1.7-86.47-12.74a1.27 1.27 0 0 0-.89-.18 1.26 1.26 0 0 0-.77.45 1.77 1.77 0 0 0-.12.37c5.76 5.81 11.67 11.52 17.73 17.07 22 12 49.18 15.34 81.06 9.84 83.79-14.44 178.74-84.23 239.68-144.74 47.85-47.51 77.67-97.1 88.9-147.44 0-8.95-.12-18-.57-27.07a1 1 0 0 0-.41-.2" style="fill:#09f" transform="translate(-444.7 37.67)"/><path d="M519.3 164.53a1 1 0 0 0-.25 0 1.26 1.26 0 0 0-1 1.09c-6.31 51.78-44.59 112.66-107.79 171.41C332.63 409.21 237.95 463.51 169 475.39c-34.47 5.94-62.22 1.81-82.53-12.29a1.26 1.26 0 0 0-.93-.21 1.29 1.29 0 0 0-.75.42 1.63 1.63 0 0 0-.13.37q5.91 6.28 12.06 12.4c23.07 13.71 51.85 17.7 85.91 11.83 68.41-11.79 155.35-63 238.51-140.49 54.7-51 88.16-105.65 99.74-162.52-.27-6.7-.7-13.44-1.22-20.22a1.14 1.14 0 0 0-.36-.15" class="cls-1"/><path d="M516.63 136.03a1.49 1.49 0 0 0-.47 0 1.31 1.31 0 0 0-1.05 1.22c-1.81 57.42-45.62 128.3-117.25 189.71-88.74 76.09-173.22 124.12-237.88 135.26-35.71 6.16-65.17 1.22-87.56-14.68a1.27 1.27 0 0 0-1.66.18c-.11.11-.11.28-.17.42 5.38 6.22 11 12.37 16.79 18.41 20.79 13.33 48.27 17.16 82 11.34 69.4-12 164.61-66.5 242.52-139 62.27-57.91 100.45-118 108-169.58-.75-11-1.74-22.06-3.18-33.25l-.17-.07" class="cls-1"/><path d="M514.59 121.21a1.34 1.34 0 0 0-.4-.13h-.13a1.24 1.24 0 0 0-1 1.22c-1.36 58.84-45.67 128.37-124.82 195.72-85.5 72.78-173 121.17-240.11 132.73-34.16 5.89-61.81 2.23-82.19-10.84a1.23 1.23 0 0 0-.91-.18 1.21 1.21 0 0 0-.73.41c-.07.08-.06.2-.12.3q4.3 5.24 8.8 10.38c22.87 15.3 52.17 20 87.44 13.9 65.09-11.22 150-59.46 239.08-135.85 70.61-60.53 114.29-130.34 117.86-187.73q-1.2-9.91-2.77-19.93" class="cls-4"/><path d="M509.57 95.67c-.15 0-.3-.14-.46-.11a1.26 1.26 0 0 0-1 1.37c6 57.55-44.81 138.07-132.54 210.12-88.31 72.5-173 118.66-238.6 130-36 6.21-64.29 1.58-84.07-13.75a1.26 1.26 0 0 0-1-.24 1.29 1.29 0 0 0-.67.33c-.11.11-.11.25-.17.37 4.84 6.49 10 12.95 15.35 19.35 20.74 12.56 48.36 16.05 82.22 10.22 67.53-11.64 155.49-60.23 241.33-133.3 78.05-66.6 122.34-135.31 125.34-194.09-.67-4.62-1.29-9.23-2.09-13.88-1-5.76-2.25-11.19-3.64-16.44" class="cls-4"/><path d="M510.73 100.86a167.37 167.37 0 0 0-6.53-22 1.09 1.09 0 0 0-.43-.08h-.11a1.26 1.26 0 0 0-.94 1.41c8.83 57.87-40.71 134.84-139.55 216.77-84.38 69.94-170.36 116.52-235.87 127.82-36.14 6.22-64.23 1.47-83.5-14.14a1.25 1.25 0 0 0-1-.26 1.27 1.27 0 0 0-.65.31c-.09.08-.1.22-.16.33q5.28 7.69 11.07 15.39c20.24 14.76 48.54 19.26 84.24 13.06 66-11.37 151.15-57.72 239.78-130.51 86.29-70.87 136.92-150 133.62-208.1" class="cls-4"/><path d="M505.49 82.75a136.28 136.28 0 0 0-12.68-26.55 1 1 0 0 0-.34.11 1.27 1.27 0 0 0-.64 1.58c20.47 55.29-35.48 144.78-142.61 227.99-88.75 68.91-172.07 112.79-234.59 123.57-37.6 6.48-65.41.7-82.66-17.2a1.25 1.25 0 0 0-1.13-.36 1.32 1.32 0 0 0-.55.23c-.12.1-.15.26-.22.38 4.21 7.05 8.76 14.15 13.7 21.21 19.8 15.15 48 19.77 83.94 13.57 66-11.37 152.35-58.16 237.08-128.37 97.92-81.16 147.65-157.73 140.7-216.16" class="cls-5"/><path d="M494.95 59.67a117.51 117.51 0 0 0-11-15.95c-.05 0-.09-.07-.15-.06a1.63 1.63 0 0 0-.37.13 1.27 1.27 0 0 0-.61 1.54c19.62 55.28-34.87 140.34-145.81 227.48-85.47 67.15-170.53 111.86-233.38 122.73-34.06 5.87-60 1.65-77.05-12.5a1.27 1.27 0 0 0-1-.27 1.23 1.23 0 0 0-.6.28c-.09.06-.09.16-.15.24 2.23 4.05 4.6 8.13 7.09 12.2 18.13 17.33 46 22.87 83.15 16.46 62.94-10.85 146.65-54.9 235.72-124.07 106.34-82.61 162.39-171.65 144.16-228.21" class="cls-5"/><path d="M485.49 45.76a108.87 108.87 0 0 0-12.51-13.56 1.13 1.13 0 0 0-.39.17 1.26 1.26 0 0 0-.29 1.66c28 43.87-37.78 144.64-149.69 229.48C239.09 326.8 156.3 369.13 95.5 379.61c-39.61 6.83-67.47-.28-80.56-20.53a1.26 1.26 0 0 0-1.29-.56 1.33 1.33 0 0 0-.37.12c-.14.08-.2.23-.29.35a258.54 258.54 0 0 0 13.31 26.93c17.67 13.84 43.78 18 77.79 12.11 63.25-10.9 148.72-55.82 234.52-123.23 111-87.26 165.77-172.71 146.91-229" class="cls-5"/><path d="M475.64 34.79a107.78 107.78 0 0 0-13.16-11c-.11.06-.26.08-.36.2a1.25 1.25 0 0 0-.11 1.63c30.73 40.91-33.44 135.74-152.59 225.49-82.64 62.27-164.07 103.84-223.39 114.06-35.57 6.14-61.42.27-74.75-17-.36-.47-.71-.95-1.06-1.44a1.42 1.42 0 0 0-1.34-.58.94.94 0 0 0-.32.11c-.14.07-.21.2-.32.31 1.8 5.24 3.93 10.57 6.29 15.95 14.37 19.5 42.29 26.29 81.4 19.55 61.19-10.55 144.37-53 228.2-116.58C435.4 181.21 501.05 80.77 475.64 34.79" class="cls-5"/><path d="M909.85-11.88a112.83 112.83 0 0 0-17.32-10.92 1.42 1.42 0 0 0-.42.23 1.26 1.26 0 0 0 0 1.59c6.43 8.2 8.82 19 7.12 32-6.07 46.43-62.23 114.84-146.61 178.56-86.08 65-172.86 109.91-232.16 120.13-31.86 5.5-53.78.84-65.15-13.84a45.68 45.68 0 0 1-7.31-14.19 1.28 1.28 0 0 0-1.44-.85h-.07c-.14 0-.21.16-.32.23.2 1.46.3 2.94.56 4.41a157 157 0 0 0 7.4 26.81c14 17.83 40.6 24 77 17.69 59.72-10.29 141.54-52 224.5-114.54C874.4 126 938.6 31 909.85-11.88" style="fill:#a0a0a0" transform="translate(-444.7 37.67)"/><path d="M457.03 48.99c1.73-13.3-.72-24.36-7.1-33a122.53 122.53 0 0 0-17.11-7.32c-.09.08-.23.09-.29.19a1.26 1.26 0 0 0 .19 1.58c.51.5 1 1 1.44 1.52 6 7 8.31 16.27 6.91 27.66-5.67 46.34-72.11 123.05-161.56 186.5-79.64 56.55-158.59 95.66-211.21 104.73-30.38 5.23-51 .58-61.3-13.85-2.52-3.52-4.27-8.35-5.19-14.33a1.29 1.29 0 0 0-1.38-1.08H.34c-.12 0-.19.12-.28.16a148 148 0 0 0 1.91 20.95 47.83 47.83 0 0 0 6.6 12.37c12 15.48 34.72 20.45 67.58 14.79 59.68-10.29 146.87-55.38 233.26-120.61 84.97-64.12 141.52-133.2 147.62-180.26" class="cls-7"/><path d="M443.58 39.9c1.49-12.14-1-22.1-7.5-29.62-.25-.29-.55-.58-.81-.85a148.75 148.75 0 0 0-31.16-7.58c-.1.14-.34.17-.37.36a1.28 1.28 0 0 0 .88 1.49c5.09 1.51 8.68 3.36 10.66 5.49 5.09 5.5 7.16 13.07 6.15 22.5-4.67 43.38-73.8 120.73-164.39 183.92-75 52.3-145.3 87-192.88 95.21-28.24 4.85-47.86.32-56.68-13.15-3.08-4.69-4.56-11.42-4.41-20 .19-1.49.41-3 .64-4.45a1.27 1.27 0 0 0-1.06-1.45 1.41 1.41 0 0 0-.41 0c-.07 0-.08.13-.14.15a157.52 157.52 0 0 0-1.8 34.82c1.09 4.65 2.55 8.73 4.7 11.74 10.92 15.28 32.38 20.27 63.79 14.86 52.95-9.13 132.28-48.43 212.21-105.15C371 164.34 437.86 86.92 443.61 39.9" class="cls-7"/><path d="M423.94 31.97c1.1-10.19-1.2-18.45-6.81-24.5-1.77-1.92-4.57-3.59-8.32-5A186.07 186.07 0 0 0 380.2.02c-.15.19-.43.25-.46.5a1.27 1.27 0 0 0 1.06 1.36c7.07 1.17 12 3.33 14.64 6.44 4 4.69 5.57 11.19 4.56 19.33-4.84 39.87-66.39 109.13-149.63 168.47-73.13 52.12-141.8 86.61-188.4 94.64-25.4 4.38-43.3.51-51.73-11.17-3.64-5.05-4.91-11.82-3.78-20.14a1.27 1.27 0 0 0-1-1.41.93.93 0 0 0-.44 0h-.06A169.83 169.83 0 0 0 .72 282.2c.4 7 1.92 12.65 4.67 16.85 9.44 14.37 29.92 19.31 59.23 14.25 48.64-8.38 117.5-42.35 193.89-95.63 92.58-64.58 160.64-141 165.43-185.7" class="cls-7"/><path d="M402.53 27.94c1.07-8.87-.66-16-5.16-21.29-2.5-2.93-6.69-5.06-12.3-6.45a240.53 240.53 0 0 0-46.77 3.2 1.14 1.14 0 0 0-.12.48 1.26 1.26 0 0 0 1.32 1.13c15.25-.81 25.52 1.44 29.71 6.49 3.35 4 4.59 9.54 3.67 16.38-4.78 35.49-64 99.37-144 155.34-67.09 46.93-126.38 76.63-167 83.63-22.42 3.86-37.56.54-45-9.86-3.79-5.3-4.81-12.31-3-20.83a1.25 1.25 0 0 0-.84-1.46 1.43 1.43 0 0 0-.58-.05 188.84 188.84 0 0 0-8.8 29.37c-.17 6.79 1.3 12.52 4.55 17 9.17 12.72 27.41 16.82 54.22 12.2 46.95-8.1 116-42.76 189.42-95.09 83.79-59.71 145.75-129.7 150.7-170.21" class="cls-8"/><path d="M375.41 28.22c1-7.56-.41-13.74-4.23-18.35-4.14-5-12.68-7.49-25.4-7.54-3.32.45-6.62.86-9.94 1.43a431.42 431.42 0 0 0-45.54 10.57c0 .18-.11.34-.06.51a1.27 1.27 0 0 0 1.44.94c2.86-.62 5.64-1.17 8.31-1.63 20.31-3.5 34-2.27 38.5 3.46 2.72 3.44 3.67 8.07 2.85 13.73-4.36 29.89-58.19 86.49-130.92 137.63-57.32 40.31-111 67-147.35 73.28-19 3.28-32.08.64-37.8-7.64-3.89-5.64-3.77-13.83.38-24.35a1.25 1.25 0 0 0-.64-1.61 1 1 0 0 0-.44-.06 224 224 0 0 0-13.52 29.76c-1.17 8.07 0 14.83 3.77 20.13 8 11.25 24 14.91 47.48 10.86 41-7.06 100.63-36.89 168-84 80.57-56.36 140.24-121 145.1-157.09" class="cls-8"/><path d="M745.36-26.19A478.09 478.09 0 0 0 693-9.07a1.07 1.07 0 0 0 0 .47 1.26 1.26 0 0 0 1.4.82h.18a163.67 163.67 0 0 1 22.84-5.87c15.44-2.67 26-1.05 29.84 4.53 12.9 19-35.6 75.32-108.15 125.49-48.26 33.4-97 57.37-127.2 62.57-14.22 2.45-23.84.69-27.84-5.1-5.26-7.6-1-22 12-40.4a1.25 1.25 0 0 0-.28-1.75 1.21 1.21 0 0 0-.49-.11 278 278 0 0 0-28.56 44.13c-3 9.47-2.71 17.13 1.14 22.7 6.33 9.15 20.26 12.16 40.31 8.7 36.68-6.32 90.76-33.19 148.38-73.7C731 81 784 25 788.56-6c.93-6.37-.21-11.65-3.38-15.66-6.41-8.12-24.95-7-39.82-4.55" style="fill:#c0f" transform="translate(-444.7 37.67)"/><path d="M304.66 27.09c-4.45-6.56-15.64-8.49-32.36-5.61-4.07.7-8.54 1.76-13.18 3a521.34 521.34 0 0 0-70.43 31.86v.48a1.28 1.28 0 0 0 1.34.66 1.24 1.24 0 0 0 .36-.11c18.91-9.49 35.75-15.7 48.61-17.9 11.48-2 19.16-.66 22.24 3.8 9.93 14.37-27.55 57.58-83.54 96.34-37.24 25.76-75.11 44.32-98.86 48.41-10.95 1.89-18.34.59-21.33-3.73-5.14-7.44 2.26-23.22 20.28-43.31a1.28 1.28 0 0 0-.07-1.78c-.13-.12-.31-.08-.47-.14a345.94 345.94 0 0 0-33.54 39.26c-9.19 15.39-11.47 27.26-6.41 34.59 4.67 6.75 14.89 8.83 30.35 6.16 31-5.34 78.94-28.88 128.23-63 76.17-52.69 122.94-108.15 108.78-129" class="cls-10"/><path d="M263.3 41.83c-3.73-5.41-12.06-7-24.75-4.86-9.21 1.59-20.52 5.24-33 10.59-52.84 26.34-101.43 61.67-138.12 101.86-12.59 16.32-17 29.12-12 36.31 3.64 5.28 11.67 6.88 23.86 4.78 24.07-4.14 62.33-22.84 99.85-48.84 59.07-40.88 95.27-83.79 84.16-99.84m-103.15 82.69c-25 17.16-49.78 29.4-64.66 32-6.15 1.06-10.24.4-11.82-1.91-5.28-7.7 15.47-34.06 54.78-61 24.13-16.55 48.64-28.48 64-31.12 6.63-1.14 11-.46 12.69 2 5 7.34-14.55 32.4-54.94 60.1" class="cls-10"/><path d="M217.18 62.99c-2.31-3.36-7.43-4.38-15.21-3-15.67 2.68-40.54 14.74-64.95 31.49-33.33 22.85-63.18 53.24-55.44 64.53 2.21 3.24 7 4.23 14.34 3 15.2-2.62 40.38-15 65.65-32.37 33.55-23 63.41-52.24 55.61-63.62m-33 17.33c-.48 4.84-11.63 17.2-32 31.44-15.86 11.1-31.55 19.21-40 20.66-2.35.41-4.07.25-4.72-.42a1.61 1.61 0 0 1-.32-1.37c.5-5 11.84-17.82 31.88-31.85 15.4-10.78 31-18.71 39.74-20.22 2.55-.44 4.39-.28 5.07.45.11.1.42.43.33 1.31" class="cls-10"/><path d="M185.68 77.26c-1.35-1.42-3.75-1.82-7.34-1.2-9.04 1.61-25.04 9.67-40.76 20.61-18.73 13.15-32.28 27-32.95 33.71a4.05 4.05 0 0 0 1 3.36c1.32 1.38 3.59 1.76 7 1.18 8.76-1.51 24.86-9.79 41-21.08 15.91-11.17 32.31-25.74 33.06-33.26a4 4 0 0 0-1-3.32" class="cls-10"/><g style="mask:url(#mask)"><g style="opacity:.3"><path d="M452.53 467.13c-.09-.12-.13-.27-.25-.35a1.27 1.27 0 0 0-.9-.2 1.29 1.29 0 0 0-.82.51 331.15 331.15 0 0 1-86.26 81.9c-25.82 17-49.56 27.47-70.54 31.09a91.92 91.92 0 0 1-10.36 1.21h-.1a1.29 1.29 0 0 0-1.06 1.22 1.13 1.13 0 0 0 .16.41 119.48 119.48 0 0 0 34.14-.55c46.21-8 96.69-50.24 136-115.25" class="cls-13"/><path d="M447.09 475.94a430.12 430.12 0 0 0 30.92-57.83c-.1-.13-.15-.28-.3-.35s-.42.34-.67.38-1.28 1.61-1.48 2c-22.54 42.04-72.26 101.53-139.59 135.74-19.79 10-38 16.58-54.31 19.38a92.46 92.46 0 0 1-22.81 1.33 1.15 1.15 0 0 0-.32 0 1.28 1.28 0 0 0-1 1 1 1 0 0 0 .09.42 166.45 166.45 0 0 0 29.68 5.36c2.29-.23 4.57-.39 6.9-.79 21.34-3.68 45.39-14.27 71.51-31.47a335.45 335.45 0 0 0 81.36-75.17" class="cls-13"/><path d="M486.3 396.96a1.24 1.24 0 0 0-.71-.09 1.3 1.3 0 0 0-.93.69c-44.02 88.95-144.36 160.91-210.52 172.31-14.3 2.46-27 2.26-37.8-.6a1.25 1.25 0 0 0-.54 0 1.27 1.27 0 0 0-1 .86 1.1 1.1 0 0 0 0 .51 223.25 223.25 0 0 0 26.78 8.5 96.84 96.84 0 0 0 20.46-1.34c16.52-2.85 35-9.46 55-19.63 63.36-32.24 111.65-88.2 136.27-130 4.68-9.92 9.12-20.2 13.24-30.85-.11-.11-.16-.26-.33-.33" class="cls-13"/><path d="M502.23 348.34a296 296 0 0 1-29.21 59.57c-46.29 73.04-140.83 142.26-210.72 154.31-20.55 3.54-37.43 3-51.14-3.36a5.24 5.24 0 0 0-1.48-.45c-.39.07-.5-.27-.68.11a1 1 0 0 0 0 .52 280.14 280.14 0 0 0 31.52 13.63c10.11 1.91 21.45 1.89 34.06-.28 65.21-11.24 163.14-80.74 209-167.51a496.42 496.42 0 0 0 19.28-57.13Z" class="cls-13"/><path d="M506.21 333a1.24 1.24 0 0 0-.57 0 1.3 1.3 0 0 0-1 .83 299.06 299.06 0 0 1-29.34 60.5c-48.2 76-148.17 148.39-222.85 161.26-21.61 3.72-39.9 2.3-54.36-4.27a1.36 1.36 0 0 0-.74-.09 1.28 1.28 0 0 0-.92.68 1.14 1.14 0 0 0 0 .49c6.69 3.72 13.37 7.11 20 10.24 13 4.31 28.4 5.16 46.26 2.08 71.72-12.36 165-80.63 212.45-155.44 11.21-17.69 18.77-35.43 25.08-52.37q3.38-11.62 6.29-23.66c-.11-.08-.17-.21-.32-.25" class="cls-13"/><path d="M511.68 307.5a1.15 1.15 0 0 0-.52 0 1.27 1.27 0 0 0-1 .83c-6.78 20.34-19.4 50.87-40.92 80.91-46.57 65-146.19 143.59-226 157.34-25.52 4.4-47.8 2.06-65.56-7.07a1.26 1.26 0 0 0-.8-.14 1.29 1.29 0 0 0-.88.62v.23q12.66 8.09 25.42 14.93c14.25 5.28 31.38 6.41 51.42 3 75.29-13 176-85.83 224.57-162.41a299.65 299.65 0 0 0 27.19-54.88c2.77-10.77 5.28-21.76 7.4-33a1 1 0 0 0-.38-.28" class="cls-13"/><path d="M514.72 289.81a1.21 1.21 0 0 0-.5 0 1.27 1.27 0 0 0-1 .83c-11.86 35.54-28 66-49.47 93.13-61.21 77.49-158.32 142.79-230.89 155.3-25.29 4.36-46.93 2.38-64.33-5.88a1.26 1.26 0 0 0-1.63.52c-.08.12 0 .26-.06.4 5.14 3.47 10.29 6.83 15.47 10 17.29 7.31 37.86 9 61.41 4.95 80.38-13.85 180.72-93 227.58-158.39a309.6 309.6 0 0 0 39.35-76c1.63-8.09 3.13-16.26 4.41-24.57-.12-.09-.18-.21-.34-.24" class="cls-13"/><path d="M518.48 259.29a1.18 1.18 0 0 0-.42 0 1.24 1.24 0 0 0-1 1c-8.87 38.47-31.75 81.91-61.2 116.19-66.27 77.11-161.93 139.49-232.64 151.68-31.46 5.42-57.95 2.08-78.21-11.15a1.26 1.26 0 0 0-.9-.18 1.34 1.34 0 0 0-.61.37c9.07 7 18.28 13.66 27.6 19.8 17.21 7.18 37.28 8.89 62.2 4.59 73.13-12.6 170.89-78.3 232.44-156.22 20.83-26.36 36.64-56 48.47-90.11q2.86-17.52 4.62-35.73c-.11-.06-.19-.18-.34-.21" class="cls-13"/><path d="M519.66 245.42a1.24 1.24 0 0 0-.43 0 1.29 1.29 0 0 0-1 .91c-9.89 35.72-25.18 75.49-69.79 124.12-72 78.53-163.85 137.08-234 149.17-30.56 5.26-56.61 2-77.45-9.74a1.22 1.22 0 0 0-.83-.14 1.25 1.25 0 0 0-.83.54c-.09.12-.06.29-.1.44 4.5 3.63 9 7.2 13.65 10.65 20.09 11.18 45.13 14.35 74.72 9.25 71.23-12.27 167.51-75 234.12-152.52 28.62-33.29 50.94-75.11 60.55-112.86.69-6.47 1.29-13 1.75-19.58a1.25 1.25 0 0 0-.4-.24" class="cls-13"/><path d="M520.87 216.82a1.37 1.37 0 0 0-.35 0 1.29 1.29 0 0 0-1 1c-9.85 51.18-36.23 98.26-80.6 143.92-76.06 78.24-166.76 134.32-236.71 146.38-31.81 5.48-58.71 1.9-80-10.67a1.23 1.23 0 0 0-.86-.15 1.2 1.2 0 0 0-.8.5c-.09.11-.06.25-.11.38q9.08 7.94 18.49 15.43c20.93 10.69 46.38 13.59 76 8.49 70.6-12.17 163-71 235.38-150 43.44-47.35 59.3-86.38 69.31-121.49.89-11.05 1.41-22.28 1.62-33.66-.13-.06-.22-.17-.36-.19" class="cls-13"/><path d="M520.95 203.67a1.22 1.22 0 0 0-1.37 1c-10.6 50.8-40.52 101-88.95 149-60.65 60.26-155.12 129.73-238.33 144.07-32.47 5.59-59.93 2-81.62-10.66a1.26 1.26 0 0 0-.86-.14 1.2 1.2 0 0 0-.8.49 1.27 1.27 0 0 0-.11.38c4.84 4.51 9.74 8.94 14.75 13.24 21.46 11.69 47.91 14.94 78.93 9.59 70.47-12.14 161.71-68.51 238.1-147.12 43.74-45 70-91.44 80.48-141.78q.24-8.9.2-17.9a1.16 1.16 0 0 0-.42-.2" class="cls-13"/><path d="M520.3 180.78a1.41 1.41 0 0 0-.29 0 1.25 1.25 0 0 0-1 1c-11 57.29-44.46 112.38-99.6 163.77-82.8 77.2-169.27 128.12-237.21 139.87-34.66 6-63.75 1.7-86.47-12.74a1.27 1.27 0 0 0-.89-.18 1.26 1.26 0 0 0-.77.45 1.77 1.77 0 0 0-.12.37c5.76 5.81 11.67 11.52 17.73 17.07 22 12 49.18 15.34 81.06 9.84 83.79-14.44 178.74-84.23 239.68-144.74 47.85-47.51 77.67-97.1 88.9-147.44 0-8.95-.12-18-.57-27.07a1 1 0 0 0-.41-.2" class="cls-13"/><path d="M519.3 164.53a1 1 0 0 0-.25 0 1.26 1.26 0 0 0-1 1.09c-6.31 51.78-44.59 112.66-107.79 171.41C332.63 409.21 237.95 463.51 169 475.39c-34.47 5.94-62.22 1.81-82.53-12.29a1.26 1.26 0 0 0-.93-.21 1.29 1.29 0 0 0-.75.42 1.63 1.63 0 0 0-.13.37q5.91 6.28 12.06 12.4c23.07 13.71 51.85 17.7 85.91 11.83 68.41-11.79 155.35-63 238.51-140.49 54.7-51 88.16-105.65 99.74-162.52-.27-6.7-.7-13.44-1.22-20.22a1.14 1.14 0 0 0-.36-.15" class="cls-13"/><path d="M516.63 136.03a1.49 1.49 0 0 0-.47 0 1.31 1.31 0 0 0-1.05 1.22c-1.81 57.42-45.62 128.3-117.25 189.71-88.74 76.09-173.22 124.12-237.88 135.26-35.71 6.16-65.17 1.22-87.56-14.68a1.27 1.27 0 0 0-1.66.18c-.11.11-.11.28-.17.42 5.38 6.22 11 12.37 16.79 18.41 20.79 13.33 48.27 17.16 82 11.34 69.4-12 164.61-66.5 242.52-139 62.27-57.91 100.45-118 108-169.58-.75-11-1.74-22.06-3.18-33.25l-.17-.07" class="cls-13"/><path d="M514.59 121.21a1.34 1.34 0 0 0-.4-.13h-.13a1.24 1.24 0 0 0-1 1.22c-1.36 58.84-45.67 128.37-124.82 195.72-85.5 72.78-173 121.17-240.11 132.73-34.16 5.89-61.81 2.23-82.19-10.84a1.23 1.23 0 0 0-.91-.18 1.21 1.21 0 0 0-.73.41c-.07.08-.06.2-.12.3q4.3 5.24 8.8 10.38c22.87 15.3 52.17 20 87.44 13.9 65.09-11.22 150-59.46 239.08-135.85 70.61-60.53 114.29-130.34 117.86-187.73q-1.2-9.91-2.77-19.93" class="cls-13"/><path d="M509.57 95.67c-.15 0-.3-.14-.46-.11a1.26 1.26 0 0 0-1 1.37c6 57.55-44.81 138.07-132.54 210.12-88.31 72.5-173 118.66-238.6 130-36 6.21-64.29 1.58-84.07-13.75a1.26 1.26 0 0 0-1-.24 1.29 1.29 0 0 0-.67.33c-.11.11-.11.25-.17.37 4.84 6.49 10 12.95 15.35 19.35 20.74 12.56 48.36 16.05 82.22 10.22 67.53-11.64 155.49-60.23 241.33-133.3 78.05-66.6 122.34-135.31 125.34-194.09-.67-4.62-1.29-9.23-2.09-13.88-1-5.76-2.25-11.19-3.64-16.44" class="cls-13"/><path d="M510.73 100.86a167.37 167.37 0 0 0-6.53-22 1.09 1.09 0 0 0-.43-.08h-.11a1.26 1.26 0 0 0-.94 1.41c8.83 57.87-40.71 134.84-139.55 216.77-84.38 69.94-170.36 116.52-235.87 127.82-36.14 6.22-64.23 1.47-83.5-14.14a1.25 1.25 0 0 0-1-.26 1.27 1.27 0 0 0-.65.31c-.09.08-.1.22-.16.33q5.28 7.69 11.07 15.39c20.24 14.76 48.54 19.26 84.24 13.06 66-11.37 151.15-57.72 239.78-130.51 86.29-70.87 136.92-150 133.62-208.1" class="cls-13"/><path d="M505.49 82.75a136.28 136.28 0 0 0-12.68-26.55 1 1 0 0 0-.34.11 1.27 1.27 0 0 0-.64 1.58c20.47 55.29-35.48 144.78-142.61 227.99-88.75 68.91-172.07 112.79-234.59 123.57-37.6 6.48-65.41.7-82.66-17.2a1.25 1.25 0 0 0-1.13-.36 1.32 1.32 0 0 0-.55.23c-.12.1-.15.26-.22.38 4.21 7.05 8.76 14.15 13.7 21.21 19.8 15.15 48 19.77 83.94 13.57 66-11.37 152.35-58.16 237.08-128.37 97.92-81.16 147.65-157.73 140.7-216.16" class="cls-13"/><path d="M494.95 59.67a117.51 117.51 0 0 0-11-15.95c-.05 0-.09-.07-.15-.06a1.63 1.63 0 0 0-.37.13 1.27 1.27 0 0 0-.61 1.54c19.62 55.28-34.87 140.34-145.81 227.48-85.47 67.15-170.53 111.86-233.38 122.73-34.06 5.87-60 1.65-77.05-12.5a1.27 1.27 0 0 0-1-.27 1.23 1.23 0 0 0-.6.28c-.09.06-.09.16-.15.24 2.23 4.05 4.6 8.13 7.09 12.2 18.13 17.33 46 22.87 83.15 16.46 62.94-10.85 146.65-54.9 235.72-124.07 106.34-82.61 162.39-171.65 144.16-228.21" class="cls-13"/><path d="M485.49 45.76a108.87 108.87 0 0 0-12.51-13.56 1.13 1.13 0 0 0-.39.17 1.26 1.26 0 0 0-.29 1.66c28 43.87-37.78 144.64-149.69 229.48C239.09 326.8 156.3 369.13 95.5 379.61c-39.61 6.83-67.47-.28-80.56-20.53a1.26 1.26 0 0 0-1.29-.56 1.33 1.33 0 0 0-.37.12c-.14.08-.2.23-.29.35a258.54 258.54 0 0 0 13.31 26.93c17.67 13.84 43.78 18 77.79 12.11 63.25-10.9 148.72-55.82 234.52-123.23 111-87.26 165.77-172.71 146.91-229" class="cls-13"/><path d="M475.64 34.79a107.78 107.78 0 0 0-13.16-11c-.11.06-.26.08-.36.2a1.25 1.25 0 0 0-.11 1.63c30.73 40.91-33.44 135.74-152.59 225.49-82.64 62.27-164.07 103.84-223.39 114.06-35.57 6.14-61.42.27-74.75-17-.36-.47-.71-.95-1.06-1.44a1.42 1.42 0 0 0-1.34-.58.94.94 0 0 0-.32.11c-.14.07-.21.2-.32.31 1.8 5.24 3.93 10.57 6.29 15.95 14.37 19.5 42.29 26.29 81.4 19.55 61.19-10.55 144.37-53 228.2-116.58C435.4 181.21 501.05 80.77 475.64 34.79" class="cls-13"/><path d="M465.15 25.79a112.83 112.83 0 0 0-17.32-10.92 1.42 1.42 0 0 0-.42.23 1.26 1.26 0 0 0 0 1.59c6.43 8.2 8.82 19 7.12 32-6.07 46.43-62.23 114.84-146.61 178.56-86.08 65-172.86 109.91-232.16 120.13-31.86 5.5-53.78.84-65.15-13.84a45.68 45.68 0 0 1-7.31-14.19 1.28 1.28 0 0 0-1.44-.85h-.07c-.14 0-.21.16-.32.23.2 1.46.3 2.94.56 4.41a157 157 0 0 0 7.4 26.81c14 17.83 40.6 24 77 17.69 59.72-10.29 141.54-52 224.5-114.54C429.7 163.67 493.9 68.67 465.15 25.79" class="cls-13"/><path d="M457.03 48.99c1.73-13.3-.72-24.36-7.1-33a122.53 122.53 0 0 0-17.11-7.32c-.09.08-.23.09-.29.19a1.26 1.26 0 0 0 .19 1.58c.51.5 1 1 1.44 1.52 6 7 8.31 16.27 6.91 27.66-5.67 46.34-72.11 123.05-161.56 186.5-79.64 56.55-158.59 95.66-211.21 104.73-30.38 5.23-51 .58-61.3-13.85-2.52-3.52-4.27-8.35-5.19-14.33a1.29 1.29 0 0 0-1.38-1.08H.34c-.12 0-.19.12-.28.16a148 148 0 0 0 1.91 20.95 47.83 47.83 0 0 0 6.6 12.37c12 15.48 34.72 20.45 67.58 14.79 59.68-10.29 146.87-55.38 233.26-120.61 84.97-64.12 141.52-133.2 147.62-180.26" class="cls-13"/><path d="M443.58 39.9c1.49-12.14-1-22.1-7.5-29.62-.25-.29-.55-.58-.81-.85a148.75 148.75 0 0 0-31.16-7.58c-.1.14-.34.17-.37.36a1.28 1.28 0 0 0 .88 1.49c5.09 1.51 8.68 3.36 10.66 5.49 5.09 5.5 7.16 13.07 6.15 22.5-4.67 43.38-73.8 120.73-164.39 183.92-75 52.3-145.3 87-192.88 95.21-28.24 4.85-47.86.32-56.68-13.15-3.08-4.69-4.56-11.42-4.41-20 .19-1.49.41-3 .64-4.45a1.27 1.27 0 0 0-1.06-1.45 1.41 1.41 0 0 0-.41 0c-.07 0-.08.13-.14.15a157.52 157.52 0 0 0-1.8 34.82c1.09 4.65 2.55 8.73 4.7 11.74 10.92 15.28 32.38 20.27 63.79 14.86 52.95-9.13 132.28-48.43 212.21-105.15C371 164.34 437.86 86.92 443.61 39.9" class="cls-13"/><path d="M423.94 31.97c1.1-10.19-1.2-18.45-6.81-24.5-1.77-1.92-4.57-3.59-8.32-5A186.07 186.07 0 0 0 380.2.02c-.15.19-.43.25-.46.5a1.27 1.27 0 0 0 1.06 1.36c7.07 1.17 12 3.33 14.64 6.44 4 4.69 5.57 11.19 4.56 19.33-4.84 39.87-66.39 109.13-149.63 168.47-73.13 52.12-141.8 86.61-188.4 94.64-25.4 4.38-43.3.51-51.73-11.17-3.64-5.05-4.91-11.82-3.78-20.14a1.27 1.27 0 0 0-1-1.41.93.93 0 0 0-.44 0h-.06A169.83 169.83 0 0 0 .72 282.2c.4 7 1.92 12.65 4.67 16.85 9.44 14.37 29.92 19.31 59.23 14.25 48.64-8.38 117.5-42.35 193.89-95.63 92.58-64.58 160.64-141 165.43-185.7" class="cls-13"/><path d="M402.53 27.94c1.07-8.87-.66-16-5.16-21.29-2.5-2.93-6.69-5.06-12.3-6.45a240.53 240.53 0 0 0-46.77 3.2 1.14 1.14 0 0 0-.12.48 1.26 1.26 0 0 0 1.32 1.13c15.25-.81 25.52 1.44 29.71 6.49 3.35 4 4.59 9.54 3.67 16.38-4.78 35.49-64 99.37-144 155.34-67.09 46.93-126.38 76.63-167 83.63-22.42 3.86-37.56.54-45-9.86-3.79-5.3-4.81-12.31-3-20.83a1.25 1.25 0 0 0-.84-1.46 1.43 1.43 0 0 0-.58-.05 188.84 188.84 0 0 0-8.8 29.37c-.17 6.79 1.3 12.52 4.55 17 9.17 12.72 27.41 16.82 54.22 12.2 46.95-8.1 116-42.76 189.42-95.09 83.79-59.71 145.75-129.7 150.7-170.21" class="cls-13"/><path d="M375.41 28.22c1-7.56-.41-13.74-4.23-18.35-4.14-5-12.68-7.49-25.4-7.54-3.32.45-6.62.86-9.94 1.43a431.42 431.42 0 0 0-45.54 10.57c0 .18-.11.34-.06.51a1.27 1.27 0 0 0 1.44.94c2.86-.62 5.64-1.17 8.31-1.63 20.31-3.5 34-2.27 38.5 3.46 2.72 3.44 3.67 8.07 2.85 13.73-4.36 29.89-58.19 86.49-130.92 137.63-57.32 40.31-111 67-147.35 73.28-19 3.28-32.08.64-37.8-7.64-3.89-5.64-3.77-13.83.38-24.35a1.25 1.25 0 0 0-.64-1.61 1 1 0 0 0-.44-.06 224 224 0 0 0-13.52 29.76c-1.17 8.07 0 14.83 3.77 20.13 8 11.25 24 14.91 47.48 10.86 41-7.06 100.63-36.89 168-84 80.57-56.36 140.24-121 145.1-157.09" class="cls-13"/><path d="M300.66 11.48A478.09 478.09 0 0 0 248.3 28.6a1.07 1.07 0 0 0 0 .47 1.26 1.26 0 0 0 1.4.82h.18a163.67 163.67 0 0 1 22.84-5.87c15.44-2.67 26-1.05 29.84 4.53 12.9 19-35.6 75.32-108.15 125.49-48.26 33.4-97 57.37-127.2 62.57-14.22 2.45-23.84.69-27.84-5.1-5.26-7.6-1-22 12-40.4a1.25 1.25 0 0 0-.28-1.75 1.21 1.21 0 0 0-.49-.11 278 278 0 0 0-28.56 44.13c-3 9.47-2.71 17.13 1.14 22.7 6.33 9.15 20.26 12.16 40.31 8.7 36.68-6.32 90.76-33.19 148.38-73.7C286.3 118.67 339.3 62.67 343.86 31.67c.93-6.37-.21-11.65-3.38-15.66-6.41-8.12-24.95-7-39.82-4.55" class="cls-13"/><path d="M304.66 27.09c-4.45-6.56-15.64-8.49-32.36-5.61-4.07.7-8.54 1.76-13.18 3a521.34 521.34 0 0 0-70.43 31.86v.48a1.28 1.28 0 0 0 1.34.66 1.24 1.24 0 0 0 .36-.11c18.91-9.49 35.75-15.7 48.61-17.9 11.48-2 19.16-.66 22.24 3.8 9.93 14.37-27.55 57.58-83.54 96.34-37.24 25.76-75.11 44.32-98.86 48.41-10.95 1.89-18.34.59-21.33-3.73-5.14-7.44 2.26-23.22 20.28-43.31a1.28 1.28 0 0 0-.07-1.78c-.13-.12-.31-.08-.47-.14a345.94 345.94 0 0 0-33.54 39.26c-9.19 15.39-11.47 27.26-6.41 34.59 4.67 6.75 14.89 8.83 30.35 6.16 31-5.34 78.94-28.88 128.23-63 76.17-52.69 122.94-108.15 108.78-129" class="cls-13"/><path d="M263.3 41.83c-3.73-5.41-12.06-7-24.75-4.86-9.21 1.59-20.52 5.24-33 10.59-52.84 26.34-101.43 61.67-138.12 101.86-12.59 16.32-17 29.12-12 36.31 3.64 5.28 11.67 6.88 23.86 4.78 24.07-4.14 62.33-22.84 99.85-48.84 59.07-40.88 95.27-83.79 84.16-99.84m-103.15 82.69c-25 17.16-49.78 29.4-64.66 32-6.15 1.06-10.24.4-11.82-1.91-5.28-7.7 15.47-34.06 54.78-61 24.13-16.55 48.64-28.48 64-31.12 6.63-1.14 11-.46 12.69 2 5 7.34-14.55 32.4-54.94 60.1" class="cls-13"/><path d="M217.18 62.99c-2.31-3.36-7.43-4.38-15.21-3-15.67 2.68-40.54 14.74-64.95 31.49-33.33 22.85-63.18 53.24-55.44 64.53 2.21 3.24 7 4.23 14.34 3 15.2-2.62 40.38-15 65.65-32.37 33.55-23 63.41-52.24 55.61-63.62m-33 17.33c-.48 4.84-11.63 17.2-32 31.44-15.86 11.1-31.55 19.21-40 20.66-2.35.41-4.07.25-4.72-.42a1.61 1.61 0 0 1-.32-1.37c.5-5 11.84-17.82 31.88-31.85 15.4-10.78 31-18.71 39.74-20.22 2.55-.44 4.39-.28 5.07.45.11.1.42.43.33 1.31" class="cls-13"/><path d="M185.68 77.26c-1.35-1.42-3.75-1.82-7.34-1.2-9.04 1.61-25.04 9.67-40.76 20.61-18.73 13.15-32.28 27-32.95 33.71a4.05 4.05 0 0 0 1 3.36c1.32 1.38 3.59 1.76 7 1.18 8.76-1.51 24.86-9.79 41-21.08 15.91-11.17 32.31-25.74 33.06-33.26a4 4 0 0 0-1-3.32" class="cls-13"/></g></g></g></svg>