<svg xmlns="http://www.w3.org/2000/svg" data-name="Telia Pebble Icon segments RGB x50" viewBox="0 0 582.34 505.37"><defs><style>.cls-1{fill:#00cdff}.cls-2{fill:#32ff00}.cls-3{fill:#00cdcd}.cls-4{fill:#990ae3}.cls-5{fill:#93f}.cls-6{fill:#cdff32}.cls-7{fill:#ff00cd}.cls-10{fill:#fff}</style></defs><g data-name="38"><path d="M245.03 498.84c0-.15.12-.27.09-.41a1.2 1.2 0 0 0-.45-.81 1.27 1.27 0 0 0-.93-.27 331.15 331.15 0 0 1-118.53-9.44c-29.91-7.86-53.56-18.53-70.26-31.73a91.43 91.43 0 0 1-7.83-6.9l-.1-.1a1.29 1.29 0 0 0-1.61 0c-.13.11-.14.26-.2.4a119.3 119.3 0 0 0 23.22 25c36.79 29.07 102 38.39 176.6 24.2" class="cls-1"/><path d="M234.84 500.68a431.54 431.54 0 0 0 63.69-15.62 1 1 0 0 0 .06-.46c-.08-.28-.53-.09-.73-.25s-2 .12-2.45.21c-46.37 11.34-123.85 14-194.29-13.16-20.69-8-37.75-17.24-50.7-27.47a92.24 92.24 0 0 1-16.22-16.09 1.27 1.27 0 0 0-1.68-.3c-.14.08-.18.23-.26.34a165.59 165.59 0 0 0 15.91 25.67c1.7 1.56 3.34 3.15 5.2 4.62 17 13.42 40.94 24.24 71.18 32.18a335.2 335.2 0 0 0 110.29 10.33" class="cls-1"/><path d="M319.81 477.09a1.28 1.28 0 0 0-1.55-.82c-95.59 26.67-216.19.06-268.85-41.54-11.39-9-19.73-18.6-24.81-28.53a1.17 1.17 0 0 0-.34-.42 1.27 1.27 0 0 0-1.3-.17c-.17.08-.24.25-.35.37a222.66 222.66 0 0 0 11.55 25.61 97.23 97.23 0 0 0 14.68 14.33c13.15 10.39 30.43 19.74 51.37 27.83 66.31 25.61 140.21 24.17 187.76 14.56 10.52-3.15 21.13-6.7 31.81-10.76a1.17 1.17 0 0 0 0-.46" class="cls-1"/><path d="M366.63 456.47a296.2 296.2 0 0 1-63.84 18.06c-85.28 14.35-199.94-9.76-255.61-53.73-16.37-12.93-27.27-25.83-31.66-40.3a5.71 5.71 0 0 0-.66-1.41c-.31-.24-.13-.55-.53-.43-.19 0-.28.21-.41.33a280.26 280.26 0 0 0 11 32.58c5.34 8.8 12.93 17.23 23 25.16 51.93 41 169.06 67.46 264.27 43.63a496.7 496.7 0 0 0 55.4-23.82Z" class="cls-1"/><path d="M380.7 449.18a1.3 1.3 0 0 0-.35-.45 1.32 1.32 0 0 0-1.28-.18 298.79 298.79 0 0 1-64.68 18.62c-88.79 14.93-209.4-11.13-268.87-58.1-17.21-13.59-28.36-28.16-33.14-43.31a1.33 1.33 0 0 0-.43-.6 1.23 1.23 0 0 0-1.11-.24c-.17 0-.26.19-.4.3 1.7 7.46 3.64 14.7 5.77 21.75 5.46 12.54 15.13 24.58 29.36 35.82 57.1 45.11 170.25 68.94 257.59 54.25 20.65-3.48 38.9-9.71 55.72-16.33q10.92-5.25 21.81-11.13v-.4" class="cls-1"/><path d="M403.39 436.22a1.25 1.25 0 0 0-.34-.41 1.3 1.3 0 0 0-1.29-.18c-19.66 8.54-50.81 19.55-87.54 23.59-79.45 8.75-204.52-12.85-268-63-20.32-16-33.47-34.19-38.54-53.51a1.31 1.31 0 0 0-.43-.68 1.26 1.26 0 0 0-1.05-.24c-.09 0-.1.12-.16.16q2.43 14.82 5.87 28.89c5.59 14.13 16.19 27.64 32.14 40.24 60 47.35 181.47 73.64 270.88 58.61a300 300 0 0 0 59-16.43c9.87-5.13 19.72-10.61 29.52-16.55a1.05 1.05 0 0 0 0-.47" class="cls-1"/><path d="M418.52 426.66a1.08 1.08 0 0 0-.32-.38 1.28 1.28 0 0 0-1.29-.19c-34.37 14.92-67.85 23.23-102.35 25.4-98.54 6.22-212-22.41-269.8-68.05-20.14-15.91-33.12-33.34-38.6-51.8a1.21 1.21 0 0 0-.43-.63 1.24 1.24 0 0 0-1.05-.24c-.14 0-.21.14-.33.22.84 6.14 1.79 12.22 2.88 18.2 6.11 17.75 18.59 34.19 37.34 49 64 50.56 189.93 72.36 269.88 63.55a309.64 309.64 0 0 0 82.94-21.54c7.12-4.18 14.19-8.53 21.23-13.13a.83.83 0 0 0 0-.41" class="cls-1"/><path d="M443.75 409.07a1.67 1.67 0 0 0-.28-.31 1.27 1.27 0 0 0-1.4-.1c-34.55 19.09-82.16 31.09-127.34 32.07-101.66 2.2-212-27.31-268.28-71.78-25.06-19.79-40.27-41.74-44-65.64a1.19 1.19 0 0 0-.46-.79 1.33 1.33 0 0 0-.68-.21c.83 11.44 2 22.72 3.7 33.76 6.15 17.61 18.29 33.68 38.14 49.36 58.23 46 172.42 74.84 271.52 68.6 33.53-2.12 66.12-10.13 99.43-24.13q15-9.57 29.68-20.43c0-.13 0-.26-.07-.4" class="cls-2"/><path d="M454.85 400.68a1.08 1.08 0 0 0-.28-.32 1.29 1.29 0 0 0-1.35-.14c-33.19 16.5-73 31.69-139 31-106.54-1.13-211.46-30.35-267.28-74.44-24.33-19.22-39.3-40.8-44.5-64.14a1.22 1.22 0 0 0-.45-.71 1.24 1.24 0 0 0-1-.26c-.15 0-.25.15-.38.22.3 5.77.68 11.55 1.18 17.27 5.11 22.42 19.48 43.17 43 61.79 56.72 44.8 167.71 74.54 269.89 72.32 43.9-1 89.93-12.28 124.44-30.34q7.91-5.7 15.74-11.77a1.24 1.24 0 0 0-.1-.47" class="cls-2"/><path d="M476.95 382.48a1.9 1.9 0 0 0-.24-.25 1.27 1.27 0 0 0-1.44-.09c-44.67 26.86-97.33 38.68-161 36.16-109-4.33-211.34-34.35-267-78.35-25.33-20-40.64-42.42-45.48-66.64a1.26 1.26 0 0 0-1.37-1c-.15 0-.23.12-.35.17.1 8 .38 16.08.86 24.07 6 22.71 20.88 43.59 44.45 62.21 56.22 44.41 161.75 73.84 268.83 75 64.26.69 103.89-13.58 136.7-29.58q13.23-10.1 26.14-21.29c0-.14 0-.27-.1-.39" class="cls-2"/><path d="M486.81 373.73a1.84 1.84 0 0 0-.23-.25 1.29 1.29 0 0 0-1.42-.1c-44.91 26.07-102.22 37.3-170.35 33.39-85.34-4.89-200.14-28.78-266.38-81.11-25.86-20.42-41.54-43.25-46.61-67.85a1.2 1.2 0 0 0-.46-.74 1.19 1.19 0 0 0-.9-.27 1.06 1.06 0 0 0-.35.18c-.13 6.61-.15 13.22 0 19.81 5.64 23.79 20.88 45.64 45.59 65.15 56.1 44.31 159 74.54 268.52 78.88 62.7 2.49 114.82-9 159.27-34.83 4.52-3.85 9-7.77 13.45-11.81a1.17 1.17 0 0 0-.13-.45" class="cls-2"/><path d="M503.39 358.01a1 1 0 0 0-.2-.21 1.25 1.25 0 0 0-1.44-.09c-49.94 30.12-113.33 42-188.4 35.28-112.75-10.06-208.44-40.36-262.54-83.09-27.6-21.8-43.85-46.3-48.28-72.85a1.3 1.3 0 0 0-1.32-1.06c-.14 0-.23.12-.35.16-.47 8.17-.78 16.37-.86 24.6 5.78 24.42 21.44 46.84 46.83 66.89 66.72 52.7 182.08 76.73 267.82 81.66 67.33 3.87 124.15-7.08 169.1-32.34 6.66-6 13.28-12.09 19.77-18.51a.93.93 0 0 0-.13-.44" class="cls-3"/><path d="M514.81 346.42a1 1 0 0 0-.19-.17 1.26 1.26 0 0 0-1.51 0c-42.75 29.9-113.62 42.08-199.56 34.3-105.52-9.62-209.16-43.8-264.08-87.13-27.44-21.68-42.9-45.1-46-69.62a1.32 1.32 0 0 0-.47-.84 1.27 1.27 0 0 0-.8-.27 1.35 1.35 0 0 0-.37.14c-.49 5.74-.88 11.48-1.17 17.26 5.21 26.33 21.46 50.42 48.58 71.84 54.48 43 150.66 73.52 263.88 83.63 74.47 6.65 137.51-5 187.57-34.36q7.2-7 14.23-14.41c-.05-.13 0-.26-.13-.37" class="cls-3"/><path d="M534.23 325.35a1.32 1.32 0 0 0-.31-.35 1.13 1.13 0 0 0-.57-.25 1.28 1.28 0 0 0-1 .28c-43.9 37-126 51.76-219.51 39.49-115.89-15.2-208.07-46-259.56-86.65-28.44-22.46-44.44-47.68-47.57-75a1.27 1.27 0 0 0-.47-.85 1.31 1.31 0 0 0-.77-.27c-.16 0-.28.1-.42.15-1.05 8.16-1.85 16.46-2.49 24.8 4 24.37 19.47 47.38 46.36 68.63 55.27 43.64 159.45 78 265.42 87.62 84.7 7.65 154.88-4.05 198.37-32.89 7.68-7.9 15.25-16 22.61-24.58a1.77 1.77 0 0 0-.06-.17" class="cls-3"/><path d="M543.9 313.93c-.07-.13-.07-.27-.17-.38l-.1-.09a1.28 1.28 0 0 0-1.61 0c-44.65 38.32-126 51.78-229 37.89-111.28-15-205.74-47.8-259.18-90-27.19-21.49-42.95-44.51-46.83-68.41a1.23 1.23 0 0 0-.47-.79 1.25 1.25 0 0 0-.8-.27c-.11 0-.19.09-.3.11-.68 4.47-1.29 8.95-1.85 13.48 3.9 27.24 20 52.17 48.07 74.35 51.83 40.94 144.45 71.9 260.81 87.16 92.21 12.11 173.34-2 218.43-37.71q6.57-7.53 13-15.38" class="cls-4"/><path d="M559.58 293.11c-.07-.15-.09-.32-.22-.42a1.27 1.27 0 0 0-1.72.14c-38.83 42.9-132.67 58.9-244.89 41.75-112.94-17.28-203.89-49.49-256.1-90.73-28.67-22.65-44.12-46.79-45.93-71.75a1.24 1.24 0 0 0-.49-.9 1.21 1.21 0 0 0-.69-.28c-.15 0-.26.08-.39.11-1.6 7.95-3 16.1-4.15 24.36 4.52 23.82 20.36 46.71 47.33 68 53.78 42.47 148.69 75.47 260.41 90.53 101.68 13.69 182.41.77 228.14-36.29 3-3.59 6-7.13 8.94-10.83 3.62-4.58 6.82-9.14 9.79-13.68" class="cls-4"/><path d="M556.46 297.47a168 168 0 0 0 12-19.57 1.28 1.28 0 0 0-.23-.37l-.09-.07a1.27 1.27 0 0 0-1.68.25c-37.15 45.23-127.53 59.78-254.52 41-108.42-16.07-200.51-48.93-252.69-90.15-28.78-22.73-44-46.81-45.27-71.58a1.2 1.2 0 0 0-.48-.92 1.27 1.27 0 0 0-.66-.28c-.12 0-.23.07-.36.1-1.46 6.05-2.83 12.22-4.05 18.52 2.56 24.95 18.15 49 46.59 71.46 52.55 41.51 143.94 73.91 257.31 91.23 110.38 16.88 203.12 1.65 244.11-39.58" class="cls-4"/><path d="M566.44 281.47a136.07 136.07 0 0 0 11.28-27.17 1.05 1.05 0 0 0-.31-.18 1.27 1.27 0 0 0-1.6.58c-27.42 52.19-131.42 70.31-264.92 46.18-110.57-20-198.88-52.69-248.67-92-29.94-23.65-44.21-48.21-42.42-73a1.24 1.24 0 0 0-.48-1.08 1.33 1.33 0 0 0-.55-.26 1.27 1.27 0 0 0-.43.09c-2.43 7.85-4.67 16-6.63 24.37 2 24.85 17.35 48.91 46 71.53 52.51 41.47 145.05 74.51 253.89 90.66 125.81 18.64 216 4.5 254.85-39.71" class="cls-4"/><path d="M576.54 258.24a116.77 116.77 0 0 0 4.49-18.88s0-.11-.06-.15a1.26 1.26 0 0 0-1.89.39c-28 51.54-127.64 67.78-266.62 43.47-107.07-18.75-197.19-52.15-247.23-91.65-27.12-21.42-41.3-43.53-42.18-65.68a1.24 1.24 0 0 0-.48-.94 1.21 1.21 0 0 0-.61-.27c-.1 0-.17 0-.27.06q-2.3 6.55-4.35 13.42c-.78 25.07 13.69 49.48 43.3 72.88 50.12 39.58 138.83 72.44 249.8 92.51 132.52 24 236.22 6.19 266.1-45.13" class="cls-4"/><path d="M580.61 241.87a110.2 110.2 0 0 0 1.73-18.36 1.38 1.38 0 0 0-.39-.18 1.29 1.29 0 0 0-1.41.92c-14 50.11-132.91 68.5-270.78 41.89-102.9-19.87-189.69-53.19-238.11-91.44-31.54-24.92-44.87-50.39-38.54-73.67a1.29 1.29 0 0 0-.44-1.33 1.86 1.86 0 0 0-.34-.19 1.41 1.41 0 0 0-.46 0 257.85 257.85 0 0 0-11.16 27.91c1.5 22.39 15.87 44.59 42.95 66 50.36 39.78 140.89 73.37 248.36 92.18 139.12 24.34 239.26 8 268.59-43.69" class="cls-4"/><path d="M582.19 227.21a109.88 109.88 0 0 0-.59-17.15 1.15 1.15 0 0 0-1.69.88c-9.9 50.2-123.34 65.79-269.72 37.08-101.54-19.89-186.87-52.71-234.11-90-28.33-22.37-41.23-45.53-37.32-67 .11-.58.23-1.15.36-1.74a1.42 1.42 0 0 0-.47-1.39 1.05 1.05 0 0 0-.29-.17 1.07 1.07 0 0 0-.44 0c-2.69 4.84-5.24 10-7.67 15.33-4.91 23.72 8.69 49 39.83 73.63 48.73 38.49 135.91 72 239.2 91.94 137.07 26.47 255.66 8.22 272.91-41.41" class="cls-5"/><path d="M581.88 213.42a113.48 113.48 0 0 0-3.45-20.19 1.49 1.49 0 0 0-.45-.15 1.27 1.27 0 0 0-1.2 1.05c-1.81 10.26-8.22 19.23-19.06 26.68-38.59 26.51-127 30.42-230.8 10.19-105.87-20.62-197.26-55.2-244.48-92.49-25.37-20.05-36.55-39.47-33.22-57.74a45.66 45.66 0 0 1 5.7-14.89 1.28 1.28 0 0 0-.32-1.63l-.06-.05c-.12-.08-.26-.05-.39-.09-1 1.14-2 2.2-2.9 3.36a157.28 157.28 0 0 0-15 23.43c-3.92 22.33 9.29 46.21 38.26 69.1 47.56 37.56 133.28 70.56 235.2 90.54 145.9 28.58 259.45 12.88 272.17-37.12" class="cls-5"/><path d="M559.19 222.85c11-7.59 17.64-16.8 19.79-27.31a123.28 123.28 0 0 0-5.94-17.65c-.12 0-.22-.11-.34-.09a1.24 1.24 0 0 0-1 1.2c0 .71-.09 1.4-.17 2.08-1.18 9.1-6.56 17.05-16 23.62-38.29 26.76-139.75 28.56-246.73 4.39-95.25-21.51-177.13-54.1-219-87.18-24.19-19.1-34.5-37.56-30.65-54.86.94-4.22 3.37-8.76 7.2-13.44a1.28 1.28 0 0 0-.12-1.74l-.08-.06c-.09-.07-.21-.06-.31-.1a149.45 149.45 0 0 0-14.3 15.42 47.84 47.84 0 0 0-4.8 13.17c-3.52 19.26 8 39.5 34.15 60.17 47.51 37.54 139.32 72.3 245.57 93 104.46 20.35 193.64 16.28 232.74-10.63" class="cls-5"/><path d="M556.97 206.78c10-7 15.75-15.54 17-25.37.05-.38.07-.79.1-1.18a149.1 149.1 0 0 0-15.18-28.24c-.17 0-.35-.14-.51 0a1.28 1.28 0 0 0-.52 1.65c2.27 4.79 3.29 8.7 3 11.6-.69 7.46-4.95 14.06-12.64 19.61-35.39 25.51-139.14 25.73-246.67.54-89-20.86-161.81-50-199.71-79.93-22.48-17.75-32.19-35.38-28.08-50.95 1.43-5.42 5.46-11 11.95-16.65q1.85-1.27 3.74-2.5a1.26 1.26 0 0 0 .36-1.75 1.12 1.12 0 0 0-.27-.3c-.06-.05-.14 0-.2 0a157.11 157.11 0 0 0-27.13 21.91c-2.74 3.91-4.79 7.73-5.6 11.34-4.07 18.33 6.54 37.63 31.56 57.39 42.16 33.3 124.41 66.08 220 87.67 107.64 24.31 209.92 22.35 248.75-4.78" class="cls-5"/><path d="M549.75 186.86c8.32-6 12.92-13.21 13.68-21.43.25-2.6-.39-5.8-1.83-9.55a185.29 185.29 0 0 0-17.29-22.92c-.24 0-.47-.16-.67 0a1.26 1.26 0 0 0-.31 1.69c3.85 6 5.53 11.15 5 15.2-.8 6.14-4.62 11.62-11.35 16.31-32.9 23-125.56 23.5-225.32 1.2-87.63-19.6-159.18-47.66-196.28-77-20.23-16-29.31-31.88-26.24-46 1.32-6.07 5.51-11.54 12.45-16.26a1.27 1.27 0 0 0 .37-1.71 1 1 0 0 0-.3-.33s-.05 0-.07 0a169.28 169.28 0 0 0-20.81 13c-4.93 5-8.13 9.88-9.41 14.73-4.4 16.63 5.61 35.16 28.95 53.6 38.74 30.59 110 59.14 200.69 80.39 109.94 25.76 212.24 25.38 248.74-.95" class="cls-4"/><path d="M538.44 168.24c7.32-5.13 11.5-11.21 12.4-18.07.51-3.81-.71-8.35-3.42-13.45a241 241 0 0 0-33.61-32.65 1.14 1.14 0 0 0-.44.22 1.27 1.27 0 0 0 0 1.74c10.8 10.81 16 19.95 15 26.45-.76 5.19-4 9.79-9.74 13.67-29.6 20.15-116.7 18.75-211.81-3.4-79.74-18.57-141.45-42.86-173.78-68.4-17.86-14.1-25.5-27.58-22.72-40.06 1.41-6.36 5.94-11.8 13.47-16.17a1.26 1.26 0 0 0 .53-1.6 1.34 1.34 0 0 0-.35-.46 188.39 188.39 0 0 0-27.73 13.06c-5.18 4.42-8.45 9.34-9.63 14.76-3.34 15.32 5.79 31.63 27.15 48.5 37.38 29.53 109.3 57.75 197.29 77.43 100.41 22.46 193.88 21.81 227.33-1.57" class="cls-4"/><path d="M520.12 148.25c6.3-4.3 9.95-9.49 10.82-15.41.94-6.4-2.89-14.43-11.35-23.94-2.55-2.17-5.07-4.35-7.71-6.44a429.57 429.57 0 0 0-38.31-26.85c-.15.1-.32.14-.42.29a1.26 1.26 0 0 0 .27 1.7c2.37 1.71 4.64 3.42 6.77 5.1 16.17 12.77 24.38 23.76 23.15 30.95-.76 4.33-3.56 8.13-8.32 11.3-25.16 16.73-103.24 14.47-189.88-5.47-68.28-15.74-124-37.85-153-60.7-15.14-12-21.91-23.45-19.56-33.23 1.59-6.67 7.76-12.05 18.37-16a1.28 1.28 0 0 0 .77-1.56 1.1 1.1 0 0 0-.25-.37 224.78 224.78 0 0 0-31.18 9.82c-6.79 4.52-11 9.91-12.46 16.26-3 13.5 4.95 27.83 23.64 42.58 32.62 25.77 94.67 50.23 174.75 68.89 95.76 22.3 183.7 23.54 213.83 3" class="cls-6"/><path d="M482.64 81.42a477.48 477.48 0 0 0-47.7-27.5c-.13.1-.28.15-.36.3a1.26 1.26 0 0 0 .33 1.59 1 1 0 0 0 .15.11 164 164 0 0 1 19.63 13.07c12.29 9.71 18.17 18.68 16.55 25.24-5.53 22.3-79.82 23.83-165.62 3.36-57.1-13.61-107.5-33.87-131.54-52.86-11.32-8.94-16.43-17.28-14.8-24.13 2.14-9 15.67-15.4 38.08-18.05a1.27 1.27 0 0 0 1.12-1.38 1.33 1.33 0 0 0-.25-.45 278.68 278.68 0 0 0-51.92 8.24c-9 4.12-14.56 9.43-16.13 16-2.58 10.82 4.49 23.2 20.46 35.81 29.2 23.07 85.32 45.37 154 61.17 88.62 20.48 165.75 22.48 191.81 5.14 5.37-3.56 8.53-7.93 9.4-13 1.76-10.21-11.44-23.26-23.21-32.68" class="cls-6"/><path d="M473.69 94.85c1.91-7.7-4.12-17.31-17.44-27.83-3.24-2.56-7-5.18-11.05-7.79a519.63 519.63 0 0 0-70.76-31.13c-.11.13-.27.19-.33.35a1.27 1.27 0 0 0 .41 1.44 1.23 1.23 0 0 0 .32.19c19.71 7.72 35.54 16.08 45.78 24.17 9.14 7.22 13.29 13.82 12 19.1-4.06 17-61.25 18-127.5 2.18-44.05-10.49-83.16-26.28-102.06-41.21-8.73-6.9-12.7-13.26-11.48-18.37 2.1-8.79 18.79-13.83 45.78-13.84a1.29 1.29 0 0 0 1.27-1.24c0-.18-.15-.29-.21-.45a345.69 345.69 0 0 0-51.62 1.27c-17.59 3.45-28 9.68-30 18.34-1.91 8 3.37 17 15.68 26.7 24.69 19.5 74.23 39.44 132.53 53.35 90.09 21.48 162.6 19.23 168.66-5.23" class="cls-6"/><path d="M435.1 73.93c1.54-6.39-2.81-13.68-12.91-21.66-7.33-5.8-17.61-11.77-29.94-17.5C337.36 13.04 278.61.49 224.18.04c-20.55 1.53-33 6.82-35 15.32-1.49 6.24 2.67 13.29 12.38 20.95 19.16 15.14 58.65 31.12 103 41.68 69.89 16.65 126 14.91 130.53-4.06M304.65 52.42c-29.47-7.15-55.13-17.4-67-26.76-4.9-3.87-7.14-7.35-6.48-10.07 2.2-9.07 35.68-11.24 82 0 28.44 6.9 53.68 17.17 65.87 26.8 5.29 4.18 7.71 7.9 7 10.76-2.1 8.64-33.83 10.82-81.43-.73" class="cls-7"/><path d="M388.53 53.73c1-4-1.69-8.45-7.89-13.35-12.46-9.84-38.08-20.29-66.85-27.26-39.27-9.54-81.83-11.45-85.06 1.85-.93 3.81 1.56 8.06 7.37 12.65 12.11 9.57 38.16 20 67.95 27.23 39.52 9.6 81.23 12.29 84.48-1.12m-34.94-13c-3.92 2.87-20.56 2.83-44.77-2.81-18.85-4.38-35.36-10.64-42.08-15.95-1.87-1.48-2.91-2.87-2.84-3.79a1.57 1.57 0 0 1 .8-1.16c4-2.95 21.17-3.09 45 2.45 18.31 4.26 34.63 10.56 41.59 16.06 2 1.6 3.14 3.08 3.06 4.07 0 .15-.05.61-.76 1.13" class="cls-7"/><path d="M356.88 39.83c.15-2-1.16-4-4-6.27-7.23-5.71-24-12.2-42.6-16.53-22.26-5.18-41.61-6-47.07-2a4 4 0 0 0-1.82 3c-.15 1.9 1.09 3.84 3.8 6 7 5.51 23.88 12 43.07 16.43 18.91 4.4 40.73 6.85 46.83 2.38a4.07 4.07 0 0 0 1.8-3" class="cls-7"/><g style="mask:url(#mask)"><g style="opacity:.3"><path d="M245.03 498.84c0-.15.12-.27.09-.41a1.2 1.2 0 0 0-.45-.81 1.27 1.27 0 0 0-.93-.27 331.15 331.15 0 0 1-118.53-9.44c-29.91-7.86-53.56-18.53-70.26-31.73a91.43 91.43 0 0 1-7.83-6.9l-.1-.1a1.29 1.29 0 0 0-1.61 0c-.13.11-.14.26-.2.4a119.3 119.3 0 0 0 23.22 25c36.79 29.07 102 38.39 176.6 24.2" class="cls-10"/><path d="M234.84 500.68a431.54 431.54 0 0 0 63.69-15.62 1 1 0 0 0 .06-.46c-.08-.28-.53-.09-.73-.25s-2 .12-2.45.21c-46.37 11.34-123.85 14-194.29-13.16-20.69-8-37.75-17.24-50.7-27.47a92.24 92.24 0 0 1-16.22-16.09 1.27 1.27 0 0 0-1.68-.3c-.14.08-.18.23-.26.34a165.59 165.59 0 0 0 15.91 25.67c1.7 1.56 3.34 3.15 5.2 4.62 17 13.42 40.94 24.24 71.18 32.18a335.2 335.2 0 0 0 110.29 10.33" class="cls-10"/><path d="M319.81 477.09a1.28 1.28 0 0 0-1.55-.82c-95.59 26.67-216.19.06-268.85-41.54-11.39-9-19.73-18.6-24.81-28.53a1.17 1.17 0 0 0-.34-.42 1.27 1.27 0 0 0-1.3-.17c-.17.08-.24.25-.35.37a222.66 222.66 0 0 0 11.55 25.61 97.23 97.23 0 0 0 14.68 14.33c13.15 10.39 30.43 19.74 51.37 27.83 66.31 25.61 140.21 24.17 187.76 14.56 10.52-3.15 21.13-6.7 31.81-10.76a1.17 1.17 0 0 0 0-.46" class="cls-10"/><path d="M366.63 456.47a296.2 296.2 0 0 1-63.84 18.06c-85.28 14.35-199.94-9.76-255.61-53.73-16.37-12.93-27.27-25.83-31.66-40.3a5.71 5.71 0 0 0-.66-1.41c-.31-.24-.13-.55-.53-.43-.19 0-.28.21-.41.33a280.26 280.26 0 0 0 11 32.58c5.34 8.8 12.93 17.23 23 25.16 51.93 41 169.06 67.46 264.27 43.63a496.7 496.7 0 0 0 55.4-23.82Z" class="cls-10"/><path d="M380.7 449.18a1.3 1.3 0 0 0-.35-.45 1.32 1.32 0 0 0-1.28-.18 298.79 298.79 0 0 1-64.68 18.62c-88.79 14.93-209.4-11.13-268.87-58.1-17.21-13.59-28.36-28.16-33.14-43.31a1.33 1.33 0 0 0-.43-.6 1.23 1.23 0 0 0-1.11-.24c-.17 0-.26.19-.4.3 1.7 7.46 3.64 14.7 5.77 21.75 5.46 12.54 15.13 24.58 29.36 35.82 57.1 45.11 170.25 68.94 257.59 54.25 20.65-3.48 38.9-9.71 55.72-16.33q10.92-5.25 21.81-11.13v-.4" class="cls-10"/><path d="M403.39 436.22a1.25 1.25 0 0 0-.34-.41 1.3 1.3 0 0 0-1.29-.18c-19.66 8.54-50.81 19.55-87.54 23.59-79.45 8.75-204.52-12.85-268-63-20.32-16-33.47-34.19-38.54-53.51a1.31 1.31 0 0 0-.43-.68 1.26 1.26 0 0 0-1.05-.24c-.09 0-.1.12-.16.16q2.43 14.82 5.87 28.89c5.59 14.13 16.19 27.64 32.14 40.24 60 47.35 181.47 73.64 270.88 58.61a300 300 0 0 0 59-16.43c9.87-5.13 19.72-10.61 29.52-16.55a1.05 1.05 0 0 0 0-.47" class="cls-10"/><path d="M418.52 426.66a1.08 1.08 0 0 0-.32-.38 1.28 1.28 0 0 0-1.29-.19c-34.37 14.92-67.85 23.23-102.35 25.4-98.54 6.22-212-22.41-269.8-68.05-20.14-15.91-33.12-33.34-38.6-51.8a1.21 1.21 0 0 0-.43-.63 1.24 1.24 0 0 0-1.05-.24c-.14 0-.21.14-.33.22.84 6.14 1.79 12.22 2.88 18.2 6.11 17.75 18.59 34.19 37.34 49 64 50.56 189.93 72.36 269.88 63.55a309.64 309.64 0 0 0 82.94-21.54c7.12-4.18 14.19-8.53 21.23-13.13a.83.83 0 0 0 0-.41" class="cls-10"/><path d="M443.75 409.07a1.67 1.67 0 0 0-.28-.31 1.27 1.27 0 0 0-1.4-.1c-34.55 19.09-82.16 31.09-127.34 32.07-101.66 2.2-212-27.31-268.28-71.78-25.06-19.79-40.27-41.74-44-65.64a1.19 1.19 0 0 0-.46-.79 1.33 1.33 0 0 0-.68-.21c.83 11.44 2 22.72 3.7 33.76 6.15 17.61 18.29 33.68 38.14 49.36 58.23 46 172.42 74.84 271.52 68.6 33.53-2.12 66.12-10.13 99.43-24.13q15-9.57 29.68-20.43c0-.13 0-.26-.07-.4" class="cls-10"/><path d="M454.85 400.68a1.08 1.08 0 0 0-.28-.32 1.29 1.29 0 0 0-1.35-.14c-33.19 16.5-73 31.69-139 31-106.54-1.13-211.46-30.35-267.28-74.44-24.33-19.22-39.3-40.8-44.5-64.14a1.22 1.22 0 0 0-.45-.71 1.24 1.24 0 0 0-1-.26c-.15 0-.25.15-.38.22.3 5.77.68 11.55 1.18 17.27 5.11 22.42 19.48 43.17 43 61.79 56.72 44.8 167.71 74.54 269.89 72.32 43.9-1 89.93-12.28 124.44-30.34q7.91-5.7 15.74-11.77a1.24 1.24 0 0 0-.1-.47" class="cls-10"/><path d="M476.95 382.48a1.9 1.9 0 0 0-.24-.25 1.27 1.27 0 0 0-1.44-.09c-44.67 26.86-97.33 38.68-161 36.16-109-4.33-211.34-34.35-267-78.35-25.33-20-40.64-42.42-45.48-66.64a1.26 1.26 0 0 0-1.37-1c-.15 0-.23.12-.35.17.1 8 .38 16.08.86 24.07 6 22.71 20.88 43.59 44.45 62.21 56.22 44.41 161.75 73.84 268.83 75 64.26.69 103.89-13.58 136.7-29.58q13.23-10.1 26.14-21.29c0-.14 0-.27-.1-.39" class="cls-10"/><path d="M486.81 373.73a1.84 1.84 0 0 0-.23-.25 1.29 1.29 0 0 0-1.42-.1c-44.91 26.07-102.22 37.3-170.35 33.39-85.34-4.89-200.14-28.78-266.38-81.11-25.86-20.42-41.54-43.25-46.61-67.85a1.2 1.2 0 0 0-.46-.74 1.19 1.19 0 0 0-.9-.27 1.06 1.06 0 0 0-.35.18c-.13 6.61-.15 13.22 0 19.81 5.64 23.79 20.88 45.64 45.59 65.15 56.1 44.31 159 74.54 268.52 78.88 62.7 2.49 114.82-9 159.27-34.83 4.52-3.85 9-7.77 13.45-11.81a1.17 1.17 0 0 0-.13-.45" class="cls-10"/><path d="M503.39 358.01a1 1 0 0 0-.2-.21 1.25 1.25 0 0 0-1.44-.09c-49.94 30.12-113.33 42-188.4 35.28-112.75-10.06-208.44-40.36-262.54-83.09-27.6-21.8-43.85-46.3-48.28-72.85a1.3 1.3 0 0 0-1.32-1.06c-.14 0-.23.12-.35.16-.47 8.17-.78 16.37-.86 24.6 5.78 24.42 21.44 46.84 46.83 66.89 66.72 52.7 182.08 76.73 267.82 81.66 67.33 3.87 124.15-7.08 169.1-32.34 6.66-6 13.28-12.09 19.77-18.51a.93.93 0 0 0-.13-.44" class="cls-10"/><path d="M514.81 346.42a1 1 0 0 0-.19-.17 1.26 1.26 0 0 0-1.51 0c-42.75 29.9-113.62 42.08-199.56 34.3-105.52-9.62-209.16-43.8-264.08-87.13-27.44-21.68-42.9-45.1-46-69.62a1.32 1.32 0 0 0-.47-.84 1.27 1.27 0 0 0-.8-.27 1.35 1.35 0 0 0-.37.14c-.49 5.74-.88 11.48-1.17 17.26 5.21 26.33 21.46 50.42 48.58 71.84 54.48 43 150.66 73.52 263.88 83.63 74.47 6.65 137.51-5 187.57-34.36q7.2-7 14.23-14.41c-.05-.13 0-.26-.13-.37" class="cls-10"/><path d="M534.23 325.35a1.32 1.32 0 0 0-.31-.35 1.13 1.13 0 0 0-.57-.25 1.28 1.28 0 0 0-1 .28c-43.9 37-126 51.76-219.51 39.49-115.89-15.2-208.07-46-259.56-86.65-28.44-22.46-44.44-47.68-47.57-75a1.27 1.27 0 0 0-.47-.85 1.31 1.31 0 0 0-.77-.27c-.16 0-.28.1-.42.15-1.05 8.16-1.85 16.46-2.49 24.8 4 24.37 19.47 47.38 46.36 68.63 55.27 43.64 159.45 78 265.42 87.62 84.7 7.65 154.88-4.05 198.37-32.89 7.68-7.9 15.25-16 22.61-24.58a1.77 1.77 0 0 0-.06-.17" class="cls-10"/><path d="M543.9 313.93c-.07-.13-.07-.27-.17-.38l-.1-.09a1.28 1.28 0 0 0-1.61 0c-44.65 38.32-126 51.78-229 37.89-111.28-15-205.74-47.8-259.18-90-27.19-21.49-42.95-44.51-46.83-68.41a1.23 1.23 0 0 0-.47-.79 1.25 1.25 0 0 0-.8-.27c-.11 0-.19.09-.3.11-.68 4.47-1.29 8.95-1.85 13.48 3.9 27.24 20 52.17 48.07 74.35 51.83 40.94 144.45 71.9 260.81 87.16 92.21 12.11 173.34-2 218.43-37.71q6.57-7.53 13-15.38" class="cls-10"/><path d="M559.58 293.11c-.07-.15-.09-.32-.22-.42a1.27 1.27 0 0 0-1.72.14c-38.83 42.9-132.67 58.9-244.89 41.75-112.94-17.28-203.89-49.49-256.1-90.73-28.67-22.65-44.12-46.79-45.93-71.75a1.24 1.24 0 0 0-.49-.9 1.21 1.21 0 0 0-.69-.28c-.15 0-.26.08-.39.11-1.6 7.95-3 16.1-4.15 24.36 4.52 23.82 20.36 46.71 47.33 68 53.78 42.47 148.69 75.47 260.41 90.53 101.68 13.69 182.41.77 228.14-36.29 3-3.59 6-7.13 8.94-10.83 3.62-4.58 6.82-9.14 9.79-13.68" class="cls-10"/><path d="M556.46 297.47a168 168 0 0 0 12-19.57 1.28 1.28 0 0 0-.23-.37l-.09-.07a1.27 1.27 0 0 0-1.68.25c-37.15 45.23-127.53 59.78-254.52 41-108.42-16.07-200.51-48.93-252.69-90.15-28.78-22.73-44-46.81-45.27-71.58a1.2 1.2 0 0 0-.48-.92 1.27 1.27 0 0 0-.66-.28c-.12 0-.23.07-.36.1-1.46 6.05-2.83 12.22-4.05 18.52 2.56 24.95 18.15 49 46.59 71.46 52.55 41.51 143.94 73.91 257.31 91.23 110.38 16.88 203.12 1.65 244.11-39.58" class="cls-10"/><path d="M566.44 281.47a136.07 136.07 0 0 0 11.28-27.17 1.05 1.05 0 0 0-.31-.18 1.27 1.27 0 0 0-1.6.58c-27.42 52.19-131.42 70.31-264.92 46.18-110.57-20-198.88-52.69-248.67-92-29.94-23.65-44.21-48.21-42.42-73a1.24 1.24 0 0 0-.48-1.08 1.33 1.33 0 0 0-.55-.26 1.27 1.27 0 0 0-.43.09c-2.43 7.85-4.67 16-6.63 24.37 2 24.85 17.35 48.91 46 71.53 52.51 41.47 145.05 74.51 253.89 90.66 125.81 18.64 216 4.5 254.85-39.71" class="cls-10"/><path d="M576.54 258.24a116.77 116.77 0 0 0 4.49-18.88s0-.11-.06-.15a1.26 1.26 0 0 0-1.89.39c-28 51.54-127.64 67.78-266.62 43.47-107.07-18.75-197.19-52.15-247.23-91.65-27.12-21.42-41.3-43.53-42.18-65.68a1.24 1.24 0 0 0-.48-.94 1.21 1.21 0 0 0-.61-.27c-.1 0-.17 0-.27.06q-2.3 6.55-4.35 13.42c-.78 25.07 13.69 49.48 43.3 72.88 50.12 39.58 138.83 72.44 249.8 92.51 132.52 24 236.22 6.19 266.1-45.13" class="cls-10"/><path d="M580.61 241.87a110.2 110.2 0 0 0 1.73-18.36 1.38 1.38 0 0 0-.39-.18 1.29 1.29 0 0 0-1.41.92c-14 50.11-132.91 68.5-270.78 41.89-102.9-19.87-189.69-53.19-238.11-91.44-31.54-24.92-44.87-50.39-38.54-73.67a1.29 1.29 0 0 0-.44-1.33 1.86 1.86 0 0 0-.34-.19 1.41 1.41 0 0 0-.46 0 257.85 257.85 0 0 0-11.16 27.91c1.5 22.39 15.87 44.59 42.95 66 50.36 39.78 140.89 73.37 248.36 92.18 139.12 24.34 239.26 8 268.59-43.69" class="cls-10"/><path d="M582.19 227.21a109.88 109.88 0 0 0-.59-17.15 1.15 1.15 0 0 0-1.69.88c-9.9 50.2-123.34 65.79-269.72 37.08-101.54-19.89-186.87-52.71-234.11-90-28.33-22.37-41.23-45.53-37.32-67 .11-.58.23-1.15.36-1.74a1.42 1.42 0 0 0-.47-1.39 1.05 1.05 0 0 0-.29-.17 1.07 1.07 0 0 0-.44 0c-2.69 4.84-5.24 10-7.67 15.33-4.91 23.72 8.69 49 39.83 73.63 48.73 38.49 135.91 72 239.2 91.94 137.07 26.47 255.66 8.22 272.91-41.41" class="cls-10"/><path d="M581.88 213.42a113.48 113.48 0 0 0-3.45-20.19 1.49 1.49 0 0 0-.45-.15 1.27 1.27 0 0 0-1.2 1.05c-1.81 10.26-8.22 19.23-19.06 26.68-38.59 26.51-127 30.42-230.8 10.19-105.87-20.62-197.26-55.2-244.48-92.49-25.37-20.05-36.55-39.47-33.22-57.74a45.66 45.66 0 0 1 5.7-14.89 1.28 1.28 0 0 0-.32-1.63l-.06-.05c-.12-.08-.26-.05-.39-.09-1 1.14-2 2.2-2.9 3.36a157.28 157.28 0 0 0-15 23.43c-3.92 22.33 9.29 46.21 38.26 69.1 47.56 37.56 133.28 70.56 235.2 90.54 145.9 28.58 259.45 12.88 272.17-37.12" class="cls-10"/><path d="M559.19 222.85c11-7.59 17.64-16.8 19.79-27.31a123.28 123.28 0 0 0-5.94-17.65c-.12 0-.22-.11-.34-.09a1.24 1.24 0 0 0-1 1.2c0 .71-.09 1.4-.17 2.08-1.18 9.1-6.56 17.05-16 23.62-38.29 26.76-139.75 28.56-246.73 4.39-95.25-21.51-177.13-54.1-219-87.18-24.19-19.1-34.5-37.56-30.65-54.86.94-4.22 3.37-8.76 7.2-13.44a1.28 1.28 0 0 0-.12-1.74l-.08-.06c-.09-.07-.21-.06-.31-.1a149.45 149.45 0 0 0-14.3 15.42 47.84 47.84 0 0 0-4.8 13.17c-3.52 19.26 8 39.5 34.15 60.17 47.51 37.54 139.32 72.3 245.57 93 104.46 20.35 193.64 16.28 232.74-10.63" class="cls-10"/><path d="M556.97 206.78c10-7 15.75-15.54 17-25.37.05-.38.07-.79.1-1.18a149.1 149.1 0 0 0-15.18-28.24c-.17 0-.35-.14-.51 0a1.28 1.28 0 0 0-.52 1.65c2.27 4.79 3.29 8.7 3 11.6-.69 7.46-4.95 14.06-12.64 19.61-35.39 25.51-139.14 25.73-246.67.54-89-20.86-161.81-50-199.71-79.93-22.48-17.75-32.19-35.38-28.08-50.95 1.43-5.42 5.46-11 11.95-16.65q1.85-1.27 3.74-2.5a1.26 1.26 0 0 0 .36-1.75 1.12 1.12 0 0 0-.27-.3c-.06-.05-.14 0-.2 0a157.11 157.11 0 0 0-27.13 21.91c-2.74 3.91-4.79 7.73-5.6 11.34-4.07 18.33 6.54 37.63 31.56 57.39 42.16 33.3 124.41 66.08 220 87.67 107.64 24.31 209.92 22.35 248.75-4.78" class="cls-10"/><path d="M549.75 186.86c8.32-6 12.92-13.21 13.68-21.43.25-2.6-.39-5.8-1.83-9.55a185.29 185.29 0 0 0-17.29-22.92c-.24 0-.47-.16-.67 0a1.26 1.26 0 0 0-.31 1.69c3.85 6 5.53 11.15 5 15.2-.8 6.14-4.62 11.62-11.35 16.31-32.9 23-125.56 23.5-225.32 1.2-87.63-19.6-159.18-47.66-196.28-77-20.23-16-29.31-31.88-26.24-46 1.32-6.07 5.51-11.54 12.45-16.26a1.27 1.27 0 0 0 .37-1.71 1 1 0 0 0-.3-.33s-.05 0-.07 0a169.28 169.28 0 0 0-20.81 13c-4.93 5-8.13 9.88-9.41 14.73-4.4 16.63 5.61 35.16 28.95 53.6 38.74 30.59 110 59.14 200.69 80.39 109.94 25.76 212.24 25.38 248.74-.95" class="cls-10"/><path d="M538.44 168.24c7.32-5.13 11.5-11.21 12.4-18.07.51-3.81-.71-8.35-3.42-13.45a241 241 0 0 0-33.61-32.65 1.14 1.14 0 0 0-.44.22 1.27 1.27 0 0 0 0 1.74c10.8 10.81 16 19.95 15 26.45-.76 5.19-4 9.79-9.74 13.67-29.6 20.15-116.7 18.75-211.81-3.4-79.74-18.57-141.45-42.86-173.78-68.4-17.86-14.1-25.5-27.58-22.72-40.06 1.41-6.36 5.94-11.8 13.47-16.17a1.26 1.26 0 0 0 .53-1.6 1.34 1.34 0 0 0-.35-.46 188.39 188.39 0 0 0-27.73 13.06c-5.18 4.42-8.45 9.34-9.63 14.76-3.34 15.32 5.79 31.63 27.15 48.5 37.38 29.53 109.3 57.75 197.29 77.43 100.41 22.46 193.88 21.81 227.33-1.57" class="cls-10"/><path d="M520.12 148.25c6.3-4.3 9.95-9.49 10.82-15.41.94-6.4-2.89-14.43-11.35-23.94-2.55-2.17-5.07-4.35-7.71-6.44a429.57 429.57 0 0 0-38.31-26.85c-.15.1-.32.14-.42.29a1.26 1.26 0 0 0 .27 1.7c2.37 1.71 4.64 3.42 6.77 5.1 16.17 12.77 24.38 23.76 23.15 30.95-.76 4.33-3.56 8.13-8.32 11.3-25.16 16.73-103.24 14.47-189.88-5.47-68.28-15.74-124-37.85-153-60.7-15.14-12-21.91-23.45-19.56-33.23 1.59-6.67 7.76-12.05 18.37-16a1.28 1.28 0 0 0 .77-1.56 1.1 1.1 0 0 0-.25-.37 224.78 224.78 0 0 0-31.18 9.82c-6.79 4.52-11 9.91-12.46 16.26-3 13.5 4.95 27.83 23.64 42.58 32.62 25.77 94.67 50.23 174.75 68.89 95.76 22.3 183.7 23.54 213.83 3" class="cls-10"/><path d="M482.64 81.42a477.48 477.48 0 0 0-47.7-27.5c-.13.1-.28.15-.36.3a1.26 1.26 0 0 0 .33 1.59 1 1 0 0 0 .15.11 164 164 0 0 1 19.63 13.07c12.29 9.71 18.17 18.68 16.55 25.24-5.53 22.3-79.82 23.83-165.62 3.36-57.1-13.61-107.5-33.87-131.54-52.86-11.32-8.94-16.43-17.28-14.8-24.13 2.14-9 15.67-15.4 38.08-18.05a1.27 1.27 0 0 0 1.12-1.38 1.33 1.33 0 0 0-.25-.45 278.68 278.68 0 0 0-51.92 8.24c-9 4.12-14.56 9.43-16.13 16-2.58 10.82 4.49 23.2 20.46 35.81 29.2 23.07 85.32 45.37 154 61.17 88.62 20.48 165.75 22.48 191.81 5.14 5.37-3.56 8.53-7.93 9.4-13 1.76-10.21-11.44-23.26-23.21-32.68" class="cls-10"/><path d="M473.69 94.85c1.91-7.7-4.12-17.31-17.44-27.83-3.24-2.56-7-5.18-11.05-7.79a519.63 519.63 0 0 0-70.76-31.13c-.11.13-.27.19-.33.35a1.27 1.27 0 0 0 .41 1.44 1.23 1.23 0 0 0 .32.19c19.71 7.72 35.54 16.08 45.78 24.17 9.14 7.22 13.29 13.82 12 19.1-4.06 17-61.25 18-127.5 2.18-44.05-10.49-83.16-26.28-102.06-41.21-8.73-6.9-12.7-13.26-11.48-18.37 2.1-8.79 18.79-13.83 45.78-13.84a1.29 1.29 0 0 0 1.27-1.24c0-.18-.15-.29-.21-.45a345.69 345.69 0 0 0-51.62 1.27c-17.59 3.45-28 9.68-30 18.34-1.91 8 3.37 17 15.68 26.7 24.69 19.5 74.23 39.44 132.53 53.35 90.09 21.48 162.6 19.23 168.66-5.23" class="cls-10"/><path d="M435.1 73.93c1.54-6.39-2.81-13.68-12.91-21.66-7.33-5.8-17.61-11.77-29.94-17.5C337.36 13.04 278.61.49 224.18.04c-20.55 1.53-33 6.82-35 15.32-1.49 6.24 2.67 13.29 12.38 20.95 19.16 15.14 58.65 31.12 103 41.68 69.89 16.65 126 14.91 130.53-4.06M304.65 52.42c-29.47-7.15-55.13-17.4-67-26.76-4.9-3.87-7.14-7.35-6.48-10.07 2.2-9.07 35.68-11.24 82 0 28.44 6.9 53.68 17.17 65.87 26.8 5.29 4.18 7.71 7.9 7 10.76-2.1 8.64-33.83 10.82-81.43-.73" class="cls-10"/><path d="M388.53 53.73c1-4-1.69-8.45-7.89-13.35-12.46-9.84-38.08-20.29-66.85-27.26-39.27-9.54-81.83-11.45-85.06 1.85-.93 3.81 1.56 8.06 7.37 12.65 12.11 9.57 38.16 20 67.95 27.23 39.52 9.6 81.23 12.29 84.48-1.12m-34.94-13c-3.92 2.87-20.56 2.83-44.77-2.81-18.85-4.38-35.36-10.64-42.08-15.95-1.87-1.48-2.91-2.87-2.84-3.79a1.57 1.57 0 0 1 .8-1.16c4-2.95 21.17-3.09 45 2.45 18.31 4.26 34.63 10.56 41.59 16.06 2 1.6 3.14 3.08 3.06 4.07 0 .15-.05.61-.76 1.13" class="cls-10"/><path d="M356.88 39.83c.15-2-1.16-4-4-6.27-7.23-5.71-24-12.2-42.6-16.53-22.26-5.18-41.61-6-47.07-2a4 4 0 0 0-1.82 3c-.15 1.9 1.09 3.84 3.8 6 7 5.51 23.88 12 43.07 16.43 18.91 4.4 40.73 6.85 46.83 2.38a4.07 4.07 0 0 0 1.8-3" class="cls-10"/></g></g></g></svg>