<svg xmlns="http://www.w3.org/2000/svg" data-name="Telia Pebble Icon segments RGB x50" viewBox="0 0 581.44 506.29"><defs><style>.cls-1{fill:#ffd200}.cls-2{fill:#ffe164}.cls-3{fill:#af5aff}.cls-4{fill:#c0f}.cls-6{fill:#990ae3}.cls-9{fill:#fff}</style></defs><g data-name="29"><path d="M250.05 498.29c0-.15.11-.28.08-.42a1.22 1.22 0 0 0-.47-.8 1.25 1.25 0 0 0-.93-.24 331.49 331.49 0 0 1-118.71-6.92c-30.07-7.22-53.94-17.39-70.92-30.23a90.94 90.94 0 0 1-8-6.73l-.11-.09a1.27 1.27 0 0 0-1.6.06c-.13.11-.13.27-.2.4a119.34 119.34 0 0 0 23.75 24.53c37.4 28.28 102.77 36.21 177.08 20.44" class="cls-1"/><path d="M239.9 500.35a431.82 431.82 0 0 0 63.34-17 .91.91 0 0 0 0-.46c-.08-.28-.53-.08-.74-.23s-2 .16-2.44.26c-46.11 12.32-123.52 16.67-194.52-9-20.86-7.56-38.12-16.43-51.28-26.38A92.75 92.75 0 0 1 37.7 431.8a1.61 1.61 0 0 0-.23-.22 1.28 1.28 0 0 0-1.45-.05c-.14.09-.17.24-.25.35a165.56 165.56 0 0 0 16.45 25.33c1.73 1.52 3.4 3.08 5.29 4.5 17.27 13.06 41.45 23.37 71.86 30.67a335.51 335.51 0 0 0 110.48 8" class="cls-1"/><path d="M324.34 474.95a1.17 1.17 0 0 0-.42-.58 1.27 1.27 0 0 0-1.14-.21c-95 28.7-216.14 4.66-269.67-35.8-11.58-8.75-20.13-18.18-25.41-28a1.41 1.41 0 0 0-.35-.41 1.26 1.26 0 0 0-1.31-.14c-.17.08-.23.25-.34.38a220.9 220.9 0 0 0 12.1 25.35 96.66 96.66 0 0 0 15 14c13.37 10.11 30.84 19.1 51.95 26.74 66.84 24.19 140.69 21.17 188 10.55 10.44-3.37 21-7.15 31.57-11.43 0-.15.07-.29 0-.46" class="cls-1"/><path d="M370.72 453.34a296.89 296.89 0 0 1-63.45 19.42c-84.95 16.15-200.1-5.51-256.69-48.28-16.64-12.58-27.81-25.25-32.51-39.62a5.47 5.47 0 0 0-.69-1.39c-.31-.24-.14-.55-.54-.42-.19.05-.28.21-.4.33a281.41 281.41 0 0 0 11.65 32.35c5.52 8.68 13.29 16.95 23.49 24.66 52.79 39.9 170.46 63.84 265.14 38a496.14 496.14 0 0 0 54.88-25Z" class="cls-1"/><path d="M384.63 445.75a1.11 1.11 0 0 0-.36-.44 1.3 1.3 0 0 0-1.28-.16 298.35 298.35 0 0 1-64.23 20c-88.46 16.83-209.59-6.66-270-52.36-17.5-13.22-29-27.54-34.06-42.59a1.4 1.4 0 0 0-.44-.6 1.27 1.27 0 0 0-1.12-.21c-.17 0-.26.2-.4.31 1.86 7.43 4 14.62 6.24 21.63 5.73 12.42 15.65 24.25 30.11 35.18 58 43.88 171.68 65.3 258.69 48.75 20.57-3.91 38.68-10.53 55.36-17.51q10.8-5.48 21.57-11.59v-.4" class="cls-1"/><path d="M406.98 432.31a1.21 1.21 0 0 0-.34-.4 1.25 1.25 0 0 0-1.29-.15c-19.48 9-50.39 20.62-87 25.45-79.25 10.44-204.74-8.5-269.3-57.3-20.66-15.62-34.2-33.48-39.67-52.68a1.25 1.25 0 0 0-1.5-.89c-.09 0-.1.12-.16.16q2.75 14.77 6.48 28.76c5.9 14 16.78 27.28 33 39.54 60.94 46.07 183 69.77 272.06 52.84a300.8 300.8 0 0 0 58.64-17.68c9.76-5.34 19.49-11 29.16-17.18a1.07 1.07 0 0 0-.06-.47" class="cls-1"/><path d="M421.97 422.43a1.21 1.21 0 0 0-.34-.37 1.27 1.27 0 0 0-1.29-.16c-34 15.64-67.34 24.66-101.78 27.57-98.4 8.32-212.45-17.89-271.19-62.3-20.48-15.48-33.83-32.62-39.7-51a1.24 1.24 0 0 0-1.49-.83c-.14 0-.21.14-.33.22 1 6.12 2.05 12.18 3.27 18.13 6.48 17.62 19.31 33.79 38.37 48.2 65.07 49.19 191.43 68.3 271.17 57.79a309.75 309.75 0 0 0 82.42-23.3c7-4.33 14-8.83 20.94-13.58a.83.83 0 0 0 0-.41" class="cls-1"/><path d="M446.81 404.31a1.18 1.18 0 0 0-.29-.3 1.25 1.25 0 0 0-1.4-.08c-34.13 19.83-81.48 32.83-126.63 34.78-101.58 4.36-212.5-22.79-269.74-66.05-25.47-19.26-41.15-40.88-45.34-64.7a1.32 1.32 0 0 0-.49-.78 1.41 1.41 0 0 0-.68-.19c1.07 11.41 2.52 22.67 4.41 33.68 6.53 17.47 19 33.28 39.19 48.53 59.19 44.75 174 71.16 272.92 62.8 33.48-2.83 65.89-11.53 98.9-26.24q14.75-9.89 29.23-21.06a1.13 1.13 0 0 0-.08-.39" class="cls-1"/><path d="M457.73 395.68a1 1 0 0 0-.29-.31 1.29 1.29 0 0 0-1.35-.12c-32.83 17.21-72.3 33.24-138.29 34-106.55 1.14-212.07-25.85-268.81-68.74-24.74-18.7-40.16-40-45.85-63.17a1.28 1.28 0 0 0-1.43-.94c-.15 0-.25.15-.39.22.43 5.77.93 11.54 1.56 17.25 5.58 22.3 20.39 42.75 44.34 60.85 57.66 43.59 169.26 71 271.37 66.56 43.86-1.88 89.65-14.18 123.76-33q7.8-5.88 15.49-12.11a1.24 1.24 0 0 0-.11-.47" class="cls-1"/><path d="M479.43 377.02a1.13 1.13 0 0 0-.24-.25 1.28 1.28 0 0 0-1.44-.06c-44.09 27.8-96.48 40.74-160.14 39.58-109.09-2-212-29.85-268.66-72.65-25.74-19.51-41.53-41.51-46.88-65.65a1.26 1.26 0 0 0-.48-.73 1.21 1.21 0 0 0-.92-.24c-.14 0-.23.12-.35.17q.41 12.06 1.38 24.05c6.51 22.58 21.8 43.14 45.76 61.25 57.16 43.2 163.29 70.38 270.37 69.24 64.25-.68 103.58-15.79 136-32.49q13-10.36 25.67-21.83c0-.14 0-.27-.11-.39" class="cls-1"/><path d="M489.11 368.06a1.09 1.09 0 0 0-.24-.24 1.27 1.27 0 0 0-1.42-.08c-44.34 27-101.4 39.48-169.6 37-85.42-3.07-200.7-24.51-268-75.42-26.28-19.87-42.45-42.35-48-66.85a1.22 1.22 0 0 0-.48-.72 1.21 1.21 0 0 0-.91-.25c-.14 0-.23.13-.35.19 0 6.61.14 13.21.42 19.8 6.15 23.66 21.86 45.18 47 64.17 57 43.1 160.55 71.13 270.15 73.14 62.73 1.15 114.6-11.43 158.48-38.21q6.66-5.91 13.2-12.1a1.33 1.33 0 0 0-.14-.44" class="cls-2"/><path d="M505.37 351.99a1 1 0 0 0-.21-.21 1.28 1.28 0 0 0-1.44-.06c-49.28 31.18-112.4 44.4-187.6 39.29-112.91-7.66-209.26-35.88-264.25-77.48-28.06-21.21-44.82-45.37-49.82-71.81a1.26 1.26 0 0 0-.48-.78 1.29 1.29 0 0 0-.86-.25c-.14 0-.23.12-.35.16-.3 8.18-.43 16.39-.33 24.61 6.29 24.3 22.43 46.38 48.24 65.89 67.82 51.26 183.67 72.83 269.49 75.93 67.4 2.44 124-9.71 168.38-35.93 6.53-6.12 13-12.37 19.37-18.92a1 1 0 0 0-.14-.44" class="cls-1"/><path d="M516.52 340.13a1 1 0 0 0-.19-.17 1.26 1.26 0 0 0-1.51 0c-42.11 30.8-112.7 44.49-198.79 38.54-105.7-7.29-210.05-39.26-265.87-81.45-27.9-21.08-43.86-44.17-47.46-68.62a1.26 1.26 0 0 0-.48-.83 1.21 1.21 0 0 0-.81-.25c-.15 0-.24.11-.36.15q-.56 8.61-.81 17.28c5.77 26.21 22.54 49.94 50.11 70.78 55.37 41.86 152.19 70.3 265.6 78 74.59 5.06 137.37-7.9 186.79-38.35 4.7-4.77 9.33-9.69 13.92-14.7a1.18 1.18 0 0 0-.14-.37" class="cls-2"/><path d="M535.49 318.68a1.34 1.34 0 0 0-.32-.35 1.23 1.23 0 0 0-.57-.23 1.25 1.25 0 0 0-1 .3c-43.1 37.92-124.82 54.43-218.61 44.15-116.2-12.73-209-41.53-261.36-81.1-28.9-21.85-45.44-46.72-49.15-73.94a1.25 1.25 0 0 0-1.26-1.08c-.16 0-.28.1-.42.16-.87 8.18-1.5 16.49-2 24.84 4.49 24.28 20.48 47 47.82 67.62 56.17 42.47 161.07 74.65 267.22 82 84.84 5.85 154.76-7.35 197.62-37.1 7.51-8.06 14.9-16.35 22.09-25.06 0-.05 0-.11-.07-.17" class="cls-2"/><path d="M544.91 307.06c-.07-.13-.07-.27-.18-.38l-.1-.08a1.24 1.24 0 0 0-1.6.07c-43.82 39.26-124.82 54.46-228.13 42.75-111.57-12.63-206.71-43.4-261-84.46-27.65-20.9-43.89-43.58-48.28-67.39a1.27 1.27 0 0 0-.49-.79 1.29 1.29 0 0 0-.8-.25c-.11 0-.19.09-.3.12-.59 4.48-1.1 9-1.56 13.51 4.48 27.16 21.09 51.73 49.64 73.32 52.69 39.82 146 68.8 262.61 81.58 92.45 10.14 173.26-5.72 217.57-42.35q6.42-7.67 12.65-15.65" class="cls-3"/><path d="M560.15 285.9c-.07-.14-.1-.31-.23-.41a1.26 1.26 0 0 0-1.71.18c-37.91 43.71-131.39 61.71-243.95 47-113.29-14.87-204.9-45.14-258-85.26-29.14-22-45.11-45.83-47.44-70.75a1.31 1.31 0 0 0-.51-.9 1.42 1.42 0 0 0-.7-.26 1.28 1.28 0 0 0-.39.13c-1.43 8-2.62 16.15-3.63 24.43 5 23.73 21.36 46.27 48.77 67 54.67 41.32 150.26 72.29 262.28 85 101.95 11.52 182.38-3.12 227.32-41.13 2.91-3.66 5.85-7.26 8.7-11 3.52-4.65 6.62-9.28 9.5-13.89" class="cls-4"/><path d="M557.12 290.33a167.09 167.09 0 0 0 11.6-19.82 1.13 1.13 0 0 0-.24-.36l-.09-.07a1.25 1.25 0 0 0-1.67.29c-36.18 46-126.23 62.48-253.59 46.36-108.74-13.76-201.51-44.65-254.55-84.74-29.26-22.12-45-45.87-46.78-70.6a1.27 1.27 0 0 0-.5-.92 1.23 1.23 0 0 0-.67-.26c-.13 0-.24.08-.36.11-1.33 6.08-2.57 12.27-3.65 18.6 3.08 24.89 19.18 48.59 48.1 70.45 53.42 40.38 145.47 70.83 259.18 85.73 110.72 14.52 203.12-2.67 243.22-44.77" class="cls-4"/><path d="M566.76 274.13a136 136 0 0 0 10.7-27.4 1 1 0 0 0-.31-.17 1.27 1.27 0 0 0-1.59.61c-26.32 52.77-129.9 73.11-263.87 51.82-111-17.65-200-48.44-250.57-86.7-30.44-23-45.23-47.25-44-72.07a1.26 1.26 0 0 0-.51-1.07 1.36 1.36 0 0 0-.56-.25 1.29 1.29 0 0 0-.42.1 349.31 349.31 0 0 0-6.11 24.5c2.49 24.81 18.38 48.53 47.5 70.53 53.38 40.35 146.6 71.41 255.76 85.24 126.18 16 216.06-.1 254-45.13" class="cls-1"/><path d="M576.36 250.68a116.33 116.33 0 0 0 4.09-19s0-.11-.06-.14a1 1 0 0 0-.35-.19 1.27 1.27 0 0 0-1.54.61c-26.86 52.17-126.16 70.52-265.63 49.17-107.44-16.46-198.25-47.94-249.13-86.39-27.53-20.85-42.22-42.61-43.53-64.78a1.25 1.25 0 0 0-.49-.93 1.36 1.36 0 0 0-.62-.25c-.1 0-.17.05-.27.06q-2.14 6.62-4.06 13.51c-.25 25.09 14.74 49.19 44.84 71.94 50.95 38.51 140.34 69.48 251.71 87.18 133 21.14 236.31 1.16 265.08-50.79" class="cls-1"/><path d="M3711.87 451.11a111 111 0 0 0 1.34-18.4 1.18 1.18 0 0 0-.4-.17 1.27 1.27 0 0 0-1.38.95c-12.9 50.39-131.43 71.31-269.83 47.64-103.3-17.67-190.77-49.14-240-86.35-32.06-24.24-45.93-49.42-40.09-72.83a1.25 1.25 0 0 0-.82-1.5 1.14 1.14 0 0 0-.45 0 256.3 256.3 0 0 0-10.57 28.11c2 22.35 16.81 44.23 44.35 65.05 51.2 38.69 142.41 70.36 250.26 86.87 139.61 21.37 239.38 2.88 267.6-49.39" style="fill:#93f" transform="translate(-3131.79 -216.87)"/><path d="M581.35 219.55a108.28 108.28 0 0 0-1-17.14 1.2 1.2 0 0 0-.39-.13 1.28 1.28 0 0 0-1.27 1c-8.84 50.4-121.91 68.41-268.88 42.82-101.94-17.73-187.95-48.72-236-85-28.79-21.77-42.19-44.65-38.74-66.14.1-.59.21-1.17.33-1.76a1.41 1.41 0 0 0-.5-1.38.82.82 0 0 0-.74-.17c-2.59 4.89-5 10.08-7.34 15.49-4.4 23.82 9.73 48.83 41.39 72.77 49.54 37.44 137.41 69.09 241.1 86.82 137.6 23.54 255.78 2.78 272-47.2" class="cls-6"/><path d="M580.74 205.74a113 113 0 0 0-3.87-20.11 1.53 1.53 0 0 0-.46-.14 1.29 1.29 0 0 0-1.18 1.07c-1.58 10.3-7.81 19.41-18.48 27.08-38 27.33-126.33 33.12-230.53 15.11-106.29-18.37-198.39-51-246.39-87.28-25.8-19.49-37.39-38.67-34.45-57a45.74 45.74 0 0 1 5.38-15 1.28 1.28 0 0 0-.35-1.63l-.07-.05c-.11-.08-.25 0-.38-.08-.93 1.15-1.94 2.24-2.83 3.42a157.1 157.1 0 0 0-14.51 23.74c-3.44 22.41 10.27 46 39.73 68.27 48.34 36.54 134.74 67.71 237.07 85.51 146.48 25.49 259.67 7.42 271.32-42.9" class="cls-6"/><path d="M558.26 215.68c10.89-7.83 17.28-17.18 19.21-27.73a122.64 122.64 0 0 0-6.32-17.52c-.12 0-.22-.11-.34-.08a1.25 1.25 0 0 0-1 1.21c0 .72-.06 1.41-.12 2.1-1 9.12-6.19 17.17-15.46 23.94-37.72 27.57-139.11 31.53-246.59 9.65-95.68-19.48-178.23-50.33-220.8-82.5-24.59-18.59-35.3-36.82-31.81-54.2.85-4.24 3.18-8.83 6.91-13.59a1.26 1.26 0 0 0-.16-1.73l-.08-.06c-.09-.07-.21-.06-.31-.1a149.49 149.49 0 0 0-14 15.72 47.81 47.81 0 0 0-4.52 13.28c-3.1 19.32 8.82 39.31 35.42 59.42 48.31 36.52 140.83 69.32 247.5 87.76 104.87 18.12 193.94 12.16 232.46-15.57" class="cls-6"/><path d="M555.7 199.65c9.87-7.22 15.41-15.87 16.48-25.72 0-.39.05-.8.07-1.18a149.32 149.32 0 0 0-15.77-27.92c-.18 0-.36-.13-.52 0a1.28 1.28 0 0 0-.49 1.66c2.38 4.74 3.49 8.62 3.28 11.53-.53 7.47-4.64 14.16-12.21 19.87-34.85 26.26-138.56 28.69-246.61 5.79-89.44-19-162.84-46.54-201.36-75.65-22.86-17.28-32.94-34.69-29.16-50.35 1.32-5.45 5.22-11.13 11.59-16.9 1.21-.88 2.44-1.73 3.68-2.58a1.26 1.26 0 0 0 .33-1.76 1.1 1.1 0 0 0-.28-.29c-.05-.05-.14 0-.2 0a156.43 156.43 0 0 0-26.66 22.48c-2.65 4-4.62 7.83-5.35 11.45-3.69 18.42 7.34 37.49 32.77 56.71 42.86 32.4 125.79 63.42 221.82 83 108.13 22 210.34 17.87 248.59-10.08" class="cls-3"/><path d="M548.06 179.89c8.18-6.16 12.64-13.48 13.22-21.71.19-2.61-.51-5.79-2-9.51a184.4 184.4 0 0 0-17.81-22.54c-.24 0-.47-.15-.67 0a1.27 1.27 0 0 0-.27 1.7c4 6 5.77 11 5.32 15.09-.67 6.15-4.37 11.72-11 16.55-32.4 23.72-125 26.17-225.24 6-88-17.73-160.16-44.26-197.88-72.77-20.56-15.54-30-31.24-27.21-45.39 1.19-6.1 5.27-11.66 12.11-16.53a1.26 1.26 0 0 0 .32-1.71 1.17 1.17 0 0 0-.3-.33h-.07a167.77 167.77 0 0 0-20.53 13.39c-4.82 5.06-7.92 10.05-9.1 14.93-4 16.71 6.36 35 30.09 53 39.38 29.77 111.25 56.79 202.36 76.11 110.46 23.41 212.73 20.85 248.66-6.25" class="cls-3"/><path d="M536.35 161.51c7.21-5.28 11.26-11.44 12-18.32.42-3.82-.89-8.34-3.71-13.38a240.7 240.7 0 0 0-34.3-31.93c-.15.08-.31.1-.43.24a1.27 1.27 0 0 0 .07 1.74c11 10.57 16.41 19.6 15.59 26.11-.66 5.21-3.83 9.88-9.45 13.88-29.16 20.78-116.28 21.24-211.84 1.11-80.07-16.83-142.3-39.83-175.17-64.68-18.16-13.72-26.08-27-23.57-39.57 1.27-6.39 5.69-11.93 13.13-16.45a1.27 1.27 0 0 0 .49-1.62 1.46 1.46 0 0 0-.36-.45 188.69 188.69 0 0 0-27.45 13.65c-5.08 4.52-8.25 9.52-9.31 15-3 15.39 6.46 31.5 28.17 47.91 38 28.73 110.51 55.41 198.9 73.22 100.86 20.31 194.3 17.67 227.24-6.42" class="cls-3"/><path d="M517.61 141.92c6.21-4.43 9.74-9.7 10.49-15.64.81-6.41-3.2-14.36-11.86-23.69-2.59-2.11-5.15-4.24-7.84-6.27a429.14 429.14 0 0 0-38.87-26c-.15.11-.32.15-.41.31a1.25 1.25 0 0 0 .29 1.69c2.41 1.66 4.71 3.32 6.87 4.95 16.44 12.43 24.89 23.24 23.81 30.46-.66 4.34-3.38 8.2-8.07 11.47-24.8 17.26-102.91 16.67-190-1.43-68.6-14.28-124.81-35.2-154.22-57.43-15.39-11.63-22.4-23-20.26-32.81 1.45-6.7 7.51-12.21 18-16.37a1.26 1.26 0 0 0 .74-1.57 1.16 1.16 0 0 0-.25-.36 223.12 223.12 0 0 0-31 10.48c-6.69 4.66-10.82 10.15-12.11 16.52-2.71 13.56 5.54 27.72 24.54 42.07 33.16 25.07 95.72 48.21 176.18 65.15 96.21 20.26 184.15 19.63 213.84-1.52" class="cls-3"/><path d="M478.72 75.93a478.45 478.45 0 0 0-48.27-26.49c-.13.11-.28.16-.36.31a1.28 1.28 0 0 0 .36 1.59l.15.1a164.23 164.23 0 0 1 19.91 12.69c12.49 9.45 18.57 18.29 17.09 24.88-5.06 22.42-79.3 25.52-165.52 6.88-57.37-12.38-108.19-31.57-132.63-50-11.51-8.7-16.8-16.93-15.31-23.81 2-9 15.34-15.73 37.69-18.86a1.25 1.25 0 0 0 1.08-1.4 1.2 1.2 0 0 0-.25-.44 278.2 278.2 0 0 0-51.74 9.34c-8.93 4.31-14.35 9.73-15.79 16.35-2.34 10.87 5 23.1 21.22 35.37 29.69 22.44 86.28 43.54 155.24 57.88 89.06 18.52 166.19 18.93 191.91 1 5.29-3.68 8.36-8.11 9.12-13.16 1.55-10.24-11.93-23-23.9-32.17" class="cls-2"/><path d="M470.06 89.52c1.74-7.74-4.49-17.22-18-27.46-3.29-2.48-7.12-5-11.22-7.54a519.78 519.78 0 0 0-71.4-29.62c-.11.13-.26.2-.32.36a1.26 1.26 0 0 0 .43 1.43 1.48 1.48 0 0 0 .33.18c19.87 7.3 35.87 15.32 46.29 23.19 9.28 7 13.58 13.54 12.43 18.84-3.7 17.06-60.86 19.26-127.43 4.9-44.26-9.56-83.69-24.51-102.91-39-8.87-6.7-13-13-11.87-18.12 1.92-8.83 18.49-14.22 45.48-14.81A1.28 1.28 0 0 0 233.11.6c0-.18-.15-.28-.22-.44a345.29 345.29 0 0 0-51.58 2.37c-17.51 3.82-27.73 10.27-29.62 19-1.73 8 3.73 16.9 16.25 26.36 25.1 19 75.05 37.86 133.64 50.52 90.53 19.55 163 15.76 168.51-8.82" class="cls-1"/><path d="M431.04 69.43c1.4-6.42-3.11-13.62-13.38-21.39-7.45-5.63-17.85-11.39-30.31-16.86C332.01 10.64 273.01-.66 218.59.04c-20.52 2-32.85 7.52-34.7 16.07-1.36 6.27 3 13.22 12.82 20.68 19.48 14.73 59.3 29.86 103.91 39.48 70.22 15.15 126.29 12.22 130.42-6.84M300.15 50.68c-29.62-6.52-55.49-16.23-67.53-25.33-5-3.77-7.3-7.2-6.7-9.93 2-9.12 35.44-12 82-1.74 28.59 6.29 54 16 66.43 25.39 5.38 4.06 7.88 7.73 7.24 10.61-1.91 8.68-33.58 11.53-81.42 1" class="cls-2"/><path d="M384.05 50.22c.87-4-1.88-8.41-8.18-13.17-12.67-9.58-38.51-19.48-67.42-25.84-39.46-8.7-82-9.7-85 3.66-.85 3.83 1.73 8 7.64 12.5 12.31 9.3 38.57 19.19 68.52 25.77 39.71 8.76 81.46 10.56 84.44-2.92m-35.22-12.23c-3.86 2.95-20.5 3.27-44.81-1.86-18.95-4-35.59-9.89-42.42-15.05-1.9-1.44-3-2.8-2.92-3.73a1.59 1.59 0 0 1 .78-1.17c4-3 21.1-3.54 45 1.49 18.4 3.87 34.85 9.82 41.93 15.17 2.06 1.56 3.2 3 3.14 4 0 .15 0 .6-.74 1.14" class="cls-2"/><path d="M352.1 37c.11-2-1.24-4-4.14-6.18-7.35-5.56-24.21-11.69-42.95-15.63-22.36-4.7-41.73-5.13-47.09-1a4 4 0 0 0-1.76 3c-.11 1.91 1.17 3.83 3.92 5.91 7.09 5.36 24.14 11.45 43.41 15.51 19 4 40.88 6 46.88 1.38a4.05 4.05 0 0 0 1.73-3" class="cls-1"/><g style="mask:url(#mask)"><g style="opacity:.3"><path d="M250.05 498.29c0-.15.11-.28.08-.42a1.22 1.22 0 0 0-.47-.8 1.25 1.25 0 0 0-.93-.24 331.49 331.49 0 0 1-118.71-6.92c-30.07-7.22-53.94-17.39-70.92-30.23a90.94 90.94 0 0 1-8-6.73l-.11-.09a1.27 1.27 0 0 0-1.6.06c-.13.11-.13.27-.2.4a119.34 119.34 0 0 0 23.75 24.53c37.4 28.28 102.77 36.21 177.08 20.44" class="cls-9"/><path d="M239.9 500.35a431.82 431.82 0 0 0 63.34-17 .91.91 0 0 0 0-.46c-.08-.28-.53-.08-.74-.23s-2 .16-2.44.26c-46.11 12.32-123.52 16.67-194.52-9-20.86-7.56-38.12-16.43-51.28-26.38A92.75 92.75 0 0 1 37.7 431.8a1.61 1.61 0 0 0-.23-.22 1.28 1.28 0 0 0-1.45-.05c-.14.09-.17.24-.25.35a165.56 165.56 0 0 0 16.45 25.33c1.73 1.52 3.4 3.08 5.29 4.5 17.27 13.06 41.45 23.37 71.86 30.67a335.51 335.51 0 0 0 110.48 8" class="cls-9"/><path d="M324.34 474.95a1.17 1.17 0 0 0-.42-.58 1.27 1.27 0 0 0-1.14-.21c-95 28.7-216.14 4.66-269.67-35.8-11.58-8.75-20.13-18.18-25.41-28a1.41 1.41 0 0 0-.35-.41 1.26 1.26 0 0 0-1.31-.14c-.17.08-.23.25-.34.38a220.9 220.9 0 0 0 12.1 25.35 96.66 96.66 0 0 0 15 14c13.37 10.11 30.84 19.1 51.95 26.74 66.84 24.19 140.69 21.17 188 10.55 10.44-3.37 21-7.15 31.57-11.43 0-.15.07-.29 0-.46" class="cls-9"/><path d="M370.72 453.34a296.89 296.89 0 0 1-63.45 19.42c-84.95 16.15-200.1-5.51-256.69-48.28-16.64-12.58-27.81-25.25-32.51-39.62a5.47 5.47 0 0 0-.69-1.39c-.31-.24-.14-.55-.54-.42-.19.05-.28.21-.4.33a281.41 281.41 0 0 0 11.65 32.35c5.52 8.68 13.29 16.95 23.49 24.66 52.79 39.9 170.46 63.84 265.14 38a496.14 496.14 0 0 0 54.88-25Z" class="cls-9"/><path d="M384.63 445.75a1.11 1.11 0 0 0-.36-.44 1.3 1.3 0 0 0-1.28-.16 298.35 298.35 0 0 1-64.23 20c-88.46 16.83-209.59-6.66-270-52.36-17.5-13.22-29-27.54-34.06-42.59a1.4 1.4 0 0 0-.44-.6 1.27 1.27 0 0 0-1.12-.21c-.17 0-.26.2-.4.31 1.86 7.43 4 14.62 6.24 21.63 5.73 12.42 15.65 24.25 30.11 35.18 58 43.88 171.68 65.3 258.69 48.75 20.57-3.91 38.68-10.53 55.36-17.51q10.8-5.48 21.57-11.59v-.4" class="cls-9"/><path d="M406.98 432.31a1.21 1.21 0 0 0-.34-.4 1.25 1.25 0 0 0-1.29-.15c-19.48 9-50.39 20.62-87 25.45-79.25 10.44-204.74-8.5-269.3-57.3-20.66-15.62-34.2-33.48-39.67-52.68a1.25 1.25 0 0 0-1.5-.89c-.09 0-.1.12-.16.16q2.75 14.77 6.48 28.76c5.9 14 16.78 27.28 33 39.54 60.94 46.07 183 69.77 272.06 52.84a300.8 300.8 0 0 0 58.64-17.68c9.76-5.34 19.49-11 29.16-17.18a1.07 1.07 0 0 0-.06-.47" class="cls-9"/><path d="M421.97 422.43a1.21 1.21 0 0 0-.34-.37 1.27 1.27 0 0 0-1.29-.16c-34 15.64-67.34 24.66-101.78 27.57-98.4 8.32-212.45-17.89-271.19-62.3-20.48-15.48-33.83-32.62-39.7-51a1.24 1.24 0 0 0-1.49-.83c-.14 0-.21.14-.33.22 1 6.12 2.05 12.18 3.27 18.13 6.48 17.62 19.31 33.79 38.37 48.2 65.07 49.19 191.43 68.3 271.17 57.79a309.75 309.75 0 0 0 82.42-23.3c7-4.33 14-8.83 20.94-13.58a.83.83 0 0 0 0-.41" class="cls-9"/><path d="M446.81 404.31a1.18 1.18 0 0 0-.29-.3 1.25 1.25 0 0 0-1.4-.08c-34.13 19.83-81.48 32.83-126.63 34.78-101.58 4.36-212.5-22.79-269.74-66.05-25.47-19.26-41.15-40.88-45.34-64.7a1.32 1.32 0 0 0-.49-.78 1.41 1.41 0 0 0-.68-.19c1.07 11.41 2.52 22.67 4.41 33.68 6.53 17.47 19 33.28 39.19 48.53 59.19 44.75 174 71.16 272.92 62.8 33.48-2.83 65.89-11.53 98.9-26.24q14.75-9.89 29.23-21.06a1.13 1.13 0 0 0-.08-.39" class="cls-9"/><path d="M457.73 395.68a1 1 0 0 0-.29-.31 1.29 1.29 0 0 0-1.35-.12c-32.83 17.21-72.3 33.24-138.29 34-106.55 1.14-212.07-25.85-268.81-68.74-24.74-18.7-40.16-40-45.85-63.17a1.28 1.28 0 0 0-1.43-.94c-.15 0-.25.15-.39.22.43 5.77.93 11.54 1.56 17.25 5.58 22.3 20.39 42.75 44.34 60.85 57.66 43.59 169.26 71 271.37 66.56 43.86-1.88 89.65-14.18 123.76-33q7.8-5.88 15.49-12.11a1.24 1.24 0 0 0-.11-.47" class="cls-9"/><path d="M479.43 377.02a1.13 1.13 0 0 0-.24-.25 1.28 1.28 0 0 0-1.44-.06c-44.09 27.8-96.48 40.74-160.14 39.58-109.09-2-212-29.85-268.66-72.65-25.74-19.51-41.53-41.51-46.88-65.65a1.26 1.26 0 0 0-.48-.73 1.21 1.21 0 0 0-.92-.24c-.14 0-.23.12-.35.17q.41 12.06 1.38 24.05c6.51 22.58 21.8 43.14 45.76 61.25 57.16 43.2 163.29 70.38 270.37 69.24 64.25-.68 103.58-15.79 136-32.49q13-10.36 25.67-21.83c0-.14 0-.27-.11-.39" class="cls-9"/><path d="M489.11 368.06a1.09 1.09 0 0 0-.24-.24 1.27 1.27 0 0 0-1.42-.08c-44.34 27-101.4 39.48-169.6 37-85.42-3.07-200.7-24.51-268-75.42-26.28-19.87-42.45-42.35-48-66.85a1.22 1.22 0 0 0-.48-.72 1.21 1.21 0 0 0-.91-.25c-.14 0-.23.13-.35.19 0 6.61.14 13.21.42 19.8 6.15 23.66 21.86 45.18 47 64.17 57 43.1 160.55 71.13 270.15 73.14 62.73 1.15 114.6-11.43 158.48-38.21q6.66-5.91 13.2-12.1a1.33 1.33 0 0 0-.14-.44" class="cls-9"/><path d="M505.37 351.99a1 1 0 0 0-.21-.21 1.28 1.28 0 0 0-1.44-.06c-49.28 31.18-112.4 44.4-187.6 39.29-112.91-7.66-209.26-35.88-264.25-77.48-28.06-21.21-44.82-45.37-49.82-71.81a1.26 1.26 0 0 0-.48-.78 1.29 1.29 0 0 0-.86-.25c-.14 0-.23.12-.35.16-.3 8.18-.43 16.39-.33 24.61 6.29 24.3 22.43 46.38 48.24 65.89 67.82 51.26 183.67 72.83 269.49 75.93 67.4 2.44 124-9.71 168.38-35.93 6.53-6.12 13-12.37 19.37-18.92a1 1 0 0 0-.14-.44" class="cls-9"/><path d="M516.52 340.13a1 1 0 0 0-.19-.17 1.26 1.26 0 0 0-1.51 0c-42.11 30.8-112.7 44.49-198.79 38.54-105.7-7.29-210.05-39.26-265.87-81.45-27.9-21.08-43.86-44.17-47.46-68.62a1.26 1.26 0 0 0-.48-.83 1.21 1.21 0 0 0-.81-.25c-.15 0-.24.11-.36.15q-.56 8.61-.81 17.28c5.77 26.21 22.54 49.94 50.11 70.78 55.37 41.86 152.19 70.3 265.6 78 74.59 5.06 137.37-7.9 186.79-38.35 4.7-4.77 9.33-9.69 13.92-14.7a1.18 1.18 0 0 0-.14-.37" class="cls-9"/><path d="M535.49 318.68a1.34 1.34 0 0 0-.32-.35 1.23 1.23 0 0 0-.57-.23 1.25 1.25 0 0 0-1 .3c-43.1 37.92-124.82 54.43-218.61 44.15-116.2-12.73-209-41.53-261.36-81.1-28.9-21.85-45.44-46.72-49.15-73.94a1.25 1.25 0 0 0-1.26-1.08c-.16 0-.28.1-.42.16-.87 8.18-1.5 16.49-2 24.84 4.49 24.28 20.48 47 47.82 67.62 56.17 42.47 161.07 74.65 267.22 82 84.84 5.85 154.76-7.35 197.62-37.1 7.51-8.06 14.9-16.35 22.09-25.06 0-.05 0-.11-.07-.17" class="cls-9"/><path d="M544.91 307.06c-.07-.13-.07-.27-.18-.38l-.1-.08a1.24 1.24 0 0 0-1.6.07c-43.82 39.26-124.82 54.46-228.13 42.75-111.57-12.63-206.71-43.4-261-84.46-27.65-20.9-43.89-43.58-48.28-67.39a1.27 1.27 0 0 0-.49-.79 1.29 1.29 0 0 0-.8-.25c-.11 0-.19.09-.3.12-.59 4.48-1.1 9-1.56 13.51 4.48 27.16 21.09 51.73 49.64 73.32 52.69 39.82 146 68.8 262.61 81.58 92.45 10.14 173.26-5.72 217.57-42.35q6.42-7.67 12.65-15.65" class="cls-9"/><path d="M560.15 285.9c-.07-.14-.1-.31-.23-.41a1.26 1.26 0 0 0-1.71.18c-37.91 43.71-131.39 61.71-243.95 47-113.29-14.87-204.9-45.14-258-85.26-29.14-22-45.11-45.83-47.44-70.75a1.31 1.31 0 0 0-.51-.9 1.42 1.42 0 0 0-.7-.26 1.28 1.28 0 0 0-.39.13c-1.43 8-2.62 16.15-3.63 24.43 5 23.73 21.36 46.27 48.77 67 54.67 41.32 150.26 72.29 262.28 85 101.95 11.52 182.38-3.12 227.32-41.13 2.91-3.66 5.85-7.26 8.7-11 3.52-4.65 6.62-9.28 9.5-13.89" class="cls-9"/><path d="M557.12 290.33a167.09 167.09 0 0 0 11.6-19.82 1.13 1.13 0 0 0-.24-.36l-.09-.07a1.25 1.25 0 0 0-1.67.29c-36.18 46-126.23 62.48-253.59 46.36-108.74-13.76-201.51-44.65-254.55-84.74-29.26-22.12-45-45.87-46.78-70.6a1.27 1.27 0 0 0-.5-.92 1.23 1.23 0 0 0-.67-.26c-.13 0-.24.08-.36.11-1.33 6.08-2.57 12.27-3.65 18.6 3.08 24.89 19.18 48.59 48.1 70.45 53.42 40.38 145.47 70.83 259.18 85.73 110.72 14.52 203.12-2.67 243.22-44.77" class="cls-9"/><path d="M566.76 274.13a136 136 0 0 0 10.7-27.4 1 1 0 0 0-.31-.17 1.27 1.27 0 0 0-1.59.61c-26.32 52.77-129.9 73.11-263.87 51.82-111-17.65-200-48.44-250.57-86.7-30.44-23-45.23-47.25-44-72.07a1.26 1.26 0 0 0-.51-1.07 1.36 1.36 0 0 0-.56-.25 1.29 1.29 0 0 0-.42.1 349.31 349.31 0 0 0-6.11 24.5c2.49 24.81 18.38 48.53 47.5 70.53 53.38 40.35 146.6 71.41 255.76 85.24 126.18 16 216.06-.1 254-45.13" class="cls-9"/><path d="M576.36 250.68a116.33 116.33 0 0 0 4.09-19s0-.11-.06-.14a1 1 0 0 0-.35-.19 1.27 1.27 0 0 0-1.54.61c-26.86 52.17-126.16 70.52-265.63 49.17-107.44-16.46-198.25-47.94-249.13-86.39-27.53-20.85-42.22-42.61-43.53-64.78a1.25 1.25 0 0 0-.49-.93 1.36 1.36 0 0 0-.62-.25c-.1 0-.17.05-.27.06q-2.14 6.62-4.06 13.51c-.25 25.09 14.74 49.19 44.84 71.94 50.95 38.51 140.34 69.48 251.71 87.18 133 21.14 236.31 1.16 265.08-50.79" class="cls-9"/><path d="M580.08 234.24a111 111 0 0 0 1.34-18.4 1.18 1.18 0 0 0-.4-.17 1.27 1.27 0 0 0-1.38.95c-12.9 50.39-131.43 71.31-269.83 47.64-103.3-17.67-190.77-49.14-240-86.35-32.06-24.24-45.93-49.42-40.09-72.83a1.25 1.25 0 0 0-.82-1.5 1.14 1.14 0 0 0-.45 0 256.3 256.3 0 0 0-10.57 28.11c2 22.35 16.81 44.23 44.35 65.05 51.2 38.69 142.41 70.36 250.26 86.87 139.61 21.37 239.38 2.88 267.6-49.39" class="cls-9"/><path d="M581.35 219.55a108.28 108.28 0 0 0-1-17.14 1.2 1.2 0 0 0-.39-.13 1.28 1.28 0 0 0-1.27 1c-8.84 50.4-121.91 68.41-268.88 42.82-101.94-17.73-187.95-48.72-236-85-28.79-21.77-42.19-44.65-38.74-66.14.1-.59.21-1.17.33-1.76a1.41 1.41 0 0 0-.5-1.38.82.82 0 0 0-.74-.17c-2.59 4.89-5 10.08-7.34 15.49-4.4 23.82 9.73 48.83 41.39 72.77 49.54 37.44 137.41 69.09 241.1 86.82 137.6 23.54 255.78 2.78 272-47.2" class="cls-9"/><path d="M580.74 205.74a113 113 0 0 0-3.87-20.11 1.53 1.53 0 0 0-.46-.14 1.29 1.29 0 0 0-1.18 1.07c-1.58 10.3-7.81 19.41-18.48 27.08-38 27.33-126.33 33.12-230.53 15.11-106.29-18.37-198.39-51-246.39-87.28-25.8-19.49-37.39-38.67-34.45-57a45.74 45.74 0 0 1 5.38-15 1.28 1.28 0 0 0-.35-1.63l-.07-.05c-.11-.08-.25 0-.38-.08-.93 1.15-1.94 2.24-2.83 3.42a157.1 157.1 0 0 0-14.51 23.74c-3.44 22.41 10.27 46 39.73 68.27 48.34 36.54 134.74 67.71 237.07 85.51 146.48 25.49 259.67 7.42 271.32-42.9" class="cls-9"/><path d="M558.26 215.68c10.89-7.83 17.28-17.18 19.21-27.73a122.64 122.64 0 0 0-6.32-17.52c-.12 0-.22-.11-.34-.08a1.25 1.25 0 0 0-1 1.21c0 .72-.06 1.41-.12 2.1-1 9.12-6.19 17.17-15.46 23.94-37.72 27.57-139.11 31.53-246.59 9.65-95.68-19.48-178.23-50.33-220.8-82.5-24.59-18.59-35.3-36.82-31.81-54.2.85-4.24 3.18-8.83 6.91-13.59a1.26 1.26 0 0 0-.16-1.73l-.08-.06c-.09-.07-.21-.06-.31-.1a149.49 149.49 0 0 0-14 15.72 47.81 47.81 0 0 0-4.52 13.28c-3.1 19.32 8.82 39.31 35.42 59.42 48.31 36.52 140.83 69.32 247.5 87.76 104.87 18.12 193.94 12.16 232.46-15.57" class="cls-9"/><path d="M555.7 199.65c9.87-7.22 15.41-15.87 16.48-25.72 0-.39.05-.8.07-1.18a149.32 149.32 0 0 0-15.77-27.92c-.18 0-.36-.13-.52 0a1.28 1.28 0 0 0-.49 1.66c2.38 4.74 3.49 8.62 3.28 11.53-.53 7.47-4.64 14.16-12.21 19.87-34.85 26.26-138.56 28.69-246.61 5.79-89.44-19-162.84-46.54-201.36-75.65-22.86-17.28-32.94-34.69-29.16-50.35 1.32-5.45 5.22-11.13 11.59-16.9 1.21-.88 2.44-1.73 3.68-2.58a1.26 1.26 0 0 0 .33-1.76 1.1 1.1 0 0 0-.28-.29c-.05-.05-.14 0-.2 0a156.43 156.43 0 0 0-26.66 22.48c-2.65 4-4.62 7.83-5.35 11.45-3.69 18.42 7.34 37.49 32.77 56.71 42.86 32.4 125.79 63.42 221.82 83 108.13 22 210.34 17.87 248.59-10.08" class="cls-9"/><path d="M548.06 179.89c8.18-6.16 12.64-13.48 13.22-21.71.19-2.61-.51-5.79-2-9.51a184.4 184.4 0 0 0-17.81-22.54c-.24 0-.47-.15-.67 0a1.27 1.27 0 0 0-.27 1.7c4 6 5.77 11 5.32 15.09-.67 6.15-4.37 11.72-11 16.55-32.4 23.72-125 26.17-225.24 6-88-17.73-160.16-44.26-197.88-72.77-20.56-15.54-30-31.24-27.21-45.39 1.19-6.1 5.27-11.66 12.11-16.53a1.26 1.26 0 0 0 .32-1.71 1.17 1.17 0 0 0-.3-.33h-.07a167.77 167.77 0 0 0-20.53 13.39c-4.82 5.06-7.92 10.05-9.1 14.93-4 16.71 6.36 35 30.09 53 39.38 29.77 111.25 56.79 202.36 76.11 110.46 23.41 212.73 20.85 248.66-6.25" class="cls-9"/><path d="M536.35 161.51c7.21-5.28 11.26-11.44 12-18.32.42-3.82-.89-8.34-3.71-13.38a240.7 240.7 0 0 0-34.3-31.93c-.15.08-.31.1-.43.24a1.27 1.27 0 0 0 .07 1.74c11 10.57 16.41 19.6 15.59 26.11-.66 5.21-3.83 9.88-9.45 13.88-29.16 20.78-116.28 21.24-211.84 1.11-80.07-16.83-142.3-39.83-175.17-64.68-18.16-13.72-26.08-27-23.57-39.57 1.27-6.39 5.69-11.93 13.13-16.45a1.27 1.27 0 0 0 .49-1.62 1.46 1.46 0 0 0-.36-.45 188.69 188.69 0 0 0-27.45 13.65c-5.08 4.52-8.25 9.52-9.31 15-3 15.39 6.46 31.5 28.17 47.91 38 28.73 110.51 55.41 198.9 73.22 100.86 20.31 194.3 17.67 227.24-6.42" class="cls-9"/><path d="M517.61 141.92c6.21-4.43 9.74-9.7 10.49-15.64.81-6.41-3.2-14.36-11.86-23.69-2.59-2.11-5.15-4.24-7.84-6.27a429.14 429.14 0 0 0-38.87-26c-.15.11-.32.15-.41.31a1.25 1.25 0 0 0 .29 1.69c2.41 1.66 4.71 3.32 6.87 4.95 16.44 12.43 24.89 23.24 23.81 30.46-.66 4.34-3.38 8.2-8.07 11.47-24.8 17.26-102.91 16.67-190-1.43-68.6-14.28-124.81-35.2-154.22-57.43-15.39-11.63-22.4-23-20.26-32.81 1.45-6.7 7.51-12.21 18-16.37a1.26 1.26 0 0 0 .74-1.57 1.16 1.16 0 0 0-.25-.36 223.12 223.12 0 0 0-31 10.48c-6.69 4.66-10.82 10.15-12.11 16.52-2.71 13.56 5.54 27.72 24.54 42.07 33.16 25.07 95.72 48.21 176.18 65.15 96.21 20.26 184.15 19.63 213.84-1.52" class="cls-9"/><path d="M478.72 75.93a478.45 478.45 0 0 0-48.27-26.49c-.13.11-.28.16-.36.31a1.28 1.28 0 0 0 .36 1.59l.15.1a164.23 164.23 0 0 1 19.91 12.69c12.49 9.45 18.57 18.29 17.09 24.88-5.06 22.42-79.3 25.52-165.52 6.88-57.37-12.38-108.19-31.57-132.63-50-11.51-8.7-16.8-16.93-15.31-23.81 2-9 15.34-15.73 37.69-18.86a1.25 1.25 0 0 0 1.08-1.4 1.2 1.2 0 0 0-.25-.44 278.2 278.2 0 0 0-51.74 9.34c-8.93 4.31-14.35 9.73-15.79 16.35-2.34 10.87 5 23.1 21.22 35.37 29.69 22.44 86.28 43.54 155.24 57.88 89.06 18.52 166.19 18.93 191.91 1 5.29-3.68 8.36-8.11 9.12-13.16 1.55-10.24-11.93-23-23.9-32.17" class="cls-9"/><path d="M470.06 89.52c1.74-7.74-4.49-17.22-18-27.46-3.29-2.48-7.12-5-11.22-7.54a519.78 519.78 0 0 0-71.4-29.62c-.11.13-.26.2-.32.36a1.26 1.26 0 0 0 .43 1.43 1.48 1.48 0 0 0 .33.18c19.87 7.3 35.87 15.32 46.29 23.19 9.28 7 13.58 13.54 12.43 18.84-3.7 17.06-60.86 19.26-127.43 4.9-44.26-9.56-83.69-24.51-102.91-39-8.87-6.7-13-13-11.87-18.12 1.92-8.83 18.49-14.22 45.48-14.81A1.28 1.28 0 0 0 233.11.6c0-.18-.15-.28-.22-.44a345.29 345.29 0 0 0-51.58 2.37c-17.51 3.82-27.73 10.27-29.62 19-1.73 8 3.73 16.9 16.25 26.36 25.1 19 75.05 37.86 133.64 50.52 90.53 19.55 163 15.76 168.51-8.82" class="cls-9"/><path d="M431.04 69.43c1.4-6.42-3.11-13.62-13.38-21.39-7.45-5.63-17.85-11.39-30.31-16.86C332.01 10.64 273.01-.66 218.59.04c-20.52 2-32.85 7.52-34.7 16.07-1.36 6.27 3 13.22 12.82 20.68 19.48 14.73 59.3 29.86 103.91 39.48 70.22 15.15 126.29 12.22 130.42-6.84M300.15 50.68c-29.62-6.52-55.49-16.23-67.53-25.33-5-3.77-7.3-7.2-6.7-9.93 2-9.12 35.44-12 82-1.74 28.59 6.29 54 16 66.43 25.39 5.38 4.06 7.88 7.73 7.24 10.61-1.91 8.68-33.58 11.53-81.42 1" class="cls-9"/><path d="M384.05 50.22c.87-4-1.88-8.41-8.18-13.17-12.67-9.58-38.51-19.48-67.42-25.84-39.46-8.7-82-9.7-85 3.66-.85 3.83 1.73 8 7.64 12.5 12.31 9.3 38.57 19.19 68.52 25.77 39.71 8.76 81.46 10.56 84.44-2.92m-35.22-12.23c-3.86 2.95-20.5 3.27-44.81-1.86-18.95-4-35.59-9.89-42.42-15.05-1.9-1.44-3-2.8-2.92-3.73a1.59 1.59 0 0 1 .78-1.17c4-3 21.1-3.54 45 1.49 18.4 3.87 34.85 9.82 41.93 15.17 2.06 1.56 3.2 3 3.14 4 0 .15 0 .6-.74 1.14" class="cls-9"/><path d="M352.1 37c.11-2-1.24-4-4.14-6.18-7.35-5.56-24.21-11.69-42.95-15.63-22.36-4.7-41.73-5.13-47.09-1a4 4 0 0 0-1.76 3c-.11 1.91 1.17 3.83 3.92 5.91 7.09 5.36 24.14 11.45 43.41 15.51 19 4 40.88 6 46.88 1.38a4.05 4.05 0 0 0 1.73-3" class="cls-9"/></g></g></g></svg>