<svg xmlns="http://www.w3.org/2000/svg" data-name="Telia Pebble Icon segments RGB x50" viewBox="0 0 582.24 505.46"><defs><style>.cls-1{fill:#ff00cd}.cls-2{fill:#990ae3}.cls-4{fill:#93f}.cls-7{fill:#fff}</style></defs><g data-name="1"><path d="M245.57 498.79c0-.15.12-.28.09-.42a1.26 1.26 0 0 0-.46-.81 1.23 1.23 0 0 0-.92-.26 331.16 331.16 0 0 1-118.56-9.17c-29.93-7.78-53.59-18.4-70.33-31.56a91.48 91.48 0 0 1-7.84-6.88l-.11-.1a1.28 1.28 0 0 0-1.6 0c-.13.11-.14.27-.21.4a119.53 119.53 0 0 0 23.28 25c36.86 29 102.06 38.15 176.66 23.79" class="cls-1"/><path d="M235.38 500.65a431.63 431.63 0 0 0 63.66-15.73c0-.16.1-.3.05-.46s-.53-.09-.73-.25-2.05.13-2.44.22c-46.35 11.44-123.82 14.33-194.32-12.71-20.72-8-37.8-17.15-50.77-27.35a92.77 92.77 0 0 1-16.26-16 1.27 1.27 0 0 0-1.68-.3c-.13.08-.17.24-.26.34a167 167 0 0 0 16 25.64c1.71 1.55 3.35 3.14 5.21 4.6 17 13.38 41 24.14 71.26 32a335.15 335.15 0 0 0 110.31 10.07" class="cls-1"/><path d="M320.29 476.86a1.24 1.24 0 0 0-.41-.59 1.26 1.26 0 0 0-1.13-.23c-95.53 26.9-216.19.57-268.95-40.9-11.41-9-19.78-18.56-24.88-28.48a1.17 1.17 0 0 0-.34-.42 1.27 1.27 0 0 0-1.3-.16c-.17.07-.24.24-.35.37a220.66 220.66 0 0 0 11.62 25.58 96.85 96.85 0 0 0 14.71 14.29c13.17 10.36 30.48 19.68 51.43 27.72 66.37 25.45 140.24 23.88 187.8 14.11 10.5-3.17 21.11-6.75 31.78-10.83a1 1 0 0 0 0-.46" class="cls-1"/><path d="M367.07 456.13a296.1 296.1 0 0 1-63.8 18.21c-85.24 14.55-200-9.29-255.73-53.13-16.4-12.89-27.33-25.77-31.76-40.23a5.48 5.48 0 0 0-.66-1.4c-.31-.25-.13-.56-.53-.43-.19 0-.28.21-.41.32a279.35 279.35 0 0 0 11 32.56c5.35 8.79 13 17.2 23 25.1 52 40.9 169.23 67.07 264.38 43a495.28 495.28 0 0 0 55.37-23.93Z" class="cls-1"/><path d="M381.13 448.81a1.33 1.33 0 0 0-.36-.45 1.31 1.31 0 0 0-1.27-.18 298.87 298.87 0 0 1-64.57 18.74c-88.75 15.14-209.42-10.64-269-57.47-17.24-13.55-28.43-28.09-33.24-43.23a1.33 1.33 0 0 0-.43-.6 1.22 1.22 0 0 0-1.11-.23c-.18 0-.27.19-.4.29a319.84 319.84 0 0 0 5.82 21.75c5.49 12.52 15.19 24.54 29.44 35.74 57.21 45 170.41 68.54 257.72 53.65 20.64-3.52 38.88-9.8 55.68-16.47q10.91-5.26 21.79-11.17v-.4" class="cls-1"/><path d="M403.73 435.79a1.21 1.21 0 0 0-.34-.4 1.25 1.25 0 0 0-1.29-.18c-19.64 8.58-50.76 19.67-87.48 23.8-79.43 8.91-204.55-12.38-268.17-62.39-20.36-16-33.55-34.12-38.67-53.43a1.19 1.19 0 0 0-.43-.67 1.22 1.22 0 0 0-1-.24c-.08 0-.09.12-.16.15q2.47 14.82 5.94 28.88c5.63 14.11 16.25 27.6 32.24 40.16 60.06 47.22 181.64 73.23 271 58a300.52 300.52 0 0 0 59-16.56c9.86-5.16 19.7-10.66 29.48-16.63a1.08 1.08 0 0 0 0-.47" class="cls-1"/><path d="M418.93 426.2a1.23 1.23 0 0 0-.33-.38 1.26 1.26 0 0 0-1.29-.18c-34.33 15-67.8 23.38-102.29 25.64-98.53 6.45-212.07-21.92-270-67.43-20.18-15.86-33.2-33.25-38.72-51.7a1.28 1.28 0 0 0-.43-.63 1.25 1.25 0 0 0-1-.24c-.14 0-.21.14-.33.22q1.27 9.21 2.92 18.19c6.15 17.74 18.67 34.15 37.45 48.92 64.09 50.41 190.02 71.91 270.02 62.91a309.19 309.19 0 0 0 82.84-21.73c7.11-4.2 14.17-8.56 21.21-13.18a.83.83 0 0 0 0-.41" class="cls-1"/><path d="M444.07 408.55a1 1 0 0 0-.28-.3 1.24 1.24 0 0 0-1.39-.11c-34.47 19.18-82.09 31.28-127.27 32.37-101.65 2.44-212-26.81-268.44-71.15-25.11-19.73-40.37-41.64-44.11-65.54a1.27 1.27 0 0 0-.47-.79 1.32 1.32 0 0 0-.68-.2c.85 11.43 2.09 22.72 3.78 33.75 6.19 17.59 18.37 33.63 38.25 49.27 58.34 45.86 172.6 74.44 271.69 68 33.52-2.19 66.09-10.28 99.37-24.36q14.92-9.62 29.63-20.5c0-.13 0-.26-.08-.4" class="cls-1"/><path d="M455.16 400.13a1 1 0 0 0-.28-.31 1.29 1.29 0 0 0-1.35-.15c-33.15 16.59-72.92 31.87-138.92 31.32-106.54-.87-211.53-29.86-267.45-73.81-24.38-19.17-39.4-40.71-44.65-64a1.25 1.25 0 0 0-1.41-1c-.15 0-.25.14-.39.21.32 5.78.71 11.55 1.23 17.28 5.16 22.4 19.57 43.12 43.18 61.68 56.81 44.67 167.89 74.15 270.06 71.69 43.89-1 89.9-12.48 124.37-30.63 5.26-3.82 10.51-7.74 15.71-11.81a1.28 1.28 0 0 0-.1-.47" class="cls-1"/><path d="M477.21 381.92a1.13 1.13 0 0 0-.24-.25 1.28 1.28 0 0 0-1.44-.09c-44.6 27-97.23 38.91-160.86 36.54-109-4.07-211.42-33.85-267.23-77.73-25.38-19.94-40.74-42.32-45.63-66.52a1.3 1.3 0 0 0-.47-.74 1.19 1.19 0 0 0-.91-.26c-.14 0-.23.12-.35.17.12 8 .42 16.08.92 24.07 6.08 22.7 21 43.54 44.59 62.1 56.33 44.28 161.93 73.47 269 74.36 64.26.53 103.86-13.83 136.63-29.91q13.22-10.11 26.09-21.35c0-.13 0-.27-.11-.39" class="cls-2"/><path d="M487.06 373.11a1.84 1.84 0 0 0-.23-.25 1.3 1.3 0 0 0-1.43-.1c-44.85 26.16-102.13 37.55-170.26 33.79-85.36-4.69-200.21-28.31-266.58-80.48-25.9-20.37-41.63-43.15-46.76-67.75a1.28 1.28 0 0 0-.46-.74 1.25 1.25 0 0 0-.91-.26 1.29 1.29 0 0 0-.35.18c-.11 6.61-.11 13.22 0 19.81 5.69 23.77 21 45.59 45.74 65 56.2 44.18 159.17 74.17 268.71 78.25 62.71 2.34 114.8-9.25 159.18-35.2 4.51-3.86 9-7.79 13.42-11.84 0-.15 0-.32-.12-.45" class="cls-2"/><path d="M503.62 357.35a1.34 1.34 0 0 0-.2-.21 1.3 1.3 0 0 0-1.45-.09c-49.86 30.24-113.22 42.26-188.31 35.73-112.73-9.8-208.53-39.86-262.73-82.48-27.65-21.73-44-46.2-48.45-72.74a1.27 1.27 0 0 0-.47-.78 1.26 1.26 0 0 0-.85-.27c-.14 0-.23.12-.36.16q-.68 12.24-.8 24.59c5.84 24.42 21.55 46.8 47 66.79 66.84 52.54 182.26 76.31 268 81 67.34 3.71 124.13-7.36 169-32.74 6.65-6 13.26-12.12 19.73-18.55a.93.93 0 0 0-.13-.44" class="cls-2"/><path d="M514.99 345.69a1 1 0 0 0-.19-.17 1.27 1.27 0 0 0-1.51 0c-42.68 30-113.52 42.35-199.48 34.77-105.54-9.37-209.27-43.27-264.28-86.51-27.49-21.61-43-45-46.15-69.51a1.26 1.26 0 0 0-.46-.84 1.34 1.34 0 0 0-.81-.27c-.14 0-.24.11-.37.15q-.7 8.6-1.13 17.26c5.32 26.35 21.58 50.35 48.76 71.72 54.57 42.9 150.83 73.17 264.07 83 74.49 6.49 137.49-5.28 187.49-34.78 4.8-4.69 9.52-9.52 14.2-14.44-.05-.13 0-.27-.13-.38" class="cls-2"/><path d="M534.36 324.62a1 1 0 0 0-.31-.35 1.22 1.22 0 0 0-.57-.25 1.28 1.28 0 0 0-1 .28c-43.81 37.1-125.83 52.06-219.41 40-115.93-14.93-208.19-45.49-259.77-86-28.49-22.4-44.55-47.58-47.75-74.86a1.23 1.23 0 0 0-.47-.84 1.22 1.22 0 0 0-.76-.27c-.16 0-.29.1-.43.15-1 8.17-1.81 16.47-2.43 24.81 4 24.36 19.59 47.33 46.53 68.51 55.36 43.52 159.63 77.69 265.62 87 84.71 7.45 154.87-4.42 198.29-33.35 7.66-7.92 15.21-16.07 22.56-24.64 0-.05 0-.11-.07-.17" class="cls-2"/><path d="M696.08 414.26c-.07-.13-.07-.27-.18-.38l-.09-.09a1.27 1.27 0 0 0-1.61 0c-44.56 38.41-125.85 52.06-228.89 38.42-111.31-14.7-205.86-47.27-259.39-89.35-27.25-21.42-43.06-44.4-47-68.29a1.25 1.25 0 0 0-.47-.8 1.2 1.2 0 0 0-.8-.26c-.11 0-.18.08-.3.11q-1 6.69-1.81 13.48c4 27.24 20.1 52.12 48.24 74.24 51.93 40.82 144.62 71.56 261 86.55 92.24 11.89 173.34-2.44 218.34-38.23 4.37-5 8.69-10.17 13-15.4" style="fill:#c0f" transform="translate(-152.07 -101.08)"/><path d="M559.64 292.32c-.07-.15-.09-.32-.22-.42a1.26 1.26 0 0 0-1.72.15c-38.73 43-132.53 59.2-244.79 42.31-113-17-204-49-256.32-90.13-28.72-22.57-44.23-46.68-46.09-71.63a1.26 1.26 0 0 0-.49-.91 1.34 1.34 0 0 0-.7-.27c-.15 0-.26.08-.39.11-1.58 8-2.92 16.1-4.09 24.36 4.57 23.82 20.47 46.67 47.49 67.9 53.84 42.34 148.84 75.13 260.61 89.9 101.69 13.46 182.39.35 228-36.77 3-3.6 6-7.15 8.91-10.86 3.6-4.59 6.8-9.15 9.76-13.7" class="cls-2"/><path d="M556.53 296.68a166.8 166.8 0 0 0 12-19.59 1.1 1.1 0 0 0-.23-.37l-.09-.07a1.25 1.25 0 0 0-1.67.25c-37.06 45.32-127.4 60.08-254.43 41.56C203.62 302.64 111.45 270 59.18 228.92c-28.83-22.66-44.12-46.71-45.44-71.47a1.22 1.22 0 0 0-.48-.93 1.29 1.29 0 0 0-.66-.27 1.14 1.14 0 0 0-.36.1c-1.45 6.06-2.8 12.23-4 18.53 2.61 24.95 18.25 48.94 46.75 71.35 52.65 41.38 144.11 73.58 257.52 90.63 110.42 16.62 203.13 1.18 244-40.16" class="cls-2"/><path d="M566.47 280.66a135.71 135.71 0 0 0 11.22-27.2 1.14 1.14 0 0 0-.3-.18 1.28 1.28 0 0 0-1.61.58c-27.33 52.27-131.27 70.63-264.85 46.81-110.58-19.75-199-52.22-248.85-91.43-30-23.58-44.32-48.1-42.59-72.89a1.23 1.23 0 0 0-.48-1.08 1.22 1.22 0 0 0-.55-.26c-.15 0-.29.06-.43.09-2.42 7.85-4.63 16-6.57 24.38 2 24.85 17.46 48.87 46.15 71.42 52.61 41.36 145.22 74.17 254.11 90.07 125.85 18.35 216 4 254.75-40.31" class="cls-2"/><path d="M576.51 257.41a118 118 0 0 0 4.42-18.89s0-.11-.06-.15a1.48 1.48 0 0 0-.35-.19 1.26 1.26 0 0 0-1.55.58c-27.85 51.61-127.48 68.09-266.51 44.1-107.11-18.5-197.32-51.69-247.45-91.1-27.17-21.36-41.41-43.43-42.34-65.59a1.2 1.2 0 0 0-.47-.94 1.33 1.33 0 0 0-.61-.26c-.1 0-.18 0-.28.06q-2.26 6.55-4.31 13.43c-.73 25.07 13.8 49.45 43.47 72.77 50.21 39.47 139 72.12 250 91.94 132.58 23.65 236.24 5.63 266-45.76" class="cls-2"/><path d="M580.54 241.03a111.19 111.19 0 0 0 1.7-18.36 1.44 1.44 0 0 0-.4-.18 1.26 1.26 0 0 0-1.4.92c-13.86 50.14-132.75 68.81-270.68 42.51-102.95-19.62-189.83-52.73-238.33-90.87-31.6-24.84-45-50.29-38.71-73.57a1.27 1.27 0 0 0-.45-1.33 1 1 0 0 0-.34-.23 1.14 1.14 0 0 0-.45 0 256.12 256.12 0 0 0-11.1 27.9c1.55 22.39 16 44.55 43.11 65.88 50.45 39.66 141.05 73.05 248.57 91.6 139.18 24 239.28 7.42 268.48-44.32" class="cls-2"/><path d="M582.09 226.37a108.66 108.66 0 0 0-.63-17.15 1.2 1.2 0 0 0-.39-.13 1.26 1.26 0 0 0-1.29 1c-9.79 50.22-123.19 66.08-269.64 37.72-101.59-19.66-187-52.28-234.32-89.48-28.37-22.31-41.33-45.44-37.47-66.87.1-.58.22-1.15.35-1.74a1.42 1.42 0 0 0-.47-1.39 1.05 1.05 0 0 0-.29-.17 1.08 1.08 0 0 0-.44 0c-2.68 4.84-5.22 10-7.64 15.35-4.85 23.73 8.81 49 40 73.54 48.82 38.36 136.07 71.67 239.42 91.36 137.13 26.15 255.68 7.63 272.81-42" class="cls-2"/><path d="M581.75 212.55a112.61 112.61 0 0 0-3.5-20.17 1.41 1.41 0 0 0-.45-.15 1.28 1.28 0 0 0-1.2 1.05c-1.78 10.26-8.17 19.25-19 26.72-38.53 26.6-126.94 30.72-230.77 10.74-105.9-20.38-197.38-54.74-244.69-91.93-25.42-20-36.65-39.38-33.36-57.65a45.74 45.74 0 0 1 5.66-14.9 1.27 1.27 0 0 0-.32-1.64h-.06c-.12-.08-.26 0-.38-.08-1 1.13-2 2.19-2.9 3.36a157.15 157.15 0 0 0-14.95 23.46c-3.87 22.34 9.4 46.2 38.42 69 47.64 37.46 133.44 70.25 235.41 90 146 28.26 259.49 12.33 272.09-37.76" class="cls-2"/><path d="M559.08 222.07c11-7.63 17.6-16.85 19.73-27.36a121.71 121.71 0 0 0-6-17.64c-.12 0-.22-.11-.34-.09a1.24 1.24 0 0 0-1 1.2c0 .71-.09 1.4-.17 2.09-1.15 9.1-6.51 17.06-15.91 23.65-38.23 26.85-139.68 28.88-246.72 5-95.3-21.29-177.25-53.69-219.2-86.67-24.24-19.05-34.59-37.48-30.78-54.79.93-4.22 3.35-8.76 7.17-13.46a1.26 1.26 0 0 0-.13-1.73l-.07-.06c-.09-.07-.21-.06-.31-.1a148.4 148.4 0 0 0-14.27 15.45 47.79 47.79 0 0 0-4.77 13.18c-3.47 19.27 8.07 39.48 34.29 60.09 47.6 37.42 139.49 72 245.79 92.43 104.54 20.08 193.66 15.8 232.69-11.19" class="cls-2"/><path d="M556.82 205.99c10-7 15.72-15.57 17-25.4 0-.39.06-.8.09-1.18a149.18 149.18 0 0 0-15.24-28.21c-.17 0-.35-.14-.51 0a1.29 1.29 0 0 0-.52 1.66c2.29 4.78 3.32 8.69 3.06 11.58-.67 7.47-4.91 14.08-12.59 19.65-35.34 25.59-139.08 26.06-246.68 1.11-89.06-20.65-161.92-49.61-199.89-79.45-22.52-17.71-32.27-35.31-28.2-50.89 1.42-5.43 5.43-11 11.91-16.68 1.23-.86 2.48-1.69 3.73-2.51a1.25 1.25 0 0 0 .36-1.75 1.12 1.12 0 0 0-.27-.3h-.2a157.09 157.09 0 0 0-27.08 22c-2.73 3.92-4.77 7.74-5.57 11.35-4 18.35 6.63 37.63 31.69 57.33 42.24 33.2 124.56 65.78 220.21 87.15 107.69 24.06 210 21.86 248.73-5.37" class="cls-2"/><path d="M549.56 186.1c8.3-6 12.89-13.25 13.63-21.47.24-2.6-.4-5.8-1.85-9.54A185.72 185.72 0 0 0 544 132.2c-.25 0-.48-.15-.68 0a1.26 1.26 0 0 0-.3 1.69c3.87 6 5.56 11.14 5 15.19-.79 6.13-4.59 11.63-11.3 16.34-32.85 23.1-125.51 23.79-225.33 1.72-87.68-19.4-159.28-47.29-196.46-76.51-20.26-15.93-29.38-31.81-26.35-45.9 1.31-6.08 5.49-11.55 12.42-16.29a1.26 1.26 0 0 0 .36-1.71 1 1 0 0 0-.3-.33s0 0-.07 0a170.34 170.34 0 0 0-20.77 13c-4.92 5-8.11 9.9-9.38 14.75-4.36 16.64 5.69 35.15 29.08 53.53 38.8 30.51 110.15 58.89 200.87 79.93 110 25.5 212.3 24.88 248.74-1.53" class="cls-4"/><path d="M538.21 167.5c7.3-5.15 11.47-11.23 12.35-18.09.5-3.82-.72-8.36-3.45-13.45a240.56 240.56 0 0 0-33.68-32.57 1.14 1.14 0 0 0-.44.22 1.26 1.26 0 0 0 0 1.74c10.82 10.78 16 19.91 15.08 26.41-.75 5.19-4 9.8-9.71 13.7-29.55 20.22-116.65 19-211.82-2.91-79.78-18.38-141.54-42.52-173.93-68-17.9-14.06-25.57-27.52-22.82-40 1.4-6.37 5.92-11.82 13.44-16.21a1.26 1.26 0 0 0 .17-2.06 188.33 188.33 0 0 0-27.7 13.13c-5.17 4.42-8.43 9.36-9.59 14.78-3.31 15.32 5.86 31.62 27.26 48.43 37.45 29.45 109.43 57.5 197.47 77 100.46 22.22 193.93 21.35 227.33-2.1" class="cls-4"/><path d="M519.84 147.55c6.29-4.31 9.92-9.51 10.78-15.43.93-6.4-2.92-14.43-11.41-23.92-2.55-2.16-5.07-4.33-7.72-6.42a429.84 429.84 0 0 0-38.37-26.76c-.15.1-.33.14-.42.29a1.27 1.27 0 0 0 .27 1.7c2.37 1.71 4.64 3.41 6.77 5.08 16.2 12.74 24.45 23.71 23.22 30.9-.74 4.33-3.53 8.14-8.28 11.32-25.12 16.79-103.21 14.72-189.89-5-68.33-15.57-124.13-37.56-153.11-60.34-15.16-11.92-22-23.39-19.64-33.18 1.58-6.67 7.74-12.07 18.33-16a1.26 1.26 0 0 0 .77-1.56 1.16 1.16 0 0 0-.25-.36 224.11 224.11 0 0 0-31.15 9.89c-6.78 4.53-11 9.94-12.42 16.29-3 13.5 5 27.81 23.73 42.53 32.68 25.69 94.79 50 174.91 68.47 95.81 22.08 183.75 23.12 213.84 2.53" class="cls-4"/><path d="M482.2 80.83a477.69 477.69 0 0 0-47.76-27.39c-.13.1-.28.15-.36.3a1.26 1.26 0 0 0 .33 1.59.83.83 0 0 0 .15.11 163.83 163.83 0 0 1 19.66 13c12.32 9.68 18.22 18.63 16.62 25.19-5.49 22.32-79.77 24-165.62 3.75-57.13-13.46-107.58-33.58-131.66-52.52-11.34-8.91-16.48-17.24-14.85-24.09 2.11-9 15.63-15.44 38-18.15a1.25 1.25 0 0 0 1.11-1.37c0-.19-.16-.31-.24-.45a278.32 278.32 0 0 0-51.9 8.35c-9 4.15-14.54 9.47-16.1 16.06-2.55 10.82 4.54 23.18 20.54 35.76 29.26 23 85.44 45.16 154.11 60.81 88.7 20.21 165.81 22.08 191.86 4.66 5.36-3.58 8.52-8 9.37-13 1.74-10.21-11.49-23.23-23.29-32.62" class="cls-4"/><path d="M473.28 94.26c1.9-7.7-4.16-17.3-17.5-27.79-3.25-2.55-7-5.16-11.07-7.76a520.81 520.81 0 0 0-70.83-31c-.12.13-.27.2-.33.35a1.27 1.27 0 0 0 .41 1.44 1 1 0 0 0 .32.19c19.73 7.68 35.58 16 45.84 24.07 9.15 7.19 13.32 13.79 12.07 19.06-4 17-61.21 18.11-127.49 2.49-44.07-10.39-83.22-26.09-102.16-41-8.74-6.87-12.73-13.22-11.52-18.34 2.08-8.79 18.76-13.87 45.75-13.95a1.28 1.28 0 0 0 1.27-1.24c0-.18-.15-.28-.21-.45a346.7 346.7 0 0 0-51.62 1.39c-17.59 3.49-27.93 9.74-30 18.41-1.89 8 3.41 17 15.74 26.67 24.73 19.44 74.33 39.27 132.66 53 90.14 21.26 162.65 18.84 168.64-5.63" class="cls-4"/><path d="M434.65 73.43c1.53-6.39-2.84-13.68-13-21.63-7.35-5.78-17.64-11.73-30-17.43C336.71 12.78 277.93.37 223.51.03c-20.55 1.58-33 6.9-35 15.41-1.48 6.24 2.7 13.28 12.42 20.92 19.21 15.1 58.73 31 103.15 41.44 69.92 16.48 126 14.61 130.52-4.37M304.1 52.2c-29.49-7.07-55.18-17.27-67.05-26.6-4.9-3.86-7.16-7.33-6.5-10.06 2.18-9.07 35.66-11.31 82-.18 28.45 6.83 53.72 17 65.93 26.65 5.3 4.16 7.73 7.87 7 10.74-2.07 8.64-33.8 10.89-81.42-.55" class="cls-4"/><path d="M388.03 53.34c.95-4-1.71-8.45-7.92-13.33-12.49-9.81-38.13-20.2-66.92-27.11-39.29-9.44-81.85-11.25-85.05 2-.92 3.81 1.57 8.06 7.4 12.64 12.13 9.54 38.2 19.92 68 27.07 39.55 9.51 81.26 12.09 84.48-1.32m-35-12.9c-3.92 2.88-20.56 2.88-44.78-2.7-18.82-4.29-35.31-10.51-42.08-15.77-1.87-1.48-2.91-2.86-2.85-3.79 0-.15.05-.61.8-1.16 4-3 21.17-3.14 45 2.34 18.33 4.22 34.66 10.49 41.64 16 2 1.6 3.15 3.07 3.07 4.06 0 .16-.05.61-.76 1.13" class="cls-4"/><path d="M356.34 39.51c.15-2-1.16-4-4-6.26-7.24-5.69-24-12.14-42.64-16.43-22.27-5.13-41.63-5.92-47.07-1.92a4 4 0 0 0-1.81 3c-.15 1.9 1.09 3.85 3.81 6 7 5.5 23.91 11.91 43.11 16.33 18.92 4.35 40.75 6.75 46.83 2.27a4 4 0 0 0 1.79-3" class="cls-4"/><g style="mask:url(#mask)"><g style="opacity:.3"><path d="M245.57 498.79c0-.15.12-.28.09-.42a1.26 1.26 0 0 0-.46-.81 1.23 1.23 0 0 0-.92-.26 331.16 331.16 0 0 1-118.56-9.17c-29.93-7.78-53.59-18.4-70.33-31.56a91.48 91.48 0 0 1-7.84-6.88l-.11-.1a1.28 1.28 0 0 0-1.6 0c-.13.11-.14.27-.21.4a119.53 119.53 0 0 0 23.28 25c36.86 29 102.06 38.15 176.66 23.79" class="cls-7"/><path d="M235.38 500.65a431.63 431.63 0 0 0 63.66-15.73c0-.16.1-.3.05-.46s-.53-.09-.73-.25-2.05.13-2.44.22c-46.35 11.44-123.82 14.33-194.32-12.71-20.72-8-37.8-17.15-50.77-27.35a92.77 92.77 0 0 1-16.26-16 1.27 1.27 0 0 0-1.68-.3c-.13.08-.17.24-.26.34a167 167 0 0 0 16 25.64c1.71 1.55 3.35 3.14 5.21 4.6 17 13.38 41 24.14 71.26 32a335.15 335.15 0 0 0 110.31 10.07" class="cls-7"/><path d="M320.29 476.86a1.24 1.24 0 0 0-.41-.59 1.26 1.26 0 0 0-1.13-.23c-95.53 26.9-216.19.57-268.95-40.9-11.41-9-19.78-18.56-24.88-28.48a1.17 1.17 0 0 0-.34-.42 1.27 1.27 0 0 0-1.3-.16c-.17.07-.24.24-.35.37a220.66 220.66 0 0 0 11.62 25.58 96.85 96.85 0 0 0 14.71 14.29c13.17 10.36 30.48 19.68 51.43 27.72 66.37 25.45 140.24 23.88 187.8 14.11 10.5-3.17 21.11-6.75 31.78-10.83a1 1 0 0 0 0-.46" class="cls-7"/><path d="M367.07 456.13a296.1 296.1 0 0 1-63.8 18.21c-85.24 14.55-200-9.29-255.73-53.13-16.4-12.89-27.33-25.77-31.76-40.23a5.48 5.48 0 0 0-.66-1.4c-.31-.25-.13-.56-.53-.43-.19 0-.28.21-.41.32a279.35 279.35 0 0 0 11 32.56c5.35 8.79 13 17.2 23 25.1 52 40.9 169.23 67.07 264.38 43a495.28 495.28 0 0 0 55.37-23.93Z" class="cls-7"/><path d="M381.13 448.81a1.33 1.33 0 0 0-.36-.45 1.31 1.31 0 0 0-1.27-.18 298.87 298.87 0 0 1-64.57 18.74c-88.75 15.14-209.42-10.64-269-57.47-17.24-13.55-28.43-28.09-33.24-43.23a1.33 1.33 0 0 0-.43-.6 1.22 1.22 0 0 0-1.11-.23c-.18 0-.27.19-.4.29a319.84 319.84 0 0 0 5.82 21.75c5.49 12.52 15.19 24.54 29.44 35.74 57.21 45 170.41 68.54 257.72 53.65 20.64-3.52 38.88-9.8 55.68-16.47q10.91-5.26 21.79-11.17v-.4" class="cls-7"/><path d="M403.73 435.79a1.21 1.21 0 0 0-.34-.4 1.25 1.25 0 0 0-1.29-.18c-19.64 8.58-50.76 19.67-87.48 23.8-79.43 8.91-204.55-12.38-268.17-62.39-20.36-16-33.55-34.12-38.67-53.43a1.19 1.19 0 0 0-.43-.67 1.22 1.22 0 0 0-1-.24c-.08 0-.09.12-.16.15q2.47 14.82 5.94 28.88c5.63 14.11 16.25 27.6 32.24 40.16 60.06 47.22 181.64 73.23 271 58a300.52 300.52 0 0 0 59-16.56c9.86-5.16 19.7-10.66 29.48-16.63a1.08 1.08 0 0 0 0-.47" class="cls-7"/><path d="M418.93 426.2a1.23 1.23 0 0 0-.33-.38 1.26 1.26 0 0 0-1.29-.18c-34.33 15-67.8 23.38-102.29 25.64-98.53 6.45-212.07-21.92-270-67.43-20.18-15.86-33.2-33.25-38.72-51.7a1.28 1.28 0 0 0-.43-.63 1.25 1.25 0 0 0-1-.24c-.14 0-.21.14-.33.22q1.27 9.21 2.92 18.19c6.15 17.74 18.67 34.15 37.45 48.92 64.09 50.41 190.02 71.91 270.02 62.91a309.19 309.19 0 0 0 82.84-21.73c7.11-4.2 14.17-8.56 21.21-13.18a.83.83 0 0 0 0-.41" class="cls-7"/><path d="M444.07 408.55a1 1 0 0 0-.28-.3 1.24 1.24 0 0 0-1.39-.11c-34.47 19.18-82.09 31.28-127.27 32.37-101.65 2.44-212-26.81-268.44-71.15-25.11-19.73-40.37-41.64-44.11-65.54a1.27 1.27 0 0 0-.47-.79 1.32 1.32 0 0 0-.68-.2c.85 11.43 2.09 22.72 3.78 33.75 6.19 17.59 18.37 33.63 38.25 49.27 58.34 45.86 172.6 74.44 271.69 68 33.52-2.19 66.09-10.28 99.37-24.36q14.92-9.62 29.63-20.5c0-.13 0-.26-.08-.4" class="cls-7"/><path d="M455.16 400.13a1 1 0 0 0-.28-.31 1.29 1.29 0 0 0-1.35-.15c-33.15 16.59-72.92 31.87-138.92 31.32-106.54-.87-211.53-29.86-267.45-73.81-24.38-19.17-39.4-40.71-44.65-64a1.25 1.25 0 0 0-1.41-1c-.15 0-.25.14-.39.21.32 5.78.71 11.55 1.23 17.28 5.16 22.4 19.57 43.12 43.18 61.68 56.81 44.67 167.89 74.15 270.06 71.69 43.89-1 89.9-12.48 124.37-30.63 5.26-3.82 10.51-7.74 15.71-11.81a1.28 1.28 0 0 0-.1-.47" class="cls-7"/><path d="M477.21 381.92a1.13 1.13 0 0 0-.24-.25 1.28 1.28 0 0 0-1.44-.09c-44.6 27-97.23 38.91-160.86 36.54-109-4.07-211.42-33.85-267.23-77.73-25.38-19.94-40.74-42.32-45.63-66.52a1.3 1.3 0 0 0-.47-.74 1.19 1.19 0 0 0-.91-.26c-.14 0-.23.12-.35.17.12 8 .42 16.08.92 24.07 6.08 22.7 21 43.54 44.59 62.1 56.33 44.28 161.93 73.47 269 74.36 64.26.53 103.86-13.83 136.63-29.91q13.22-10.11 26.09-21.35c0-.13 0-.27-.11-.39" class="cls-7"/><path d="M487.06 373.11a1.84 1.84 0 0 0-.23-.25 1.3 1.3 0 0 0-1.43-.1c-44.85 26.16-102.13 37.55-170.26 33.79-85.36-4.69-200.21-28.31-266.58-80.48-25.9-20.37-41.63-43.15-46.76-67.75a1.28 1.28 0 0 0-.46-.74 1.25 1.25 0 0 0-.91-.26 1.29 1.29 0 0 0-.35.18c-.11 6.61-.11 13.22 0 19.81 5.69 23.77 21 45.59 45.74 65 56.2 44.18 159.17 74.17 268.71 78.25 62.71 2.34 114.8-9.25 159.18-35.2 4.51-3.86 9-7.79 13.42-11.84 0-.15 0-.32-.12-.45" class="cls-7"/><path d="M503.62 357.35a1.34 1.34 0 0 0-.2-.21 1.3 1.3 0 0 0-1.45-.09c-49.86 30.24-113.22 42.26-188.31 35.73-112.73-9.8-208.53-39.86-262.73-82.48-27.65-21.73-44-46.2-48.45-72.74a1.27 1.27 0 0 0-.47-.78 1.26 1.26 0 0 0-.85-.27c-.14 0-.23.12-.36.16q-.68 12.24-.8 24.59c5.84 24.42 21.55 46.8 47 66.79 66.84 52.54 182.26 76.31 268 81 67.34 3.71 124.13-7.36 169-32.74 6.65-6 13.26-12.12 19.73-18.55a.93.93 0 0 0-.13-.44" class="cls-7"/><path d="M514.99 345.69a1 1 0 0 0-.19-.17 1.27 1.27 0 0 0-1.51 0c-42.68 30-113.52 42.35-199.48 34.77-105.54-9.37-209.27-43.27-264.28-86.51-27.49-21.61-43-45-46.15-69.51a1.26 1.26 0 0 0-.46-.84 1.34 1.34 0 0 0-.81-.27c-.14 0-.24.11-.37.15q-.7 8.6-1.13 17.26c5.32 26.35 21.58 50.35 48.76 71.72 54.57 42.9 150.83 73.17 264.07 83 74.49 6.49 137.49-5.28 187.49-34.78 4.8-4.69 9.52-9.52 14.2-14.44-.05-.13 0-.27-.13-.38" class="cls-7"/><path d="M534.36 324.62a1 1 0 0 0-.31-.35 1.22 1.22 0 0 0-.57-.25 1.28 1.28 0 0 0-1 .28c-43.81 37.1-125.83 52.06-219.41 40-115.93-14.93-208.19-45.49-259.77-86-28.49-22.4-44.55-47.58-47.75-74.86a1.23 1.23 0 0 0-.47-.84 1.22 1.22 0 0 0-.76-.27c-.16 0-.29.1-.43.15-1 8.17-1.81 16.47-2.43 24.81 4 24.36 19.59 47.33 46.53 68.51 55.36 43.52 159.63 77.69 265.62 87 84.71 7.45 154.87-4.42 198.29-33.35 7.66-7.92 15.21-16.07 22.56-24.64 0-.05 0-.11-.07-.17" class="cls-7"/><path d="M544.01 313.18c-.07-.13-.07-.27-.18-.38l-.09-.09a1.27 1.27 0 0 0-1.61 0c-44.56 38.41-125.85 52.06-228.89 38.42-111.31-14.7-205.86-47.27-259.39-89.35-27.25-21.42-43.06-44.4-47-68.29a1.25 1.25 0 0 0-.47-.8 1.2 1.2 0 0 0-.8-.26c-.11 0-.18.08-.3.11q-1 6.69-1.81 13.48c4 27.24 20.1 52.12 48.24 74.24 51.93 40.82 144.62 71.56 261 86.55 92.24 11.89 173.34-2.44 218.34-38.23 4.37-5 8.69-10.17 13-15.4" class="cls-7"/><path d="M559.64 292.32c-.07-.15-.09-.32-.22-.42a1.26 1.26 0 0 0-1.72.15c-38.73 43-132.53 59.2-244.79 42.31-113-17-204-49-256.32-90.13-28.72-22.57-44.23-46.68-46.09-71.63a1.26 1.26 0 0 0-.49-.91 1.34 1.34 0 0 0-.7-.27c-.15 0-.26.08-.39.11-1.58 8-2.92 16.1-4.09 24.36 4.57 23.82 20.47 46.67 47.49 67.9 53.84 42.34 148.84 75.13 260.61 89.9 101.69 13.46 182.39.35 228-36.77 3-3.6 6-7.15 8.91-10.86 3.6-4.59 6.8-9.15 9.76-13.7" class="cls-7"/><path d="M556.53 296.68a166.8 166.8 0 0 0 12-19.59 1.1 1.1 0 0 0-.23-.37l-.09-.07a1.25 1.25 0 0 0-1.67.25c-37.06 45.32-127.4 60.08-254.43 41.56C203.62 302.64 111.45 270 59.18 228.92c-28.83-22.66-44.12-46.71-45.44-71.47a1.22 1.22 0 0 0-.48-.93 1.29 1.29 0 0 0-.66-.27 1.14 1.14 0 0 0-.36.1c-1.45 6.06-2.8 12.23-4 18.53 2.61 24.95 18.25 48.94 46.75 71.35 52.65 41.38 144.11 73.58 257.52 90.63 110.42 16.62 203.13 1.18 244-40.16" class="cls-7"/><path d="M566.47 280.66a135.71 135.71 0 0 0 11.22-27.2 1.14 1.14 0 0 0-.3-.18 1.28 1.28 0 0 0-1.61.58c-27.33 52.27-131.27 70.63-264.85 46.81-110.58-19.75-199-52.22-248.85-91.43-30-23.58-44.32-48.1-42.59-72.89a1.23 1.23 0 0 0-.48-1.08 1.22 1.22 0 0 0-.55-.26c-.15 0-.29.06-.43.09-2.42 7.85-4.63 16-6.57 24.38 2 24.85 17.46 48.87 46.15 71.42 52.61 41.36 145.22 74.17 254.11 90.07 125.85 18.35 216 4 254.75-40.31" class="cls-7"/><path d="M576.51 257.41a118 118 0 0 0 4.42-18.89s0-.11-.06-.15a1.48 1.48 0 0 0-.35-.19 1.26 1.26 0 0 0-1.55.58c-27.85 51.61-127.48 68.09-266.51 44.1-107.11-18.5-197.32-51.69-247.45-91.1-27.17-21.36-41.41-43.43-42.34-65.59a1.2 1.2 0 0 0-.47-.94 1.33 1.33 0 0 0-.61-.26c-.1 0-.18 0-.28.06q-2.26 6.55-4.31 13.43c-.73 25.07 13.8 49.45 43.47 72.77 50.21 39.47 139 72.12 250 91.94 132.58 23.65 236.24 5.63 266-45.76" class="cls-7"/><path d="M580.54 241.03a111.19 111.19 0 0 0 1.7-18.36 1.44 1.44 0 0 0-.4-.18 1.26 1.26 0 0 0-1.4.92c-13.86 50.14-132.75 68.81-270.68 42.51-102.95-19.62-189.83-52.73-238.33-90.87-31.6-24.84-45-50.29-38.71-73.57a1.27 1.27 0 0 0-.45-1.33 1 1 0 0 0-.34-.23 1.14 1.14 0 0 0-.45 0 256.12 256.12 0 0 0-11.1 27.9c1.55 22.39 16 44.55 43.11 65.88 50.45 39.66 141.05 73.05 248.57 91.6 139.18 24 239.28 7.42 268.48-44.32" class="cls-7"/><path d="M582.09 226.37a108.66 108.66 0 0 0-.63-17.15 1.2 1.2 0 0 0-.39-.13 1.26 1.26 0 0 0-1.29 1c-9.79 50.22-123.19 66.08-269.64 37.72-101.59-19.66-187-52.28-234.32-89.48-28.37-22.31-41.33-45.44-37.47-66.87.1-.58.22-1.15.35-1.74a1.42 1.42 0 0 0-.47-1.39 1.05 1.05 0 0 0-.29-.17 1.08 1.08 0 0 0-.44 0c-2.68 4.84-5.22 10-7.64 15.35-4.85 23.73 8.81 49 40 73.54 48.82 38.36 136.07 71.67 239.42 91.36 137.13 26.15 255.68 7.63 272.81-42" class="cls-7"/><path d="M581.75 212.55a112.61 112.61 0 0 0-3.5-20.17 1.41 1.41 0 0 0-.45-.15 1.28 1.28 0 0 0-1.2 1.05c-1.78 10.26-8.17 19.25-19 26.72-38.53 26.6-126.94 30.72-230.77 10.74-105.9-20.38-197.38-54.74-244.69-91.93-25.42-20-36.65-39.38-33.36-57.65a45.74 45.74 0 0 1 5.66-14.9 1.27 1.27 0 0 0-.32-1.64h-.06c-.12-.08-.26 0-.38-.08-1 1.13-2 2.19-2.9 3.36a157.15 157.15 0 0 0-14.95 23.46c-3.87 22.34 9.4 46.2 38.42 69 47.64 37.46 133.44 70.25 235.41 90 146 28.26 259.49 12.33 272.09-37.76" class="cls-7"/><path d="M559.08 222.07c11-7.63 17.6-16.85 19.73-27.36a121.71 121.71 0 0 0-6-17.64c-.12 0-.22-.11-.34-.09a1.24 1.24 0 0 0-1 1.2c0 .71-.09 1.4-.17 2.09-1.15 9.1-6.51 17.06-15.91 23.65-38.23 26.85-139.68 28.88-246.72 5-95.3-21.29-177.25-53.69-219.2-86.67-24.24-19.05-34.59-37.48-30.78-54.79.93-4.22 3.35-8.76 7.17-13.46a1.26 1.26 0 0 0-.13-1.73l-.07-.06c-.09-.07-.21-.06-.31-.1a148.4 148.4 0 0 0-14.27 15.45 47.79 47.79 0 0 0-4.77 13.18c-3.47 19.27 8.07 39.48 34.29 60.09 47.6 37.42 139.49 72 245.79 92.43 104.54 20.08 193.66 15.8 232.69-11.19" class="cls-7"/><path d="M556.82 205.99c10-7 15.72-15.57 17-25.4 0-.39.06-.8.09-1.18a149.18 149.18 0 0 0-15.24-28.21c-.17 0-.35-.14-.51 0a1.29 1.29 0 0 0-.52 1.66c2.29 4.78 3.32 8.69 3.06 11.58-.67 7.47-4.91 14.08-12.59 19.65-35.34 25.59-139.08 26.06-246.68 1.11-89.06-20.65-161.92-49.61-199.89-79.45-22.52-17.71-32.27-35.31-28.2-50.89 1.42-5.43 5.43-11 11.91-16.68 1.23-.86 2.48-1.69 3.73-2.51a1.25 1.25 0 0 0 .36-1.75 1.12 1.12 0 0 0-.27-.3h-.2a157.09 157.09 0 0 0-27.08 22c-2.73 3.92-4.77 7.74-5.57 11.35-4 18.35 6.63 37.63 31.69 57.33 42.24 33.2 124.56 65.78 220.21 87.15 107.69 24.06 210 21.86 248.73-5.37" class="cls-7"/><path d="M549.56 186.1c8.3-6 12.89-13.25 13.63-21.47.24-2.6-.4-5.8-1.85-9.54A185.72 185.72 0 0 0 544 132.2c-.25 0-.48-.15-.68 0a1.26 1.26 0 0 0-.3 1.69c3.87 6 5.56 11.14 5 15.19-.79 6.13-4.59 11.63-11.3 16.34-32.85 23.1-125.51 23.79-225.33 1.72-87.68-19.4-159.28-47.29-196.46-76.51-20.26-15.93-29.38-31.81-26.35-45.9 1.31-6.08 5.49-11.55 12.42-16.29a1.26 1.26 0 0 0 .36-1.71 1 1 0 0 0-.3-.33s0 0-.07 0a170.34 170.34 0 0 0-20.77 13c-4.92 5-8.11 9.9-9.38 14.75-4.36 16.64 5.69 35.15 29.08 53.53 38.8 30.51 110.15 58.89 200.87 79.93 110 25.5 212.3 24.88 248.74-1.53" class="cls-7"/><path d="M538.21 167.5c7.3-5.15 11.47-11.23 12.35-18.09.5-3.82-.72-8.36-3.45-13.45a240.56 240.56 0 0 0-33.68-32.57 1.14 1.14 0 0 0-.44.22 1.26 1.26 0 0 0 0 1.74c10.82 10.78 16 19.91 15.08 26.41-.75 5.19-4 9.8-9.71 13.7-29.55 20.22-116.65 19-211.82-2.91-79.78-18.38-141.54-42.52-173.93-68-17.9-14.06-25.57-27.52-22.82-40 1.4-6.37 5.92-11.82 13.44-16.21a1.26 1.26 0 0 0 .17-2.06 188.33 188.33 0 0 0-27.7 13.13c-5.17 4.42-8.43 9.36-9.59 14.78-3.31 15.32 5.86 31.62 27.26 48.43 37.45 29.45 109.43 57.5 197.47 77 100.46 22.22 193.93 21.35 227.33-2.1" class="cls-7"/><path d="M519.84 147.55c6.29-4.31 9.92-9.51 10.78-15.43.93-6.4-2.92-14.43-11.41-23.92-2.55-2.16-5.07-4.33-7.72-6.42a429.84 429.84 0 0 0-38.37-26.76c-.15.1-.33.14-.42.29a1.27 1.27 0 0 0 .27 1.7c2.37 1.71 4.64 3.41 6.77 5.08 16.2 12.74 24.45 23.71 23.22 30.9-.74 4.33-3.53 8.14-8.28 11.32-25.12 16.79-103.21 14.72-189.89-5-68.33-15.57-124.13-37.56-153.11-60.34-15.16-11.92-22-23.39-19.64-33.18 1.58-6.67 7.74-12.07 18.33-16a1.26 1.26 0 0 0 .77-1.56 1.16 1.16 0 0 0-.25-.36 224.11 224.11 0 0 0-31.15 9.89c-6.78 4.53-11 9.94-12.42 16.29-3 13.5 5 27.81 23.73 42.53 32.68 25.69 94.79 50 174.91 68.47 95.81 22.08 183.75 23.12 213.84 2.53" class="cls-7"/><path d="M482.2 80.83a477.69 477.69 0 0 0-47.76-27.39c-.13.1-.28.15-.36.3a1.26 1.26 0 0 0 .33 1.59.83.83 0 0 0 .15.11 163.83 163.83 0 0 1 19.66 13c12.32 9.68 18.22 18.63 16.62 25.19-5.49 22.32-79.77 24-165.62 3.75-57.13-13.46-107.58-33.58-131.66-52.52-11.34-8.91-16.48-17.24-14.85-24.09 2.11-9 15.63-15.44 38-18.15a1.25 1.25 0 0 0 1.11-1.37c0-.19-.16-.31-.24-.45a278.32 278.32 0 0 0-51.9 8.35c-9 4.15-14.54 9.47-16.1 16.06-2.55 10.82 4.54 23.18 20.54 35.76 29.26 23 85.44 45.16 154.11 60.81 88.7 20.21 165.81 22.08 191.86 4.66 5.36-3.58 8.52-8 9.37-13 1.74-10.21-11.49-23.23-23.29-32.62" class="cls-7"/><path d="M473.28 94.26c1.9-7.7-4.16-17.3-17.5-27.79-3.25-2.55-7-5.16-11.07-7.76a520.81 520.81 0 0 0-70.83-31c-.12.13-.27.2-.33.35a1.27 1.27 0 0 0 .41 1.44 1 1 0 0 0 .32.19c19.73 7.68 35.58 16 45.84 24.07 9.15 7.19 13.32 13.79 12.07 19.06-4 17-61.21 18.11-127.49 2.49-44.07-10.39-83.22-26.09-102.16-41-8.74-6.87-12.73-13.22-11.52-18.34 2.08-8.79 18.76-13.87 45.75-13.95a1.28 1.28 0 0 0 1.27-1.24c0-.18-.15-.28-.21-.45a346.7 346.7 0 0 0-51.62 1.39c-17.59 3.49-27.93 9.74-30 18.41-1.89 8 3.41 17 15.74 26.67 24.73 19.44 74.33 39.27 132.66 53 90.14 21.26 162.65 18.84 168.64-5.63" class="cls-7"/><path d="M434.65 73.43c1.53-6.39-2.84-13.68-13-21.63-7.35-5.78-17.64-11.73-30-17.43C336.71 12.78 277.93.37 223.51.03c-20.55 1.58-33 6.9-35 15.41-1.48 6.24 2.7 13.28 12.42 20.92 19.21 15.1 58.73 31 103.15 41.44 69.92 16.48 126 14.61 130.52-4.37M304.1 52.2c-29.49-7.07-55.18-17.27-67.05-26.6-4.9-3.86-7.16-7.33-6.5-10.06 2.18-9.07 35.66-11.31 82-.18 28.45 6.83 53.72 17 65.93 26.65 5.3 4.16 7.73 7.87 7 10.74-2.07 8.64-33.8 10.89-81.42-.55" class="cls-7"/><path d="M388.03 53.34c.95-4-1.71-8.45-7.92-13.33-12.49-9.81-38.13-20.2-66.92-27.11-39.29-9.44-81.85-11.25-85.05 2-.92 3.81 1.57 8.06 7.4 12.64 12.13 9.54 38.2 19.92 68 27.07 39.55 9.51 81.26 12.09 84.48-1.32m-35-12.9c-3.92 2.88-20.56 2.88-44.78-2.7-18.82-4.29-35.31-10.51-42.08-15.77-1.87-1.48-2.91-2.86-2.85-3.79 0-.15.05-.61.8-1.16 4-3 21.17-3.14 45 2.34 18.33 4.22 34.66 10.49 41.64 16 2 1.6 3.15 3.07 3.07 4.06 0 .16-.05.61-.76 1.13" class="cls-7"/><path d="M356.34 39.51c.15-2-1.16-4-4-6.26-7.24-5.69-24-12.14-42.64-16.43-22.27-5.13-41.63-5.92-47.07-1.92a4 4 0 0 0-1.81 3c-.15 1.9 1.09 3.85 3.81 6 7 5.5 23.91 11.91 43.11 16.33 18.92 4.35 40.75 6.75 46.83 2.27a4 4 0 0 0 1.79-3" class="cls-7"/></g></g></g></svg>