<svg xmlns="http://www.w3.org/2000/svg" data-name="Telia Pebble Icon segments RGB x50" viewBox="0 0 582.07 505.64"><defs><style>.cls-1{fill:#990ae3}.cls-2{fill:#642d96}.cls-3{fill:#93f}.cls-4{fill:#333}.cls-7{fill:#fff}</style></defs><g data-name="29"><path d="M246.56 498.68a1.27 1.27 0 0 0 .09-.42 1.25 1.25 0 0 0-1.39-1.06 331.08 331.08 0 0 1-118.6-8.68c-30-7.66-53.67-18.18-70.46-31.26a90.19 90.19 0 0 1-7.87-6.86l-.1-.09a1.28 1.28 0 0 0-1.61 0c-.13.11-.14.26-.2.39a119.66 119.66 0 0 0 23.38 24.89c37 28.82 102.22 37.72 176.76 23" class="cls-1"/><path d="M236.38 500.59a432.41 432.41 0 0 0 63.59-16c0-.16.1-.3.05-.47s-.53-.08-.73-.23-2.05.13-2.45.22c-46.33 11.6-123.75 14.81-194.33-11.94-20.74-7.87-37.86-17-50.88-27.13a92.7 92.7 0 0 1-16.32-16 1.2 1.2 0 0 0-.23-.22 1.26 1.26 0 0 0-1.45-.07c-.14.08-.18.24-.26.34a165.42 165.42 0 0 0 16.08 25.57c1.71 1.55 3.36 3.13 5.22 4.58 17.08 13.31 41.1 24 71.4 31.72a335.36 335.36 0 0 0 110.35 9.62" class="cls-1"/><path d="M321.19 476.44a1.27 1.27 0 0 0-1.55-.81c-95.42 27.29-216.19 1.46-269.11-39.78-11.45-8.93-19.86-18.48-25-28.38a1.38 1.38 0 0 0-.34-.41 1.27 1.27 0 0 0-1.31-.16c-.17.08-.24.24-.35.37a221.84 221.84 0 0 0 11.73 25.53 96.66 96.66 0 0 0 14.77 14.23c13.22 10.31 30.56 19.55 51.55 27.5 66.47 25.18 140.37 23.25 187.85 13.34 10.49-3.22 21.08-6.84 31.74-11 0-.15.08-.29 0-.46" class="cls-1"/><path d="M367.88 455.51a296.08 296.08 0 0 1-63.72 18.48c-85.19 14.9-200-8.46-256-52.06-16.45-12.83-27.43-25.66-31.92-40.1a5.18 5.18 0 0 0-.67-1.4c-.31-.24-.13-.55-.53-.43-.19 0-.28.22-.41.33a283.23 283.23 0 0 0 11.21 32.54c5.4 8.76 13 17.14 23.13 25 52.19 40.68 169.5 66.36 264.55 41.91a495.64 495.64 0 0 0 55.24-24.18Z" class="cls-1"/><path d="M381.91 448.14a1.46 1.46 0 0 0-.36-.45 1.3 1.3 0 0 0-1.28-.17 298.66 298.66 0 0 1-64.52 19c-88.69 15.52-209.47-9.76-269.24-56.34-17.3-13.49-28.55-28-33.42-43.1a1.38 1.38 0 0 0-.43-.6 1.25 1.25 0 0 0-1.12-.22c-.17 0-.26.19-.4.29 1.75 7.46 3.74 14.68 5.91 21.72 5.55 12.51 15.29 24.48 29.59 35.63 57.4 44.73 170.7 67.82 257.94 52.57 20.63-3.61 38.84-10 55.62-16.7q10.88-5.31 21.74-11.26v-.4" class="cls-1"/><path d="M404.45 435.03a1.15 1.15 0 0 0-.34-.41 1.27 1.27 0 0 0-1.29-.17c-19.6 8.67-50.68 19.88-87.38 24.16-79.4 9.27-204.6-11.52-268.43-61.27-20.42-15.92-33.69-34-38.89-53.26a1.25 1.25 0 0 0-.43-.68 1.22 1.22 0 0 0-1-.23c-.09 0-.1.12-.16.16q2.54 14.81 6.05 28.85c5.69 14.09 16.38 27.53 32.42 40 60.25 47 181.94 72.46 271.24 56.84a299.94 299.94 0 0 0 58.9-16.81c9.83-5.2 19.65-10.74 29.41-16.75a.9.9 0 0 0 0-.46" class="cls-1"/><path d="M419.58 425.37a1.35 1.35 0 0 0-.33-.38 1.3 1.3 0 0 0-1.29-.18c-34.27 15.14-67.7 23.67-102.18 26.07-98.5 6.86-212.16-21-270.24-66.3C25.29 368.8 12.2 351.46 6.6 333.04a1.21 1.21 0 0 0-.43-.63 1.24 1.24 0 0 0-1-.23c-.14 0-.21.14-.33.22q1.32 9.21 3 18.18c6.22 17.71 18.81 34.07 37.66 48.76 64.33 50.14 190.39 71.11 270.28 61.79a309.6 309.6 0 0 0 82.73-22.08c7.09-4.23 14.14-8.62 21.15-13.27a.83.83 0 0 0 0-.41" class="cls-1"/><path d="M444.68 407.62a1.19 1.19 0 0 0-.28-.31 1.26 1.26 0 0 0-1.39-.1c-34.43 19.32-82 31.63-127.14 32.91-101.63 2.86-212.14-25.93-268.73-70C21.95 350.5 6.6 328.65 2.75 304.77a1.2 1.2 0 0 0-.47-.79 1.32 1.32 0 0 0-.68-.2c.91 11.43 2.19 22.71 3.92 33.74 6.27 17.56 18.51 33.55 38.46 49.1 58.53 45.62 172.91 73.72 272 66.83 33.51-2.33 66-10.55 99.27-24.78q14.88-9.66 29.54-20.62c0-.12 0-.26-.08-.39" class="cls-1"/><path d="M455.74 399.15a1.23 1.23 0 0 0-.29-.31 1.27 1.27 0 0 0-1.35-.14c-33.08 16.72-72.79 32.17-138.78 31.89-106.55-.43-211.66-29-267.76-72.69-24.46-19.07-39.57-40.55-44.92-63.85a1.22 1.22 0 0 0-.45-.71 1.24 1.24 0 0 0-1-.25c-.15 0-.26.15-.39.22.35 5.77.76 11.55 1.3 17.27 5.25 22.38 19.76 43 43.44 61.5 57 44.43 168.19 73.44 270.36 70.56 43.88-1.23 89.84-12.86 124.23-31.14q7.88-5.76 15.66-11.88a1.27 1.27 0 0 0-.09-.47" class="cls-1"/><path d="M477.71 380.81a1.42 1.42 0 0 0-.24-.25 1.26 1.26 0 0 0-1.44-.08c-44.49 27.15-97.07 39.31-160.7 37.21-109.06-3.62-211.57-33-267.56-76.62-25.46-19.84-40.92-42.15-45.91-66.33a1.25 1.25 0 0 0-.47-.74 1.27 1.27 0 0 0-.91-.26c-.15 0-.23.12-.36.18.16 8 .49 16.08 1 24.06 6.17 22.68 21.15 43.46 44.85 61.92 56.51 44.05 162.23 72.79 269.31 73.23 64.26.27 103.81-14.26 136.51-30.47q13.17-10.18 26-21.46c0-.14 0-.27-.11-.39" class="cls-1"/><path d="M487.51 372a1.39 1.39 0 0 0-.23-.25 1.29 1.29 0 0 0-1.43-.09c-44.74 26.36-102 38-170.12 34.49-85.37-4.33-200.33-27.47-266.91-79.37-26-20.25-41.82-43-47-67.55a1.23 1.23 0 0 0-.47-.73 1.15 1.15 0 0 0-.9-.26c-.14 0-.24.12-.36.18-.08 6.61-.06 13.21.13 19.81 5.8 23.75 21.19 45.5 46 64.85 56.38 43.94 159.48 73.5 269 77.13 62.72 2.08 114.76-9.74 159-35.87q6.74-5.81 13.37-11.9a1.12 1.12 0 0 0-.13-.44" class="cls-2"/><path d="M504.02 356.17a1 1 0 0 0-.21-.21 1.27 1.27 0 0 0-1.44-.08c-49.74 30.44-113.05 42.72-188.16 36.51-112.82-9.33-208.7-39-263.08-81.38-27.74-21.62-44.15-46-48.75-72.54a1.28 1.28 0 0 0-1.33-1.05c-.13 0-.23.12-.35.16-.42 8.17-.67 16.38-.7 24.6 5.94 24.39 21.75 46.7 47.27 66.59 67.06 52.27 182.57 75.55 268.34 79.91 67.35 3.43 124.1-7.88 168.89-33.44 6.62-6 13.2-12.17 19.65-18.63a1.17 1.17 0 0 0-.13-.44" class="cls-2"/><path d="M515.34 344.46a1 1 0 0 0-.19-.17 1.26 1.26 0 0 0-1.51 0c-42.56 30.17-113.34 42.82-199.34 35.6-105.57-8.85-209.44-42.36-264.63-85.37-27.59-21.5-43.2-44.81-46.44-69.31a1.29 1.29 0 0 0-.47-.84 1.28 1.28 0 0 0-.81-.27c-.14 0-.24.11-.37.15-.45 5.74-.8 11.48-1.05 17.26 5.38 26.3 21.79 50.28 49.05 71.52 54.75 42.67 151.13 72.54 264.42 81.91 74.51 6.17 137.47-5.87 187.33-35.58q7.18-7.09 14.18-14.49c-.05-.12 0-.26-.13-.37" class="cls-1"/><path d="M534.62 323.31a1.17 1.17 0 0 0-.31-.35 1.38 1.38 0 0 0-.57-.25 1.28 1.28 0 0 0-1 .29c-43.66 37.28-125.62 52.58-219.24 40.92-116-14.45-208.38-44.62-260.13-85-28.58-22.27-44.75-47.39-48.06-74.65a1.26 1.26 0 0 0-1.24-1.11c-.16 0-.28.1-.42.16-1 8.16-1.75 16.47-2.33 24.81 4.13 24.34 19.78 47.25 46.81 68.32 55.55 43.29 160 77 266 85.9 84.74 7.1 154.85-5.06 198.14-34.18 7.63-8 15.15-16.13 22.46-24.73 0-.05 0-.11-.07-.17" class="cls-3"/><path d="M544.22 311.87c-.07-.13-.07-.27-.18-.38l-.1-.09a1.25 1.25 0 0 0-1.6 0c-44.4 38.6-125.63 52.59-228.73 39.38-111.38-14.28-206-46.46-259.76-88.32-27.34-21.3-43.24-44.22-47.28-68.09a1.27 1.27 0 0 0-1.27-1.06c-.11 0-.19.09-.3.12q-1 6.69-1.76 13.48c4.07 27.22 20.32 52 48.55 74 52.1 40.61 144.91 71 261.37 85.46 92.29 11.51 173.32-3.16 218.18-39.13 4.35-5 8.64-10.21 12.88-15.46" class="cls-3"/><path d="M559.77 290.87c-.07-.14-.1-.32-.23-.42a1.27 1.27 0 0 0-1.72.16c-38.55 43.15-132.28 59.76-244.61 43.34-113.09-16.53-204.24-48.16-256.7-89.08-28.81-22.45-44.43-46.49-46.39-71.44a1.31 1.31 0 0 0-1.19-1.17c-.16 0-.26.08-.39.11-1.55 8-2.86 16.12-4 24.38 4.67 23.8 20.66 46.58 47.77 67.7 54.05 42.13 149.18 74.5 261 88.84 101.77 13 182.42-.42 227.91-37.77 3-3.61 5.95-7.17 8.86-10.89 3.59-4.61 6.76-9.19 9.71-13.75" class="cls-3"/><path d="M556.67 295.28a165.81 165.81 0 0 0 11.89-19.64.93.93 0 0 0-.23-.37l-.09-.07a1.26 1.26 0 0 0-1.68.26c-36.86 45.47-127.14 60.61-254.25 42.61-108.51-15.36-200.82-47.62-253.27-88.49-28.92-22.55-44.31-46.53-45.73-71.29a1.27 1.27 0 0 0-1.15-1.19c-.12 0-.23.07-.36.1-1.42 6.06-2.75 12.23-3.93 18.55 2.72 24.93 18.46 48.86 47.06 71.15 52.82 41.16 144.41 73 257.89 89.56 110.49 16.15 203.13.32 243.85-41.18" class="cls-3"/><path d="M566.51 279.22a135.35 135.35 0 0 0 11.11-27.25 1.09 1.09 0 0 0-.31-.18 1.27 1.27 0 0 0-1.6.59c-27.11 52.38-131 71.18-264.62 47.91-110.66-19.28-199.18-51.42-249.22-90.42-30.1-23.45-44.53-47.91-42.9-72.72a1.25 1.25 0 0 0-.49-1.07 1.22 1.22 0 0 0-.55-.26 1.17 1.17 0 0 0-.42.09c-2.39 7.86-4.57 16-6.48 24.41 2.12 24.84 17.67 48.8 46.45 71.23 52.78 41.13 145.53 73.57 254.48 89 125.93 17.82 216 3.09 254.58-41.37" class="cls-3"/><path d="M576.51 255.92a116.52 116.52 0 0 0 4.37-18.91s0-.11-.06-.14a1.05 1.05 0 0 0-.34-.2 1.28 1.28 0 0 0-1.55.59c-27.63 51.72-127.19 68.62-266.33 45.21-107.18-18.05-197.52-50.86-247.82-90.06-27.26-21.25-41.59-43.26-42.61-65.41a1.24 1.24 0 0 0-.48-.94 1.33 1.33 0 0 0-.61-.26c-.1 0-.18 0-.28.06-1.49 4.38-2.91 8.87-4.25 13.44-.63 25.08 14 49.4 43.77 72.6 50.37 39.26 139.29 71.54 250.39 90.89 132.68 23.1 236.26 4.64 265.8-46.87" class="cls-3"/><path d="M580.45 239.53a110.13 110.13 0 0 0 1.62-18.37 1.44 1.44 0 0 0-.4-.18 1.26 1.26 0 0 0-1.39.93c-13.65 50.19-132.47 69.36-270.51 43.65-103-19.2-190-52-238.7-89.89-31.7-24.71-45.2-50.1-39-73.41a1.27 1.27 0 0 0-.45-1.33 1.41 1.41 0 0 0-.34-.19 1.18 1.18 0 0 0-.46 0 259 259 0 0 0-11 27.95c1.65 22.38 16.16 44.48 43.38 65.69 50.62 39.45 141.36 72.46 249 90.57 139.28 23.43 239.3 6.42 268.29-45.44" class="cls-3"/><path d="M581.94 224.87a108.46 108.46 0 0 0-.7-17.14 1.07 1.07 0 0 0-.39-.14 1.27 1.27 0 0 0-1.29 1c-9.58 50.26-122.91 66.6-269.48 38.84-101.67-19.23-187.21-51.49-234.69-88.5-28.47-22.19-41.52-45.26-37.75-66.71.1-.58.22-1.16.35-1.74a1.44 1.44 0 0 0-.48-1.39 1.05 1.05 0 0 0-.29-.17 1.3 1.3 0 0 0-.44 0c-2.67 4.86-5.18 10-7.57 15.38-4.76 23.76 9 49 40.31 73.38 49 38.16 136.37 71.11 239.79 90.37 137.23 25.58 255.71 6.56 272.63-43.18"/><path d="M581.51 211.05a112.49 112.49 0 0 0-3.58-20.16 1.49 1.49 0 0 0-.45-.15 1.27 1.27 0 0 0-1.19 1c-1.74 10.27-8.1 19.29-18.89 26.8-38.41 26.77-126.8 31.25-230.73 11.7-106-19.93-197.61-53.91-245.07-90.9-25.51-19.88-36.81-39.23-33.6-57.52a45.6 45.6 0 0 1 5.6-14.92 1.28 1.28 0 0 0-.33-1.64l-.06-.05c-.12-.07-.26 0-.38-.08-.95 1.14-2 2.21-2.89 3.38a156.72 156.72 0 0 0-14.85 23.52c-3.78 22.36 9.59 46.16 38.71 68.85 47.8 37.26 133.73 69.69 235.78 89 146.09 27.65 259.54 11.25 271.93-38.89"/><path d="M558.91 220.65c11-7.67 17.53-16.92 19.62-27.44a122.93 122.93 0 0 0-6.06-17.61c-.12 0-.22-.11-.34-.09a1.27 1.27 0 0 0-1 1.21c0 .71-.07 1.4-.15 2.08-1.12 9.11-6.44 17.09-15.81 23.72-38.12 27-139.56 29.47-246.7 6-95.39-20.89-177.48-52.95-219.57-85.75-24.31-18.95-34.74-37.34-31-54.67.91-4.22 3.31-8.77 7.11-13.48a1.27 1.27 0 0 0-.13-1.74l-.08-.06c-.09-.07-.21-.06-.31-.1a149.41 149.41 0 0 0-14.2 15.51 47.86 47.86 0 0 0-4.71 13.21c-3.39 19.28 8.23 39.44 34.53 59.94 47.77 37.23 139.79 71.39 246.18 91.41 104.59 19.67 193.74 15 232.66-12.14"/><path d="M556.59 204.59c10-7.07 15.65-15.64 16.86-25.48 0-.38.06-.79.08-1.17a148.68 148.68 0 0 0-15.35-28.15c-.18 0-.36-.14-.52 0a1.28 1.28 0 0 0-.51 1.65c2.31 4.78 3.35 8.68 3.11 11.58-.64 7.46-4.85 14.09-12.51 19.69-35.23 25.74-139 26.64-246.67 2.14-89.15-20.28-162.13-48.94-200.22-78.62-22.59-17.61-32.42-35.17-28.41-50.77 1.4-5.43 5.38-11.06 11.84-16.73 1.22-.86 2.47-1.7 3.72-2.52a1.26 1.26 0 0 0 .35-1.76 1.07 1.07 0 0 0-.27-.29c-.06-.05-.14 0-.2 0a157.54 157.54 0 0 0-27 22.08c-2.71 3.94-4.74 7.77-5.52 11.38-4 18.36 6.79 37.59 31.93 57.19 42.37 33 124.83 65.27 220.57 86.24 107.79 23.61 210.05 21 248.71-6.41"/><path d="M549.24 184.72c8.28-6 12.84-13.29 13.54-21.52.23-2.6-.42-5.79-1.89-9.54a184.07 184.07 0 0 0-17.44-22.8c-.24 0-.47-.16-.67 0a1.27 1.27 0 0 0-.3 1.7c3.89 6 5.61 11.11 5.1 15.16-.76 6.14-4.54 11.65-11.24 16.39-32.75 23.23-125.4 24.32-225.31 2.66-87.76-19-159.49-46.62-196.78-75.69C93.92 75.24 84.74 59.4 87.71 45.3c1.28-6.09 5.44-11.59 12.35-16.35a1.27 1.27 0 0 0 .35-1.71 1 1 0 0 0-.3-.33s0 0-.07 0a168.37 168.37 0 0 0-20.72 13.12c-4.9 5-8.07 9.93-9.32 14.79-4.28 16.66 5.84 35.12 29.3 53.4 38.94 30.35 110.4 58.43 201.21 79.09 110.11 25 212.4 24 248.73-2.57"/><path d="M537.81 166.17c7.29-5.17 11.42-11.28 12.28-18.14.48-3.82-.76-8.35-3.51-13.43a240.93 240.93 0 0 0-33.82-32.44c-.15.08-.32.1-.44.23a1.28 1.28 0 0 0 .05 1.74c10.87 10.74 16.11 19.84 15.2 26.35-.73 5.19-4 9.81-9.66 13.73-29.46 20.35-116.57 19.52-211.82-2-79.86-18.05-141.72-41.93-174.22-67.26-18-14-25.68-27.42-23-39.91 1.36-6.38 5.86-11.85 13.36-16.26a1.27 1.27 0 0 0 .52-1.61 1.44 1.44 0 0 0-.35-.46 188.78 188.78 0 0 0-27.65 13.25c-5.15 4.44-8.39 9.39-9.53 14.82-3.24 15.34 6 31.59 27.46 48.32 37.58 29.29 109.68 57 197.8 76.15 100.55 21.8 194 20.54 227.31-3.06"/><path d="M519.36 146.3c6.27-4.34 9.88-9.55 10.72-15.48.9-6.4-3-14.41-11.51-23.86-2.56-2.15-5.09-4.32-7.75-6.39a429.84 429.84 0 0 0-38.48-26.61c-.15.1-.33.15-.42.3a1.26 1.26 0 0 0 .28 1.7 200.9 200.9 0 0 1 6.8 5.05c16.25 12.67 24.54 23.61 23.35 30.81-.72 4.32-3.5 8.14-8.24 11.35-25.05 16.89-103.14 15.14-189.91-4.24-68.39-15.29-124.28-37-153.35-59.7-15.22-11.86-22.06-23.3-19.79-33.1 1.56-6.68 7.69-12.1 18.27-16.1a1.28 1.28 0 0 0 .76-1.57.9.9 0 0 0-.25-.36 223.87 223.87 0 0 0-31.11 10c-6.76 4.56-11 10-12.35 16.34-2.92 13.51 5.13 27.79 23.91 42.43 32.78 25.55 95 49.61 175.2 67.74 95.9 21.69 183.84 22.35 213.84 1.64" class="cls-4"/><path d="M481.44 79.74a477.27 477.27 0 0 0-47.87-27.19c-.13.1-.28.15-.36.3a1.26 1.26 0 0 0 .34 1.59 1 1 0 0 0 .15.11 163.69 163.69 0 0 1 19.71 12.94c12.36 9.63 18.3 18.56 16.72 25.13-5.39 22.34-79.67 24.35-165.6 4.44-57.18-13.24-107.71-33.17-131.88-52-11.38-8.87-16.54-17.18-14.95-24 2.08-9 15.57-15.51 38-18.31a1.26 1.26 0 0 0 1.11-1.38 1.36 1.36 0 0 0-.25-.44 277.7 277.7 0 0 0-51.87 8.57c-9 4.18-14.5 9.52-16 16.12-2.51 10.83 4.64 23.16 20.69 35.67 29.36 22.88 85.63 44.81 154.37 60.17 88.78 19.84 165.89 21.39 191.88 3.86 5.34-3.6 8.48-8 9.31-13 1.69-10.21-11.59-23.18-23.43-32.52" class="cls-4"/><path d="M472.58 93.2c1.86-7.7-4.23-17.28-17.62-27.71-3.25-2.54-7-5.13-11.1-7.72a521.54 521.54 0 0 0-71-30.67c-.11.13-.26.2-.33.36a1.26 1.26 0 0 0 .42 1.43 1.13 1.13 0 0 0 .32.19c19.76 7.6 35.65 15.85 45.94 23.88 9.18 7.15 13.38 13.73 12.15 19-3.94 17-61.13 18.36-127.48 3-44.11-10.21-83.32-25.74-102.33-40.55-8.77-6.84-12.78-13.17-11.59-18.3 2-8.8 18.7-13.95 45.68-14.14a1.28 1.28 0 0 0 1.27-1.25c0-.17-.15-.28-.21-.44a346 346 0 0 0-51.61 1.61c-17.58 3.56-27.89 9.85-29.9 18.53-1.86 8 3.48 16.95 15.86 26.6 24.81 19.34 74.48 39 132.87 52.48 90.23 20.89 162.73 18.17 168.62-6.33" class="cls-4"/><path d="M433.86 72.54c1.5-6.4-2.9-13.67-13-21.58-7.38-5.75-17.69-11.66-30.06-17.31C335.8 12.29 276.94.12 222.51.02c-20.54 1.66-32.95 7-34.92 15.56-1.46 6.24 2.75 13.26 12.5 20.86 19.27 15 58.86 30.74 103.32 41 70 16.19 126.1 14.09 130.5-4.91M303.27 51.87c-29.52-7-55.24-17.05-67.15-26.33-4.93-3.83-7.19-7.3-6.55-10 2.15-9.08 35.61-11.46 82-.53 28.48 6.72 53.79 16.83 66.05 26.38 5.31 4.14 7.76 7.84 7.08 10.71-2 8.65-33.75 11-81.43-.2"/><path d="M387.16 52.64c.94-4-1.75-8.44-8-13.29-12.52-9.76-38.21-20.05-67-26.83-39.34-9.28-81.91-10.92-85.05 2.4-.91 3.81 1.61 8.06 7.45 12.61 12.17 9.48 38.29 19.76 68.13 26.78 39.58 9.34 81.3 11.76 84.47-1.67m-35-12.75c-3.91 2.89-20.55 3-44.79-2.52-18.88-4.25-35.44-10.41-42.19-15.67-1.88-1.47-2.92-2.85-2.86-3.78 0-.15 0-.61.79-1.16 4-3 21.15-3.23 45 2.15 18.34 4.15 34.71 10.34 41.7 15.8 2 1.59 3.16 3.06 3.09 4.05 0 .15-.05.6-.75 1.13" class="cls-4"/><path d="M355.41 38.94c.15-1.95-1.18-4-4.05-6.24-7.26-5.66-24-12-42.7-16.25-22.3-5-41.65-5.75-47.08-1.72a4 4 0 0 0-1.8 3c-.14 1.9 1.11 3.84 3.83 6 7 5.46 24 11.81 43.18 16.15 18.94 4.27 40.78 6.58 46.85 2.07a4 4 0 0 0 1.77-3" class="cls-4"/><g style="mask:url(#mask)"><g style="opacity:.3"><path d="M246.56 498.68a1.27 1.27 0 0 0 .09-.42 1.25 1.25 0 0 0-1.39-1.06 331.08 331.08 0 0 1-118.6-8.68c-30-7.66-53.67-18.18-70.46-31.26a90.19 90.19 0 0 1-7.87-6.86l-.1-.09a1.28 1.28 0 0 0-1.61 0c-.13.11-.14.26-.2.39a119.66 119.66 0 0 0 23.38 24.89c37 28.82 102.22 37.72 176.76 23" class="cls-7"/><path d="M236.38 500.59a432.41 432.41 0 0 0 63.59-16c0-.16.1-.3.05-.47s-.53-.08-.73-.23-2.05.13-2.45.22c-46.33 11.6-123.75 14.81-194.33-11.94-20.74-7.87-37.86-17-50.88-27.13a92.7 92.7 0 0 1-16.32-16 1.2 1.2 0 0 0-.23-.22 1.26 1.26 0 0 0-1.45-.07c-.14.08-.18.24-.26.34a165.42 165.42 0 0 0 16.08 25.57c1.71 1.55 3.36 3.13 5.22 4.58 17.08 13.31 41.1 24 71.4 31.72a335.36 335.36 0 0 0 110.35 9.62" class="cls-7"/><path d="M321.19 476.44a1.27 1.27 0 0 0-1.55-.81c-95.42 27.29-216.19 1.46-269.11-39.78-11.45-8.93-19.86-18.48-25-28.38a1.38 1.38 0 0 0-.34-.41 1.27 1.27 0 0 0-1.31-.16c-.17.08-.24.24-.35.37a221.84 221.84 0 0 0 11.73 25.53 96.66 96.66 0 0 0 14.77 14.23c13.22 10.31 30.56 19.55 51.55 27.5 66.47 25.18 140.37 23.25 187.85 13.34 10.49-3.22 21.08-6.84 31.74-11 0-.15.08-.29 0-.46" class="cls-7"/><path d="M367.88 455.51a296.08 296.08 0 0 1-63.72 18.48c-85.19 14.9-200-8.46-256-52.06-16.45-12.83-27.43-25.66-31.92-40.1a5.18 5.18 0 0 0-.67-1.4c-.31-.24-.13-.55-.53-.43-.19 0-.28.22-.41.33a283.23 283.23 0 0 0 11.21 32.54c5.4 8.76 13 17.14 23.13 25 52.19 40.68 169.5 66.36 264.55 41.91a495.64 495.64 0 0 0 55.24-24.18Z" class="cls-7"/><path d="M381.91 448.14a1.46 1.46 0 0 0-.36-.45 1.3 1.3 0 0 0-1.28-.17 298.66 298.66 0 0 1-64.52 19c-88.69 15.52-209.47-9.76-269.24-56.34-17.3-13.49-28.55-28-33.42-43.1a1.38 1.38 0 0 0-.43-.6 1.25 1.25 0 0 0-1.12-.22c-.17 0-.26.19-.4.29 1.75 7.46 3.74 14.68 5.91 21.72 5.55 12.51 15.29 24.48 29.59 35.63 57.4 44.73 170.7 67.82 257.94 52.57 20.63-3.61 38.84-10 55.62-16.7q10.88-5.31 21.74-11.26v-.4" class="cls-7"/><path d="M404.45 435.03a1.15 1.15 0 0 0-.34-.41 1.27 1.27 0 0 0-1.29-.17c-19.6 8.67-50.68 19.88-87.38 24.16-79.4 9.27-204.6-11.52-268.43-61.27-20.42-15.92-33.69-34-38.89-53.26a1.25 1.25 0 0 0-.43-.68 1.22 1.22 0 0 0-1-.23c-.09 0-.1.12-.16.16q2.54 14.81 6.05 28.85c5.69 14.09 16.38 27.53 32.42 40 60.25 47 181.94 72.46 271.24 56.84a299.94 299.94 0 0 0 58.9-16.81c9.83-5.2 19.65-10.74 29.41-16.75a.9.9 0 0 0 0-.46" class="cls-7"/><path d="M419.58 425.37a1.35 1.35 0 0 0-.33-.38 1.3 1.3 0 0 0-1.29-.18c-34.27 15.14-67.7 23.67-102.18 26.07-98.5 6.86-212.16-21-270.24-66.3C25.29 368.8 12.2 351.46 6.6 333.04a1.21 1.21 0 0 0-.43-.63 1.24 1.24 0 0 0-1-.23c-.14 0-.21.14-.33.22q1.32 9.21 3 18.18c6.22 17.71 18.81 34.07 37.66 48.76 64.33 50.14 190.39 71.11 270.28 61.79a309.6 309.6 0 0 0 82.73-22.08c7.09-4.23 14.14-8.62 21.15-13.27a.83.83 0 0 0 0-.41" class="cls-7"/><path d="M444.68 407.62a1.19 1.19 0 0 0-.28-.31 1.26 1.26 0 0 0-1.39-.1c-34.43 19.32-82 31.63-127.14 32.91-101.63 2.86-212.14-25.93-268.73-70C21.95 350.5 6.6 328.65 2.75 304.77a1.2 1.2 0 0 0-.47-.79 1.32 1.32 0 0 0-.68-.2c.91 11.43 2.19 22.71 3.92 33.74 6.27 17.56 18.51 33.55 38.46 49.1 58.53 45.62 172.91 73.72 272 66.83 33.51-2.33 66-10.55 99.27-24.78q14.88-9.66 29.54-20.62c0-.12 0-.26-.08-.39" class="cls-7"/><path d="M455.74 399.15a1.23 1.23 0 0 0-.29-.31 1.27 1.27 0 0 0-1.35-.14c-33.08 16.72-72.79 32.17-138.78 31.89-106.55-.43-211.66-29-267.76-72.69-24.46-19.07-39.57-40.55-44.92-63.85a1.22 1.22 0 0 0-.45-.71 1.24 1.24 0 0 0-1-.25c-.15 0-.26.15-.39.22.35 5.77.76 11.55 1.3 17.27 5.25 22.38 19.76 43 43.44 61.5 57 44.43 168.19 73.44 270.36 70.56 43.88-1.23 89.84-12.86 124.23-31.14q7.88-5.76 15.66-11.88a1.27 1.27 0 0 0-.09-.47" class="cls-7"/><path d="M477.71 380.81a1.42 1.42 0 0 0-.24-.25 1.26 1.26 0 0 0-1.44-.08c-44.49 27.15-97.07 39.31-160.7 37.21-109.06-3.62-211.57-33-267.56-76.62-25.46-19.84-40.92-42.15-45.91-66.33a1.25 1.25 0 0 0-.47-.74 1.27 1.27 0 0 0-.91-.26c-.15 0-.23.12-.36.18.16 8 .49 16.08 1 24.06 6.17 22.68 21.15 43.46 44.85 61.92 56.51 44.05 162.23 72.79 269.31 73.23 64.26.27 103.81-14.26 136.51-30.47q13.17-10.18 26-21.46c0-.14 0-.27-.11-.39" class="cls-7"/><path d="M487.51 372a1.39 1.39 0 0 0-.23-.25 1.29 1.29 0 0 0-1.43-.09c-44.74 26.36-102 38-170.12 34.49-85.37-4.33-200.33-27.47-266.91-79.37-26-20.25-41.82-43-47-67.55a1.23 1.23 0 0 0-.47-.73 1.15 1.15 0 0 0-.9-.26c-.14 0-.24.12-.36.18-.08 6.61-.06 13.21.13 19.81 5.8 23.75 21.19 45.5 46 64.85 56.38 43.94 159.48 73.5 269 77.13 62.72 2.08 114.76-9.74 159-35.87q6.74-5.81 13.37-11.9a1.12 1.12 0 0 0-.13-.44" class="cls-7"/><path d="M504.02 356.17a1 1 0 0 0-.21-.21 1.27 1.27 0 0 0-1.44-.08c-49.74 30.44-113.05 42.72-188.16 36.51-112.82-9.33-208.7-39-263.08-81.38-27.74-21.62-44.15-46-48.75-72.54a1.28 1.28 0 0 0-1.33-1.05c-.13 0-.23.12-.35.16-.42 8.17-.67 16.38-.7 24.6 5.94 24.39 21.75 46.7 47.27 66.59 67.06 52.27 182.57 75.55 268.34 79.91 67.35 3.43 124.1-7.88 168.89-33.44 6.62-6 13.2-12.17 19.65-18.63a1.17 1.17 0 0 0-.13-.44" class="cls-7"/><path d="M515.34 344.46a1 1 0 0 0-.19-.17 1.26 1.26 0 0 0-1.51 0c-42.56 30.17-113.34 42.82-199.34 35.6-105.57-8.85-209.44-42.36-264.63-85.37-27.59-21.5-43.2-44.81-46.44-69.31a1.29 1.29 0 0 0-.47-.84 1.28 1.28 0 0 0-.81-.27c-.14 0-.24.11-.37.15-.45 5.74-.8 11.48-1.05 17.26 5.38 26.3 21.79 50.28 49.05 71.52 54.75 42.67 151.13 72.54 264.42 81.91 74.51 6.17 137.47-5.87 187.33-35.58q7.18-7.09 14.18-14.49c-.05-.12 0-.26-.13-.37" class="cls-7"/><path d="M534.62 323.31a1.17 1.17 0 0 0-.31-.35 1.38 1.38 0 0 0-.57-.25 1.28 1.28 0 0 0-1 .29c-43.66 37.28-125.62 52.58-219.24 40.92-116-14.45-208.38-44.62-260.13-85-28.58-22.27-44.75-47.39-48.06-74.65a1.26 1.26 0 0 0-1.24-1.11c-.16 0-.28.1-.42.16-1 8.16-1.75 16.47-2.33 24.81 4.13 24.34 19.78 47.25 46.81 68.32 55.55 43.29 160 77 266 85.9 84.74 7.1 154.85-5.06 198.14-34.18 7.63-8 15.15-16.13 22.46-24.73 0-.05 0-.11-.07-.17" class="cls-7"/><path d="M544.22 311.87c-.07-.13-.07-.27-.18-.38l-.1-.09a1.25 1.25 0 0 0-1.6 0c-44.4 38.6-125.63 52.59-228.73 39.38-111.38-14.28-206-46.46-259.76-88.32-27.34-21.3-43.24-44.22-47.28-68.09a1.27 1.27 0 0 0-1.27-1.06c-.11 0-.19.09-.3.12q-1 6.69-1.76 13.48c4.07 27.22 20.32 52 48.55 74 52.1 40.61 144.91 71 261.37 85.46 92.29 11.51 173.32-3.16 218.18-39.13 4.35-5 8.64-10.21 12.88-15.46" class="cls-7"/><path d="M559.77 290.87c-.07-.14-.1-.32-.23-.42a1.27 1.27 0 0 0-1.72.16c-38.55 43.15-132.28 59.76-244.61 43.34-113.09-16.53-204.24-48.16-256.7-89.08-28.81-22.45-44.43-46.49-46.39-71.44a1.31 1.31 0 0 0-1.19-1.17c-.16 0-.26.08-.39.11-1.55 8-2.86 16.12-4 24.38 4.67 23.8 20.66 46.58 47.77 67.7 54.05 42.13 149.18 74.5 261 88.84 101.77 13 182.42-.42 227.91-37.77 3-3.61 5.95-7.17 8.86-10.89 3.59-4.61 6.76-9.19 9.71-13.75" class="cls-7"/><path d="M556.67 295.28a165.81 165.81 0 0 0 11.89-19.64.93.93 0 0 0-.23-.37l-.09-.07a1.26 1.26 0 0 0-1.68.26c-36.86 45.47-127.14 60.61-254.25 42.61-108.51-15.36-200.82-47.62-253.27-88.49-28.92-22.55-44.31-46.53-45.73-71.29a1.27 1.27 0 0 0-1.15-1.19c-.12 0-.23.07-.36.1-1.42 6.06-2.75 12.23-3.93 18.55 2.72 24.93 18.46 48.86 47.06 71.15 52.82 41.16 144.41 73 257.89 89.56 110.49 16.15 203.13.32 243.85-41.18" class="cls-7"/><path d="M566.51 279.22a135.35 135.35 0 0 0 11.11-27.25 1.09 1.09 0 0 0-.31-.18 1.27 1.27 0 0 0-1.6.59c-27.11 52.38-131 71.18-264.62 47.91-110.66-19.28-199.18-51.42-249.22-90.42-30.1-23.45-44.53-47.91-42.9-72.72a1.25 1.25 0 0 0-.49-1.07 1.22 1.22 0 0 0-.55-.26 1.17 1.17 0 0 0-.42.09c-2.39 7.86-4.57 16-6.48 24.41 2.12 24.84 17.67 48.8 46.45 71.23 52.78 41.13 145.53 73.57 254.48 89 125.93 17.82 216 3.09 254.58-41.37" class="cls-7"/><path d="M576.51 255.92a116.52 116.52 0 0 0 4.37-18.91s0-.11-.06-.14a1.05 1.05 0 0 0-.34-.2 1.28 1.28 0 0 0-1.55.59c-27.63 51.72-127.19 68.62-266.33 45.21-107.18-18.05-197.52-50.86-247.82-90.06-27.26-21.25-41.59-43.26-42.61-65.41a1.24 1.24 0 0 0-.48-.94 1.33 1.33 0 0 0-.61-.26c-.1 0-.18 0-.28.06-1.49 4.38-2.91 8.87-4.25 13.44-.63 25.08 14 49.4 43.77 72.6 50.37 39.26 139.29 71.54 250.39 90.89 132.68 23.1 236.26 4.64 265.8-46.87" class="cls-7"/><path d="M580.45 239.53a110.13 110.13 0 0 0 1.62-18.37 1.44 1.44 0 0 0-.4-.18 1.26 1.26 0 0 0-1.39.93c-13.65 50.19-132.47 69.36-270.51 43.65-103-19.2-190-52-238.7-89.89-31.7-24.71-45.2-50.1-39-73.41a1.27 1.27 0 0 0-.45-1.33 1.41 1.41 0 0 0-.34-.19 1.18 1.18 0 0 0-.46 0 259 259 0 0 0-11 27.95c1.65 22.38 16.16 44.48 43.38 65.69 50.62 39.45 141.36 72.46 249 90.57 139.28 23.43 239.3 6.42 268.29-45.44" class="cls-7"/><path d="M581.94 224.87a108.46 108.46 0 0 0-.7-17.14 1.07 1.07 0 0 0-.39-.14 1.27 1.27 0 0 0-1.29 1c-9.58 50.26-122.91 66.6-269.48 38.84-101.67-19.23-187.21-51.49-234.69-88.5-28.47-22.19-41.52-45.26-37.75-66.71.1-.58.22-1.16.35-1.74a1.44 1.44 0 0 0-.48-1.39 1.05 1.05 0 0 0-.29-.17 1.3 1.3 0 0 0-.44 0c-2.67 4.86-5.18 10-7.57 15.38-4.76 23.76 9 49 40.31 73.38 49 38.16 136.37 71.11 239.79 90.37 137.23 25.58 255.71 6.56 272.63-43.18" class="cls-7"/><path d="M581.51 211.05a112.49 112.49 0 0 0-3.58-20.16 1.49 1.49 0 0 0-.45-.15 1.27 1.27 0 0 0-1.19 1c-1.74 10.27-8.1 19.29-18.89 26.8-38.41 26.77-126.8 31.25-230.73 11.7-106-19.93-197.61-53.91-245.07-90.9-25.51-19.88-36.81-39.23-33.6-57.52a45.6 45.6 0 0 1 5.6-14.92 1.28 1.28 0 0 0-.33-1.64l-.06-.05c-.12-.07-.26 0-.38-.08-.95 1.14-2 2.21-2.89 3.38a156.72 156.72 0 0 0-14.85 23.52c-3.78 22.36 9.59 46.16 38.71 68.85 47.8 37.26 133.73 69.69 235.78 89 146.09 27.65 259.54 11.25 271.93-38.89" class="cls-7"/><path d="M558.91 220.65c11-7.67 17.53-16.92 19.62-27.44a122.93 122.93 0 0 0-6.06-17.61c-.12 0-.22-.11-.34-.09a1.27 1.27 0 0 0-1 1.21c0 .71-.07 1.4-.15 2.08-1.12 9.11-6.44 17.09-15.81 23.72-38.12 27-139.56 29.47-246.7 6-95.39-20.89-177.48-52.95-219.57-85.75-24.31-18.95-34.74-37.34-31-54.67.91-4.22 3.31-8.77 7.11-13.48a1.27 1.27 0 0 0-.13-1.74l-.08-.06c-.09-.07-.21-.06-.31-.1a149.41 149.41 0 0 0-14.2 15.51 47.86 47.86 0 0 0-4.71 13.21c-3.39 19.28 8.23 39.44 34.53 59.94 47.77 37.23 139.79 71.39 246.18 91.41 104.59 19.67 193.74 15 232.66-12.14" class="cls-7"/><path d="M556.59 204.59c10-7.07 15.65-15.64 16.86-25.48 0-.38.06-.79.08-1.17a148.68 148.68 0 0 0-15.35-28.15c-.18 0-.36-.14-.52 0a1.28 1.28 0 0 0-.51 1.65c2.31 4.78 3.35 8.68 3.11 11.58-.64 7.46-4.85 14.09-12.51 19.69-35.23 25.74-139 26.64-246.67 2.14-89.15-20.28-162.13-48.94-200.22-78.62-22.59-17.61-32.42-35.17-28.41-50.77 1.4-5.43 5.38-11.06 11.84-16.73 1.22-.86 2.47-1.7 3.72-2.52a1.26 1.26 0 0 0 .35-1.76 1.07 1.07 0 0 0-.27-.29c-.06-.05-.14 0-.2 0a157.54 157.54 0 0 0-27 22.08c-2.71 3.94-4.74 7.77-5.52 11.38-4 18.36 6.79 37.59 31.93 57.19 42.37 33 124.83 65.27 220.57 86.24 107.79 23.61 210.05 21 248.71-6.41" class="cls-7"/><path d="M549.24 184.72c8.28-6 12.84-13.29 13.54-21.52.23-2.6-.42-5.79-1.89-9.54a184.07 184.07 0 0 0-17.44-22.8c-.24 0-.47-.16-.67 0a1.27 1.27 0 0 0-.3 1.7c3.89 6 5.61 11.11 5.1 15.16-.76 6.14-4.54 11.65-11.24 16.39-32.75 23.23-125.4 24.32-225.31 2.66-87.76-19-159.49-46.62-196.78-75.69C93.92 75.24 84.74 59.4 87.71 45.3c1.28-6.09 5.44-11.59 12.35-16.35a1.27 1.27 0 0 0 .35-1.71 1 1 0 0 0-.3-.33s0 0-.07 0a168.37 168.37 0 0 0-20.72 13.12c-4.9 5-8.07 9.93-9.32 14.79-4.28 16.66 5.84 35.12 29.3 53.4 38.94 30.35 110.4 58.43 201.21 79.09 110.11 25 212.4 24 248.73-2.57" class="cls-7"/><path d="M537.81 166.17c7.29-5.17 11.42-11.28 12.28-18.14.48-3.82-.76-8.35-3.51-13.43a240.93 240.93 0 0 0-33.82-32.44c-.15.08-.32.1-.44.23a1.28 1.28 0 0 0 .05 1.74c10.87 10.74 16.11 19.84 15.2 26.35-.73 5.19-4 9.81-9.66 13.73-29.46 20.35-116.57 19.52-211.82-2-79.86-18.05-141.72-41.93-174.22-67.26-18-14-25.68-27.42-23-39.91 1.36-6.38 5.86-11.85 13.36-16.26a1.27 1.27 0 0 0 .52-1.61 1.44 1.44 0 0 0-.35-.46 188.78 188.78 0 0 0-27.65 13.25c-5.15 4.44-8.39 9.39-9.53 14.82-3.24 15.34 6 31.59 27.46 48.32 37.58 29.29 109.68 57 197.8 76.15 100.55 21.8 194 20.54 227.31-3.06" class="cls-7"/><path d="M519.36 146.3c6.27-4.34 9.88-9.55 10.72-15.48.9-6.4-3-14.41-11.51-23.86-2.56-2.15-5.09-4.32-7.75-6.39a429.84 429.84 0 0 0-38.48-26.61c-.15.1-.33.15-.42.3a1.26 1.26 0 0 0 .28 1.7 200.9 200.9 0 0 1 6.8 5.05c16.25 12.67 24.54 23.61 23.35 30.81-.72 4.32-3.5 8.14-8.24 11.35-25.05 16.89-103.14 15.14-189.91-4.24-68.39-15.29-124.28-37-153.35-59.7-15.22-11.86-22.06-23.3-19.79-33.1 1.56-6.68 7.69-12.1 18.27-16.1a1.28 1.28 0 0 0 .76-1.57.9.9 0 0 0-.25-.36 223.87 223.87 0 0 0-31.11 10c-6.76 4.56-11 10-12.35 16.34-2.92 13.51 5.13 27.79 23.91 42.43 32.78 25.55 95 49.61 175.2 67.74 95.9 21.69 183.84 22.35 213.84 1.64" class="cls-7"/><path d="M481.44 79.74a477.27 477.27 0 0 0-47.87-27.19c-.13.1-.28.15-.36.3a1.26 1.26 0 0 0 .34 1.59 1 1 0 0 0 .15.11 163.69 163.69 0 0 1 19.71 12.94c12.36 9.63 18.3 18.56 16.72 25.13-5.39 22.34-79.67 24.35-165.6 4.44-57.18-13.24-107.71-33.17-131.88-52-11.38-8.87-16.54-17.18-14.95-24 2.08-9 15.57-15.51 38-18.31a1.26 1.26 0 0 0 1.11-1.38 1.36 1.36 0 0 0-.25-.44 277.7 277.7 0 0 0-51.87 8.57c-9 4.18-14.5 9.52-16 16.12-2.51 10.83 4.64 23.16 20.69 35.67 29.36 22.88 85.63 44.81 154.37 60.17 88.78 19.84 165.89 21.39 191.88 3.86 5.34-3.6 8.48-8 9.31-13 1.69-10.21-11.59-23.18-23.43-32.52" class="cls-7"/><path d="M472.58 93.2c1.86-7.7-4.23-17.28-17.62-27.71-3.25-2.54-7-5.13-11.1-7.72a521.54 521.54 0 0 0-71-30.67c-.11.13-.26.2-.33.36a1.26 1.26 0 0 0 .42 1.43 1.13 1.13 0 0 0 .32.19c19.76 7.6 35.65 15.85 45.94 23.88 9.18 7.15 13.38 13.73 12.15 19-3.94 17-61.13 18.36-127.48 3-44.11-10.21-83.32-25.74-102.33-40.55-8.77-6.84-12.78-13.17-11.59-18.3 2-8.8 18.7-13.95 45.68-14.14a1.28 1.28 0 0 0 1.27-1.25c0-.17-.15-.28-.21-.44a346 346 0 0 0-51.61 1.61c-17.58 3.56-27.89 9.85-29.9 18.53-1.86 8 3.48 16.95 15.86 26.6 24.81 19.34 74.48 39 132.87 52.48 90.23 20.89 162.73 18.17 168.62-6.33" class="cls-7"/><path d="M433.86 72.54c1.5-6.4-2.9-13.67-13-21.58-7.38-5.75-17.69-11.66-30.06-17.31C335.8 12.29 276.94.12 222.51.02c-20.54 1.66-32.95 7-34.92 15.56-1.46 6.24 2.75 13.26 12.5 20.86 19.27 15 58.86 30.74 103.32 41 70 16.19 126.1 14.09 130.5-4.91M303.27 51.87c-29.52-7-55.24-17.05-67.15-26.33-4.93-3.83-7.19-7.3-6.55-10 2.15-9.08 35.61-11.46 82-.53 28.48 6.72 53.79 16.83 66.05 26.38 5.31 4.14 7.76 7.84 7.08 10.71-2 8.65-33.75 11-81.43-.2" class="cls-7"/><path d="M387.16 52.64c.94-4-1.75-8.44-8-13.29-12.52-9.76-38.21-20.05-67-26.83-39.34-9.28-81.91-10.92-85.05 2.4-.91 3.81 1.61 8.06 7.45 12.61 12.17 9.48 38.29 19.76 68.13 26.78 39.58 9.34 81.3 11.76 84.47-1.67m-35-12.75c-3.91 2.89-20.55 3-44.79-2.52-18.88-4.25-35.44-10.41-42.19-15.67-1.88-1.47-2.92-2.85-2.86-3.78 0-.15 0-.61.79-1.16 4-3 21.15-3.23 45 2.15 18.34 4.15 34.71 10.34 41.7 15.8 2 1.59 3.16 3.06 3.09 4.05 0 .15-.05.6-.75 1.13" class="cls-7"/><path d="M355.41 38.94c.15-1.95-1.18-4-4.05-6.24-7.26-5.66-24-12-42.7-16.25-22.3-5-41.65-5.75-47.08-1.72a4 4 0 0 0-1.8 3c-.14 1.9 1.11 3.84 3.83 6 7 5.46 24 11.81 43.18 16.15 18.94 4.27 40.78 6.58 46.85 2.07a4 4 0 0 0 1.77-3" class="cls-7"/></g></g></g></svg>