<svg xmlns="http://www.w3.org/2000/svg" data-name="Telia Pebble Icon segments RGB x50" viewBox="0 0 518.4 583.88"><defs><style>.cls-1{fill:#d22db9}.cls-3{fill:#990ae3}.cls-5{fill:#9b009b}.cls-7{fill:#00cdcd}.cls-9{fill:#ff3264}.cls-10{fill:#00cdff}.cls-13{fill:#fff}</style></defs><g data-name="29"><path d="M454.52 464.52c-.09-.12-.13-.26-.25-.34a1.23 1.23 0 0 0-.91-.18 1.29 1.29 0 0 0-.8.52 330.3 330.3 0 0 1-84.45 83.3c-25.44 17.45-48.91 28.32-69.77 32.32a88.22 88.22 0 0 1-10.31 1.41h-.14a1.26 1.26 0 0 0-1 1.22c0 .17.11.28.16.42a119.55 119.55 0 0 0 34-1.19c45.94-8.81 95.49-51.92 133.46-117.5" class="cls-1"/><path d="M449.31 473.42a430.88 430.88 0 0 0 29.75-58.26c-.1-.13-.16-.27-.31-.34s-.42.34-.66.39-1.25 1.63-1.44 2c-21.69 42.39-70.19 102.62-136.67 138-19.54 10.4-37.64 17.25-53.8 20.35a92.24 92.24 0 0 1-22.72 1.75 1.15 1.15 0 0 0-.32 0 1.28 1.28 0 0 0-1 1c0 .15.07.28.09.42a166.82 166.82 0 0 0 29.75 4.74c2.29-.28 4.56-.47 6.88-.92 21.21-4.06 45-15.08 70.72-32.72a334.78 334.78 0 0 0 79.73-76.41" class="cls-1"/><path d="M486.88 393.91a1.24 1.24 0 0 0-.71-.08 1.26 1.26 0 0 0-.91.71c-42.23 89.53-141 163.18-206.71 175.79-14.23 2.73-26.92 2.76-37.72.11a1.41 1.41 0 0 0-.54 0 1 1 0 0 0-.93 1.38 223.24 223.24 0 0 0 26.86 8 96.84 96.84 0 0 0 20.39-1.73c16.42-3.15 34.75-10.09 54.51-20.61 62.58-33.34 109.7-90.05 133.47-132.2 4.48-10 8.72-20.31 12.63-31-.12-.11-.17-.26-.34-.32" class="cls-1"/><path d="M501.87 345.12a295.77 295.77 0 0 1-28 60c-44.8 73.71-137.79 144.52-207.28 157.85-20.43 3.92-37.28 3.73-51.07-2.4a5.46 5.46 0 0 0-1.49-.42c-.38.08-.5-.26-.67.12a1.15 1.15 0 0 0 0 .52 280 280 0 0 0 31.74 13c10.12 1.71 21.44 1.48 34-.92 64.83-12.43 161.19-83.58 205.31-171a493.6 493.6 0 0 0 18.16-57.34Z" class="cls-1"/><path d="M505.55 329.74a1.38 1.38 0 0 0-.57 0 1.31 1.31 0 0 0-1 .84 298.58 298.58 0 0 1-28.12 60.93c-46.65 76.75-145 150.77-219.22 165-21.49 4.12-39.76 3-54.31-3.24a1.32 1.32 0 0 0-.73-.08 1.26 1.26 0 0 0-.9.69c-.09.16 0 .33 0 .5 6.74 3.59 13.47 6.84 20.18 9.84 13 4 28.42 4.61 46.18 1.21 71.29-13.68 163.07-83.52 209-159 10.85-17.86 18-35.69 24-52.71q3.14-11.71 5.81-23.71c-.11-.08-.18-.21-.32-.25" class="cls-1"/><path d="M510.53 304.21a1.19 1.19 0 0 0-.53 0 1.29 1.29 0 0 0-1 .85c-6.38 20.41-18.39 51.1-39.3 81.45-45.22 65.67-143.1 146-222.38 161.16-25.37 4.87-47.64 3-65.52-5.82a1.26 1.26 0 0 0-.8-.12 1.24 1.24 0 0 0-.86.64c-.05.07 0 .15 0 .22q12.78 7.83 25.63 14.42c14.31 5 31.42 5.8 51.34 2 74.84-14.35 173.94-88.9 220.92-166.18a299.62 299.62 0 0 0 26.09-55.24c2.56-10.8 4.85-21.81 6.76-33.08a1.26 1.26 0 0 0-.38-.27" class="cls-1"/><path d="M513.22 286.51a1.2 1.2 0 0 0-.5 0 1.29 1.29 0 0 0-1 .85c-11.16 35.67-26.73 66.36-47.59 93.81-59.59 78.42-155.21 145.38-227.35 159.21-25.15 4.82-46.76 3.26-64.27-4.65a1.15 1.15 0 0 0-.75-.09 1.23 1.23 0 0 0-.87.64c-.07.12 0 .25-.05.39 5.18 3.37 10.39 6.62 15.61 9.69 17.38 7 37.93 8.28 61.34 3.79 79.93-15.32 178.52-96.14 224.01-162.21a308.69 308.69 0 0 0 37.82-76.61c1.49-8.1 2.82-16.27 3.94-24.58-.11-.09-.18-.21-.34-.24" class="cls-1"/><path d="M804.09 251a1.18 1.18 0 0 0-.42 0 1.25 1.25 0 0 0-1 1c-8.12 38.53-30.13 82.29-58.86 117C679.18 447.16 585 511.17 514.66 524.65c-31.28 6-57.77 3.16-78.21-9.65a1.21 1.21 0 0 0-.9-.16 1.28 1.28 0 0 0-.6.38c9.17 6.83 18.48 13.28 27.89 19.23 17.3 6.84 37.35 8.16 62.12 3.41 72.7-13.94 169-81.3 228.89-160.16 20.27-26.69 35.49-56.5 46.65-90.78q2.52-17.52 3.94-35.72c-.12-.06-.2-.18-.35-.2" style="fill:#ff00cd" transform="translate(-287.69 5.01)"/><path d="M517.31 242.15a1 1 0 0 0-.42 0 1.27 1.27 0 0 0-1 .92c-9.2 35.82-23.7 75.76-67.28 125.1-70.3 79.68-160.83 139.84-230.51 153.16-30.38 5.83-56.43 3-77.42-8.25a1.24 1.24 0 0 0-.84-.13 1.29 1.29 0 0 0-.82.56c-.08.12 0 .29-.09.43 4.56 3.54 9.17 7 13.81 10.37 20.25 10.77 45.29 13.47 74.71 7.83 70.8-13.58 165.64-77.94 230.62-156.5 27.92-33.75 49.4-75.87 58.28-113.7.56-6.46 1-13 1.37-19.56a1.27 1.27 0 0 0-.41-.23" class="cls-3"/><path d="M517.99 213.61a1.37 1.37 0 0 0-.35 0 1.31 1.31 0 0 0-1 1c-8.86 51.23-34.29 98.68-77.69 145.05-74.39 79.49-163.79 137.12-233.34 150.46-31.62 6.06-58.51 3-79.95-9.15a1.26 1.26 0 0 0-.85-.13 1.24 1.24 0 0 0-.8.52c-.08.11-.06.25-.1.37q9.21 7.77 18.73 15c21.07 10.27 46.51 12.68 75.94 7 70.19-13.46 161.23-73.9 231.94-154 42.43-48 57.52-87.26 66.84-122.46.68-11 1-22.25 1-33.6-.13-.06-.22-.16-.36-.18" class="cls-3"/><path d="M517.82 200.46a1.23 1.23 0 0 0-1.35 1c-9.62 50.89-38.52 101.47-85.91 150.32-59.36 61.23-152.25 132.29-234.97 148.15-32.28 6.19-59.73 3.14-81.61-9.09a1.24 1.24 0 0 0-.86-.14 1.19 1.19 0 0 0-.78.51 1.07 1.07 0 0 0-.1.38q7.36 6.62 14.95 12.93c21.63 11.26 48.06 14 78.9 8.09 70-13.43 160-71.37 234.69-151.19 42.77-45.7 68.11-92.52 77.6-142.91q.07-8.88-.14-17.86a1.14 1.14 0 0 0-.42-.19" class="cls-3"/><path d="M804.48 172.66a1 1 0 0 0-.3 0 1.28 1.28 0 0 0-1 1c-9.85 57.34-42.24 112.96-96.27 165.24-81.14 78.52-166.42 131-234 143.93-34.45 6.61-63.54 2.88-86.47-11.09a1.22 1.22 0 0 0-.89-.16 1.32 1.32 0 0 0-.77.46 2.59 2.59 0 0 0-.11.37q8.79 8.54 18 16.7c22.2 11.57 49.34 14.37 81 8.29C567 481.43 660.42 410 720.06 348.56c46.84-48.29 75.64-98.31 85.9-148.72-.16-8.92-.46-17.9-1.07-27a1.11 1.11 0 0 0-.41-.19" style="fill:#93f" transform="translate(-287.69 5.01)"/><path d="M515.44 161.49a.69.69 0 0 0-.25 0 1.25 1.25 0 0 0-1 1.1c-5.32 51.77-42.36 113.2-104.29 173-76 73.41-169.43 129.33-238 142.48-34.26 6.57-62 3-82.53-10.71a1.28 1.28 0 0 0-.94-.19 1.23 1.23 0 0 0-.73.43c-.09.11-.08.25-.14.37q6 6.16 12.27 12.14c23.26 13.24 52 16.69 85.9 10.19 68-13 153.76-65.74 235.24-144.59 53.59-51.85 85.94-107 96.42-163.95-.4-6.68-1-13.39-1.6-20.14a.93.93 0 0 0-.36-.14" class="cls-3"/><path d="M512.24 133.11a1.48 1.48 0 0 0-.47 0 1.17 1.17 0 0 0-.56.27 1.27 1.27 0 0 0-.46 1c-.71 57.26-43.1 128.81-113.38 191.4-87.07 77.55-170.42 127-234.7 139.37-35.5 6.81-65 2.44-87.61-13a1.22 1.22 0 0 0-.94-.2 1.25 1.25 0 0 0-.7.4 1.08 1.08 0 0 0-.16.42c5.47 6.11 11.21 12.14 17.09 18.06 21 12.9 48.46 16.21 82 9.77 69-13.23 162.91-69.41 239.26-143.14 61-58.93 98-119.53 104.57-171.15-.95-11-2.15-22-3.8-33.1l-.17-.07" class="cls-5"/><path d="M509.93 118.37c-.14 0-.25-.13-.4-.12h-.13a1.26 1.26 0 0 0-1 1.24c-.23 58.7-43.09 128.84-120.79 197.52-83.91 74.2-170.3 124.1-236.98 136.89-33.95 6.51-61.6 3.38-82.17-9.27a1.21 1.21 0 0 0-.9-.17 1.18 1.18 0 0 0-.73.43c-.07.08-.06.2-.11.3 2.92 3.43 5.91 6.81 9 10.18 23.11 14.83 52.41 18.95 87.47 12.23 64.71-12.41 148.48-62.11 235.9-140 69.28-61.69 111.53-132.14 114-189.44-.93-6.57-2-13.19-3.14-19.82" class="cls-5"/><path d="M504.44 92.95c-.15 0-.3-.14-.46-.11a1.26 1.26 0 0 0-1 1.39c7 57.29-42.1 138.54-128.24 212-86.71 74-170.35 121.59-235.53 134.09-35.78 6.86-64.08 2.78-84.1-12.14a1.29 1.29 0 0 0-1-.23.9.9 0 0 0-.83.72c5 6.39 10.22 12.73 15.68 19 20.92 12.14 48.53 15.11 82.19 8.65 67.14-12.88 154-63 238.18-137.47C466 251.05 508.9 181.69 510.77 123.01c-.76-4.59-1.46-9.18-2.35-13.8-1.1-5.72-2.45-11.12-3.94-16.32" class="cls-5"/><path d="M793.39 93.14a166.37 166.37 0 0 0-6.93-21.83.93.93 0 0 0-.43-.07h-.11a1.25 1.25 0 0 0-.9 1.43c9.89 57.54-38.08 135.24-135.12 218.79-82.84 71.34-167.71 119.4-232.85 131.89-35.93 6.89-64 2.68-83.55-12.53a1.24 1.24 0 0 0-1-.24 1.3 1.3 0 0 0-.64.32c-.09.09-.1.23-.16.34q5.42 7.58 11.34 15.13c20.49 14.35 48.8 18.27 84.31 11.45C492.94 425.26 577 377.44 664 303.18c84.74-72.29 133.74-152.21 129.36-210" style="fill:#099" transform="translate(-287.69 5.01)"/><path d="M500.13 80.18a135.66 135.66 0 0 0-13.14-26.24 1.16 1.16 0 0 0-.34.12 1.27 1.27 0 0 0-.6 1.59c21.49 54.76-32.67 145.05-138 230.05-87.18 70.39-169.45 115.71-231.6 127.63-37.38 7.17-65.22 1.93-82.76-15.6a1.28 1.28 0 0 0-1.13-.34 1.36 1.36 0 0 0-.55.25c-.12.09-.15.26-.21.38 4.33 6.95 9 13.94 14.06 20.9 20 14.73 48.23 18.81 84 11.95 65.56-12.57 150.85-60.86 234-132.47 96.13-82.78 144.29-160.08 136.26-218.22" class="cls-7"/><path d="M489.19 57.41a117.36 117.36 0 0 0-11.32-15.71s-.09-.06-.14 0a1.08 1.08 0 0 0-.37.13 1.26 1.26 0 0 0-.58 1.55c20.65 54.73-32.1 140.54-141.1 229.56-84 68.57-168 114.79-230.46 126.78-33.86 6.49-59.79 2.77-77.08-11a1.22 1.22 0 0 0-1-.25 1.28 1.28 0 0 0-.6.28c-.08.07-.08.17-.13.25q3.45 6 7.29 12c18.4 16.95 46.27 21.95 83.24 14.86 62.56-12 145.22-57.51 232.76-128.16 104.51-84.42 158.73-174.27 139.49-230.29" class="cls-7"/><path d="M479.49 43.66a110.75 110.75 0 0 0-12.72-13.29 1.41 1.41 0 0 0-.39.19 1.26 1.26 0 0 0-.22 1.66c28.69 43.22-35 145-145 231.66-82.14 64.7-163.85 108.46-224.35 120.05-39.38 7.55-67.29 1-80.73-19a1.27 1.27 0 0 0-1.29-.54 1.82 1.82 0 0 0-.37.13 1.7 1.7 0 0 0-.29.36 256.72 256.72 0 0 0 13.76 26.6c17.88 13.48 44 17.11 77.81 10.63 62.87-12.06 147.27-58.46 231.57-127.3C446.38 185.74 499.36 99.5 479.49 43.66" class="cls-3"/><path d="M469.46 32.91a107.41 107.41 0 0 0-13.32-10.74 1.07 1.07 0 0 0-.36.2 1.29 1.29 0 0 0-.09 1.64c31.43 40.22-30.79 136-148 227.74-81.25 63.65-161.67 106.64-220.64 118-35.36 6.78-61.26 1.41-74.87-15.51-.37-.47-.72-.93-1.08-1.41a1.43 1.43 0 0 0-1.36-.56.89.89 0 0 0-.31.11 1.05 1.05 0 0 0-.31.32c1.9 5.19 4.11 10.46 6.57 15.79 14.69 19.18 42.67 25.43 81.55 18 60.82-11.67 143-55.6 225.4-120.54 109.38-86.18 173-187.58 146.77-233" class="cls-3"/><path d="M746.52 19.12A111.14 111.14 0 0 0 729 8.56c-.14.08-.3.11-.4.24a1.25 1.25 0 0 0 0 1.58c6.56 8.06 9.15 18.76 7.7 31.79-5.12 46.41-59.84 115.69-142.81 180.83-84.62 66.45-170.33 112.86-229.28 124.16-31.67 6.08-53.62 1.85-65.24-12.58a45.72 45.72 0 0 1-7.51-14 1.28 1.28 0 0 0-1.45-.83h-.08c-.13 0-.2.16-.31.23.23 1.46.36 2.93.64 4.39a157.1 157.1 0 0 0 7.89 26.6c14.29 17.52 40.94 23.13 77.11 16.2 59.36-11.39 140.18-54.55 221.74-118.44C713.76 157.28 776 61.37 746.52 19.12" style="fill:#e12364" transform="translate(-287.69 5.01)"/><path d="M451.17 47.42c1.48-13.3-1.17-24.27-7.7-32.75a121.87 121.87 0 0 0-17.2-7c-.09.07-.23.09-.28.2a1.22 1.22 0 0 0 .22 1.56c.52.49 1 1 1.46 1.49 6.1 6.82 8.59 16.07 7.41 27.46-4.77 46.32-69.61 124.05-157.63 189.03-78.37 57.85-156.37 98.38-208.64 108.4-30.2 5.79-50.85 1.54-61.4-12.66-2.57-3.46-4.41-8.25-5.44-14.2a1.28 1.28 0 0 0-1.39-1h-.1c-.11 0-.18.12-.27.17a147.26 147.26 0 0 0 2.3 20.85 47.45 47.45 0 0 0 6.8 12.19c12.24 15.22 35 19.75 67.68 13.48 59.32-11.37 145.45-57.98 230.38-124.63 83.5-65.56 138.6-135.51 143.8-182.57" class="cls-3"/><path d="M437.59 38.61c1.25-12.13-1.45-22-8-29.4-.26-.28-.55-.56-.82-.83a148.66 148.66 0 0 0-31.22-7c-.1.14-.33.18-.36.37a1.27 1.27 0 0 0 .9 1.47c5.11 1.41 8.72 3.18 10.73 5.27 5.18 5.39 7.39 12.91 6.56 22.33-3.84 43.35-71.34 121.79-160.5 186.51-73.81 53.57-143.27 89.5-190.58 98.57-28.07 5.38-47.7 1.21-56.77-12-3.15-4.62-4.76-11.31-4.77-19.88.16-1.49.35-3 .55-4.45a1.26 1.26 0 0 0-1.08-1.42 1.13 1.13 0 0 0-.41 0c-.07 0-.08.12-.14.14a156.83 156.83 0 0 0-1.21 34.72c1.17 4.62 2.71 8.66 4.91 11.62 11.18 15 32.67 19.62 63.9 13.63 52.63-10.1 131-50.78 209.67-108.84C367.5 164.08 432.74 85.61 437.59 38.61" class="cls-9"/><path d="M417.85 31.07c.91-10.19-1.54-18.37-7.25-24.31-1.8-1.88-4.63-3.49-8.4-4.85a185 185 0 0 0-28.57-1.9c-.15.19-.43.25-.45.5a1.27 1.27 0 0 0 1.13 1.34c7.07 1 12 3.1 14.73 6.14 4.1 4.61 5.76 11.06 4.91 19.2-4.14 39.82-64.22 110.09-146.13 170.82-71.95 53.35-139.79 89-186.11 97.92-25.26 4.85-43.18 1.33-51.8-10.17-3.73-5-5.12-11.7-4.15-20a1.27 1.27 0 0 0-1.05-1.39 1.14 1.14 0 0 0-.45 0s0 0-.05.05a168.87 168.87 0 0 0-3.78 24.16c.53 7 2.16 12.59 5 16.72 9.68 14.16 30.19 18.7 59.33 13.11 48.36-9.28 116.39-44.45 191.58-99 91.13-66.18 157.57-143.63 161.51-188.34" class="cls-9"/><path d="M396.42 27.45c.9-8.87-1-16-5.54-21.14-2.57-2.87-6.77-4.92-12.39-6.19a240.07 240.07 0 0 0-46.56 4.06 1.17 1.17 0 0 0-.12.48 1.27 1.27 0 0 0 1.34 1.11c15.2-1.1 25.48 1 29.75 5.91 3.42 4 4.76 9.43 4 16.27-4.1 35.48-62 100.3-140.73 157.62-66 48.07-124.61 78.79-165 86.53-22.29 4.28-37.45 1.25-45.05-9-3.89-5.22-5-12.19-3.41-20.72a1.27 1.27 0 0 0-.87-1.44 1.44 1.44 0 0 0-.58 0 188.06 188.06 0 0 0-8.23 29.45c-.05 6.79 1.54 12.47 4.86 16.9 9.38 12.51 27.65 16.26 54.31 11.14 46.67-8.97 114.87-44.83 187.11-98.42 82.45-61.1 142.93-132.06 147.11-172.56" class="cls-9"/><path d="M369.38 28.24c.87-7.56-.67-13.7-4.56-18.22-4.22-4.88-12.78-7.23-25.51-7.01-3.29.51-6.58 1-9.88 1.62a430 430 0 0 0-45.23 11.38 1.29 1.29 0 0 0 0 .51 1.25 1.25 0 0 0 1.45.91h.05c2.84-.67 5.6-1.27 8.26-1.78 20.19-3.87 33.84-2.9 38.46 2.73 2.77 3.38 3.81 8 3.1 13.64-3.78 29.9-56.41 87.35-128 139.72-56.45 41.27-109.5 68.88-145.61 75.8-18.9 3.63-32 1.24-37.84-6.91-4-5.55-4-13.72-.08-24.29a1.27 1.27 0 0 0-.67-1.6 1.35 1.35 0 0 0-.44 0 222.85 222.85 0 0 0-12.93 29.94c-1 8.06.28 14.79 4.14 20 8.22 11.02 24.22 14.33 47.55 9.9 40.73-7.81 99.67-38.69 166-86.95 79.27-57.72 137.57-123.27 141.74-159.39" class="cls-9"/><path d="M294.52 12.95a475 475 0 0 0-51.87 18 1.08 1.08 0 0 0 1.41 1.26h.18a163.38 163.38 0 0 1 22.67-6.29c15.34-2.94 25.95-1.53 29.84 4 13.22 18.73-34.09 75.78-105.5 127.18-47.51 34.21-95.68 59-125.69 64.79-14.13 2.71-23.76 1.13-27.86-4.57-5.39-7.48-1.4-21.88 11.22-40.52a1.27 1.27 0 0 0-.32-1.74 1.19 1.19 0 0 0-.49-.1 277.76 277.76 0 0 0-27.66 44.55c-2.77 9.5-2.38 17.14 1.56 22.62 6.49 9 20.44 11.74 40.37 7.92 36.46-7 89.9-34.8 146.6-76.29 73.23-53.59 125.07-110.43 129-141.45.8-6.37-.43-11.61-3.66-15.55-6.55-8-25-6.54-39.8-3.79" class="cls-10"/><path d="M298.8 28.44c-4.56-6.46-15.75-8.18-32.38-5-4 .78-8.48 1.92-13.08 3.26a518.14 518.14 0 0 0-69.65 33.1c0 .16 0 .32.05.47a1.25 1.25 0 0 0 1.35.63 1.18 1.18 0 0 0 .35-.11c18.69-9.78 35.32-16.32 48.11-18.78 11.41-2.18 19.1-1 22.25 3.38 10.17 14.14-26.4 57.94-81.49 97.62-36.65 26.4-74.08 45.61-97.68 50.14-10.89 2.09-18.29.94-21.35-3.32-5.26-7.32 1.82-23.2 19.42-43.58a1.28 1.28 0 0 0-.11-1.77c-.14-.11-.31-.07-.47-.13a345.19 345.19 0 0 0-32.72 39.79c-8.87 15.52-10.92 27.4-5.73 34.61 4.78 6.65 15 8.53 30.38 5.58 30.81-5.91 78.18-30.29 126.71-65.22 74.95-53.95 120.55-110.1 106.04-130.67" class="cls-10"/><path d="M257.85 43.92c-3.82-5.33-12.16-6.81-24.78-4.39-9.15 1.76-20.37 5.62-32.74 11.19-52.19 27.29-100.02 63.4-135.83 104.17-12.25 16.51-16.38 29.36-11.28 36.43 3.73 5.2 11.76 6.65 23.88 4.33 23.92-4.59 61.74-24 98.67-50.57 58.14-41.89 93.44-85.37 82.08-101.16m-101.35 84.4c-24.62 17.58-49.09 30.26-63.88 33.09-6.12 1.17-10.21.6-11.83-1.68-5.41-7.58 14.8-34.25 53.49-61.87 23.76-17 48-29.32 63.2-32.23 6.59-1.27 11-.67 12.69 1.72 5.15 7.22-13.9 32.58-53.67 61" class="cls-10"/><path d="M212.23 65.89c-2.36-3.31-7.49-4.24-15.23-2.75-15.55 3-40.15 15.5-64.18 32.66-32.81 23.42-62 54.29-54.09 65.4 2.27 3.18 7.11 4.08 14.36 2.69 15.12-2.9 40-15.74 64.87-33.52 33-23.56 62.26-53.28 54.27-64.48m-32.6 17.9c-.39 4.83-11.27 17.36-31.32 32-15.6 11.37-31.1 19.75-39.48 21.36-2.34.44-4.06.32-4.72-.34a1.54 1.54 0 0 1-.35-1.35c.41-5 11.48-18 31.2-32.36 15.16-11 30.56-19.25 39.26-20.92 2.52-.48 4.37-.36 5.06.35a1.45 1.45 0 0 1 .35 1.31" class="cls-10"/><path d="M181.08 80.71c-1.37-1.4-3.78-1.75-7.34-1.06-9 1.73-24.84 10.12-40.27 21.36-18.43 13.42-31.68 27.48-32.23 34.19a4 4 0 0 0 1.08 3.33c1.33 1.35 3.61 1.69 7 1 8.71-1.67 24.61-10.23 40.49-21.79 15.65-11.36 31.73-26.23 32.34-33.73a4 4 0 0 0-1.07-3.29" class="cls-10"/><g style="mask:url(#mask)"><g style="opacity:.3"><path d="M454.52 464.52c-.09-.12-.13-.26-.25-.34a1.23 1.23 0 0 0-.91-.18 1.29 1.29 0 0 0-.8.52 330.3 330.3 0 0 1-84.45 83.3c-25.44 17.45-48.91 28.32-69.77 32.32a88.22 88.22 0 0 1-10.31 1.41h-.14a1.26 1.26 0 0 0-1 1.22c0 .17.11.28.16.42a119.55 119.55 0 0 0 34-1.19c45.94-8.81 95.49-51.92 133.46-117.5" class="cls-13"/><path d="M449.31 473.42a430.88 430.88 0 0 0 29.75-58.26c-.1-.13-.16-.27-.31-.34s-.42.34-.66.39-1.25 1.63-1.44 2c-21.69 42.39-70.19 102.62-136.67 138-19.54 10.4-37.64 17.25-53.8 20.35a92.24 92.24 0 0 1-22.72 1.75 1.15 1.15 0 0 0-.32 0 1.28 1.28 0 0 0-1 1c0 .15.07.28.09.42a166.82 166.82 0 0 0 29.75 4.74c2.29-.28 4.56-.47 6.88-.92 21.21-4.06 45-15.08 70.72-32.72a334.78 334.78 0 0 0 79.73-76.41" class="cls-13"/><path d="M486.88 393.91a1.24 1.24 0 0 0-.71-.08 1.26 1.26 0 0 0-.91.71c-42.23 89.53-141 163.18-206.71 175.79-14.23 2.73-26.92 2.76-37.72.11a1.41 1.41 0 0 0-.54 0 1 1 0 0 0-.93 1.38 223.24 223.24 0 0 0 26.86 8 96.84 96.84 0 0 0 20.39-1.73c16.42-3.15 34.75-10.09 54.51-20.61 62.58-33.34 109.7-90.05 133.47-132.2 4.48-10 8.72-20.31 12.63-31-.12-.11-.17-.26-.34-.32" class="cls-13"/><path d="M501.87 345.12a295.77 295.77 0 0 1-28 60c-44.8 73.71-137.79 144.52-207.28 157.85-20.43 3.92-37.28 3.73-51.07-2.4a5.46 5.46 0 0 0-1.49-.42c-.38.08-.5-.26-.67.12a1.15 1.15 0 0 0 0 .52 280 280 0 0 0 31.74 13c10.12 1.71 21.44 1.48 34-.92 64.83-12.43 161.19-83.58 205.31-171a493.6 493.6 0 0 0 18.16-57.34Z" class="cls-13"/><path d="M505.55 329.74a1.38 1.38 0 0 0-.57 0 1.31 1.31 0 0 0-1 .84 298.58 298.58 0 0 1-28.12 60.93c-46.65 76.75-145 150.77-219.22 165-21.49 4.12-39.76 3-54.31-3.24a1.32 1.32 0 0 0-.73-.08 1.26 1.26 0 0 0-.9.69c-.09.16 0 .33 0 .5 6.74 3.59 13.47 6.84 20.18 9.84 13 4 28.42 4.61 46.18 1.21 71.29-13.68 163.07-83.52 209-159 10.85-17.86 18-35.69 24-52.71q3.14-11.71 5.81-23.71c-.11-.08-.18-.21-.32-.25" class="cls-13"/><path d="M510.53 304.21a1.19 1.19 0 0 0-.53 0 1.29 1.29 0 0 0-1 .85c-6.38 20.41-18.39 51.1-39.3 81.45-45.22 65.67-143.1 146-222.38 161.16-25.37 4.87-47.64 3-65.52-5.82a1.26 1.26 0 0 0-.8-.12 1.24 1.24 0 0 0-.86.64c-.05.07 0 .15 0 .22q12.78 7.83 25.63 14.42c14.31 5 31.42 5.8 51.34 2 74.84-14.35 173.94-88.9 220.92-166.18a299.62 299.62 0 0 0 26.09-55.24c2.56-10.8 4.85-21.81 6.76-33.08a1.26 1.26 0 0 0-.38-.27" class="cls-13"/><path d="M513.22 286.51a1.2 1.2 0 0 0-.5 0 1.29 1.29 0 0 0-1 .85c-11.16 35.67-26.73 66.36-47.59 93.81-59.59 78.42-155.21 145.38-227.35 159.21-25.15 4.82-46.76 3.26-64.27-4.65a1.15 1.15 0 0 0-.75-.09 1.23 1.23 0 0 0-.87.64c-.07.12 0 .25-.05.39 5.18 3.37 10.39 6.62 15.61 9.69 17.38 7 37.93 8.28 61.34 3.79 79.93-15.32 178.52-96.14 224.01-162.21a308.69 308.69 0 0 0 37.82-76.61c1.49-8.1 2.82-16.27 3.94-24.58-.11-.09-.18-.21-.34-.24" class="cls-13"/><path d="M516.4 256.01a1.18 1.18 0 0 0-.42 0 1.25 1.25 0 0 0-1 1c-8.12 38.53-30.13 82.29-58.86 117-64.63 78.16-158.81 142.17-229.15 155.65-31.28 6-57.77 3.16-78.21-9.65a1.21 1.21 0 0 0-.9-.16 1.28 1.28 0 0 0-.6.38c9.17 6.83 18.48 13.28 27.89 19.23 17.3 6.84 37.35 8.16 62.12 3.41 72.7-13.94 169-81.3 228.89-160.16 20.27-26.69 35.49-56.5 46.65-90.78q2.52-17.52 3.94-35.72c-.12-.06-.2-.18-.35-.2" class="cls-13"/><path d="M517.31 242.15a1 1 0 0 0-.42 0 1.27 1.27 0 0 0-1 .92c-9.2 35.82-23.7 75.76-67.28 125.1-70.3 79.68-160.83 139.84-230.51 153.16-30.38 5.83-56.43 3-77.42-8.25a1.24 1.24 0 0 0-.84-.13 1.29 1.29 0 0 0-.82.56c-.08.12 0 .29-.09.43 4.56 3.54 9.17 7 13.81 10.37 20.25 10.77 45.29 13.47 74.71 7.83 70.8-13.58 165.64-77.94 230.62-156.5 27.92-33.75 49.4-75.87 58.28-113.7.56-6.46 1-13 1.37-19.56a1.27 1.27 0 0 0-.41-.23" class="cls-13"/><path d="M517.99 213.61a1.37 1.37 0 0 0-.35 0 1.31 1.31 0 0 0-1 1c-8.86 51.23-34.29 98.68-77.69 145.05-74.39 79.49-163.79 137.12-233.34 150.46-31.62 6.06-58.51 3-79.95-9.15a1.26 1.26 0 0 0-.85-.13 1.24 1.24 0 0 0-.8.52c-.08.11-.06.25-.1.37q9.21 7.77 18.73 15c21.07 10.27 46.51 12.68 75.94 7 70.19-13.46 161.23-73.9 231.94-154 42.43-48 57.52-87.26 66.84-122.46.68-11 1-22.25 1-33.6-.13-.06-.22-.16-.36-.18" class="cls-13"/><path d="M517.82 200.46a1.23 1.23 0 0 0-1.35 1c-9.62 50.89-38.52 101.47-85.91 150.32-59.36 61.23-152.25 132.29-234.97 148.15-32.28 6.19-59.73 3.14-81.61-9.09a1.24 1.24 0 0 0-.86-.14 1.19 1.19 0 0 0-.78.51 1.07 1.07 0 0 0-.1.38q7.36 6.62 14.95 12.93c21.63 11.26 48.06 14 78.9 8.09 70-13.43 160-71.37 234.69-151.19 42.77-45.7 68.11-92.52 77.6-142.91q.07-8.88-.14-17.86a1.14 1.14 0 0 0-.42-.19" class="cls-13"/><path d="M516.79 177.67a1 1 0 0 0-.3 0 1.28 1.28 0 0 0-1 1c-9.85 57.34-42.24 112.96-96.27 165.24-81.14 78.52-166.42 131-234 143.93-34.45 6.61-63.54 2.88-86.47-11.09a1.22 1.22 0 0 0-.89-.16 1.32 1.32 0 0 0-.77.46 2.59 2.59 0 0 0-.11.37q8.79 8.54 18 16.7c22.2 11.57 49.34 14.37 81 8.29 83.33-15.97 176.75-87.4 236.39-148.84 46.84-48.29 75.64-98.31 85.9-148.72-.16-8.92-.46-17.9-1.07-27a1.11 1.11 0 0 0-.41-.19" class="cls-13"/><path d="M515.44 161.49a.69.69 0 0 0-.25 0 1.25 1.25 0 0 0-1 1.1c-5.32 51.77-42.36 113.2-104.29 173-76 73.41-169.43 129.33-238 142.48-34.26 6.57-62 3-82.53-10.71a1.28 1.28 0 0 0-.94-.19 1.23 1.23 0 0 0-.73.43c-.09.11-.08.25-.14.37q6 6.16 12.27 12.14c23.26 13.24 52 16.69 85.9 10.19 68-13 153.76-65.74 235.24-144.59 53.59-51.85 85.94-107 96.42-163.95-.4-6.68-1-13.39-1.6-20.14a.93.93 0 0 0-.36-.14" class="cls-13"/><path d="M512.24 133.11a1.48 1.48 0 0 0-.47 0 1.17 1.17 0 0 0-.56.27 1.27 1.27 0 0 0-.46 1c-.71 57.26-43.1 128.81-113.38 191.4-87.07 77.55-170.42 127-234.7 139.37-35.5 6.81-65 2.44-87.61-13a1.22 1.22 0 0 0-.94-.2 1.25 1.25 0 0 0-.7.4 1.08 1.08 0 0 0-.16.42c5.47 6.11 11.21 12.14 17.09 18.06 21 12.9 48.46 16.21 82 9.77 69-13.23 162.91-69.41 239.26-143.14 61-58.93 98-119.53 104.57-171.15-.95-11-2.15-22-3.8-33.1l-.17-.07" class="cls-13"/><path d="M509.93 118.37c-.14 0-.25-.13-.4-.12h-.13a1.26 1.26 0 0 0-1 1.24c-.23 58.7-43.09 128.84-120.79 197.52-83.91 74.2-170.3 124.1-236.98 136.89-33.95 6.51-61.6 3.38-82.17-9.27a1.21 1.21 0 0 0-.9-.17 1.18 1.18 0 0 0-.73.43c-.07.08-.06.2-.11.3 2.92 3.43 5.91 6.81 9 10.18 23.11 14.83 52.41 18.95 87.47 12.23 64.71-12.41 148.48-62.11 235.9-140 69.28-61.69 111.53-132.14 114-189.44-.93-6.57-2-13.19-3.14-19.82" class="cls-13"/><path d="M504.44 92.95c-.15 0-.3-.14-.46-.11a1.26 1.26 0 0 0-1 1.39c7 57.29-42.1 138.54-128.24 212-86.71 74-170.35 121.59-235.53 134.09-35.78 6.86-64.08 2.78-84.1-12.14a1.29 1.29 0 0 0-1-.23.9.9 0 0 0-.83.72c5 6.39 10.22 12.73 15.68 19 20.92 12.14 48.53 15.11 82.19 8.65 67.14-12.88 154-63 238.18-137.47C466 251.05 508.9 181.69 510.77 123.01c-.76-4.59-1.46-9.18-2.35-13.8-1.1-5.72-2.45-11.12-3.94-16.32" class="cls-13"/><path d="M505.7 98.15a166.37 166.37 0 0 0-6.93-21.83.93.93 0 0 0-.43-.07h-.11a1.25 1.25 0 0 0-.9 1.43c9.89 57.54-38.08 135.24-135.12 218.79-82.84 71.34-167.71 119.4-232.85 131.89-35.93 6.89-64 2.68-83.55-12.53a1.24 1.24 0 0 0-1-.24 1.3 1.3 0 0 0-.64.32c-.09.09-.1.23-.16.34q5.42 7.58 11.34 15.13c20.49 14.35 48.8 18.27 84.31 11.45 65.59-12.56 149.65-60.38 236.65-134.64 84.74-72.29 133.74-152.21 129.36-210" class="cls-13"/><path d="M500.13 80.18a135.66 135.66 0 0 0-13.14-26.24 1.16 1.16 0 0 0-.34.12 1.27 1.27 0 0 0-.6 1.59c21.49 54.76-32.67 145.05-138 230.05-87.18 70.39-169.45 115.71-231.6 127.63-37.38 7.17-65.22 1.93-82.76-15.6a1.28 1.28 0 0 0-1.13-.34 1.36 1.36 0 0 0-.55.25c-.12.09-.15.26-.21.38 4.33 6.95 9 13.94 14.06 20.9 20 14.73 48.23 18.81 84 11.95 65.56-12.57 150.85-60.86 234-132.47 96.13-82.78 144.29-160.08 136.26-218.22" class="cls-13"/><path d="M489.19 57.41a117.36 117.36 0 0 0-11.32-15.71s-.09-.06-.14 0a1.08 1.08 0 0 0-.37.13 1.26 1.26 0 0 0-.58 1.55c20.65 54.73-32.1 140.54-141.1 229.56-84 68.57-168 114.79-230.46 126.78-33.86 6.49-59.79 2.77-77.08-11a1.22 1.22 0 0 0-1-.25 1.28 1.28 0 0 0-.6.28c-.08.07-.08.17-.13.25q3.45 6 7.29 12c18.4 16.95 46.27 21.95 83.24 14.86 62.56-12 145.22-57.51 232.76-128.16 104.51-84.42 158.73-174.27 139.49-230.29" class="cls-13"/><path d="M479.49 43.66a110.75 110.75 0 0 0-12.72-13.29 1.41 1.41 0 0 0-.39.19 1.26 1.26 0 0 0-.22 1.66c28.69 43.22-35 145-145 231.66-82.14 64.7-163.85 108.46-224.35 120.05-39.38 7.55-67.29 1-80.73-19a1.27 1.27 0 0 0-1.29-.54 1.82 1.82 0 0 0-.37.13 1.7 1.7 0 0 0-.29.36 256.72 256.72 0 0 0 13.76 26.6c17.88 13.48 44 17.11 77.81 10.63 62.87-12.06 147.27-58.46 231.57-127.3C446.38 185.74 499.36 99.5 479.49 43.66" class="cls-13"/><path d="M469.46 32.91a107.41 107.41 0 0 0-13.32-10.74 1.07 1.07 0 0 0-.36.2 1.29 1.29 0 0 0-.09 1.64c31.43 40.22-30.79 136-148 227.74-81.25 63.65-161.67 106.64-220.64 118-35.36 6.78-61.26 1.41-74.87-15.51-.37-.47-.72-.93-1.08-1.41a1.43 1.43 0 0 0-1.36-.56.89.89 0 0 0-.31.11 1.05 1.05 0 0 0-.31.32c1.9 5.19 4.11 10.46 6.57 15.79 14.69 19.18 42.67 25.43 81.55 18 60.82-11.67 143-55.6 225.4-120.54 109.38-86.18 173-187.58 146.77-233" class="cls-13"/><path d="M458.83 24.13a111.14 111.14 0 0 0-17.52-10.56c-.14.08-.3.11-.4.24a1.25 1.25 0 0 0 0 1.58c6.56 8.06 9.15 18.76 7.7 31.79-5.12 46.41-59.84 115.69-142.81 180.83-84.62 66.45-170.33 112.86-229.28 124.16-31.67 6.08-53.62 1.85-65.24-12.58a45.72 45.72 0 0 1-7.51-14 1.28 1.28 0 0 0-1.45-.83h-.08c-.13 0-.2.16-.31.23.23 1.46.36 2.93.64 4.39a157.1 157.1 0 0 0 7.89 26.6c14.29 17.52 40.94 23.13 77.11 16.2 59.36-11.39 140.18-54.55 221.74-118.44 116.76-91.45 179-187.36 149.52-229.61" class="cls-13"/><path d="M451.17 47.42c1.48-13.3-1.17-24.27-7.7-32.75a121.87 121.87 0 0 0-17.2-7c-.09.07-.23.09-.28.2a1.22 1.22 0 0 0 .22 1.56c.52.49 1 1 1.46 1.49 6.1 6.82 8.59 16.07 7.41 27.46-4.77 46.32-69.61 124.05-157.63 189.03-78.37 57.85-156.37 98.38-208.64 108.4-30.2 5.79-50.85 1.54-61.4-12.66-2.57-3.46-4.41-8.25-5.44-14.2a1.28 1.28 0 0 0-1.39-1h-.1c-.11 0-.18.12-.27.17a147.26 147.26 0 0 0 2.3 20.85 47.45 47.45 0 0 0 6.8 12.19c12.24 15.22 35 19.75 67.68 13.48 59.32-11.37 145.45-57.98 230.38-124.63 83.5-65.56 138.6-135.51 143.8-182.57" class="cls-13"/><path d="M437.59 38.61c1.25-12.13-1.45-22-8-29.4-.26-.28-.55-.56-.82-.83a148.66 148.66 0 0 0-31.22-7c-.1.14-.33.18-.36.37a1.27 1.27 0 0 0 .9 1.47c5.11 1.41 8.72 3.18 10.73 5.27 5.18 5.39 7.39 12.91 6.56 22.33-3.84 43.35-71.34 121.79-160.5 186.51-73.81 53.57-143.27 89.5-190.58 98.57-28.07 5.38-47.7 1.21-56.77-12-3.15-4.62-4.76-11.31-4.77-19.88.16-1.49.35-3 .55-4.45a1.26 1.26 0 0 0-1.08-1.42 1.13 1.13 0 0 0-.41 0c-.07 0-.08.12-.14.14a156.83 156.83 0 0 0-1.21 34.72c1.17 4.62 2.71 8.66 4.91 11.62 11.18 15 32.67 19.62 63.9 13.63 52.63-10.1 131-50.78 209.67-108.84C367.5 164.08 432.74 85.61 437.59 38.61" class="cls-13"/><path d="M417.85 31.07c.91-10.19-1.54-18.37-7.25-24.31-1.8-1.88-4.63-3.49-8.4-4.85a185 185 0 0 0-28.57-1.9c-.15.19-.43.25-.45.5a1.27 1.27 0 0 0 1.13 1.34c7.07 1 12 3.1 14.73 6.14 4.1 4.61 5.76 11.06 4.91 19.2-4.14 39.82-64.22 110.09-146.13 170.82-71.95 53.35-139.79 89-186.11 97.92-25.26 4.85-43.18 1.33-51.8-10.17-3.73-5-5.12-11.7-4.15-20a1.27 1.27 0 0 0-1.05-1.39 1.14 1.14 0 0 0-.45 0s0 0-.05.05a168.87 168.87 0 0 0-3.78 24.16c.53 7 2.16 12.59 5 16.72 9.68 14.16 30.19 18.7 59.33 13.11 48.36-9.28 116.39-44.45 191.58-99 91.13-66.18 157.57-143.63 161.51-188.34" class="cls-13"/><path d="M396.42 27.45c.9-8.87-1-16-5.54-21.14-2.57-2.87-6.77-4.92-12.39-6.19a240.07 240.07 0 0 0-46.56 4.06 1.17 1.17 0 0 0-.12.48 1.27 1.27 0 0 0 1.34 1.11c15.2-1.1 25.48 1 29.75 5.91 3.42 4 4.76 9.43 4 16.27-4.1 35.48-62 100.3-140.73 157.62-66 48.07-124.61 78.79-165 86.53-22.29 4.28-37.45 1.25-45.05-9-3.89-5.22-5-12.19-3.41-20.72a1.27 1.27 0 0 0-.87-1.44 1.44 1.44 0 0 0-.58 0 188.06 188.06 0 0 0-8.23 29.45c-.05 6.79 1.54 12.47 4.86 16.9 9.38 12.51 27.65 16.26 54.31 11.14 46.67-8.97 114.87-44.83 187.11-98.42 82.45-61.1 142.93-132.06 147.11-172.56" class="cls-13"/><path d="M369.38 28.24c.87-7.56-.67-13.7-4.56-18.22-4.22-4.88-12.78-7.23-25.51-7.01-3.29.51-6.58 1-9.88 1.62a430 430 0 0 0-45.23 11.38 1.29 1.29 0 0 0 0 .51 1.25 1.25 0 0 0 1.45.91h.05c2.84-.67 5.6-1.27 8.26-1.78 20.19-3.87 33.84-2.9 38.46 2.73 2.77 3.38 3.81 8 3.1 13.64-3.78 29.9-56.41 87.35-128 139.72-56.45 41.27-109.5 68.88-145.61 75.8-18.9 3.63-32 1.24-37.84-6.91-4-5.55-4-13.72-.08-24.29a1.27 1.27 0 0 0-.67-1.6 1.35 1.35 0 0 0-.44 0 222.85 222.85 0 0 0-12.93 29.94c-1 8.06.28 14.79 4.14 20 8.22 11.02 24.22 14.33 47.55 9.9 40.73-7.81 99.67-38.69 166-86.95 79.27-57.72 137.57-123.27 141.74-159.39" class="cls-13"/><path d="M294.52 12.95a475 475 0 0 0-51.87 18 1.08 1.08 0 0 0 1.41 1.26h.18a163.38 163.38 0 0 1 22.67-6.29c15.34-2.94 25.95-1.53 29.84 4 13.22 18.73-34.09 75.78-105.5 127.18-47.51 34.21-95.68 59-125.69 64.79-14.13 2.71-23.76 1.13-27.86-4.57-5.39-7.48-1.4-21.88 11.22-40.52a1.27 1.27 0 0 0-.32-1.74 1.19 1.19 0 0 0-.49-.1 277.76 277.76 0 0 0-27.66 44.55c-2.77 9.5-2.38 17.14 1.56 22.62 6.49 9 20.44 11.74 40.37 7.92 36.46-7 89.9-34.8 146.6-76.29 73.23-53.59 125.07-110.43 129-141.45.8-6.37-.43-11.61-3.66-15.55-6.55-8-25-6.54-39.8-3.79" class="cls-13"/><path d="M298.8 28.44c-4.56-6.46-15.75-8.18-32.38-5-4 .78-8.48 1.92-13.08 3.26a518.14 518.14 0 0 0-69.65 33.1c0 .16 0 .32.05.47a1.25 1.25 0 0 0 1.35.63 1.18 1.18 0 0 0 .35-.11c18.69-9.78 35.32-16.32 48.11-18.78 11.41-2.18 19.1-1 22.25 3.38 10.17 14.14-26.4 57.94-81.49 97.62-36.65 26.4-74.08 45.61-97.68 50.14-10.89 2.09-18.29.94-21.35-3.32-5.26-7.32 1.82-23.2 19.42-43.58a1.28 1.28 0 0 0-.11-1.77c-.14-.11-.31-.07-.47-.13a345.19 345.19 0 0 0-32.72 39.79c-8.87 15.52-10.92 27.4-5.73 34.61 4.78 6.65 15 8.53 30.38 5.58 30.81-5.91 78.18-30.29 126.71-65.22 74.95-53.95 120.55-110.1 106.04-130.67" class="cls-13"/><path d="M257.85 43.92c-3.82-5.33-12.16-6.81-24.78-4.39-9.15 1.76-20.37 5.62-32.74 11.19-52.19 27.29-100.02 63.4-135.83 104.17-12.25 16.51-16.38 29.36-11.28 36.43 3.73 5.2 11.76 6.65 23.88 4.33 23.92-4.59 61.74-24 98.67-50.57 58.14-41.89 93.44-85.37 82.08-101.16m-101.35 84.4c-24.62 17.58-49.09 30.26-63.88 33.09-6.12 1.17-10.21.6-11.83-1.68-5.41-7.58 14.8-34.25 53.49-61.87 23.76-17 48-29.32 63.2-32.23 6.59-1.27 11-.67 12.69 1.72 5.15 7.22-13.9 32.58-53.67 61" class="cls-13"/><path d="M212.23 65.89c-2.36-3.31-7.49-4.24-15.23-2.75-15.55 3-40.15 15.5-64.18 32.66-32.81 23.42-62 54.29-54.09 65.4 2.27 3.18 7.11 4.08 14.36 2.69 15.12-2.9 40-15.74 64.87-33.52 33-23.56 62.26-53.28 54.27-64.48m-32.6 17.9c-.39 4.83-11.27 17.36-31.32 32-15.6 11.37-31.1 19.75-39.48 21.36-2.34.44-4.06.32-4.72-.34a1.54 1.54 0 0 1-.35-1.35c.41-5 11.48-18 31.2-32.36 15.16-11 30.56-19.25 39.26-20.92 2.52-.48 4.37-.36 5.06.35a1.45 1.45 0 0 1 .35 1.31" class="cls-13"/><path d="M181.08 80.71c-1.37-1.4-3.78-1.75-7.34-1.06-9 1.73-24.84 10.12-40.27 21.36-18.43 13.42-31.68 27.48-32.23 34.19a4 4 0 0 0 1.08 3.33c1.33 1.35 3.61 1.69 7 1 8.71-1.67 24.61-10.23 40.49-21.79 15.65-11.36 31.73-26.23 32.34-33.73a4 4 0 0 0-1.07-3.29" class="cls-13"/></g></g></g></svg>