<svg xmlns="http://www.w3.org/2000/svg" data-name="Telia Pebble Icon segments RGB x50" viewBox="0 0 582.03 505.69"><defs><style>.cls-1{fill:#ff3264}.cls-2{fill:#09f}.cls-3{fill:#00cdff}.cls-4{fill:#990ae3}.cls-5{fill:#93f}.cls-9{fill:#fff}</style></defs><g data-name="11"><path d="M246.8 498.65a1.26 1.26 0 0 0 .09-.41 1.21 1.21 0 0 0-.46-.81 1.26 1.26 0 0 0-.93-.26 331.14 331.14 0 0 1-118.63-8.55c-30-7.63-53.69-18.13-70.5-31.19a91.8 91.8 0 0 1-7.88-6.85.43.43 0 0 0-.1-.09 1.27 1.27 0 0 0-1.61 0c-.13.1-.13.26-.2.39a119.35 119.35 0 0 0 23.41 24.86c37 28.79 102.26 37.62 176.78 22.87" class="cls-1"/><path d="M236.62 500.57a432.29 432.29 0 0 0 63.57-16.1c0-.17.11-.31.06-.47s-.53-.08-.73-.23-2.06.13-2.45.22c-46.28 11.69-123.74 15-194.38-11.7-20.76-7.85-37.89-16.95-50.91-27.08a92.76 92.76 0 0 1-16.34-16 1.27 1.27 0 0 0-1.68-.3c-.14.08-.18.24-.26.35a166.53 166.53 0 0 0 16.1 25.55c1.72 1.54 3.37 3.12 5.24 4.57 17.09 13.29 41.12 23.93 71.42 31.65a335.39 335.39 0 0 0 110.36 9.5" class="cls-1"/><path d="M321.41 476.34a1.27 1.27 0 0 0-1.55-.81c-95.39 27.39-216.19 1.69-269.16-39.51-11.45-8.87-19.83-18.45-25.02-28.35a1.39 1.39 0 0 0-.35-.41 1.25 1.25 0 0 0-1.3-.16c-.17.08-.24.25-.35.37a223.44 223.44 0 0 0 11.75 25.52 96.79 96.79 0 0 0 14.79 14.22c13.22 10.29 30.58 19.51 51.57 27.44 66.51 25.11 140.4 23.11 187.87 13.15 10.49-3.23 21.07-6.86 31.73-11 0-.15.08-.29 0-.46" class="cls-1"/><path d="M368.08 455.36a296.5 296.5 0 0 1-63.71 18.55c-85.16 15-200-8.26-256-51.81-16.5-12.8-27.5-25.62-31.97-40.06a5.18 5.18 0 0 0-.67-1.4c-.31-.24-.13-.55-.53-.43-.19.06-.28.22-.41.33A281.2 281.2 0 0 0 26 413.05c5.4 8.75 13.05 17.13 23.15 25 52.23 40.62 169.57 66.18 264.59 41.63a497 497 0 0 0 55.22-24.23Z" class="cls-1"/><path d="M382.1 447.97a1.29 1.29 0 0 0-1.64-.62 298.76 298.76 0 0 1-64.5 19.11c-88.68 15.6-209.48-9.55-269.3-56.07-17.31-13.47-28.58-27.95-33.46-43.06a1.35 1.35 0 0 0-.44-.6 1.26 1.26 0 0 0-1.11-.23c-.18 0-.26.2-.4.3a322.98 322.98 0 0 0 5.93 21.71c5.56 12.5 15.32 24.47 29.63 35.6 57.44 44.67 170.76 67.65 258 52.3 20.63-3.63 38.83-10 55.6-16.75q10.88-5.33 21.73-11.29v-.4" class="cls-1"/><path d="M404.63 434.84a1.21 1.21 0 0 0-.34-.4 1.25 1.25 0 0 0-1.29-.18c-19.6 8.69-50.66 19.94-87.36 24.25-79.38 9.35-204.61-11.31-268.49-61-20.44-15.9-33.73-33.94-38.94-53.22a1.33 1.33 0 0 0-.44-.68 1.22 1.22 0 0 0-1-.23c-.08 0-.09.12-.16.16q2.55 14.79 6.09 28.84c5.7 14.09 16.4 27.51 32.45 40 60.3 46.9 182 72.27 271.3 56.57a300.3 300.3 0 0 0 58.88-16.88c9.83-5.2 19.65-10.76 29.4-16.77a1.05 1.05 0 0 0-.05-.47" class="cls-1"/><path d="M419.75 425.15a1.14 1.14 0 0 0-.34-.38 1.24 1.24 0 0 0-1.28-.18c-34.26 15.2-67.68 23.76-102.16 26.19-98.49 7-212.18-20.81-270.31-66-20.26-15.76-33.37-33.08-39-51.5a1.27 1.27 0 0 0-1.49-.86c-.14 0-.21.14-.33.22.89 6.14 1.88 12.21 3 18.18 6.24 17.7 18.85 34.05 37.71 48.72 64.38 50.07 190.47 70.92 270.35 61.51a309.81 309.81 0 0 0 82.72-22.16c7.09-4.24 14.13-8.64 21.14-13.29 0-.15 0-.28-.05-.41" class="cls-1"/><path d="M444.87 407.39a1.19 1.19 0 0 0-.28-.31 1.24 1.24 0 0 0-1.39-.09c-34.41 19.35-81.93 31.7-127.1 33-101.64 3-212.18-25.71-268.81-69.76-25.21-19.6-40.59-41.43-44.45-65.31a1.28 1.28 0 0 0-.48-.79 1.41 1.41 0 0 0-.68-.19c.92 11.42 2.22 22.7 4 33.73 6.19 17.58 18.46 33.57 38.43 49.09 58.57 45.56 173 73.55 272 66.56 33.51-2.37 66-10.63 99.24-24.88q14.92-9.69 29.52-20.66c0-.12 0-.26-.08-.39" class="cls-1"/><path d="M455.87 398.91a1.08 1.08 0 0 0-.29-.31 1.27 1.27 0 0 0-1.35-.14c-33.07 16.76-72.76 32.24-138.75 32-106.54-.31-211.68-28.72-267.82-72.38-24.48-19-39.61-40.51-45-63.8a1.25 1.25 0 0 0-1.41-1c-.15 0-.25.15-.39.21.35 5.78.77 11.55 1.32 17.27 5.27 22.38 19.8 43 43.5 61.46 57.06 44.37 168.27 73.27 270.43 70.28 43.89-1.27 89.83-12.95 124.21-31.27 5.24-3.85 10.47-7.8 15.64-11.89a1.23 1.23 0 0 0-.09-.47" class="cls-1"/><path d="M477.87 380.55a1 1 0 0 0-.24-.25 1.28 1.28 0 0 0-1.44-.09c-44.46 27.2-97 39.42-160.67 37.38-109.09-3.51-211.65-32.76-267.65-76.34-25.5-19.81-41-42.1-46-66.29a1.29 1.29 0 0 0-1.38-1c-.15 0-.23.12-.35.17q.24 12.08 1 24.07c6.2 22.67 21.21 43.43 44.92 61.87 56.56 44 162.3 72.62 269.39 72.95 64.26.21 103.79-14.36 136.47-30.61q13.16-10.18 26-21.48c-.05-.14 0-.27-.11-.39" class="cls-1"/><path d="M487.63 371.73a1.12 1.12 0 0 0-.23-.25 1.28 1.28 0 0 0-1.43-.1c-44.71 26.41-101.93 38.08-170.1 34.67-85.38-4.24-200.36-27.27-267-79.09-26-20.23-41.87-42.93-47.12-67.5a1.26 1.26 0 0 0-1.37-1c-.14 0-.23.13-.35.18-.08 6.62 0 13.22.15 19.82 5.82 23.74 21.23 45.47 46.08 64.8 56.46 43.89 159.61 73.34 269.14 76.89 62.72 2 114.75-9.85 159-36q6.74-5.82 13.36-11.91a1.07 1.07 0 0 0-.13-.44" class="cls-2"/><path d="M504.11 355.88a1.34 1.34 0 0 0-.2-.21 1.28 1.28 0 0 0-1.45-.08c-49.7 30.49-113 42.84-188.12 36.7-112.83-9.21-208.74-38.78-263.16-81.14-27.76-21.59-44.19-46-48.83-72.49a1.28 1.28 0 0 0-1.32-1c-.14 0-.23.12-.36.16-.41 8.17-.65 16.38-.67 24.6 6 24.38 21.79 46.68 47.33 66.54 67.12 52.2 182.66 75.36 268.43 79.64 67.36 3.36 124.09-8 168.86-33.62 6.61-6 13.19-12.19 19.63-18.65a1 1 0 0 0-.14-.44" class="cls-2"/><path d="M515.42 344.15a1 1 0 0 0-.19-.17 1.26 1.26 0 0 0-1.51 0c-42.52 30.21-113.3 42.93-199.3 35.8-105.55-8.76-209.49-42.16-264.72-85.11C22.09 273.2 6.45 249.9 3.19 225.4a1.32 1.32 0 0 0-.47-.84 1.27 1.27 0 0 0-.81-.26 1.66 1.66 0 0 0-.37.14q-.66 8.61-1 17.27c5.33 26.29 21.81 50.25 49.09 71.44 54.79 42.61 151.21 72.38 264.5 81.64 74.52 6.09 137.47-6 187.3-35.77q7.16-7.08 14.12-14.52a1 1 0 0 0-.13-.37" class="cls-2"/><path d="M534.68 322.99a1 1 0 0 0-.31-.35 1.22 1.22 0 0 0-.57-.25 1.28 1.28 0 0 0-1 .29c-43.62 37.33-125.56 52.71-219.2 41.14-116-14.32-208.42-44.4-260.21-84.68-28.61-22.25-44.8-47.35-48.14-74.61a1.27 1.27 0 0 0-.47-.84 1.31 1.31 0 0 0-.77-.27c-.16 0-.28.11-.42.16-1 8.17-1.73 16.47-2.31 24.82 4.16 24.34 19.84 47.23 46.89 68.27 55.58 43.23 160 76.85 266.07 85.62 84.75 7 154.84-5.22 198.11-34.38 7.62-8 15.13-16.14 22.43-24.75a.51.51 0 0 0-.07-.17" class="cls-3"/><path d="M544.27 311.49c-.07-.12-.07-.26-.18-.37l-.1-.09a1.27 1.27 0 0 0-1.61.05c-44.35 38.65-125.51 52.72-228.68 39.61-111.39-14.16-206.1-46.24-259.83-88.04-27.36-21.28-43.29-44.18-47.35-68.05a1.24 1.24 0 0 0-.47-.79 1.19 1.19 0 0 0-.8-.26c-.11 0-.19.08-.31.11-.65 4.47-1.22 9-1.74 13.49 4.1 27.21 20.37 52 48.63 74 52.14 40.55 145 70.8 261.45 85.19 92.3 11.41 173.33-3.34 218.14-39.36q6.53-7.57 12.87-15.48" class="cls-3"/><path d="M559.8 290.55c-.08-.14-.1-.31-.23-.42a1.28 1.28 0 0 0-1.72.16c-38.5 43.19-132.22 59.9-244.57 43.59-113.07-16.42-204.26-47.95-256.78-88.8-28.84-22.42-44.47-46.44-46.47-71.39a1.24 1.24 0 0 0-.49-.9 1.29 1.29 0 0 0-.7-.28 1.41 1.41 0 0 0-.38.12c-1.54 8-2.85 16.12-4 24.39 4.69 23.79 20.71 46.55 47.84 67.65 54.09 42.07 149.25 74.34 261.08 88.56 101.79 12.93 182.42-.6 227.87-38 3-3.61 6-7.17 8.85-10.9 3.58-4.61 6.75-9.19 9.7-13.76" class="cls-3"/><path d="M556.71 294.94a167.81 167.81 0 0 0 11.86-19.66 1.1 1.1 0 0 0-.23-.37l-.09-.07a1.27 1.27 0 0 0-1.67.26c-36.82 45.51-127.08 60.74-254.21 42.88-108.5-15.25-200.87-47.42-253.36-88.24-28.95-22.51-44.36-46.48-45.81-71.24a1.29 1.29 0 0 0-.48-.92 1.24 1.24 0 0 0-.67-.27c-.12 0-.23.08-.35.11-1.42 6.06-2.74 12.23-3.91 18.55 2.74 24.93 18.51 48.84 47.12 71.1 52.86 41.08 144.49 72.83 257.96 89.29 110.51 16 203.14.12 243.82-41.42" class="cls-3"/><path d="M566.56 278.86a136 136 0 0 0 11.08-27.25 1.14 1.14 0 0 0-.3-.18 1.27 1.27 0 0 0-1.6.6c-27.05 52.4-130.9 71.31-264.57 48.18-110.72-19.18-199.3-51.2-249.36-90.15-30.11-23.42-44.57-47.86-43-72.67a1.28 1.28 0 0 0-.49-1.08 1.32 1.32 0 0 0-.55-.25 1 1 0 0 0-.42.09c-2.38 7.86-4.56 16-6.45 24.42 2.14 24.84 17.71 48.77 46.52 71.18 52.82 41.08 145.6 73.41 254.57 88.74 126 17.7 216 2.87 254.54-41.63" class="cls-3"/><path d="M576.49 255.56a117.84 117.84 0 0 0 4.38-18.92c-.05 0 0-.11-.06-.14a1.22 1.22 0 0 0-.35-.2 1.28 1.28 0 0 0-1.55.6c-27.57 51.75-127.12 68.74-266.28 45.48-107.2-17.94-197.57-50.67-247.91-89.81-27.32-21.22-41.66-43.22-42.71-65.37a1.21 1.21 0 0 0-.48-.93 1.24 1.24 0 0 0-.61-.26h-.28c-1.49 4.38-2.91 8.88-4.24 13.45-.6 25.08 14.06 49.39 43.85 72.56 50.41 39.2 139.36 71.39 250.48 90.63 132.71 23 236.27 4.4 265.76-47.14" class="cls-3"/><path d="M580.43 239.15a110.08 110.08 0 0 0 1.6-18.37 1.44 1.44 0 0 0-.4-.18 1.28 1.28 0 0 0-1.4.93c-13.59 50.22-132.36 69.51-270.46 43.94-103-19.09-190.08-51.76-238.79-89.65-31.73-24.67-45.25-50.05-39.11-73.37a1.28 1.28 0 0 0-.46-1.32 1 1 0 0 0-.34-.19 1.36 1.36 0 0 0-.45 0 257.91 257.91 0 0 0-11 28c1.67 22.39 16.21 44.47 43.45 65.65 50.66 39.4 141.44 72.32 249.05 90.32 139.36 23.24 239.37 6.14 268.31-45.76" class="cls-3"/><path d="M581.87 224.49a108.45 108.45 0 0 0-.72-17.14 1 1 0 0 0-.39-.14 1.28 1.28 0 0 0-1.29 1c-9.53 50.27-122.84 66.73-269.43 39.12-101.69-19.13-187.27-51.3-234.79-88.26-28.49-22.16-41.57-45.22-37.82-66.67.1-.58.22-1.16.35-1.74a1.41 1.41 0 0 0-.48-1.39 1.05 1.05 0 0 0-.29-.17 1.3 1.3 0 0 0-.44 0c-2.66 4.86-5.17 10-7.56 15.39-4.73 23.76 9.06 49 40.39 73.33 49 38.12 136.45 71 239.88 90.13 137.29 25.43 255.75 6.29 272.59-43.46" class="cls-4"/><path d="M581.49 210.68a113.42 113.42 0 0 0-3.6-20.16 1.55 1.55 0 0 0-.46-.15 1.27 1.27 0 0 0-1.19 1.06c-1.73 10.27-8.07 19.29-18.85 26.82-38.39 26.8-126.78 31.38-230.72 11.9-106-19.83-197.67-53.72-245.17-90.66-25.52-19.81-36.85-39.15-33.63-57.44a45.84 45.84 0 0 1 5.56-14.9 1.28 1.28 0 0 0-.33-1.63h-.06c-.12-.08-.26-.05-.39-.09-.94 1.14-2 2.21-2.88 3.39a157.58 157.58 0 0 0-14.83 23.53c-3.75 22.36 9.64 46.15 38.78 68.81 47.84 37.21 133.81 69.56 235.88 88.77 146.12 27.5 259.55 11 271.89-39.17" class="cls-4"/><path d="M558.87 220.31c11-7.68 17.51-16.94 19.59-27.47a123.33 123.33 0 0 0-6.08-17.6c-.12 0-.22-.11-.34-.09a1.25 1.25 0 0 0-1 1.21c0 .71-.08 1.4-.16 2.08-1.1 9.11-6.42 17.1-15.79 23.74-38.09 27-139.52 29.61-246.69 6.25-95.44-20.79-177.53-52.77-219.68-85.53-24.33-18.92-34.78-37.3-31.06-54.63.91-4.23 3.3-8.78 7.1-13.49a1.27 1.27 0 0 0-.14-1.74l-.07-.06a.85.85 0 0 0-.31-.09 148.42 148.42 0 0 0-14.19 15.52 47.71 47.71 0 0 0-4.7 13.21c-3.37 19.28 8.27 39.44 34.6 59.91 47.8 37.17 139.86 71.25 246.26 91.15 104.66 19.56 193.77 14.82 232.66-12.37" class="cls-4"/><path d="M556.53 204.24c10-7.07 15.63-15.65 16.83-25.49 0-.38.06-.79.09-1.18a149.61 149.61 0 0 0-15.39-28.13c-.17 0-.35-.13-.52 0a1.29 1.29 0 0 0-.51 1.66c2.32 4.77 3.37 8.67 3.13 11.57-.64 7.46-4.84 14.1-12.49 19.7-35.2 25.78-138.94 26.78-246.67 2.37-89.13-20.19-162.13-48.77-200.3-78.41-22.61-17.59-32.45-35.18-28.46-50.75 1.39-5.43 5.37-11.06 11.82-16.74 1.22-.86 2.47-1.7 3.72-2.52a1.27 1.27 0 0 0 .35-1.76 1.12 1.12 0 0 0-.27-.3h-.21a157.5 157.5 0 0 0-27 22.11c-2.71 3.93-4.74 7.77-5.51 11.38-3.94 18.36 6.82 37.59 32 57.16 42.4 33 124.9 65.13 220.66 86 107.81 23.49 210.07 20.76 248.7-6.67" class="cls-5"/><path d="M549.16 184.38c8.27-6 12.82-13.3 13.52-21.53.22-2.6-.43-5.79-1.9-9.54a185.9 185.9 0 0 0-17.46-22.79c-.25 0-.48-.15-.68 0a1.26 1.26 0 0 0-.29 1.69c3.9 6 5.61 11.11 5.11 15.17-.76 6.14-4.53 11.65-11.22 16.39-32.73 23.27-125.38 24.45-225.31 2.89-87.78-18.93-159.53-46.45-196.86-75.51C93.72 75.33 84.53 59.5 87.49 45.39c1.27-6.09 5.43-11.59 12.33-16.36a1.27 1.27 0 0 0 .35-1.71 1.17 1.17 0 0 0-.3-.33s-.05 0-.07 0a168.31 168.31 0 0 0-20.71 13.16c-4.89 5-8.06 10-9.3 14.8-4.27 16.66 5.88 35.12 29.36 53.38 39 30.3 110.45 58.31 201.29 78.88 110.13 24.94 212.43 23.77 248.72-2.83" class="cls-5"/><path d="M537.71 165.84c7.28-5.18 11.41-11.29 12.26-18.15.48-3.82-.77-8.35-3.52-13.43a240.37 240.37 0 0 0-33.85-32.4 1.32 1.32 0 0 0-.44.23 1.26 1.26 0 0 0 .05 1.74c10.88 10.73 16.13 19.83 15.22 26.33-.72 5.2-4 9.82-9.64 13.75-29.44 20.37-116.55 19.63-211.83-1.81-79.87-18-141.76-41.79-174.29-67.08-18-14-25.7-27.39-23-39.89 1.36-6.37 5.86-11.85 13.35-16.27a1.26 1.26 0 0 0 .52-1.61 1.33 1.33 0 0 0-.36-.45 188.1 188.1 0 0 0-27.63 13.27c-5.14 4.45-8.38 9.4-9.51 14.83-3.23 15.34 6 31.58 27.51 48.29 37.58 29.25 109.71 56.96 197.85 75.96 100.57 21.7 194 20.35 227.31-3.29" class="cls-5"/><path d="M519.24 145.99c6.27-4.34 9.87-9.56 10.71-15.48.88-6.41-3-14.41-11.54-23.86-2.56-2.15-5.1-4.31-7.76-6.38a428.51 428.51 0 0 0-38.51-26.56c-.15.1-.32.14-.41.29a1.26 1.26 0 0 0 .27 1.7c2.38 1.7 4.66 3.38 6.8 5 16.27 12.65 24.57 23.58 23.38 30.78-.71 4.33-3.49 8.15-8.22 11.36-24.99 16.99-103.09 15.31-189.88-3.97-68.4-15.22-124.31-36.91-153.41-59.54-15.23-11.84-22.09-23.28-19.8-33.08 1.53-6.68 7.66-12.1 18.23-16.1a1.27 1.27 0 0 0 .76-1.56 1.1 1.1 0 0 0-.25-.37 223.4 223.4 0 0 0-31.1 10.06c-6.76 4.56-11 10-12.34 16.35-2.9 13.52 5.16 27.79 23.95 42.4 32.82 25.52 95.06 49.52 175.27 67.56 95.93 21.59 183.87 22.17 213.85 1.42" class="cls-5"/><path d="M481.25 79.47a478.27 478.27 0 0 0-47.9-27.14c-.12.1-.27.15-.35.3a1.25 1.25 0 0 0 .33 1.59l.15.11a165.31 165.31 0 0 1 19.73 12.92c12.37 9.62 18.32 18.54 16.75 25.11-5.37 22.35-79.65 24.43-165.6 4.61-57.19-13.17-107.75-33.05-131.93-51.82-11.39-8.86-16.56-17.16-15-24 2.07-9 15.56-15.52 37.95-18.34a1.26 1.26 0 0 0 1.1-1.38 1.17 1.17 0 0 0-.25-.45 278.55 278.55 0 0 0-51.86 8.63c-9 4.19-14.49 9.54-16 16.13-2.5 10.84 4.66 23.16 20.73 35.66 29.37 22.84 85.67 44.72 154.42 60 88.8 19.74 165.92 21.22 191.89 3.66 5.33-3.61 8.47-8 9.29-13 1.69-10.22-11.61-23.17-23.46-32.5" class="cls-5"/><path d="M514.54 116.8c1.85-7.71-4.25-17.28-17.65-27.7-3.26-2.54-7.05-5.12-11.11-7.7a519.09 519.09 0 0 0-71-30.6c-.12.13-.27.19-.33.35a1.27 1.27 0 0 0 .42 1.44 1.23 1.23 0 0 0 .32.19c19.77 7.57 35.66 15.81 46 23.82 9.19 7.15 13.39 13.72 12.16 19-3.92 17-61.11 18.42-127.47 3.14-44.15-10.15-83.37-25.64-102.39-40.43-8.78-6.83-12.8-13.16-11.62-18.28 2-8.81 18.69-14 45.68-14.19a1.29 1.29 0 0 0 1.26-1.25c0-.18-.15-.28-.21-.45A347.26 347.26 0 0 0 227 25.8c-17.57 3.58-27.88 9.89-29.88 18.57-1.85 8 3.5 17 15.88 26.58 24.84 19.31 74.53 38.88 132.94 52.35 90.25 20.8 162.74 18 168.61-6.5" style="fill:#af5aff" transform="translate(-42.13 -23.85)"/><path d="M433.67 72.32c1.49-6.4-2.92-13.66-13.08-21.57-7.38-5.74-17.72-11.6-30.08-17.27C335.46 12.15 276.62.06 222.19.02c-20.54 1.68-32.95 7.07-34.91 15.59-1.45 6.25 2.77 13.26 12.53 20.85 19.28 15 58.89 30.68 103.36 40.91 70 16.11 126.11 14 130.5-5m-130.61-20.6c-29.53-6.92-55.27-17-67.19-26.25-4.92-3.84-7.2-7.3-6.55-10 2.13-9.08 35.6-11.5 82-.61 28.5 6.69 53.81 16.77 66.08 26.31 5.31 4.13 7.77 7.83 7.09 10.7-2 8.66-33.74 11.07-81.42-.12" class="cls-5"/><path d="M386.95 52.47c.93-4-1.76-8.44-8-13.29-12.53-9.74-38.23-20.03-67.08-26.76-39.35-9.24-81.92-10.83-85 2.5-.9 3.81 1.62 8 7.47 12.6 12.18 9.47 38.3 19.72 68.15 26.71 39.6 9.3 81.32 11.67 84.48-1.76m-35.1-12.72c-3.91 2.9-20.55 3-44.79-2.47-18.85-4.23-35.41-10.37-42.21-15.63-1.88-1.46-2.92-2.84-2.86-3.77 0-.15 0-.61.79-1.16 4-3 21.15-3.25 45 2.1 18.4 4.13 34.77 10.33 41.77 15.76 2 1.58 3.16 3 3.09 4a1.47 1.47 0 0 1-.79 1.17" class="cls-5"/><path d="M355.18 38.81c.15-2-1.18-4-4.05-6.24-7.27-5.65-24.05-12-42.73-16.21-22.3-5-41.65-5.7-47.07-1.68a4 4 0 0 0-1.8 3c-.14 1.9 1.11 3.84 3.84 6 7 5.45 24 11.78 43.19 16.1 18.95 4.25 40.79 6.54 46.85 2a4 4 0 0 0 1.77-3" class="cls-5"/><g style="mask:url(#mask)"><g style="opacity:.3"><path d="M246.8 498.65a1.26 1.26 0 0 0 .09-.41 1.21 1.21 0 0 0-.46-.81 1.26 1.26 0 0 0-.93-.26 331.14 331.14 0 0 1-118.63-8.55c-30-7.63-53.69-18.13-70.5-31.19a91.8 91.8 0 0 1-7.88-6.85.43.43 0 0 0-.1-.09 1.27 1.27 0 0 0-1.61 0c-.13.1-.13.26-.2.39a119.35 119.35 0 0 0 23.41 24.86c37 28.79 102.26 37.62 176.78 22.87" class="cls-9"/><path d="M236.62 500.57a432.29 432.29 0 0 0 63.57-16.1c0-.17.11-.31.06-.47s-.53-.08-.73-.23-2.06.13-2.45.22c-46.28 11.69-123.74 15-194.38-11.7-20.76-7.85-37.89-16.95-50.91-27.08a92.76 92.76 0 0 1-16.34-16 1.27 1.27 0 0 0-1.68-.3c-.14.08-.18.24-.26.35a166.53 166.53 0 0 0 16.1 25.55c1.72 1.54 3.37 3.12 5.24 4.57 17.09 13.29 41.12 23.93 71.42 31.65a335.39 335.39 0 0 0 110.36 9.5" class="cls-9"/><path d="M321.41 476.34a1.27 1.27 0 0 0-1.55-.81c-95.39 27.39-216.19 1.69-269.16-39.51-11.45-8.87-19.83-18.45-25.02-28.35a1.39 1.39 0 0 0-.35-.41 1.25 1.25 0 0 0-1.3-.16c-.17.08-.24.25-.35.37a223.44 223.44 0 0 0 11.75 25.52 96.79 96.79 0 0 0 14.79 14.22c13.22 10.29 30.58 19.51 51.57 27.44 66.51 25.11 140.4 23.11 187.87 13.15 10.49-3.23 21.07-6.86 31.73-11 0-.15.08-.29 0-.46" class="cls-9"/><path d="M368.08 455.36a296.5 296.5 0 0 1-63.71 18.55c-85.16 15-200-8.26-256-51.81-16.5-12.8-27.5-25.62-31.97-40.06a5.18 5.18 0 0 0-.67-1.4c-.31-.24-.13-.55-.53-.43-.19.06-.28.22-.41.33A281.2 281.2 0 0 0 26 413.05c5.4 8.75 13.05 17.13 23.15 25 52.23 40.62 169.57 66.18 264.59 41.63a497 497 0 0 0 55.22-24.23Z" class="cls-9"/><path d="M382.1 447.97a1.29 1.29 0 0 0-1.64-.62 298.76 298.76 0 0 1-64.5 19.11c-88.68 15.6-209.48-9.55-269.3-56.07-17.31-13.47-28.58-27.95-33.46-43.06a1.35 1.35 0 0 0-.44-.6 1.26 1.26 0 0 0-1.11-.23c-.18 0-.26.2-.4.3a322.98 322.98 0 0 0 5.93 21.71c5.56 12.5 15.32 24.47 29.63 35.6 57.44 44.67 170.76 67.65 258 52.3 20.63-3.63 38.83-10 55.6-16.75q10.88-5.33 21.73-11.29v-.4" class="cls-9"/><path d="M404.63 434.84a1.21 1.21 0 0 0-.34-.4 1.25 1.25 0 0 0-1.29-.18c-19.6 8.69-50.66 19.94-87.36 24.25-79.38 9.35-204.61-11.31-268.49-61-20.44-15.9-33.73-33.94-38.94-53.22a1.33 1.33 0 0 0-.44-.68 1.22 1.22 0 0 0-1-.23c-.08 0-.09.12-.16.16q2.55 14.79 6.09 28.84c5.7 14.09 16.4 27.51 32.45 40 60.3 46.9 182 72.27 271.3 56.57a300.3 300.3 0 0 0 58.88-16.88c9.83-5.2 19.65-10.76 29.4-16.77a1.05 1.05 0 0 0-.05-.47" class="cls-9"/><path d="M419.75 425.15a1.14 1.14 0 0 0-.34-.38 1.24 1.24 0 0 0-1.28-.18c-34.26 15.2-67.68 23.76-102.16 26.19-98.49 7-212.18-20.81-270.31-66-20.26-15.76-33.37-33.08-39-51.5a1.27 1.27 0 0 0-1.49-.86c-.14 0-.21.14-.33.22.89 6.14 1.88 12.21 3 18.18 6.24 17.7 18.85 34.05 37.71 48.72 64.38 50.07 190.47 70.92 270.35 61.51a309.81 309.81 0 0 0 82.72-22.16c7.09-4.24 14.13-8.64 21.14-13.29 0-.15 0-.28-.05-.41" class="cls-9"/><path d="M444.87 407.39a1.19 1.19 0 0 0-.28-.31 1.24 1.24 0 0 0-1.39-.09c-34.41 19.35-81.93 31.7-127.1 33-101.64 3-212.18-25.71-268.81-69.76-25.21-19.6-40.59-41.43-44.45-65.31a1.28 1.28 0 0 0-.48-.79 1.41 1.41 0 0 0-.68-.19c.92 11.42 2.22 22.7 4 33.73 6.19 17.58 18.46 33.57 38.43 49.09 58.57 45.56 173 73.55 272 66.56 33.51-2.37 66-10.63 99.24-24.88q14.92-9.69 29.52-20.66c0-.12 0-.26-.08-.39" class="cls-9"/><path d="M455.87 398.91a1.08 1.08 0 0 0-.29-.31 1.27 1.27 0 0 0-1.35-.14c-33.07 16.76-72.76 32.24-138.75 32-106.54-.31-211.68-28.72-267.82-72.38-24.48-19-39.61-40.51-45-63.8a1.25 1.25 0 0 0-1.41-1c-.15 0-.25.15-.39.21.35 5.78.77 11.55 1.32 17.27 5.27 22.38 19.8 43 43.5 61.46 57.06 44.37 168.27 73.27 270.43 70.28 43.89-1.27 89.83-12.95 124.21-31.27 5.24-3.85 10.47-7.8 15.64-11.89a1.23 1.23 0 0 0-.09-.47" class="cls-9"/><path d="M477.87 380.55a1 1 0 0 0-.24-.25 1.28 1.28 0 0 0-1.44-.09c-44.46 27.2-97 39.42-160.67 37.38-109.09-3.51-211.65-32.76-267.65-76.34-25.5-19.81-41-42.1-46-66.29a1.29 1.29 0 0 0-1.38-1c-.15 0-.23.12-.35.17q.24 12.08 1 24.07c6.2 22.67 21.21 43.43 44.92 61.87 56.56 44 162.3 72.62 269.39 72.95 64.26.21 103.79-14.36 136.47-30.61q13.16-10.18 26-21.48c-.05-.14 0-.27-.11-.39" class="cls-9"/><path d="M487.63 371.73a1.12 1.12 0 0 0-.23-.25 1.28 1.28 0 0 0-1.43-.1c-44.71 26.41-101.93 38.08-170.1 34.67-85.38-4.24-200.36-27.27-267-79.09-26-20.23-41.87-42.93-47.12-67.5a1.26 1.26 0 0 0-1.37-1c-.14 0-.23.13-.35.18-.08 6.62 0 13.22.15 19.82 5.82 23.74 21.23 45.47 46.08 64.8 56.46 43.89 159.61 73.34 269.14 76.89 62.72 2 114.75-9.85 159-36q6.74-5.82 13.36-11.91a1.07 1.07 0 0 0-.13-.44" class="cls-9"/><path d="M504.11 355.88a1.34 1.34 0 0 0-.2-.21 1.28 1.28 0 0 0-1.45-.08c-49.7 30.49-113 42.84-188.12 36.7-112.83-9.21-208.74-38.78-263.16-81.14-27.76-21.59-44.19-46-48.83-72.49a1.28 1.28 0 0 0-1.32-1c-.14 0-.23.12-.36.16-.41 8.17-.65 16.38-.67 24.6 6 24.38 21.79 46.68 47.33 66.54 67.12 52.2 182.66 75.36 268.43 79.64 67.36 3.36 124.09-8 168.86-33.62 6.61-6 13.19-12.19 19.63-18.65a1 1 0 0 0-.14-.44" class="cls-9"/><path d="M515.42 344.15a1 1 0 0 0-.19-.17 1.26 1.26 0 0 0-1.51 0c-42.52 30.21-113.3 42.93-199.3 35.8-105.55-8.76-209.49-42.16-264.72-85.11C22.09 273.2 6.45 249.9 3.19 225.4a1.32 1.32 0 0 0-.47-.84 1.27 1.27 0 0 0-.81-.26 1.66 1.66 0 0 0-.37.14q-.66 8.61-1 17.27c5.33 26.29 21.81 50.25 49.09 71.44 54.79 42.61 151.21 72.38 264.5 81.64 74.52 6.09 137.47-6 187.3-35.77q7.16-7.08 14.12-14.52a1 1 0 0 0-.13-.37" class="cls-9"/><path d="M534.68 322.99a1 1 0 0 0-.31-.35 1.22 1.22 0 0 0-.57-.25 1.28 1.28 0 0 0-1 .29c-43.62 37.33-125.56 52.71-219.2 41.14-116-14.32-208.42-44.4-260.21-84.68-28.61-22.25-44.8-47.35-48.14-74.61a1.27 1.27 0 0 0-.47-.84 1.31 1.31 0 0 0-.77-.27c-.16 0-.28.11-.42.16-1 8.17-1.73 16.47-2.31 24.82 4.16 24.34 19.84 47.23 46.89 68.27 55.58 43.23 160 76.85 266.07 85.62 84.75 7 154.84-5.22 198.11-34.38 7.62-8 15.13-16.14 22.43-24.75a.51.51 0 0 0-.07-.17" class="cls-9"/><path d="M544.27 311.49c-.07-.12-.07-.26-.18-.37l-.1-.09a1.27 1.27 0 0 0-1.61.05c-44.35 38.65-125.51 52.72-228.68 39.61-111.39-14.16-206.1-46.24-259.83-88.04-27.36-21.28-43.29-44.18-47.35-68.05a1.24 1.24 0 0 0-.47-.79 1.19 1.19 0 0 0-.8-.26c-.11 0-.19.08-.31.11-.65 4.47-1.22 9-1.74 13.49 4.1 27.21 20.37 52 48.63 74 52.14 40.55 145 70.8 261.45 85.19 92.3 11.41 173.33-3.34 218.14-39.36q6.53-7.57 12.87-15.48" class="cls-9"/><path d="M559.8 290.55c-.08-.14-.1-.31-.23-.42a1.28 1.28 0 0 0-1.72.16c-38.5 43.19-132.22 59.9-244.57 43.59-113.07-16.42-204.26-47.95-256.78-88.8-28.84-22.42-44.47-46.44-46.47-71.39a1.24 1.24 0 0 0-.49-.9 1.29 1.29 0 0 0-.7-.28 1.41 1.41 0 0 0-.38.12c-1.54 8-2.85 16.12-4 24.39 4.69 23.79 20.71 46.55 47.84 67.65 54.09 42.07 149.25 74.34 261.08 88.56 101.79 12.93 182.42-.6 227.87-38 3-3.61 6-7.17 8.85-10.9 3.58-4.61 6.75-9.19 9.7-13.76" class="cls-9"/><path d="M556.71 294.94a167.81 167.81 0 0 0 11.86-19.66 1.1 1.1 0 0 0-.23-.37l-.09-.07a1.27 1.27 0 0 0-1.67.26c-36.82 45.51-127.08 60.74-254.21 42.88-108.5-15.25-200.87-47.42-253.36-88.24-28.95-22.51-44.36-46.48-45.81-71.24a1.29 1.29 0 0 0-.48-.92 1.24 1.24 0 0 0-.67-.27c-.12 0-.23.08-.35.11-1.42 6.06-2.74 12.23-3.91 18.55 2.74 24.93 18.51 48.84 47.12 71.1 52.86 41.08 144.49 72.83 257.96 89.29 110.51 16 203.14.12 243.82-41.42" class="cls-9"/><path d="M566.56 278.86a136 136 0 0 0 11.08-27.25 1.14 1.14 0 0 0-.3-.18 1.27 1.27 0 0 0-1.6.6c-27.05 52.4-130.9 71.31-264.57 48.18-110.72-19.18-199.3-51.2-249.36-90.15-30.11-23.42-44.57-47.86-43-72.67a1.28 1.28 0 0 0-.49-1.08 1.32 1.32 0 0 0-.55-.25 1 1 0 0 0-.42.09c-2.38 7.86-4.56 16-6.45 24.42 2.14 24.84 17.71 48.77 46.52 71.18 52.82 41.08 145.6 73.41 254.57 88.74 126 17.7 216 2.87 254.54-41.63" class="cls-9"/><path d="M576.49 255.56a117.84 117.84 0 0 0 4.38-18.92c-.05 0 0-.11-.06-.14a1.22 1.22 0 0 0-.35-.2 1.28 1.28 0 0 0-1.55.6c-27.57 51.75-127.12 68.74-266.28 45.48-107.2-17.94-197.57-50.67-247.91-89.81-27.32-21.22-41.66-43.22-42.71-65.37a1.21 1.21 0 0 0-.48-.93 1.24 1.24 0 0 0-.61-.26h-.28c-1.49 4.38-2.91 8.88-4.24 13.45-.6 25.08 14.06 49.39 43.85 72.56 50.41 39.2 139.36 71.39 250.48 90.63 132.71 23 236.27 4.4 265.76-47.14" class="cls-9"/><path d="M580.43 239.15a110.08 110.08 0 0 0 1.6-18.37 1.44 1.44 0 0 0-.4-.18 1.28 1.28 0 0 0-1.4.93c-13.59 50.22-132.36 69.51-270.46 43.94-103-19.09-190.08-51.76-238.79-89.65-31.73-24.67-45.25-50.05-39.11-73.37a1.28 1.28 0 0 0-.46-1.32 1 1 0 0 0-.34-.19 1.36 1.36 0 0 0-.45 0 257.91 257.91 0 0 0-11 28c1.67 22.39 16.21 44.47 43.45 65.65 50.66 39.4 141.44 72.32 249.05 90.32 139.36 23.24 239.37 6.14 268.31-45.76" class="cls-9"/><path d="M581.87 224.49a108.45 108.45 0 0 0-.72-17.14 1 1 0 0 0-.39-.14 1.28 1.28 0 0 0-1.29 1c-9.53 50.27-122.84 66.73-269.43 39.12-101.69-19.13-187.27-51.3-234.79-88.26-28.49-22.16-41.57-45.22-37.82-66.67.1-.58.22-1.16.35-1.74a1.41 1.41 0 0 0-.48-1.39 1.05 1.05 0 0 0-.29-.17 1.3 1.3 0 0 0-.44 0c-2.66 4.86-5.17 10-7.56 15.39-4.73 23.76 9.06 49 40.39 73.33 49 38.12 136.45 71 239.88 90.13 137.29 25.43 255.75 6.29 272.59-43.46" class="cls-9"/><path d="M581.49 210.68a113.42 113.42 0 0 0-3.6-20.16 1.55 1.55 0 0 0-.46-.15 1.27 1.27 0 0 0-1.19 1.06c-1.73 10.27-8.07 19.29-18.85 26.82-38.39 26.8-126.78 31.38-230.72 11.9-106-19.83-197.67-53.72-245.17-90.66-25.52-19.81-36.85-39.15-33.63-57.44a45.84 45.84 0 0 1 5.56-14.9 1.28 1.28 0 0 0-.33-1.63h-.06c-.12-.08-.26-.05-.39-.09-.94 1.14-2 2.21-2.88 3.39a157.58 157.58 0 0 0-14.83 23.53c-3.75 22.36 9.64 46.15 38.78 68.81 47.84 37.21 133.81 69.56 235.88 88.77 146.12 27.5 259.55 11 271.89-39.17" class="cls-9"/><path d="M558.87 220.31c11-7.68 17.51-16.94 19.59-27.47a123.33 123.33 0 0 0-6.08-17.6c-.12 0-.22-.11-.34-.09a1.25 1.25 0 0 0-1 1.21c0 .71-.08 1.4-.16 2.08-1.1 9.11-6.42 17.1-15.79 23.74-38.09 27-139.52 29.61-246.69 6.25-95.44-20.79-177.53-52.77-219.68-85.53-24.33-18.92-34.78-37.3-31.06-54.63.91-4.23 3.3-8.78 7.1-13.49a1.27 1.27 0 0 0-.14-1.74l-.07-.06a.85.85 0 0 0-.31-.09 148.42 148.42 0 0 0-14.19 15.52 47.71 47.71 0 0 0-4.7 13.21c-3.37 19.28 8.27 39.44 34.6 59.91 47.8 37.17 139.86 71.25 246.26 91.15 104.66 19.56 193.77 14.82 232.66-12.37" class="cls-9"/><path d="M556.53 204.24c10-7.07 15.63-15.65 16.83-25.49 0-.38.06-.79.09-1.18a149.61 149.61 0 0 0-15.39-28.13c-.17 0-.35-.13-.52 0a1.29 1.29 0 0 0-.51 1.66c2.32 4.77 3.37 8.67 3.13 11.57-.64 7.46-4.84 14.1-12.49 19.7-35.2 25.78-138.94 26.78-246.67 2.37-89.13-20.19-162.13-48.77-200.3-78.41-22.61-17.59-32.45-35.18-28.46-50.75 1.39-5.43 5.37-11.06 11.82-16.74 1.22-.86 2.47-1.7 3.72-2.52a1.27 1.27 0 0 0 .35-1.76 1.12 1.12 0 0 0-.27-.3h-.21a157.5 157.5 0 0 0-27 22.11c-2.71 3.93-4.74 7.77-5.51 11.38-3.94 18.36 6.82 37.59 32 57.16 42.4 33 124.9 65.13 220.66 86 107.81 23.49 210.07 20.76 248.7-6.67" class="cls-9"/><path d="M549.16 184.38c8.27-6 12.82-13.3 13.52-21.53.22-2.6-.43-5.79-1.9-9.54a185.9 185.9 0 0 0-17.46-22.79c-.25 0-.48-.15-.68 0a1.26 1.26 0 0 0-.29 1.69c3.9 6 5.61 11.11 5.11 15.17-.76 6.14-4.53 11.65-11.22 16.39-32.73 23.27-125.38 24.45-225.31 2.89-87.78-18.93-159.53-46.45-196.86-75.51C93.72 75.33 84.53 59.5 87.49 45.39c1.27-6.09 5.43-11.59 12.33-16.36a1.27 1.27 0 0 0 .35-1.71 1.17 1.17 0 0 0-.3-.33s-.05 0-.07 0a168.31 168.31 0 0 0-20.71 13.16c-4.89 5-8.06 10-9.3 14.8-4.27 16.66 5.88 35.12 29.36 53.38 39 30.3 110.45 58.31 201.29 78.88 110.13 24.94 212.43 23.77 248.72-2.83" class="cls-9"/><path d="M537.71 165.84c7.28-5.18 11.41-11.29 12.26-18.15.48-3.82-.77-8.35-3.52-13.43a240.37 240.37 0 0 0-33.85-32.4 1.32 1.32 0 0 0-.44.23 1.26 1.26 0 0 0 .05 1.74c10.88 10.73 16.13 19.83 15.22 26.33-.72 5.2-4 9.82-9.64 13.75-29.44 20.37-116.55 19.63-211.83-1.81-79.87-18-141.76-41.79-174.29-67.08-18-14-25.7-27.39-23-39.89 1.36-6.37 5.86-11.85 13.35-16.27a1.26 1.26 0 0 0 .52-1.61 1.33 1.33 0 0 0-.36-.45 188.1 188.1 0 0 0-27.63 13.27c-5.14 4.45-8.38 9.4-9.51 14.83-3.23 15.34 6 31.58 27.51 48.29 37.58 29.25 109.71 56.96 197.85 75.96 100.57 21.7 194 20.35 227.31-3.29" class="cls-9"/><path d="M519.24 145.99c6.27-4.34 9.87-9.56 10.71-15.48.88-6.41-3-14.41-11.54-23.86-2.56-2.15-5.1-4.31-7.76-6.38a428.51 428.51 0 0 0-38.51-26.56c-.15.1-.32.14-.41.29a1.26 1.26 0 0 0 .27 1.7c2.38 1.7 4.66 3.38 6.8 5 16.27 12.65 24.57 23.58 23.38 30.78-.71 4.33-3.49 8.15-8.22 11.36-24.99 16.99-103.09 15.31-189.88-3.97-68.4-15.22-124.31-36.91-153.41-59.54-15.23-11.84-22.09-23.28-19.8-33.08 1.53-6.68 7.66-12.1 18.23-16.1a1.27 1.27 0 0 0 .76-1.56 1.1 1.1 0 0 0-.25-.37 223.4 223.4 0 0 0-31.1 10.06c-6.76 4.56-11 10-12.34 16.35-2.9 13.52 5.16 27.79 23.95 42.4 32.82 25.52 95.06 49.52 175.27 67.56 95.93 21.59 183.87 22.17 213.85 1.42" class="cls-9"/><path d="M481.25 79.47a478.27 478.27 0 0 0-47.9-27.14c-.12.1-.27.15-.35.3a1.25 1.25 0 0 0 .33 1.59l.15.11a165.31 165.31 0 0 1 19.73 12.92c12.37 9.62 18.32 18.54 16.75 25.11-5.37 22.35-79.65 24.43-165.6 4.61-57.19-13.17-107.75-33.05-131.93-51.82-11.39-8.86-16.56-17.16-15-24 2.07-9 15.56-15.52 37.95-18.34a1.26 1.26 0 0 0 1.1-1.38 1.17 1.17 0 0 0-.25-.45 278.55 278.55 0 0 0-51.86 8.63c-9 4.19-14.49 9.54-16 16.13-2.5 10.84 4.66 23.16 20.73 35.66 29.37 22.84 85.67 44.72 154.42 60 88.8 19.74 165.92 21.22 191.89 3.66 5.33-3.61 8.47-8 9.29-13 1.69-10.22-11.61-23.17-23.46-32.5" class="cls-9"/><path d="M472.41 92.95c1.85-7.71-4.25-17.28-17.65-27.7-3.26-2.54-7.05-5.12-11.11-7.7a519.09 519.09 0 0 0-71-30.6c-.12.13-.27.19-.33.35a1.27 1.27 0 0 0 .42 1.44 1.23 1.23 0 0 0 .32.19c19.77 7.57 35.66 15.81 46 23.82 9.19 7.15 13.39 13.72 12.16 19-3.92 17-61.11 18.42-127.47 3.14-44.15-10.15-83.37-25.64-102.39-40.43-8.78-6.83-12.8-13.16-11.62-18.28 2-8.81 18.69-14 45.68-14.19a1.29 1.29 0 0 0 1.26-1.25c0-.18-.15-.28-.21-.45a347.26 347.26 0 0 0-51.6 1.66c-17.57 3.58-27.88 9.89-29.88 18.57-1.85 8 3.5 17 15.88 26.58 24.84 19.31 74.53 38.88 132.94 52.35 90.25 20.8 162.74 18 168.61-6.5" class="cls-9"/><path d="M433.67 72.32c1.49-6.4-2.92-13.66-13.08-21.57-7.38-5.74-17.72-11.6-30.08-17.27C335.46 12.15 276.62.06 222.19.02c-20.54 1.68-32.95 7.07-34.91 15.59-1.45 6.25 2.77 13.26 12.53 20.85 19.28 15 58.89 30.68 103.36 40.91 70 16.11 126.11 14 130.5-5m-130.61-20.6c-29.53-6.92-55.27-17-67.19-26.25-4.92-3.84-7.2-7.3-6.55-10 2.13-9.08 35.6-11.5 82-.61 28.5 6.69 53.81 16.77 66.08 26.31 5.31 4.13 7.77 7.83 7.09 10.7-2 8.66-33.74 11.07-81.42-.12" class="cls-9"/><path d="M386.95 52.47c.93-4-1.76-8.44-8-13.29-12.53-9.74-38.23-20.03-67.08-26.76-39.35-9.24-81.92-10.83-85 2.5-.9 3.81 1.62 8 7.47 12.6 12.18 9.47 38.3 19.72 68.15 26.71 39.6 9.3 81.32 11.67 84.48-1.76m-35.1-12.72c-3.91 2.9-20.55 3-44.79-2.47-18.85-4.23-35.41-10.37-42.21-15.63-1.88-1.46-2.92-2.84-2.86-3.77 0-.15 0-.61.79-1.16 4-3 21.15-3.25 45 2.1 18.4 4.13 34.77 10.33 41.77 15.76 2 1.58 3.16 3 3.09 4a1.47 1.47 0 0 1-.79 1.17" class="cls-9"/><path d="M355.18 38.81c.15-2-1.18-4-4.05-6.24-7.27-5.65-24.05-12-42.73-16.21-22.3-5-41.65-5.7-47.07-1.68a4 4 0 0 0-1.8 3c-.14 1.9 1.11 3.84 3.84 6 7 5.45 24 11.78 43.19 16.1 18.95 4.25 40.79 6.54 46.85 2a4 4 0 0 0 1.77-3" class="cls-9"/></g></g></g></svg>