<svg xmlns="http://www.w3.org/2000/svg" data-name="Telia Pebble Icon segments RGB x50" viewBox="0 0 581.74 505.97"><defs><style>.cls-1{fill:#00cdff}.cls-2{fill:#990ae3}.cls-4{fill:#00cdcd}.cls-5{fill:#af5aff}.cls-6{fill:#ff00cd}.cls-8{fill:#93f}.cls-11{fill:#fff}</style></defs><g data-name="36"><path d="M248.33 498.48c0-.15.11-.27.08-.41a1.25 1.25 0 0 0-.47-.81 1.28 1.28 0 0 0-.92-.25 331.15 331.15 0 0 1-118.66-7.77c-30-7.43-53.81-17.77-70.7-30.72a89.2 89.2 0 0 1-7.92-6.79l-.11-.1a1.28 1.28 0 0 0-1.61 0c-.12.11-.13.27-.2.4a119.94 119.94 0 0 0 23.58 24.71c37.2 28.54 102.5 36.93 176.93 21.69" class="cls-1"/><path d="M238.2 500.47a431.87 431.87 0 0 0 63.46-16.53.91.91 0 0 0 .05-.46c-.07-.27-.53-.08-.73-.23s-2.05.15-2.44.24c-46.21 12-123.64 15.79-194.46-10.41-20.8-7.72-38-16.7-51.08-26.75a92.58 92.58 0 0 1-16.45-15.85 1.25 1.25 0 0 0-.23-.23 1.28 1.28 0 0 0-1.46-.06c-.13.09-.17.24-.25.35a167.14 167.14 0 0 0 16.27 25.45c1.73 1.53 3.39 3.09 5.26 4.54 17.18 13.17 41.28 23.65 71.64 31.17a335.46 335.46 0 0 0 110.42 8.77" class="cls-1"/><path d="M322.82 475.67a1.17 1.17 0 0 0-.42-.58 1.26 1.26 0 0 0-1.13-.22c-95.21 28-216.17 3.12-269.41-37.72-11.52-8.84-20-18.32-25.21-28.18a1.28 1.28 0 0 0-1.66-.56c-.16.08-.23.24-.34.37a221.82 221.82 0 0 0 11.92 25.44 96.61 96.61 0 0 0 14.87 14.15c13.3 10.2 30.72 19.31 51.76 27.11 66.67 24.66 140.55 22.17 188 11.89q15.7-4.94 31.66-11.2c0-.16.07-.3 0-.47" class="cls-1"/><path d="M369.33 454.37a296.7 296.7 0 0 1-63.58 19c-85.06 15.55-200.06-6.93-256.34-50.11-16.55-12.7-27.63-25.44-32.23-39.85a5.2 5.2 0 0 0-.68-1.4c-.31-.23-.14-.55-.54-.42-.19 0-.28.22-.4.33A280.63 280.63 0 0 0 27 414.37c5.46 8.72 13.17 17 23.31 24.83 52.51 40.27 170 65.05 264.87 39.88a495.91 495.91 0 0 0 55.05-24.6Z" class="cls-1"/><path d="M383.33 446.9a1.19 1.19 0 0 0-.36-.44 1.3 1.3 0 0 0-1.28-.16 299.17 299.17 0 0 1-64.36 19.53c-88.57 16.19-209.54-8.16-269.66-54.29-17.4-13.35-28.77-27.75-33.75-42.83a1.42 1.42 0 0 0-.44-.6 1.25 1.25 0 0 0-1.12-.22c-.17 0-.26.2-.4.3 1.81 7.44 3.86 14.65 6.08 21.68 5.64 12.46 15.48 24.36 29.86 35.39 57.74 44.3 171.21 66.52 258.34 50.6 20.6-3.77 38.76-10.26 55.48-17.12q10.85-5.4 21.65-11.43v-.41" class="cls-1"/><path d="M405.77 433.62a1.23 1.23 0 0 0-.35-.4 1.27 1.27 0 0 0-1.29-.16c-19.53 8.81-50.53 20.27-87.19 24.83-79.32 9.87-204.68-10-268.89-59.22-20.55-15.76-33.95-33.71-39.29-53a1.26 1.26 0 0 0-.44-.67 1.28 1.28 0 0 0-1.06-.23c-.08 0-.09.13-.15.16q2.64 14.79 6.27 28.81c5.8 14 16.58 27.4 32.72 39.77 60.61 46.5 182.49 71.07 271.67 54.77a299.73 299.73 0 0 0 58.77-17.26c9.79-5.27 19.57-10.89 29.28-17a1.26 1.26 0 0 0 0-.47" class="cls-1"/><path d="M420.82 423.85a1.35 1.35 0 0 0-.33-.38 1.27 1.27 0 0 0-1.29-.16c-34.16 15.4-67.52 24.18-102 26.84-98.45 7.62-212.31-19.41-270.74-64.23-20.37-15.62-33.59-32.86-39.33-51.24a1.21 1.21 0 0 0-.44-.62 1.24 1.24 0 0 0-1.05-.23c-.14 0-.21.15-.33.23q1.39 9.19 3.14 18.15c6.36 17.66 19.07 33.93 38 48.47 64.77 49.69 190.99 69.69 270.8 59.69a309.37 309.37 0 0 0 82.58-22.71c7.06-4.28 14.07-8.73 21-13.43a.83.83 0 0 0-.05-.41" class="cls-2"/><path d="M445.79 405.91a1.25 1.25 0 0 0-1.68-.39c-34.28 19.58-81.72 32.25-126.88 33.87-101.61 3.64-212.34-24.3-269.26-68-25.34-19.44-40.86-41.17-44.89-65a1.19 1.19 0 0 0-.48-.78 1.32 1.32 0 0 0-.68-.2c1 11.42 2.37 22.69 4.18 33.71 6.4 17.51 18.77 33.41 38.83 48.81 58.88 45.17 173.47 72.39 272.48 64.75 33.49-2.59 66-11.06 99.08-25.54q14.81-9.78 29.38-20.85a1.13 1.13 0 0 0-.08-.39" class="cls-2"/><path d="M456.78 397.37a1.25 1.25 0 0 0-1.64-.44c-33 17-72.54 32.72-138.54 33-106.54.39-211.87-27.35-268.31-70.64-24.6-18.88-39.87-40.24-45.4-63.5a1.25 1.25 0 0 0-1.42-1c-.15 0-.25.15-.39.22.39 5.77.85 11.54 1.44 17.26 5.42 22.34 20.08 42.89 43.91 61.17 57.34 44 168.74 72.15 270.88 68.48 43.88-1.56 89.75-13.54 124-32.09q7.83-5.82 15.57-12a1.46 1.46 0 0 0-.1-.46" class="cls-2"/><path d="M478.61 378.85a1.9 1.9 0 0 0-.24-.25 1.3 1.3 0 0 0-1.45-.07c-44.28 27.49-96.76 40.05-160.41 38.44-109.08-2.79-211.81-31.36-268.18-74.6-25.61-19.64-41.23-41.84-46.41-66a1.25 1.25 0 0 0-.47-.73 1.22 1.22 0 0 0-.92-.25c-.14 0-.23.12-.35.17.21 8 .61 16.08 1.21 24.06 6.34 22.62 21.49 43.29 45.32 61.57 56.85 43.61 162.78 71.54 269.87 71.17 64.26-.22 103.69-15.06 136.27-31.52q13.08-10.28 25.83-21.65c0-.14 0-.27-.11-.39" class="cls-2"/><path d="M488.33 369.96a1.42 1.42 0 0 0-.24-.25 1.29 1.29 0 0 0-1.42-.08c-44.54 26.7-101.68 38.75-169.85 35.8-85.39-3.68-200.49-25.94-267.49-77.33-26.15-20.05-42.15-42.65-47.56-67.19a1.26 1.26 0 0 0-.47-.73 1.21 1.21 0 0 0-.91-.25c-.14 0-.23.13-.35.18 0 6.62 0 13.22.28 19.81 6 23.71 21.53 45.34 46.51 64.5 56.72 43.51 160 72.28 269.62 75.07 62.72 1.6 114.68-10.61 158.75-37.08q6.71-5.87 13.28-12a1.12 1.12 0 0 0-.13-.44" class="cls-2"/><path d="M504.73 354.01a1 1 0 0 0-.21-.21 1.25 1.25 0 0 0-1.44-.07c-49.51 30.82-112.75 43.64-187.88 37.95-112.89-8.47-209-37.41-263.69-79.37-27.91-21.4-44.5-45.68-49.31-72.16a1.26 1.26 0 0 0-1.33-1c-.14 0-.23.12-.35.16-.36 8.18-.55 16.39-.51 24.61 6.12 24.34 22.1 46.53 47.77 66.23 67.46 51.74 183.15 74.14 269 77.85 67.37 2.91 124-8.83 168.62-34.73 6.58-6.07 13.12-12.28 19.51-18.79a1 1 0 0 0-.13-.43" class="cls-2"/><path d="M3515.63 616.84c-.06-.07-.13-.11-.19-.17a1.27 1.27 0 0 0-1.51 0c-42.33 30.5-113 43.69-199.06 37.12-105.64-8-209.77-40.74-265.28-83.33-27.75-21.29-43.54-44.48-47-69a1.29 1.29 0 0 0-.48-.84 1.33 1.33 0 0 0-.81-.26 1.94 1.94 0 0 0-.36.15c-.41 5.75-.71 11.49-.93 17.28 5.59 26.25 22.18 50.1 49.6 71.14 55.08 42.25 151.68 71.38 265 79.88 74.55 5.6 137.42-6.92 187.06-37q7.1-7.11 14-14.61c-.05-.12 0-.26-.13-.37" style="fill:#099" transform="translate(-2999.67 -274.63)"/><path d="M535.08 320.91a1.34 1.34 0 0 0-.32-.35 1.31 1.31 0 0 0-.57-.24 1.28 1.28 0 0 0-1 .3c-43.37 37.61-125.21 53.54-218.92 42.59-116.1-13.56-208.71-43-260.77-83-28.75-22.06-45.11-47-48.63-74.29a1.2 1.2 0 0 0-.48-.83 1.23 1.23 0 0 0-.77-.26c-.15 0-.28.1-.42.16-.93 8.17-1.62 16.48-2.14 24.83 4.32 24.31 20.15 47.1 47.34 68 55.87 42.86 160.54 75.79 266.63 83.86 84.79 6.45 154.81-6.25 197.88-35.7 7.57-8 15-16.24 22.27-24.9 0-.05 0-.11-.07-.17" class="cls-4"/><path d="M544.59 309.37c-.07-.13-.07-.27-.18-.38l-.1-.08a1.26 1.26 0 0 0-1.61.06c-44.1 38.94-125.22 53.55-228.42 41.12-111.48-13.42-206.4-44.88-260.43-86.32-27.49-21.1-43.57-43.89-47.79-67.74a1.3 1.3 0 0 0-.48-.78 1.25 1.25 0 0 0-.81-.26c-.11 0-.18.09-.3.12-.62 4.47-1.16 9-1.65 13.5 4.28 27.18 20.72 51.88 49.11 73.66 52.41 40.21 145.46 69.85 262 83.46 92.37 10.8 173.3-4.49 217.87-40.8q6.47-7.62 12.77-15.56" class="cls-4"/><path d="M559.97 288.31c-.07-.14-.1-.31-.23-.41a1.26 1.26 0 0 0-1.72.17c-38.22 43.44-131.83 60.76-244.27 45.2-113.18-15.67-204.58-46.59-257.37-87.09-29-22.23-44.78-46.15-46.94-71.09a1.27 1.27 0 0 0-.5-.9 1.3 1.3 0 0 0-.7-.26.94.94 0 0 0-.38.12c-1.49 8-2.74 16.13-3.81 24.41 4.85 23.76 21 46.41 48.29 67.33 54.37 41.71 149.74 73.36 261.66 86.83 101.87 12.26 182.41-1.81 227.61-39.51 2.94-3.63 5.91-7.21 8.78-11 3.55-4.63 6.69-9.23 9.6-13.82" class="cls-4"/><path d="M556.91 292.72a165.8 165.8 0 0 0 11.74-19.74.88.88 0 0 0-.24-.36l-.08-.07a1.27 1.27 0 0 0-1.68.27c-36.51 45.75-126.67 61.55-253.92 44.55-108.63-14.53-201.18-46.09-253.93-86.56-29.1-22.32-44.67-46.19-46.28-70.93a1.23 1.23 0 0 0-.49-.92 1.24 1.24 0 0 0-.67-.27c-.12 0-.23.08-.36.11-1.37 6.07-2.65 12.25-3.78 18.57 2.91 24.92 18.83 48.73 47.59 70.79 53.14 40.76 145 71.87 258.57 87.59 110.62 15.3 203.13-1.23 243.53-43" class="cls-4"/><path d="M566.66 276.58a135.82 135.82 0 0 0 10.9-27.33 1.23 1.23 0 0 0-.32-.17 1.27 1.27 0 0 0-1.59.6c-26.7 52.58-130.42 72.18-264.24 49.94-110.83-18.44-199.6-49.87-249.94-88.49-30.27-23.22-44.89-47.57-43.45-72.38a1.24 1.24 0 0 0-.5-1.07 1.22 1.22 0 0 0-.55-.26 1.28 1.28 0 0 0-.43.1c-2.32 7.88-4.44 16-6.28 24.46 2.31 24.82 18 48.65 47 70.87 53.1 40.73 146.09 72.45 255.16 87 126.06 16.86 216.05 1.44 254.25-43.31" class="cls-4"/><path d="M576.43 253.21a117.6 117.6 0 0 0 4.23-19s0-.1-.06-.14a1.48 1.48 0 0 0-.35-.19 1.26 1.26 0 0 0-1.54.6c-27.24 51.93-126.67 69.59-266 47.25-107.32-17.23-197.91-49.36-248.5-88.17-27.42-21-41.92-42.94-43.11-65.08a1.25 1.25 0 0 0-.49-.94 1.28 1.28 0 0 0-.61-.25c-.1 0-.18 0-.27.06q-2.21 6.59-4.16 13.48c-.43 25.08 14.38 49.28 44.33 72.26 50.67 38.87 139.83 70.47 251.08 89 132.85 22.08 236.29 2.83 265.43-48.9" class="cls-4"/><path d="M580.27 236.79a111.15 111.15 0 0 0 1.47-18.39 1.1 1.1 0 0 0-.4-.17 1.25 1.25 0 0 0-1.38.94c-13.27 50.29-131.94 70.37-270.17 45.71-103.16-18.4-190.46-50.51-239.38-88.05-31.89-24.47-45.58-49.75-39.58-73.11a1.29 1.29 0 0 0-.5-1.35 1.41 1.41 0 0 0-.34-.19 1.76 1.76 0 0 0-.46 0 258.45 258.45 0 0 0-10.77 28c1.82 22.37 16.5 44.35 43.89 65.36 50.92 39.06 141.91 71.37 249.64 88.66 139.45 22.36 239.35 4.58 267.94-47.49" class="cls-4"/><path d="M581.64 222.11a108.31 108.31 0 0 0-.83-17.14.9.9 0 0 0-.39-.13 1.26 1.26 0 0 0-1.28 1c-9.2 50.34-122.4 67.54-269.18 40.91-101.81-18.46-187.59-50.07-235.36-86.71-28.63-22-41.87-44.94-38.26-66.41.1-.59.21-1.16.34-1.75a1.45 1.45 0 0 0-.49-1.39 1.22 1.22 0 0 0-.3-.16 1.07 1.07 0 0 0-.44 0c-2.62 4.88-5.1 10.05-7.45 15.44-4.57 23.79 9.38 48.91 40.87 73.06 49.27 37.79 136.92 70.07 240.48 88.54 137.42 24.53 255.75 4.6 272.29-45.26" class="cls-5"/><path d="M581.13 208.3a112.38 112.38 0 0 0-3.73-20.14 1.18 1.18 0 0 0-.45-.14 1.27 1.27 0 0 0-1.19 1.06c-1.66 10.28-7.94 19.35-18.67 27-38.21 27.05-126.57 32.21-230.63 13.46-106.16-19.12-198-52.4-245.77-89-25.66-19.68-37.11-38.94-34-57.25a45.91 45.91 0 0 1 5.49-15 1.27 1.27 0 0 0-.34-1.63l-.07-.05c-.11-.08-.25 0-.38-.08-.94 1.15-1.95 2.22-2.86 3.4a157.54 157.54 0 0 0-14.67 23.64c-3.6 22.38 9.94 46.08 39.24 68.55 48.08 36.88 134.26 68.66 236.46 87.2 146.29 26.53 259.61 9.26 271.61-41" class="cls-5"/><path d="M558.58 218.07c10.95-7.75 17.4-17.05 19.41-27.59a123.54 123.54 0 0 0-6.2-17.57c-.11 0-.22-.1-.33-.08a1.25 1.25 0 0 0-1 1.21c0 .72-.07 1.41-.14 2.09-1.05 9.12-6.31 17.14-15.63 23.84-37.91 27.3-139.33 30.54-246.65 7.89-95.54-20.16-177.87-51.59-220.21-84.07-24.45-18.76-35-37.07-31.42-54.43.88-4.23 3.24-8.8 7-13.54a1.27 1.27 0 0 0-.15-1.73l-.08-.06c-.09-.07-.21-.06-.31-.1a149.51 149.51 0 0 0-14.08 15.62 47.46 47.46 0 0 0-4.61 13.24c-3.24 19.31 8.53 39.38 35 59.68 48 36.86 140.33 70.32 246.87 89.52 104.74 18.87 193.85 13.54 232.56-13.92" class="cls-2"/><path d="M556.13 202.03c9.93-7.15 15.53-15.76 16.67-25.61 0-.38.05-.79.08-1.17a148.9 148.9 0 0 0-15.58-28c-.17 0-.35-.14-.51 0a1.28 1.28 0 0 0-.5 1.66c2.35 4.76 3.42 8.65 3.2 11.55-.59 7.47-4.75 14.13-12.36 19.79-35 26-138.76 27.7-246.64 4-89.31-19.6-162.51-47.7-200.82-77.09-22.73-17.44-32.69-34.92-28.8-50.55 1.36-5.44 5.3-11.1 11.71-16.82 1.22-.87 2.46-1.72 3.7-2.55a1.26 1.26 0 0 0 .34-1.76.94.94 0 0 0-.27-.29c-.06-.05-.15 0-.21 0a157.63 157.63 0 0 0-26.81 22.24c-2.68 3.95-4.69 7.8-5.44 11.42-3.81 18.39 7.08 37.54 32.37 56.94 42.62 32.7 125.33 64.31 221.22 84.55 108 22.78 210.21 19.37 248.65-8.31" class="cls-6"/><path d="M548.63 182.22c8.24-6.11 12.74-13.4 13.38-21.62.21-2.61-.47-5.8-2-9.53a184.67 184.67 0 0 0-17.57-22.7c-.25 0-.48-.15-.68 0a1.25 1.25 0 0 0-.28 1.69c3.94 6 5.69 11.07 5.21 15.13-.71 6.15-4.45 11.69-11.11 16.47-32.58 23.52-125.25 25.31-225.25 4.42-87.9-18.36-159.83-45.4-197.35-74.18-20.45-15.69-29.75-31.46-26.89-45.58 1.24-6.1 5.35-11.63 12.23-16.45a1.26 1.26 0 0 0 .34-1.71 1 1 0 0 0-.31-.32s-.05 0-.07 0a169.36 169.36 0 0 0-20.62 13.27c-4.86 5-8 10-9.2 14.86-4.16 16.69 6.11 35.08 29.71 53.19 39.16 30 110.84 57.57 201.81 77.54 110.29 24.2 212.57 22.37 248.69-4.47" class="cls-6"/><path d="M3536.73 438.38c7.25-5.23 11.34-11.36 12.15-18.23.45-3.82-.83-8.35-3.62-13.41a240.72 240.72 0 0 0-34.06-32.17 1.16 1.16 0 0 0-.44.23 1.27 1.27 0 0 0 .06 1.74c10.95 10.66 16.27 19.72 15.4 26.23-.69 5.2-3.9 9.85-9.55 13.81-29.31 20.57-116.42 20.41-211.84-.4-80-17.44-142-40.85-174.73-65.93-18-13.85-25.88-27.22-23.28-39.73 1.32-6.39 5.78-11.89 13.24-16.36a1.27 1.27 0 0 0 .51-1.61 1.5 1.5 0 0 0-.36-.46 188.51 188.51 0 0 0-27.55 13.46c-5.11 4.48-8.31 9.46-9.41 14.89-3.13 15.36 6.24 31.54 27.83 48.11 37.8 29 110.11 56.2 198.37 74.63 100.71 21 194.17 19.06 227.28-4.8" style="fill:#9b009b" transform="translate(-2999.67 -274.63)"/><path d="M518.46 144.03c6.24-4.39 9.81-9.63 10.6-15.56.85-6.41-3.09-14.39-11.69-23.78-2.57-2.13-5.12-4.27-7.8-6.33a430.82 430.82 0 0 0-38.68-26.31c-.15.1-.32.15-.41.3a1.26 1.26 0 0 0 .28 1.7c2.39 1.68 4.68 3.35 6.83 5 16.35 12.54 24.73 23.41 23.59 30.62-.69 4.34-3.44 8.18-8.15 11.42-24.92 17.08-103 15.93-189.94-2.79-68.5-14.76-124.56-36.08-153.81-58.52-15.3-11.74-22.23-23.13-20-32.95 1.5-6.69 7.6-12.16 18.14-16.24a1.27 1.27 0 0 0 .75-1.57 1.05 1.05 0 0 0-.25-.36 222.63 222.63 0 0 0-31 10.26c-6.72 4.61-10.89 10.06-12.22 16.43-2.81 13.54 5.34 27.75 24.23 42.24 33 25.31 95.38 48.89 175.71 66.4 96.07 21 184 21 213.85 0" class="cls-8"/><path d="M480.04 77.76a477.4 477.4 0 0 0-48.08-26.83c-.13.11-.28.16-.36.31a1.27 1.27 0 0 0 .35 1.59l.15.1a165.81 165.81 0 0 1 19.81 12.79c12.43 9.54 18.44 18.42 16.91 25-5.22 22.39-79.47 25-165.55 5.71-57.29-12.8-108-32.34-132.28-51-11.45-8.78-16.67-17.05-15.14-23.92 2-9 15.45-15.62 37.83-18.59a1.26 1.26 0 0 0 1.09-1.39 1.2 1.2 0 0 0-.25-.44 279.12 279.12 0 0 0-51.8 9c-9 4.26-14.43 9.64-15.91 16.25-2.42 10.85 4.82 23.13 21 35.51 29.52 22.65 86 44.16 154.82 59 88.93 19.16 166.05 20.12 191.9 2.39 5.31-3.64 8.42-8.06 9.21-13.1 1.62-10.23-11.77-23.09-23.67-32.34" class="cls-8"/><path d="M471.33 91.29c1.8-7.72-4.37-17.25-17.83-27.58-3.28-2.52-7.09-5.07-11.16-7.63a520.56 520.56 0 0 0-71.2-30.13c-.11.13-.26.2-.32.36a1.26 1.26 0 0 0 .43 1.43 1 1 0 0 0 .32.19c19.82 7.44 35.77 15.58 46.12 23.52 9.24 7.09 13.48 13.63 12.3 18.92-3.82 17-61 18.83-127.46 4-44.19-9.86-83.52-25.1-102.63-39.76-8.82-6.77-12.89-13.08-11.74-18.2 2-8.82 18.6-14.1 45.58-14.5A1.28 1.28 0 0 0 235 .66c0-.18-.16-.28-.22-.45a347.73 347.73 0 0 0-51.6 2c-17.54 3.7-27.81 10.08-29.75 18.77-1.79 8 3.61 16.92 16.06 26.47 25 19.15 74.78 38.39 133.28 51.47 90.38 20.2 162.85 16.92 168.56-7.62" class="cls-8"/><path d="M432.4 70.92c1.45-6.41-3-13.64-13.22-21.48-7.41-5.69-17.77-11.52-30.19-17.07C333.8 11.43 274.88-.3 220.46.02c-20.53 1.82-32.91 7.29-34.81 15.82-1.41 6.26 2.85 13.25 12.66 20.77 19.38 14.87 59.1 30.29 103.63 40.22 70.12 15.66 126.2 13.12 130.46-5.91M301.66 51.24c-29.57-6.73-55.38-16.62-67.36-25.81-4.95-3.8-7.24-7.25-6.62-10 2.08-9.1 35.52-11.74 82-1.16 28.54 6.5 53.92 16.41 66.25 25.87 5.34 4.1 7.82 7.78 7.16 10.66-2 8.67-33.66 11.29-81.42.42" class="cls-2"/><path d="M385.55 51.37c.91-4-1.81-8.42-8.08-13.23-12.6-9.67-38.37-19.75-67.23-26.32-39.4-9-82-10.29-85 3.06-.87 3.82 1.68 8 7.55 12.55 12.25 9.39 38.44 19.46 68.33 26.26 39.66 9 81.39 11.13 84.46-2.32m-35.12-12.49c-3.88 2.93-20.52 3.13-44.81-2.17-18.91-4.11-35.51-10.14-42.3-15.35-1.89-1.45-2.95-2.82-2.89-3.75 0-.15 0-.62.78-1.17 4-3 21.13-3.39 45 1.81 18.37 4 34.78 10.08 41.82 15.48 2 1.57 3.18 3 3.11 4 0 .15 0 .6-.74 1.13" class="cls-2"/><path d="M353.7 37.93c.13-2-1.21-4-4.1-6.21-7.31-5.61-24.12-11.86-42.83-15.93-22.33-4.86-41.69-5.43-47.09-1.36a4 4 0 0 0-1.77 3c-.13 1.9 1.14 3.84 3.87 5.94 7.05 5.41 24.06 11.62 43.3 15.81 19 4.13 40.83 6.27 46.87 1.72a4.06 4.06 0 0 0 1.75-3" class="cls-2"/><g style="mask:url(#mask)"><g style="opacity:.3"><path d="M248.33 498.48c0-.15.11-.27.08-.41a1.25 1.25 0 0 0-.47-.81 1.28 1.28 0 0 0-.92-.25 331.15 331.15 0 0 1-118.66-7.77c-30-7.43-53.81-17.77-70.7-30.72a89.2 89.2 0 0 1-7.92-6.79l-.11-.1a1.28 1.28 0 0 0-1.61 0c-.12.11-.13.27-.2.4a119.94 119.94 0 0 0 23.58 24.71c37.2 28.54 102.5 36.93 176.93 21.69" class="cls-11"/><path d="M238.2 500.47a431.87 431.87 0 0 0 63.46-16.53.91.91 0 0 0 .05-.46c-.07-.27-.53-.08-.73-.23s-2.05.15-2.44.24c-46.21 12-123.64 15.79-194.46-10.41-20.8-7.72-38-16.7-51.08-26.75a92.58 92.58 0 0 1-16.45-15.85 1.25 1.25 0 0 0-.23-.23 1.28 1.28 0 0 0-1.46-.06c-.13.09-.17.24-.25.35a167.14 167.14 0 0 0 16.27 25.45c1.73 1.53 3.39 3.09 5.26 4.54 17.18 13.17 41.28 23.65 71.64 31.17a335.46 335.46 0 0 0 110.42 8.77" class="cls-11"/><path d="M322.82 475.67a1.17 1.17 0 0 0-.42-.58 1.26 1.26 0 0 0-1.13-.22c-95.21 28-216.17 3.12-269.41-37.72-11.52-8.84-20-18.32-25.21-28.18a1.28 1.28 0 0 0-1.66-.56c-.16.08-.23.24-.34.37a221.82 221.82 0 0 0 11.92 25.44 96.61 96.61 0 0 0 14.87 14.15c13.3 10.2 30.72 19.31 51.76 27.11 66.67 24.66 140.55 22.17 188 11.89q15.7-4.94 31.66-11.2c0-.16.07-.3 0-.47" class="cls-11"/><path d="M369.33 454.37a296.7 296.7 0 0 1-63.58 19c-85.06 15.55-200.06-6.93-256.34-50.11-16.55-12.7-27.63-25.44-32.23-39.85a5.2 5.2 0 0 0-.68-1.4c-.31-.23-.14-.55-.54-.42-.19 0-.28.22-.4.33A280.63 280.63 0 0 0 27 414.37c5.46 8.72 13.17 17 23.31 24.83 52.51 40.27 170 65.05 264.87 39.88a495.91 495.91 0 0 0 55.05-24.6Z" class="cls-11"/><path d="M383.33 446.9a1.19 1.19 0 0 0-.36-.44 1.3 1.3 0 0 0-1.28-.16 299.17 299.17 0 0 1-64.36 19.53c-88.57 16.19-209.54-8.16-269.66-54.29-17.4-13.35-28.77-27.75-33.75-42.83a1.42 1.42 0 0 0-.44-.6 1.25 1.25 0 0 0-1.12-.22c-.17 0-.26.2-.4.3 1.81 7.44 3.86 14.65 6.08 21.68 5.64 12.46 15.48 24.36 29.86 35.39 57.74 44.3 171.21 66.52 258.34 50.6 20.6-3.77 38.76-10.26 55.48-17.12q10.85-5.4 21.65-11.43v-.41" class="cls-11"/><path d="M405.77 433.62a1.23 1.23 0 0 0-.35-.4 1.27 1.27 0 0 0-1.29-.16c-19.53 8.81-50.53 20.27-87.19 24.83-79.32 9.87-204.68-10-268.89-59.22-20.55-15.76-33.95-33.71-39.29-53a1.26 1.26 0 0 0-.44-.67 1.28 1.28 0 0 0-1.06-.23c-.08 0-.09.13-.15.16q2.64 14.79 6.27 28.81c5.8 14 16.58 27.4 32.72 39.77 60.61 46.5 182.49 71.07 271.67 54.77a299.73 299.73 0 0 0 58.77-17.26c9.79-5.27 19.57-10.89 29.28-17a1.26 1.26 0 0 0 0-.47" class="cls-11"/><path d="M420.82 423.85a1.35 1.35 0 0 0-.33-.38 1.27 1.27 0 0 0-1.29-.16c-34.16 15.4-67.52 24.18-102 26.84-98.45 7.62-212.31-19.41-270.74-64.23-20.37-15.62-33.59-32.86-39.33-51.24a1.21 1.21 0 0 0-.44-.62 1.24 1.24 0 0 0-1.05-.23c-.14 0-.21.15-.33.23q1.39 9.19 3.14 18.15c6.36 17.66 19.07 33.93 38 48.47 64.77 49.69 190.99 69.69 270.8 59.69a309.37 309.37 0 0 0 82.58-22.71c7.06-4.28 14.07-8.73 21-13.43a.83.83 0 0 0-.05-.41" class="cls-11"/><path d="M445.79 405.91a1.25 1.25 0 0 0-1.68-.39c-34.28 19.58-81.72 32.25-126.88 33.87-101.61 3.64-212.34-24.3-269.26-68-25.34-19.44-40.86-41.17-44.89-65a1.19 1.19 0 0 0-.48-.78 1.32 1.32 0 0 0-.68-.2c1 11.42 2.37 22.69 4.18 33.71 6.4 17.51 18.77 33.41 38.83 48.81 58.88 45.17 173.47 72.39 272.48 64.75 33.49-2.59 66-11.06 99.08-25.54q14.81-9.78 29.38-20.85a1.13 1.13 0 0 0-.08-.39" class="cls-11"/><path d="M456.78 397.37a1.25 1.25 0 0 0-1.64-.44c-33 17-72.54 32.72-138.54 33-106.54.39-211.87-27.35-268.31-70.64-24.6-18.88-39.87-40.24-45.4-63.5a1.25 1.25 0 0 0-1.42-1c-.15 0-.25.15-.39.22.39 5.77.85 11.54 1.44 17.26 5.42 22.34 20.08 42.89 43.91 61.17 57.34 44 168.74 72.15 270.88 68.48 43.88-1.56 89.75-13.54 124-32.09q7.83-5.82 15.57-12a1.46 1.46 0 0 0-.1-.46" class="cls-11"/><path d="M478.61 378.85a1.9 1.9 0 0 0-.24-.25 1.3 1.3 0 0 0-1.45-.07c-44.28 27.49-96.76 40.05-160.41 38.44-109.08-2.79-211.81-31.36-268.18-74.6-25.61-19.64-41.23-41.84-46.41-66a1.25 1.25 0 0 0-.47-.73 1.22 1.22 0 0 0-.92-.25c-.14 0-.23.12-.35.17.21 8 .61 16.08 1.21 24.06 6.34 22.62 21.49 43.29 45.32 61.57 56.85 43.61 162.78 71.54 269.87 71.17 64.26-.22 103.69-15.06 136.27-31.52q13.08-10.28 25.83-21.65c0-.14 0-.27-.11-.39" class="cls-11"/><path d="M488.33 369.96a1.42 1.42 0 0 0-.24-.25 1.29 1.29 0 0 0-1.42-.08c-44.54 26.7-101.68 38.75-169.85 35.8-85.39-3.68-200.49-25.94-267.49-77.33-26.15-20.05-42.15-42.65-47.56-67.19a1.26 1.26 0 0 0-.47-.73 1.21 1.21 0 0 0-.91-.25c-.14 0-.23.13-.35.18 0 6.62 0 13.22.28 19.81 6 23.71 21.53 45.34 46.51 64.5 56.72 43.51 160 72.28 269.62 75.07 62.72 1.6 114.68-10.61 158.75-37.08q6.71-5.87 13.28-12a1.12 1.12 0 0 0-.13-.44" class="cls-11"/><path d="M504.73 354.01a1 1 0 0 0-.21-.21 1.25 1.25 0 0 0-1.44-.07c-49.51 30.82-112.75 43.64-187.88 37.95-112.89-8.47-209-37.41-263.69-79.37-27.91-21.4-44.5-45.68-49.31-72.16a1.26 1.26 0 0 0-1.33-1c-.14 0-.23.12-.35.16-.36 8.18-.55 16.39-.51 24.61 6.12 24.34 22.1 46.53 47.77 66.23 67.46 51.74 183.15 74.14 269 77.85 67.37 2.91 124-8.83 168.62-34.73 6.58-6.07 13.12-12.28 19.51-18.79a1 1 0 0 0-.13-.43" class="cls-11"/><path d="M515.96 342.21c-.06-.07-.13-.11-.19-.17a1.27 1.27 0 0 0-1.51 0c-42.33 30.5-113 43.69-199.06 37.12-105.64-8-209.77-40.74-265.28-83.33-27.75-21.29-43.54-44.48-47-69a1.29 1.29 0 0 0-.48-.84 1.33 1.33 0 0 0-.81-.26 1.94 1.94 0 0 0-.36.15c-.41 5.75-.71 11.49-.93 17.28 5.59 26.25 22.18 50.1 49.6 71.14 55.08 42.25 151.68 71.38 265 79.88 74.55 5.6 137.42-6.92 187.06-37q7.1-7.11 14-14.61c-.05-.12 0-.26-.13-.37" class="cls-11"/><path d="M535.08 320.91a1.34 1.34 0 0 0-.32-.35 1.31 1.31 0 0 0-.57-.24 1.28 1.28 0 0 0-1 .3c-43.37 37.61-125.21 53.54-218.92 42.59-116.1-13.56-208.71-43-260.77-83-28.75-22.06-45.11-47-48.63-74.29a1.2 1.2 0 0 0-.48-.83 1.23 1.23 0 0 0-.77-.26c-.15 0-.28.1-.42.16-.93 8.17-1.62 16.48-2.14 24.83 4.32 24.31 20.15 47.1 47.34 68 55.87 42.86 160.54 75.79 266.63 83.86 84.79 6.45 154.81-6.25 197.88-35.7 7.57-8 15-16.24 22.27-24.9 0-.05 0-.11-.07-.17" class="cls-11"/><path d="M544.59 309.37c-.07-.13-.07-.27-.18-.38l-.1-.08a1.26 1.26 0 0 0-1.61.06c-44.1 38.94-125.22 53.55-228.42 41.12-111.48-13.42-206.4-44.88-260.43-86.32-27.49-21.1-43.57-43.89-47.79-67.74a1.3 1.3 0 0 0-.48-.78 1.25 1.25 0 0 0-.81-.26c-.11 0-.18.09-.3.12-.62 4.47-1.16 9-1.65 13.5 4.28 27.18 20.72 51.88 49.11 73.66 52.41 40.21 145.46 69.85 262 83.46 92.37 10.8 173.3-4.49 217.87-40.8q6.47-7.62 12.77-15.56" class="cls-11"/><path d="M559.97 288.31c-.07-.14-.1-.31-.23-.41a1.26 1.26 0 0 0-1.72.17c-38.22 43.44-131.83 60.76-244.27 45.2-113.18-15.67-204.58-46.59-257.37-87.09-29-22.23-44.78-46.15-46.94-71.09a1.27 1.27 0 0 0-.5-.9 1.3 1.3 0 0 0-.7-.26.94.94 0 0 0-.38.12c-1.49 8-2.74 16.13-3.81 24.41 4.85 23.76 21 46.41 48.29 67.33 54.37 41.71 149.74 73.36 261.66 86.83 101.87 12.26 182.41-1.81 227.61-39.51 2.94-3.63 5.91-7.21 8.78-11 3.55-4.63 6.69-9.23 9.6-13.82" class="cls-11"/><path d="M556.91 292.72a165.8 165.8 0 0 0 11.74-19.74.88.88 0 0 0-.24-.36l-.08-.07a1.27 1.27 0 0 0-1.68.27c-36.51 45.75-126.67 61.55-253.92 44.55-108.63-14.53-201.18-46.09-253.93-86.56-29.1-22.32-44.67-46.19-46.28-70.93a1.23 1.23 0 0 0-.49-.92 1.24 1.24 0 0 0-.67-.27c-.12 0-.23.08-.36.11-1.37 6.07-2.65 12.25-3.78 18.57 2.91 24.92 18.83 48.73 47.59 70.79 53.14 40.76 145 71.87 258.57 87.59 110.62 15.3 203.13-1.23 243.53-43" class="cls-11"/><path d="M566.66 276.58a135.82 135.82 0 0 0 10.9-27.33 1.23 1.23 0 0 0-.32-.17 1.27 1.27 0 0 0-1.59.6c-26.7 52.58-130.42 72.18-264.24 49.94-110.83-18.44-199.6-49.87-249.94-88.49-30.27-23.22-44.89-47.57-43.45-72.38a1.24 1.24 0 0 0-.5-1.07 1.22 1.22 0 0 0-.55-.26 1.28 1.28 0 0 0-.43.1c-2.32 7.88-4.44 16-6.28 24.46 2.31 24.82 18 48.65 47 70.87 53.1 40.73 146.09 72.45 255.16 87 126.06 16.86 216.05 1.44 254.25-43.31" class="cls-11"/><path d="M576.43 253.21a117.6 117.6 0 0 0 4.23-19s0-.1-.06-.14a1.48 1.48 0 0 0-.35-.19 1.26 1.26 0 0 0-1.54.6c-27.24 51.93-126.67 69.59-266 47.25-107.32-17.23-197.91-49.36-248.5-88.17-27.42-21-41.92-42.94-43.11-65.08a1.25 1.25 0 0 0-.49-.94 1.28 1.28 0 0 0-.61-.25c-.1 0-.18 0-.27.06q-2.21 6.59-4.16 13.48c-.43 25.08 14.38 49.28 44.33 72.26 50.67 38.87 139.83 70.47 251.08 89 132.85 22.08 236.29 2.83 265.43-48.9" class="cls-11"/><path d="M580.27 236.79a111.15 111.15 0 0 0 1.47-18.39 1.1 1.1 0 0 0-.4-.17 1.25 1.25 0 0 0-1.38.94c-13.27 50.29-131.94 70.37-270.17 45.71-103.16-18.4-190.46-50.51-239.38-88.05-31.89-24.47-45.58-49.75-39.58-73.11a1.29 1.29 0 0 0-.5-1.35 1.41 1.41 0 0 0-.34-.19 1.76 1.76 0 0 0-.46 0 258.45 258.45 0 0 0-10.77 28c1.82 22.37 16.5 44.35 43.89 65.36 50.92 39.06 141.91 71.37 249.64 88.66 139.45 22.36 239.35 4.58 267.94-47.49" class="cls-11"/><path d="M581.64 222.11a108.31 108.31 0 0 0-.83-17.14.9.9 0 0 0-.39-.13 1.26 1.26 0 0 0-1.28 1c-9.2 50.34-122.4 67.54-269.18 40.91-101.81-18.46-187.59-50.07-235.36-86.71-28.63-22-41.87-44.94-38.26-66.41.1-.59.21-1.16.34-1.75a1.45 1.45 0 0 0-.49-1.39 1.22 1.22 0 0 0-.3-.16 1.07 1.07 0 0 0-.44 0c-2.62 4.88-5.1 10.05-7.45 15.44-4.57 23.79 9.38 48.91 40.87 73.06 49.27 37.79 136.92 70.07 240.48 88.54 137.42 24.53 255.75 4.6 272.29-45.26" class="cls-11"/><path d="M581.13 208.3a112.38 112.38 0 0 0-3.73-20.14 1.18 1.18 0 0 0-.45-.14 1.27 1.27 0 0 0-1.19 1.06c-1.66 10.28-7.94 19.35-18.67 27-38.21 27.05-126.57 32.21-230.63 13.46-106.16-19.12-198-52.4-245.77-89-25.66-19.68-37.11-38.94-34-57.25a45.91 45.91 0 0 1 5.49-15 1.27 1.27 0 0 0-.34-1.63l-.07-.05c-.11-.08-.25 0-.38-.08-.94 1.15-1.95 2.22-2.86 3.4a157.54 157.54 0 0 0-14.67 23.64c-3.6 22.38 9.94 46.08 39.24 68.55 48.08 36.88 134.26 68.66 236.46 87.2 146.29 26.53 259.61 9.26 271.61-41" class="cls-11"/><path d="M558.58 218.07c10.95-7.75 17.4-17.05 19.41-27.59a123.54 123.54 0 0 0-6.2-17.57c-.11 0-.22-.1-.33-.08a1.25 1.25 0 0 0-1 1.21c0 .72-.07 1.41-.14 2.09-1.05 9.12-6.31 17.14-15.63 23.84-37.91 27.3-139.33 30.54-246.65 7.89-95.54-20.16-177.87-51.59-220.21-84.07-24.45-18.76-35-37.07-31.42-54.43.88-4.23 3.24-8.8 7-13.54a1.27 1.27 0 0 0-.15-1.73l-.08-.06c-.09-.07-.21-.06-.31-.1a149.51 149.51 0 0 0-14.08 15.62 47.46 47.46 0 0 0-4.61 13.24c-3.24 19.31 8.53 39.38 35 59.68 48 36.86 140.33 70.32 246.87 89.52 104.74 18.87 193.85 13.54 232.56-13.92" class="cls-11"/><path d="M556.13 202.03c9.93-7.15 15.53-15.76 16.67-25.61 0-.38.05-.79.08-1.17a148.9 148.9 0 0 0-15.58-28c-.17 0-.35-.14-.51 0a1.28 1.28 0 0 0-.5 1.66c2.35 4.76 3.42 8.65 3.2 11.55-.59 7.47-4.75 14.13-12.36 19.79-35 26-138.76 27.7-246.64 4-89.31-19.6-162.51-47.7-200.82-77.09-22.73-17.44-32.69-34.92-28.8-50.55 1.36-5.44 5.3-11.1 11.71-16.82 1.22-.87 2.46-1.72 3.7-2.55a1.26 1.26 0 0 0 .34-1.76.94.94 0 0 0-.27-.29c-.06-.05-.15 0-.21 0a157.63 157.63 0 0 0-26.81 22.24c-2.68 3.95-4.69 7.8-5.44 11.42-3.81 18.39 7.08 37.54 32.37 56.94 42.62 32.7 125.33 64.31 221.22 84.55 108 22.78 210.21 19.37 248.65-8.31" class="cls-11"/><path d="M548.63 182.22c8.24-6.11 12.74-13.4 13.38-21.62.21-2.61-.47-5.8-2-9.53a184.67 184.67 0 0 0-17.57-22.7c-.25 0-.48-.15-.68 0a1.25 1.25 0 0 0-.28 1.69c3.94 6 5.69 11.07 5.21 15.13-.71 6.15-4.45 11.69-11.11 16.47-32.58 23.52-125.25 25.31-225.25 4.42-87.9-18.36-159.83-45.4-197.35-74.18-20.45-15.69-29.75-31.46-26.89-45.58 1.24-6.1 5.35-11.63 12.23-16.45a1.26 1.26 0 0 0 .34-1.71 1 1 0 0 0-.31-.32s-.05 0-.07 0a169.36 169.36 0 0 0-20.62 13.27c-4.86 5-8 10-9.2 14.86-4.16 16.69 6.11 35.08 29.71 53.19 39.16 30 110.84 57.57 201.81 77.54 110.29 24.2 212.57 22.37 248.69-4.47" class="cls-11"/><path d="M537.06 163.75c7.25-5.23 11.34-11.36 12.15-18.23.45-3.82-.83-8.35-3.62-13.41a240.72 240.72 0 0 0-34.06-32.17 1.16 1.16 0 0 0-.44.23 1.27 1.27 0 0 0 .06 1.74c10.95 10.66 16.27 19.72 15.4 26.23-.69 5.2-3.9 9.85-9.55 13.81-29.31 20.57-116.42 20.41-211.84-.4-80-17.44-142-40.85-174.73-65.93-18-13.85-25.88-27.22-23.28-39.73 1.32-6.39 5.78-11.89 13.24-16.36a1.27 1.27 0 0 0 .51-1.61 1.5 1.5 0 0 0-.36-.46 188.51 188.51 0 0 0-27.55 13.46c-5.11 4.48-8.31 9.46-9.41 14.89-3.13 15.36 6.24 31.54 27.83 48.11 37.8 29 110.11 56.2 198.37 74.63 100.71 21 194.17 19.06 227.28-4.8" class="cls-11"/><path d="M518.46 144.03c6.24-4.39 9.81-9.63 10.6-15.56.85-6.41-3.09-14.39-11.69-23.78-2.57-2.13-5.12-4.27-7.8-6.33a430.82 430.82 0 0 0-38.68-26.31c-.15.1-.32.15-.41.3a1.26 1.26 0 0 0 .28 1.7c2.39 1.68 4.68 3.35 6.83 5 16.35 12.54 24.73 23.41 23.59 30.62-.69 4.34-3.44 8.18-8.15 11.42-24.92 17.08-103 15.93-189.94-2.79-68.5-14.76-124.56-36.08-153.81-58.52-15.3-11.74-22.23-23.13-20-32.95 1.5-6.69 7.6-12.16 18.14-16.24a1.27 1.27 0 0 0 .75-1.57 1.05 1.05 0 0 0-.25-.36 222.63 222.63 0 0 0-31 10.26c-6.72 4.61-10.89 10.06-12.22 16.43-2.81 13.54 5.34 27.75 24.23 42.24 33 25.31 95.38 48.89 175.71 66.4 96.07 21 184 21 213.85 0" class="cls-11"/><path d="M480.04 77.76a477.4 477.4 0 0 0-48.08-26.83c-.13.11-.28.16-.36.31a1.27 1.27 0 0 0 .35 1.59l.15.1a165.81 165.81 0 0 1 19.81 12.79c12.43 9.54 18.44 18.42 16.91 25-5.22 22.39-79.47 25-165.55 5.71-57.29-12.8-108-32.34-132.28-51-11.45-8.78-16.67-17.05-15.14-23.92 2-9 15.45-15.62 37.83-18.59a1.26 1.26 0 0 0 1.09-1.39 1.2 1.2 0 0 0-.25-.44 279.12 279.12 0 0 0-51.8 9c-9 4.26-14.43 9.64-15.91 16.25-2.42 10.85 4.82 23.13 21 35.51 29.52 22.65 86 44.16 154.82 59 88.93 19.16 166.05 20.12 191.9 2.39 5.31-3.64 8.42-8.06 9.21-13.1 1.62-10.23-11.77-23.09-23.67-32.34" class="cls-11"/><path d="M471.33 91.29c1.8-7.72-4.37-17.25-17.83-27.58-3.28-2.52-7.09-5.07-11.16-7.63a520.56 520.56 0 0 0-71.2-30.13c-.11.13-.26.2-.32.36a1.26 1.26 0 0 0 .43 1.43 1 1 0 0 0 .32.19c19.82 7.44 35.77 15.58 46.12 23.52 9.24 7.09 13.48 13.63 12.3 18.92-3.82 17-61 18.83-127.46 4-44.19-9.86-83.52-25.1-102.63-39.76-8.82-6.77-12.89-13.08-11.74-18.2 2-8.82 18.6-14.1 45.58-14.5A1.28 1.28 0 0 0 235 .66c0-.18-.16-.28-.22-.45a347.73 347.73 0 0 0-51.6 2c-17.54 3.7-27.81 10.08-29.75 18.77-1.79 8 3.61 16.92 16.06 26.47 25 19.15 74.78 38.39 133.28 51.47 90.38 20.2 162.85 16.92 168.56-7.62" class="cls-11"/><path d="M432.4 70.92c1.45-6.41-3-13.64-13.22-21.48-7.41-5.69-17.77-11.52-30.19-17.07C333.8 11.43 274.88-.3 220.46.02c-20.53 1.82-32.91 7.29-34.81 15.82-1.41 6.26 2.85 13.25 12.66 20.77 19.38 14.87 59.1 30.29 103.63 40.22 70.12 15.66 126.2 13.12 130.46-5.91M301.66 51.24c-29.57-6.73-55.38-16.62-67.36-25.81-4.95-3.8-7.24-7.25-6.62-10 2.08-9.1 35.52-11.74 82-1.16 28.54 6.5 53.92 16.41 66.25 25.87 5.34 4.1 7.82 7.78 7.16 10.66-2 8.67-33.66 11.29-81.42.42" class="cls-11"/><path d="M385.55 51.37c.91-4-1.81-8.42-8.08-13.23-12.6-9.67-38.37-19.75-67.23-26.32-39.4-9-82-10.29-85 3.06-.87 3.82 1.68 8 7.55 12.55 12.25 9.39 38.44 19.46 68.33 26.26 39.66 9 81.39 11.13 84.46-2.32m-35.12-12.49c-3.88 2.93-20.52 3.13-44.81-2.17-18.91-4.11-35.51-10.14-42.3-15.35-1.89-1.45-2.95-2.82-2.89-3.75 0-.15 0-.62.78-1.17 4-3 21.13-3.39 45 1.81 18.37 4 34.78 10.08 41.82 15.48 2 1.57 3.18 3 3.11 4 0 .15 0 .6-.74 1.13" class="cls-11"/><path d="M353.7 37.93c.13-2-1.21-4-4.1-6.21-7.31-5.61-24.12-11.86-42.83-15.93-22.33-4.86-41.69-5.43-47.09-1.36a4 4 0 0 0-1.77 3c-.13 1.9 1.14 3.84 3.87 5.94 7.05 5.41 24.06 11.62 43.3 15.81 19 4.13 40.83 6.27 46.87 1.72a4.06 4.06 0 0 0 1.75-3" class="cls-11"/></g></g></g></svg>