<svg xmlns="http://www.w3.org/2000/svg" data-name="Telia Pebble Icon segments RGB x50" viewBox="0 0 581.57 506.15"><defs><style>.cls-1{fill:#0c6}.cls-2{fill:#990ae3}.cls-4{fill:#32ff00}.cls-8{fill:#fff}</style></defs><g data-name="23"><path d="M249.3 498.38a.95.95 0 0 0-.38-1.22 1.32 1.32 0 0 0-.93-.25 331.32 331.32 0 0 1-118.69-7.29c-30.05-7.31-53.88-17.56-70.82-30.45a91 91 0 0 1-7.95-6.76l-.11-.09a1.27 1.27 0 0 0-1.6 0c-.13.11-.14.27-.2.4a119.22 119.22 0 0 0 23.67 24.61c37.31 28.4 102.65 36.53 177 21" class="cls-1"/><path d="M239.17 500.4a430 430 0 0 0 63.39-16.77.94.94 0 0 0 .05-.47c-.08-.27-.53-.07-.73-.23s-2.05.16-2.44.26c-46.16 12.17-123.58 16.28-194.5-9.64-20.84-7.64-38.06-16.56-51.19-26.55a92.52 92.52 0 0 1-16.53-15.79 1.2 1.2 0 0 0-.23-.22 1.26 1.26 0 0 0-1.46 0c-.13.08-.17.24-.25.35a167.26 167.26 0 0 0 16.37 25.38c1.73 1.52 3.4 3.08 5.28 4.51 17.23 13.11 41.38 23.5 71.76 30.89a335.18 335.18 0 0 0 110.48 8.28" class="cls-1"/><path d="M323.67 475.28a1.28 1.28 0 0 0-.42-.59 1.3 1.3 0 0 0-1.14-.21c-95.09 28.4-216.15 4-269.55-36.65-11.56-8.79-20.07-18.24-25.33-28.08a1.31 1.31 0 0 0-.35-.42 1.25 1.25 0 0 0-1.3-.14c-.17.08-.24.25-.35.38a223 223 0 0 0 12 25.39 97 97 0 0 0 14.94 14.06c13.33 10.15 30.78 19.19 51.86 26.9 66.77 24.4 140.63 21.62 188 11.15 10.45-3.34 21-7.08 31.6-11.33 0-.16.08-.3 0-.46" class="cls-1"/><path d="M370.17 453.81a296.82 296.82 0 0 1-63.51 19.22c-85 15.88-200.09-6.14-256.54-49.09-16.6-12.64-27.73-25.34-32.39-39.73a5.14 5.14 0 0 0-.68-1.39c-.31-.24-.14-.55-.54-.42-.19 0-.28.22-.4.33a278.24 278.24 0 0 0 11.55 32.39c5.49 8.69 13.23 17 23.41 24.73 52.66 40.07 170.26 64.38 265 38.83a496.11 496.11 0 0 0 55-24.81Z" class="cls-1"/><path d="M384.05 446.27a1.11 1.11 0 0 0-.36-.44 1.3 1.3 0 0 0-1.28-.16 298.85 298.85 0 0 1-64.24 19.78C229.66 482 108.6 458.12 48.29 412.24c-17.45-13.28-28.87-27.64-33.92-42.71a1.32 1.32 0 0 0-.44-.59 1.24 1.24 0 0 0-1.12-.21c-.17 0-.26.19-.39.3 1.83 7.43 3.91 14.63 6.16 21.65 5.69 12.43 15.57 24.3 30 35.28 57.92 44.06 171.48 65.83 258.53 49.56 20.59-3.84 38.72-10.41 55.42-17.33q10.83-5.44 21.61-11.52v-.4" class="cls-1"/><path d="M406.45 432.9a1.36 1.36 0 0 0-.35-.4 1.27 1.27 0 0 0-1.29-.16c-19.5 8.89-50.45 20.47-87.1 25.17-79.28 10.19-204.71-9.14-269.12-58.15-20.61-15.68-34.08-33.58-39.5-52.8a1.26 1.26 0 0 0-.44-.67 1.28 1.28 0 0 0-1.06-.23c-.08 0-.09.13-.15.16q2.7 14.77 6.39 28.78c5.85 14 16.69 27.34 32.87 39.65 60.8 46.26 182.77 70.35 271.89 53.7a300.91 300.91 0 0 0 58.7-17.5c9.77-5.31 19.52-11 29.21-17.09a1 1 0 0 0 0-.46" class="cls-1"/><path d="M421.46 423.07a1.23 1.23 0 0 0-.33-.38 1.28 1.28 0 0 0-1.29-.16c-34.1 15.53-67.42 24.45-101.87 27.25-98.42 8-212.39-18.57-271-63.16-20.42-15.54-33.72-32.72-39.53-51.08a1.17 1.17 0 0 0-.44-.62 1.25 1.25 0 0 0-1-.23c-.14 0-.21.15-.33.23 1 6.12 2 12.18 3.21 18.14 6.43 17.64 19.21 33.85 38.22 48.32 64.91 49.39 191.21 68.9 271 58.65a309.6 309.6 0 0 0 82.49-23c7-4.31 14-8.78 21-13.51a.81.81 0 0 0-.06-.41" class="cls-1"/><path d="M446.36 405.02a1.18 1.18 0 0 0-.29-.3 1.24 1.24 0 0 0-1.39-.08c-34.2 19.72-81.59 32.57-126.75 34.37-101.59 4.05-212.43-23.46-269.53-66.9-25.41-19.34-41-41-45.14-64.84a1.26 1.26 0 0 0-.48-.78 1.31 1.31 0 0 0-.68-.19c1 11.41 2.45 22.68 4.31 33.69 6.47 17.49 18.9 33.34 39 48.65 59.08 44.94 173.76 71.71 272.76 63.67 33.49-2.72 65.92-11.32 99-25.93q14.78-9.84 29.3-21a1.19 1.19 0 0 0-.08-.4" class="cls-2"/><path d="M457.31 396.43a1 1 0 0 0-.29-.31 1.27 1.27 0 0 0-1.35-.12c-32.89 17.1-72.41 33-138.4 33.5-106.55.81-212-26.51-268.59-69.58-24.68-18.78-40-40.08-45.65-63.32a1.29 1.29 0 0 0-1.43-.95c-.15 0-.25.16-.38.23.41 5.77.89 11.53 1.5 17.25 5.51 22.32 20.25 42.81 44.15 61 57.52 43.77 169 71.49 271.16 67.42 43.87-1.74 89.69-13.9 123.86-32.58 5.21-3.91 10.39-7.91 15.52-12.06a1.07 1.07 0 0 0-.1-.47" class="cls-2"/><path d="M479.07 377.83a1.81 1.81 0 0 0-.24-.24 1.27 1.27 0 0 0-1.44-.07c-44.17 27.67-96.61 40.44-160.26 39.08-109.09-2.39-211.96-30.52-268.43-73.51-25.69-19.54-41.4-41.67-46.68-65.8a1.33 1.33 0 0 0-.48-.73 1.23 1.23 0 0 0-.92-.24c-.14 0-.22.12-.34.17q.36 12.08 1.3 24.05c6.44 22.61 21.66 43.21 45.56 61.4 57 43.39 163.07 70.9 270.15 70.1 64.26-.48 103.63-15.47 136.15-32.06 8.69-6.88 17.27-14.16 25.74-21.76a1.34 1.34 0 0 0-.11-.39" class="cls-2"/><path d="M488.78 368.91a1.14 1.14 0 0 0-.24-.25 1.3 1.3 0 0 0-1.43-.07c-44.42 26.87-101.52 39.15-169.71 36.46-85.41-3.34-200.63-25.14-267.81-76.26-26.22-20-42.31-42.49-47.82-67a1.25 1.25 0 0 0-.48-.73 1.19 1.19 0 0 0-.9-.25 1.08 1.08 0 0 0-.35.19c0 6.61.09 13.21.35 19.8 6.08 23.68 21.72 45.25 46.77 64.31 56.89 43.29 160.32 71.65 269.91 74 62.74 1.35 114.64-11.07 158.61-37.71q6.67-5.9 13.23-12.06a1.12 1.12 0 0 0-.13-.44" class="cls-2"/><path d="M505.09 352.89a1 1 0 0 0-.21-.21 1.27 1.27 0 0 0-1.44-.07c-49.39 31-112.55 44-187.73 38.7-112.91-8-209.14-36.58-264-78.32-28-21.3-44.68-45.5-49.59-72a1.26 1.26 0 0 0-.48-.77 1.29 1.29 0 0 0-.86-.26c-.14 0-.23.12-.35.17-.32 8.17-.48 16.38-.41 24.6 6.22 24.32 22.28 46.45 48 66 67.66 51.48 183.44 73.42 269.25 76.79 67.39 2.64 124-9.32 168.49-35.4 6.56-6.1 13.07-12.33 19.44-18.86a1 1 0 0 0-.14-.44" class="cls-2"/><path d="M3458.1 623.84a1.54 1.54 0 0 0-.19-.17 1.27 1.27 0 0 0-1.51 0c-42.2 30.66-112.84 44.13-198.91 37.91-105.67-7.62-209.92-39.92-265.61-82.29-27.83-21.17-43.71-44.31-47.24-68.77a1.24 1.24 0 0 0-.48-.83 1.27 1.27 0 0 0-.81-.26c-.14 0-.24.11-.36.15-.39 5.75-.67 11.49-.86 17.28 5.69 26.23 22.37 50 49.88 70.94 55.24 42 152 70.78 265.35 78.84 74.58 5.3 137.4-7.47 186.91-37.75 4.72-4.77 9.36-9.67 14-14.67a1.18 1.18 0 0 0-.14-.37" style="fill:#93f" transform="translate(-2941.83 -282.79)"/><path d="M535.31 319.68a1.32 1.32 0 0 0-.31-.35 1.28 1.28 0 0 0-.58-.24 1.25 1.25 0 0 0-1 .3c-43.22 37.78-125 54-218.75 43.46-116.15-13.1-208.88-42.2-261.09-81.93-28.84-21.94-45.3-46.86-48.93-74.09a1.2 1.2 0 0 0-.48-.83 1.18 1.18 0 0 0-.77-.26c-.16 0-.28.1-.42.16-.9 8.17-1.55 16.49-2 24.84 4.41 24.29 20.33 47 47.6 67.77 56 42.64 160.84 75.16 267 82.8 84.81 6.12 154.78-6.86 197.73-36.48 7.54-8 15-16.3 22.17-25a.87.87 0 0 0-.07-.17" class="cls-1"/><path d="M544.77 308.08c-.07-.12-.07-.26-.18-.37l-.1-.09a1.24 1.24 0 0 0-1.6.07c-43.95 39.12-125 54-228.26 42-111.53-13-206.58-44.06-260.77-85.29-27.58-21-43.75-43.72-48.06-67.55a1.27 1.27 0 0 0-.49-.78 1.18 1.18 0 0 0-.8-.25c-.11 0-.19.08-.3.11-.6 4.48-1.13 9-1.6 13.51 4.39 27.17 20.92 51.8 49.41 73.47 52.56 40 145.73 69.27 262.34 82.42 92.42 10.43 173.28-5.17 217.71-41.67q6.43-7.63 12.7-15.61" class="cls-1"/><path d="M560.08 286.98c-.08-.14-.11-.32-.24-.42a1.27 1.27 0 0 0-1.72.18c-38 43.59-131.58 61.29-244.09 46.17-113.24-15.22-204.76-45.78-257.71-86.07-29.07-22.12-45-46-47.22-70.9a1.28 1.28 0 0 0-.5-.9 1.33 1.33 0 0 0-.7-.26c-.16 0-.26.09-.39.12-1.45 8-2.67 16.14-3.71 24.42 4.95 23.74 21.21 46.34 48.56 67.15 54.53 41.49 150 72.76 262 85.79 101.92 11.85 182.4-2.54 227.45-40.41 2.92-3.64 5.88-7.24 8.74-11 3.53-4.65 6.65-9.27 9.55-13.86" class="cls-1"/><path d="M557.04 291.39a166.49 166.49 0 0 0 11.65-19.78.88.88 0 0 0-.24-.36l-.08-.07a1.25 1.25 0 0 0-1.67.28c-36.34 45.89-126.44 62.08-253.75 45.56-108.68-14.1-201.36-45.29-254.28-85.55-29.18-22.2-44.84-46-46.55-70.75a1.27 1.27 0 0 0-.5-.91 1.21 1.21 0 0 0-.66-.27c-.13 0-.24.08-.36.11-1.36 6.08-2.61 12.27-3.71 18.59 3 24.9 19 48.65 47.87 70.6 53.3 40.55 145.25 71.3 258.91 86.56 110.68 14.87 203.13-2 243.37-44" class="cls-1"/><path d="M566.72 275.21a136.17 136.17 0 0 0 10.79-27.38 1.05 1.05 0 0 0-.31-.18 1.27 1.27 0 0 0-1.59.62c-26.49 52.68-130.14 72.69-264 51-110.91-18-199.8-49.08-250.29-87.5-30.36-23.1-45.08-47.39-43.74-72.21a1.23 1.23 0 0 0-.5-1.07 1.32 1.32 0 0 0-.55-.25 1.28 1.28 0 0 0-.43.1 355.62 355.62 0 0 0-6.19 24.48c2.41 24.82 18.24 48.59 47.28 70.68 53.25 40.52 146.37 71.88 255.5 86.05 126.12 16.36 216.05.58 254.08-44.32" class="cls-4"/><path d="M576.4 251.81a118.88 118.88 0 0 0 4.15-19c-.05 0 0-.11-.06-.15a1.48 1.48 0 0 0-.35-.19 1.27 1.27 0 0 0-1.54.61c-27 52-126.39 70.09-265.79 48.3-107.39-16.8-198.1-48.57-248.85-87.18-27.51-20.93-42.09-42.77-43.37-64.91a1.22 1.22 0 0 0-.49-.93 1.2 1.2 0 0 0-.61-.26c-.1 0-.18.05-.27.07-1.45 4.39-2.82 8.9-4.11 13.49-.33 25.08 14.58 49.23 44.62 72.08 50.82 38.67 140.11 69.92 251.43 88 132.94 21.55 236.3 1.9 265.24-49.95" class="cls-4"/><path d="M580.17 235.37a111 111 0 0 0 1.4-18.39 1.18 1.18 0 0 0-.4-.17 1.27 1.27 0 0 0-1.39.95c-13.06 50.34-131.65 70.89-270 46.78-103.24-18-190.62-49.74-239.74-87.11-32-24.34-45.77-49.57-39.86-73a1.27 1.27 0 0 0-.47-1.32 1.14 1.14 0 0 0-.34-.19 1.18 1.18 0 0 0-.46 0A257.84 257.84 0 0 0 18.26 131c1.9 22.36 16.67 44.28 44.14 65.18 51.07 38.86 142.19 70.81 250 87.67 139.54 21.81 239.36 3.64 267.75-48.55" class="cls-4"/><path d="M581.48 220.69a108.29 108.29 0 0 0-.9-17.14 1.2 1.2 0 0 0-.39-.13 1.27 1.27 0 0 0-1.28 1c-9 50.37-122.12 68-269 42-101.88-18.05-187.79-49.32-235.7-85.77-28.72-21.85-42-44.77-38.52-66.26.09-.59.21-1.16.33-1.75a1.43 1.43 0 0 0-.5-1.39 1.35 1.35 0 0 0-.29-.16 1.3 1.3 0 0 0-.44 0c-2.61 4.88-5.07 10.07-7.39 15.46-4.49 23.81 9.57 48.87 41.16 72.9 49.41 37.6 137.19 69.53 240.82 87.59 137.52 24 255.77 3.58 272.11-46.34" class="cls-4"/><path d="M580.92 206.88a113.21 113.21 0 0 0-3.81-20.12 1.29 1.29 0 0 0-.46-.14 1.27 1.27 0 0 0-1.18 1.06c-1.62 10.29-7.87 19.38-18.57 27-38.1 27.21-126.43 32.72-230.57 14.38-106.23-18.7-198.23-51.62-246.12-88.05-25.73-19.58-37.26-38.8-34.26-57.12a45.8 45.8 0 0 1 5.42-15 1.26 1.26 0 0 0-.35-1.63l-.06-.05c-.12-.08-.25 0-.38-.08-.94 1.15-1.95 2.23-2.85 3.41a158.48 158.48 0 0 0-14.58 23.7c-3.51 22.39 10.13 46 39.51 68.39 48.23 36.7 134.53 68.14 236.81 86.26 146.4 26 259.64 8.24 271.45-42" class="cls-4"/><path d="M558.41 216.74c10.91-7.79 17.33-17.12 19.29-27.66a123.15 123.15 0 0 0-6.26-17.55c-.12 0-.22-.1-.34-.08a1.26 1.26 0 0 0-1 1.22c0 .71-.06 1.4-.13 2.09-1 9.12-6.25 17.16-15.54 23.9-37.8 27.45-139.2 31.08-246.61 8.86-95.63-19.78-178.08-50.89-220.55-83.2-24.52-18.66-35.17-36.93-31.63-54.29.86-4.24 3.21-8.82 7-13.57a1.28 1.28 0 0 0-.15-1.74l-.08-.06c-.09-.07-.21-.05-.31-.09a150.53 150.53 0 0 0-14 15.67 47.83 47.83 0 0 0-4.56 13.26c-3.16 19.32 8.69 39.35 35.23 59.54 48.19 36.67 140.61 69.76 247.22 88.54 104.81 18.46 193.9 12.77 232.51-14.84" class="cls-4"/><path d="M555.9 200.71c9.89-7.18 15.46-15.82 16.56-25.67 0-.39.05-.8.07-1.18a148.58 148.58 0 0 0-15.68-28c-.17 0-.35-.14-.52 0a1.28 1.28 0 0 0-.49 1.66c2.36 4.75 3.46 8.63 3.24 11.54-.55 7.47-4.68 14.15-12.27 19.83-34.93 26.16-138.64 28.32-246.64 5.02-89.38-19.24-162.69-47.05-201.12-76.29-22.8-17.35-32.83-34.79-29-50.44 1.33-5.44 5.25-11.11 11.64-16.86 1.22-.88 2.45-1.73 3.69-2.57a1.26 1.26 0 0 0 .34-1.76 1.54 1.54 0 0 0-.28-.29c-.05-.05-.14 0-.2 0a156.78 156.78 0 0 0-26.73 22.39c-2.66 4-4.65 7.82-5.39 11.44-3.74 18.4 7.22 37.51 32.59 56.82 42.76 32.52 125.59 63.81 221.56 83.66 108.06 22.36 210.28 18.54 248.62-9.29" class="cls-4"/><path d="M548.32 180.93c8.2-6.14 12.68-13.45 13.29-21.68.2-2.6-.49-5.79-2-9.51a185 185 0 0 0-17.7-22.61c-.25 0-.48-.15-.68 0a1.25 1.25 0 0 0-.27 1.69c4 6 5.73 11.05 5.26 15.11-.68 6.15-4.4 11.7-11 16.51-32.48 23.62-125.11 25.78-225.27 5.28-88-18-160-44.76-197.64-73.39-20.52-15.61-29.88-31.34-27.07-45.48 1.21-6.1 5.31-11.64 12.16-16.49a1.26 1.26 0 0 0 .33-1.71 1 1 0 0 0-.3-.33s0 0-.07 0a168.54 168.54 0 0 0-20.57 13.35c-4.84 5-7.95 10-9.15 14.9-4.09 16.7 6.25 35.05 29.92 53.06 39.29 29.89 111.07 57.14 202.12 76.75 110.39 23.76 212.66 21.52 248.68-5.46" class="cls-2"/><path d="M536.67 162.51c7.23-5.26 11.3-11.41 12.07-18.28.44-3.82-.85-8.34-3.66-13.39a240.51 240.51 0 0 0-34.2-32 1.19 1.19 0 0 0-.43.23 1.28 1.28 0 0 0 .06 1.74c11 10.61 16.35 19.66 15.51 26.17-.67 5.2-3.86 9.86-9.5 13.85-29.22 20.68-116.33 20.86-211.83.43-80.07-17.12-142.2-40.28-175-65.23-18.11-13.78-26-27.12-23.44-39.64 1.29-6.39 5.73-11.91 13.17-16.41a1.26 1.26 0 0 0 .5-1.62 1.22 1.22 0 0 0-.36-.45 189.26 189.26 0 0 0-27.49 13.56c-5.09 4.51-8.28 9.5-9.36 14.93-3.06 15.38 6.37 31.52 28 48 37.91 28.85 110.33 55.76 198.66 73.85 100.8 20.63 194.24 18.28 227.26-5.7" class="cls-2"/><path d="M517.99 142.86c6.23-4.42 9.77-9.67 10.54-15.6.83-6.42-3.15-14.38-11.78-23.73-2.59-2.13-5.14-4.26-7.83-6.3a428.57 428.57 0 0 0-38.75-26.16c-.15.1-.33.15-.42.3a1.27 1.27 0 0 0 .3 1.7c2.4 1.67 4.7 3.33 6.86 5 16.4 12.48 24.81 23.32 23.7 30.53-.67 4.34-3.4 8.19-8.1 11.45-24.85 17.18-103 16.34-190-2-68.56-14.5-124.7-35.6-154-57.92-15.35-11.68-22.32-23-20.16-32.87 1.47-6.7 7.55-12.19 18.08-16.31a1.27 1.27 0 0 0 .74-1.57 1.05 1.05 0 0 0-.25-.36 222 222 0 0 0-31 10.38c-6.7 4.64-10.85 10.11-12.16 16.48-2.75 13.55 5.45 27.73 24.4 42.15 33.08 25.17 95.57 48.5 176 65.7 96.14 20.57 184.09 20.22 213.84-.84" class="cls-2"/><path d="M3421.14 359.53A477 477 0 0 0 3373 332.9c-.13.1-.27.15-.35.3a1.26 1.26 0 0 0 .35 1.59l.15.1a165.38 165.38 0 0 1 19.85 12.72c12.46 9.48 18.51 18.34 17 24.93-5.14 22.4-79.38 25.27-165.54 6.36-57.35-12.57-108.11-31.9-132.46-50.47-11.48-8.73-16.74-17-15.23-23.85 2-9 15.39-15.68 37.75-18.74a1.26 1.26 0 0 0 1.09-1.4 1.36 1.36 0 0 0-.25-.44 278.66 278.66 0 0 0-51.77 9.17c-8.94 4.29-14.38 9.7-15.84 16.31-2.38 10.86 4.91 23.11 21.11 35.43 29.61 22.54 86.13 43.81 155 58.37 89 18.81 166.13 19.47 191.91 1.63 5.3-3.66 8.38-8.08 9.16-13.13 1.58-10.24-11.86-23-23.8-32.25" style="fill:#af5aff" transform="translate(-2941.83 -282.79)"/><path d="M470.6 90.31c1.78-7.73-4.43-17.24-17.94-27.51-3.28-2.5-7.11-5-11.19-7.59a520.4 520.4 0 0 0-71.3-29.84c-.11.13-.26.2-.32.36a1.26 1.26 0 0 0 .43 1.43 1.11 1.11 0 0 0 .32.18c19.85 7.37 35.83 15.44 46.22 23.34 9.26 7 13.53 13.58 12.37 18.87-3.75 17.06-60.92 19.07-127.44 4.5-44.23-9.69-83.62-24.77-102.79-39.36-8.85-6.73-12.94-13-11.81-18.16 1.94-8.82 18.54-14.16 45.52-14.67A1.27 1.27 0 0 0 233.92.6c0-.18-.15-.28-.22-.44a345.61 345.61 0 0 0-51.58 2.2c-17.53 3.77-27.77 10.18-29.68 18.89-1.77 8 3.67 16.9 16.16 26.41 25 19.05 74.93 38.09 133.48 50.94 90.46 19.84 162.92 16.27 168.53-8.29" class="cls-2"/><path d="M431.65 70.1c1.42-6.42-3.06-13.64-13.31-21.43-7.44-5.67-17.82-11.45-30.26-17C332.81 10.95 273.84-.54 219.42-.01c-20.52 1.91-32.88 7.42-34.75 16-1.38 6.27 2.91 13.24 12.75 20.72 19.44 14.79 59.21 30.05 103.79 39.81 70.18 15.38 126.25 12.62 130.44-6.42M300.82 50.93c-29.59-6.61-55.44-16.4-67.45-25.54-5-3.78-7.28-7.22-6.66-10 2-9.11 35.47-11.88 82-1.48 28.56 6.39 54 16.2 66.35 25.61 5.36 4.07 7.85 7.75 7.21 10.63-1.94 8.67-33.62 11.42-81.43.74" class="cls-2"/><path d="M384.72 50.74c.89-4-1.85-8.42-8.14-13.2-12.63-9.62-38.44-19.6-67.33-26.05-39.44-8.82-82-10-85 3.39-.86 3.82 1.7 8 7.6 12.52 12.27 9.34 38.51 19.31 68.43 26 39.69 8.88 81.43 10.81 84.45-2.65M349.56 38.4c-3.88 2.94-20.52 3.21-44.82-2-18.93-4-35.55-10-42.36-15.19-1.9-1.44-3-2.81-2.91-3.74a1.59 1.59 0 0 1 .78-1.17c4-3 21.11-3.47 45 1.63 18.39 3.93 34.82 9.94 41.88 15.31 2.06 1.56 3.2 3 3.14 4 0 .15 0 .6-.74 1.13" class="cls-2"/><path d="M352.81 37.41c.12-2-1.22-4-4.12-6.19-7.33-5.58-24.17-11.77-42.89-15.76-22.35-4.78-41.72-5.26-47.1-1.18a4.06 4.06 0 0 0-1.76 3c-.12 1.9 1.15 3.82 3.9 5.91 7.07 5.39 24.1 11.53 43.36 15.65 19 4.05 40.86 6.1 46.87 1.53a4.07 4.07 0 0 0 1.74-3" class="cls-2"/><g style="mask:url(#mask)"><g style="opacity:.3"><path d="M249.3 498.38a.95.95 0 0 0-.38-1.22 1.32 1.32 0 0 0-.93-.25 331.32 331.32 0 0 1-118.69-7.29c-30.05-7.31-53.88-17.56-70.82-30.45a91 91 0 0 1-7.95-6.76l-.11-.09a1.27 1.27 0 0 0-1.6 0c-.13.11-.14.27-.2.4a119.22 119.22 0 0 0 23.67 24.61c37.31 28.4 102.65 36.53 177 21" class="cls-8"/><path d="M239.17 500.4a430 430 0 0 0 63.39-16.77.94.94 0 0 0 .05-.47c-.08-.27-.53-.07-.73-.23s-2.05.16-2.44.26c-46.16 12.17-123.58 16.28-194.5-9.64-20.84-7.64-38.06-16.56-51.19-26.55a92.52 92.52 0 0 1-16.53-15.79 1.2 1.2 0 0 0-.23-.22 1.26 1.26 0 0 0-1.46 0c-.13.08-.17.24-.25.35a167.26 167.26 0 0 0 16.37 25.38c1.73 1.52 3.4 3.08 5.28 4.51 17.23 13.11 41.38 23.5 71.76 30.89a335.18 335.18 0 0 0 110.48 8.28" class="cls-8"/><path d="M323.67 475.28a1.28 1.28 0 0 0-.42-.59 1.3 1.3 0 0 0-1.14-.21c-95.09 28.4-216.15 4-269.55-36.65-11.56-8.79-20.07-18.24-25.33-28.08a1.31 1.31 0 0 0-.35-.42 1.25 1.25 0 0 0-1.3-.14c-.17.08-.24.25-.35.38a223 223 0 0 0 12 25.39 97 97 0 0 0 14.94 14.06c13.33 10.15 30.78 19.19 51.86 26.9 66.77 24.4 140.63 21.62 188 11.15 10.45-3.34 21-7.08 31.6-11.33 0-.16.08-.3 0-.46" class="cls-8"/><path d="M370.17 453.81a296.82 296.82 0 0 1-63.51 19.22c-85 15.88-200.09-6.14-256.54-49.09-16.6-12.64-27.73-25.34-32.39-39.73a5.14 5.14 0 0 0-.68-1.39c-.31-.24-.14-.55-.54-.42-.19 0-.28.22-.4.33a278.24 278.24 0 0 0 11.55 32.39c5.49 8.69 13.23 17 23.41 24.73 52.66 40.07 170.26 64.38 265 38.83a496.11 496.11 0 0 0 55-24.81Z" class="cls-8"/><path d="M384.05 446.27a1.11 1.11 0 0 0-.36-.44 1.3 1.3 0 0 0-1.28-.16 298.85 298.85 0 0 1-64.24 19.78C229.66 482 108.6 458.12 48.29 412.24c-17.45-13.28-28.87-27.64-33.92-42.71a1.32 1.32 0 0 0-.44-.59 1.24 1.24 0 0 0-1.12-.21c-.17 0-.26.19-.39.3 1.83 7.43 3.91 14.63 6.16 21.65 5.69 12.43 15.57 24.3 30 35.28 57.92 44.06 171.48 65.83 258.53 49.56 20.59-3.84 38.72-10.41 55.42-17.33q10.83-5.44 21.61-11.52v-.4" class="cls-8"/><path d="M406.45 432.9a1.36 1.36 0 0 0-.35-.4 1.27 1.27 0 0 0-1.29-.16c-19.5 8.89-50.45 20.47-87.1 25.17-79.28 10.19-204.71-9.14-269.12-58.15-20.61-15.68-34.08-33.58-39.5-52.8a1.26 1.26 0 0 0-.44-.67 1.28 1.28 0 0 0-1.06-.23c-.08 0-.09.13-.15.16q2.7 14.77 6.39 28.78c5.85 14 16.69 27.34 32.87 39.65 60.8 46.26 182.77 70.35 271.89 53.7a300.91 300.91 0 0 0 58.7-17.5c9.77-5.31 19.52-11 29.21-17.09a1 1 0 0 0 0-.46" class="cls-8"/><path d="M421.46 423.07a1.23 1.23 0 0 0-.33-.38 1.28 1.28 0 0 0-1.29-.16c-34.1 15.53-67.42 24.45-101.87 27.25-98.42 8-212.39-18.57-271-63.16-20.42-15.54-33.72-32.72-39.53-51.08a1.17 1.17 0 0 0-.44-.62 1.25 1.25 0 0 0-1-.23c-.14 0-.21.15-.33.23 1 6.12 2 12.18 3.21 18.14 6.43 17.64 19.21 33.85 38.22 48.32 64.91 49.39 191.21 68.9 271 58.65a309.6 309.6 0 0 0 82.49-23c7-4.31 14-8.78 21-13.51a.81.81 0 0 0-.06-.41" class="cls-8"/><path d="M446.36 405.02a1.18 1.18 0 0 0-.29-.3 1.24 1.24 0 0 0-1.39-.08c-34.2 19.72-81.59 32.57-126.75 34.37-101.59 4.05-212.43-23.46-269.53-66.9-25.41-19.34-41-41-45.14-64.84a1.26 1.26 0 0 0-.48-.78 1.31 1.31 0 0 0-.68-.19c1 11.41 2.45 22.68 4.31 33.69 6.47 17.49 18.9 33.34 39 48.65 59.08 44.94 173.76 71.71 272.76 63.67 33.49-2.72 65.92-11.32 99-25.93q14.78-9.84 29.3-21a1.19 1.19 0 0 0-.08-.4" class="cls-8"/><path d="M457.31 396.43a1 1 0 0 0-.29-.31 1.27 1.27 0 0 0-1.35-.12c-32.89 17.1-72.41 33-138.4 33.5-106.55.81-212-26.51-268.59-69.58-24.68-18.78-40-40.08-45.65-63.32a1.29 1.29 0 0 0-1.43-.95c-.15 0-.25.16-.38.23.41 5.77.89 11.53 1.5 17.25 5.51 22.32 20.25 42.81 44.15 61 57.52 43.77 169 71.49 271.16 67.42 43.87-1.74 89.69-13.9 123.86-32.58 5.21-3.91 10.39-7.91 15.52-12.06a1.07 1.07 0 0 0-.1-.47" class="cls-8"/><path d="M479.07 377.83a1.81 1.81 0 0 0-.24-.24 1.27 1.27 0 0 0-1.44-.07c-44.17 27.67-96.61 40.44-160.26 39.08-109.09-2.39-211.96-30.52-268.43-73.51-25.69-19.54-41.4-41.67-46.68-65.8a1.33 1.33 0 0 0-.48-.73 1.23 1.23 0 0 0-.92-.24c-.14 0-.22.12-.34.17q.36 12.08 1.3 24.05c6.44 22.61 21.66 43.21 45.56 61.4 57 43.39 163.07 70.9 270.15 70.1 64.26-.48 103.63-15.47 136.15-32.06 8.69-6.88 17.27-14.16 25.74-21.76a1.34 1.34 0 0 0-.11-.39" class="cls-8"/><path d="M488.78 368.91a1.14 1.14 0 0 0-.24-.25 1.3 1.3 0 0 0-1.43-.07c-44.42 26.87-101.52 39.15-169.71 36.46-85.41-3.34-200.63-25.14-267.81-76.26-26.22-20-42.31-42.49-47.82-67a1.25 1.25 0 0 0-.48-.73 1.19 1.19 0 0 0-.9-.25 1.08 1.08 0 0 0-.35.19c0 6.61.09 13.21.35 19.8 6.08 23.68 21.72 45.25 46.77 64.31 56.89 43.29 160.32 71.65 269.91 74 62.74 1.35 114.64-11.07 158.61-37.71q6.67-5.9 13.23-12.06a1.12 1.12 0 0 0-.13-.44" class="cls-8"/><path d="M505.09 352.89a1 1 0 0 0-.21-.21 1.27 1.27 0 0 0-1.44-.07c-49.39 31-112.55 44-187.73 38.7-112.91-8-209.14-36.58-264-78.32-28-21.3-44.68-45.5-49.59-72a1.26 1.26 0 0 0-.48-.77 1.29 1.29 0 0 0-.86-.26c-.14 0-.23.12-.35.17-.32 8.17-.48 16.38-.41 24.6 6.22 24.32 22.28 46.45 48 66 67.66 51.48 183.44 73.42 269.25 76.79 67.39 2.64 124-9.32 168.49-35.4 6.56-6.1 13.07-12.33 19.44-18.86a1 1 0 0 0-.14-.44" class="cls-8"/><path d="M516.27 341.05a1.54 1.54 0 0 0-.19-.17 1.27 1.27 0 0 0-1.51 0c-42.2 30.66-112.84 44.13-198.91 37.91-105.67-7.62-209.92-39.92-265.61-82.29-27.83-21.17-43.71-44.31-47.24-68.77a1.24 1.24 0 0 0-.48-.83 1.27 1.27 0 0 0-.81-.26c-.14 0-.24.11-.36.15-.39 5.75-.67 11.49-.86 17.28 5.69 26.23 22.37 50 49.88 70.94 55.24 42 152 70.78 265.35 78.84 74.58 5.3 137.4-7.47 186.91-37.75 4.72-4.77 9.36-9.67 14-14.67a1.18 1.18 0 0 0-.14-.37" class="cls-8"/><path d="M535.31 319.68a1.32 1.32 0 0 0-.31-.35 1.28 1.28 0 0 0-.58-.24 1.25 1.25 0 0 0-1 .3c-43.22 37.78-125 54-218.75 43.46-116.15-13.1-208.88-42.2-261.09-81.93-28.84-21.94-45.3-46.86-48.93-74.09a1.2 1.2 0 0 0-.48-.83 1.18 1.18 0 0 0-.77-.26c-.16 0-.28.1-.42.16-.9 8.17-1.55 16.49-2 24.84 4.41 24.29 20.33 47 47.6 67.77 56 42.64 160.84 75.16 267 82.8 84.81 6.12 154.78-6.86 197.73-36.48 7.54-8 15-16.3 22.17-25a.87.87 0 0 0-.07-.17" class="cls-8"/><path d="M544.77 308.08c-.07-.12-.07-.26-.18-.37l-.1-.09a1.24 1.24 0 0 0-1.6.07c-43.95 39.12-125 54-228.26 42-111.53-13-206.58-44.06-260.77-85.29-27.58-21-43.75-43.72-48.06-67.55a1.27 1.27 0 0 0-.49-.78 1.18 1.18 0 0 0-.8-.25c-.11 0-.19.08-.3.11-.6 4.48-1.13 9-1.6 13.51 4.39 27.17 20.92 51.8 49.41 73.47 52.56 40 145.73 69.27 262.34 82.42 92.42 10.43 173.28-5.17 217.71-41.67q6.43-7.63 12.7-15.61" class="cls-8"/><path d="M560.08 286.98c-.08-.14-.11-.32-.24-.42a1.27 1.27 0 0 0-1.72.18c-38 43.59-131.58 61.29-244.09 46.17-113.24-15.22-204.76-45.78-257.71-86.07-29.07-22.12-45-46-47.22-70.9a1.28 1.28 0 0 0-.5-.9 1.33 1.33 0 0 0-.7-.26c-.16 0-.26.09-.39.12-1.45 8-2.67 16.14-3.71 24.42 4.95 23.74 21.21 46.34 48.56 67.15 54.53 41.49 150 72.76 262 85.79 101.92 11.85 182.4-2.54 227.45-40.41 2.92-3.64 5.88-7.24 8.74-11 3.53-4.65 6.65-9.27 9.55-13.86" class="cls-8"/><path d="M557.04 291.39a166.49 166.49 0 0 0 11.65-19.78.88.88 0 0 0-.24-.36l-.08-.07a1.25 1.25 0 0 0-1.67.28c-36.34 45.89-126.44 62.08-253.75 45.56-108.68-14.1-201.36-45.29-254.28-85.55-29.18-22.2-44.84-46-46.55-70.75a1.27 1.27 0 0 0-.5-.91 1.21 1.21 0 0 0-.66-.27c-.13 0-.24.08-.36.11-1.36 6.08-2.61 12.27-3.71 18.59 3 24.9 19 48.65 47.87 70.6 53.3 40.55 145.25 71.3 258.91 86.56 110.68 14.87 203.13-2 243.37-44" class="cls-8"/><path d="M566.72 275.21a136.17 136.17 0 0 0 10.79-27.38 1.05 1.05 0 0 0-.31-.18 1.27 1.27 0 0 0-1.59.62c-26.49 52.68-130.14 72.69-264 51-110.91-18-199.8-49.08-250.29-87.5-30.36-23.1-45.08-47.39-43.74-72.21a1.23 1.23 0 0 0-.5-1.07 1.32 1.32 0 0 0-.55-.25 1.28 1.28 0 0 0-.43.1 355.62 355.62 0 0 0-6.19 24.48c2.41 24.82 18.24 48.59 47.28 70.68 53.25 40.52 146.37 71.88 255.5 86.05 126.12 16.36 216.05.58 254.08-44.32" class="cls-8"/><path d="M576.4 251.81a118.88 118.88 0 0 0 4.15-19c-.05 0 0-.11-.06-.15a1.48 1.48 0 0 0-.35-.19 1.27 1.27 0 0 0-1.54.61c-27 52-126.39 70.09-265.79 48.3-107.39-16.8-198.1-48.57-248.85-87.18-27.51-20.93-42.09-42.77-43.37-64.91a1.22 1.22 0 0 0-.49-.93 1.2 1.2 0 0 0-.61-.26c-.1 0-.18.05-.27.07-1.45 4.39-2.82 8.9-4.11 13.49-.33 25.08 14.58 49.23 44.62 72.08 50.82 38.67 140.11 69.92 251.43 88 132.94 21.55 236.3 1.9 265.24-49.95" class="cls-8"/><path d="M580.17 235.37a111 111 0 0 0 1.4-18.39 1.18 1.18 0 0 0-.4-.17 1.27 1.27 0 0 0-1.39.95c-13.06 50.34-131.65 70.89-270 46.78-103.24-18-190.62-49.74-239.74-87.11-32-24.34-45.77-49.57-39.86-73a1.27 1.27 0 0 0-.47-1.32 1.14 1.14 0 0 0-.34-.19 1.18 1.18 0 0 0-.46 0A257.84 257.84 0 0 0 18.26 131c1.9 22.36 16.67 44.28 44.14 65.18 51.07 38.86 142.19 70.81 250 87.67 139.54 21.81 239.36 3.64 267.75-48.55" class="cls-8"/><path d="M581.48 220.69a108.29 108.29 0 0 0-.9-17.14 1.2 1.2 0 0 0-.39-.13 1.27 1.27 0 0 0-1.28 1c-9 50.37-122.12 68-269 42-101.88-18.05-187.79-49.32-235.7-85.77-28.72-21.85-42-44.77-38.52-66.26.09-.59.21-1.16.33-1.75a1.43 1.43 0 0 0-.5-1.39 1.35 1.35 0 0 0-.29-.16 1.3 1.3 0 0 0-.44 0c-2.61 4.88-5.07 10.07-7.39 15.46-4.49 23.81 9.57 48.87 41.16 72.9 49.41 37.6 137.19 69.53 240.82 87.59 137.52 24 255.77 3.58 272.11-46.34" class="cls-8"/><path d="M580.92 206.88a113.21 113.21 0 0 0-3.81-20.12 1.29 1.29 0 0 0-.46-.14 1.27 1.27 0 0 0-1.18 1.06c-1.62 10.29-7.87 19.38-18.57 27-38.1 27.21-126.43 32.72-230.57 14.38-106.23-18.7-198.23-51.62-246.12-88.05-25.73-19.58-37.26-38.8-34.26-57.12a45.8 45.8 0 0 1 5.42-15 1.26 1.26 0 0 0-.35-1.63l-.06-.05c-.12-.08-.25 0-.38-.08-.94 1.15-1.95 2.23-2.85 3.41a158.48 158.48 0 0 0-14.58 23.7c-3.51 22.39 10.13 46 39.51 68.39 48.23 36.7 134.53 68.14 236.81 86.26 146.4 26 259.64 8.24 271.45-42" class="cls-8"/><path d="M558.41 216.74c10.91-7.79 17.33-17.12 19.29-27.66a123.15 123.15 0 0 0-6.26-17.55c-.12 0-.22-.1-.34-.08a1.26 1.26 0 0 0-1 1.22c0 .71-.06 1.4-.13 2.09-1 9.12-6.25 17.16-15.54 23.9-37.8 27.45-139.2 31.08-246.61 8.86-95.63-19.78-178.08-50.89-220.55-83.2-24.52-18.66-35.17-36.93-31.63-54.29.86-4.24 3.21-8.82 7-13.57a1.28 1.28 0 0 0-.15-1.74l-.08-.06c-.09-.07-.21-.05-.31-.09a150.53 150.53 0 0 0-14 15.67 47.83 47.83 0 0 0-4.56 13.26c-3.16 19.32 8.69 39.35 35.23 59.54 48.19 36.67 140.61 69.76 247.22 88.54 104.81 18.46 193.9 12.77 232.51-14.84" class="cls-8"/><path d="M555.9 200.71c9.89-7.18 15.46-15.82 16.56-25.67 0-.39.05-.8.07-1.18a148.58 148.58 0 0 0-15.68-28c-.17 0-.35-.14-.52 0a1.28 1.28 0 0 0-.49 1.66c2.36 4.75 3.46 8.63 3.24 11.54-.55 7.47-4.68 14.15-12.27 19.83-34.93 26.16-138.64 28.32-246.64 5.02-89.38-19.24-162.69-47.05-201.12-76.29-22.8-17.35-32.83-34.79-29-50.44 1.33-5.44 5.25-11.11 11.64-16.86 1.22-.88 2.45-1.73 3.69-2.57a1.26 1.26 0 0 0 .34-1.76 1.54 1.54 0 0 0-.28-.29c-.05-.05-.14 0-.2 0a156.78 156.78 0 0 0-26.73 22.39c-2.66 4-4.65 7.82-5.39 11.44-3.74 18.4 7.22 37.51 32.59 56.82 42.76 32.52 125.59 63.81 221.56 83.66 108.06 22.36 210.28 18.54 248.62-9.29" class="cls-8"/><path d="M548.32 180.93c8.2-6.14 12.68-13.45 13.29-21.68.2-2.6-.49-5.79-2-9.51a185 185 0 0 0-17.7-22.61c-.25 0-.48-.15-.68 0a1.25 1.25 0 0 0-.27 1.69c4 6 5.73 11.05 5.26 15.11-.68 6.15-4.4 11.7-11 16.51-32.48 23.62-125.11 25.78-225.27 5.28-88-18-160-44.76-197.64-73.39-20.52-15.61-29.88-31.34-27.07-45.48 1.21-6.1 5.31-11.64 12.16-16.49a1.26 1.26 0 0 0 .33-1.71 1 1 0 0 0-.3-.33s0 0-.07 0a168.54 168.54 0 0 0-20.57 13.35c-4.84 5-7.95 10-9.15 14.9-4.09 16.7 6.25 35.05 29.92 53.06 39.29 29.89 111.07 57.14 202.12 76.75 110.39 23.76 212.66 21.52 248.68-5.46" class="cls-8"/><path d="M536.67 162.51c7.23-5.26 11.3-11.41 12.07-18.28.44-3.82-.85-8.34-3.66-13.39a240.51 240.51 0 0 0-34.2-32 1.19 1.19 0 0 0-.43.23 1.28 1.28 0 0 0 .06 1.74c11 10.61 16.35 19.66 15.51 26.17-.67 5.2-3.86 9.86-9.5 13.85-29.22 20.68-116.33 20.86-211.83.43-80.07-17.12-142.2-40.28-175-65.23-18.11-13.78-26-27.12-23.44-39.64 1.29-6.39 5.73-11.91 13.17-16.41a1.26 1.26 0 0 0 .5-1.62 1.22 1.22 0 0 0-.36-.45 189.26 189.26 0 0 0-27.49 13.56c-5.09 4.51-8.28 9.5-9.36 14.93-3.06 15.38 6.37 31.52 28 48 37.91 28.85 110.33 55.76 198.66 73.85 100.8 20.63 194.24 18.28 227.26-5.7" class="cls-8"/><path d="M517.99 142.86c6.23-4.42 9.77-9.67 10.54-15.6.83-6.42-3.15-14.38-11.78-23.73-2.59-2.13-5.14-4.26-7.83-6.3a428.57 428.57 0 0 0-38.75-26.16c-.15.1-.33.15-.42.3a1.27 1.27 0 0 0 .3 1.7c2.4 1.67 4.7 3.33 6.86 5 16.4 12.48 24.81 23.32 23.7 30.53-.67 4.34-3.4 8.19-8.1 11.45-24.85 17.18-103 16.34-190-2-68.56-14.5-124.7-35.6-154-57.92-15.35-11.68-22.32-23-20.16-32.87 1.47-6.7 7.55-12.19 18.08-16.31a1.27 1.27 0 0 0 .74-1.57 1.05 1.05 0 0 0-.25-.36 222 222 0 0 0-31 10.38c-6.7 4.64-10.85 10.11-12.16 16.48-2.75 13.55 5.45 27.73 24.4 42.15 33.08 25.17 95.57 48.5 176 65.7 96.14 20.57 184.09 20.22 213.84-.84" class="cls-8"/><path d="M479.31 76.74a477 477 0 0 0-48.14-26.63c-.13.1-.27.15-.35.3a1.26 1.26 0 0 0 .35 1.59l.15.1a165.38 165.38 0 0 1 19.85 12.72c12.46 9.48 18.51 18.34 17 24.93-5.14 22.4-79.38 25.27-165.54 6.36-57.35-12.57-108.11-31.9-132.46-50.47-11.48-8.73-16.74-17-15.23-23.85 2-9 15.39-15.68 37.75-18.74a1.26 1.26 0 0 0 1.09-1.4 1.36 1.36 0 0 0-.25-.44 278.66 278.66 0 0 0-51.77 9.17c-8.94 4.29-14.38 9.7-15.84 16.31-2.38 10.86 4.91 23.11 21.11 35.43 29.61 22.54 86.13 43.81 155 58.37 89 18.81 166.13 19.47 191.91 1.63 5.3-3.66 8.38-8.08 9.16-13.13 1.58-10.24-11.86-23-23.8-32.25" class="cls-8"/><path d="M470.6 90.31c1.78-7.73-4.43-17.24-17.94-27.51-3.28-2.5-7.11-5-11.19-7.59a520.4 520.4 0 0 0-71.3-29.84c-.11.13-.26.2-.32.36a1.26 1.26 0 0 0 .43 1.43 1.11 1.11 0 0 0 .32.18c19.85 7.37 35.83 15.44 46.22 23.34 9.26 7 13.53 13.58 12.37 18.87-3.75 17.06-60.92 19.07-127.44 4.5-44.23-9.69-83.62-24.77-102.79-39.36-8.85-6.73-12.94-13-11.81-18.16 1.94-8.82 18.54-14.16 45.52-14.67A1.27 1.27 0 0 0 233.92.6c0-.18-.15-.28-.22-.44a345.61 345.61 0 0 0-51.58 2.2c-17.53 3.77-27.77 10.18-29.68 18.89-1.77 8 3.67 16.9 16.16 26.41 25 19.05 74.93 38.09 133.48 50.94 90.46 19.84 162.92 16.27 168.53-8.29" class="cls-8"/><path d="M431.65 70.1c1.42-6.42-3.06-13.64-13.31-21.43-7.44-5.67-17.82-11.45-30.26-17C332.81 10.95 273.84-.54 219.42-.01c-20.52 1.91-32.88 7.42-34.75 16-1.38 6.27 2.91 13.24 12.75 20.72 19.44 14.79 59.21 30.05 103.79 39.81 70.18 15.38 126.25 12.62 130.44-6.42M300.82 50.93c-29.59-6.61-55.44-16.4-67.45-25.54-5-3.78-7.28-7.22-6.66-10 2-9.11 35.47-11.88 82-1.48 28.56 6.39 54 16.2 66.35 25.61 5.36 4.07 7.85 7.75 7.21 10.63-1.94 8.67-33.62 11.42-81.43.74" class="cls-8"/><path d="M384.72 50.74c.89-4-1.85-8.42-8.14-13.2-12.63-9.62-38.44-19.6-67.33-26.05-39.44-8.82-82-10-85 3.39-.86 3.82 1.7 8 7.6 12.52 12.27 9.34 38.51 19.31 68.43 26 39.69 8.88 81.43 10.81 84.45-2.65M349.56 38.4c-3.88 2.94-20.52 3.21-44.82-2-18.93-4-35.55-10-42.36-15.19-1.9-1.44-3-2.81-2.91-3.74a1.59 1.59 0 0 1 .78-1.17c4-3 21.11-3.47 45 1.63 18.39 3.93 34.82 9.94 41.88 15.31 2.06 1.56 3.2 3 3.14 4 0 .15 0 .6-.74 1.13" class="cls-8"/><path d="M352.81 37.41c.12-2-1.22-4-4.12-6.19-7.33-5.58-24.17-11.77-42.89-15.76-22.35-4.78-41.72-5.26-47.1-1.18a4.06 4.06 0 0 0-1.76 3c-.12 1.9 1.15 3.82 3.9 5.91 7.07 5.39 24.1 11.53 43.36 15.65 19 4.05 40.86 6.1 46.87 1.53a4.07 4.07 0 0 0 1.74-3" class="cls-8"/></g></g></g></svg>