<svg xmlns="http://www.w3.org/2000/svg" data-name="Telia Pebble Icon segments RGB x50" viewBox="0 0 521.23 584.01"><defs><style>.cls-1{fill:#990ae3}.cls-3{fill:#9b009b}.cls-4{fill:#3d3d3d}.cls-9{fill:#fff}</style></defs><g data-name="29"><path d="M452.81 467.01c-.09-.12-.13-.26-.25-.34a1.24 1.24 0 0 0-1.72.31 331.43 331.43 0 0 1-86.09 82c-25.8 17.05-49.52 27.55-70.49 31.19a87.85 87.85 0 0 1-10.37 1.23h-.14a1.27 1.27 0 0 0-1 1.21c0 .17.11.28.16.42a119.42 119.42 0 0 0 34.14-.61c46.2-8 96.61-50.39 135.81-115.47"/><path d="M447.38 475.84a431.78 431.78 0 0 0 30.83-57.88c-.1-.13-.16-.28-.31-.35s-.42.33-.67.38-1.27 1.61-1.47 2c-22.48 42.11-72.12 101.65-139.37 136-19.77 10.08-38 16.64-54.28 19.47a92.55 92.55 0 0 1-22.81 1.36 1.15 1.15 0 0 0-.32 0 1.25 1.25 0 0 0-1 1c0 .15.06.29.08.42a166.45 166.45 0 0 0 29.74 5.26c2.29-.23 4.57-.39 6.9-.79 21.33-3.71 45.37-14.35 71.46-31.59a335.41 335.41 0 0 0 81.24-75.29"/><path d="M486.51 396.79a1.26 1.26 0 0 0-1.64.6c-43.87 89-144.13 161.14-210.24 172.65-14.3 2.49-27 2.3-37.81-.54a1.23 1.23 0 0 0-.54 0 1 1 0 0 0-1 1.36 221.25 221.25 0 0 0 26.79 8.46 97 97 0 0 0 20.44-1.4c16.51-2.87 35-9.51 55-19.72 63.31-32.33 111.51-88.37 136.06-130.21q7-14.89 13.2-30.87c-.11-.11-.17-.26-.33-.33"/><path d="M502.32 348.14a296.57 296.57 0 0 1-29.12 59.63c-46.17 73.11-140.6 142.48-210.49 154.64-20.55 3.58-37.43 3.1-51.15-3.28a5.24 5.24 0 0 0-1.48-.45c-.39.07-.5-.27-.68.11a1 1 0 0 0 0 .52 282 282 0 0 0 31.6 13.57c10.11 1.88 21.45 1.85 34-.34 65.19-11.34 163-81 208.74-167.84a496.35 496.35 0 0 0 19.2-57.17Z"/><path d="M506.27 332.8a1.24 1.24 0 0 0-.57 0 1.3 1.3 0 0 0-1 .83 298.9 298.9 0 0 1-29.19 60.55c-48.11 76.13-148 148.62-222.62 161.61-21.61 3.76-39.9 2.37-54.37-4.18a1.36 1.36 0 0 0-.74-.09 1.24 1.24 0 0 0-.91.68c-.09.15 0 .32-.05.5 6.7 3.71 13.38 7.08 20.06 10.2 13 4.29 28.41 5.12 46.27 2 71.69-12.47 164.9-80.9 212.19-155.78 11.19-17.71 18.71-35.46 25-52.42q3.38-11.62 6.26-23.66c-.11-.08-.17-.21-.32-.25"/><path d="M511.7 307.29a1.15 1.15 0 0 0-.52 0 1.27 1.27 0 0 0-1 .84c-6.75 20.34-19.31 50.9-40.79 81-46.47 65-146 143.83-225.7 157.71-25.51 4.44-47.8 2.14-65.57-7a1.24 1.24 0 0 0-1.67.49c-.05.08 0 .15 0 .22q12.66 8.09 25.44 14.9c14.26 5.25 31.39 6.36 51.42 2.87 75.27-13.09 175.89-86.11 224.31-162.76a301.09 301.09 0 0 0 27.11-54.93c2.75-10.77 5.24-21.77 7.34-33a1 1 0 0 0-.38-.28"/><path d="M514.71 289.6a1.21 1.21 0 0 0-.5 0 1.28 1.28 0 0 0-1 .84c-11.8 35.56-27.94 66.05-49.32 93.21-61.08 77.58-158.09 143-230.64 155.67-25.28 4.4-46.92 2.45-64.33-5.78a1.32 1.32 0 0 0-.76-.1 1.27 1.27 0 0 0-.88.63c-.07.12 0 .25-.06.39q7.71 5.21 15.49 10c17.3 7.28 37.88 8.95 61.42 4.85 80.35-14 180.57-93.29 227.32-158.73a310 310 0 0 0 39.23-76.14c1.62-8.09 3.1-16.26 4.37-24.58-.12-.09-.18-.2-.34-.23"/><path d="M518.42 259.09a1.13 1.13 0 0 0-.41 0 1.24 1.24 0 0 0-1 1c-8.81 38.48-31.63 82-61 116.29-66.15 77.22-161.71 139.75-232.39 152-31.46 5.47-58 2.17-78.23-11a1.26 1.26 0 0 0-.9-.18 1.34 1.34 0 0 0-.61.37c9.08 7 18.3 13.63 27.63 19.76 17.22 7.15 37.29 8.82 62.21 4.49 73.11-12.72 170.76-78.58 232.19-156.6 20.78-26.39 36.54-56 48.32-90.18q2.83-17.52 4.57-35.74c-.11-.06-.19-.18-.35-.21"/><path d="M519.58 245.2a1 1 0 0 0-.43 0 1.29 1.29 0 0 0-1 .91c-9.83 35.74-25.06 75.53-69.59 124.23-71.89 78.65-163.64 137.35-233.72 149.54-30.55 5.32-56.61 2.08-77.46-9.61a1.24 1.24 0 0 0-.87-.18 1.28 1.28 0 0 0-.83.54c-.09.13-.06.29-.1.44 4.51 3.62 9.07 7.19 13.67 10.63 20.11 11.15 45.16 14.28 74.74 9.13 71.21-12.39 167.38-75.27 233.87-152.89 28.57-33.34 50.82-75.2 60.38-113q1-9.71 1.71-19.58a1.1 1.1 0 0 0-.4-.24" class="cls-1"/><path d="M520.75 216.6a1.36 1.36 0 0 0-.35 0 1.28 1.28 0 0 0-1 1c-9.77 51.2-36.08 98.32-80.38 144.05-75.96 78.38-166.51 134.61-236.51 146.78-31.8 5.53-58.71 2-80-10.55a1.27 1.27 0 0 0-1.67.36c-.08.11-.06.25-.1.37q9.09 7.93 18.51 15.41c21 10.65 46.4 13.51 76 8.36 70.62-12.29 162.92-71.29 235.18-150.29 43.36-47.42 59.15-86.48 69.11-121.6.87-11.05 1.37-22.29 1.56-33.67a1.16 1.16 0 0 0-.35-.18" class="cls-1"/><path d="M520.81 203.41a1.36 1.36 0 0 0-.35 0 1.28 1.28 0 0 0-1 1c-10.52 50.85-40.37 101.05-88.72 149.2-60.55 60.34-154.91 130-238.07 144.43-32.47 5.65-59.93 2.11-81.65-10.52a1.27 1.27 0 0 0-1.65.34 1.34 1.34 0 0 0-.11.39c4.85 4.5 9.75 8.92 14.77 13.21 21.48 11.65 47.93 14.86 79 9.47 70.43-12.26 161.57-68.78 237.84-147.5 43.67-45.07 69.87-91.56 80.26-141.91.14-5.94.21-11.9.16-17.9-.14-.07-.25-.19-.41-.21" class="cls-1"/><path d="M1208.65 352.47a.93.93 0 0 0-.29 0 1.25 1.25 0 0 0-1 1c-10.86 57.3-44.28 112.45-99.34 163.92-82.69 77.32-169.08 128.42-237 140.24-34.65 6-63.75 1.79-86.49-12.61a1.22 1.22 0 0 0-.89-.17 1.25 1.25 0 0 0-.78.45c-.08.11-.06.25-.11.37 5.77 5.8 11.68 11.5 17.75 17 22 12 49.21 15.26 81.08 9.71 83.76-14.57 178.6-84.51 239.44-145.12 47.78-47.59 77.52-97.23 88.67-147.58 0-8.95-.15-18-.61-27.07a1 1 0 0 0-.41-.2" style="fill:#93f" transform="translate(-688.49 -171.91)"/><path d="M519.09 164.31a1 1 0 0 0-.25 0 1.26 1.26 0 0 0-1 1.09c-6.23 51.79-44.41 112.73-107.52 171.59-77.47 72.27-172.06 126.71-241 138.71-34.46 6-62.22 1.9-82.55-12.16a1.32 1.32 0 0 0-.94-.21 1.3 1.3 0 0 0-.74.42 1.63 1.63 0 0 0-.13.37q5.93 6.29 12.08 12.38c23.09 13.67 51.88 17.62 85.93 11.7 68.39-11.9 155.25-63.24 238.29-140.87 54.62-51.06 88-105.79 99.47-162.69-.28-6.7-.71-13.43-1.25-20.21a1.14 1.14 0 0 0-.36-.15" class="cls-1"/><path d="M516.37 135.82a1.07 1.07 0 0 0-.47 0 1.29 1.29 0 0 0-1 1.22c-1.71 57.38-45.42 128.37-116.95 189.9-88.62 76.23-173 124.4-237.66 135.65-35.7 6.21-65.17 1.32-87.59-14.54a1.23 1.23 0 0 0-.94-.22 1.26 1.26 0 0 0-.71.39 1 1 0 0 0-.17.42c5.38 6.22 11 12.35 16.82 18.39 20.81 13.28 48.25 17.06 82.02 11.2 69.37-12.07 164.49-66.77 242.29-139.35 62.18-58 100.26-118.12 107.77-169.75-.76-11-1.78-22.06-3.24-33.25a.67.67 0 0 0-.17-.06" class="cls-3"/><path d="M514.31 120.99c-.14 0-.24-.13-.4-.12h-.13a1.27 1.27 0 0 0-1 1.23c-1.22 58.82-45.42 128.39-124.46 195.9-85.43 72.92-172.81 121.45-239.94 133.09-34.15 6-61.81 2.33-82.21-10.71a1.26 1.26 0 0 0-.9-.18 1.21 1.21 0 0 0-.73.42c-.08.08-.07.19-.13.3 2.88 3.48 5.81 6.92 8.82 10.36 22.9 15.26 52.2 19.9 87.46 13.76 65.07-11.32 149.9-59.7 238.87-136.23 70.51-60.64 114.08-130.53 117.55-187.92q-1.21-9.91-2.8-19.93" class="cls-3"/><path d="M509.25 95.42c-.15 0-.3-.14-.46-.11a1.27 1.27 0 0 0-1 1.38c6.07 57.54-44.59 138.14-132.2 210.33-88.19 72.64-172.84 118.94-238.4 130.34-36 6.26-64.28 1.68-84.08-13.62a1.3 1.3 0 0 0-1-.24 1.27 1.27 0 0 0-.67.34c-.11.11-.11.25-.18.36 4.86 6.49 10 12.94 15.38 19.33 20.77 12.53 48.39 16 82.25 10.09C216.4 441.87 304.28 393.14 390 319.93c78-66.64 122.22-135.42 125.1-194.2-.68-4.62-1.31-9.23-2.11-13.89-1-5.75-2.27-11.18-3.67-16.42" class="cls-3"/><path d="M510.42 100.65a166.12 166.12 0 0 0-6.57-22 1.08 1.08 0 0 0-.43-.07h-.11a1.25 1.25 0 0 0-.93 1.41c8.92 57.85-40.5 134.9-139.21 217C278.9 367.09 193 413.78 127.51 425.18c-36.13 6.29-64.23 1.57-83.53-14a1.28 1.28 0 0 0-1.65 0c-.1.08-.11.22-.17.33 3.54 5.13 7.22 10.26 11.1 15.37 20.3 14.74 48.6 19.15 84.32 12.93 66-11.48 151.06-58 239.57-130.9 86.18-71 136.68-150.26 133.29-208.31"/><path d="M505.15 82.55a136.17 136.17 0 0 0-12.72-26.53 1 1 0 0 0-.34.11 1.28 1.28 0 0 0-.64 1.58c20.6 55.26-35.24 144.84-142.24 228.22-88.64 69.05-171.89 113.07-234.4 123.94-37.58 6.54-65.4.81-82.68-17.06a1.24 1.24 0 0 0-1.13-.36 1.31 1.31 0 0 0-.56.23c-.12.1-.15.26-.22.38 4.23 7 8.79 14.13 13.74 21.19 19.83 15.12 48 19.69 84 13.43 65.92-11.47 152.25-58.4 236.87-128.74 97.79-81.32 147.4-158 140.35-216.39"/><path d="M494.57 59.53a116.6 116.6 0 0 0-11.06-15.94s-.09-.06-.15-.05a1.23 1.23 0 0 0-.37.12 1.27 1.27 0 0 0-.6 1.55c19.75 55.21-34.6 140.32-145.4 227.67-85.38 67.28-170.37 112.21-233.2 123.1-34 5.92-60 1.75-77.07-12.37a1.24 1.24 0 0 0-1-.27 1.22 1.22 0 0 0-.6.27c-.09.07-.09.17-.14.25 2.23 4.05 4.61 8.12 7.1 12.18 18.16 17.31 46 22.81 83.18 16.34 62.92-10.95 146.56-55.14 235.52-124.45 106.23-82.78 162.14-171.91 143.81-228.4"/><path d="M485.09 45.59a109.52 109.52 0 0 0-12.53-13.5 1.15 1.15 0 0 0-.39.18 1.26 1.26 0 0 0-.25 1.65c28 43.83-37.59 144.73-149.36 229.72-83.42 63.39-166.13 105.84-226.93 116.45-39.6 6.89-67.47-.16-80.59-20.4a1.29 1.29 0 0 0-1.28-.56 1.32 1.32 0 0 0-.38.13c-.13.08-.19.23-.29.35a258.94 258.94 0 0 0 13.33 26.91c17.69 13.81 43.81 17.9 77.81 12 63.23-11 148.63-56 234.31-123.6 110.91-87.44 165.5-173 146.55-229.28" class="cls-1"/><path d="M475.22 34.63a108.37 108.37 0 0 0-13.17-11 .92.92 0 0 0-.36.2 1.26 1.26 0 0 0-.11 1.64c30.8 40.85-33.22 135.78-152.23 225.72-82.54 62.4-163.9 104.11-223.21 114.43-35.55 6.18-61.42.35-74.77-16.84-.37-.47-.71-1-1.06-1.43a1.41 1.41 0 0 0-1.35-.58.92.92 0 0 0-.32.1 1.14 1.14 0 0 0-.31.31c1.81 5.24 3.94 10.57 6.31 15.94 14.4 19.48 42.33 26.23 81.43 19.42 61.17-10.64 144.28-53.26 228-116.94 111.12-84.49 176.61-185 151.13-231" class="cls-1"/><path d="M464.72 25.65a112.83 112.83 0 0 0-17.34-10.89 1.3 1.3 0 0 0-.41.24 1.26 1.26 0 0 0 0 1.59c6.44 8.18 8.86 18.95 7.18 32-6 46.43-62 114.93-146.31 178.79-86 65.14-172.68 110.18-232 120.5-31.86 5.54-53.79.92-65.18-13.74a45.6 45.6 0 0 1-7.29-14.17 1.28 1.28 0 0 0-1.44-.86h-.07c-.14 0-.21.15-.32.22.2 1.47.31 2.94.56 4.41a157 157 0 0 0 7.45 26.8c14 17.81 40.64 23.9 77 17.57 59.7-10.39 141.46-52.26 224.31-114.89C429.51 163.57 493.51 68.51 464.72 25.65" class="cls-1"/><path d="M456.64 48.87c1.71-13.31-.76-24.36-7.16-33a122.51 122.51 0 0 0-17.12-7.34c-.09.07-.22.09-.29.19a1.26 1.26 0 0 0 .2 1.58c.51.5 1 1 1.44 1.52 6 6.94 8.33 16.25 7 27.64-5.6 46.38-71.91 123.18-161.26 186.8-79.55 56.63-158.43 95.91-211 105.05-30.36 5.29-51 .67-61.32-13.74-2.52-3.52-4.27-8.35-5.21-14.33a1.29 1.29 0 0 0-1.38-1.07H.45c-.11 0-.19.12-.28.16a149.33 149.33 0 0 0 1.95 20.94 48.15 48.15 0 0 0 6.61 12.37c12 15.45 34.76 20.39 67.61 14.67 59.66-10.38 146.79-55.6 233.07-121C394.24 165.03 450.67 95.86 456.7 48.79" class="cls-1"/><path d="M443.17 39.8c1.47-12.14-1.07-22.1-7.55-29.6-.25-.3-.54-.58-.81-.86a149.46 149.46 0 0 0-31.16-7.53c-.11.14-.34.17-.38.36a1.29 1.29 0 0 0 .89 1.49c5.09 1.5 8.68 3.34 10.66 5.47 5.1 5.49 7.18 13.07 6.19 22.5-4.6 43.38-73.61 120.85-164.1 184.18-74.9 52.42-145.15 87.28-192.73 95.52-28.22 4.91-47.83.39-56.7-13.05-3.08-4.68-4.57-11.42-4.44-20 .19-1.48.41-3 .63-4.45a1.25 1.25 0 0 0-1.06-1.44 1.08 1.08 0 0 0-.4 0c-.07 0-.08.12-.15.14a157.58 157.58 0 0 0-1.77 34.83c1.1 4.64 2.57 8.72 4.72 11.73 10.94 15.26 32.41 20.22 63.82 14.76 52.92-9.21 132.2-48.65 212-105.49 89.89-64 156.63-141.52 162.3-188.55" class="cls-4"/><path d="M423.51 31.9c1.08-10.19-1.23-18.44-6.85-24.49-1.77-1.91-4.57-3.58-8.33-5a186.11 186.11 0 0 0-28.61-2.4c-.15.19-.43.25-.46.5a1.27 1.27 0 0 0 1.06 1.36c7.07 1.16 12 3.31 14.66 6.41 4 4.69 5.58 11.19 4.59 19.33-4.79 39.87-66.22 109.24-149.37 168.71-73.04 52.22-141.69 86.83-188.23 94.93-25.4 4.42-43.3.58-51.75-11.09-3.65-5-4.93-11.81-3.82-20.13a1.26 1.26 0 0 0-1-1.41.93.93 0 0 0-.44 0s0 0 0 .05a166.69 166.69 0 0 0-4.2 24.16c.4 7 1.93 12.65 4.69 16.84 9.46 14.36 29.95 19.26 59.25 14.16 48.63-8.46 117.43-42.54 193.74-95.94 92.51-64.75 160.44-141.24 165.16-186" class="cls-4"/><path d="M1090.59 199.81c1.06-8.87-.68-16-5.19-21.28-2.5-2.92-6.7-5.05-12.31-6.42a240.52 240.52 0 0 0-46.74 3.27 1.15 1.15 0 0 0-.13.48 1.27 1.27 0 0 0 1.32 1.13c15.26-.84 25.53 1.39 29.73 6.44 3.36 4 4.6 9.54 3.69 16.38-4.72 35.49-63.84 99.46-143.78 155.57-67 47-126.26 76.82-166.85 83.89-22.42 3.9-37.56.6-45-9.79-3.81-5.29-4.84-12.3-3.07-20.82a1.26 1.26 0 0 0-.84-1.46 1.29 1.29 0 0 0-.58-.05 188.77 188.77 0 0 0-8.76 29.38c-.16 6.8 1.33 12.53 4.58 17 9.18 12.71 27.43 16.78 54.24 12.12 46.94-8.17 115.93-42.94 189.27-95.39 83.69-59.85 145.54-129.94 150.42-170.46" style="fill:#292929" transform="translate(-688.49 -171.91)"/><path d="M374.99 28.23c1-7.57-.44-13.74-4.27-18.34-4.14-5-12.68-7.47-25.41-7.5-3.31.45-6.62.87-9.94 1.45a429.61 429.61 0 0 0-45.56 10.63c0 .18-.11.34-.06.51a1.27 1.27 0 0 0 1.45.94c2.86-.62 5.64-1.17 8.31-1.64 20.31-3.53 34-2.33 38.51 3.39 2.72 3.45 3.68 8.07 2.87 13.73-4.31 29.9-58.06 86.59-130.7 137.85-57.26 40.39-110.91 67.19-147.23 73.51-19 3.31-32.08.69-37.81-7.58-3.91-5.64-3.8-13.83.34-24.35a1.27 1.27 0 0 0-.65-1.61.92.92 0 0 0-.43-.06 223.29 223.29 0 0 0-13.48 29.78c-1.16 8.07 0 14.83 3.81 20.12 8.05 11.24 24 14.87 47.49 10.79 41-7.12 100.57-37.06 167.87-84.29 80.48-56.48 140-121.19 144.85-157.32" class="cls-4"/><path d="M300.21 11.61a475.37 475.37 0 0 0-52.3 17.2 1.25 1.25 0 0 0 0 .47 1.27 1.27 0 0 0 1.41.82h.18a163.79 163.79 0 0 1 22.83-5.91c15.43-2.69 26-1.09 29.84 4.49 12.93 19-35.47 75.37-107.94 125.66-48.21 33.48-96.92 57.52-127.11 62.78-14.21 2.47-23.83.72-27.84-5.07-5.27-7.59-1-21.95 11.94-40.42a1.25 1.25 0 0 0-.29-1.74 1.07 1.07 0 0 0-.49-.12 279.29 279.29 0 0 0-28.49 44.18c-2.94 9.48-2.68 17.14 1.17 22.71 6.35 9.13 20.28 12.12 40.33 8.63 36.67-6.38 90.71-33.33 148.26-73.94C286.04 118.9 338.99 62.82 343.46 31.79c.92-6.38-.23-11.65-3.4-15.65-6.43-8.12-25-7-39.83-4.49"/><path d="M304.23 27.22c-4.46-6.56-15.65-8.48-32.37-5.57-4.06.71-8.53 1.78-13.17 3.05a520.17 520.17 0 0 0-70.38 32v.47a1.3 1.3 0 0 0 1.7.55c18.9-9.54 35.69-15.76 48.54-18 11.47-2 19.16-.68 22.25 3.77 9.95 14.35-27.46 57.63-83.39 96.47-37.19 25.83-75 44.44-98.78 48.57-10.95 1.91-18.34.63-21.33-3.69-5.16-7.43 2.22-23.23 20.21-43.35a1.29 1.29 0 0 0-.08-1.78c-.13-.11-.31-.07-.47-.14a346.69 346.69 0 0 0-33.45 39.29c-9.16 15.41-11.42 27.28-6.35 34.6 4.68 6.74 14.9 8.8 30.36 6.11 31-5.39 78.89-29 128.13-63.18 76.09-52.81 122.77-108.3 108.58-129.17"/><path d="M262.92 42.02c-3.74-5.41-12.08-7-24.76-4.82-9.21 1.6-20.51 5.27-33 10.64-52.79 26.42-101.32 61.83-137.95 102.08-12.57 16.34-16.93 29.15-11.94 36.33 3.65 5.27 11.68 6.87 23.86 4.75 24.06-4.19 62.3-23 99.78-49 59-41 95.13-84 84-100m-103 82.85c-25 17.2-49.74 29.49-64.61 32.07-6.15 1.07-10.24.43-11.83-1.88-5.29-7.69 15.43-34.09 54.69-61.1 24.11-16.6 48.59-28.56 63.9-31.22 6.63-1.16 11-.48 12.69 1.95 5 7.32-14.49 32.42-54.84 60.18"/><path d="M216.81 63.26c-2.31-3.36-7.43-4.38-15.21-3-15.65 2.72-40.52 14.84-64.9 31.63-33.3 22.91-63.1 53.34-55.34 64.62 2.21 3.23 7 4.22 14.34 3 15.2-2.65 40.36-15.09 65.61-32.48 33.5-23.05 63.31-52.34 55.5-63.7m-33 17.37c-.48 4.85-11.6 17.22-32 31.49-15.83 11.14-31.51 19.26-39.94 20.73-2.36.41-4.08.25-4.73-.41a1.61 1.61 0 0 1-.32-1.37c.49-5 11.81-17.84 31.83-31.9 15.38-10.8 31-18.76 39.71-20.28 2.54-.45 4.39-.29 5.07.43a1.45 1.45 0 0 1 .33 1.31"/><path d="M873.82 249.48c-1.35-1.42-3.75-1.81-7.34-1.19-9.07 1.58-25.07 9.72-40.73 20.72-18.7 13.14-32.23 27-32.89 33.72a4 4 0 0 0 1 3.36c1.31 1.38 3.59 1.76 7 1.16 8.75-1.52 24.84-9.82 41-21.14 15.89-11.16 32.27-25.79 33-33.31a4.06 4.06 0 0 0-1-3.32" style="fill:#1d1d1b" transform="translate(-688.49 -171.91)"/><g style="mask:url(#mask)"><g style="opacity:.3"><path d="M452.81 467.01c-.09-.12-.13-.26-.25-.34a1.24 1.24 0 0 0-1.72.31 331.43 331.43 0 0 1-86.09 82c-25.8 17.05-49.52 27.55-70.49 31.19a87.85 87.85 0 0 1-10.37 1.23h-.14a1.27 1.27 0 0 0-1 1.21c0 .17.11.28.16.42a119.42 119.42 0 0 0 34.14-.61c46.2-8 96.61-50.39 135.81-115.47" class="cls-9"/><path d="M447.38 475.84a431.78 431.78 0 0 0 30.83-57.88c-.1-.13-.16-.28-.31-.35s-.42.33-.67.38-1.27 1.61-1.47 2c-22.48 42.11-72.12 101.65-139.37 136-19.77 10.08-38 16.64-54.28 19.47a92.55 92.55 0 0 1-22.81 1.36 1.15 1.15 0 0 0-.32 0 1.25 1.25 0 0 0-1 1c0 .15.06.29.08.42a166.45 166.45 0 0 0 29.74 5.26c2.29-.23 4.57-.39 6.9-.79 21.33-3.71 45.37-14.35 71.46-31.59a335.41 335.41 0 0 0 81.24-75.29" class="cls-9"/><path d="M486.51 396.79a1.26 1.26 0 0 0-1.64.6c-43.87 89-144.13 161.14-210.24 172.65-14.3 2.49-27 2.3-37.81-.54a1.23 1.23 0 0 0-.54 0 1 1 0 0 0-1 1.36 221.25 221.25 0 0 0 26.79 8.46 97 97 0 0 0 20.44-1.4c16.51-2.87 35-9.51 55-19.72 63.31-32.33 111.51-88.37 136.06-130.21q7-14.89 13.2-30.87c-.11-.11-.17-.26-.33-.33" class="cls-9"/><path d="M502.32 348.14a296.57 296.57 0 0 1-29.12 59.63c-46.17 73.11-140.6 142.48-210.49 154.64-20.55 3.58-37.43 3.1-51.15-3.28a5.24 5.24 0 0 0-1.48-.45c-.39.07-.5-.27-.68.11a1 1 0 0 0 0 .52 282 282 0 0 0 31.6 13.57c10.11 1.88 21.45 1.85 34-.34 65.19-11.34 163-81 208.74-167.84a496.35 496.35 0 0 0 19.2-57.17Z" class="cls-9"/><path d="M506.27 332.8a1.24 1.24 0 0 0-.57 0 1.3 1.3 0 0 0-1 .83 298.9 298.9 0 0 1-29.19 60.55c-48.11 76.13-148 148.62-222.62 161.61-21.61 3.76-39.9 2.37-54.37-4.18a1.36 1.36 0 0 0-.74-.09 1.24 1.24 0 0 0-.91.68c-.09.15 0 .32-.05.5 6.7 3.71 13.38 7.08 20.06 10.2 13 4.29 28.41 5.12 46.27 2 71.69-12.47 164.9-80.9 212.19-155.78 11.19-17.71 18.71-35.46 25-52.42q3.38-11.62 6.26-23.66c-.11-.08-.17-.21-.32-.25" class="cls-9"/><path d="M511.7 307.29a1.15 1.15 0 0 0-.52 0 1.27 1.27 0 0 0-1 .84c-6.75 20.34-19.31 50.9-40.79 81-46.47 65-146 143.83-225.7 157.71-25.51 4.44-47.8 2.14-65.57-7a1.24 1.24 0 0 0-1.67.49c-.05.08 0 .15 0 .22q12.66 8.09 25.44 14.9c14.26 5.25 31.39 6.36 51.42 2.87 75.27-13.09 175.89-86.11 224.31-162.76a301.09 301.09 0 0 0 27.11-54.93c2.75-10.77 5.24-21.77 7.34-33a1 1 0 0 0-.38-.28" class="cls-9"/><path d="M514.71 289.6a1.21 1.21 0 0 0-.5 0 1.28 1.28 0 0 0-1 .84c-11.8 35.56-27.94 66.05-49.32 93.21-61.08 77.58-158.09 143-230.64 155.67-25.28 4.4-46.92 2.45-64.33-5.78a1.32 1.32 0 0 0-.76-.1 1.27 1.27 0 0 0-.88.63c-.07.12 0 .25-.06.39q7.71 5.21 15.49 10c17.3 7.28 37.88 8.95 61.42 4.85 80.35-14 180.57-93.29 227.32-158.73a310 310 0 0 0 39.23-76.14c1.62-8.09 3.1-16.26 4.37-24.58-.12-.09-.18-.2-.34-.23" class="cls-9"/><path d="M518.42 259.09a1.13 1.13 0 0 0-.41 0 1.24 1.24 0 0 0-1 1c-8.81 38.48-31.63 82-61 116.29-66.15 77.22-161.71 139.75-232.39 152-31.46 5.47-58 2.17-78.23-11a1.26 1.26 0 0 0-.9-.18 1.34 1.34 0 0 0-.61.37c9.08 7 18.3 13.63 27.63 19.76 17.22 7.15 37.29 8.82 62.21 4.49 73.11-12.72 170.76-78.58 232.19-156.6 20.78-26.39 36.54-56 48.32-90.18q2.83-17.52 4.57-35.74c-.11-.06-.19-.18-.35-.21" class="cls-9"/><path d="M519.58 245.2a1 1 0 0 0-.43 0 1.29 1.29 0 0 0-1 .91c-9.83 35.74-25.06 75.53-69.59 124.23-71.89 78.65-163.64 137.35-233.72 149.54-30.55 5.32-56.61 2.08-77.46-9.61a1.24 1.24 0 0 0-.87-.18 1.28 1.28 0 0 0-.83.54c-.09.13-.06.29-.1.44 4.51 3.62 9.07 7.19 13.67 10.63 20.11 11.15 45.16 14.28 74.74 9.13 71.21-12.39 167.38-75.27 233.87-152.89 28.57-33.34 50.82-75.2 60.38-113q1-9.71 1.71-19.58a1.1 1.1 0 0 0-.4-.24" class="cls-9"/><path d="M520.75 216.6a1.36 1.36 0 0 0-.35 0 1.28 1.28 0 0 0-1 1c-9.77 51.2-36.08 98.32-80.38 144.05-75.96 78.38-166.51 134.61-236.51 146.78-31.8 5.53-58.71 2-80-10.55a1.27 1.27 0 0 0-1.67.36c-.08.11-.06.25-.1.37q9.09 7.93 18.51 15.41c21 10.65 46.4 13.51 76 8.36 70.62-12.29 162.92-71.29 235.18-150.29 43.36-47.42 59.15-86.48 69.11-121.6.87-11.05 1.37-22.29 1.56-33.67a1.16 1.16 0 0 0-.35-.18" class="cls-9"/><path d="M520.81 203.41a1.36 1.36 0 0 0-.35 0 1.28 1.28 0 0 0-1 1c-10.52 50.85-40.37 101.05-88.72 149.2-60.55 60.34-154.91 130-238.07 144.43-32.47 5.65-59.93 2.11-81.65-10.52a1.27 1.27 0 0 0-1.65.34 1.34 1.34 0 0 0-.11.39c4.85 4.5 9.75 8.92 14.77 13.21 21.48 11.65 47.93 14.86 79 9.47 70.43-12.26 161.57-68.78 237.84-147.5 43.67-45.07 69.87-91.56 80.26-141.91.14-5.94.21-11.9.16-17.9-.14-.07-.25-.19-.41-.21" class="cls-9"/><path d="M520.16 180.56a.93.93 0 0 0-.29 0 1.25 1.25 0 0 0-1 1c-10.86 57.3-44.28 112.45-99.34 163.92-82.69 77.32-169.08 128.42-237 140.24-34.65 6-63.75 1.79-86.49-12.61a1.22 1.22 0 0 0-.89-.17 1.25 1.25 0 0 0-.78.45c-.08.11-.06.25-.11.37 5.77 5.8 11.68 11.5 17.75 17 22 12 49.21 15.26 81.08 9.71 83.76-14.57 178.6-84.51 239.44-145.12 47.78-47.59 77.52-97.23 88.67-147.58 0-8.95-.15-18-.61-27.07a1 1 0 0 0-.41-.2" class="cls-9"/><path d="M519.09 164.31a1 1 0 0 0-.25 0 1.26 1.26 0 0 0-1 1.09c-6.23 51.79-44.41 112.73-107.52 171.59-77.47 72.27-172.06 126.71-241 138.71-34.46 6-62.22 1.9-82.55-12.16a1.32 1.32 0 0 0-.94-.21 1.3 1.3 0 0 0-.74.42 1.63 1.63 0 0 0-.13.37q5.93 6.29 12.08 12.38c23.09 13.67 51.88 17.62 85.93 11.7 68.39-11.9 155.25-63.24 238.29-140.87 54.62-51.06 88-105.79 99.47-162.69-.28-6.7-.71-13.43-1.25-20.21a1.14 1.14 0 0 0-.36-.15" class="cls-9"/><path d="M516.37 135.82a1.07 1.07 0 0 0-.47 0 1.29 1.29 0 0 0-1 1.22c-1.71 57.38-45.42 128.37-116.95 189.9-88.62 76.23-173 124.4-237.66 135.65-35.7 6.21-65.17 1.32-87.59-14.54a1.23 1.23 0 0 0-.94-.22 1.26 1.26 0 0 0-.71.39 1 1 0 0 0-.17.42c5.38 6.22 11 12.35 16.82 18.39 20.81 13.28 48.25 17.06 82.02 11.2 69.37-12.07 164.49-66.77 242.29-139.35 62.18-58 100.26-118.12 107.77-169.75-.76-11-1.78-22.06-3.24-33.25a.67.67 0 0 0-.17-.06" class="cls-9"/><path d="M514.31 120.99c-.14 0-.24-.13-.4-.12h-.13a1.27 1.27 0 0 0-1 1.23c-1.22 58.82-45.42 128.39-124.46 195.9-85.43 72.92-172.81 121.45-239.94 133.09-34.15 6-61.81 2.33-82.21-10.71a1.26 1.26 0 0 0-.9-.18 1.21 1.21 0 0 0-.73.42c-.08.08-.07.19-.13.3 2.88 3.48 5.81 6.92 8.82 10.36 22.9 15.26 52.2 19.9 87.46 13.76 65.07-11.32 149.9-59.7 238.87-136.23 70.51-60.64 114.08-130.53 117.55-187.92q-1.21-9.91-2.8-19.93" class="cls-9"/><path d="M509.25 95.42c-.15 0-.3-.14-.46-.11a1.27 1.27 0 0 0-1 1.38c6.07 57.54-44.59 138.14-132.2 210.33-88.19 72.64-172.84 118.94-238.4 130.34-36 6.26-64.28 1.68-84.08-13.62a1.3 1.3 0 0 0-1-.24 1.27 1.27 0 0 0-.67.34c-.11.11-.11.25-.18.36 4.86 6.49 10 12.94 15.38 19.33 20.77 12.53 48.39 16 82.25 10.09C216.4 441.87 304.28 393.14 390 319.93c78-66.64 122.22-135.42 125.1-194.2-.68-4.62-1.31-9.23-2.11-13.89-1-5.75-2.27-11.18-3.67-16.42" class="cls-9"/><path d="M510.42 100.65a166.12 166.12 0 0 0-6.57-22 1.08 1.08 0 0 0-.43-.07h-.11a1.25 1.25 0 0 0-.93 1.41c8.92 57.85-40.5 134.9-139.21 217C278.9 367.09 193 413.78 127.51 425.18c-36.13 6.29-64.23 1.57-83.53-14a1.28 1.28 0 0 0-1.65 0c-.1.08-.11.22-.17.33 3.54 5.13 7.22 10.26 11.1 15.37 20.3 14.74 48.6 19.15 84.32 12.93 66-11.48 151.06-58 239.57-130.9 86.18-71 136.68-150.26 133.29-208.31" class="cls-9"/><path d="M505.15 82.55a136.17 136.17 0 0 0-12.72-26.53 1 1 0 0 0-.34.11 1.28 1.28 0 0 0-.64 1.58c20.6 55.26-35.24 144.84-142.24 228.22-88.64 69.05-171.89 113.07-234.4 123.94-37.58 6.54-65.4.81-82.68-17.06a1.24 1.24 0 0 0-1.13-.36 1.31 1.31 0 0 0-.56.23c-.12.1-.15.26-.22.38 4.23 7 8.79 14.13 13.74 21.19 19.83 15.12 48 19.69 84 13.43 65.92-11.47 152.25-58.4 236.87-128.74 97.79-81.32 147.4-158 140.35-216.39" class="cls-9"/><path d="M494.57 59.53a116.6 116.6 0 0 0-11.06-15.94s-.09-.06-.15-.05a1.23 1.23 0 0 0-.37.12 1.27 1.27 0 0 0-.6 1.55c19.75 55.21-34.6 140.32-145.4 227.67-85.38 67.28-170.37 112.21-233.2 123.1-34 5.92-60 1.75-77.07-12.37a1.24 1.24 0 0 0-1-.27 1.22 1.22 0 0 0-.6.27c-.09.07-.09.17-.14.25 2.23 4.05 4.61 8.12 7.1 12.18 18.16 17.31 46 22.81 83.18 16.34 62.92-10.95 146.56-55.14 235.52-124.45 106.23-82.78 162.14-171.91 143.81-228.4" class="cls-9"/><path d="M485.09 45.59a109.52 109.52 0 0 0-12.53-13.5 1.15 1.15 0 0 0-.39.18 1.26 1.26 0 0 0-.25 1.65c28 43.83-37.59 144.73-149.36 229.72-83.42 63.39-166.13 105.84-226.93 116.45-39.6 6.89-67.47-.16-80.59-20.4a1.29 1.29 0 0 0-1.28-.56 1.32 1.32 0 0 0-.38.13c-.13.08-.19.23-.29.35a258.94 258.94 0 0 0 13.33 26.91c17.69 13.81 43.81 17.9 77.81 12 63.23-11 148.63-56 234.31-123.6 110.91-87.44 165.5-173 146.55-229.28" class="cls-9"/><path d="M475.22 34.63a108.37 108.37 0 0 0-13.17-11 .92.92 0 0 0-.36.2 1.26 1.26 0 0 0-.11 1.64c30.8 40.85-33.22 135.78-152.23 225.72-82.54 62.4-163.9 104.11-223.21 114.43-35.55 6.18-61.42.35-74.77-16.84-.37-.47-.71-1-1.06-1.43a1.41 1.41 0 0 0-1.35-.58.92.92 0 0 0-.32.1 1.14 1.14 0 0 0-.31.31c1.81 5.24 3.94 10.57 6.31 15.94 14.4 19.48 42.33 26.23 81.43 19.42 61.17-10.64 144.28-53.26 228-116.94 111.12-84.49 176.61-185 151.13-231" class="cls-9"/><path d="M464.72 25.65a112.83 112.83 0 0 0-17.34-10.89 1.3 1.3 0 0 0-.41.24 1.26 1.26 0 0 0 0 1.59c6.44 8.18 8.86 18.95 7.18 32-6 46.43-62 114.93-146.31 178.79-86 65.14-172.68 110.18-232 120.5-31.86 5.54-53.79.92-65.18-13.74a45.6 45.6 0 0 1-7.29-14.17 1.28 1.28 0 0 0-1.44-.86h-.07c-.14 0-.21.15-.32.22.2 1.47.31 2.94.56 4.41a157 157 0 0 0 7.45 26.8c14 17.81 40.64 23.9 77 17.57 59.7-10.39 141.46-52.26 224.31-114.89C429.51 163.57 493.51 68.51 464.72 25.65" class="cls-9"/><path d="M456.64 48.87c1.71-13.31-.76-24.36-7.16-33a122.51 122.51 0 0 0-17.12-7.34c-.09.07-.22.09-.29.19a1.26 1.26 0 0 0 .2 1.58c.51.5 1 1 1.44 1.52 6 6.94 8.33 16.25 7 27.64-5.6 46.38-71.91 123.18-161.26 186.8-79.55 56.63-158.43 95.91-211 105.05-30.36 5.29-51 .67-61.32-13.74-2.52-3.52-4.27-8.35-5.21-14.33a1.29 1.29 0 0 0-1.38-1.07H.45c-.11 0-.19.12-.28.16a149.33 149.33 0 0 0 1.95 20.94 48.15 48.15 0 0 0 6.61 12.37c12 15.45 34.76 20.39 67.61 14.67 59.66-10.38 146.79-55.6 233.07-121C394.24 165.03 450.67 95.86 456.7 48.79" class="cls-9"/><path d="M443.17 39.8c1.47-12.14-1.07-22.1-7.55-29.6-.25-.3-.54-.58-.81-.86a149.46 149.46 0 0 0-31.16-7.53c-.11.14-.34.17-.38.36a1.29 1.29 0 0 0 .89 1.49c5.09 1.5 8.68 3.34 10.66 5.47 5.1 5.49 7.18 13.07 6.19 22.5-4.6 43.38-73.61 120.85-164.1 184.18-74.9 52.42-145.15 87.28-192.73 95.52-28.22 4.91-47.83.39-56.7-13.05-3.08-4.68-4.57-11.42-4.44-20 .19-1.48.41-3 .63-4.45a1.25 1.25 0 0 0-1.06-1.44 1.08 1.08 0 0 0-.4 0c-.07 0-.08.12-.15.14a157.58 157.58 0 0 0-1.77 34.83c1.1 4.64 2.57 8.72 4.72 11.73 10.94 15.26 32.41 20.22 63.82 14.76 52.92-9.21 132.2-48.65 212-105.49 89.89-64 156.63-141.52 162.3-188.55" class="cls-9"/><path d="M423.51 31.9c1.08-10.19-1.23-18.44-6.85-24.49-1.77-1.91-4.57-3.58-8.33-5a186.11 186.11 0 0 0-28.61-2.4c-.15.19-.43.25-.46.5a1.27 1.27 0 0 0 1.06 1.36c7.07 1.16 12 3.31 14.66 6.41 4 4.69 5.58 11.19 4.59 19.33-4.79 39.87-66.22 109.24-149.37 168.71-73.04 52.22-141.69 86.83-188.23 94.93-25.4 4.42-43.3.58-51.75-11.09-3.65-5-4.93-11.81-3.82-20.13a1.26 1.26 0 0 0-1-1.41.93.93 0 0 0-.44 0s0 0 0 .05a166.69 166.69 0 0 0-4.2 24.16c.4 7 1.93 12.65 4.69 16.84 9.46 14.36 29.95 19.26 59.25 14.16 48.63-8.46 117.43-42.54 193.74-95.94 92.51-64.75 160.44-141.24 165.16-186" class="cls-9"/><path d="M402.1 27.9c1.06-8.87-.68-16-5.19-21.28-2.5-2.92-6.7-5.05-12.31-6.42a240.52 240.52 0 0 0-46.74 3.27 1.15 1.15 0 0 0-.13.48 1.27 1.27 0 0 0 1.32 1.13c15.26-.84 25.53 1.39 29.73 6.44 3.36 4 4.6 9.54 3.69 16.38-4.72 35.49-63.84 99.46-143.78 155.57-67 47-126.26 76.82-166.85 83.89-22.42 3.9-37.56.6-45-9.79-3.81-5.29-4.84-12.3-3.07-20.82a1.26 1.26 0 0 0-.84-1.46 1.29 1.29 0 0 0-.58-.05 188.77 188.77 0 0 0-8.76 29.38c-.16 6.8 1.33 12.53 4.58 17 9.18 12.71 27.43 16.78 54.24 12.12 46.94-8.17 115.93-42.94 189.27-95.39C335.37 138.5 397.22 68.41 402.1 27.89" class="cls-9"/><path d="M374.99 28.23c1-7.57-.44-13.74-4.27-18.34-4.14-5-12.68-7.47-25.41-7.5-3.31.45-6.62.87-9.94 1.45a429.61 429.61 0 0 0-45.56 10.63c0 .18-.11.34-.06.51a1.27 1.27 0 0 0 1.45.94c2.86-.62 5.64-1.17 8.31-1.64 20.31-3.53 34-2.33 38.51 3.39 2.72 3.45 3.68 8.07 2.87 13.73-4.31 29.9-58.06 86.59-130.7 137.85-57.26 40.39-110.91 67.19-147.23 73.51-19 3.31-32.08.69-37.81-7.58-3.91-5.64-3.8-13.83.34-24.35a1.27 1.27 0 0 0-.65-1.61.92.92 0 0 0-.43-.06 223.29 223.29 0 0 0-13.48 29.78c-1.16 8.07 0 14.83 3.81 20.12 8.05 11.24 24 14.87 47.49 10.79 41-7.12 100.57-37.06 167.87-84.29 80.48-56.48 140-121.19 144.85-157.32" class="cls-9"/><path d="M300.21 11.61a475.37 475.37 0 0 0-52.3 17.2 1.25 1.25 0 0 0 0 .47 1.27 1.27 0 0 0 1.41.82h.18a163.79 163.79 0 0 1 22.83-5.91c15.43-2.69 26-1.09 29.84 4.49 12.93 19-35.47 75.37-107.94 125.66-48.21 33.48-96.92 57.52-127.11 62.78-14.21 2.47-23.83.72-27.84-5.07-5.27-7.59-1-21.95 11.94-40.42a1.25 1.25 0 0 0-.29-1.74 1.07 1.07 0 0 0-.49-.12 279.29 279.29 0 0 0-28.49 44.18c-2.94 9.48-2.68 17.14 1.17 22.71 6.35 9.13 20.28 12.12 40.33 8.63 36.67-6.38 90.71-33.33 148.26-73.94C286.04 118.9 338.99 62.82 343.46 31.79c.92-6.38-.23-11.65-3.4-15.65-6.43-8.12-25-7-39.83-4.49" class="cls-9"/><path d="M304.23 27.22c-4.46-6.56-15.65-8.48-32.37-5.57-4.06.71-8.53 1.78-13.17 3.05a520.17 520.17 0 0 0-70.38 32v.47a1.3 1.3 0 0 0 1.7.55c18.9-9.54 35.69-15.76 48.54-18 11.47-2 19.16-.68 22.25 3.77 9.95 14.35-27.46 57.63-83.39 96.47-37.19 25.83-75 44.44-98.78 48.57-10.95 1.91-18.34.63-21.33-3.69-5.16-7.43 2.22-23.23 20.21-43.35a1.29 1.29 0 0 0-.08-1.78c-.13-.11-.31-.07-.47-.14a346.69 346.69 0 0 0-33.45 39.29c-9.16 15.41-11.42 27.28-6.35 34.6 4.68 6.74 14.9 8.8 30.36 6.11 31-5.39 78.89-29 128.13-63.18 76.09-52.81 122.77-108.3 108.58-129.17" class="cls-9"/><path d="M262.92 42.02c-3.74-5.41-12.08-7-24.76-4.82-9.21 1.6-20.51 5.27-33 10.64-52.79 26.42-101.32 61.83-137.95 102.08-12.57 16.34-16.93 29.15-11.94 36.33 3.65 5.27 11.68 6.87 23.86 4.75 24.06-4.19 62.3-23 99.78-49 59-41 95.13-84 84-100m-103 82.85c-25 17.2-49.74 29.49-64.61 32.07-6.15 1.07-10.24.43-11.83-1.88-5.29-7.69 15.43-34.09 54.69-61.1 24.11-16.6 48.59-28.56 63.9-31.22 6.63-1.16 11-.48 12.69 1.95 5 7.32-14.49 32.42-54.84 60.18" class="cls-9"/><path d="M216.81 63.26c-2.31-3.36-7.43-4.38-15.21-3-15.65 2.72-40.52 14.84-64.9 31.63-33.3 22.91-63.1 53.34-55.34 64.62 2.21 3.23 7 4.22 14.34 3 15.2-2.65 40.36-15.09 65.61-32.48 33.5-23.05 63.31-52.34 55.5-63.7m-33 17.37c-.48 4.85-11.6 17.22-32 31.49-15.83 11.14-31.51 19.26-39.94 20.73-2.36.41-4.08.25-4.73-.41a1.61 1.61 0 0 1-.32-1.37c.49-5 11.81-17.84 31.83-31.9 15.38-10.8 31-18.76 39.71-20.28 2.54-.45 4.39-.29 5.07.43a1.45 1.45 0 0 1 .33 1.31" class="cls-9"/><path d="M185.33 77.57c-1.35-1.42-3.75-1.81-7.34-1.19-9.07 1.58-25.07 9.72-40.73 20.72-18.7 13.14-32.23 27-32.89 33.72a4 4 0 0 0 1 3.36c1.31 1.38 3.59 1.76 7 1.16 8.75-1.52 24.84-9.82 41-21.14 15.89-11.16 32.27-25.79 33-33.31a4.06 4.06 0 0 0-1-3.32" class="cls-9"/></g></g></g></svg>