<svg xmlns="http://www.w3.org/2000/svg" data-name="Telia Pebble Icon segments RGB x50" viewBox="0 0 519.49 585.53"><defs><style>.cls-1{fill:#93f}.cls-2{fill:#ff3264}.cls-4{fill:#ff00cd}.cls-5{fill:#ff9b00}.cls-6{fill:#990ae3}.cls-8{fill:#00cdff}.cls-11{fill:#fff}</style></defs><g data-name="41"><path d="M456.06 465.49c-.09-.12-.13-.27-.25-.34a1.2 1.2 0 0 0-.91-.18 1.24 1.24 0 0 0-.81.52 331.1 331.1 0 0 1-84.46 83.71c-25.45 17.55-49 28.52-69.86 32.58a91.08 91.08 0 0 1-10.34 1.43h-.14a1.26 1.26 0 0 0-1 1.23c0 .17.1.28.16.41a119.67 119.67 0 0 0 34.12-1.27c46-9 95.6-52.28 133.51-118.11" class="cls-1"/><path d="M450.81 474.42a430.69 430.69 0 0 0 29.69-58.47c-.1-.13-.16-.28-.31-.34s-.42.34-.66.39-1.25 1.63-1.44 2c-21.64 42.55-70.12 103.05-136.68 138.71-19.56 10.47-37.69 17.38-53.88 20.53a93 93 0 0 1-22.82 1.8 1.15 1.15 0 0 0-.32 0 1.25 1.25 0 0 0-1 1 1 1 0 0 0 .09.42 166.36 166.36 0 0 0 29.83 4.68c2.29-.28 4.57-.48 6.89-.93 21.25-4.13 45.08-15.23 70.82-33a335.21 335.21 0 0 0 79.75-76.88" class="cls-1"/><path d="M488.33 394.62a1.33 1.33 0 0 0-.71-.07 1.27 1.27 0 0 0-.92.71C444.59 485.12 345.77 559.2 279.9 572c-14.25 2.77-27 2.83-37.81.2a1.1 1.1 0 0 0-1.47 1.37 224.15 224.15 0 0 0 27 7.94 97.41 97.41 0 0 0 20.43-1.78c16.46-3.2 34.82-10.2 54.6-20.8 62.66-33.57 109.76-90.54 133.48-132.86q6.71-15 12.59-31.13c-.11-.1-.17-.25-.34-.32" class="cls-1"/><path d="M503.24 345.68a296.89 296.89 0 0 1-27.94 60.18c-44.74 74-137.79 145.21-207.42 158.74-20.48 4-37.37 3.83-51.21-2.27a5.21 5.21 0 0 0-1.49-.42c-.38.07-.5-.26-.67.12-.09.18 0 .35 0 .52a279.08 279.08 0 0 0 31.83 12.94c10.15 1.69 21.49 1.44 34-1 65-12.62 161.39-84.18 205.41-171.9a496.73 496.73 0 0 0 18.07-57.53Z" class="cls-1"/><path d="M506.89 330.25a1.38 1.38 0 0 0-.57 0 1.27 1.27 0 0 0-1 .85 299.16 299.16 0 0 1-28 61.15c-46.57 77.06-145 151.5-219.37 166-21.53 4.18-39.84 3.14-54.45-3.12a1.42 1.42 0 0 0-.73-.07 1.25 1.25 0 0 0-.9.7c-.09.15 0 .32 0 .49 6.77 3.58 13.52 6.83 20.25 9.82 13.07 4 28.51 4.55 46.3 1.1 71.44-13.88 163.28-84.12 209.1-159.92 10.84-17.92 18-35.82 24-52.89q3.13-11.7 5.79-23.79c-.11-.08-.18-.21-.32-.25" class="cls-2"/><path d="M511.82 304.64a1.18 1.18 0 0 0-.53 0 1.27 1.27 0 0 0-1 .85c-6.35 20.48-18.31 51.27-39.2 81.75C425.93 453.19 328 533.91 248.56 549.35c-25.42 4.94-47.75 3.08-65.7-5.68a1.26 1.26 0 0 0-.8-.12 1.24 1.24 0 0 0-.86.64v.22q12.82 7.83 25.73 14.4c14.36 5 31.51 5.74 51.47 1.86 75-14.57 174.17-89.55 221.07-167.13a300.32 300.32 0 0 0 26-55.45c2.55-10.83 4.82-21.87 6.7-33.17-.12-.1-.22-.24-.38-.28" class="cls-2"/><path d="M514.48 286.9a1.25 1.25 0 0 0-.51 0 1.27 1.27 0 0 0-1 .85c-11.1 35.78-26.64 66.59-47.48 94.16-59.55 78.77-155.25 146.12-227.54 160.16-25.19 4.9-46.87 3.38-64.44-4.51a1.21 1.21 0 0 0-.75-.08 1.24 1.24 0 0 0-.87.64c-.07.12 0 .25-.05.39q7.82 5.06 15.68 9.68c17.44 6.95 38 8.21 61.5 3.65 80.09-15.56 178.69-96.81 224.18-163.16a310.09 310.09 0 0 0 37.73-76.89c1.47-8.13 2.79-16.32 3.89-24.66-.12-.09-.19-.2-.34-.23" class="cls-2"/><path d="M973.88 199.82a1.18 1.18 0 0 0-.42 0 1.25 1.25 0 0 0-1 1c-8.05 38.64-30 82.56-58.72 117.45-64.62 78.51-158.93 142.9-229.37 156.59-31.37 6.14-57.89 3.31-78.37-9.49a1.28 1.28 0 0 0-.91-.16 1.31 1.31 0 0 0-.6.39c9.21 6.82 18.56 13.26 28 19.21 17.36 6.81 37.46 8.09 62.29 3.27 72.81-14.16 169.15-81.92 229.04-161.08 20.26-26.79 35.44-56.72 46.54-91.11q2.5-17.58 3.87-35.82c-.12-.06-.2-.18-.35-.2" style="fill:#9b009b" transform="translate(-456.29 56.49)"/><path d="M518.47 242.41a1.24 1.24 0 0 0-.43 0 1.29 1.29 0 0 0-1 .93c-9.13 35.93-23.57 76-67.14 125.58-70.32 80-160.9 140.53-230.72 154.09-30.45 5.92-56.57 3.19-77.65-8.09a1.27 1.27 0 0 0-.83-.12 1.2 1.2 0 0 0-.82.56c-.09.12-.06.29-.09.43 4.58 3.54 9.2 7 13.87 10.37 20.32 10.74 45.43 13.39 74.91 7.66 71-13.78 165.87-78.54 230.82-157.45 27.92-33.88 49.32-76.17 58.16-114.11.55-6.48 1-13 1.33-19.61a1.14 1.14 0 0 0-.41-.24" class="cls-4"/><path d="M519.08 213.8a1.37 1.37 0 0 0-.35 0 1.29 1.29 0 0 0-1 1c-8.76 51.38-34.14 99-77.53 145.6-74.39 79.88-163.88 137.87-233.56 151.41-31.69 6.16-58.66 3.15-80.17-9a1.38 1.38 0 0 0-.87-.13 1.24 1.24 0 0 0-.79.52c-.09.12-.06.25-.1.38q9.24 7.75 18.81 15c21.19 10.31 46.66 12.66 76.19 6.91 70.33-13.66 161.46-74.47 232.15-154.91 42.42-48.27 57.45-87.63 66.72-122.93.65-11.08.93-22.32.9-33.7-.13 0-.22-.16-.36-.17" class="cls-4"/><path d="M518.88 200.61a1 1 0 0 0-.34 0 1.27 1.27 0 0 0-1 1c-9.52 51-38.37 101.82-85.77 150.91-59.36 61.51-152.33 133-235.2 149.07-32.34 6.28-59.87 3.29-81.83-8.92a1.28 1.28 0 0 0-1.65.38c-.08.11-.06.26-.09.38q7.38 6.61 15 12.92c21.72 11.24 48.22 13.93 79.13 7.92 70.17-13.63 160.19-71.93 234.9-152.14 42.77-45.91 68.06-92.91 77.46-143.45q0-8.91-.19-17.9a1.16 1.16 0 0 0-.42-.2" class="cls-4"/><path d="M517.79 177.77a1 1 0 0 0-.3 0 1.28 1.28 0 0 0-1 1c-9.73 57.51-42.06 113.3-96.1 165.84-81.17 78.97-166.53 131.76-234.21 144.88-34.52 6.71-63.7 3.05-86.71-10.91a1.29 1.29 0 0 0-.9-.15 1.22 1.22 0 0 0-.76.46c-.08.12-.06.26-.11.38 5.88 5.68 11.9 11.26 18.08 16.68 22.29 11.55 49.5 14.3 81.26 8.13 83.45-16.22 176.9-88 236.55-149.8 46.83-48.52 75.59-98.73 85.75-149.29-.18-8.95-.5-17.95-1.14-27.06a1.11 1.11 0 0 0-.41-.19" class="cls-4"/><path d="M516.4 161.55a1 1 0 0 0-.25 0 1.25 1.25 0 0 0-1 1.11c-5.22 51.91-42.19 113.58-104.13 173.67-76 73.78-169.54 130.07-238.23 143.41-34.33 6.67-62.17 3.13-82.76-10.53a1.3 1.3 0 0 0-.95-.2 1.33 1.33 0 0 0-.73.44c-.09.11-.08.25-.13.37q6 6.17 12.32 12.14c23.36 13.22 52.22 16.6 86.15 10 68.14-13.24 154-66.28 235.48-145.52 53.6-52.12 85.89-107.49 96.26-164.6q-.63-10-1.65-20.19a.93.93 0 0 0-.36-.14" class="cls-4"/><path d="M513.12 133.11a1.48 1.48 0 0 0-.47 0 1.17 1.17 0 0 0-.56.27 1.27 1.27 0 0 0-.46 1c-.58 57.38-42.92 129.22-113.2 192.11-87.1 78-170.54 127.77-235 140.28-35.58 6.91-65.13 2.6-87.86-12.82a1.23 1.23 0 0 0-.94-.2 1.26 1.26 0 0 0-.71.41c-.11.11-.11.28-.16.42 5.5 6.11 11.27 12.14 17.18 18.06 21.06 12.88 48.62 16.13 82.26 9.59 69.13-13.43 163.15-70 239.51-144.08 61-59.21 97.93-120.06 104.42-171.83-1-11-2.21-22-3.89-33.18l-.17-.06" class="cls-5"/><path d="M510.77 118.33c-.14 0-.25-.12-.4-.11h-.13a1.27 1.27 0 0 0-1 1.25c-.07 58.83-42.89 129.26-120.59 198.3-83.94 74.59-170.43 124.83-237.27 137.81-34 6.61-61.75 3.54-82.4-9.1a1.27 1.27 0 0 0-.91-.16 1.23 1.23 0 0 0-.72.43c-.07.08-.06.2-.11.3q4.41 5.15 9 10.19c23.2 14.81 52.58 18.87 87.72 12.05 64.83-12.6 148.7-62.63 236.15-140.89 69.31-62 111.49-132.75 113.84-190.2q-1.41-9.88-3.19-19.87" class="cls-5"/><path d="M505.21 92.86a1.06 1.06 0 0 0-.46-.1 1.26 1.26 0 0 0-1 1.4c7.2 57.41-41.87 139-128 212.88-86.75 74.36-170.48 122.3-235.8 135-35.86 7-64.24 2.95-84.34-12a1.27 1.27 0 0 0-1.66.12c-.11.11-.11.25-.17.37 5 6.4 10.27 12.74 15.76 19 21 12.11 48.69 15 82.42 8.47 67.27-13.07 154.18-63.52 238.45-138.39 76.6-68.12 119.44-137.73 121.17-196.56-.77-4.6-1.49-9.2-2.39-13.83-1.11-5.74-2.48-11.14-4-16.36" class="cls-5"/><path d="M506.48 98.07a166.41 166.41 0 0 0-7-21.87 1.07 1.07 0 0 0-.43-.06h-.11a1.25 1.25 0 0 0-.9 1.43c10 57.67-37.85 135.67-134.93 219.68-82.88 71.71-167.84 120.1-233.12 132.78-36 7-64.19 2.84-83.78-12.36a1.3 1.3 0 0 0-1-.24 1.24 1.24 0 0 0-.64.33c-.09.08-.1.22-.16.33a422.4 422.4 0 0 0 11.4 15.15c20.58 14.33 49 18.19 84.55 11.28 65.74-12.78 149.9-60.92 237-135.58 84.72-72.66 133.65-152.9 129.12-210.87" class="cls-4"/><path d="M500.86 80.08a136 136 0 0 0-13.25-26.28 1.38 1.38 0 0 0-.34.12 1.27 1.27 0 0 0-.56 1.57c21.67 54.84-32.4 145.5-137.74 231C261.71 357.26 179.3 402.9 117.01 415c-37.45 7.27-65.37 2.08-83-15.44a1.29 1.29 0 0 0-1.69-.09c-.11.09-.14.26-.21.38q6.54 10.44 14.15 20.92c20.12 14.72 48.39 18.72 84.22 11.78 65.69-12.77 151.07-61.38 234.3-133.37 96.17-83.22 144.27-160.83 136.08-219.1" class="cls-6"/><path d="M489.83 57.27a118.44 118.44 0 0 0-11.38-15.72c-.06 0-.09-.06-.15-.05a1.63 1.63 0 0 0-.37.13 1.28 1.28 0 0 0-.58 1.56c20.84 54.81-31.84 141-140.9 230.48-84 68.95-168.12 115.49-230.72 127.65-33.93 6.59-59.94 2.93-77.31-10.85a1.22 1.22 0 0 0-1-.25 1.28 1.28 0 0 0-.6.28c-.08.07-.08.17-.13.25q3.46 6 7.34 12c18.49 16.95 46.43 21.9 83.48 14.7 62.69-12.18 145.45-58 233-129 104.6-84.85 158.75-175.06 139.32-231.18" class="cls-6"/><path d="M480.08 43.49a110.54 110.54 0 0 0-12.79-13.29 1.3 1.3 0 0 0-.4.18 1.27 1.27 0 0 0-.21 1.66c28.87 43.3-34.75 145.45-144.83 232.64-82.16 65.05-164 109.12-224.6 120.89-39.45 7.67-67.46 1.16-81-18.82a1.27 1.27 0 0 0-1.3-.53 1.36 1.36 0 0 0-.37.13c-.13.09-.19.24-.29.35a258.67 258.67 0 0 0 13.86 26.65c18 13.46 44.15 17 78 10.46 63-12.24 147.5-59 231.84-128.18 109.24-89.6 162.13-176.14 142.09-232.14" class="cls-6"/><path d="M469.99 32.76a107.23 107.23 0 0 0-13.38-10.74c-.12.07-.26.09-.36.21a1.27 1.27 0 0 0-.08 1.64c31.6 40.25-30.55 136.41-147.77 228.67-81.3 64-161.82 107.3-220.92 118.78-35.43 6.88-61.4 1.56-75.09-15.37-.37-.46-.73-.93-1.09-1.41a1.4 1.4 0 0 0-1.36-.55.89.89 0 0 0-.31.11 1.05 1.05 0 0 0-.31.32c1.91 5.2 4.15 10.48 6.62 15.81 14.78 19.19 42.84 25.39 81.8 17.82 61-11.84 143.21-56.09 225.68-121.39C432.87 180 496.37 78.19 469.99 32.76" class="cls-6"/><path d="M459.32 23.98a113.37 113.37 0 0 0-17.55-10.49c-.14.08-.31.11-.41.24a1.25 1.25 0 0 0 0 1.59c6.6 8.06 9.22 18.78 7.8 31.85-5.07 46.54-59.76 116.12-142.78 181.62-84.67 66.77-170.47 113.5-229.54 124.98-31.74 6.17-53.76 2-65.43-12.46a45.61 45.61 0 0 1-7.57-14 1.28 1.28 0 0 0-1.45-.82h-.08c-.14 0-.2.17-.31.24.23 1.46.36 2.93.65 4.39a156.93 156.93 0 0 0 8 26.65c14.37 17.53 41.1 23.1 77.34 16.06 59.49-11.56 140.4-55 222-119.28 116.83-92 179-188.26 149.35-230.55" class="cls-6"/><path d="M451.71 47.35c1.45-13.33-1.23-24.33-7.8-32.81a122.52 122.52 0 0 0-17.26-7c-.09.08-.22.09-.28.2a1.25 1.25 0 0 0 .22 1.57c.52.49 1 1 1.47 1.49 6.14 6.82 8.65 16.08 7.49 27.5-4.68 46.48-69.47 124.57-157.56 189.93-78.42 58.18-156.52 99-208.91 109.17-30.25 5.88-51 1.67-61.57-12.54-2.59-3.46-4.45-8.26-5.5-14.22a1.27 1.27 0 0 0-1.39-1h-.1c-.11 0-.18.12-.28.17a151.09 151.09 0 0 0 2.36 20.9 48 48 0 0 0 6.86 12.23c12.31 15.22 35.15 19.71 67.88 13.34 59.45-11.54 145.67-58.47 230.65-125.52 83.53-65.96 138.6-136.22 143.72-183.41" class="cls-6"/><path d="M438.05 38.55c1.23-12.16-1.5-22.07-8.13-29.45-.25-.29-.55-.57-.83-.84a149.32 149.32 0 0 0-31.3-6.91c-.11.14-.34.17-.37.36a1.29 1.29 0 0 0 .91 1.48c5.12 1.4 8.75 3.17 10.77 5.26 5.21 5.39 7.44 12.92 6.63 22.37-3.74 43.47-71.22 122.27-160.45 187.36-73.86 53.89-143.42 90.08-190.82 99.31-28.12 5.47-47.81 1.34-56.94-11.93-3.17-4.62-4.8-11.33-4.84-19.92.16-1.49.35-3 .55-4.46a1.26 1.26 0 0 0-1.09-1.42 1.13 1.13 0 0 0-.41 0c-.07 0-.08.12-.14.15a157 157 0 0 0-1.08 34.85c1.18 4.62 2.73 8.67 4.94 11.63 11.24 15.05 32.8 19.59 64.1 13.51 52.73-10.25 131.22-51.23 209.93-109.63C368.1 164.49 433.3 85.68 438.05 38.55" class="cls-6"/><path d="M874.54-25.45c.88-10.21-1.59-18.42-7.33-24.35-1.81-1.88-4.65-3.49-8.43-4.84a183.62 183.62 0 0 0-28.65-1.84c-.15.19-.43.26-.45.5a1.27 1.27 0 0 0 1.09 1.34c7.09 1 12.05 3.08 14.78 6.13 4.12 4.6 5.8 11.07 5 19.23-4 40-64.06 110.52-146 171.6-72 53.66-139.93 89.61-186.35 98.62-25.3 4.92-43.28 1.43-51.95-10.07-3.75-5-5.16-11.71-4.21-20.05a1.27 1.27 0 0 0-1.06-1.39 1.14 1.14 0 0 0-.45 0h-.05a168.59 168.59 0 0 0-3.72 24.24c.54 7 2.18 12.61 5 16.75 9.74 14.17 30.32 18.67 59.52 13 48.45-9.42 116.57-44.84 191.82-99.73 91.18-66.5 157.6-144.3 161.44-189.14" style="fill:#09f" transform="translate(-456.29 56.49)"/><path d="M396.71 27.49c.89-8.9-1-16-5.6-21.18-2.56-2.87-6.8-4.92-12.44-6.18A239.89 239.89 0 0 0 332 4.31c0 .17-.14.31-.11.48a1.26 1.26 0 0 0 1.34 1.11c15.24-1.14 25.55.89 29.85 5.85 3.43 4 4.79 9.45 4 16.31-4 35.58-61.88 100.7-140.7 158.36-66.03 48.32-124.67 79.27-165.12 87.13-22.34 4.34-37.55 1.34-45.19-8.9-3.91-5.22-5.08-12.21-3.47-20.76a1.26 1.26 0 0 0-1.46-1.48 190 190 0 0 0-8.18 29.54c0 6.8 1.58 12.5 4.92 16.92 9.43 12.53 27.75 16.24 54.47 11.05 46.76-9.09 115.05-45.21 187.36-99.08 82.49-61.48 143-132.77 147-173.35" class="cls-8"/><path d="M369.65 28.32c.85-7.58-.7-13.73-4.62-18.25-4.24-4.89-12.83-7.22-25.56-7-3.3.51-6.59 1-9.9 1.64a429.32 429.32 0 0 0-45.34 11.53 1 1 0 0 0 0 .51 1.26 1.26 0 0 0 1.46.91q4.28-1 8.28-1.8c20.23-3.93 33.92-3 38.56 2.63 2.79 3.39 3.84 8 3.15 13.67-3.73 30-56.35 87.71-128 140.38-56.46 41.52-109.58 69.36-145.77 76.39-18.93 3.68-32.06 1.32-38-6.84-4-5.55-4.07-13.74-.13-24.35a1.28 1.28 0 0 0-.68-1.6 1.13 1.13 0 0 0-.44 0 223 223 0 0 0-12.89 30c-1 8.09.32 14.83 4.2 20.05 8.28 11.08 24.32 14.39 47.7 9.85 40.8-7.93 99.82-39 166.18-87.57 79.42-58.07 137.71-123.92 141.8-160.15" class="cls-8"/><path d="M294.56 13.17a476.87 476.87 0 0 0-52 18.23 1 1 0 0 0 0 .46 1.27 1.27 0 0 0 1.42.8.61.61 0 0 0 .18-.05 164 164 0 0 1 22.71-6.35c15.38-3 26-1.61 29.93 3.9 13.3 18.75-34 76.06-105.46 127.76-47.54 34.41-95.77 59.41-125.85 65.25-14.16 2.75-23.81 1.19-27.94-4.51-5.42-7.49-1.46-21.93 11.15-40.65a1.26 1.26 0 0 0-.32-1.74 1.09 1.09 0 0 0-.5-.1 277.43 277.43 0 0 0-27.61 44.73c-2.76 9.53-2.35 17.19 1.62 22.67 6.52 9 20.51 11.73 40.49 7.84 36.53-7.09 90-35.1 146.78-76.83 73.28-53.9 125.12-111 129-142.12.79-6.39-.46-11.64-3.71-15.58-6.59-8-25.09-6.5-39.91-3.71" class="cls-8"/><path d="M298.89 28.7c-4.59-6.47-15.81-8.17-32.47-4.93-4.05.79-8.5 1.94-13.11 3.3a519 519 0 0 0-69.74 33.35v.47a1.27 1.27 0 0 0 1.36.64 1.82 1.82 0 0 0 .35-.12c18.75-9.92 35.43-16.46 48.23-18.92 11.43-2.22 19.14-1.06 22.32 3.33 10.23 14.15-26.33 58.15-81.49 98.09-36.67 26.55-74.15 45.9-97.8 50.5-10.91 2.12-18.33 1-21.41-3.28-5.29-7.32 1.77-23.26 19.36-43.73a1.28 1.28 0 0 0-.11-1.78c-.14-.11-.31-.07-.47-.13a348.29 348.29 0 0 0-32.71 40c-8.86 15.59-10.88 27.5-5.66 34.72 4.81 6.66 15.06 8.51 30.47 5.52 30.88-6 78.31-30.55 126.87-65.69 75-54.29 120.61-110.73 106-131.27" class="cls-6"/><path d="M257.87 44.31c-3.84-5.33-12.16-6.82-24.84-4.34-9.18 1.79-20.41 5.68-32.8 11.29-52.26 27.45-100.09 63.81-135.92 104.77-12.24 16.58-16.35 29.47-11.22 36.55 3.75 5.2 11.81 6.64 23.94 4.28 24-4.66 61.84-24.18 98.8-50.94 58.19-42.13 93.47-85.81 82-101.61m-101.35 84.86c-24.64 17.68-49.15 30.45-64 33.33-6.13 1.19-10.23.62-11.86-1.66-5.41-7.58 14.78-34.35 53.51-62.16 23.78-17.06 48-29.5 63.27-32.46 6.61-1.29 11-.7 12.73 1.7 5.19 7.22-13.85 32.69-53.65 61.25" class="cls-6"/><path d="M212.19 66.49c-2.37-3.3-7.51-4.22-15.27-2.72-15.59 3-40.21 15.64-64.26 32.9-32.84 23.56-62 54.58-54.07 65.7 2.28 3.19 7.13 4.08 14.41 2.67 15.14-3 40.05-15.88 65-33.76 33-23.79 62.23-53.62 54.19-64.79m-32.63 18c-.38 4.85-11.26 17.44-31.32 32.11-15.62 11.42-31.13 19.89-39.53 21.48-2.34.46-4.06.34-4.72-.32a1.51 1.51 0 0 1-.36-1.36c.4-5 11.46-18.07 31.2-32.52 15.16-11.1 30.58-19.39 39.3-21.06 2.53-.49 4.38-.37 5.07.34.12.1.43.43.36 1.31" class="cls-6"/><path d="M181 81.38c-1.38-1.4-3.79-1.74-7.36-1.05-9 1.76-24.87 10.21-40.32 21.52-18.44 13.5-31.69 27.64-32.22 34.35a4.06 4.06 0 0 0 1.08 3.34c1.35 1.35 3.63 1.69 7 1 8.72-1.7 24.64-10.31 40.54-21.95 15.66-11.47 31.75-26.41 32.34-33.95a4 4 0 0 0-1.08-3.29" class="cls-6"/><g style="mask:url(#mask)"><g style="opacity:.3"><path d="M456.06 465.49c-.09-.12-.13-.27-.25-.34a1.2 1.2 0 0 0-.91-.18 1.24 1.24 0 0 0-.81.52 331.1 331.1 0 0 1-84.46 83.71c-25.45 17.55-49 28.52-69.86 32.58a91.08 91.08 0 0 1-10.34 1.43h-.14a1.26 1.26 0 0 0-1 1.23c0 .17.1.28.16.41a119.67 119.67 0 0 0 34.12-1.27c46-9 95.6-52.28 133.51-118.11" class="cls-11"/><path d="M450.81 474.42a430.69 430.69 0 0 0 29.69-58.47c-.1-.13-.16-.28-.31-.34s-.42.34-.66.39-1.25 1.63-1.44 2c-21.64 42.55-70.12 103.05-136.68 138.71-19.56 10.47-37.69 17.38-53.88 20.53a93 93 0 0 1-22.82 1.8 1.15 1.15 0 0 0-.32 0 1.25 1.25 0 0 0-1 1 1 1 0 0 0 .09.42 166.36 166.36 0 0 0 29.83 4.68c2.29-.28 4.57-.48 6.89-.93 21.25-4.13 45.08-15.23 70.82-33a335.21 335.21 0 0 0 79.75-76.88" class="cls-11"/><path d="M488.33 394.62a1.33 1.33 0 0 0-.71-.07 1.27 1.27 0 0 0-.92.71C444.59 485.12 345.77 559.2 279.9 572c-14.25 2.77-27 2.83-37.81.2a1.1 1.1 0 0 0-1.47 1.37 224.15 224.15 0 0 0 27 7.94 97.41 97.41 0 0 0 20.43-1.78c16.46-3.2 34.82-10.2 54.6-20.8 62.66-33.57 109.76-90.54 133.48-132.86q6.71-15 12.59-31.13c-.11-.1-.17-.25-.34-.32" class="cls-11"/><path d="M503.24 345.68a296.89 296.89 0 0 1-27.94 60.18c-44.74 74-137.79 145.21-207.42 158.74-20.48 4-37.37 3.83-51.21-2.27a5.21 5.21 0 0 0-1.49-.42c-.38.07-.5-.26-.67.12-.09.18 0 .35 0 .52a279.08 279.08 0 0 0 31.83 12.94c10.15 1.69 21.49 1.44 34-1 65-12.62 161.39-84.18 205.41-171.9a496.73 496.73 0 0 0 18.07-57.53Z" class="cls-11"/><path d="M506.89 330.25a1.38 1.38 0 0 0-.57 0 1.27 1.27 0 0 0-1 .85 299.16 299.16 0 0 1-28 61.15c-46.57 77.06-145 151.5-219.37 166-21.53 4.18-39.84 3.14-54.45-3.12a1.42 1.42 0 0 0-.73-.07 1.25 1.25 0 0 0-.9.7c-.09.15 0 .32 0 .49 6.77 3.58 13.52 6.83 20.25 9.82 13.07 4 28.51 4.55 46.3 1.1 71.44-13.88 163.28-84.12 209.1-159.92 10.84-17.92 18-35.82 24-52.89q3.13-11.7 5.79-23.79c-.11-.08-.18-.21-.32-.25" class="cls-11"/><path d="M511.82 304.64a1.18 1.18 0 0 0-.53 0 1.27 1.27 0 0 0-1 .85c-6.35 20.48-18.31 51.27-39.2 81.75C425.93 453.19 328 533.91 248.56 549.35c-25.42 4.94-47.75 3.08-65.7-5.68a1.26 1.26 0 0 0-.8-.12 1.24 1.24 0 0 0-.86.64v.22q12.82 7.83 25.73 14.4c14.36 5 31.51 5.74 51.47 1.86 75-14.57 174.17-89.55 221.07-167.13a300.32 300.32 0 0 0 26-55.45c2.55-10.83 4.82-21.87 6.7-33.17-.12-.1-.22-.24-.38-.28" class="cls-11"/><path d="M514.48 286.9a1.25 1.25 0 0 0-.51 0 1.27 1.27 0 0 0-1 .85c-11.1 35.78-26.64 66.59-47.48 94.16-59.55 78.77-155.25 146.12-227.54 160.16-25.19 4.9-46.87 3.38-64.44-4.51a1.21 1.21 0 0 0-.75-.08 1.24 1.24 0 0 0-.87.64c-.07.12 0 .25-.05.39q7.82 5.06 15.68 9.68c17.44 6.95 38 8.21 61.5 3.65 80.09-15.56 178.69-96.81 224.18-163.16a310.09 310.09 0 0 0 37.73-76.89c1.47-8.13 2.79-16.32 3.89-24.66-.12-.09-.19-.2-.34-.23" class="cls-11"/><path d="M517.59 256.31a1.18 1.18 0 0 0-.42 0 1.25 1.25 0 0 0-1 1c-8.05 38.64-30 82.56-58.72 117.45-64.62 78.51-158.93 142.9-229.37 156.59-31.37 6.14-57.89 3.31-78.37-9.49a1.28 1.28 0 0 0-.91-.16 1.31 1.31 0 0 0-.6.39c9.21 6.82 18.56 13.26 28 19.21 17.36 6.81 37.46 8.09 62.29 3.27 72.81-14.16 169.15-81.92 229.04-161.08 20.26-26.79 35.44-56.72 46.54-91.11q2.5-17.58 3.87-35.82c-.12-.06-.2-.18-.35-.2" class="cls-11"/><path d="M518.47 242.41a1.24 1.24 0 0 0-.43 0 1.29 1.29 0 0 0-1 .93c-9.13 35.93-23.57 76-67.14 125.58-70.32 80-160.9 140.53-230.72 154.09-30.45 5.92-56.57 3.19-77.65-8.09a1.27 1.27 0 0 0-.83-.12 1.2 1.2 0 0 0-.82.56c-.09.12-.06.29-.09.43 4.58 3.54 9.2 7 13.87 10.37 20.32 10.74 45.43 13.39 74.91 7.66 71-13.78 165.87-78.54 230.82-157.45 27.92-33.88 49.32-76.17 58.16-114.11.55-6.48 1-13 1.33-19.61a1.14 1.14 0 0 0-.41-.24" class="cls-11"/><path d="M519.08 213.8a1.37 1.37 0 0 0-.35 0 1.29 1.29 0 0 0-1 1c-8.76 51.38-34.14 99-77.53 145.6-74.39 79.88-163.88 137.87-233.56 151.41-31.69 6.16-58.66 3.15-80.17-9a1.38 1.38 0 0 0-.87-.13 1.24 1.24 0 0 0-.79.52c-.09.12-.06.25-.1.38q9.24 7.75 18.81 15c21.19 10.31 46.66 12.66 76.19 6.91 70.33-13.66 161.46-74.47 232.15-154.91 42.42-48.27 57.45-87.63 66.72-122.93.65-11.08.93-22.32.9-33.7-.13 0-.22-.16-.36-.17" class="cls-11"/><path d="M518.88 200.61a1 1 0 0 0-.34 0 1.27 1.27 0 0 0-1 1c-9.52 51-38.37 101.82-85.77 150.91-59.36 61.51-152.33 133-235.2 149.07-32.34 6.28-59.87 3.29-81.83-8.92a1.28 1.28 0 0 0-1.65.38c-.08.11-.06.26-.09.38q7.38 6.61 15 12.92c21.72 11.24 48.22 13.93 79.13 7.92 70.17-13.63 160.19-71.93 234.9-152.14 42.77-45.91 68.06-92.91 77.46-143.45q0-8.91-.19-17.9a1.16 1.16 0 0 0-.42-.2" class="cls-11"/><path d="M517.79 177.77a1 1 0 0 0-.3 0 1.28 1.28 0 0 0-1 1c-9.73 57.51-42.06 113.3-96.1 165.84-81.17 78.97-166.53 131.76-234.21 144.88-34.52 6.71-63.7 3.05-86.71-10.91a1.29 1.29 0 0 0-.9-.15 1.22 1.22 0 0 0-.76.46c-.08.12-.06.26-.11.38 5.88 5.68 11.9 11.26 18.08 16.68 22.29 11.55 49.5 14.3 81.26 8.13 83.45-16.22 176.9-88 236.55-149.8 46.83-48.52 75.59-98.73 85.75-149.29-.18-8.95-.5-17.95-1.14-27.06a1.11 1.11 0 0 0-.41-.19" class="cls-11"/><path d="M516.4 161.55a1 1 0 0 0-.25 0 1.25 1.25 0 0 0-1 1.11c-5.22 51.91-42.19 113.58-104.13 173.67-76 73.78-169.54 130.07-238.23 143.41-34.33 6.67-62.17 3.13-82.76-10.53a1.3 1.3 0 0 0-.95-.2 1.33 1.33 0 0 0-.73.44c-.09.11-.08.25-.13.37q6 6.17 12.32 12.14c23.36 13.22 52.22 16.6 86.15 10 68.14-13.24 154-66.28 235.48-145.52 53.6-52.12 85.89-107.49 96.26-164.6q-.63-10-1.65-20.19a.93.93 0 0 0-.36-.14" class="cls-11"/><path d="M513.12 133.11a1.48 1.48 0 0 0-.47 0 1.17 1.17 0 0 0-.56.27 1.27 1.27 0 0 0-.46 1c-.58 57.38-42.92 129.22-113.2 192.11-87.1 78-170.54 127.77-235 140.28-35.58 6.91-65.13 2.6-87.86-12.82a1.23 1.23 0 0 0-.94-.2 1.26 1.26 0 0 0-.71.41c-.11.11-.11.28-.16.42 5.5 6.11 11.27 12.14 17.18 18.06 21.06 12.88 48.62 16.13 82.26 9.59 69.13-13.43 163.15-70 239.51-144.08 61-59.21 97.93-120.06 104.42-171.83-1-11-2.21-22-3.89-33.18l-.17-.06" class="cls-11"/><path d="M510.77 118.33c-.14 0-.25-.12-.4-.11h-.13a1.27 1.27 0 0 0-1 1.25c-.07 58.83-42.89 129.26-120.59 198.3-83.94 74.59-170.43 124.83-237.27 137.81-34 6.61-61.75 3.54-82.4-9.1a1.27 1.27 0 0 0-.91-.16 1.23 1.23 0 0 0-.72.43c-.07.08-.06.2-.11.3q4.41 5.15 9 10.19c23.2 14.81 52.58 18.87 87.72 12.05 64.83-12.6 148.7-62.63 236.15-140.89 69.31-62 111.49-132.75 113.84-190.2q-1.41-9.88-3.19-19.87" class="cls-11"/><path d="M505.21 92.86a1.06 1.06 0 0 0-.46-.1 1.26 1.26 0 0 0-1 1.4c7.2 57.41-41.87 139-128 212.88-86.75 74.36-170.48 122.3-235.8 135-35.86 7-64.24 2.95-84.34-12a1.27 1.27 0 0 0-1.66.12c-.11.11-.11.25-.17.37 5 6.4 10.27 12.74 15.76 19 21 12.11 48.69 15 82.42 8.47 67.27-13.07 154.18-63.52 238.45-138.39 76.6-68.12 119.44-137.73 121.17-196.56-.77-4.6-1.49-9.2-2.39-13.83-1.11-5.74-2.48-11.14-4-16.36" class="cls-11"/><path d="M506.48 98.07a166.41 166.41 0 0 0-7-21.87 1.07 1.07 0 0 0-.43-.06h-.11a1.25 1.25 0 0 0-.9 1.43c10 57.67-37.85 135.67-134.93 219.68-82.88 71.71-167.84 120.1-233.12 132.78-36 7-64.19 2.84-83.78-12.36a1.3 1.3 0 0 0-1-.24 1.24 1.24 0 0 0-.64.33c-.09.08-.1.22-.16.33a422.4 422.4 0 0 0 11.4 15.15c20.58 14.33 49 18.19 84.55 11.28 65.74-12.78 149.9-60.92 237-135.58 84.72-72.66 133.65-152.9 129.12-210.87" class="cls-11"/><path d="M500.86 80.08a136 136 0 0 0-13.25-26.28 1.38 1.38 0 0 0-.34.12 1.27 1.27 0 0 0-.56 1.57c21.67 54.84-32.4 145.5-137.74 231C261.71 357.26 179.3 402.9 117.01 415c-37.45 7.27-65.37 2.08-83-15.44a1.29 1.29 0 0 0-1.69-.09c-.11.09-.14.26-.21.38q6.54 10.44 14.15 20.92c20.12 14.72 48.39 18.72 84.22 11.78 65.69-12.77 151.07-61.38 234.3-133.37 96.17-83.22 144.27-160.83 136.08-219.1" class="cls-11"/><path d="M489.83 57.27a118.44 118.44 0 0 0-11.38-15.72c-.06 0-.09-.06-.15-.05a1.63 1.63 0 0 0-.37.13 1.28 1.28 0 0 0-.58 1.56c20.84 54.81-31.84 141-140.9 230.48-84 68.95-168.12 115.49-230.72 127.65-33.93 6.59-59.94 2.93-77.31-10.85a1.22 1.22 0 0 0-1-.25 1.28 1.28 0 0 0-.6.28c-.08.07-.08.17-.13.25q3.46 6 7.34 12c18.49 16.95 46.43 21.9 83.48 14.7 62.69-12.18 145.45-58 233-129 104.6-84.85 158.75-175.06 139.32-231.18" class="cls-11"/><path d="M480.08 43.49a110.54 110.54 0 0 0-12.79-13.29 1.3 1.3 0 0 0-.4.18 1.27 1.27 0 0 0-.21 1.66c28.87 43.3-34.75 145.45-144.83 232.64-82.16 65.05-164 109.12-224.6 120.89-39.45 7.67-67.46 1.16-81-18.82a1.27 1.27 0 0 0-1.3-.53 1.36 1.36 0 0 0-.37.13c-.13.09-.19.24-.29.35a258.67 258.67 0 0 0 13.86 26.65c18 13.46 44.15 17 78 10.46 63-12.24 147.5-59 231.84-128.18 109.24-89.6 162.13-176.14 142.09-232.14" class="cls-11"/><path d="M469.99 32.76a107.23 107.23 0 0 0-13.38-10.74c-.12.07-.26.09-.36.21a1.27 1.27 0 0 0-.08 1.64c31.6 40.25-30.55 136.41-147.77 228.67-81.3 64-161.82 107.3-220.92 118.78-35.43 6.88-61.4 1.56-75.09-15.37-.37-.46-.73-.93-1.09-1.41a1.4 1.4 0 0 0-1.36-.55.89.89 0 0 0-.31.11 1.05 1.05 0 0 0-.31.32c1.91 5.2 4.15 10.48 6.62 15.81 14.78 19.19 42.84 25.39 81.8 17.82 61-11.84 143.21-56.09 225.68-121.39C432.87 180 496.37 78.19 469.99 32.76" class="cls-11"/><path d="M459.32 23.98a113.37 113.37 0 0 0-17.55-10.49c-.14.08-.31.11-.41.24a1.25 1.25 0 0 0 0 1.59c6.6 8.06 9.22 18.78 7.8 31.85-5.07 46.54-59.76 116.12-142.78 181.62-84.67 66.77-170.47 113.5-229.54 124.98-31.74 6.17-53.76 2-65.43-12.46a45.61 45.61 0 0 1-7.57-14 1.28 1.28 0 0 0-1.45-.82h-.08c-.14 0-.2.17-.31.24.23 1.46.36 2.93.65 4.39a156.93 156.93 0 0 0 8 26.65c14.37 17.53 41.1 23.1 77.34 16.06 59.49-11.56 140.4-55 222-119.28 116.83-92 179-188.26 149.35-230.55" class="cls-11"/><path d="M451.71 47.35c1.45-13.33-1.23-24.33-7.8-32.81a122.52 122.52 0 0 0-17.26-7c-.09.08-.22.09-.28.2a1.25 1.25 0 0 0 .22 1.57c.52.49 1 1 1.47 1.49 6.14 6.82 8.65 16.08 7.49 27.5-4.68 46.48-69.47 124.57-157.56 189.93-78.42 58.18-156.52 99-208.91 109.17-30.25 5.88-51 1.67-61.57-12.54-2.59-3.46-4.45-8.26-5.5-14.22a1.27 1.27 0 0 0-1.39-1h-.1c-.11 0-.18.12-.28.17a151.09 151.09 0 0 0 2.36 20.9 48 48 0 0 0 6.86 12.23c12.31 15.22 35.15 19.71 67.88 13.34 59.45-11.54 145.67-58.47 230.65-125.52 83.53-65.96 138.6-136.22 143.72-183.41" class="cls-11"/><path d="M438.05 38.55c1.23-12.16-1.5-22.07-8.13-29.45-.25-.29-.55-.57-.83-.84a149.32 149.32 0 0 0-31.3-6.91c-.11.14-.34.17-.37.36a1.29 1.29 0 0 0 .91 1.48c5.12 1.4 8.75 3.17 10.77 5.26 5.21 5.39 7.44 12.92 6.63 22.37-3.74 43.47-71.22 122.27-160.45 187.36-73.86 53.89-143.42 90.08-190.82 99.31-28.12 5.47-47.81 1.34-56.94-11.93-3.17-4.62-4.8-11.33-4.84-19.92.16-1.49.35-3 .55-4.46a1.26 1.26 0 0 0-1.09-1.42 1.13 1.13 0 0 0-.41 0c-.07 0-.08.12-.14.15a157 157 0 0 0-1.08 34.85c1.18 4.62 2.73 8.67 4.94 11.63 11.24 15.05 32.8 19.59 64.1 13.51 52.73-10.25 131.22-51.23 209.93-109.63C368.1 164.49 433.3 85.68 438.05 38.55" class="cls-11"/><path d="M418.25 31.04c.88-10.21-1.59-18.42-7.33-24.35-1.81-1.88-4.65-3.49-8.43-4.84A183.62 183.62 0 0 0 373.84.01c-.15.19-.43.26-.45.5a1.27 1.27 0 0 0 1.09 1.34c7.09 1 12.05 3.08 14.78 6.13 4.12 4.6 5.8 11.07 5 19.23-4 40-64.06 110.52-146 171.6-72 53.66-139.93 89.61-186.35 98.62-25.3 4.92-43.28 1.43-51.95-10.07-3.75-5-5.16-11.71-4.21-20.05a1.27 1.27 0 0 0-1.06-1.39 1.14 1.14 0 0 0-.45 0h-.05a168.59 168.59 0 0 0-3.72 24.24c.54 7 2.18 12.61 5 16.75 9.74 14.17 30.32 18.67 59.52 13 48.45-9.42 116.57-44.84 191.82-99.73 91.18-66.5 157.6-144.3 161.44-189.14" class="cls-11"/><path d="M396.71 27.49c.89-8.9-1-16-5.6-21.18-2.56-2.87-6.8-4.92-12.44-6.18A239.89 239.89 0 0 0 332 4.31c0 .17-.14.31-.11.48a1.26 1.26 0 0 0 1.34 1.11c15.24-1.14 25.55.89 29.85 5.85 3.43 4 4.79 9.45 4 16.31-4 35.58-61.88 100.7-140.7 158.36-66.03 48.32-124.67 79.27-165.12 87.13-22.34 4.34-37.55 1.34-45.19-8.9-3.91-5.22-5.08-12.21-3.47-20.76a1.26 1.26 0 0 0-1.46-1.48 190 190 0 0 0-8.18 29.54c0 6.8 1.58 12.5 4.92 16.92 9.43 12.53 27.75 16.24 54.47 11.05 46.76-9.09 115.05-45.21 187.36-99.08 82.49-61.48 143-132.77 147-173.35" class="cls-11"/><path d="M369.65 28.32c.85-7.58-.7-13.73-4.62-18.25-4.24-4.89-12.83-7.22-25.56-7-3.3.51-6.59 1-9.9 1.64a429.32 429.32 0 0 0-45.34 11.53 1 1 0 0 0 0 .51 1.26 1.26 0 0 0 1.46.91q4.28-1 8.28-1.8c20.23-3.93 33.92-3 38.56 2.63 2.79 3.39 3.84 8 3.15 13.67-3.73 30-56.35 87.71-128 140.38-56.46 41.52-109.58 69.36-145.77 76.39-18.93 3.68-32.06 1.32-38-6.84-4-5.55-4.07-13.74-.13-24.35a1.28 1.28 0 0 0-.68-1.6 1.13 1.13 0 0 0-.44 0 223 223 0 0 0-12.89 30c-1 8.09.32 14.83 4.2 20.05 8.28 11.08 24.32 14.39 47.7 9.85 40.8-7.93 99.82-39 166.18-87.57 79.42-58.07 137.71-123.92 141.8-160.15" class="cls-11"/><path d="M294.56 13.17a476.87 476.87 0 0 0-52 18.23 1 1 0 0 0 0 .46 1.27 1.27 0 0 0 1.42.8.61.61 0 0 0 .18-.05 164 164 0 0 1 22.71-6.35c15.38-3 26-1.61 29.93 3.9 13.3 18.75-34 76.06-105.46 127.76-47.54 34.41-95.77 59.41-125.85 65.25-14.16 2.75-23.81 1.19-27.94-4.51-5.42-7.49-1.46-21.93 11.15-40.65a1.26 1.26 0 0 0-.32-1.74 1.09 1.09 0 0 0-.5-.1 277.43 277.43 0 0 0-27.61 44.73c-2.76 9.53-2.35 17.19 1.62 22.67 6.52 9 20.51 11.73 40.49 7.84 36.53-7.09 90-35.1 146.78-76.83 73.28-53.9 125.12-111 129-142.12.79-6.39-.46-11.64-3.71-15.58-6.59-8-25.09-6.5-39.91-3.71" class="cls-11"/><path d="M298.89 28.7c-4.59-6.47-15.81-8.17-32.47-4.93-4.05.79-8.5 1.94-13.11 3.3a519 519 0 0 0-69.74 33.35v.47a1.27 1.27 0 0 0 1.36.64 1.82 1.82 0 0 0 .35-.12c18.75-9.92 35.43-16.46 48.23-18.92 11.43-2.22 19.14-1.06 22.32 3.33 10.23 14.15-26.33 58.15-81.49 98.09-36.67 26.55-74.15 45.9-97.8 50.5-10.91 2.12-18.33 1-21.41-3.28-5.29-7.32 1.77-23.26 19.36-43.73a1.28 1.28 0 0 0-.11-1.78c-.14-.11-.31-.07-.47-.13a348.29 348.29 0 0 0-32.71 40c-8.86 15.59-10.88 27.5-5.66 34.72 4.81 6.66 15.06 8.51 30.47 5.52 30.88-6 78.31-30.55 126.87-65.69 75-54.29 120.61-110.73 106-131.27" class="cls-11"/><path d="M257.87 44.31c-3.84-5.33-12.16-6.82-24.84-4.34-9.18 1.79-20.41 5.68-32.8 11.29-52.26 27.45-100.09 63.81-135.92 104.77-12.24 16.58-16.35 29.47-11.22 36.55 3.75 5.2 11.81 6.64 23.94 4.28 24-4.66 61.84-24.18 98.8-50.94 58.19-42.13 93.47-85.81 82-101.61m-101.35 84.86c-24.64 17.68-49.15 30.45-64 33.33-6.13 1.19-10.23.62-11.86-1.66-5.41-7.58 14.78-34.35 53.51-62.16 23.78-17.06 48-29.5 63.27-32.46 6.61-1.29 11-.7 12.73 1.7 5.19 7.22-13.85 32.69-53.65 61.25" class="cls-11"/><path d="M212.19 66.49c-2.37-3.3-7.51-4.22-15.27-2.72-15.59 3-40.21 15.64-64.26 32.9-32.84 23.56-62 54.58-54.07 65.7 2.28 3.19 7.13 4.08 14.41 2.67 15.14-3 40.05-15.88 65-33.76 33-23.79 62.23-53.62 54.19-64.79m-32.63 18c-.38 4.85-11.26 17.44-31.32 32.11-15.62 11.42-31.13 19.89-39.53 21.48-2.34.46-4.06.34-4.72-.32a1.51 1.51 0 0 1-.36-1.36c.4-5 11.46-18.07 31.2-32.52 15.16-11.1 30.58-19.39 39.3-21.06 2.53-.49 4.38-.37 5.07.34.12.1.43.43.36 1.31" class="cls-11"/><path d="M181 81.38c-1.38-1.4-3.79-1.74-7.36-1.05-9 1.76-24.87 10.21-40.32 21.52-18.44 13.5-31.69 27.64-32.22 34.35a4.06 4.06 0 0 0 1.08 3.34c1.35 1.35 3.63 1.69 7 1 8.72-1.7 24.64-10.31 40.54-21.95 15.66-11.47 31.75-26.41 32.34-33.95a4 4 0 0 0-1.08-3.29" class="cls-11"/></g></g></g></svg>