<svg xmlns="http://www.w3.org/2000/svg" xml:space="preserve" style="display:inline" viewBox="0 0 539.541 566.93"><defs><mask id="a"><image xmlns:xlink="http://www.w3.org/1999/xlink" width="100%" height="100%" mask="url(#mask1)"/></mask></defs><g fill="#990AE3"><path d="M419.434 476.449c-.063-.127-.064-.277-.176-.381a1.266 1.266 0 0 0-.868-.347c-.32 0-.642.121-.886.363-19.216 18.834-51.968 45.584-98.885 66.066-28.334 12.37-53.497 18.645-74.788 18.645-3.631 0-7.136-.19-10.413-.57a1.265 1.265 0 0 0-1.387 1.011c-.031.158.053.293.078.444 11.495 3.39 22.804 5.248 33.742 5.248 46.894.002 103.809-33.08 153.583-90.479"/><path d="M412.585 484.215c14.054-15.381 27.604-32.692 40.293-51.744-.084-.133-.111-.297-.248-.395-.225-.16-.468.268-.725.268-.377 0-1.53 1.363-1.779 1.683-29.367 37.625-88.492 87.776-160.631 110.086-21.198 6.557-40.312 9.881-56.81 9.881-8.395 0-16.034-.865-22.705-2.57a1.266 1.266 0 0 0-1.507.808c-.051.145.012.282.013.43 9.555 4.424 19.044 7.859 28.403 10.271 2.297.17 4.569.4 6.941.4 21.642 0 47.146-6.344 75.803-18.857 42.263-18.453 73.042-41.915 92.952-60.261"/><path d="M464.64 413.037a1.262 1.262 0 0 0-1.721.31C404.425 493.535 293.296 547.402 226.2 547.402c-14.522 0-27.025-2.361-37.161-7.021a1.267 1.267 0 0 0-1.651.564c-.085.164-.042.338-.052.512 8.323 4.982 16.656 9.289 24.947 12.916 6.275 1.35 13 2.15 20.401 2.15 16.752 0 36.118-3.361 57.56-9.992 67.903-21 125.011-67.957 156.369-104.963a469.845 469.845 0 0 0 18.289-28.148c-.089-.129-.123-.291-.262-.383"/><path d="M488.599 367.832c-10.01 17.76-22.618 35.758-38.906 53.754-58.023 64.109-162.945 116.268-233.888 116.268-20.854 0-37.406-3.375-49.827-12.01-.22-.151-1.135-.69-1.384-.69-.396 0-.443-.354-.689-.009-.11.154-.088.339-.12.513 9.538 7.061 19.17 13.326 28.809 18.778 9.636 3.593 20.818 5.505 33.604 5.505 66.172 0 174.479-51.855 234.422-129.568a497.079 497.079 0 0 0 28.714-53.031l-.735.49z"/><path d="M495.126 353.391a1.266 1.266 0 0 0-1.666.512c-11.427 20.281-24.246 38.171-39.19 54.683-60.42 66.756-171.226 121.068-247.004 121.068-21.927 0-39.71-4.523-52.854-13.447a1.265 1.265 0 0 0-1.73.297c-.104.141-.085.312-.123.475 5.954 4.804 11.964 9.279 18.003 13.507 12.067 6.448 27.11 9.903 45.244 9.903 72.773 0 176.333-51.436 235.763-117.1 14.05-15.525 24.511-31.729 33.606-47.354a516.614 516.614 0 0 0 10.218-22.244c-.096-.099-.138-.236-.267-.3"/><path d="M504.851 329.189a1.261 1.261 0 0 0-1.637.553c-10.144 18.879-27.758 46.828-54.073 72.768-56.929 56.113-168.464 116.68-249.392 116.68-25.888 0-47.458-6.095-63.406-18.111a1.264 1.264 0 0 0-1.738.205c-.051.062.003.145-.024.215a378.773 378.773 0 0 0 22.513 19.039c13.146 7.611 29.841 11.646 50.169 11.646 76.4 0 188.048-54.684 248.883-121.899 13.642-15.072 25.459-31.375 36.128-49.466 4.555-10.149 8.895-20.555 12.901-31.295-.11-.114-.173-.266-.324-.335"/><path d="M510.848 312.271a1.267 1.267 0 0 0-1.619.563c-17.726 33.006-38.848 60.277-64.571 83.369-73.479 65.957-180.267 113.83-253.912 113.83-25.661 0-46.65-5.627-62.384-16.726a1.262 1.262 0 0 0-.728-.229c-.367 0-.729.158-.978.461-.094.111-.078.258-.126.389a416.163 416.163 0 0 0 13.535 12.486c15.801 10.146 35.793 15.309 59.683 15.309 81.568 0 193.887-60.942 251.169-117.408 24.295-23.948 41.159-49.514 51.7-68.287 2.983-7.682 5.849-15.483 8.522-23.465-.102-.096-.157-.233-.291-.292"/><path d="M519.736 282.842a1.266 1.266 0 0 0-1.581.707c-15.271 36.404-45.195 75.32-80.051 104.104-78.398 64.742-183.258 109.956-255.004 109.956-31.934 0-57.476-7.787-75.182-24.259a1.263 1.263 0 0 0-.862-.34c-.238 0-.45.14-.656.271 7.737 8.444 15.688 16.555 23.827 24.203 15.741 9.998 35.227 15.08 60.517 15.08 74.21 0 181.707-48.146 255.604-114.478 24.998-22.441 45.599-48.914 63.055-80.561a538.2 538.2 0 0 0 10.64-34.426c-.11-.08-.172-.21-.307-.257"/><path d="M523.246 269.366a1.267 1.267 0 0 0-1.569.653c-15.812 33.526-37.643 70.112-89.857 110.467-84.309 65.154-184.747 107.257-255.884 107.257-31.011 0-56.134-7.652-74.669-22.744a1.26 1.26 0 0 0-.8-.285c-.333 0-.665.133-.913.389-.11.115-.112.273-.17.412a479.193 479.193 0 0 0 11.641 12.818c17.905 14.436 42.043 21.811 72.075 21.811 72.281 0 177.806-45.452 256.616-110.534 33.848-27.951 62.951-65.377 78.846-100.935a542.97 542.97 0 0 0 5.046-19c-.121-.108-.202-.253-.362-.309"/><path d="M529.301 241.396a1.269 1.269 0 0 0-1.531.771c-18.406 48.756-52.388 90.668-103.886 128.131C335.655 434.48 236.748 474.35 165.76 474.35c-32.283 0-58.184-8.106-76.985-24.102a1.267 1.267 0 0 0-1.707.057c-.101.101-.103.242-.164.363a498.878 498.878 0 0 0 15.6 18.338c18.809 14.101 43.398 21.271 73.433 21.271 71.659 0 172.707-42.312 257.431-107.787 50.852-39.297 73.113-75.068 88.947-107.95a546.823 546.823 0 0 0 7.305-32.903c-.112-.077-.182-.201-.319-.241"/><path d="M531.623 228.414a1.269 1.269 0 0 0-1.517.754c-19.086 48.286-57.098 92.622-112.979 131.777C347.119 410 242.233 462.42 157.81 462.42c-32.946 0-59.398-8.197-78.627-24.365a1.273 1.273 0 0 0-.814-.295c-.315 0-.631.117-.874.351-.105.1-.111.243-.175.366 4.003 5.255 8.08 10.453 12.281 15.548 19.174 15.161 44.678 22.86 76.159 22.86 71.494 0 170.972-40.057 259.613-104.537 50.755-36.92 84.534-78.219 103.394-126.056a554.667 554.667 0 0 0 3.228-17.604c-.127-.095-.213-.23-.372-.274"/><path d="M534.911 205.791a1.268 1.268 0 0 0-1.49.784c-20.52 54.587-62.899 103.19-125.967 144.461-94.719 61.979-188.581 97.529-257.521 97.529-35.172 0-63.112-9.166-83.043-27.247a1.259 1.259 0 0 0-.851-.327c-.299 0-.599.104-.837.315-.104.092-.113.23-.181.344a512.176 512.176 0 0 0 14.569 19.835c19.664 15.58 45.854 23.469 78.21 23.469 85.014 0 190.45-52.654 260.776-101.935 55.23-38.699 93.039-82.501 112.652-130.186 1.532-8.819 2.928-17.723 4.05-26.787-.121-.087-.21-.216-.367-.255"/><path d="M536.632 189.596a1.265 1.265 0 0 0-1.456.877c-15.021 49.958-63.084 103.451-135.339 150.625-88.716 57.92-191.248 95.345-261.216 95.345-34.967 0-61.623-8.796-79.23-26.14a1.266 1.266 0 0 0-1.693-.072c-.108.088-.122.228-.193.34a504.43 504.43 0 0 0 9.781 14.269c20.406 17.435 48.09 26.262 82.649 26.262 69.418 0 163.786-35.7 258.907-97.944 62.563-40.941 104.831-89.136 125.886-143.224.87-6.64 1.604-13.355 2.239-20.123-.116-.071-.196-.188-.335-.215"/><path d="M538.841 161.06a1.266 1.266 0 0 0-1.697.927c-11.51 56.244-66.751 118.69-147.769 167.042-100.378 59.906-191.788 92.897-257.395 92.897-36.237 0-64.431-9.87-83.796-29.34a1.266 1.266 0 0 0-1.668-.11c-.126.096-.155.25-.233.379 4.234 7.059 8.75 14.065 13.419 21.016 18.224 16.66 44.646 25.104 78.92 25.104 70.425 0 173.5-37.586 262.599-95.756 71.201-46.486 119.021-99.174 135.273-148.763 1.124-10.953 2.025-22.025 2.51-33.301-.056-.031-.107-.072-.163-.095"/><path d="M539.353 146.102c-.127-.061-.22-.174-.366-.189a1.264 1.264 0 0 0-1.376 1.016c-11.29 57.74-66.762 118.703-156.196 171.659-96.618 57.209-191.081 90.02-259.166 90.02-34.665 0-61.297-8.291-79.156-24.643a1.255 1.255 0 0 0-.855-.334c-.279 0-.559.092-.792.277-.092.074-.105.195-.172.287a468.357 468.357 0 0 0 6.903 11.707l.001.002c19.946 18.965 48.016 28.557 83.804 28.557 66.057 0 157.929-33.119 258.694-93.258 79.854-47.658 134.764-109.04 148.019-164.989v-.004c.341-6.646.546-13.354.658-20.108"/><path d="M538.757 120.039c-.149-.066-.271-.185-.442-.189l-.029-.001c-.664 0-1.218.516-1.263 1.182-3.887 57.732-67.609 128.445-166.3 184.543-99.326 56.457-190.67 87.549-257.207 87.549-36.528 0-63.616-9.365-80.51-27.836a1.268 1.268 0 0 0-1.658-.185c-.118.082-.147.222-.229.332 3.67 7.228 7.646 14.459 11.837 21.676 18.311 15.902 44.926 24.031 79.291 24.031 68.525 0 163.458-32.938 260.456-90.371 88.289-52.278 143.631-112.461 156.553-169.884.113-4.671.284-9.318.284-14.04.001-5.839-.307-11.401-.783-16.807"/><path d="M539.007 125.392c-.475-7.994-1.278-15.685-2.697-22.802-.14-.053-.261-.149-.417-.149a1.262 1.262 0 0 0-1.264 1.243c-1.117 58.519-63.034 125.96-174.348 189.896-95.037 54.588-187.677 85.896-254.163 85.896-36.672 0-63.551-9.463-79.891-28.125a1.264 1.264 0 0 0-1.641-.23c-.112.071-.143.203-.223.299a397.333 397.333 0 0 0 8.307 17.037c17.467 18 44.596 27.196 80.846 27.196 66.969 0 158.758-31.209 258.459-87.879 97.079-55.18 160.423-124.611 167.032-182.382"/><path d="M536.916 106.659c-1.772-10.295-4.474-19.706-7.984-28.316 0 0-.005-.006-.009-.006a1.269 1.269 0 0 0-1.247 1.5c10.815 57.972-59.549 136.652-179.263 200.448-99.161 52.838-188.716 81.938-252.169 81.938-38.151 0-64.573-10.428-78.532-30.992a1.267 1.267 0 0 0-1.636-.411c-.137.072-.188.215-.286.324a351.748 351.748 0 0 0 9.9 23.235c16.941 18.287 43.933 27.629 80.425 27.629 66.915 0 160.014-31.43 255.425-86.231 110.294-63.352 172.302-130.363 175.376-189.118"/><path d="M530.442 82.164a117.988 117.988 0 0 0-8.172-17.596c-.056-.007-.08-.086-.138-.086a1.266 1.266 0 0 0-1.247 1.483c9.996 57.776-58.145 132.306-182.273 199.366-95.643 51.666-187.068 81.298-250.835 81.298-34.56 0-59.394-8.545-73.812-25.395a1.27 1.27 0 0 0-1.605-.269c-.087.051-.11.152-.181.219a310.326 310.326 0 0 0 4.912 13.217c14.919 20.162 41.412 30.355 79.153 30.355 63.86 0 153.839-29.205 253.359-82.236 118.849-63.332 189.212-141.566 180.839-200.356"/><path d="M523.492 66.803c-2.992-5.533-6.306-10.728-10.021-15.491-.143.025-.285.036-.415.112a1.266 1.266 0 0 0-.533 1.585c20.091 47.979-61.84 136.141-186.525 200.71-93.062 48.197-181.826 75.838-243.528 75.838-40.196 0-66.445-11.728-75.907-33.912a1.268 1.268 0 0 0-1.559-.709c-.153.052-.23.189-.349.285 2.148 9.353 5.017 18.982 8.521 28.801 15.053 16.644 40.091 25.14 74.601 25.14 64.174 0 156.038-29.742 252.039-81.603 124.247-67.124 192.69-142.04 183.676-200.756"/><path d="M515.647 54.318c-3.406-4.685-7.076-9.078-11.086-13.089-.133.04-.274.042-.393.128a1.265 1.265 0 0 0-.388 1.605c23.331 45.522-56.018 128.073-188.674 196.288-92.017 47.318-179.319 74.458-239.521 74.458-36.089 0-60.566-10.168-70.784-29.405a40.178 40.178 0 0 1-.792-1.597c-.224-.467-.73-.8-1.236-.8-.11 0-.222.016-.33.05-.15.048-.238.166-.36.251.88 5.475 2.069 11.083 3.483 16.783 10.845 21.662 37.208 33.102 76.898 33.102 62.095 0 151.283-27.746 244.694-76.121 123.96-64.194 205.723-152.021 188.489-201.653"/><path d="M506.844 43.67c-4.705-5-9.717-9.646-15.216-13.704-.154.05-.322.056-.451.167a1.267 1.267 0 0 0-.289 1.561c4.938 9.167 5.47 20.186 1.58 32.751-13.843 44.717-80.818 102.599-174.791 151.057-95.862 49.434-189.016 78.947-249.187 78.947-32.337 0-53.147-8.312-61.856-24.706-2.355-4.435-3.958-9.554-4.764-15.216a1.266 1.266 0 0 0-1.252-1.087c-.028 0-.057 0-.083.002-.14.009-.23.116-.354.165-.045 1.485-.201 2.952-.201 4.444 0 8.764 1.012 18.063 2.745 27.682 10.763 19.949 35.935 30.508 72.862 30.508 60.591 0 148.314-27.242 240.678-74.738C448.494 173.507 527.887 90.833 506.844 43.67"/><path d="M494.901 65.152c3.957-12.812 3.418-24.118-1.404-33.705-4.901-3.772-10.129-7.131-15.604-10.167-.104.063-.239.051-.324.146a1.266 1.266 0 0 0-.075 1.589c.419.573.811 1.152 1.164 1.742 4.709 7.867 5.419 17.43 2.11 28.426-13.464 44.725-91.962 109.032-190.896 156.382-88.084 42.16-172.528 67.329-225.888 67.329-30.827 0-50.362-8.091-58.061-24.049-1.884-3.905-2.787-8.958-2.687-15.018a1.265 1.265 0 0 0-1.267-1.287c-.114 0-.196.084-.302.113C.668 243.569.02 250.548 0 257.624c.948 4.901 2.328 9.41 4.397 13.308 9.183 17.287 30.746 26.05 64.093 26.05 60.555 0 154.143-29.617 250.346-79.228 94.592-48.777 162.057-107.252 176.065-152.602"/><path d="M483.19 53.913c3.523-11.706 2.729-21.954-2.361-30.458-.199-.334-.438-.658-.657-.987-9.085-5.27-18.989-9.43-29.408-12.754-.135.123-.358.111-.431.29-.252.615.015 1.32.608 1.615 4.764 2.356 7.982 4.788 9.567 7.225 4.088 6.281 4.841 14.094 2.238 23.224-11.955 41.954-93.225 106.433-193.235 153.317-82.786 38.81-157.963 61.069-206.254 61.069-28.649 0-47.188-7.808-53.613-22.579-2.235-5.14-2.555-12.027-.95-20.471a157.87 157.87 0 0 1 1.385-4.28 1.264 1.264 0 0 0-1.2-1.672c-.072 0-.095.107-.166.12C4.886 218.646 2.289 229.996 1 241.573c.283 4.769 1.035 9.038 2.643 12.373 8.158 16.908 28.46 25.482 60.342 25.482 53.72 0 138.572-25.263 226.98-67.578C390.492 164.215 469.538 99.269 483.19 53.913"/><path d="M465.183 42.761c2.812-9.865 1.953-18.377-2.552-25.299-1.424-2.187-3.903-4.316-7.347-6.357-8.858-3.106-18.161-5.51-27.779-7.273-.179.16-.47.165-.533.41a1.265 1.265 0 0 0 .809 1.522c6.764 2.346 11.253 5.316 13.348 8.83 3.163 5.307 3.57 11.979 1.21 19.831-11.566 38.453-83.978 96.266-176.087 140.592-80.918 38.939-154.443 61.272-201.724 61.272-25.785 0-42.759-6.848-49.085-19.803-2.726-5.585-2.831-12.475-.311-20.48a1.266 1.266 0 0 0-1.206-1.648c-.028 0-.038.041-.066.043-3.32 7.561-6.111 15.256-8.273 23.083-.799 6.943-.264 12.798 1.739 17.401 6.857 15.767 26.199 24.101 55.934 24.101 49.365 0 122.996-21.773 207.33-61.308C372.825 149.75 452.848 86.045 465.183 42.761"/><path d="M444.762 35.156c2.575-8.562 2.083-15.916-1.461-21.859-1.972-3.31-5.734-6.12-11.034-8.439C417.376 1.76 401.7.212 385.659.07c-.073.148-.197.267-.21.443a1.266 1.266 0 0 0 1.115 1.341c15.163 1.796 24.908 5.751 28.18 11.437 2.619 4.552 2.899 10.196.833 16.775-10.73 34.159-79.949 87.052-168.328 128.625-74.073 34.843-137.555 54.032-178.752 54.032-22.76 0-37.114-5.835-42.666-17.343-2.835-5.878-2.648-12.959.554-21.045a1.267 1.267 0 0 0-.582-1.585 1.26 1.26 0 0 0-.563-.14c-5.362 8.921-9.934 18.077-13.669 27.44-1.316 6.67-.838 12.561 1.599 17.549 6.875 14.083 24.156 21.223 51.358 21.223 47.647 0 121.572-22.424 202.821-61.522 92.702-44.612 165.658-103.063 177.413-142.144"/><path d="M417.991 30.824c2.287-7.282 1.934-13.606-1.055-18.797-3.223-5.604-11.219-9.538-23.748-11.751C389.85.156 386.519 0 383.146 0c-15.314 0-30.945.939-46.704 2.678-.057.162-.168.302-.153.484.05.663.603 1.172 1.262 1.172l.054-.001c2.92-.123 5.748-.186 8.467-.186 20.604 0 33.867 3.53 37.35 9.94 2.095 3.859 2.258 8.573.481 14.013-9.372 28.723-72.036 75.355-152.39 113.399-63.339 29.99-120.804 47.19-157.661 47.19-19.285 0-31.716-4.824-35.95-13.95-2.883-6.22-1.365-14.274 4.51-23.939a1.268 1.268 0 0 0-.362-1.7c-.126-.087-.275-.094-.415-.13-6.905 8.745-13.053 17.765-18.385 27.033-2.525 7.748-2.521 14.625.302 20.477 6.01 12.458 21.132 18.776 44.946 18.776 41.562 0 105.427-19.275 179.828-54.274 88.969-41.851 158.737-95.374 169.665-130.158"/><path d="M347.174 1.633c-18.022 1.555-36.262 4.259-54.473 7.979-.035.157-.13.294-.103.462a1.268 1.268 0 0 0 1.43 1.036c8.688-1.265 16.597-1.907 23.502-1.907 15.673 0 25.84 3.388 28.629 9.541 9.494 20.939-47.869 68.176-127.874 105.301-53.241 24.705-105.353 40.053-135.995 40.053-14.414 0-23.599-3.376-26.562-9.764-3.886-8.382 2.754-21.796 18.698-37.771a1.269 1.269 0 0 0 .02-1.77c-.129-.134-.312-.138-.475-.203-13.446 12.165-25.408 25.088-35.634 38.643-4.524 8.826-5.58 16.432-2.733 22.571 4.679 10.087 17.903 15.417 38.246 15.417 37.218 0 95.078-17.288 158.745-47.432 82.217-38.928 143.989-85.104 153.713-114.903 1.999-6.128 1.775-11.514-.665-16.008-4.939-9.091-23.391-11.153-38.469-11.245"/><path d="M348.466 17.697c-3.271-7.215-13.97-11.029-30.937-11.029-4.14 0-8.714.292-13.502.74-25.149 4.537-50.31 11.097-74.821 19.434-.014.162-.09.313-.037.477a1.267 1.267 0 0 0 1.573.826c20.256-6.154 37.862-9.407 50.917-9.407 11.632 0 18.986 2.604 21.271 7.53 7.338 15.84-36.936 52.059-98.694 80.736-41.069 19.073-81.548 30.921-105.637 30.921-11.127 0-18.179-2.525-20.393-7.3-3.797-8.196 6.169-22.498 27.343-39.238.54-.428.64-1.208.225-1.757-.107-.144-.292-.136-.439-.219-14.367 10.31-27.725 21.313-39.717 32.986-11.671 13.607-15.932 24.923-12.185 33.003 3.456 7.452 13.165 11.23 28.857 11.23 31.458 0 82.694-15.061 137.061-40.288 84.014-38.985 139.521-85.693 129.115-108.645"/><path d="M305.227 25.203c-2.77-5.973-10.701-9.002-23.577-9.002-9.339 0-21.102 1.686-34.339 4.83-56.54 16.983-110.416 43.54-153.41 76.921-15.178 13.936-21.664 25.811-17.991 33.738 2.696 5.818 10.33 8.768 22.689 8.768 24.435 0 65.32-11.938 106.703-31.156 65.159-30.257 108.118-66.412 99.925-84.099M189.502 89.162c-27.56 12.657-54.056 20.521-69.149 20.521-6.244 0-10.162-1.345-11.33-3.89-3.892-8.481 21.038-30.926 64.354-50.819 26.595-12.216 52.769-19.804 68.307-19.805 6.729 0 10.939 1.42 12.172 4.105 3.706 8.076-19.846 29.446-64.354 49.888"/><path d="M256.156 38.217c-1.699-3.703-6.568-5.581-14.473-5.581-15.879 0-42.458 7.677-69.364 20.036-36.725 16.866-71.303 41.743-65.597 54.178 1.634 3.561 6.22 5.366 13.631 5.366 15.436 0 42.336-7.952 70.205-20.752 36.953-16.971 71.351-40.711 65.598-53.247m-35.471 11.467c-1.302 4.687-14.385 14.968-36.868 25.55-17.512 8.245-34.354 13.573-42.908 13.573-2.391 0-4.062-.448-4.582-1.227-.084-.126-.34-.509-.093-1.399 1.34-4.815 14.7-15.552 36.827-25.967 17.011-8.008 33.735-13.183 42.604-13.183 2.577 0 4.371.475 4.923 1.302.081.123.333.5.097 1.351"/><path d="M222.693 46.926c-1.091-1.634-3.389-2.428-7.027-2.428-9.213 0-26.36 5.269-43.684 13.423-20.676 9.733-36.379 21.075-38.188 27.581-.461 1.661-.023 2.811.426 3.484 1.058 1.583 3.246 2.353 6.688 2.353 8.896 0 26.162-5.422 43.986-13.813 17.569-8.27 36.204-19.876 38.229-27.164.454-1.628.017-2.767-.43-3.436"/><path d="M222.693 46.926c-1.091-1.634-3.389-2.428-7.027-2.428-9.213 0-26.36 5.269-43.684 13.423-20.676 9.733-36.379 21.075-38.188 27.581-.461 1.661-.023 2.811.426 3.484 1.058 1.583 3.246 2.353 6.688 2.353 8.896 0 26.162-5.422 43.986-13.813 17.569-8.27 36.204-19.876 38.229-27.164.454-1.628.017-2.767-.43-3.436" style="fill:#0cc"/><path d="M256.156 38.217c-1.699-3.703-6.568-5.581-14.473-5.581-15.879 0-42.458 7.677-69.364 20.036-36.725 16.866-71.303 41.743-65.597 54.178 1.634 3.561 6.22 5.366 13.631 5.366 15.436 0 42.336-7.952 70.205-20.752 36.953-16.971 71.351-40.711 65.598-53.247m-35.471 11.467c-1.302 4.687-14.385 14.968-36.868 25.55-17.512 8.245-34.354 13.573-42.908 13.573-2.391 0-4.062-.448-4.582-1.227-.084-.126-.34-.509-.093-1.399 1.34-4.815 14.7-15.552 36.827-25.967 17.011-8.008 33.735-13.183 42.604-13.183 2.577 0 4.371.475 4.923 1.302.081.123.333.5.097 1.351" style="fill:#0cc"/><path d="M305.227 25.203c-2.77-5.973-10.701-9.002-23.577-9.002-9.339 0-21.102 1.686-34.339 4.83-56.54 16.983-110.416 43.54-153.41 76.921-15.178 13.936-21.664 25.811-17.991 33.738 2.696 5.818 10.33 8.768 22.689 8.768 24.435 0 65.32-11.938 106.703-31.156 65.159-30.257 108.118-66.412 99.925-84.099M189.502 89.162c-27.56 12.657-54.056 20.521-69.149 20.521-6.244 0-10.162-1.345-11.33-3.89-3.892-8.481 21.038-30.926 64.354-50.819 26.595-12.216 52.769-19.804 68.307-19.805 6.729 0 10.939 1.42 12.172 4.105 3.706 8.076-19.846 29.446-64.354 49.888" style="fill:#9832ff"/><path d="M348.466 17.697c-3.271-7.215-13.97-11.029-30.937-11.029-4.14 0-8.714.292-13.502.74-25.149 4.537-50.31 11.097-74.821 19.434-.014.162-.09.313-.037.477a1.267 1.267 0 0 0 1.573.826c20.256-6.154 37.862-9.407 50.917-9.407 11.632 0 18.986 2.604 21.271 7.53 7.338 15.84-36.936 52.059-98.694 80.736-41.069 19.073-81.548 30.921-105.637 30.921-11.127 0-18.179-2.525-20.393-7.3-3.797-8.196 6.169-22.498 27.343-39.238.54-.428.64-1.208.225-1.757-.107-.144-.292-.136-.439-.219-14.367 10.31-27.725 21.313-39.717 32.986-11.671 13.607-15.932 24.923-12.185 33.003 3.456 7.452 13.165 11.23 28.857 11.23 31.458 0 82.694-15.061 137.061-40.288 84.014-38.985 139.521-85.693 129.115-108.645" style="fill:transparent"/><path d="M347.174 1.633c-18.022 1.555-36.262 4.259-54.473 7.979-.035.157-.13.294-.103.462a1.268 1.268 0 0 0 1.43 1.036c8.688-1.265 16.597-1.907 23.502-1.907 15.673 0 25.84 3.388 28.629 9.541 9.494 20.939-47.869 68.176-127.874 105.301-53.241 24.705-105.353 40.053-135.995 40.053-14.414 0-23.599-3.376-26.562-9.764-3.886-8.382 2.754-21.796 18.698-37.771a1.269 1.269 0 0 0 .02-1.77c-.129-.134-.312-.138-.475-.203-13.446 12.165-25.408 25.088-35.634 38.643-4.524 8.826-5.58 16.432-2.733 22.571 4.679 10.087 17.903 15.417 38.246 15.417 37.218 0 95.078-17.288 158.745-47.432 82.217-38.928 143.989-85.104 153.713-114.903 1.999-6.128 1.775-11.514-.665-16.008-4.939-9.091-23.391-11.153-38.469-11.245" style="fill:#9809e2"/><path d="M417.991 30.824c2.287-7.282 1.934-13.606-1.055-18.797-3.223-5.604-11.219-9.538-23.748-11.751C389.85.156 386.519 0 383.146 0c-15.314 0-30.945.939-46.704 2.678-.057.162-.168.302-.153.484.05.663.603 1.172 1.262 1.172l.054-.001c2.92-.123 5.748-.186 8.467-.186 20.604 0 33.867 3.53 37.35 9.94 2.095 3.859 2.258 8.573.481 14.013-9.372 28.723-72.036 75.355-152.39 113.399-63.339 29.99-120.804 47.19-157.661 47.19-19.285 0-31.716-4.824-35.95-13.95-2.883-6.22-1.365-14.274 4.51-23.939a1.268 1.268 0 0 0-.362-1.7c-.126-.087-.275-.094-.415-.13-6.905 8.745-13.053 17.765-18.385 27.033-2.525 7.748-2.521 14.625.302 20.477 6.01 12.458 21.132 18.776 44.946 18.776 41.562 0 105.427-19.275 179.828-54.274 88.969-41.851 158.737-95.374 169.665-130.158" style="fill:#ccff31"/><path d="M444.762 35.156c2.575-8.562 2.083-15.916-1.461-21.859-1.972-3.31-5.734-6.12-11.034-8.439C417.376 1.76 401.7.212 385.659.07c-.073.148-.197.267-.21.443a1.266 1.266 0 0 0 1.115 1.341c15.163 1.796 24.908 5.751 28.18 11.437 2.619 4.552 2.899 10.196.833 16.775-10.73 34.159-79.949 87.052-168.328 128.625-74.073 34.843-137.555 54.032-178.752 54.032-22.76 0-37.114-5.835-42.666-17.343-2.835-5.878-2.648-12.959.554-21.045a1.267 1.267 0 0 0-.582-1.585 1.26 1.26 0 0 0-.563-.14c-5.362 8.921-9.934 18.077-13.669 27.44-1.316 6.67-.838 12.561 1.599 17.549 6.875 14.083 24.156 21.223 51.358 21.223 47.647 0 121.572-22.424 202.821-61.522 92.702-44.612 165.658-103.063 177.413-142.144" style="fill:#9809e2"/><path d="M465.183 42.761c2.812-9.865 1.953-18.377-2.552-25.299-1.424-2.187-3.903-4.316-7.347-6.357-8.858-3.106-18.161-5.51-27.779-7.273-.179.16-.47.165-.533.41a1.265 1.265 0 0 0 .809 1.522c6.764 2.346 11.253 5.316 13.348 8.83 3.163 5.307 3.57 11.979 1.21 19.831-11.566 38.453-83.978 96.266-176.087 140.592-80.918 38.939-154.443 61.272-201.724 61.272-25.785 0-42.759-6.848-49.085-19.803-2.726-5.585-2.831-12.475-.311-20.48a1.266 1.266 0 0 0-1.206-1.648c-.028 0-.038.041-.066.043-3.32 7.561-6.111 15.256-8.273 23.083-.799 6.943-.264 12.798 1.739 17.401 6.857 15.767 26.199 24.101 55.934 24.101 49.365 0 122.996-21.773 207.33-61.308C372.825 149.75 452.848 86.045 465.183 42.761" style="fill:#9809e2"/><path d="M483.19 53.913c3.523-11.706 2.729-21.954-2.361-30.458-.199-.334-.438-.658-.657-.987-9.085-5.27-18.989-9.43-29.408-12.754-.135.123-.358.111-.431.29-.252.615.015 1.32.608 1.615 4.764 2.356 7.982 4.788 9.567 7.225 4.088 6.281 4.841 14.094 2.238 23.224-11.955 41.954-93.225 106.433-193.235 153.317-82.786 38.81-157.963 61.069-206.254 61.069-28.649 0-47.188-7.808-53.613-22.579-2.235-5.14-2.555-12.027-.95-20.471a157.87 157.87 0 0 1 1.385-4.28 1.264 1.264 0 0 0-1.2-1.672c-.072 0-.095.107-.166.12C4.886 218.646 2.289 229.996 1 241.573c.283 4.769 1.035 9.038 2.643 12.373 8.158 16.908 28.46 25.482 60.342 25.482 53.72 0 138.572-25.263 226.98-67.578C390.492 164.215 469.538 99.269 483.19 53.913" style="fill:#9832ff"/><path d="M494.901 65.152c3.957-12.812 3.418-24.118-1.404-33.705-4.901-3.772-10.129-7.131-15.604-10.167-.104.063-.239.051-.324.146a1.266 1.266 0 0 0-.075 1.589c.419.573.811 1.152 1.164 1.742 4.709 7.867 5.419 17.43 2.11 28.426-13.464 44.725-91.962 109.032-190.896 156.382-88.084 42.16-172.528 67.329-225.888 67.329-30.827 0-50.362-8.091-58.061-24.049-1.884-3.905-2.787-8.958-2.687-15.018a1.265 1.265 0 0 0-1.267-1.287c-.114 0-.196.084-.302.113C.668 243.569.02 250.548 0 257.624c.948 4.901 2.328 9.41 4.397 13.308 9.183 17.287 30.746 26.05 64.093 26.05 60.555 0 154.143-29.617 250.346-79.228 94.592-48.777 162.057-107.252 176.065-152.602" style="fill:#9832ff"/><path d="M506.844 43.67c-4.705-5-9.717-9.646-15.216-13.704-.154.05-.322.056-.451.167a1.267 1.267 0 0 0-.289 1.561c4.938 9.167 5.47 20.186 1.58 32.751-13.843 44.717-80.818 102.599-174.791 151.057-95.862 49.434-189.016 78.947-249.187 78.947-32.337 0-53.147-8.312-61.856-24.706-2.355-4.435-3.958-9.554-4.764-15.216a1.266 1.266 0 0 0-1.252-1.087c-.028 0-.057 0-.083.002-.14.009-.23.116-.354.165-.045 1.485-.201 2.952-.201 4.444 0 8.764 1.012 18.063 2.745 27.682 10.763 19.949 35.935 30.508 72.862 30.508 60.591 0 148.314-27.242 240.678-74.738C448.494 173.507 527.887 90.833 506.844 43.67" style="fill:#9832ff"/><path d="M515.647 54.318c-3.406-4.685-7.076-9.078-11.086-13.089-.133.04-.274.042-.393.128a1.265 1.265 0 0 0-.388 1.605c23.331 45.522-56.018 128.073-188.674 196.288-92.017 47.318-179.319 74.458-239.521 74.458-36.089 0-60.566-10.168-70.784-29.405a40.178 40.178 0 0 1-.792-1.597c-.224-.467-.73-.8-1.236-.8-.11 0-.222.016-.33.05-.15.048-.238.166-.36.251.88 5.475 2.069 11.083 3.483 16.783 10.845 21.662 37.208 33.102 76.898 33.102 62.095 0 151.283-27.746 244.694-76.121 123.96-64.194 205.723-152.021 188.489-201.653" style="fill:#9832ff"/><path d="M523.492 66.803c-2.992-5.533-6.306-10.728-10.021-15.491-.143.025-.285.036-.415.112a1.266 1.266 0 0 0-.533 1.585c20.091 47.979-61.84 136.141-186.525 200.71-93.062 48.197-181.826 75.838-243.528 75.838-40.196 0-66.445-11.728-75.907-33.912a1.268 1.268 0 0 0-1.559-.709c-.153.052-.23.189-.349.285 2.148 9.353 5.017 18.982 8.521 28.801 15.053 16.644 40.091 25.14 74.601 25.14 64.174 0 156.038-29.742 252.039-81.603 124.247-67.124 192.69-142.04 183.676-200.756" style="fill:#9832ff"/><path d="M530.442 82.164a117.988 117.988 0 0 0-8.172-17.596c-.056-.007-.08-.086-.138-.086a1.266 1.266 0 0 0-1.247 1.483c9.996 57.776-58.145 132.306-182.273 199.366-95.643 51.666-187.068 81.298-250.835 81.298-34.56 0-59.394-8.545-73.812-25.395a1.27 1.27 0 0 0-1.605-.269c-.087.051-.11.152-.181.219a310.326 310.326 0 0 0 4.912 13.217c14.919 20.162 41.412 30.355 79.153 30.355 63.86 0 153.839-29.205 253.359-82.236 118.849-63.332 189.212-141.566 180.839-200.356" style="fill:#f0c"/><path d="M536.916 106.659c-1.772-10.295-4.474-19.706-7.984-28.316 0 0-.005-.006-.009-.006a1.269 1.269 0 0 0-1.247 1.5c10.815 57.972-59.549 136.652-179.263 200.448-99.161 52.838-188.716 81.938-252.169 81.938-38.151 0-64.573-10.428-78.532-30.992a1.267 1.267 0 0 0-1.636-.411c-.137.072-.188.215-.286.324a351.748 351.748 0 0 0 9.9 23.235c16.941 18.287 43.933 27.629 80.425 27.629 66.915 0 160.014-31.43 255.425-86.231 110.294-63.352 172.302-130.363 175.376-189.118" style="fill:#31ff00"/><path d="M539.007 125.392c-.475-7.994-1.278-15.685-2.697-22.802-.14-.053-.261-.149-.417-.149a1.262 1.262 0 0 0-1.264 1.243c-1.117 58.519-63.034 125.96-174.348 189.896-95.037 54.588-187.677 85.896-254.163 85.896-36.672 0-63.551-9.463-79.891-28.125a1.264 1.264 0 0 0-1.641-.23c-.112.071-.143.203-.223.299a397.333 397.333 0 0 0 8.307 17.037c17.467 18 44.596 27.196 80.846 27.196 66.969 0 158.758-31.209 258.459-87.879 97.079-55.18 160.423-124.611 167.032-182.382" style="fill:#31ff00"/><path d="M538.757 120.039c-.149-.066-.271-.185-.442-.189l-.029-.001c-.664 0-1.218.516-1.263 1.182-3.887 57.732-67.609 128.445-166.3 184.543-99.326 56.457-190.67 87.549-257.207 87.549-36.528 0-63.616-9.365-80.51-27.836a1.268 1.268 0 0 0-1.658-.185c-.118.082-.147.222-.229.332 3.67 7.228 7.646 14.459 11.837 21.676 18.311 15.902 44.926 24.031 79.291 24.031 68.525 0 163.458-32.938 260.456-90.371 88.289-52.278 143.631-112.461 156.553-169.884.113-4.671.284-9.318.284-14.04.001-5.839-.307-11.401-.783-16.807" style="fill:#31ff00"/><path d="M539.353 146.102c-.127-.061-.22-.174-.366-.189a1.264 1.264 0 0 0-1.376 1.016c-11.29 57.74-66.762 118.703-156.196 171.659-96.618 57.209-191.081 90.02-259.166 90.02-34.665 0-61.297-8.291-79.156-24.643a1.255 1.255 0 0 0-.855-.334c-.279 0-.559.092-.792.277-.092.074-.105.195-.172.287a468.357 468.357 0 0 0 6.903 11.707l.001.002c19.946 18.965 48.016 28.557 83.804 28.557 66.057 0 157.929-33.119 258.694-93.258 79.854-47.658 134.764-109.04 148.019-164.989v-.004c.341-6.646.546-13.354.658-20.108" style="fill:#9809e2"/><path d="M538.841 161.06a1.266 1.266 0 0 0-1.697.927c-11.51 56.244-66.751 118.69-147.769 167.042-100.378 59.906-191.788 92.897-257.395 92.897-36.237 0-64.431-9.87-83.796-29.34a1.266 1.266 0 0 0-1.668-.11c-.126.096-.155.25-.233.379 4.234 7.059 8.75 14.065 13.419 21.016 18.224 16.66 44.646 25.104 78.92 25.104 70.425 0 173.5-37.586 262.599-95.756 71.201-46.486 119.021-99.174 135.273-148.763 1.124-10.953 2.025-22.025 2.51-33.301-.056-.031-.107-.072-.163-.095" style="fill:#0ff"/><path d="M536.632 189.596a1.265 1.265 0 0 0-1.456.877c-15.021 49.958-63.084 103.451-135.339 150.625-88.716 57.92-191.248 95.345-261.216 95.345-34.967 0-61.623-8.796-79.23-26.14a1.266 1.266 0 0 0-1.693-.072c-.108.088-.122.228-.193.34a504.43 504.43 0 0 0 9.781 14.269c20.406 17.435 48.09 26.262 82.649 26.262 69.418 0 163.786-35.7 258.907-97.944 62.563-40.941 104.831-89.136 125.886-143.224.87-6.64 1.604-13.355 2.239-20.123-.116-.071-.196-.188-.335-.215" style="fill:#0cc"/><path d="M534.911 205.791a1.268 1.268 0 0 0-1.49.784c-20.52 54.587-62.899 103.19-125.967 144.461-94.719 61.979-188.581 97.529-257.521 97.529-35.172 0-63.112-9.166-83.043-27.247a1.259 1.259 0 0 0-.851-.327c-.299 0-.599.104-.837.315-.104.092-.113.23-.181.344a512.176 512.176 0 0 0 14.569 19.835c19.664 15.58 45.854 23.469 78.21 23.469 85.014 0 190.45-52.654 260.776-101.935 55.23-38.699 93.039-82.501 112.652-130.186 1.532-8.819 2.928-17.723 4.05-26.787-.121-.087-.21-.216-.367-.255" style="fill:#0cc"/><path d="M531.623 228.414a1.269 1.269 0 0 0-1.517.754c-19.086 48.286-57.098 92.622-112.979 131.777C347.119 410 242.233 462.42 157.81 462.42c-32.946 0-59.398-8.197-78.627-24.365a1.273 1.273 0 0 0-.814-.295c-.315 0-.631.117-.874.351-.105.1-.111.243-.175.366 4.003 5.255 8.08 10.453 12.281 15.548 19.174 15.161 44.678 22.86 76.159 22.86 71.494 0 170.972-40.057 259.613-104.537 50.755-36.92 84.534-78.219 103.394-126.056a554.667 554.667 0 0 0 3.228-17.604c-.127-.095-.213-.23-.372-.274" style="fill:#0cc"/><path d="M529.301 241.396a1.269 1.269 0 0 0-1.531.771c-18.406 48.756-52.388 90.668-103.886 128.131C335.655 434.48 236.748 474.35 165.76 474.35c-32.283 0-58.184-8.106-76.985-24.102a1.267 1.267 0 0 0-1.707.057c-.101.101-.103.242-.164.363a498.878 498.878 0 0 0 15.6 18.338c18.809 14.101 43.398 21.271 73.433 21.271 71.659 0 172.707-42.312 257.431-107.787 50.852-39.297 73.113-75.068 88.947-107.95a546.823 546.823 0 0 0 7.305-32.903c-.112-.077-.182-.201-.319-.241" style="fill:#0cc"/><path d="M523.246 269.366a1.267 1.267 0 0 0-1.569.653c-15.812 33.526-37.643 70.112-89.857 110.467-84.309 65.154-184.747 107.257-255.884 107.257-31.011 0-56.134-7.652-74.669-22.744a1.26 1.26 0 0 0-.8-.285c-.333 0-.665.133-.913.389-.11.115-.112.273-.17.412a479.193 479.193 0 0 0 11.641 12.818c17.905 14.436 42.043 21.811 72.075 21.811 72.281 0 177.806-45.452 256.616-110.534 33.848-27.951 62.951-65.377 78.846-100.935a542.97 542.97 0 0 0 5.046-19c-.121-.108-.202-.253-.362-.309" style="fill:#0ff"/><path d="M519.736 282.842a1.266 1.266 0 0 0-1.581.707c-15.271 36.404-45.195 75.32-80.051 104.104-78.398 64.742-183.258 109.956-255.004 109.956-31.934 0-57.476-7.787-75.182-24.259a1.263 1.263 0 0 0-.862-.34c-.238 0-.45.14-.656.271 7.737 8.444 15.688 16.555 23.827 24.203 15.741 9.998 35.227 15.08 60.517 15.08 74.21 0 181.707-48.146 255.604-114.478 24.998-22.441 45.599-48.914 63.055-80.561a538.2 538.2 0 0 0 10.64-34.426c-.11-.08-.172-.21-.307-.257" style="fill:#ff9a00"/><path d="M510.848 312.271a1.267 1.267 0 0 0-1.619.563c-17.726 33.006-38.848 60.277-64.571 83.369-73.479 65.957-180.267 113.83-253.912 113.83-25.661 0-46.65-5.627-62.384-16.726a1.262 1.262 0 0 0-.728-.229c-.367 0-.729.158-.978.461-.094.111-.078.258-.126.389a416.163 416.163 0 0 0 13.535 12.486c15.801 10.146 35.793 15.309 59.683 15.309 81.568 0 193.887-60.942 251.169-117.408 24.295-23.948 41.159-49.514 51.7-68.287 2.983-7.682 5.849-15.483 8.522-23.465-.102-.096-.157-.233-.291-.292" style="fill:#ff9a00"/><path d="M504.851 329.189a1.261 1.261 0 0 0-1.637.553c-10.144 18.879-27.758 46.828-54.073 72.768-56.929 56.113-168.464 116.68-249.392 116.68-25.888 0-47.458-6.095-63.406-18.111a1.264 1.264 0 0 0-1.738.205c-.051.062.003.145-.024.215a378.773 378.773 0 0 0 22.513 19.039c13.146 7.611 29.841 11.646 50.169 11.646 76.4 0 188.048-54.684 248.883-121.899 13.642-15.072 25.459-31.375 36.128-49.466 4.555-10.149 8.895-20.555 12.901-31.295-.11-.114-.173-.266-.324-.335" style="fill:#cb00ff"/><path d="M495.126 353.391a1.266 1.266 0 0 0-1.666.512c-11.427 20.281-24.246 38.171-39.19 54.683-60.42 66.756-171.226 121.068-247.004 121.068-21.927 0-39.71-4.523-52.854-13.447a1.265 1.265 0 0 0-1.73.297c-.104.141-.085.312-.123.475 5.954 4.804 11.964 9.279 18.003 13.507 12.067 6.448 27.11 9.903 45.244 9.903 72.773 0 176.333-51.436 235.763-117.1 14.05-15.525 24.511-31.729 33.606-47.354a516.614 516.614 0 0 0 10.218-22.244c-.096-.099-.138-.236-.267-.3" style="fill:#cb00ff"/><path d="M488.599 367.832c-10.01 17.76-22.618 35.758-38.906 53.754-58.023 64.109-162.945 116.268-233.888 116.268-20.854 0-37.406-3.375-49.827-12.01-.22-.151-1.135-.69-1.384-.69-.396 0-.443-.354-.689-.009-.11.154-.088.339-.12.513 9.538 7.061 19.17 13.326 28.809 18.778 9.636 3.593 20.818 5.505 33.604 5.505 66.172 0 174.479-51.855 234.422-129.568a497.079 497.079 0 0 0 28.714-53.031l-.735.49z" style="fill:#cb00ff"/><path d="M464.64 413.037a1.262 1.262 0 0 0-1.721.31C404.425 493.535 293.296 547.402 226.2 547.402c-14.522 0-27.025-2.361-37.161-7.021a1.267 1.267 0 0 0-1.651.564c-.085.164-.042.338-.052.512 8.323 4.982 16.656 9.289 24.947 12.916 6.275 1.35 13 2.15 20.401 2.15 16.752 0 36.118-3.361 57.56-9.992 67.903-21 125.011-67.957 156.369-104.963a469.845 469.845 0 0 0 18.289-28.148c-.089-.129-.123-.291-.262-.383" style="fill:#cb00ff"/><path d="M412.585 484.215c14.054-15.381 27.604-32.692 40.293-51.744-.084-.133-.111-.297-.248-.395-.225-.16-.468.268-.725.268-.377 0-1.53 1.363-1.779 1.683-29.367 37.625-88.492 87.776-160.631 110.086-21.198 6.557-40.312 9.881-56.81 9.881-8.395 0-16.034-.865-22.705-2.57a1.266 1.266 0 0 0-1.507.808c-.051.145.012.282.013.43 9.555 4.424 19.044 7.859 28.403 10.271 2.297.17 4.569.4 6.941.4 21.642 0 47.146-6.344 75.803-18.857 42.263-18.453 73.042-41.915 92.952-60.261" style="fill:#cb00ff"/><path d="M419.434 476.449c-.063-.127-.064-.277-.176-.381a1.266 1.266 0 0 0-.868-.347c-.32 0-.642.121-.886.363-19.216 18.834-51.968 45.584-98.885 66.066-28.334 12.37-53.497 18.645-74.788 18.645-3.631 0-7.136-.19-10.413-.57a1.265 1.265 0 0 0-1.387 1.011c-.031.158.053.293.078.444 11.495 3.39 22.804 5.248 33.742 5.248 46.894.002 103.809-33.08 153.583-90.479" style="fill:#cb00ff"/></g><g mask="url(#a)"><path fill="#fff" d="M538.596 117.98c-2.114-21.35-7.901-39.317-16.57-54.28C495.312 17.562 441.263 0 383.312 0 211.509 0 .659 113.23.659 257.705c0 18.565 4.092 39.334 11.434 61.085 5.037 14.905 11.602 30.283 19.416 45.721 16.509 32.604 38.617 65.518 63.766 95.027 8.395 9.846 17.121 19.315 26.098 28.264 46.133 46.013 98.703 78.367 144.802 78.367 80.734 0 191.277-97.954 243.583-249.833a540.199 540.199 0 0 0 14.083-48.06c9.963-40.964 15.653-85.071 15.653-131.617-.001-6.494-.303-12.717-.898-18.679z" style="fill:#fff"/></g></svg>