<?xml version="1.0" encoding="UTF-8"?>
<svg xmlns="http://www.w3.org/2000/svg" id="Layer_1" data-name="Layer 1" viewBox="0 0 1784.46 536.01">
    <title>Contacts_TS_Icon_700px_B</title>
    <g transform="translate(0 0)" fill="#000">
        <path d="M507.75,250.64a157.46,157.46,0,0,1-67.95,129.56c180,39.29,190.52,138.93,193.09,198.23.54,12.67-8.79,27.8-21,31-31,8.13-93.57,19.5-261.83,19.5s-230.8-11.36-261.85-19.5c-12.28-3.22-21.6-18.34-21.06-31,2.56-59.3,13.12-158.94,193.1-198.23A157.69,157.69,0,1,1,507.75,250.64Z" transform="translate(-67.08 -92.93)" />
    </g>
    <g transform="translate(594.82 0)" fill="#fff">
        <path d="M507.75,250.64a157.46,157.46,0,0,1-67.95,129.56c180,39.29,190.52,138.93,193.09,198.23.54,12.67-8.79,27.8-21,31-31,8.13-93.57,19.5-261.83,19.5s-230.8-11.36-261.85-19.5c-12.28-3.22-21.6-18.34-21.06-31,2.56-59.3,13.12-158.94,193.1-198.23A157.69,157.69,0,1,1,507.75,250.64Z" transform="translate(-67.08 -92.93)" />
    </g>
    <g transform="translate(1189.64 0)" fill="#990AE3">
        <path d="M507.75,250.64a157.46,157.46,0,0,1-67.95,129.56c180,39.29,190.52,138.93,193.09,198.23.54,12.67-8.79,27.8-21,31-31,8.13-93.57,19.5-261.83,19.5s-230.8-11.36-261.85-19.5c-12.28-3.22-21.6-18.34-21.06-31,2.56-59.3,13.12-158.94,193.1-198.23A157.69,157.69,0,1,1,507.75,250.64Z" transform="translate(-67.08 -92.93)" />
    </g>
</svg>