<?xml version="1.0" encoding="UTF-8"?>
<svg width="10px" height="10px" viewBox="0 0 10 10" version="1.1" xmlns="http://www.w3.org/2000/svg" xmlns:xlink="http://www.w3.org/1999/xlink">
    <!-- Generator: Sketch 43.2 (39069) - http://www.bohemiancoding.com/sketch -->
    <title>ico_delete</title>
    <desc>Created with Sketch.</desc>
    <defs></defs>
    <g id="TS-ATOMS" stroke="none" stroke-width="1" fill="none" fill-rule="evenodd">
        <g id="MEDIA-ICONS" transform="translate(-433.000000, -606.000000)" fill="#000000">
            <g id="ico_delete" transform="translate(433.000000, 606.000000)">
                <g id="Layer_1">
                    <path d="M7.20053476,4.99465241 L9.53208556,2.6631016 C10.1417112,2.05347594 10.1417112,1.06684492 9.53208556,0.457219251 C8.92245989,-0.152406417 7.93582888,-0.152406417 7.32620321,0.457219251 L4.99465241,2.78877005 L2.6631016,0.457219251 C2.05347594,-0.152406417 1.06684492,-0.152406417 0.457219251,0.457219251 C-0.152406417,1.06684492 -0.152406417,2.05347594 0.457219251,2.6631016 L2.78877005,4.99465241 L0.457219251,7.32620321 C-0.152406417,7.93582888 -0.152406417,8.92245989 0.457219251,9.53208556 C1.06684492,10.1417112 2.05347594,10.1417112 2.6631016,9.53208556 L4.99465241,7.20053476 L7.32620321,9.53208556 C7.93582888,10.1417112 8.92245989,10.1417112 9.53208556,9.53208556 C10.1417112,8.92245989 10.1417112,7.93582888 9.53208556,7.32620321 L7.20053476,4.99465241 L7.20053476,4.99465241 Z" id="Shape"></path>
                </g>
            </g>
        </g>
    </g>
</svg>