<?xml version="1.0" encoding="UTF-8"?>
<svg width="51px" height="45px" viewBox="0 0 153 45" version="1.1" xmlns="http://www.w3.org/2000/svg" xmlns:xlink="http://www.w3.org/1999/xlink">
    <!-- Generator: Sketch 47.1 (45422) - http://www.bohemiancoding.com/sketch -->
    <title>Heart</title>
    <desc>Created with Sketch.</desc>
    <defs></defs>
    <g transform="translate(0 0)" id="Content-feedback" stroke="none" stroke-width="1" fill="none" fill-rule="evenodd">
        <g id="feedback-desktop" transform="translate(-454.000000, -395.000000)" fill="#000000">
            <path d="M489.407504,395.779843 C484.271289,395.779843 481.029062,400.343653 479.1477,402.603812 C477.266338,400.343653 474.024111,395.779843 468.885089,395.779843 C460.139072,395.779843 454.2635,403.881904 454.2635,411.449439 C454.2635,422.465436 475.424259,437.228724 477.837341,438.875792 C478.231571,439.145159 478.688934,439.279843 479.1477,439.279843 C479.606466,439.279843 480.063829,439.145159 480.458059,438.875792 C482.87114,437.228724 504.030497,422.465436 504.030497,411.449439 C504.030497,403.881904 498.154924,395.779843 489.407504,395.779843" id="Heart"></path>
        </g>
    </g>
    <g transform="translate(51 0)" id="Content-feedback" stroke="none" stroke-width="1" fill="none" fill-rule="evenodd">
        <g id="feedback-desktop" transform="translate(-454.000000, -395.000000)" fill="#FFFFFF">
            <path d="M489.407504,395.779843 C484.271289,395.779843 481.029062,400.343653 479.1477,402.603812 C477.266338,400.343653 474.024111,395.779843 468.885089,395.779843 C460.139072,395.779843 454.2635,403.881904 454.2635,411.449439 C454.2635,422.465436 475.424259,437.228724 477.837341,438.875792 C478.231571,439.145159 478.688934,439.279843 479.1477,439.279843 C479.606466,439.279843 480.063829,439.145159 480.458059,438.875792 C482.87114,437.228724 504.030497,422.465436 504.030497,411.449439 C504.030497,403.881904 498.154924,395.779843 489.407504,395.779843" id="Heart"></path>
        </g>
    </g>
    <g transform="translate(102 0)" id="Content-feedback" stroke="none" stroke-width="1" fill="none" fill-rule="evenodd">
        <g id="feedback-desktop" transform="translate(-454.000000, -395.000000)" fill="#990AE3">
            <path d="M489.407504,395.779843 C484.271289,395.779843 481.029062,400.343653 479.1477,402.603812 C477.266338,400.343653 474.024111,395.779843 468.885089,395.779843 C460.139072,395.779843 454.2635,403.881904 454.2635,411.449439 C454.2635,422.465436 475.424259,437.228724 477.837341,438.875792 C478.231571,439.145159 478.688934,439.279843 479.1477,439.279843 C479.606466,439.279843 480.063829,439.145159 480.458059,438.875792 C482.87114,437.228724 504.030497,422.465436 504.030497,411.449439 C504.030497,403.881904 498.154924,395.779843 489.407504,395.779843" id="Heart"></path>
        </g>
    </g>
</svg>