<?xml version="1.0" encoding="UTF-8"?>
<svg width="17px" height="16px" viewBox="0 0 17 16" version="1.1" xmlns="http://www.w3.org/2000/svg" xmlns:xlink="http://www.w3.org/1999/xlink">
    <!-- Generator: Sketch 44.1 (41455) - http://www.bohemiancoding.com/sketch -->
    <title>ico_enduser purple</title>
    <desc>Created with Sketch.</desc>
    <defs></defs>
    <g id="ikoner" stroke="none" stroke-width="1" fill="none" fill-rule="evenodd">
        <g id="MEDIA-ICONS" transform="translate(-787.000000, -901.000000)" fill="#990AE3">
            <g id="ico_enduser-purple" transform="translate(787.000000, 901.379375)">
                <g id="Layer_1">
                    <path d="M8.50144666,2.0093226 C10.425313,2.0093226 11.9848316,3.56661651 11.9848316,5.48773839 C11.9848316,6.67017926 11.3913865,7.71756278 10.4860376,8.34323662 C14.4607399,9.20870616 14.9354961,10.9231076 14.9907003,12.232337 C15.0017411,12.5107205 14.7974856,12.8442295 14.526985,12.9158926 C13.8424529,13.0950503 12.2194495,13.3458711 8.50144666,13.3458711 C4.78620406,13.3458711 3.16320061,13.0950503 2.47866854,12.9158926 C2.20816796,12.8442295 2.00115222,12.5107205 2.01495327,12.232337 C2.07291768,10.9231076 2.54491358,9.20870616 6.51961591,8.34323662 C5.61426705,7.71480651 5.0180617,6.67017926 5.0180617,5.48773839 C5.0180617,3.56661651 6.57758032,2.0093226 8.50144666,2.0093226 L8.50144666,2.0093226 Z M8.50144666,0 C5.47073613,0 3.00586864,2.46135127 3.00586864,5.48773839 C3.00586864,6.11341223 3.11351683,6.72530471 3.31501215,7.30136565 C1.18689028,8.34048035 0.0966073484,9.94187463 0.00276020995,12.1468926 C-0.0496837792,13.3899714 0.794940467,14.5558747 1.97078991,14.8618209 C3.22944565,15.1898173 5.42657277,15.3579499 8.50144666,15.3579499 C11.5763205,15.3579499 13.7762079,15.1925736 15.0348636,14.8618209 C16.2079528,14.5558747 17.0525771,13.3899714 17.0001331,12.1496488 C16.906286,9.9446309 15.816003,8.34323662 13.685121,7.30412192 C13.8866163,6.72806098 13.9942645,6.1161685 13.9942645,5.49049466 C13.9970247,2.46135127 11.5321572,0 8.50144666,0 L8.50144666,0 Z" id="Shape"></path>
                </g>
            </g>
        </g>
    </g>
</svg>