<svg id="Layer_1" data-name="Layer 1" xmlns="http://www.w3.org/2000/svg" viewBox="0 0 495.83 670.83"><title>DefaultDoc_TS_Icon_700px_B</title><path d="M597.92,641.67a43.87,43.87,0,0,1-43.75,43.75H145.83a43.87,43.87,0,0,1-43.75-43.75V58.33a43.88,43.88,0,0,1,43.75-43.75H419.47v91.69a87.5,87.5,0,0,0,87.47,87.49h91V641.67Z" transform="translate(-102.08 -14.58)"/><path d="M476,137.2a43.46,43.46,0,0,0,30.9,12.8h91L463.22,14.58v91.69A43.61,43.61,0,0,0,476,137.2Z" transform="translate(-102.08 -14.58)"/></svg>