<?xml version="1.0" encoding="UTF-8"?>
<svg width="17px" height="17px" viewBox="0 0 17 17" version="1.1" xmlns="http://www.w3.org/2000/svg" xmlns:xlink="http://www.w3.org/1999/xlink">
    <!-- Generator: Sketch 43.2 (39069) - http://www.bohemiancoding.com/sketch -->
    <title>ico_search</title>
    <desc>Created with Sketch.</desc>
    <defs></defs>
    <g id="TS-ATOMS" stroke="none" stroke-width="1" fill="none" fill-rule="evenodd">
        <g id="MEDIA-ICONS" transform="translate(-430.000000, -541.000000)" fill="#000000">
            <g id="ico_search" transform="translate(430.000000, 541.000000)">
                <g id="Layer_1">
                    <path d="M16.5364978,16.5100648 C15.9338249,17.1127376 14.9584464,17.1127376 14.3557736,16.5100648 L11.9873749,14.1416661 C10.7027301,14.9928094 9.21983763,15.418381 7.73430187,15.418381 C5.76239852,15.418381 3.78785187,14.6650399 2.28116969,13.161001 C-0.72690807,10.15028 -0.72690807,5.26810103 2.28381299,2.25737997 C3.79049517,0.753341091 5.76239852,0 7.73694517,0 C9.70884852,0 11.6833952,0.753341091 13.1900773,2.25737997 C15.8254495,4.89539544 16.1505757,8.96872394 14.1680991,11.9609419 L16.5364978,14.3293405 C17.1391706,14.9320134 17.1391706,15.9073919 16.5364978,16.5100648 L16.5364978,16.5100648 Z M7.73694517,1.92696721 C6.19325676,1.92696721 4.73944062,2.52964008 3.64775686,3.62132384 C1.39566349,5.87606051 1.39566349,9.54496379 3.64775686,11.7970572 C4.73944062,12.8887409 6.19325676,13.4914138 7.73694517,13.4914138 C9.28063358,13.4914138 10.7344497,12.8887409 11.8261335,11.7970572 C14.0808701,9.54232049 14.0808701,5.87341721 11.8261335,3.62132384 C10.7318064,2.52964008 9.28063358,1.92696721 7.73694517,1.92696721 L7.73694517,1.92696721 Z" id="Shape"></path>
                </g>
            </g>
        </g>
    </g>
</svg>