<?xml version="1.0" encoding="UTF-8"?>
<svg width="21px" height="21px" viewBox="0 0 63 21" version="1.1" xmlns="http://www.w3.org/2000/svg" xmlns:xlink="http://www.w3.org/1999/xlink">
    <!-- Generator: Sketch 48.2 (47327) - http://www.bohemiancoding.com/sketch -->
    <title>icon/DeleteClose</title>
    <desc>Created with Sketch.</desc>
    <defs>
        <path d="M25.7731638,22.5019659 L32.3194914,29.0482935 C33.2264586,29.9552607 33.2309485,31.4144901 32.3239813,32.3214573 C31.4170141,33.2284245 29.9488048,33.2239345 29.0463276,32.3214573 L22.5,25.7751297 L15.9536724,32.3214573 C15.0467052,33.2284245 13.5784959,33.2239345 12.6760187,32.3214573 C11.7735414,31.41898 11.7735414,29.9552607 12.6805086,29.0482935 L19.2268362,22.5019659 L12.6805086,15.9556383 C11.7735414,15.0486711 11.7690515,13.5894417 12.6760187,12.6824745 C13.5829859,11.7755073 15.0467052,11.7755073 15.9536724,12.6824745 L22.5,19.2288021 L29.0463276,12.6824745 C29.9532948,11.7755073 31.4125242,11.7710174 32.3194914,12.6779846 C33.2264586,13.5849518 33.2219686,15.0531611 32.3194914,15.9556383 L25.7731638,22.5019659 Z" id="path-1"></path>
    </defs>
    <g id="icons-symboler" stroke="none" stroke-width="1" fill="none" fill-rule="evenodd" transform="translate(-102.000000, -57.000000)">
        <g id="icon/DeleteClose" transform="translate(90.000000, 45.000000)">
            <mask id="mask-2" fill="white">
                <use xlink:href="#path-1"></use>
            </mask>
            <use fill="#000000" fill-rule="evenodd" xlink:href="#path-1"></use>
        </g>
    </g>
    <g id="icons-symboler-white" stroke="none" stroke-width="1" fill="none" fill-rule="evenodd" transform="translate(-102.000000, -57.000000)">
        <g id="icon/DeleteClose" transform="translate(111.000000, 45.000000)">
            <mask id="mask-2" fill="white">
                <use xlink:href="#path-1"></use>
            </mask>
            <use fill="#ffffff" fill-rule="evenodd" xlink:href="#path-1"></use>
        </g>
    </g>
    <g id="icons-symboler-purple" stroke="none" stroke-width="1" fill="none" fill-rule="evenodd" transform="translate(-102.000000, -57.000000)">
        <g id="icon/DeleteClose" transform="translate(132.000000, 45.000000)">
            <mask id="mask-2" fill="white">
                <use xlink:href="#path-1"></use>
            </mask>
            <use fill="#990AE3" fill-rule="evenodd" xlink:href="#path-1"></use>
        </g>
    </g>
</svg>