<?xml version="1.0" encoding="UTF-8"?>
<svg width="93px" height="26px" viewBox="0 0 93 26" version="1.1" xmlns="http://www.w3.org/2000/svg" xmlns:xlink="http://www.w3.org/1999/xlink">
    <!-- Generator: Sketch 48.2 (47327) - http://www.bohemiancoding.com/sketch -->
    <title>icon/menuLoggedIn</title>
    <desc>Created with Sketch.</desc>
    <defs>
        <path d="M12.8326335,28.5555413 L17.331874,28.5555413 C18.4953408,28.5555413 19.4341779,29.4886187 19.4341779,30.6520855 C19.4341779,31.8155523 18.4895811,32.7543894 17.331874,32.7543894 L12.8326335,32.7543894 C11.6691667,32.7543894 10.7303296,31.8097926 10.7303296,30.6520855 C10.7303296,29.4943784 11.6691667,28.5555413 12.8326335,28.5555413 Z M12.8326335,20.1520855 L22.1833445,20.1520855 C23.3468113,20.1520855 24.2856484,21.0909226 24.2856484,22.2543894 C24.2856484,23.4178562 23.3410516,24.3566933 22.1833445,24.3566933 L12.8326335,24.3566933 C11.6691667,24.3566933 10.7303296,23.4120965 10.7303296,22.2543894 C10.7303296,21.0966823 11.6691667,20.1520855 12.8326335,20.1520855 Z M31.8862856,15.9532374 L12.8326335,15.9532374 C11.6691667,15.9532374 10.7303296,15.0201601 10.7303296,13.8566933 C10.7303296,12.6932265 11.6691667,11.7543894 12.8326335,11.7543894 L31.8862856,11.7543894 C33.0497524,11.7543894 33.9885895,12.6874667 33.9885895,13.8509335 C33.9885895,15.0144004 33.0439926,15.9532374 31.8862856,15.9532374 Z M36.564431,25.2901714 C36.564431,26.8839214 35.7587238,28.2852502 34.5311803,29.1302305 C39.918029,30.2973073 40.2301878,33.2505553 40.3103367,35.0116281 C40.3272101,35.3881045 40.0487982,35.8356931 39.6818007,35.9319037 C38.753761,36.1745218 36.8850265,36.5091675 31.8483019,36.5091675 C26.8115774,36.5091675 24.9428429,36.1703388 24.0148032,35.9319037 C23.6478057,35.8356931 23.3693937,35.3881045 23.3862672,35.0116281 C23.4621977,33.2505553 23.7785749,30.2973073 29.1612052,29.1302305 C27.9336617,28.2852502 27.1321729,26.8797384 27.1321729,25.2901714 C27.1321729,22.7050336 29.2455724,20.6134982 31.8483019,20.6134982 C34.4510315,20.6134982 36.564431,22.7050336 36.564431,25.2901714 Z" id="path-1"></path>
    </defs>
    <g id="icons-symboler" stroke="none" stroke-width="1" fill="none" fill-rule="evenodd" transform="translate(-55.000000, -101.000000)">
        <g id="icon/menuLoggedIn" transform="translate(45.000000, 90.000000)">
            <mask id="mask-2" fill="white">
                <use xlink:href="#path-1"></use>
            </mask>
            <use fill="#000000" fill-rule="evenodd" xlink:href="#path-1"></use>
            <g id="Colour/Black" mask="url(#mask-2)" fill="#000000" fill-rule="evenodd">
                <rect id="Rectangle-91-Copy-50" x="0" y="0.166666667" width="45" height="45"></rect>
            </g>
        </g>
    </g>
    <g id="icons-symboler-white" stroke="none" stroke-width="1" fill="none" fill-rule="evenodd" transform="translate(-24.000000, -101.000000)">
        <g id="icon/menuLoggedIn" transform="translate(45.000000, 90.000000)">
            <mask id="mask-2" fill="white">
                <use xlink:href="#path-1"></use>
            </mask>
            <use fill="#fff" fill-rule="evenodd" xlink:href="#path-1"></use>
            <g id="Colour/Black" mask="url(#mask-2)" fill="#fff" fill-rule="evenodd">
                <rect id="Rectangle-91-Copy-50" x="0" y="0.166666667" width="45" height="45"></rect>
            </g>
        </g>
    </g>
    <g id="icons-symboler-purple" stroke="none" stroke-width="1" fill="none" fill-rule="evenodd" transform="translate(7.000000, -101.000000)">
        <g id="icon/menuLoggedIn" transform="translate(45.000000, 90.000000)">
            <mask id="mask-2" fill="white">
                <use xlink:href="#path-1"></use>
            </mask>
            <use fill="#990AE3" fill-rule="evenodd" xlink:href="#path-1"></use>
            <g id="Colour/Black" mask="url(#mask-2)" fill="#990AE3" fill-rule="evenodd">
                <rect id="Rectangle-91-Copy-50" x="0" y="0.166666667" width="45" height="45"></rect>
            </g>
        </g>
    </g>
</svg>