<?xml version="1.0" encoding="UTF-8"?>
<svg width="17px" height="18px" viewBox="0 0 17 18" version="1.1" xmlns="http://www.w3.org/2000/svg" xmlns:xlink="http://www.w3.org/1999/xlink">
    <!-- Generator: Sketch 43.2 (39069) - http://www.bohemiancoding.com/sketch -->
    <title>ico_download</title>
    <desc>Created with Sketch.</desc>
    <defs></defs>
    <g id="TS-ATOMS" stroke="none" stroke-width="1" fill="none" fill-rule="evenodd">
        <g id="MEDIA-ICONS" transform="translate(-746.000000, -481.000000)" fill="#FFFFFF">
            <g id="ico_download" transform="translate(746.000000, 481.000000)">
                <g id="Layer_1">
                    <g id="Group">
                        <path d="M8.09806833,10.2687678 C8.31715991,10.5761662 8.67214372,10.5761662 8.88846199,10.2687678 L11.8975045,5.25623551 C12.0833163,4.93222099 11.8947312,4.66913228 11.4815078,4.66913228 L9.50136373,4.66913228 L9.50136373,1.01081452 C9.50136373,0.454174196 9.04931403,0 8.48910519,0 C7.93166967,0 7.47684665,0.451404841 7.47684665,1.01081452 L7.47684665,4.67190163 L5.49947586,4.67190163 C5.08625251,4.67190163 4.89766735,4.93499034 5.0834792,5.25900486 L8.09806833,10.2687678 L8.09806833,10.2687678 Z" id="Shape"></path>
                        <path d="M14.7623348,8.48807262 L12.9790958,8.48807262 C12.4216603,8.48807262 11.9668373,8.93947746 11.9668373,9.49888714 C11.9668373,10.0555275 12.418887,10.5097017 12.9790958,10.5097017 L13.7500763,10.5097017 C14.415671,10.5097017 14.9620132,11.0552646 14.9620132,11.7199097 L14.9620132,13.9437017 C14.9620132,14.6083468 14.415671,15.1539097 13.7500763,15.1539097 L3.23368071,15.1539097 C2.56808605,15.1539097 2.02174377,14.6083468 2.02174377,13.9437017 L2.02174377,11.7199097 C2.02174377,11.0524952 2.56808605,10.5097017 3.23368071,10.5097017 L4.00466119,10.5097017 C4.56209671,10.5097017 5.01691973,10.0582968 5.01691973,9.49888714 C5.01691973,8.93947746 4.56487002,8.48807262 4.00466119,8.48807262 L2.22419548,8.48807262 C0.998391986,8.48807262 0,9.48504036 0,10.7090952 L0,14.9517468 C0,16.1758017 0.998391986,17.1700001 2.22419548,17.1700001 L14.7623348,17.1700001 C15.9881383,17.1700001 16.9865303,16.1730323 16.9865303,14.9489775 L16.9865303,10.7090952 C16.9865303,9.48504036 15.9881383,8.48807262 14.7623348,8.48807262 L14.7623348,8.48807262 Z" id="Shape"></path>
                    </g>
                </g>
            </g>
        </g>
    </g>
</svg>