<?xml version="1.0" encoding="UTF-8"?>
<svg width="18px" height="15px" viewBox="0 0 18 15" version="1.1" xmlns="http://www.w3.org/2000/svg" xmlns:xlink="http://www.w3.org/1999/xlink">
    <!-- Generator: Sketch 43.2 (39069) - http://www.bohemiancoding.com/sketch -->
    <title>ico_premisesdatacenter</title>
    <desc>Created with Sketch.</desc>
    <defs></defs>
    <g id="TS-ATOMS" stroke="none" stroke-width="1" fill="none" fill-rule="evenodd">
        <g id="MEDIA-ICONS" transform="translate(-970.000000, -542.000000)" fill="#000000">
            <g id="ico_premisesdatacenter" transform="translate(970.000000, 542.000000)">
                <g id="Layer_1">
                    <path d="M0,14.9835616 L0,1.8 C0,0.805479452 0.805479452,0 1.8,0 L16.1835616,0 C17.1780822,0 17.9835616,0.805479452 17.9835616,1.8 L17.9835616,14.9835616 L14.5356164,14.9835616 L14.5356164,12.2876712 C14.5356164,12.0493151 14.4410959,11.8191781 14.2726027,11.6506849 C14.1041096,11.4821918 13.8739726,11.3876712 13.6356164,11.3876712 L11.8356164,11.3876712 C11.5972603,11.3876712 11.3671233,11.4821918 11.1986301,11.6506849 C11.030137,11.8191781 10.9356164,12.0493151 10.9356164,12.2876712 L10.9356164,14.9835616 L0,14.9835616 L0,14.9835616 Z M7.22876712,6.85479452 C7.06027397,6.68630137 6.83013699,6.59178082 6.59178082,6.59178082 L6.59178082,6.59178082 L3.89589041,6.59178082 C3.65753425,6.59178082 3.42739726,6.68630137 3.25890411,6.85479452 C3.09041096,7.02328767 2.99589041,7.25342466 2.99589041,7.49178082 L2.99589041,8.69178082 C2.99589041,8.93013699 3.09041096,9.16027397 3.25890411,9.32876712 C3.42739726,9.49726027 3.65753425,9.59178082 3.89589041,9.59178082 L6.59178082,9.59178082 C6.83013699,9.59178082 7.06027397,9.49726027 7.22876712,9.32876712 C7.39726027,9.16027397 7.49178082,8.93013699 7.49178082,8.69178082 L7.49178082,7.49178082 C7.49178082,7.25753425 7.39726027,7.02328767 7.22876712,6.85479452 L7.22876712,6.85479452 Z M14.7205479,6.85479452 C14.5520548,6.68630137 14.3219178,6.59178082 14.0835616,6.59178082 L14.0835616,6.59178082 L11.3876712,6.59178082 C11.1493151,6.59178082 10.9191781,6.68630137 10.7506849,6.85479452 C10.5821918,7.02328767 10.4876712,7.25342466 10.4876712,7.49178082 L10.4876712,8.69178082 C10.4876712,8.93013699 10.5821918,9.16027397 10.7506849,9.32876712 C10.9191781,9.49726027 11.1493151,9.59178082 11.3876712,9.59178082 L14.0835616,9.59178082 C14.3219178,9.59178082 14.5520548,9.49726027 14.7205479,9.32876712 C14.8890411,9.16027397 14.9835616,8.93013699 14.9835616,8.69178082 L14.9835616,7.49178082 C14.9835616,7.25753425 14.8849315,7.02328767 14.7205479,6.85479452 L14.7205479,6.85479452 Z M7.22876712,2.0630137 C7.06027397,1.89452055 6.83013699,1.8 6.59178082,1.8 L6.59178082,1.8 L3.89589041,1.8 C3.65753425,1.8 3.42739726,1.89452055 3.25890411,2.0630137 C3.09041096,2.23150685 2.99589041,2.46164384 2.99589041,2.7 L2.99589041,3.9 C2.99589041,4.13835616 3.09041096,4.36849315 3.25890411,4.5369863 C3.42739726,4.70547945 3.65753425,4.8 3.89589041,4.8 L6.59178082,4.8 C6.83013699,4.8 7.06027397,4.70547945 7.22876712,4.5369863 C7.39726027,4.36849315 7.49178082,4.13835616 7.49178082,3.9 L7.49178082,2.69589041 C7.49178082,2.46164384 7.39726027,2.22739726 7.22876712,2.0630137 L7.22876712,2.0630137 Z M14.7205479,2.0630137 C14.5520548,1.89452055 14.3219178,1.8 14.0835616,1.8 L14.0835616,1.8 L11.3876712,1.8 C11.1493151,1.8 10.9191781,1.89452055 10.7506849,2.0630137 C10.5821918,2.23150685 10.4876712,2.46164384 10.4876712,2.7 L10.4876712,3.9 C10.4876712,4.13835616 10.5821918,4.36849315 10.7506849,4.5369863 C10.9191781,4.70547945 11.1493151,4.8 11.3876712,4.8 L14.0835616,4.8 C14.3219178,4.8 14.5520548,4.70547945 14.7205479,4.5369863 C14.8890411,4.36849315 14.9835616,4.13835616 14.9835616,3.9 L14.9835616,2.69589041 C14.9835616,2.46164384 14.8849315,2.22739726 14.7205479,2.0630137 L14.7205479,2.0630137 Z" id="Shape"></path>
                </g>
            </g>
        </g>
    </g>
</svg>