<?xml version="1.0" encoding="UTF-8"?>
<svg width="120px" height="47px" viewBox="0 0 120 47" version="1.1" xmlns="http://www.w3.org/2000/svg" xmlns:xlink="http://www.w3.org/1999/xlink">
    <!-- Generator: Sketch 44.1 (41455) - http://www.bohemiancoding.com/sketch -->
    <title>logo_desktop</title>
    <desc>Created with Sketch.</desc>
    <defs></defs>
    <g id="ikoner" stroke="none" stroke-width="1" fill="none" fill-rule="evenodd">
        <g id="MEDIA-ICONS" transform="translate(-155.000000, -963.000000)">
            <g id="logo_desktop" transform="translate(155.000000, 963.781250)">
                <g id="Slice-1">
                    <g id="Group">
                        <path d="M54.2157098,17.1984278 C53.6144004,17.1984278 53.0130909,16.7530619 52.4141396,15.867043 C52.0203408,15.2484793 51.8246205,14.7830837 51.8246205,14.4626088 C51.8246205,13.9123817 52.1877642,13.4069267 52.9164098,12.9391747 C53.6222387,12.4772525 54.4484601,12.2330416 55.2921716,12.2369576 L69.4618517,12.2369576 C70.3626368,12.2369576 70.8130294,12.6493335 70.8130294,13.468194 C70.8204373,14.3811817 70.5548061,15.2755752 70.0501917,16.0367062 C69.5408473,16.8143291 68.9890574,17.2007842 68.387748,17.2007842 L63.7777089,17.2007842 L63.7777089,32.6707682 C63.7777089,33.6062722 63.5242157,34.4616574 63.0172294,35.2357457 C62.510243,36.0133687 61.953737,36.4021802 61.3547856,36.4021802 C60.7534762,36.4021802 60.1521667,35.9568143 59.5508573,35.0660826 C59.1594166,34.4510535 58.9636963,33.9821233 58.9636963,33.6640048 L58.9636963,17.1984278 L54.2157098,17.1984278 Z M76.2165611,22.3330957 C75.1082653,22.3330957 74.1591396,22.6465013 73.3750792,23.2733126 C72.5898398,23.901302 72.1052552,24.7401922 71.9201462,25.788805 L80.0944175,25.788805 C80.061843,24.8396882 79.6345091,23.9471827 78.9153793,23.3263323 C78.1761224,22.6629964 77.2765164,22.3330957 76.215382,22.3330957 L76.2165611,22.3330957 Z M71.9213252,29.2456925 C72.1736394,30.3178696 72.7277873,31.1779678 73.583769,31.8306998 C74.4373926,32.4787189 75.4643348,32.8039067 76.6657746,32.8039067 C77.6832845,32.8039067 78.8941567,32.4622239 80.3031072,31.7788582 C80.9515782,31.4583833 81.5493505,31.2993241 82.1034984,31.2993241 C82.8427553,31.2993241 83.2117942,31.6292247 83.2117942,32.2913825 C83.2117942,32.8863818 83.079742,33.4542822 82.8144584,34.002153 C82.5491748,34.5488455 82.2096118,34.9470827 81.7934114,35.1968646 C80.9780778,35.689974 80.096788,36.0648563 79.1759468,36.3102793 C78.2454887,36.5679894 77.2846695,36.6999456 76.3191374,36.7026254 C74.6566937,36.7026254 73.1357345,36.2690417 71.7656922,35.4018743 C70.4281411,34.5745725 69.3242484,33.4195374 68.5587085,32.0463134 C67.8051556,30.7098013 67.4111211,29.2009292 67.4150415,27.6668823 C67.4150415,25.9325474 67.832421,24.3643411 68.6648219,22.9610852 C69.4960438,21.5590074 70.5807589,20.4750481 71.9213252,19.7092073 C73.2601775,18.9456783 74.7776662,18.5505117 76.3191374,18.5639808 C77.8672145,18.5639808 79.2584794,18.9221587 80.4929323,19.6408708 C81.7309224,20.3595829 82.6824061,21.3139384 83.3532788,22.5004025 C84.0238582,23.6901293 84.3702431,25.0348888 84.3578193,26.4002994 C84.3672102,27.0983997 84.1681203,27.7834482 83.7859858,28.3679212 C83.4051565,28.9499602 82.9842399,29.2398014 82.5220569,29.2398014 L71.9213252,29.2398014 L71.9213252,29.2456925 Z M90.7670705,36.3974673 C89.7271589,36.3974673 88.8263738,35.993339 88.0647151,35.1839042 C87.3201057,34.4207865 86.9088067,33.3936791 86.9210482,32.3279072 L86.9210482,14.1527378 C86.9210482,13.6519958 87.2747596,13.1724616 87.9786454,12.7153136 C88.6502544,12.2696257 89.4385473,12.0319091 90.2447566,12.031948 C91.0995593,12.031948 91.5275501,12.4207594 91.5275501,13.1948477 L91.5275501,30.8516018 C91.5275501,31.1485123 91.5912182,31.3935814 91.7185543,31.5879871 C91.8447113,31.7823929 92.0722657,31.9485214 92.3941431,32.0828381 C92.763182,32.245432 92.948291,32.5659069 92.948291,33.0430846 C92.948291,33.8866877 92.7171996,34.6572414 92.2561956,35.3523892 C91.7928337,36.0498934 91.2964586,36.3974673 90.7658915,36.3974673 L90.7670705,36.3974673 Z M97.7646617,36.3974673 C97.2340946,36.3974673 96.6563659,35.9615272 96.0314757,35.0978944 C95.6624368,34.5017168 95.4773278,34.0575291 95.4773278,33.7606186 L95.4773278,20.9958199 C95.4773278,20.496256 95.8310392,20.0179001 96.5337459,19.5583956 C97.2067111,19.1130659 97.9962538,18.8761632 98.8033943,18.8773864 C99.660555,18.8773864 100.088546,19.2638415 100.088546,20.0402862 L100.088546,32.800372 C100.088546,33.4165793 99.9659259,34.0104005 99.7230441,34.5818355 C99.4813412,35.1509141 99.1806865,35.5951018 98.823438,35.9155767 C98.4650104,36.2336952 98.113657,36.3951109 97.7658408,36.3951109 L97.7646617,36.3974673 Z M97.7658408,16.6835471 C97.1645313,16.6835471 96.5396411,16.2169733 95.8947073,15.2814693 C95.4549261,14.621668 95.236804,14.1067874 95.236804,13.7415402 C95.236804,13.1712834 95.6294237,12.6340166 96.4134841,12.1320964 C97.1657722,11.6409347 98.0450824,11.3797003 98.9436999,11.3803942 C99.9105111,11.3803942 100.396275,11.8127997 100.396275,12.6799671 C100.397712,13.3559989 100.26215,14.0253215 99.9977599,14.6475888 C99.7324764,15.2755783 99.3964505,15.7716075 98.9932195,16.1356764 C98.5876303,16.5009235 98.1796832,16.6835471 97.7623037,16.6835471 L97.7658408,16.6835471 Z M111.552333,32.1535311 C112.585215,32.1555348 113.596619,31.8588722 114.464558,31.2993241 L114.464558,23.5289856 C113.608576,23.0518078 112.648839,22.8102734 111.587705,22.8102734 C110.271898,22.8102734 109.168318,23.2509265 108.279324,24.129876 C107.390329,25.0076474 106.947011,26.1092799 106.947011,27.431239 C106.947011,28.7555544 107.390329,29.873682 108.279324,30.7844434 C109.168318,31.6987395 110.260108,32.1547093 111.552333,32.1547093 L111.552333,32.1535311 Z M111.242246,36.401002 C109.579803,36.401002 108.070634,35.9886262 106.722993,35.1685874 C105.405431,34.3835146 104.317091,33.266682 103.566708,31.92967 C102.817779,30.5994138 102.430015,29.0965563 102.441906,27.5702685 C102.441906,25.8795277 102.869897,24.341955 103.72352,22.949303 C104.578323,21.556651 105.687798,20.4785828 107.050766,19.7139202 C108.391715,18.9554164 109.907727,18.5602281 111.448578,18.5675155 C112.790324,18.5675155 114.095519,18.9327626 115.366522,19.6632569 C116.174163,19.1365941 116.981804,18.8738518 117.790624,18.8738518 C118.645427,18.8738518 119.072239,19.2626633 119.072239,20.0379298 L119.072239,32.8015502 C119.073814,33.4128852 118.951069,34.0181655 118.711453,34.5806573 C118.468571,35.1520924 118.169095,35.5986365 117.810668,35.9167549 C117.451061,36.2348734 117.099708,36.3962891 116.753071,36.3962891 C116.222503,36.3962891 115.644775,35.9638836 115.019885,35.0967162 C114.821999,34.7968866 114.659768,34.4750244 114.536479,34.1376479 C114.366847,34.611665 114.114128,35.0517208 113.790148,35.4372208 C113.478882,35.8024679 113.14993,36.0416459 112.803293,36.1559329 C112.319887,36.3138139 111.798752,36.3951109 111.244605,36.3951109 L111.242246,36.401002 Z M30.5960392,34.2083409 C36.6162078,30.7585227 40.922055,26.4321113 42.9087342,21.8182151 C43.7654051,18.3286427 44.1969174,14.7483993 44.1938858,11.1553548 C44.1938858,10.6275138 44.170305,10.1232371 44.1207854,9.64016825 C43.765895,15.2202021 36.467649,22.2329473 26.8113268,26.8162099 C15.1671464,32.3420458 6.42929486,33.8301333 2.5302158,29.6144743 C3.88375156,32.256036 5.69711219,34.9223401 7.75924986,37.3129416 C12.557935,41.5215313 20.4622065,40.0134141 30.5972182,34.2071627 L30.5960392,34.2083409 Z" id="Shape" fill="#9909E3"></path>
                        <path d="M25.455433,22.8644714 C36.4405311,17.629655 44.0913095,10.1833261 42.7578174,5.24659854 C40.5648065,1.50929547 36.1339812,0.0860098121 31.3800995,0.0860098121 C17.290594,0.0860098121 0,9.2607825 0,20.964008 C0,22.4674124 0.336025864,24.1499057 0.937335304,25.9125178 C4.15139321,30.1234639 13.9751388,28.3337529 25.4542539,22.8656496 M24.5239929,39.452583 C16.7989351,42.5465798 12.3763631,41.5615907 9.93221711,39.6293155 L9.89684597,39.6022165 C13.6839164,43.3289156 17.9944798,45.9504475 21.774476,45.9504475 C28.395954,45.9504475 37.4615781,38.0151587 41.7509188,25.7122209 C39.3338907,30.1540975 34.1461229,35.6115968 24.528709,39.452583" id="Shape" fill="#9909E3"></path>
                        <path d="M24.5263509,39.452583 C34.147302,35.6115968 39.3327116,30.156454 41.7520978,25.7122209 C42.188342,24.4585985 42.5750665,23.1590256 42.9075552,21.8193933 C40.9196969,26.4297549 36.6138497,30.7573444 30.5936811,34.2071627 C20.4598485,40.0134141 12.5543979,41.5215313 7.75924986,37.3105852 C8.44285968,38.1012352 9.15752333,38.8645318 9.90156212,39.5986818 L9.93693326,39.626959 C12.3810793,41.5568778 16.8036513,42.5430451 24.528709,39.4502265 M26.8113268,26.8162099 C36.467649,22.2329473 43.765895,15.2202021 44.1160693,9.6437029 C43.9427507,7.91408093 43.4675983,6.45898342 42.7578174,5.24659854 C44.0901304,10.1833261 36.4405311,17.629655 25.4542539,22.8644714 C13.9727807,28.3313964 4.14903514,30.1222857 0.934977228,25.9113395 C1.34764057,27.1178333 1.88646099,28.3643865 2.52667869,29.6144743 C6.42693678,33.8301333 15.1659673,32.343224 26.8101478,26.8162099" id="Shape" fill="#FFFFFF"></path>
                    </g>
                </g>
            </g>
        </g>
    </g>
</svg>