<svg xmlns="http://www.w3.org/2000/svg" xmlns:xlink="http://www.w3.org/1999/xlink" viewBox="0 0 48.04 39.04"><defs><style>.cls-1{fill:none;}.cls-2{clip-path:url(#clip-path);}</style><clipPath id="clip-path" transform="translate(0)"><rect class="cls-1" width="48.04" height="39.04"/></clipPath></defs><title>Asset 15</title><g id="Layer_2" data-name="Layer 2"><g id="Layer_1-2" data-name="Layer 1"><g class="cls-2"><path d="M48,4.62a19.69,19.69,0,0,1-5.66,1.55A9.89,9.89,0,0,0,46.71.72a19.72,19.72,0,0,1-6.26,2.39,9.86,9.86,0,0,0-17,6.74,9.94,9.94,0,0,0,.25,2.25A28,28,0,0,1,3.34,1.8,9.87,9.87,0,0,0,6.39,15a9.82,9.82,0,0,1-4.46-1.23s0,.08,0,.12a9.86,9.86,0,0,0,7.91,9.66,9.87,9.87,0,0,1-4.45.17,9.87,9.87,0,0,0,9.21,6.85A19.78,19.78,0,0,1,2.35,34.75,20.05,20.05,0,0,1,0,34.61,27.9,27.9,0,0,0,15.11,39c18.13,0,28-15,28-28,0-.43,0-.85,0-1.27A20,20,0,0,0,48,4.62" transform="translate(0)"/></g></g></g></svg>