<svg id="Layer_1" data-name="Layer 1" xmlns="http://www.w3.org/2000/svg" viewBox="0 0 652.25 527.37"><title>TC-Volume-icon-black-700px</title><path d="M356.29,95.71,213.47,236.63a57.55,57.55,0,0,0-7.64,7.78,108.53,108.53,0,0,0-22.3-2.41h-52C72,242,24,290.37,24,349.91v.15C24,409.59,72,458,131.55,458h52a108.19,108.19,0,0,0,23.16-2.6,35.3,35.3,0,0,0,5.74,7.34L355.3,603.39C377.8,625.56,416,609.6,416,578V122C416,91.06,379.13,74.85,356.29,95.71Z" transform="translate(-24 -86.33)"/><path d="M465.68,429.78A26.49,26.49,0,0,1,447,384.56a48.83,48.83,0,0,0,0-69.11A26.49,26.49,0,0,1,484.41,278a101.81,101.81,0,0,1,0,144A26.41,26.41,0,0,1,465.68,429.78Z" transform="translate(-24 -86.33)"/><path d="M517.64,501.13a26.49,26.49,0,0,1-18.73-45.22c58.39-58.39,58.39-153.41,0-211.8a26.49,26.49,0,1,1,37.46-37.46,202.64,202.64,0,0,1,0,286.72A26.41,26.41,0,0,1,517.64,501.13Z" transform="translate(-24 -86.33)"/><path d="M576.05,554.3a26.49,26.49,0,0,1-18.73-45.22,224.82,224.82,0,0,0,0-318.14,26.49,26.49,0,1,1,37.46-37.46,277.8,277.8,0,0,1,0,393.07A26.41,26.41,0,0,1,576.05,554.3Z" transform="translate(-24 -86.33)"/></svg>