<?xml version="1.0" encoding="UTF-8"?>
<svg width="443px" height="418px" viewBox="0 0 443 418" version="1.1" xmlns="http://www.w3.org/2000/svg" xmlns:xlink="http://www.w3.org/1999/xlink">
    <!-- Generator: Sketch 63.1 (92452) - https://sketch.com -->
    <title>Untitled</title>
    <desc>Created with Sketch.</desc>
    <g id="Page-1" stroke="none" stroke-width="1" fill="none" fill-rule="evenodd">
        <g id="ico_databoost_with_sparkels">
            <g id="Group">
                <path d="M230.854477,371.07233 C226.905702,366.033078 224.154612,359.754126 232.687056,354.649593 C239.682157,350.465603 255.750283,346.477129 252.780842,361.400686 C251.414011,368.269815 246.441479,376.162356 240.70728,376.896945 C237.486342,377.309409 234.029284,375.123777 230.854477,371.07233" id="Path" fill="#990AE3" fill-rule="nonzero"></path>
                <path d="M123.973763,35.5549878 C118.896766,27.636164 115.359651,17.7692391 126.329936,9.74782907 C135.323637,3.17298778 155.982657,-3.0946131 152.164804,20.3566904 C150.40745,31.1510358 144.014194,43.5536009 136.641653,44.7079545 C132.500447,45.3561126 128.055658,41.9215481 123.973763,35.5549878" id="Path" fill="#990AE3" fill-rule="nonzero"></path>
                <ellipse id="Oval" fill="#00CDCD" fill-rule="nonzero" cx="375.991597" cy="108.232143" rx="14.8907563" ry="14.9285714"></ellipse>
                <ellipse id="Oval" fill="#CDFF32" fill-rule="nonzero" cx="340.62605" cy="393.741071" rx="16.7521008" ry="20.5267857"></ellipse>
                <ellipse id="Oval" stroke="#990AE3" stroke-width="1.5" cx="14.8907563" cy="164.214286" rx="14.1407563" ry="14.1785714"></ellipse>
                <ellipse id="Oval" stroke="#FF00CD" stroke-width="1.5" cx="173.105042" cy="375.080357" rx="12.2794118" ry="12.3125"></ellipse>
                <ellipse id="Oval" stroke="#990AE3" stroke-width="1.5" cx="429.970588" cy="106.366071" rx="12.2794118" ry="12.3125"></ellipse>
                <ellipse id="Oval" stroke="#990AE3" stroke-width="1.5" cx="374.130252" cy="334.026786" rx="12.2794118" ry="12.3125"></ellipse>
                <polygon id="Path" fill="#00CDCD" fill-rule="nonzero" points="70.7310924 226.292648 61.5280989 231.392857 63.2857143 220.590441 55.8403361 212.940128 66.1295957 211.364077 70.7310924 201.535714 75.3325892 211.364077 85.6218487 212.940128 78.1764706 220.590441 79.934086 231.392857"></polygon>
                <polygon id="Path" fill="#CDFF32" fill-rule="nonzero" points="405.773109 233.756934 396.570116 238.857143 398.327731 228.054727 390.882353 220.404414 401.171612 218.828363 405.773109 209 410.374606 218.828363 420.663866 220.404414 413.218487 228.054727 414.976103 238.857143"></polygon>
                <polygon id="Path" fill="#990AE3" fill-rule="nonzero" points="297.815126 91.9355054 288.612133 97.0357143 290.369748 86.2332985 282.92437 78.5829852 293.213629 77.006934 297.815126 67.1785714 302.416623 77.006934 312.705882 78.5829852 305.260504 86.2332985 307.01812 97.0357143"></polygon>
                <polygon id="Path" stroke="#FF00CD" fill="#FFFFFF" fill-rule="nonzero" points="431.340762 338.688136 430.367309 332.705234 434.519019 328.439248 428.784216 327.560823 426.247899 322.14349 423.711583 327.560823 417.976779 328.439248 422.128489 332.705234 421.155036 338.688136 426.247899 335.865721"></polygon>
                <polygon id="Path" fill="#990AE3" fill-rule="nonzero" points="109.819328 406.073032 101.766708 410.535714 103.304622 401.0836 96.789916 394.389576 105.793018 393.010532 109.819328 384.410714 113.845637 393.010532 122.848739 394.389576 116.334034 401.0836 117.871947 410.535714"></polygon>
                <polygon id="Path" fill="#FF00CD" fill-rule="nonzero" points="273.617647 25.3944601 265.565028 29.8571429 267.102941 20.4050291 260.588235 13.7110049 269.591337 12.3319601 273.617647 3.73214286 277.643957 12.3319601 286.647059 13.7110049 280.132353 20.4050291 281.670266 29.8571429"></polygon>
                <polygon id="Path" fill="#990AE3" fill-rule="nonzero" points="102.37395 146.098084 96.6220786 149.285714 97.7205882 142.534204 93.0672269 137.752759 99.4980141 136.767727 102.37395 130.625 105.249885 136.767727 111.680672 137.752759 107.027311 142.534204 108.125821 149.285714"></polygon>
                <ellipse id="Oval" fill="#FF00CD" fill-rule="nonzero" cx="111.680672" cy="74.6428571" rx="7.44537815" ry="7.46428571"></ellipse>
                <ellipse id="Oval" fill="#990AE3" fill-rule="nonzero" cx="348.071429" cy="95.1696429" rx="1.86134454" ry="1.86607143"></ellipse>
                <ellipse id="Oval" fill="#990AE3" fill-rule="nonzero" cx="98.6512605" cy="345.223214" rx="1.86134454" ry="1.86607143"></ellipse>
                <ellipse id="Oval" fill="#990AE3" fill-rule="nonzero" cx="61.4243697" cy="128.758929" rx="1.86134454" ry="1.86607143"></ellipse>
                <path d="M165.094691,20.231168 L190.032106,91.1669341 L189.841312,91.2401731 C190.537411,93.2410104 189.562518,95.4312149 187.619564,96.1770453 C185.636833,96.9381443 183.396818,95.9069128 182.61635,93.8737253 C182.480287,93.5192669 182.397566,93.1577564 182.364229,92.7983931 L152.117225,23.0538523 L152.308793,22.9803163 C151.051658,19.5251948 152.722872,15.7134285 156.084081,14.4231812 C159.483048,13.11844 163.323073,14.8862654 164.661018,18.3717298 C164.896291,18.9846374 165.038528,19.6098446 165.094691,20.231168 Z M102.523941,57.6942464 L150.914764,114.615466 L150.721976,114.789053 C151.880275,116.396202 151.694159,118.62411 150.22436,119.947523 C148.646075,121.368618 146.18528,121.20863 144.728022,119.59018 C144.459386,119.29183 144.243605,118.964744 144.080209,118.620754 L91.1086274,64.613904 L91.2981357,64.44327 C89.0963922,61.673033 89.3529223,57.6801696 91.9532864,55.3387912 C94.658918,52.9026295 98.8774226,53.1768947 101.37558,55.9513796 C101.857136,56.4862014 102.239615,57.0748867 102.523941,57.6942464 Z M58.0468545,116.515011 L122.890448,150.458984 L122.559347,151.137841 C124.030676,152.245176 124.573602,154.24063 123.755653,155.917674 C122.824644,157.826525 120.483102,158.600017 118.525674,157.645315 C117.850184,157.315857 117.308709,156.823645 116.927458,156.241797 L48.7082496,126.502116 L49.0305462,125.84131 C46.1653445,124.028297 45.0351449,120.372963 46.5195947,117.32939 C48.1156104,114.057073 52.1296813,112.731088 55.4852729,114.367719 C56.5417256,114.882985 57.4069584,115.630476 58.0468545,116.515011 Z M35.5678728,186.430502 L109.084086,194.976817 L109.051021,195.354751 C110.72791,195.917245 111.866045,197.537014 111.708746,199.334953 C111.523645,201.450663 109.614822,203.011913 107.445271,202.822102 C107.034431,202.786158 106.643702,202.689999 106.281457,202.543353 L31.2436638,199.195676 L31.2738054,198.851156 C28.0421358,198.116166 25.7653678,195.155627 26.0552659,191.842076 C26.3725813,188.215144 29.6448487,185.538715 33.3640795,185.864106 C34.1479854,185.932689 34.8891803,186.129152 35.5678728,186.430502 Z M37.0810053,260.99625 L37.0174178,260.774494 L109.956102,242.088966 C110.248456,241.91484 110.56837,241.774931 110.911711,241.676479 C113.005184,241.076186 115.176836,242.244531 115.762233,244.286051 C116.266258,246.043794 115.430031,247.875739 113.851612,248.734216 L113.929845,249.007046 L43.4080403,272.528807 C42.8490216,272.890986 42.2263893,273.178312 41.5508564,273.372018 C37.9620457,274.401093 34.2392125,272.398216 33.2356758,268.898468 C32.3128124,265.68006 34.0109913,262.316544 37.0810053,260.99625 Z M68.0515695,329.152541 L67.7349949,328.732432 L128.706322,285.451858 C128.97464,284.898545 129.376813,284.396813 129.904823,283.998929 C131.644123,282.688273 134.090232,283.000766 135.368362,284.696902 C136.525921,286.233033 136.328474,288.377243 134.988875,289.741745 L135.321855,290.183624 L78.4078706,337.009115 C77.9504847,337.876023 77.2967654,338.661322 76.4576606,339.293633 C73.4760046,341.540472 69.2826736,341.004769 67.0915936,338.097108 C65.0212482,335.349667 65.4793713,331.467539 68.0515695,329.152541 Z M120.907306,381.100595 L120.40606,380.787383 L161.917518,318.380693 C161.943873,317.707982 162.142065,317.029336 162.527013,316.413289 C163.681092,314.566377 166.07672,313.981508 167.877797,315.106946 C169.605652,316.186629 170.158615,318.448149 169.181755,320.260936 L169.689173,320.578006 L133.246776,384.847126 C133.150898,385.880486 132.816692,386.912153 132.2258,387.857778 C130.247379,391.023913 126.140589,392.026547 123.053027,390.097224 C120.039543,388.214191 119.110733,384.234161 120.907306,381.100595 Z M188.378343,410.019912 L187.93648,409.934022 L204.428274,336.340513 C204.277916,335.773516 204.250269,335.162 204.370374,334.544112 C204.785925,332.406287 206.812837,331.001747 208.89761,331.406986 C210.970883,331.80999 212.320603,333.851095 211.926716,335.976244 L212.369118,336.062239 L201.293523,409.692012 C201.492147,410.58691 201.514046,411.539788 201.327075,412.501671 C200.614702,416.166515 197.139995,418.574297 193.566099,417.879602 C190.003242,417.187053 187.686824,413.672606 188.378343,410.019912 Z M261.478623,409.591129 L249.347182,336.064857 L249.788626,335.979049 C249.39303,333.852891 250.743026,331.810167 252.817211,331.406986 C254.901984,331.001747 256.928896,332.406287 257.344447,334.544112 C257.460723,335.142299 257.438518,335.734514 257.300554,336.286143 L274.858338,409.726998 L274.416475,409.812888 C275.107994,413.465582 272.791576,416.980029 269.228719,417.672578 C265.654824,418.367273 262.180116,415.959491 261.467743,412.294647 C261.288145,411.370697 261.301268,410.455056 261.478623,409.591129 Z M329.413773,384.368416 L292.028032,320.567118 L292.529284,320.253901 C291.557639,318.442302 292.111404,316.185233 293.837024,315.106946 C295.638102,313.981508 298.033729,314.566377 299.187808,316.413289 C299.558166,317.005986 299.755656,317.656626 299.793565,318.304178 L342.242898,380.19427 L341.741653,380.507483 C343.538226,383.641049 342.609415,387.621078 339.595932,389.504112 C336.50837,391.433435 332.401579,390.430801 330.423159,387.264666 C329.854074,386.35394 329.523079,385.363408 329.413773,384.368416 Z M384.03033,336.223512 L326.393867,290.161991 L326.717244,289.732854 C325.385497,288.367944 325.191411,286.229701 326.346459,284.696902 C327.624589,283.000766 330.070698,282.688273 331.809998,283.998929 C332.306555,284.373112 332.69182,284.839138 332.959125,285.353536 L394.641944,327.833334 L394.325369,328.253443 C396.897567,330.568441 397.35569,334.450569 395.285345,337.19801 C393.094265,340.105672 388.900934,340.641374 385.919278,338.394535 C385.116945,337.789934 384.484105,337.045459 384.03033,336.223512 Z M418.745862,271.532489 L347.782807,248.979534 L347.854511,248.729472 C346.28172,247.869003 345.44949,246.040563 345.952588,244.286051 C346.537985,242.244531 348.709638,241.076186 350.80311,241.676479 C351.080737,241.756088 351.343046,241.862802 351.587853,241.992796 L424.998078,259.69084 L424.934491,259.912596 C428.004504,261.232889 429.702683,264.596406 428.77982,267.814813 C427.776283,271.314561 424.05345,273.317438 420.464639,272.288363 C419.844346,272.110497 419.268656,271.853696 418.745862,271.532489 Z M430.33964,197.729298 L430.369782,198.073818 L355.589844,202.476076 C355.184538,202.660704 354.740243,202.780922 354.26955,202.822102 C352.099999,203.011913 350.191176,201.450663 350.006075,199.334953 C349.848874,197.538134 350.985493,195.919263 352.660666,195.355804 L352.625118,194.949482 L425.90538,185.372797 C426.621741,185.035137 427.411136,184.815583 428.249366,184.742248 C431.968597,184.416857 435.240864,187.093285 435.55818,190.720218 C435.848078,194.033768 433.57131,196.994307 430.33964,197.729298 Z M412.19454,124.832761 L412.516837,125.493567 L344.848692,156.145187 C344.465152,156.769119 343.901715,157.297773 343.189147,157.645315 C341.231719,158.600017 338.890177,157.826525 337.959168,155.917674 C337.140925,154.240027 337.684535,152.243743 339.157059,151.136648 L338.816278,150.437944 L403.103453,115.611926 C403.750066,114.681348 404.641627,113.894792 405.739813,113.35917 C409.095405,111.722539 413.109476,113.048524 414.705492,116.320841 C416.189941,119.364414 415.059742,123.019748 412.19454,124.832761 Z M369.604733,63.684241 L369.794241,63.8548751 L317.680496,118.520608 C317.51241,118.901286 317.281384,119.26301 316.986799,119.59018 C315.529541,121.20863 313.068747,121.368618 311.490461,119.947523 C310.0155,118.619462 309.833254,116.380541 311.005099,114.772143 L310.804602,114.591614 L358.32453,57.056828 C358.613768,56.3929014 359.014315,55.7620654 359.527289,55.1923507 C362.025446,52.4178658 366.243951,52.1436006 368.949582,54.5797623 C371.549946,56.9211406 371.806476,60.9140041 369.604733,63.684241 Z M308.381516,22.5733181 L308.573084,22.6468541 L279.356438,92.7287353 C279.327727,93.1109913 279.24333,93.4963549 279.098471,93.8737253 C278.318003,95.9069128 276.077988,96.9381443 274.095257,96.1770453 C272.148385,95.429711 271.173482,93.2321721 271.87774,91.2280722 L271.683932,91.1536764 L295.585907,19.9431934 C295.633989,19.2827764 295.778989,18.6167933 296.029292,17.9647316 C297.367236,14.4792673 301.207262,12.7114418 304.606229,14.016183 C307.967438,15.3064304 309.638651,19.1181966 308.381516,22.5733181 Z M236.888857,7.16137258 L234.702876,83.9365051 C234.702876,86.1143438 232.981203,87.8798309 230.857411,87.8798309 C228.733618,87.8798309 227.011945,86.1143438 227.011945,83.9365051 L223.74147,7.36030975 C223.724497,7.16252386 223.715831,6.96229324 223.715831,6.75998699 C223.715831,3.02654927 226.667272,0 230.308058,0 C233.948845,0 236.900285,3.02654927 236.900285,6.75998699 C236.900285,6.89473943 236.89644,7.02857098 236.888857,7.16137258 Z" id="Shape" fill="#990AE3" fill-rule="nonzero" opacity="0.0870697464"></path>
            </g>
        </g>
    </g>
</svg>