<svg xmlns="http://www.w3.org/2000/svg" xmlns:xlink="http://www.w3.org/1999/xlink" viewBox="0 0 37.84 37.84">
    <defs>
    </defs>
    <title>Asset 8</title>
    <g transform="translate(0 0)" id="Layer_2" data-name="Layer 2">
        <g id="Layer_1-2" data-name="Layer 1">
            <g transform="translate(9.46 0)" fill="#000000">
                <path d="M17.09,18.92H11.86V37.84H3.93V18.92H0V12.18H3.77V7.82A10.86,10.86,0,0,1,4.1,5.28,6.94,6.94,0,0,1,5.34,2.75,6.44,6.44,0,0,1,7.82.81a8.61,8.61,0,0,1,4-.81h6.31V6.31c-.81.05-1.51.05-2.16.05H13.37a1.9,1.9,0,0,0-1.13.38c-.38.21-.54.75-.54,1.45v4h6Z"/>
            </g>
        </g>
    </g>
</svg>