<?xml version="1.0" encoding="utf-8"?>
<!-- Generator: Adobe Illustrator 22.0.0, SVG Export Plug-In . SVG Version: 6.00 Build 0)  -->
<svg version="1.1" id="Layer_1" xmlns="http://www.w3.org/2000/svg" xmlns:xlink="http://www.w3.org/1999/xlink" x="0px" y="0px"
	 width="256px" height="256px" viewBox="0 0 256 256" style="enable-background:new 0 0 256 256;" xml:space="preserve">
<style type="text/css">
	.st0{fill-rule:evenodd;clip-rule:evenodd;}
</style>
<g>
	<path class="st0" d="M59.008,187.137h-9.856c-5.44,0-9.856-4.416-9.856-9.856c0-8.605,0-19.712,0-19.712h118.273V68.863
		c0,0,31.283,0,45.998,0c11.009,0,15.77,5.677,19.081,10.911c5.855,9.265,15.139,23.97,20.787,33.294
		c1.853,3.075,2.838,6.603,2.838,10.201c0,11.699,0,29.341,0,44.155c0,11.049-7.175,19.712-19.712,19.712h-9.856
		c0,16.322-13.246,29.568-29.568,29.568s-29.568-13.246-29.568-29.568h-39.424c0,16.322-13.247,29.568-29.568,29.568
		C72.254,216.705,59.008,203.458,59.008,187.137L59.008,187.137z M88.576,175.309c6.525,0,11.827,5.303,11.827,11.827
		c0,6.525-5.303,11.827-11.827,11.827c-6.525,0-11.827-5.303-11.827-11.827C76.748,180.612,82.051,175.309,88.576,175.309
		L88.576,175.309z M187.136,175.309c6.525,0,11.827,5.303,11.827,11.827c0,6.525-5.303,11.827-11.827,11.827
		c-6.525,0-11.827-5.303-11.827-11.827C175.309,180.612,180.611,175.309,187.136,175.309L187.136,175.309z M88.576,88.576H19.583
		c-5.443,0-9.856-4.413-9.856-9.856v0c0-5.443,4.413-9.856,9.856-9.856h68.992v-9.856h-49.28v-9.856
		c0-5.443,4.413-9.856,9.856-9.856h88.705c5.443,0,9.856,4.413,9.856,9.856v98.561H39.295v-29.568h-9.856
		c-5.443,0-9.856-4.413-9.856-9.856v0c0-5.443,4.413-9.856,9.856-9.856h59.137V88.576L88.576,88.576z M177.28,88.576v29.568h46.471
		c0,0-9.255-16.184-14.064-24.601c-1.754-3.075-5.017-4.967-8.555-4.967C192.537,88.576,177.28,88.576,177.28,88.576L177.28,88.576z
		"/>
</g>
</svg>
