<svg id="Layer_1" data-name="Layer 1" xmlns="http://www.w3.org/2000/svg" viewBox="0 0 670.83 495.83">
    <title>DefaultImage_TS_Icon_700px_B</title>
    <path fill="#000" d="M641.67,102.08H58.33a43.88,43.88,0,0,0-43.75,43.75V554.17a43.88,43.88,0,0,0,43.75,43.75H641.67a43.87,43.87,0,0,0,43.75-43.75V145.83A43.88,43.88,0,0,0,641.67,102.08Zm0,280.93-60-60L556.7,298a22,22,0,0,0-30.93,0l-78.31,78.31L315.36,508.45a21.87,21.87,0,0,1-30.93,0l-82.89-82.89a22,22,0,0,0-30.93,0L58.33,537.83V476l81.33-81.33a65.74,65.74,0,0,1,92.8,0l67.43,67.42L406.74,355.21A117.61,117.61,0,1,1,597.92,263.5a121,121,0,0,1-.77,13.12l44.52,44.53Z" transform="translate(-14.58 -102.08)"/>
</svg>