<?xml version="1.0" encoding="UTF-8"?>
<svg width="15px" height="15px" viewBox="0 0 15 15" version="1.1" xmlns="http://www.w3.org/2000/svg" xmlns:xlink="http://www.w3.org/1999/xlink">
    <!-- Generator: Sketch 43.2 (39069) - http://www.bohemiancoding.com/sketch -->
    <title>ico_add</title>
    <desc>Created with Sketch.</desc>
    <defs></defs>
    <g id="TS-ATOMS" stroke="none" stroke-width="1" fill="none" fill-rule="evenodd">
        <g id="MEDIA-ICONS" transform="translate(-926.000000, -249.000000)" fill="#FFFFFF">
            <g id="ico_add" transform="translate(926.000000, 249.000000)">
                <g id="Layer_1" transform="translate(-0.000000, 0.000000)">
                    <path d="M13.175,5.675 L9.321875,5.675 L9.321875,1.821875 C9.321875,0.815625 8.50625,0 7.5,0 C6.49375,0 5.678125,0.815625 5.678125,1.821875 L5.678125,5.675 L1.821875,5.675 C0.815625,5.675 -1.00311916e-13,6.490625 -1.00311916e-13,7.5 C-1.00311916e-13,8.50625 0.815625,9.321875 1.821875,9.321875 L5.675,9.321875 L5.675,13.175 C5.675,14.18125 6.490625,14.996875 7.496875,14.996875 C8.503125,14.996875 9.31875,14.18125 9.31875,13.175 L9.31875,9.321875 L13.171875,9.321875 C14.178125,9.321875 14.99375,8.50625 14.99375,7.5 C14.996875,6.490625 14.18125,5.675 13.175,5.675 L13.175,5.675 Z" id="Shape"></path>
                </g>
            </g>
        </g>
    </g>
</svg>
