<?xml version="1.0" encoding="UTF-8"?>
<svg width="16px" height="14px" viewBox="0 0 16 14" version="1.1" xmlns="http://www.w3.org/2000/svg" xmlns:xlink="http://www.w3.org/1999/xlink">
    <!-- Generator: Sketch 47 (45396) - http://www.bohemiancoding.com/sketch -->
    <title>quote</title>
    <desc>Created with Sketch.</desc>
    <defs></defs>
    <g id="Styleguide" stroke="none" stroke-width="1" fill="none" fill-rule="evenodd">
        <g id="MEDIA-ICONS" transform="translate(-610.000000, -837.000000)" fill="#726E6E">
            <path d="M625.64119,842.765618 C625.64119,846.800662 623.010235,849.516589 619.30212,850.250391 L618.603515,848.748256 C620.317335,848.100785 621.420306,846.008156 621.420306,844.443865 L619.783917,844.443865 C619.217806,844.443865 618.758378,843.984591 618.758378,843.416543 L618.758378,838.564822 C618.758378,837.996773 619.217806,837.5375 619.783917,837.5375 L624.617372,837.5375 C625.181762,837.5375 625.64119,837.996773 625.64119,838.564822 L625.64119,842.765618 Z M617.037675,842.765618 C617.037675,846.800662 614.40672,849.516589 610.698605,850.250391 L610,848.748256 C611.71382,848.100785 612.816791,846.008156 612.816791,844.443865 L611.180402,844.443865 C610.614291,844.443865 610.154863,843.984591 610.154863,843.416543 L610.154863,838.564822 C610.154863,837.996773 610.614291,837.5375 611.180402,837.5375 L616.013857,837.5375 C616.578247,837.5375 617.037675,837.996773 617.037675,838.564822 L617.037675,842.765618 Z" id="quote"></path>
        </g>
    </g>
</svg>