<svg width="16px" height="17px" viewBox="0 0 16 17" version="1.1" xmlns="http://www.w3.org/2000/svg" xmlns:xlink="http://www.w3.org/1999/xlink">
    <g stroke="none" stroke-width="1" fill="none" fill-rule="evenodd">
        <g transform="translate(-699.000000, -541.000000)" fill="#000000">
            <g transform="translate(699.000000, 541.000000)">
                <path d="M14.3645503,11.0395062 C13.8218695,10.8116402 13.1622575,10.7306878 12.4756614,10.8506173 C10.9285714,11.1234568 9.84620811,12.3077601 10.0560847,13.49806 C10.2659612,14.6853616 11.6871252,15.4289242 13.2342152,15.1560847 C14.5684303,14.919224 15.5578483,14.0047619 15.6687831,12.991358 C15.6687831,12.991358 15.6777778,12.7455026 15.6777778,12.7185185 L15.6777778,3.50793651 L15.6747795,2.95925926 L15.6747795,0.656613757 C15.6747795,0.461728395 15.5908289,0.278835979 15.4409171,0.155908289 C15.2910053,0.0299823633 15.0961199,-0.0209876543 14.9042328,0.0119929453 L4.87513228,1.78095238 C4.56031746,1.83791887 4.3324515,2.10776014 4.3324515,2.42557319 L4.3324515,4.72821869 L4.3324515,12.8114638 C3.78977072,12.5835979 3.13015873,12.5026455 2.44356261,12.622575 C0.899470899,12.8924162 -0.182892416,14.0767196 0.026984127,15.2670194 C0.23686067,16.454321 1.65802469,17.1978836 3.20511464,16.9250441 C4.53932981,16.6881834 5.5287478,15.7737213 5.6366843,14.7603175 C5.6366843,14.7603175 5.64867725,14.5144621 5.64567901,14.487478 L5.64567901,5.27689594 L14.361552,3.73880071 L14.3645503,11.0395062 L14.3645503,11.0395062 Z"></path>
            </g>
        </g>
    </g>
</svg>