<svg xmlns="http://www.w3.org/2000/svg" xmlns:xlink="http://www.w3.org/1999/xlink" viewBox="0 0 38.04 35.1"><defs><style>.cls-1{fill:none;}.cls-2{clip-path:url(#clip-path);}</style><clipPath id="clip-path" transform="translate(0 0)"><rect class="cls-1" width="38.05" height="35.22"/></clipPath></defs><title>Asset 14</title><g id="Layer_2" data-name="Layer 2"><g id="Layer_1-2" data-name="Layer 1"><g class="cls-2"><path d="M7.77,0A7.28,7.28,0,0,0,2.09,2.29,9,9,0,0,0,0,8.6v.95a9,9,0,0,0,2.07,6.31,7.28,7.28,0,0,0,5.67,2.3,7.28,7.28,0,0,0,5.68-2.29,9,9,0,0,0,2.09-6.31V8.62A9,9,0,0,0,13.44,2.3,7.28,7.28,0,0,0,7.77,0m2.92,9.32q0,4.3-2.94,4.3T4.83,9.31V8.84q0-4.3,2.94-4.3t2.93,4.31Z" transform="translate(0 0)"/><path d="M36,18.69a7.28,7.28,0,0,0-5.67-2.3,7.28,7.28,0,0,0-5.68,2.29A9,9,0,0,0,22.53,25v.95a9,9,0,0,0,2.07,6.31,7.27,7.27,0,0,0,5.67,2.3A7.28,7.28,0,0,0,36,32.26,9.05,9.05,0,0,0,38,26V25A9.05,9.05,0,0,0,36,18.69m-2.75,7q0,4.3-2.94,4.3T27.36,25.7v-.47q0-4.3,2.94-4.3t2.93,4.31Z" transform="translate(0 0)"/><path d="M1.19,34A.9.9,0,0,0,2.3,35.09l11.32-2.83c.72-.2.83-.83.24-1.42l-2.79-2.79L33.6,5.52a2,2,0,0,0-2.85-2.85L8.22,25.2,5.44,22.42c-.58-.58-1.22-.47-1.42.24Z" transform="translate(0 0)"/></g></g></g></svg>