<?xml version="1.0" encoding="utf-8"?>
<!-- Generator: Adobe Illustrator 22.0.0, SVG Export Plug-In . SVG Version: 6.00 Build 0)  -->
<svg version="1.1" id="Layer_1" xmlns="http://www.w3.org/2000/svg" xmlns:xlink="http://www.w3.org/1999/xlink" x="0px" y="0px"
	 width="512px" height="512px" viewBox="0 0 512 512" style="enable-background:new 0 0 512 512;" xml:space="preserve">
<g>
	<path class="st0" d="M60.655,461.676c-8.858,0-18.476-7.307-28.868-21.939c-6.162-10.003-9.237-17.51-9.237-22.516V86.411
		c0-8.462,5.863-16.545,17.608-24.248c11.737-7.694,24.339-11.547,37.816-11.547c14.235,0,21.361,6.55,21.361,19.63v202.065
		l92.374-88.331c5.385-4.998,12.502-9.238,21.36-12.702c8.85-3.464,17.122-5.195,24.825-5.195c14.235,0,21.361,6.549,21.361,19.629
		c0,9.625-2.021,19.441-6.062,29.444c-4.041,10.013-9.337,17.896-15.876,23.67l-71.013,65.816l93.528,89.486
		c3.463,3.464,5.195,8.083,5.195,13.855c0,13.478-3.662,25.791-10.969,36.949c-7.315,11.168-15.398,16.742-24.249,16.742
		c-3.084,0-6.061-0.865-8.948-2.598c-2.887-1.731-6.838-5.097-11.835-10.103L99.336,338.704v62.353
		c0,10.392-2.02,20.405-6.062,30.021c-4.041,9.625-9.048,17.13-15.01,22.516C72.292,458.979,66.429,461.676,60.655,461.676z"/>
	<path class="st0" d="M451.509,242.291c-2.697,0-5.396-0.189-8.083-0.578c-2.697-0.379-5.773-0.577-9.237-0.577
		c-18.862,0-34.261,5.007-46.186,15.011v144.91c0,10.392-2.021,20.405-6.062,30.021c-4.042,9.625-9.049,17.13-15.011,22.516
		c-5.972,5.386-11.836,8.082-17.609,8.082c-8.857,0-18.474-7.307-28.866-21.939c-6.161-10.003-9.236-17.51-9.236-22.516V201.877
		c0-8.461,5.862-16.544,17.607-24.247c11.736-7.695,24.339-11.547,37.815-11.547c14.235,0,21.361,6.549,21.361,19.629v13.857
		c7.307-10.393,17.509-19.143,30.599-26.269c13.08-7.118,25.592-10.681,37.526-10.681c21.551,0,32.331,7.704,32.331,23.093
		c0,13.857-3.852,26.756-11.547,38.682C469.208,236.328,460.746,242.291,451.509,242.291z"/>
</g>
</svg>
