<svg width="14px" height="14px" viewBox="0 0 14 14" version="1.1" xmlns="http://www.w3.org/2000/svg" xmlns:xlink="http://www.w3.org/1999/xlink">
    <g stroke="none" stroke-width="1" fill="none" fill-rule="evenodd">
        <g transform="translate(-927.000000, -363.000000)" fill="#000000">
            <g transform="translate(927.000000, 363.000000)">
                <path d="M10.751761,13.0835611 L6.97876095,10.6836562 L3.21742762,13.0998712 C2.74376095,13.4051018 2.47309429,13.2093814 2.61542762,12.6641603 L3.73776095,8.34666148 L0.270427621,5.52735572 C-0.165905712,5.173195 -0.0632390456,4.85631435 0.499094288,4.82369429 L4.96509429,4.55341373 L6.58442762,0.394355246 C6.78742762,-0.129895823 7.12109429,-0.132225828 7.32876095,0.392025242 L8.96442762,4.54409372 L13.432761,4.79340422 C13.9950943,4.82369429 14.097761,5.14057493 13.663761,5.49706566 L10.2080943,8.33268145 L11.3514276,12.6455202 C11.4960943,13.1907414 11.227761,13.3864618 10.751761,13.0835611 L10.751761,13.0835611 Z"></path>
            </g>
        </g>
    </g>
</svg>