<?xml version="1.0" encoding="UTF-8"?>
<svg width="17px" height="17px" viewBox="0 0 17 17" version="1.1" xmlns="http://www.w3.org/2000/svg" xmlns:xlink="http://www.w3.org/1999/xlink">
    <!-- Generator: Sketch 43.2 (39069) - http://www.bohemiancoding.com/sketch -->
    <title>ico_content</title>
    <desc>Created with Sketch.</desc>
    <defs></defs>
    <g id="TS-ATOMS" stroke="none" stroke-width="1" fill="none" fill-rule="evenodd">
        <g id="MEDIA-ICONS" transform="translate(-745.000000, -248.000000)" fill="#000000">
            <g id="ico_content" transform="translate(745.000000, 248.000000)">
                <g id="Layer_1" transform="translate(0.000000, 0.000000)">
                    <path d="M12.2691429,2.97742857 C12.4707143,3.179 12.7354286,3.28828571 13.0195714,3.28828571 L15.2295714,3.28828571 L11.9582857,0 L11.9582857,2.227 C11.9582857,2.51114286 12.07,2.77828571 12.2691429,2.97742857 L12.2691429,2.97742857 Z" id="Shape"></path>
                    <path d="M17,8.20614286 L17,9.90371429 C17,10.319 16.8397143,10.7318571 16.5531429,11.0621429 C16.269,11.3948571 15.8901429,11.611 15.487,11.6741429 L15.2295714,11.7202857 L15.2295714,15.2295714 C15.2295714,15.8148571 14.7511429,16.2932857 14.1658571,16.2932857 L13.0948571,16.2932857 C12.6504286,16.609 12.1161429,16.8348571 11.5284286,16.9392857 C11.2952857,16.9805714 11.0597143,17 10.8265714,17 C9.98385714,17 9.231,16.7352857 8.67242857,16.2908571 L4.25,16.2908571 C3.66471429,16.2908571 3.18628571,15.8124286 3.18628571,15.2271429 L3.18628571,12.6892857 C1.309,11.8125714 4.54747351e-13,9.90857143 4.54747351e-13,7.70342857 C4.54747351e-13,5.49585714 1.309,3.59428571 3.18628571,2.71757143 L3.18628571,1.06371429 C3.18628571,0.478428571 3.66471429,0 4.25,0 L10.8945714,0 L10.8945714,2.227 C10.8945714,2.81471429 11.1325714,3.34414286 11.5162857,3.73028571 C11.9,4.114 12.4318571,4.352 13.0171429,4.352 L13.0195714,4.352 L15.2271429,4.352 L15.2271429,6.62757143 C15.2878571,6.62028571 15.3461429,6.613 15.4044286,6.613 C15.7784286,6.613 16.1427143,6.74657143 16.4268571,6.98457143 C16.7911429,7.28814286 17,7.73257143 17,8.20614286 L17,8.20614286 Z M15.4068571,7.67428571 L15.3121429,7.68157143 L12.6965714,8.14542857 C12.4415714,8.19157143 12.257,8.41014286 12.257,8.67 L12.257,10.5351429 L12.257,12.5557143 C11.9558571,12.427 11.6085714,12.3565714 11.2394286,12.3565714 C11.0718571,12.3565714 10.8994286,12.3711429 10.7245714,12.4027143 C9.47142857,12.6237143 8.59471429,13.583 8.76471429,14.5471429 C8.91042857,15.3752857 9.78471429,15.9362857 10.8241429,15.9362857 C10.9941429,15.9362857 11.1665714,15.9217143 11.3414286,15.8901429 C12.4221429,15.6982857 13.2235714,14.9551429 13.311,14.1367143 L13.3182857,13.9157143 L13.3182857,10.9771429 L15.3097143,10.625 C15.4651429,10.6031429 15.623,10.5108571 15.7444286,10.37 C15.8658571,10.2291429 15.9338571,10.0591429 15.9338571,9.90128571 L15.9338571,8.20371429 C15.9338571,8.04585714 15.8658571,7.89771429 15.7444286,7.79814286 C15.6521429,7.718 15.5307143,7.67428571 15.4068571,7.67428571 L15.4068571,7.67428571 Z M5.50314286,3.26157143 C3.05028571,3.26157143 1.06128571,5.25057143 1.06128571,7.70342857 C1.06128571,10.1562857 3.05028571,12.1452857 5.50314286,12.1452857 C7.956,12.1452857 9.945,10.1562857 9.945,7.70342857 C9.945,5.25057143 7.956,3.26157143 5.50314286,3.26157143 L5.50314286,3.26157143 Z" id="Shape"></path>
                    <path d="M8.52185714,7.35857143 L4.12857143,4.72114286 C3.84442857,4.55842857 3.61371429,4.72357143 3.61371429,5.08542857 L3.61371429,10.3214286 C3.61371429,10.6832857 3.84442857,10.846 4.12857143,10.6857143 L8.52428571,8.05071429 C8.79385714,7.85885714 8.79385714,7.548 8.52185714,7.35857143 L8.52185714,7.35857143 Z" id="Shape"></path>
                </g>
            </g>
        </g>
    </g>
</svg>