<?xml version="1.0" encoding="utf-8"?>
<!-- Generator: Adobe Illustrator 22.0.0, SVG Export Plug-In . SVG Version: 6.00 Build 0)  -->
<svg version="1.1" id="Layer_1" xmlns="http://www.w3.org/2000/svg" xmlns:xlink="http://www.w3.org/1999/xlink" x="0px" y="0px"
	 width="512px" height="512px" viewBox="0 0 512 512" style="enable-background:new 0 0 512 512;" xml:space="preserve">
<g>
	<g>
		<g>
			<path d="M397.751,495H114.249c-9.444,0-18.539-3.976-24.95-10.912c-6.411-6.933-9.666-16.309-8.929-25.725l22.738-290.251
				c1.38-17.568,16.261-31.329,33.879-31.329h238.027c17.623,0,32.504,13.762,33.879,31.331l22.738,290.248
				c0.737,9.416-2.518,18.794-8.929,25.727C416.29,491.024,407.195,495,397.751,495z M136.987,165.203
				c-2.884,0-5.321,2.253-5.546,5.131l-22.738,290.25c-0.167,2.109,0.845,3.545,1.461,4.211c0.618,0.666,1.968,1.786,4.085,1.786
				h283.502c2.117,0,3.469-1.118,4.085-1.786c0.618-0.666,1.627-2.099,1.461-4.211l-22.738-290.251
				c-0.225-2.878-2.662-5.129-5.546-5.129H136.987z"/>
		</g>
	</g>
	<g>
		<g>
			<path d="M329.414,336.337l-97.51-73.828c-6.823-5.166-16.611-0.299-16.611,8.258v118.87c0,8.96,10.606,13.694,17.276,7.71
				l24.543-22.019l27.256,55.768c4.311,8.82,14.955,12.475,23.775,8.164h0c8.828-4.315,12.481-14.975,8.153-23.797l-27.018-55.08
				l35.484-5.555C333.793,353.416,336.701,341.854,329.414,336.337z"/>
		</g>
	</g>
	<g>
		<g>
			<path d="M195.108,261.619L195.108,261.619c-1.636,2.833-5.258,3.803-8.091,2.168l-20.492-11.831
				c-2.833-1.636-3.803-5.258-2.168-8.091v0c1.636-2.833,5.258-3.803,8.091-2.168l20.492,11.831
				C195.773,255.164,196.744,258.787,195.108,261.619z"/>
		</g>
	</g>
	<g>
		<g>
			<path d="M210.36,245.127L210.36,245.127c-2.895,1.523-6.476,0.411-7.999-2.484l-11.017-20.942
				c-1.523-2.895-0.411-6.476,2.484-7.999l0,0c2.895-1.523,6.476-0.411,7.999,2.484l11.017,20.942
				C214.367,240.022,213.255,243.604,210.36,245.127z"/>
		</g>
	</g>
	<path d="M255.999,17c-43.983,0-79.768,35.785-79.768,79.776v82c0,7.303,5.941,13.244,13.244,13.244s13.244-5.941,13.244-13.244v-82
		c0-29.385,23.903-53.288,53.28-53.288s53.28,23.903,53.28,53.288v83.354c0,7.303,5.941,13.244,13.244,13.244
		s13.244-5.941,13.244-13.244V96.776C335.767,52.785,299.982,17,255.999,17z"/>
	<g>
		<g>
			<path d="M231.023,240.331L231.023,240.331c-3.241-0.442-5.511-3.427-5.069-6.668l3.195-23.446
				c0.442-3.241,3.427-5.511,6.668-5.069h0c3.241,0.442,5.511,3.427,5.069,6.668l-3.195,23.446
				C237.25,238.504,234.264,240.773,231.023,240.331z"/>
		</g>
	</g>
</g>
</svg>
