<svg width="12px" height="15px" viewBox="0 0 12 15" version="1.1" xmlns="http://www.w3.org/2000/svg" xmlns:xlink="http://www.w3.org/1999/xlink">
    <g stroke="none" stroke-width="1" fill="none" fill-rule="evenodd">
        <g transform="translate(-576.000000, -837.000000)" fill="#000000">
            <path d="M584.144322,847.420468 L580.436149,845.279553 C580.463627,845.139392 580.478027,844.994545 580.478027,844.846334 C580.478027,844.664129 580.456263,844.487007 580.415193,844.317426 L584.413004,842.009289 C584.777541,842.266508 585.222322,842.417595 585.702393,842.417595 C586.938966,842.417595 587.941406,841.415154 587.941406,840.178581 C587.941406,838.942008 586.938966,837.939568 585.702393,837.939568 C584.465819,837.939568 583.463379,838.942008 583.463379,840.178581 C583.463379,840.299113 583.472903,840.41742 583.49124,840.532791 L579.368834,842.912863 C579.037185,842.718646 578.6511,842.60732 578.239014,842.60732 C577.002441,842.60732 576,843.609761 576,844.846334 C576,846.082907 577.002441,847.085348 578.239014,847.085348 C578.689034,847.085348 579.108046,846.952582 579.459017,846.724084 L583.463391,849.036011 C583.467468,850.269107 584.468341,851.267464 585.702393,851.267464 C586.938966,851.267464 587.941406,850.265023 587.941406,849.02845 C587.941406,847.791877 586.938966,846.789436 585.702393,846.789436 C585.0968,846.789436 584.547362,847.029861 584.144322,847.420468 Z"></path>
        </g>
    </g>
</svg>