<?xml version="1.0" encoding="UTF-8"?>
<svg width="51px" height="17px" viewBox="0 0 51 17" version="1.1" xmlns="http://www.w3.org/2000/svg" xmlns:xlink="http://www.w3.org/1999/xlink">
    <!-- Generator: Sketch 43.2 (39069) - http://www.bohemiancoding.com/sketch -->
    <title>ico_buy</title>
    <desc>Created with Sketch.</desc>
    <defs></defs>
    <g id="TS-ATOMS" stroke="none" stroke-width="1" fill="none" fill-rule="evenodd">
        <g id="MEDIA-ICONS" transform="translate(-655.000000, -248.000000)" fill="#000000">
            <g id="ico_buy" transform="translate(655.000000, 248.000000)">
                <g id="Layer_1">
                    <path d="M16.1135714,13.022 L4.82071429,13.022 L5.36957143,11.2685714 L15.3364286,9.22371429 C15.6885714,9.15085714 15.963,8.87157143 16.0285714,8.517 L16.9781429,3.37328571 C17.0267143,3.11585714 16.9562857,2.84871429 16.7887143,2.64714286 C16.6211429,2.44557143 16.371,2.329 16.1087143,2.329 L4.66528571,2.329 L4.49528571,0.789285714 C4.44428571,0.337571429 4.06785714,0 3.61614286,0 L0.884,0 C0.395857143,0 0,0.395857143 0,0.884 C0,1.37214286 0.395857143,1.768 0.884,1.768 L2.82442857,1.768 L3.77642857,10.4185714 L2.771,13.6412857 C2.686,13.9084286 2.737,14.2022857 2.90214286,14.4281429 C3.06728571,14.654 3.33442857,14.79 3.61614286,14.79 L4.83528571,14.79 C4.55114286,15.0182857 4.36657143,15.3631429 4.36657143,15.7541429 C4.36657143,16.439 4.92028571,16.9927143 5.60514286,16.9927143 C6.29,16.9927143 6.84371429,16.439 6.84371429,15.7541429 C6.84371429,15.3631429 6.65914286,15.0182857 6.375,14.79 L13.7457143,14.79 C13.4615714,15.0182857 13.277,15.3631429 13.277,15.7541429 C13.277,16.439 13.8307143,16.9927143 14.5155714,16.9927143 C15.2004286,16.9927143 15.7541429,16.439 15.7541429,15.7541429 C15.7541429,15.3631429 15.5695714,15.0182857 15.2854286,14.79 L16.1135714,14.79 C16.6017143,14.79 16.9975714,14.3941429 16.9975714,13.906 C17,13.4178571 16.6041429,13.022 16.1135714,13.022 L16.1135714,13.022 Z M9.42285714,8.62871429 L8.30814286,8.857 L7.78357143,4.097 L8.925,4.097 L9.42285714,8.62871429 L9.42285714,8.62871429 Z M10.7027143,4.097 L11.8441429,4.097 L12.2788571,8.04342857 L11.1641429,8.27171429 L10.7027143,4.097 L10.7027143,4.097 Z M14.3965714,7.60871429 L14.0201429,7.68642857 L13.6242857,4.097 L15.045,4.097 L14.3965714,7.60871429 L14.3965714,7.60871429 Z M6.001,4.097 L6.56442857,9.214 L5.44971429,9.44228571 L4.85957143,4.09457143 L6.001,4.09457143 L6.001,4.097 Z" id="Shape"></path>
                </g>
            </g>
        </g>
    </g>
    <g id="TS-ATOMS-WHITE" stroke="none" stroke-width="1" fill="none" fill-rule="evenodd">
        <g id="MEDIA-ICONS" transform="translate(-655.000000, -248.000000)" fill="#ffffff">
            <g id="ico_buy" transform="translate(672.000000, 248.000000)">
                <g id="Layer_1">
                    <path d="M16.1135714,13.022 L4.82071429,13.022 L5.36957143,11.2685714 L15.3364286,9.22371429 C15.6885714,9.15085714 15.963,8.87157143 16.0285714,8.517 L16.9781429,3.37328571 C17.0267143,3.11585714 16.9562857,2.84871429 16.7887143,2.64714286 C16.6211429,2.44557143 16.371,2.329 16.1087143,2.329 L4.66528571,2.329 L4.49528571,0.789285714 C4.44428571,0.337571429 4.06785714,0 3.61614286,0 L0.884,0 C0.395857143,0 0,0.395857143 0,0.884 C0,1.37214286 0.395857143,1.768 0.884,1.768 L2.82442857,1.768 L3.77642857,10.4185714 L2.771,13.6412857 C2.686,13.9084286 2.737,14.2022857 2.90214286,14.4281429 C3.06728571,14.654 3.33442857,14.79 3.61614286,14.79 L4.83528571,14.79 C4.55114286,15.0182857 4.36657143,15.3631429 4.36657143,15.7541429 C4.36657143,16.439 4.92028571,16.9927143 5.60514286,16.9927143 C6.29,16.9927143 6.84371429,16.439 6.84371429,15.7541429 C6.84371429,15.3631429 6.65914286,15.0182857 6.375,14.79 L13.7457143,14.79 C13.4615714,15.0182857 13.277,15.3631429 13.277,15.7541429 C13.277,16.439 13.8307143,16.9927143 14.5155714,16.9927143 C15.2004286,16.9927143 15.7541429,16.439 15.7541429,15.7541429 C15.7541429,15.3631429 15.5695714,15.0182857 15.2854286,14.79 L16.1135714,14.79 C16.6017143,14.79 16.9975714,14.3941429 16.9975714,13.906 C17,13.4178571 16.6041429,13.022 16.1135714,13.022 L16.1135714,13.022 Z M9.42285714,8.62871429 L8.30814286,8.857 L7.78357143,4.097 L8.925,4.097 L9.42285714,8.62871429 L9.42285714,8.62871429 Z M10.7027143,4.097 L11.8441429,4.097 L12.2788571,8.04342857 L11.1641429,8.27171429 L10.7027143,4.097 L10.7027143,4.097 Z M14.3965714,7.60871429 L14.0201429,7.68642857 L13.6242857,4.097 L15.045,4.097 L14.3965714,7.60871429 L14.3965714,7.60871429 Z M6.001,4.097 L6.56442857,9.214 L5.44971429,9.44228571 L4.85957143,4.09457143 L6.001,4.09457143 L6.001,4.097 Z" id="Shape"></path>
                </g>
            </g>
        </g>
    </g>
    <g id="TS-ATOMS-PURPLE" stroke="none" stroke-width="1" fill="none" fill-rule="evenodd">
        <g id="MEDIA-ICONS" transform="translate(-655.000000, -248.000000)" fill="#990AE3">
            <g id="ico_buy" transform="translate(689.000000, 248.000000)">
                <g id="Layer_1">
                    <path d="M16.1135714,13.022 L4.82071429,13.022 L5.36957143,11.2685714 L15.3364286,9.22371429 C15.6885714,9.15085714 15.963,8.87157143 16.0285714,8.517 L16.9781429,3.37328571 C17.0267143,3.11585714 16.9562857,2.84871429 16.7887143,2.64714286 C16.6211429,2.44557143 16.371,2.329 16.1087143,2.329 L4.66528571,2.329 L4.49528571,0.789285714 C4.44428571,0.337571429 4.06785714,0 3.61614286,0 L0.884,0 C0.395857143,0 0,0.395857143 0,0.884 C0,1.37214286 0.395857143,1.768 0.884,1.768 L2.82442857,1.768 L3.77642857,10.4185714 L2.771,13.6412857 C2.686,13.9084286 2.737,14.2022857 2.90214286,14.4281429 C3.06728571,14.654 3.33442857,14.79 3.61614286,14.79 L4.83528571,14.79 C4.55114286,15.0182857 4.36657143,15.3631429 4.36657143,15.7541429 C4.36657143,16.439 4.92028571,16.9927143 5.60514286,16.9927143 C6.29,16.9927143 6.84371429,16.439 6.84371429,15.7541429 C6.84371429,15.3631429 6.65914286,15.0182857 6.375,14.79 L13.7457143,14.79 C13.4615714,15.0182857 13.277,15.3631429 13.277,15.7541429 C13.277,16.439 13.8307143,16.9927143 14.5155714,16.9927143 C15.2004286,16.9927143 15.7541429,16.439 15.7541429,15.7541429 C15.7541429,15.3631429 15.5695714,15.0182857 15.2854286,14.79 L16.1135714,14.79 C16.6017143,14.79 16.9975714,14.3941429 16.9975714,13.906 C17,13.4178571 16.6041429,13.022 16.1135714,13.022 L16.1135714,13.022 Z M9.42285714,8.62871429 L8.30814286,8.857 L7.78357143,4.097 L8.925,4.097 L9.42285714,8.62871429 L9.42285714,8.62871429 Z M10.7027143,4.097 L11.8441429,4.097 L12.2788571,8.04342857 L11.1641429,8.27171429 L10.7027143,4.097 L10.7027143,4.097 Z M14.3965714,7.60871429 L14.0201429,7.68642857 L13.6242857,4.097 L15.045,4.097 L14.3965714,7.60871429 L14.3965714,7.60871429 Z M6.001,4.097 L6.56442857,9.214 L5.44971429,9.44228571 L4.85957143,4.09457143 L6.001,4.09457143 L6.001,4.097 Z" id="Shape"></path>
                </g>
            </g>
        </g>
    </g>
</svg>