<?xml version="1.0" encoding="UTF-8"?>
<svg width="21px" height="30px" viewBox="0 0 21 30" version="1.1" xmlns="http://www.w3.org/2000/svg" xmlns:xlink="http://www.w3.org/1999/xlink">
    <!-- Generator: Sketch 49.1 (51147) - http://www.bohemiancoding.com/sketch -->
    <title>data_refill_icon</title>
    <desc>Created with Sketch.</desc>
    <defs></defs>
    <g id="Page-1" stroke="none" stroke-width="1" fill="none" fill-rule="evenodd">
        <g id="Example---productlist-Copy" transform="translate(-48.000000, -237.000000)" fill="#000000" fill-rule="nonzero">
            <g id="data_refill_icon" transform="translate(48.000000, 237.000000)">
                <path d="M20.7266667,1.81333333 L20.7266667,28.1466667 C20.7230105,29.1466247 19.9132913,29.9563438 18.9133333,29.96 L1.81333333,29.96 C0.813375346,29.9563438 0.00365619013,29.1466247 0,28.1466667 L0,1.81333333 C0.00365619013,0.813375346 0.813375346,0.00365619013 1.81333333,0 L18.9133333,0 C19.9132913,0.00365619013 20.7230105,0.813375346 20.7266667,1.81333333 M17.64,22.8533333 L17.64,3.36666667 C17.64,3.23043643 17.5295636,3.12 17.3933333,3.12 L3.33333333,3.12 C3.19971351,3.12361266 3.0932845,3.23299802 3.09333333,3.36666667 L3.09333333,22.8533333 C3.09333333,22.9895636 3.20376976,23.1 3.34,23.1 L17.4,23.1 C17.5362302,23.1 17.6466667,22.9895636 17.6466667,22.8533333 M10.3133333,24.9733333 C9.45176912,24.9733333 8.75333333,25.6717691 8.75333333,26.5333333 C8.75333333,27.3948975 9.45176912,28.0933333 10.3133333,28.0933333 C11.1748975,28.0933333 11.8733333,27.3948975 11.8733333,26.5333333 C11.8733333,25.6717691 11.1748975,24.9733333 10.3133333,24.9733333" id="Shape"></path>
                <path d="M14.5733333,11.72 L11.7133333,11.72 L11.7133333,8.86666667 C11.7133333,8.11924131 11.1074254,7.51333333 10.36,7.51333333 C9.61257464,7.51333333 9.00666667,8.11924131 9.00666667,8.86666667 L9.00666667,11.7266667 L6.15333333,11.7266667 C5.40590797,11.7266667 4.8,12.3325746 4.8,13.08 C4.8,13.8274254 5.40590797,14.4333333 6.15333333,14.4333333 L9.01333333,14.4333333 L9.01333333,17.2933333 C9.01333332,17.7768328 9.27127719,18.2236047 9.68999999,18.4653544 C10.1087228,18.7071041 10.6246105,18.7071041 11.0433333,18.4653544 C11.4620561,18.2236047 11.72,17.7768328 11.72,17.2933333 L11.72,14.4266667 L14.58,14.4266667 C15.3274254,14.4266667 15.9333333,13.8207587 15.9333333,13.0733333 C15.9333333,12.325908 15.3274254,11.72 14.58,11.72" id="Shape"></path>
            </g>
        </g>
    </g>
</svg>