<svg id="Layer_1" data-name="Layer 1" xmlns="http://www.w3.org/2000/svg" viewBox="0 0 555.73 635.32"><title>money_icon</title><path fill="#000000" d="M181.35,140.16c100.16,0,181.35-18.24,181.35-40.73V40.73C362.7,18.23,281.51,0,181.35,0S0,18.24,0,40.73v58.7C0,121.93,81.19,140.16,181.35,140.16Z" transform="translate(0)"/><path fill="#000000" d="M181.35,298.39C81.19,298.39,0,280.15,0,257.66v58.7c0,19.92,63.7,36.5,147.83,40a234.19,234.19,0,0,1,34.36-58Z" transform="translate(0)"/><path fill="#000000" d="M362.7,152.38c0,22.5-81.19,40.73-181.35,40.73S0,174.88,0,152.38v58.7c0,22.5,81.19,40.73,181.35,40.73,18.63,0,36.59-.63,53.51-1.8a233.67,233.67,0,0,1,127.84-39.7Z" transform="translate(0)"/><path fill="#000000" d="M133.39,407.31C56.52,402.59,0,386.79,0,368v58.7C0,445.3,55.37,461,131,465.86c-.6-7.22-.9-14.51-.84-21.84A238.57,238.57,0,0,1,133.39,407.31Z" transform="translate(0)"/><path fill="#000000" d="M0,474.57v58.7c0,21.48,74,39.06,167.9,40.61a231.91,231.91,0,0,1-27.7-59.64C59.85,510.05,0,493.89,0,474.57Z" transform="translate(0)"/><path fill="#000000" d="M366.85,256.17h-1c-104,0-188.78,84-189.68,188.24-.91,105,83.56,190.32,189.06,190.91h1.08c104.08,0,188.94-84.18,189.42-188.19C556.18,341.66,472.21,256.73,366.85,256.17Zm7.44,257.38q-4.13,6.3-9.11,6.29a6.46,6.46,0,0,1-3.37-1,26.41,26.41,0,0,1-4.44-3.81l-41.26-41.37V497.1a28.9,28.9,0,0,1-2.26,11.25,23.32,23.32,0,0,1-5.64,8.46q-3.37,3-6.61,3-5,0-10.86-8.24c-2.31-3.76-3.48-6.59-3.48-8.47V378.78q0-4.77,6.62-9.11a25.46,25.46,0,0,1,14.21-4.35q8,0,8,7.38v76l34.76-33.24a25.37,25.37,0,0,1,8-4.77,25.73,25.73,0,0,1,9.33-2q8,0,8,7.38a29.47,29.47,0,0,1-2.28,11.07,23.07,23.07,0,0,1-6,8.89l-26.69,24.74,35.24,33.64a7.06,7.06,0,0,1,2,5.21,24.79,24.79,0,0,1-4.13,13.89Zm83.76-82.89q-4.34,6.73-9.55,6.73a21.73,21.73,0,0,1-3-.22A25,25,0,0,0,442,437q-10.63,0-17.36,5.64v54.48a28.9,28.9,0,0,1-2.28,11.29,23.32,23.32,0,0,1-5.64,8.46c-2.24,2-4.44,3-6.62,3q-5,0-10.85-8.24-3.48-5.64-3.48-8.47V422.19q0-4.77,6.62-9.12a25.45,25.45,0,0,1,14.21-4.33q8,0,8,7.38v5.2a33.08,33.08,0,0,1,11.51-9.88,29.58,29.58,0,0,1,14.1-4q12.15,0,12.16,8.69A26.29,26.29,0,0,1,458.05,430.66Z" transform="translate(0)"/></svg>