<svg width="13px" height="18px" viewBox="0 0 13 18" version="1.1" xmlns="http://www.w3.org/2000/svg" xmlns:xlink="http://www.w3.org/1999/xlink">
    <g stroke="none" stroke-width="1" fill="none" fill-rule="evenodd">
        <g transform="translate(-478.000000, -663.000000)" fill="#000000">
            <g transform="translate(478.000000, 663.000000)">
                <path d="M12.4482857,1.09028571 L12.4482857,16.9071429 C12.4457143,17.5088571 11.9597143,17.9974286 11.358,17.9974286 L1.09028571,17.9974286 C0.488571429,17.9974286 0.00257142857,17.5114286 0,16.9097143 L0,1.09028571 C0.00257142857,0.488571429 0.488571429,0.00257142857 1.09028571,0 L11.3605714,0 C11.9622857,0.00257142857 12.4482857,0.488571429 12.4482857,1.09028571 L12.4482857,1.09028571 Z M10.5968571,13.7262857 L10.5968571,2.02371429 C10.5968571,1.94142857 10.5325714,1.87714286 10.4477143,1.87457143 L1.998,1.87457143 C1.91828571,1.87457143 1.85142857,1.94142857 1.85142857,2.02371429 L1.85142857,13.7262857 C1.85142857,13.8085714 1.91828571,13.8728571 2.00057143,13.8728571 L10.4502857,13.8728571 C10.5325714,13.8754286 10.5968571,13.8085714 10.5968571,13.7262857 L10.5968571,13.7262857 Z M6.21,14.9991429 C5.69314286,14.9991429 5.27142857,15.4182857 5.27142857,15.9377143 C5.27142857,16.4571429 5.69057143,16.8762857 6.21,16.8762857 C6.72942857,16.8762857 7.14857143,16.4571429 7.14857143,15.9377143 C7.14857143,15.4182857 6.72685714,14.9991429 6.21,14.9991429 L6.21,14.9991429 Z"></path>
            </g>
        </g>
    </g>
</svg>