<?xml version="1.0" encoding="UTF-8"?>
<svg width="14px" height="12px" viewBox="0 0 14 12" version="1.1" xmlns="http://www.w3.org/2000/svg" xmlns:xlink="http://www.w3.org/1999/xlink">
    <!-- Generator: Sketch 44.1 (41455) - http://www.bohemiancoding.com/sketch -->
    <title>ico_menu purple</title>
    <desc>Created with Sketch.</desc>
    <defs></defs>
    <g id="ikoner" stroke="none" stroke-width="1" fill="none" fill-rule="evenodd">
        <g id="MEDIA-ICONS" transform="translate(-724.000000, -903.000000)" fill="#990AE3">
            <g id="ico_menu-purple" transform="translate(724.000000, 903.234375)">
                <g id="Layer_1">
                    <g id="Group">
                        <path d="M12.8210138,9.32640828 L1.16700001,9.32640828 C0.521153428,9.32640828 0,9.84756171 0,10.490211 C0,11.1328603 0.521153428,11.657211 1.16700001,11.657211 L12.8210138,11.657211 C13.4636631,11.657211 13.9880138,11.1360576 13.9880138,10.490211 C13.9880138,9.84436445 13.4668604,9.32640828 12.8210138,9.32640828 L12.8210138,9.32640828 Z" id="Shape"></path>
                        <path d="M12.8210138,4.66160551 L1.16700001,4.66160551 C0.521153428,4.66160551 0,5.1859562 0,5.82860552 C0,6.47125484 0.521153428,6.99560553 1.16700001,6.99560553 L12.8210138,6.99560553 C13.4636631,6.99560553 13.9880138,6.4744521 13.9880138,5.82860552 C13.9880138,5.18275894 13.4668604,4.66160551 12.8210138,4.66160551 L12.8210138,4.66160551 Z" id="Shape"></path>
                        <path d="M1.16700001,2.33080275 L12.8210138,2.33080275 C13.4636631,2.33080275 13.9880138,1.80964933 13.9880138,1.16380275 C13.9880138,0.517956168 13.4668604,0 12.8210138,0 L1.16700001,0 C0.521153428,0 0,0.521153428 0,1.16700001 C0,1.81284659 0.521153428,2.33080275 1.16700001,2.33080275 L1.16700001,2.33080275 Z" id="Shape"></path>
                    </g>
                </g>
            </g>
        </g>
    </g>
</svg>