<svg width="16px" height="13px" viewBox="0 0 16 13" version="1.1" xmlns="http://www.w3.org/2000/svg" xmlns:xlink="http://www.w3.org/1999/xlink">
    <g stroke="none" stroke-width="1" fill="none" fill-rule="evenodd">
        <g transform="translate(-386.000000, -605.000000)" fill="#000000">
            <g transform="translate(386.000000, 605.000000)">
                <path d="M7.98727634,9.5849124 C7.15387674,9.5849124 6.47952286,10.2793763 6.47952286,11.1376289 C6.47952286,11.9958815 7.15387674,12.6903454 7.98727634,12.6903454 C8.82067594,12.6903454 9.49502982,11.9958815 9.49502982,11.1376289 C9.49502982,10.2826521 8.82067594,9.5849124 7.98727634,9.5849124 L7.98727634,9.5849124 Z"></path>
                <path d="M7.98727634,4.77935311 C6.40954274,4.77935311 4.8222664,5.40175002 3.61988072,6.64326806 C3.16819085,7.10842786 3.16819085,7.86513147 3.61988072,8.33356704 C4.07157058,8.79872683 4.80636183,8.79872683 5.2612326,8.33356704 C6.01829026,7.55720879 6.99801193,7.17066755 7.99045726,7.17066755 C8.97972167,7.17066755 9.95944334,7.55720879 10.716501,8.33356704 C11.1681909,8.79872683 11.9029821,8.8020026 12.3578529,8.33356704 C12.8095427,7.86840724 12.8127237,7.11170363 12.3578529,6.64326806 C11.1522863,5.40175002 9.56500994,4.77607733 7.98727634,4.77935311 L7.98727634,4.77935311 Z"></path>
                <path d="M15.6341948,3.26267011 C13.5252485,1.09083248 10.7514911,0 7.99045726,0 C5.22306163,0 2.44930417,1.09083248 0.340357853,3.26267011 C-0.111332008,3.72782991 -0.111332008,4.48453352 0.340357853,4.95296909 C0.792047714,5.41812888 1.52683897,5.41812888 1.98170974,4.95296909 C3.64214712,3.24301547 5.81153082,2.39131444 7.99045726,2.38803867 C10.1662028,2.38803867 12.3324056,3.2397397 13.9960239,4.95296909 C14.4477137,5.41812888 15.182505,5.42140466 15.6373757,4.95296909 C16.0858847,4.48780929 16.0858847,3.73110568 15.6341948,3.26267011 L15.6341948,3.26267011 Z"></path>
            </g>
        </g>
    </g>
</svg>