<?xml version="1.0" encoding="UTF-8"?>
<svg width="28px" height="25px" viewBox="0 0 28 25" version="1.1" xmlns="http://www.w3.org/2000/svg" xmlns:xlink="http://www.w3.org/1999/xlink">
    <!-- Generator: Sketch 49.1 (51147) - http://www.bohemiancoding.com/sketch -->
    <title>router_refill_icon</title>
    <desc>Created with Sketch.</desc>
    <defs></defs>
    <g id="Page-1" stroke="none" stroke-width="1" fill="none" fill-rule="evenodd">
        <g id="Example---productlist-Copy-2" transform="translate(-45.000000, -334.000000)" fill="#000000">
            <g id="router_refill_icon" transform="translate(45.000000, 334.000000)">
                <path d="M11.6987252,5.19945548 L8.64654452,5.19945548 L8.64654452,2.15438022 C8.64654452,1.35677161 7.99989505,0.710122151 7.20228645,0.710122151 C6.40461763,0.710122151 5.75802839,1.35677161 5.75802839,2.15438022 L5.75802839,5.20656086 L2.7128929,5.20656086 C1.9152843,5.20656086 1.26869505,5.85321032 1.26869505,6.65087914 C1.26869505,7.44848774 1.9152843,8.0951372 2.7128929,8.0951372 L5.76513376,8.0951372 L5.76513376,11.1473178 C5.76513376,11.6633006 6.04037677,12.1400834 6.48723269,12.3980447 C6.9340886,12.6560662 7.48469505,12.6560662 7.93149075,12.3980447 C8.37834667,12.1400834 8.65371011,11.6633006 8.65371011,11.1473178 L8.65371011,8.08803183 L11.7058305,8.08803183 C12.5034994,8.08803183 13.1501488,7.44138237 13.1501488,6.64371355 C13.1501488,5.84610495 12.5034994,5.19945548 11.7058305,5.19945548" id="Fill-1"></path>
                <path d="M14.8860103,4.50371871 C14.4829308,4.1448972 14.4470426,3.52721118 14.8059243,3.12413161 L14.8073092,3.12250581 C18.1475587,-0.640152258 23.9054426,-0.982715699 27.6682211,2.3572929 C28.071963,2.71539183 28.1089351,3.33301763 27.7507157,3.73675957 C27.3926168,4.14044129 26.774991,4.17741333 26.3713092,3.81925419 C23.4157738,1.19604559 18.893563,1.46490581 16.269692,4.41971871 L16.2655974,4.42423484 C15.9065953,4.82719398 15.2889092,4.86272086 14.8860103,4.50371871" id="Fill-3"></path>
                <path d="M17.8102039,7.09731957 C17.4074254,6.73837763 17.3717178,6.12093247 17.7304791,5.71797333 C19.6379114,3.56931957 22.9257135,3.37307871 25.0751501,5.27960774 C25.4788318,5.63776688 25.5158039,6.25539269 25.1577049,6.65907441 C24.7994856,7.06281634 24.18192,7.09972817 23.7781781,6.74156903 C22.4363458,5.55087656 20.383434,5.67287226 19.1920791,7.01404215 L19.1891888,7.01729376 C18.8303673,7.41995183 18.213163,7.45577978 17.8102039,7.09731957" id="Fill-6"></path>
                <path d="M21.2711002,21.2890804 C20.5794099,21.2890804 20.0186271,20.7282976 20.0186271,20.0366073 C20.0186271,19.344917 20.5794099,18.7841342 21.2711002,18.7841342 C21.9627905,18.7841342 22.5235733,19.344917 22.5235733,20.0366073 C22.5235733,20.7282976 21.9627905,21.2890804 21.2711002,21.2890804 L21.2706787,21.2890804 L21.2711002,21.2890804 Z M16.260726,21.2890804 C15.5690357,21.2890804 15.0082529,20.7282976 15.0082529,20.0366073 C15.0082529,19.344917 15.5690357,18.7841342 16.260726,18.7841342 C16.9524163,18.7841342 17.5131991,19.344917 17.5131991,20.0366073 C17.5131991,20.7282976 16.9524163,21.2890804 16.260726,21.2890804 L16.2603045,21.2890804 L16.260726,21.2890804 Z M11.2503518,21.1378804 L4.98750452,21.1378804 C4.29744,21.1378804 3.73804215,20.5784826 3.73804215,19.8884181 C3.73804215,19.1983535 4.29744,18.6389557 4.98750452,18.6389557 L11.2503518,18.6389557 C11.9404163,18.6389557 12.4998142,19.1983535 12.4998142,19.8884181 C12.4998142,20.5784826 11.9404163,21.1378804 11.2503518,21.1378804 Z M22.5869196,14.8453471 L22.4903948,14.8453471 L22.4903948,9.06120946 C22.4903948,8.37114495 21.930997,7.8117471 21.2409325,7.8117471 C20.550868,7.8117471 19.9914701,8.37114495 19.9914701,9.06120946 L19.9914701,14.8453471 L4.90139699,14.8453471 C2.13439484,14.8453471 1.20430108e-05,17.0560826 1.20430108e-05,19.8229643 L1.20430108e-05,19.8616224 C1.20430108e-05,22.6285643 2.13439484,24.9314288 4.90139699,24.9314288 L22.5869196,24.9314288 C25.3538615,24.9314288 27.4882443,22.6285643 27.4882443,19.8616224 L27.4882443,19.8229643 C27.4882443,17.0560826 25.3538615,14.8453471 22.5869196,14.8453471 Z" id="Fill-8"></path>
            </g>
        </g>
    </g>
</svg>