<svg xmlns="http://www.w3.org/2000/svg" xmlns:xlink="http://www.w3.org/1999/xlink" viewBox="0 0 303.25 332.98">
    <g>
        <path d="M347.37,334.19a84.14,84.14,0,0,0,36.32-68.64v-.78A83.67,83.67,0,0,0,359,205.25a85.19,85.19,0,0,0-19.43-14.52A83.68,83.68,0,0,0,308.1,181a83.08,83.08,0,0,0-23.91,1h-1.68c-2.66.56-5.33,1.26-7.92,2a84.14,84.14,0,0,0-59.32,80.77A85.62,85.62,0,0,0,217,281.67h0a73.75,73.75,0,0,0,2,7.86h0a84.12,84.12,0,0,0,61.14,56.65,42.76,42.76,0,0,1,62.05,38.28v4.42a42.77,42.77,0,0,1-72,26.92,154.27,154.27,0,0,1-79.79-42.07c-3-3-5.89-6.24-8.7-9.53-29.8,24.54-32.6,55-33.79,75.93a17.31,17.31,0,0,0,11.57,16.27c16.54,4.35,50,10.45,140.23,10.45S423,460.75,439.92,456.4a17.32,17.32,0,0,0,11.22-16.55c-1.33-31.76-7-85-103.21-105.94" transform="translate(-147.89 -133.87)"></path><path d="M299.41,133.87a130.92,130.92,0,0,0-117.31,73,31.05,31.05,0,0,0-29.16,24,147.14,147.14,0,0,0,0,67.94,31.06,31.06,0,0,0,29.16,24,130.91,130.91,0,0,0,100.48,71.8,19.44,19.44,0,1,0,2.95-23.14A107.65,107.65,0,0,1,204,314.63,111.64,111.64,0,0,1,199.21,304l-.84-2.31c-1.05-3-2-6-2.87-9a13.67,13.67,0,0,0-.84-3.22c-.71-2.95-1.27-6-1.69-9a27.1,27.1,0,0,0-.49-3.3,99.11,99.11,0,0,1,0-24.82,7.7,7.7,0,0,1,.49-3.29c.42-3,1-6,1.69-9a14.61,14.61,0,0,1,.84-3.22c.84-3.09,1.75-6.1,2.87-9.05l.84-2.24a107.56,107.56,0,0,1,208.11,39.19,11.71,11.71,0,0,0,23.42,0,131,131,0,0,0-131-131h-.35" transform="translate(-147.89 -133.87)"></path>
    </g>
</svg>