<?xml version="1.0" encoding="UTF-8"?>
<svg xmlns="http://www.w3.org/2000/svg" id="Layer_1" data-name="Layer 1" viewBox="0 0 1706.91 591.7">
   <title>Home_TS_Icon_700px_B</title>
    <g transform="translate(0 0)" fill="#000">
        <path d="M614.94,300.92l-234-234a43.85,43.85,0,0,0-61.87,0l-223,223h0l-11,11c-34,34-22.5,61.87,25.62,61.87h8.22V645.85H264.75v-181A21.88,21.88,0,0,1,286.63,443H413.38a21.88,21.88,0,0,1,21.88,21.88v181H581.08V362.78h8.22C637.42,362.78,649,334.94,614.94,300.92Z" transform="translate(-65.52 -54.15)" />
    </g>
    <g transform="translate(595 0)" fill="#fff">
        <path d="M614.94,300.92l-234-234a43.85,43.85,0,0,0-61.87,0l-223,223h0l-11,11c-34,34-22.5,61.87,25.62,61.87h8.22V645.85H264.75v-181A21.88,21.88,0,0,1,286.63,443H413.38a21.88,21.88,0,0,1,21.88,21.88v181H581.08V362.78h8.22C637.42,362.78,649,334.94,614.94,300.92Z" transform="translate(-65.52 -54.15)" />
    </g>
    <g transform="translate(1190 0)" fill="#990AE3">
        <path d="M614.94,300.92l-234-234a43.85,43.85,0,0,0-61.87,0l-223,223h0l-11,11c-34,34-22.5,61.87,25.62,61.87h8.22V645.85H264.75v-181A21.88,21.88,0,0,1,286.63,443H413.38a21.88,21.88,0,0,1,21.88,21.88v181H581.08V362.78h8.22C637.42,362.78,649,334.94,614.94,300.92Z" transform="translate(-65.52 -54.15)" />
    </g>
</svg>