<svg width="45px" height="45px" viewBox="8 0 25 35" version="1.1" xmlns="http://www.w3.org/2000/svg" xmlns:xlink="http://www.w3.org/1999/xlink">
    <g stroke="none" stroke-width="1" fill="none" fill-rule="evenodd">
        <g transform="translate(12.000000, 12.000000)" fill="#000000" fill-rule="nonzero">
            <path d="M18.832626,8 L19.5778228,7.33346309 C20.8025888,6.24982937 21.2823963,4.66733557 20.836022,3.18368977 C20.3896477,1.70004397 19.0851235,0.541368472 17.4151682,0.145295149 C15.7452129,-0.250778175 13.9643443,0.176116168 12.7451967,1.26474014 L12,1.9268629 L18.832626,8 Z"></path>
            <path d="M16,11.2425733 L9.75491725,5 L2.44286207,12.3105014 L2.44286207,12.3150426 C1.80017155,12.9558451 1.37345824,13.7810453 1.22216687,14.6756859 L0.027218329,19.4438978 C-0.129533475,20.3521287 0.405845875,21 1.24488452,21 C1.34945694,20.9989014 1.45377862,20.9895376 1.55687362,20.9719962 L6.3275807,19.7776727 C7.22369777,19.625526 8.05051251,19.1992449 8.69400287,18.5576159 L9.37553245,17.8764428 L16,11.2425733 Z"></path>
        </g>
    </g>
</svg>