<svg id="Layer_1" data-name="Layer 1" xmlns="http://www.w3.org/2000/svg" viewBox="0 0 459.8 463.27"><title>Rocket_icon_RGB_Black</title><path fill="#000000" d="M116.33,401.65l-91.9,79.68c-1.76,1.39-5.43-2.32-4-4.07l80.77-90.93c2.25-2.54,7.27-1.45,11.06,2.38l1.83,1.85C117.87,394.39,118.89,399.43,116.33,401.65Zm-73.6-4.09L125.36,327c2.31-2,1.07-6.79-2.71-10.62l-1.84-1.86c-3.78-3.83-8.6-5.12-10.59-2.84L38.72,393.5C37.47,395.07,41.14,398.79,42.73,397.56Zm166.93-37.15c-3.79-3.83-9.15-4.57-11.81-1.64L102.39,464.21c-1.68,2,2,5.73,4,4.07L213,374.1c3-2.62,2.29-8-1.5-11.83Zm143.35-71-.69-.18a141.48,141.48,0,0,1-41.51,96.63h0l-55.67-55.68h0a62.18,62.18,0,0,1-81.58,1.92L135.69,365c-1.77,1.39-5.44-2.32-4-4.07l33.25-37.43a62.19,62.19,0,0,1,2.35-81.06s0,0,0,0l-57.16-57.17s0,0,0,0a141.44,141.44,0,0,1,100-41.55c12.43-15.63,115.75-139,268.54-124a0,0,0,0,1,0,0C494.66,182.72,353,289.45,353,289.45Zm33.62-134a43.76,43.76,0,1,0-43.76,43.75A43.76,43.76,0,0,0,386.63,155.4Z" transform="translate(-20.1 -18.37)"/></svg>