<?xml version="1.0" encoding="UTF-8" standalone="no"?>
<svg
   xmlns:dc="http://purl.org/dc/elements/1.1/"
   xmlns:cc="http://creativecommons.org/ns#"
   xmlns:rdf="http://www.w3.org/1999/02/22-rdf-syntax-ns#"
   xmlns:svg="http://www.w3.org/2000/svg"
   xmlns="http://www.w3.org/2000/svg"
   version="1.1"
   id="svg4765"
   viewBox="0 0 17 16">
  <g
     id="g4767"
     fill-rule="evenodd"
     fill="none">
    <path
       style="fill:#000000"
       id="path4769"
       d="M 3.8495827,9.326 1.167,9.326 c -1.55399933,0 -1.55399933,2.331 0,2.331 l 2.6825827,0 c 1.60019,0.04688 1.60019,-2.3778772 0,-2.331 z M 6.8400551,4.662 1.167,4.662 c -1.55599929,0 -1.55599929,2.334 0,2.334 l 5.6730551,0 c 1.555999,0 1.555999,-2.334 0,-2.334 z M 1.167,2.33 l 10.932162,0 c 1.619039,0.067097 1.619039,-2.39709694 0,-2.33 L 1.167,0 c -1.55333266,0 -1.55333266,2.33 0,2.33 z" />
  </g>
  <g
     transform="translate(-1074.5724,-147.56616)"
     id="g5346">
    <path
       d="M 440.67,157.71"
       id="path5334" />
    <path
       style="fill:#ffffff"
       d="M 1035.49,157.71"
       id="path5336" />
    <path
       style="fill:#990ae3"
       d="M 1630.31,157.71"
       id="path5338" />
  </g>
  <g
     transform="translate(-1059.4067,-160.51208)"
     id="g5365">
    <path
       d="M 440.67,157.71"
       id="path5353" />
    <path
       style="fill:#ffffff"
       d="M 1035.49,157.71"
       id="path5355" />
    <path
       style="fill:#990ae3"
       d="M 1630.31,157.71"
       id="path5357" />
  </g>
  <g
     transform="translate(-512.12833,-143.66833)"
     style="fill:#000000"
     id="g5949">
    <path
       d="M 507.75,250.64"
       transform="translate(-67.08,-92.93)"
       id="path5951" />
  </g>
  <g
     transform="translate(-503.81583,-152.2725)"
     style="fill:#000000"
     id="g5964">
    <path
       d="M 507.75,250.64"
       transform="translate(-67.08,-92.93)"
       id="path5966" />
  </g>
  <g transform="translate(7 5) scale(0.017)" fill="#000">
        <path d="M507.75,250.64a157.46,157.46,0,0,1-67.95,129.56c180,39.29,190.52,138.93,193.09,198.23.54,12.67-8.79,27.8-21,31-31,8.13-93.57,19.5-261.83,19.5s-230.8-11.36-261.85-19.5c-12.28-3.22-21.6-18.34-21.06-31,2.56-59.3,13.12-158.94,193.1-198.23A157.69,157.69,0,1,1,507.75,250.64Z" transform="translate(-67.08 -92.93)" />
    </g>
</svg>
