<svg id="Layer_1" data-name="Layer 1" xmlns="http://www.w3.org/2000/svg" viewBox="0 0 592.48 592.48"><title>five_icon</title><path d="M521.63,0H70.85A71.06,71.06,0,0,0,0,70.85V521.63a71.06,71.06,0,0,0,70.85,70.85H521.63a71.06,71.06,0,0,0,70.85-70.85V70.85A71.06,71.06,0,0,0,521.63,0ZM153.52,520.32a58.86,58.86,0,1,1,58.86-58.86h0A58.86,58.86,0,0,1,153.52,520.32Zm0-330.45A58.86,58.86,0,1,1,212.38,131a58.86,58.86,0,0,1-58.86,58.86ZM296.24,355.1a58.86,58.86,0,1,1,58.86-58.86h0A58.86,58.86,0,0,1,296.24,355.1ZM439,520.32a58.86,58.86,0,1,1,58.86-58.86h0A58.86,58.86,0,0,1,439,520.32Zm0-330.45A58.86,58.86,0,1,1,497.82,131,58.86,58.86,0,0,1,439,189.87Z" transform="translate(0)"/></svg>