<svg id="Layer_1" data-name="Layer 1" xmlns="http://www.w3.org/2000/svg" viewBox="0 0 534 623.76"><title>gift_icon</title><path d="M126,639.56c0,13.53,13.81,22.44,27.34,22.44H326V382H126Z" transform="translate(-83 -38.24)"/><path d="M602.3,236h-175A98.49,98.49,0,0,0,526,137.22c0-54.74-45.1-98.84-99.84-98.84a101,101,0,0,0-75.94,34.68,99.39,99.39,0,0,0-75.51-34.82c-54.75,0-99.54,44.23-99.54,99S219.71,236,274.46,236h-175C90.57,236,83,243.92,83,252.79v68.8C83,330.46,90.57,339,99.43,339H326V236h48V339H602.3c8.87,0,14.7-8.54,14.7-17.41v-68.8C617,243.92,611.17,236,602.3,236ZM326,193H274.46c-29.53,0-54.1-24.89-54.1-54.41s23.57-54.45,53.1-54.45S326,108.2,326,137.72Zm48-55.28a53.09,53.09,0,0,1,53.41-53.07c29.52,0,53.35,24.42,53.35,53.94S456.8,193,427.28,193H374Z" transform="translate(-83 -38.24)"/><path d="M572.28,382H374V662H548.4c13.53,0,25.6-8.91,25.6-22.44v-258C574,381.21,572.62,382,572.28,382Z" transform="translate(-83 -38.24)"/></svg>