<svg width="17px" height="17px" viewBox="0 0 17 17" version="1.1" xmlns="http://www.w3.org/2000/svg" xmlns:xlink="http://www.w3.org/1999/xlink">
    <g stroke="none" stroke-width="1" fill="none" fill-rule="evenodd">
        <g transform="translate(-657.000000, -603.000000)" fill="#000000">
            <g transform="translate(657.000000, 603.000000)">
                <path d="M14.4906051,14.4878981 C11.1745223,17.8039809 5.80111465,17.8039809 2.48503185,14.4878981 C-0.828343949,11.1718153 -0.828343949,5.79840764 2.48503185,2.48503185 C5.80111465,-0.828343949 11.1745223,-0.828343949 14.4906051,2.48503185 C17.8039809,5.80111465 17.8039809,11.1745223 14.4906051,14.4878981 L14.4906051,14.4878981 Z M9.76958599,13.3428344 L9.76958599,7.53359873 C9.76958599,6.82436306 9.19570064,6.25047771 8.48646497,6.25047771 C7.7772293,6.25047771 7.20334395,6.82436306 7.20334395,7.53359873 L7.20334395,13.3428344 C7.20334395,14.0520701 7.7772293,14.6259554 8.48646497,14.6259554 C9.19570064,14.6259554 9.76958599,14.0520701 9.76958599,13.3428344 L9.76958599,13.3428344 Z M8.48646497,4.95111465 C9.19570064,4.95111465 9.76958599,4.3772293 9.76958599,3.66799363 C9.76958599,2.95875796 9.19570064,2.38487261 8.48646497,2.38487261 C7.7772293,2.38487261 7.20334395,2.95875796 7.20334395,3.66799363 C7.20605096,4.3772293 7.77993631,4.95111465 8.48646497,4.95111465 L8.48646497,4.95111465 Z"></path>
            </g>
        </g>
    </g>
</svg>