<svg id="Layer_1" data-name="Layer 1" xmlns="http://www.w3.org/2000/svg" viewBox="0 0 700 700"><defs><style>.cls-1{fill:#000000;}</style></defs><title>Artboard 3</title><path class="cls-1" d="M463.21,14.61H145.85a43.87,43.87,0,0,0-43.74,43.75V641.64a43.87,43.87,0,0,0,43.74,43.75h408.3a43.87,43.87,0,0,0,43.74-43.75V150Zm-244.45,576a21.87,21.87,0,1,1-43.74,0V558.5a21.87,21.87,0,0,1,43.74,0Zm0-108.65A21.87,21.87,0,0,1,175,482v-32.1a21.87,21.87,0,0,1,43.74,0Zm0-108.65a21.87,21.87,0,0,1-43.74,0V341.2a21.87,21.87,0,0,1,43.74,0Zm93,239.18H273.44a21.88,21.88,0,0,1,0-43.75h38.28a21.88,21.88,0,1,1,0,43.75Zm0-249.41H273.44a21.87,21.87,0,0,1,0-43.74h38.28a21.87,21.87,0,1,1,0,43.74ZM426.56,612.48H388.28a21.88,21.88,0,1,1,0-43.75h38.28a21.88,21.88,0,0,1,0,43.75Zm0-249.41H388.28a21.87,21.87,0,1,1,0-43.74h38.28a21.87,21.87,0,0,1,0,43.74ZM525,590.6a21.87,21.87,0,1,1-43.74,0V558.5a21.87,21.87,0,0,1,43.74,0ZM525,482a21.87,21.87,0,0,1-43.74,0v-32.1a21.87,21.87,0,0,1,43.74,0Zm0-108.65a21.87,21.87,0,0,1-43.74,0V341.2a21.87,21.87,0,0,1,43.74,0Z"/></svg>