<svg width="16px" height="18px" viewBox="0 0 16 18" version="1.1" xmlns="http://www.w3.org/2000/svg" xmlns:xlink="http://www.w3.org/1999/xlink">
    <g stroke="none" stroke-width="1" fill="none" fill-rule="evenodd">
        <g transform="translate(-387.000000, -361.000000)" fill="#000000">
            <g transform="translate(387.000000, 361.000000)">
                <path d="M9.97594484,3.27799985 C10.1970996,3.49883912 10.4901963,3.61857126 10.79928,3.61857126 L13.2239888,3.61857126 L9.63488689,0.015964285 L9.63488689,2.45583917 C9.63488689,2.76448201 9.75745459,3.05716057 9.97594484,3.27799985 L9.97594484,3.27799985 Z"></path>
                <path d="M12.8376341,15.5997671 L12.5978278,15.8365707 C12.3846666,16.0494278 12.1342021,16.2197135 11.8650861,16.3500885 C11.76117,16.4432135 11.6252797,16.5044099 11.4734024,16.5044099 L11.4707379,16.5044099 C11.3774798,16.5336778 11.2842218,16.5629457 11.1856347,16.5815707 L9.54429338,16.9913206 L9.50166114,17.0019635 L9.45902889,17.0099456 C9.3551128,17.0285706 9.25119671,17.0365528 9.14994513,17.0365528 C8.68099046,17.0365528 8.24667449,16.8423206 7.94824879,16.5044099 L1.76124453,16.5044099 C1.4388382,16.5044099 1.17771571,16.24366 1.17771571,15.9217135 C1.17771571,15.5997671 1.4388382,15.3390171 1.76124453,15.3390171 L7.56189408,15.3390171 C7.5645586,15.2698386 7.5645586,15.1979993 7.57521666,15.12616 L7.58321021,15.0835886 L7.59386827,15.0410172 L7.99621006,13.4392672 L1.76124453,13.4392672 C1.4388382,13.4392672 1.17771571,13.1785172 1.17771571,12.8565708 C1.17771571,12.5346244 1.4388382,12.2738744 1.76124453,12.2738744 L8.513126,12.2738744 C8.54510019,12.2339637 8.57174534,12.1887316 8.60638403,12.1514816 L8.61970661,12.1275351 L8.75293237,11.9944994 L10.3729576,10.3767852 L1.76124453,10.3767852 C1.4388382,10.3767852 1.17771571,10.1160352 1.17771571,9.79408883 C1.17771571,9.47214241 1.4388382,9.21139242 1.76124453,9.21139242 L11.4760669,9.21139242 C11.4947185,9.21139242 11.5133701,9.21405314 11.5346862,9.21671385 L12.3926601,8.35996389 C12.6377955,8.11517819 12.9202341,7.92626749 13.2266534,7.79323178 L13.2266534,4.78396406 L10.8046091,4.78396406 L10.8019445,4.78396406 C10.1571319,4.78396406 9.57626756,4.52321407 9.15527416,4.10282124 C8.73428076,3.6824284 8.47315828,3.099732 8.47315828,2.45583917 L8.47315828,0.015964285 L1.17771571,0.015964285 C0.535567551,0.015964285 0.0106580607,0.540124975 0.0106580607,1.17869637 L0.0106580607,10.8982852 L0.0106580607,16.6986421 C0.0106580607,17.3398742 0.535567551,17.8640349 1.17771571,17.8640349 L12.0569312,17.8640349 C12.6990794,17.8640349 13.2213243,17.3398742 13.2213243,16.6986421 L13.2213243,15.2139636 L12.8376341,15.5997671 L12.8376341,15.5997671 Z M1.76124453,6.15157114 L11.4760669,6.15157114 C11.7984732,6.15157114 12.0595957,6.41232113 12.0595957,6.73426754 C12.0595957,7.05621395 11.7984732,7.31696394 11.4760669,7.31696394 L1.76124453,7.31696394 C1.4388382,7.31696394 1.17771571,7.05621395 1.17771571,6.73426754 C1.17771571,6.41232113 1.4388382,6.15157114 1.76124453,6.15157114 L1.76124453,6.15157114 Z"></path>
                <g transform="translate(8.712965, 8.727142)">
                    <path d="M6.4587848,2.89485701 L6.69859117,2.65273202 C7.30610063,2.04608919 7.30610063,1.06428566 6.69859117,0.457642836 C6.39483643,0.154321421 5.99782367,0.00266071416 5.5981464,0.00266071416 C5.20113363,0.00266071416 4.80145636,0.154321421 4.49770163,0.457642836 L4.25789526,0.69710711 L6.4587848,2.89485701 L6.4587848,2.89485701 Z"></path>
                    <path d="M5.63544961,3.7196784 L3.43722458,1.5219285 L0.863302919,4.09217838 L0.863302919,4.09483909 C0.628825583,4.32898194 0.484941763,4.6216605 0.434315975,4.92498191 L0.0133225759,6.60123183 C-0.0426322429,6.92051753 0.146548335,7.14933895 0.44230952,7.14933895 C0.476948217,7.14933895 0.51425143,7.14667824 0.551554642,7.13869609 L2.23019921,6.71830326 C2.53661845,6.66508897 2.82705061,6.52407112 3.06152794,6.28992828 L3.30133431,6.050464 L3.30133431,6.050464 L5.63544961,3.7196784 L5.63544961,3.7196784 Z"></path>
                </g>
            </g>
        </g>
    </g>
</svg>