<?xml version="1.0" encoding="utf-8"?>
<!-- Generator: Adobe Illustrator 23.0.2, SVG Export Plug-In . SVG Version: 6.00 Build 0)  -->
<svg version="1.1" id="Layer_1" xmlns="http://www.w3.org/2000/svg" xmlns:xlink="http://www.w3.org/1999/xlink" x="0px" y="0px"
	 viewBox="0 0 565.8 536" style="enable-background:new 0 0 565.8 536;" xml:space="preserve">

<title>Login icon</title>
<path d="M419.1,184.2c0,44.6-21.9,86.5-58.7,111.8C515.9,329.9,525,416,527.2,467.2c0.5,10.9-7.6,24-18.2,26.7
	c-26.7,7.1-80.8,16.9-226.1,16.9S83.5,501,56.8,494c-10.6-2.8-18.6-15.8-18.2-26.7c2.2-51.2,11.3-137.3,166.7-171.2
	c-61.9-42.8-77.2-127.7-34.4-189.5s127.7-77.2,189.5-34.4C397.1,97.6,419.1,139.5,419.1,184.2z"
    fill="none" stroke="#000" stroke-width="30" stroke-linejoin="round" stroke-miterlimit="10"/>
</svg>
