<svg id="Layer_1" data-name="Layer 1" xmlns="http://www.w3.org/2000/svg" xmlns:xlink="http://www.w3.org/1999/xlink" viewBox="0 0 313.77 217.3"><defs><style>.cls-1{fill:none;}.cls-2{clip-path:url(#clip-path);}</style><clipPath id="clip-path" transform="translate(-295 -340.11)"><rect class="cls-1" x="376.99" y="340.11" width="150.28" height="217.28"/></clipPath></defs><title>data_freedom_icon_v2</title><g class="cls-2"><path d="M527.27,353.28v191a13.19,13.19,0,0,1-13.15,13.18h-124A13.19,13.19,0,0,1,377,544.24v-191a13.19,13.19,0,0,1,13.16-13.17h124a13.19,13.19,0,0,1,13.15,13.17M504.92,505.81V364.53a1.79,1.79,0,0,0-1.79-1.79h-102a1.79,1.79,0,0,0-1.76,1.81V505.81a1.79,1.79,0,0,0,1.79,1.79h102a1.79,1.79,0,0,0,1.77-1.79m-53,15.37a11.32,11.32,0,1,0,11.32,11.32,11.31,11.31,0,0,0-11.32-11.32" transform="translate(-295 -340.11)"/></g><path d="M372.4,391.89c-20.73-17-71-36.35-76.6-21.53-4,10.59,7.76,22.75,18.76,28.94,0,0-9.67-1-9.84,7.76,0,6.78,3.41,13.32,15.57,19.92,0,0-7.06,0-7.41,5.79s5.21,12.16,16.38,16.61c0,0-7.52-1.5-5.27,6.43,2.73,9.84,29.71,19.86,49.68,12.85a34.19,34.19,0,0,0,4.22-1.82V397.35A53.39,53.39,0,0,0,372.4,391.89Z" transform="translate(-295 -340.11)"/><path d="M531.38,391.89c20.73-17,71-36.35,76.6-21.53,4,10.59-7.76,22.75-18.76,28.94,0,0,9.67-1,9.84,7.76,0,6.78-3.41,13.32-15.57,19.92,0,0,7.06,0,7.41,5.79s-5.21,12.16-16.39,16.61c0,0,7.53-1.5,5.27,6.43-2.72,9.84-29.7,19.86-49.67,12.85a33.55,33.55,0,0,1-4.22-1.82V397.35A52.41,52.41,0,0,1,531.38,391.89Z" transform="translate(-295 -340.11)"/></svg>