<svg xmlns="http://www.w3.org/2000/svg" viewBox="0 0 670.83 670.83">
    <g transform="translate(0 0)" fill="#000000">
        <path d="M613.5,51A36.45,36.45,0,0,0,577,14.58H504.12A36.46,36.46,0,0,0,467.66,51V597.92H613.5Z" transform="translate(-15.58 -14.58)" />
        <path d="M423.91,269.79a36.45,36.45,0,0,0-36.46-36.46H314.54a36.45,36.45,0,0,0-36.46,36.46V597.92H423.91Z" transform="translate(-15.58 -14.58)" />
        <path d="M234.33,488.54a36.46,36.46,0,0,0-36.46-36.46H125A36.46,36.46,0,0,0,88.5,488.54V597.92H234.33Z" transform="translate(-15.58 -14.58)" />
        <path d="M662.54,641.67H37.46a21.87,21.87,0,1,0,0,43.75H662.54a21.88,21.88,0,1,0,0-43.75Z" transform="translate(-15.58 -14.58)" />
    </g>
</svg>