<svg xmlns="http://www.w3.org/2000/svg" viewBox="0 0 652.25 534.69">
    <title>TC-Silent-icon-black-700px</title>
    <path d="M360.69,92.15,216,235a74.73,74.73,0,0,0-6.38,6.51A97.76,97.76,0,0,0,197.9,241h-77A96.69,96.69,0,0,0,24,337.85v24.29A96.69,96.69,0,0,0,120.91,459h77a98.22,98.22,0,0,0,12.43-.63,36.64,36.64,0,0,0,4.73,5.82L359.69,606.86c22.81,22.48,61.31,6.36,61.31-25.67V118.81C421,87.44,383.86,71,360.69,92.15Z" transform="translate(-24 -82.64)"/><path d="M610.78,350l57.61-57.61a26.86,26.86,0,1,0-38-38L572.79,312l-57.61-57.61a26.86,26.86,0,1,0-38,38L534.81,350,477.2,407.61a26.86,26.86,0,0,0,38,38L572.79,388l57.61,57.61a26.86,26.86,0,1,0,38-38Z" transform="translate(-24 -82.64)"/>
</svg>