<?xml version="1.0" encoding="UTF-8"?>
<svg width="67px" height="73px" viewBox="0 0 67 73" version="1.1" xmlns="http://www.w3.org/2000/svg" xmlns:xlink="http://www.w3.org/1999/xlink">
    <!-- Generator: Sketch 48.2 (47327) - http://www.bohemiancoding.com/sketch -->
    <title>Shape</title>
    <desc>Created with Sketch.</desc>
    <defs></defs>
    <g id="B2B-Bestillingsløp-Desktop---1-Abonnementsdetaljer---Enkel-bestilling" stroke="none" stroke-width="1" fill="none" fill-rule="evenodd" transform="translate(-319.000000, -362.000000)">
        <path d="M385.964517,382.630118 C385.977976,382.054718 386,381.480552 386,380.901448 C386,380.180346 385.96207,379.492583 385.903339,378.824575 L385.887433,378.815932 C385.832187,378.094695 385.735362,377.377317 385.597449,376.667443 L385.576649,376.657565 C385.409536,375.809203 385.177172,374.975271 384.881667,374.163342 C384.881667,374.163342 384.881667,374.150994 384.881667,374.14482 C384.643059,373.4939 384.358884,372.860928 384.031293,372.250692 L384.011717,372.217354 C383.968892,372.137094 383.926067,372.054365 383.880796,371.970401 L383.873454,371.970401 C383.557217,371.400506 383.199785,370.854908 382.804064,370.338043 L382.795499,370.338043 C382.46219,369.899065 382.100882,369.482478 381.713873,369.090932 L381.704084,369.090932 C381.21698,368.587672 380.691254,368.124018 380.131811,367.704292 L380.119575,367.704292 C379.678149,367.377691 379.219453,367.075551 378.745518,366.79921 L378.728388,366.774514 C377.777912,366.226577 376.778824,365.769377 375.744128,365.408866 L375.68295,365.370588 C374.575125,364.98289 373.439089,364.68276 372.285126,364.472915 L372.26922,364.482793 C370.744491,364.205446 369.200473,364.049795 367.651508,364.017287 C367.388443,364.008643 367.121707,364 366.858642,364 C364.949037,364.004927 363.04112,364.114984 361.143397,364.329682 C361.143397,364.329682 361.143397,364.329682 361.143397,364.329682 C359.838268,364.475384 358.530283,364.668007 357.219443,364.907551 L357.179066,364.907551 C356.996756,364.94089 356.811998,364.977933 356.630912,365.012506 C354.484542,365.424443 352.360841,365.94869 350.268404,366.583126 L350.236592,366.593004 C343.919356,368.506888 337.878645,371.408583 332.862053,375.03632 C332.766615,375.104232 332.673625,375.174613 332.579411,375.24376 L332.409336,375.367236 C332.263733,375.474661 332.119353,375.582085 331.976196,375.691979 L331.937042,375.721614 C330.557642,376.76772 329.245011,377.900602 328.006971,379.11351 L327.976382,379.149318 C326.940374,380.168116 325.970528,381.253254 325.072876,382.397982 C324.95052,382.548623 324.8404,382.699264 324.725385,382.85114 L324.669101,382.923991 L324.669101,382.932635 C324.098337,383.698652 323.567412,384.49409 323.078475,385.315729 C322.561742,386.180518 322.10073,387.077991 321.6983,388.002575 C321.6983,388.002575 321.6983,388.002575 321.690959,388.002575 C321.285231,388.926474 320.946635,389.878932 320.677852,390.85241 C320.677852,390.869697 320.677852,390.885749 320.677852,390.901801 C320.418368,391.860974 320.232651,392.838931 320.122356,393.826957 C320.122356,393.826957 320.122356,393.836835 320.122356,393.841774 C320.045307,394.487595 320.004456,395.137292 320,395.787762 C320,395.812457 320,395.837152 320,395.861848 C320.008201,396.860477 320.095762,397.856833 320.261842,398.841333 C320.346267,399.366107 320.45394,399.90323 320.57752,400.446526 C320.846069,401.651946 321.183935,402.840566 321.589403,404.00635 C321.692182,404.295285 321.798632,404.585454 321.908752,404.876859 C322.268479,405.823511 322.671845,406.77963 323.118852,407.745215 L323.131088,407.758798 C323.340724,408.206605 323.55811,408.656471 323.783245,409.108395 L323.823622,409.186185 C323.873788,409.284966 323.92273,409.383747 323.97412,409.483763 C324.306928,410.12831 324.656458,410.773268 325.02271,411.418638 C325.067982,411.500132 325.1157,411.580392 325.162196,411.665591 L325.228268,411.782893 C325.362859,412.016264 325.499898,412.250869 325.63816,412.484239 L325.63816,412.491648 C326.074971,413.223863 326.536253,413.953608 327.010993,414.67718 L327.036688,414.716692 C327.117443,414.840169 327.198198,414.963645 327.2814,415.087121 L327.288741,415.093295 C327.500825,415.411864 327.715764,415.729199 327.933557,416.045298 C328.507406,416.87259 329.100832,417.691238 329.716283,418.493835 L329.733412,418.507417 C330.129846,419.024783 330.529949,419.538445 330.941065,420.042229 L330.958195,420.054577 C331.34484,420.528726 331.738418,420.996701 332.13893,421.458503 C332.24905,421.58198 332.360394,421.705456 332.471738,421.828932 L332.519456,421.884497 C332.863277,422.273447 333.209544,422.658694 333.561929,423.035297 L333.596188,423.061227 C334.352348,423.871232 335.124006,424.650368 335.911162,425.398635 L335.925845,425.407278 C336.097143,425.570267 336.270889,425.732021 336.44341,425.89254 L336.607367,426.040712 C336.762351,426.183121 336.918151,426.323884 337.074767,426.463001 C337.593556,426.924803 338.116423,427.369729 338.64337,427.797781 C338.643947,427.799798 338.643947,427.801938 338.64337,427.803955 C339.099757,428.174384 339.558592,428.528761 340.01865,428.869556 C340.94395,429.57692 341.904034,430.236711 342.895237,430.846413 L342.895237,430.856291 C343.880414,431.453171 344.902095,431.986424 345.954135,432.452841 L345.966371,432.452841 C346.750971,432.799948 347.556442,433.096878 348.378006,433.341871 C348.378553,433.34514 348.378553,433.348479 348.378006,433.351749 C349.716288,433.766012 351.106554,433.984321 352.506294,434 C357.964591,434 364.53388,430.295708 370.404516,423.837893 L370.459576,423.787268 C372.26126,421.786875 373.909657,419.651167 375.390519,417.398599 L375.390519,417.391191 C375.89381,416.630576 376.385273,415.848559 376.864908,415.045139 C377.956566,413.203206 378.951867,411.304831 379.846721,409.357817 L379.834486,409.36646 C379.956842,409.102221 380.079198,408.836747 380.201554,408.570038 C380.201554,408.570038 380.207671,408.55769 380.211342,408.552751 C380.769285,407.299466 381.30031,406.014076 381.789733,404.689175 L381.789733,404.680531 C382.045049,403.994003 382.289761,403.298831 382.523869,402.595015 L382.523869,402.588841 C382.830574,401.640543 383.120965,400.680308 383.395043,399.708137 L383.424408,399.643929 C383.642202,398.870967 383.850207,398.090596 384.036188,397.297878 L384.026399,397.289235 C384.253981,396.355753 384.462394,395.409101 384.651638,394.449278 C384.651638,394.435695 384.66265,394.423348 384.667544,394.409765 C384.809477,393.691133 384.941214,392.966326 385.062754,392.235346 L385.055412,392.229172 C385.208357,391.310508 385.349067,390.3832 385.464081,389.441075 L385.455516,389.433667 C385.535048,388.771833 385.608461,388.106296 385.670863,387.435819 C385.782206,386.270202 385.871526,385.089767 385.921692,383.899455 L385.91068,383.892046 C385.92781,383.477166 385.941269,383.059815 385.951058,382.642465 C385.954405,382.637239 385.959043,382.632983 385.964517,382.630118 Z" id="Shape" stroke="#DEDEDE" fill="#990AE3" fill-rule="nonzero" transform="translate(353.000000, 399.000000) rotate(355.344912) translate(-353.000000, -399.000000) "></path>
    </g>
</svg>