<?xml version="1.0" encoding="UTF-8"?>
<svg width="66px" height="72px" viewBox="0 0 66 72" version="1.1" xmlns="http://www.w3.org/2000/svg" xmlns:xlink="http://www.w3.org/1999/xlink">
    <!-- Generator: Sketch 48.2 (47327) - http://www.bohemiancoding.com/sketch -->
    <title>Shape</title>
    <desc>Created with Sketch.</desc>
    <defs></defs>
    <g id="B2B-Bestillingsløp-Desktop---1-Abonnementsdetaljer---Enkel-bestilling" stroke="none" stroke-width="1" fill="none" fill-rule="evenodd" transform="translate(-319.000000, -1137.000000)">
        <path d="M385.696164,1157.19285 C385.709623,1156.61745 385.731647,1156.04329 385.731647,1155.46418 C385.731647,1154.74308 385.693717,1154.05532 385.634986,1153.38731 L385.61908,1153.37867 C385.563834,1152.65743 385.467009,1151.94005 385.329096,1151.23018 L385.308296,1151.2203 C385.141183,1150.37194 384.908819,1149.53801 384.613314,1148.72608 C384.613314,1148.72608 384.613314,1148.71373 384.613314,1148.70756 C384.374706,1148.05664 384.090532,1147.42366 383.762941,1146.81343 L383.743364,1146.78009 C383.700539,1146.69983 383.657715,1146.6171 383.612443,1146.53314 L383.605102,1146.53314 C383.288864,1145.96324 382.931433,1145.41764 382.535711,1144.90078 L382.527146,1144.90078 C382.193837,1144.4618 381.832529,1144.04521 381.44552,1143.65367 L381.435731,1143.65367 C380.948627,1143.15041 380.422902,1142.68675 379.863458,1142.26703 L379.851222,1142.26703 C379.409796,1141.94043 378.9511,1141.63829 378.477165,1141.36195 L378.460036,1141.33725 C377.509559,1140.78931 376.510471,1140.33211 375.475775,1139.9716 L375.414597,1139.93332 C374.306772,1139.54563 373.170736,1139.2455 372.016774,1139.03565 L372.000867,1139.04553 C370.476138,1138.76818 368.932121,1138.61253 367.383155,1138.58002 C367.12009,1138.57138 366.853354,1138.56274 366.590289,1138.56274 C364.680684,1138.56766 362.772768,1138.67772 360.875045,1138.89242 C360.875045,1138.89242 360.875045,1138.89242 360.875045,1138.89242 C359.569915,1139.03812 358.26193,1139.23074 356.951091,1139.47029 L356.910713,1139.47029 C356.728403,1139.50363 356.543646,1139.54067 356.362559,1139.57524 C354.216189,1139.98718 352.092488,1140.51143 350.000052,1141.14586 L349.968239,1141.15574 C343.651004,1143.06962 337.610292,1145.97132 332.5937,1149.59906 C332.498263,1149.66697 332.405272,1149.73735 332.311058,1149.8065 L332.140983,1149.92997 C331.99538,1150.0374 331.851,1150.14482 331.707843,1150.25471 L331.66869,1150.28435 C330.289289,1151.33046 328.976659,1152.46334 327.738618,1153.67625 L327.708029,1153.71205 C326.672022,1154.73085 325.702175,1155.81599 324.804523,1156.96072 C324.682167,1157.11136 324.572047,1157.262 324.457032,1157.41388 L324.400749,1157.48673 L324.400749,1157.49537 C323.829984,1158.26139 323.299059,1159.05683 322.810122,1159.87846 C322.293389,1160.74325 321.832377,1161.64073 321.429947,1162.56531 C321.429947,1162.56531 321.429947,1162.56531 321.422606,1162.56531 C321.016878,1163.48921 320.678282,1164.44167 320.409499,1165.41515 C320.409499,1165.43243 320.409499,1165.44848 320.409499,1165.46454 C320.150015,1166.42371 319.964298,1167.40167 319.854003,1168.38969 C319.854003,1168.38969 319.854003,1168.39957 319.854003,1168.40451 C319.776954,1169.05033 319.736104,1169.70003 319.731647,1170.3505 C319.731647,1170.37519 319.731647,1170.39989 319.731647,1170.42458 C319.739848,1171.42321 319.82741,1172.41957 319.993489,1173.40407 C320.077914,1173.92884 320.185588,1174.46597 320.309167,1175.00926 C320.577716,1176.21468 320.915582,1177.4033 321.32105,1178.56909 C321.423829,1178.85802 321.530279,1179.14819 321.640399,1179.43959 C322.000126,1180.38625 322.403492,1181.34237 322.850499,1182.30795 L322.862735,1182.32153 C323.072371,1182.76934 323.289757,1183.21921 323.514892,1183.67113 L323.555269,1183.74892 C323.605435,1183.8477 323.654378,1183.94648 323.705767,1184.0465 C324.038575,1184.69104 324.388105,1185.336 324.754357,1185.98137 C324.799629,1186.06287 324.847348,1186.14313 324.893843,1186.22833 L324.959915,1186.34563 C325.094507,1186.579 325.231545,1186.8136 325.369807,1187.04697 L325.369807,1187.05438 C325.806618,1187.7866 326.2679,1188.51634 326.742641,1189.23992 L326.768335,1189.27943 C326.84909,1189.4029 326.929845,1189.52638 327.013047,1189.64986 L327.020389,1189.65603 C327.232472,1189.9746 327.447411,1190.29193 327.665204,1190.60803 C328.239053,1191.43533 328.83248,1192.25397 329.44793,1193.05657 L329.46506,1193.07015 C329.861493,1193.58752 330.261597,1194.10118 330.672712,1194.60496 L330.689842,1194.61731 C331.076487,1195.09146 331.470065,1195.55944 331.870577,1196.02124 C331.980697,1196.14471 332.092041,1196.26819 332.203385,1196.39167 L332.251104,1196.44723 C332.594924,1196.83618 332.941191,1197.22143 333.293576,1197.59803 L333.327836,1197.62396 C334.083995,1198.43397 334.855653,1199.2131 335.642809,1199.96137 L335.657492,1199.97001 C335.82879,1200.133 336.002536,1200.29476 336.175058,1200.45528 L336.339015,1200.60345 C336.493999,1200.74586 336.649799,1200.88662 336.806414,1201.02574 C337.325203,1201.48754 337.848071,1201.93246 338.375017,1202.36052 C338.375595,1202.36253 338.375595,1202.36467 338.375017,1202.36669 C338.831404,1202.73712 339.290239,1203.0915 339.750297,1203.43229 C340.675598,1204.13966 341.635681,1204.79945 342.626885,1205.40915 L342.626885,1205.41903 C343.612061,1206.01591 344.633743,1206.54916 345.685782,1207.01558 L345.698018,1207.01558 C346.482618,1207.36268 347.288089,1207.65961 348.109653,1207.90461 C348.1102,1207.90788 348.1102,1207.91121 348.109653,1207.91448 C349.447935,1208.32875 350.838201,1208.54706 352.237941,1208.56274 C357.696238,1208.56274 364.265527,1204.85844 370.136163,1198.40063 L370.191223,1198.35 C371.992908,1196.34961 373.641304,1194.2139 375.122166,1191.96133 L375.122166,1191.95393 C375.625457,1191.19331 376.11692,1190.41129 376.596555,1189.60787 C377.688213,1187.76594 378.683514,1185.86757 379.578369,1183.92055 L379.566133,1183.9292 C379.688489,1183.66496 379.810845,1183.39948 379.933201,1183.13277 C379.933201,1183.13277 379.939319,1183.12043 379.942989,1183.11549 C380.500932,1181.8622 381.031957,1180.57681 381.52138,1179.25191 L381.52138,1179.24327 C381.776696,1178.55674 382.021408,1177.86157 382.255516,1177.15775 L382.255516,1177.15158 C382.562221,1176.20328 382.852613,1175.24304 383.12669,1174.27087 L383.156055,1174.20666 C383.373849,1173.4337 383.581854,1172.65333 383.767835,1171.86061 L383.758046,1171.85197 C383.985628,1170.91849 384.194041,1169.97184 384.383285,1169.01201 C384.383285,1168.99843 384.394297,1168.98608 384.399191,1168.9725 C384.541124,1168.25387 384.672861,1167.52906 384.794401,1166.79808 L384.78706,1166.79191 C384.940005,1165.87324 385.080714,1164.94594 385.195728,1164.00381 L385.187163,1163.9964 C385.266695,1163.33457 385.340108,1162.66903 385.40251,1161.99855 C385.513854,1160.83294 385.603174,1159.6525 385.653339,1158.46219 L385.642327,1158.45478 C385.659457,1158.0399 385.672916,1157.62255 385.682705,1157.2052 C385.686052,1157.19997 385.690691,1157.19572 385.696164,1157.19285 Z" id="Shape" stroke="#DEDEDE" fill="#F2F2F2" fill-rule="nonzero" transform="translate(352.731647, 1173.562735) rotate(355.344912) translate(-352.731647, -1173.562735) "></path>
    </g>
</svg>