<?xml version="1.0" encoding="UTF-8"?>
<svg width="64px" height="64px" viewBox="0 0 64 64" version="1.1" xmlns="http://www.w3.org/2000/svg" xmlns:xlink="http://www.w3.org/1999/xlink">
    <!-- Generator: Sketch 64 (93537) - https://sketch.com -->
    <title>Icons/check-mark-circle</title>
    <desc>Created with Sketch.</desc>
    <g id="Icons/check-mark-circle" stroke="none" stroke-width="1" fill="none" fill-rule="evenodd">
        <path d="M32,6 C38.8956287,6 45.5088305,8.73927785 50.3847763,13.6152237 C55.2607222,18.4911695 58,25.1043713 58,32 C58,46.3594035 46.3594035,58 32,58 C17.6405965,58 6,46.3594035 6,32 C6,17.6405965 17.6405965,6 32,6 Z M32,10 C19.8497355,10 10,19.8497355 10,32 C10,44.1502645 19.8497355,54 32,54 C44.1502645,54 54,44.1502645 54,32 C54,19.8497355 44.1502645,10 32,10 Z M42.4984393,22.0072226 C43.2631556,22.1224574 43.8929058,22.6682409 44.1156614,23.4088151 C44.338417,24.1493893 44.1142531,24.9520197 43.54,25.47 L30.17,41.11 C29.808415,41.5336709 29.2865325,41.7873638 28.73,41.8100006 L28.65,41.8100006 C28.121855,41.8104215 27.6149829,41.6019209 27.24,41.23 L20.54,34.53 C19.7585171,33.7485171 19.7585172,32.481483 20.5400001,31.7000001 C21.321483,30.9185172 22.5885171,30.9185171 23.37,31.7 L28.54,36.87 L40.54,22.87 C40.9711019,22.2279553 41.7337229,21.8919877 42.4984393,22.0072226 Z" id="Combined-Shape" fill="#222222"></path>
    </g>
</svg>