<svg xmlns="http://www.w3.org/2000/svg" viewBox="0 0 37.84 37.84"><defs><style>.cls-1{fill:none}.cls-2{clip-path:url(#clip-path)}</style><clipPath id="clip-path"><path d="M0 0h37.84v37.84H0z" class="cls-1"/></clipPath></defs><g id="Layer_2" data-name="Layer 2"><path id="Layer_1-2" d="M17.09 18.92h-5.23v18.92H3.93V18.92H0v-6.74h3.77V7.82a10.86 10.86 0 0 1 .33-2.54 6.94 6.94 0 0 1 1.24-2.53A6.44 6.44 0 0 1 7.82.81a8.61 8.61 0 0 1 4-.81h6.31v6.31c-.81.05-1.51.05-2.16.05h-2.6a1.9 1.9 0 0 0-1.13.38c-.38.21-.54.75-.54 1.45v4h6z" data-name="Layer 1" transform="translate(9.46)"/></g></svg>