<?xml version="1.0" encoding="utf-8"?>
<!-- Generated by IcoMoon.io -->
<!DOCTYPE svg PUBLIC "-//W3C//DTD SVG 1.1//EN" "http://www.w3.org/Graphics/SVG/1.1/DTD/svg11.dtd">
<svg version="1.1" xmlns="http://www.w3.org/2000/svg" xmlns:xlink="http://www.w3.org/1999/xlink" viewBox="0 0 64 64">
<path d="M41.25 15.45h-17.887v-4.512c0-5.213 4.012-9.438 8.95-9.438s8.938 4.237 8.938 9.438v4.512zM26.1 12.7h12.4v-1.762c0-3.688-2.775-6.688-6.2-6.688s-6.2 3-6.2 6.688v1.762z"></path>
<path d="M37.2 37.4l-0.6-5.475h-1.575l0.638 5.788z"></path>
<path d="M33.25 38.212l-0.688-6.288h-1.587l0.725 6.6z"></path>
<path d="M40.138 36.788l0.9-4.863h-1.962l0.538 4.975z"></path>
<path d="M29.288 39.013l-0.775-7.087h-1.587l0.825 7.413z"></path>
<path d="M50.725 10.75h-36.85c-1.787 0-3.25 1.463-3.25 3.25v45.513c0 1.788 1.463 3.25 3.25 3.25h36.85c1.788 0 3.25-1.462 3.25-3.25v-45.513c0-1.787-1.462-3.25-3.25-3.25zM42.525 46.75h-1.15c0.388 0.313 0.65 0.788 0.65 1.337 0 0.95-0.763 1.712-1.712 1.712s-1.712-0.775-1.712-1.712c0-0.538 0.263-1.025 0.65-1.337h-10.212c0.387 0.313 0.65 0.788 0.65 1.337 0 0.95-0.762 1.712-1.712 1.712s-1.712-0.775-1.712-1.712c0-0.538 0.262-1.025 0.65-1.337h-1.688c-0.387 0-0.762-0.188-0.988-0.5s-0.3-0.725-0.188-1.087l1.4-4.462-1.325-11.988h-2.688c-0.675 0-1.225-0.55-1.225-1.225s0.55-1.225 1.225-1.225h3.788c0.625 0 1.15 0.462 1.212 1.087l0.238 2.137h15.85c0.362 0 0.712 0.163 0.938 0.438 0.237 0.275 0.325 0.65 0.263 1.012l-1.313 7.125c-0.087 0.487-0.475 0.875-0.962 0.975l-13.813 2.837-0.762 2.425h15.65c0.675 0 1.225 0.55 1.225 1.225s-0.55 1.225-1.225 1.225z"></path>
</svg>
