<svg xmlns="http://www.w3.org/2000/svg" data-name="Layer 1" viewBox="0 0 670.83 495.83"><path d="M627.09 0H43.75A43.88 43.88 0 0 0 0 43.75v408.34a43.88 43.88 0 0 0 43.75 43.75h583.34a43.87 43.87 0 0 0 43.75-43.75V43.75A43.88 43.88 0 0 0 627.09 0zm0 280.93l-60-60-24.97-25.01a22 22 0 0 0-30.93 0l-78.31 78.31-132.1 132.14a21.87 21.87 0 0 1-30.93 0l-82.89-82.89a22 22 0 0 0-30.93 0L43.75 435.75v-61.83l81.33-81.33a65.74 65.74 0 0 1 92.8 0l67.43 67.42 106.85-106.88a117.61 117.61 0 1 1 191.18-91.71 121 121 0 0 1-.77 13.12l44.52 44.53z"/></svg>