<svg xmlns="http://www.w3.org/2000/svg" xmlns:xlink="http://www.w3.org/1999/xlink" viewBox="0 0 63 21"><defs><path id="a" d="M25.773 22.502l6.546 6.546c.907.907.912 2.366.005 3.273a2.318 2.318 0 0 1-3.278 0L22.5 25.775l-6.546 6.546a2.318 2.318 0 0 1-3.278 0 2.313 2.313 0 0 1 .005-3.273l6.546-6.546-6.546-6.546a2.309 2.309 0 0 1-.005-3.274 2.314 2.314 0 0 1 3.278 0L22.5 19.23l6.546-6.547a2.309 2.309 0 0 1 3.273-.004 2.318 2.318 0 0 1 0 3.278l-6.546 6.546z"/></defs><use fill-rule="evenodd" transform="translate(-12 -12)" xlink:href="#a"/><use fill="#fff" fill-rule="evenodd" transform="translate(9 -12)" xlink:href="#a"/><use fill="#990AE3" fill-rule="evenodd" transform="translate(30 -12)" xlink:href="#a"/></svg>