<svg xmlns="http://www.w3.org/2000/svg" data-name="Layer 1" viewBox="0 0 2012.52 670.83"><path d="M597.92 36.42A36.45 36.45 0 0 0 561.42 0h-72.88a36.46 36.46 0 0 0-36.46 36.42v546.92h145.84zM408.33 255.21a36.45 36.45 0 0 0-36.46-36.46h-72.91a36.45 36.45 0 0 0-36.46 36.46v328.13h145.83zM218.75 473.96a36.46 36.46 0 0 0-36.46-36.46h-72.87a36.46 36.46 0 0 0-36.5 36.46v109.38h145.83zm428.21 153.13H21.88a21.875 21.875 0 1 0 0 43.75h625.08a21.88 21.88 0 1 0 0-43.75z"/><path fill="#fff" d="M1268.76 36.42A36.45 36.45 0 0 0 1232.26 0h-72.88a36.46 36.46 0 0 0-36.46 36.42v546.92h145.84zm-189.59 218.79a36.45 36.45 0 0 0-36.46-36.46H969.8a36.45 36.45 0 0 0-36.46 36.46v328.13h145.83zM889.59 473.96a36.46 36.46 0 0 0-36.46-36.46h-72.87a36.46 36.46 0 0 0-36.5 36.46v109.38h145.83zm428.21 153.13H692.72a21.875 21.875 0 1 0 0 43.75h625.08a21.88 21.88 0 1 0 0-43.75z"/><path fill="#990AE3" d="M1939.6 36.42A36.45 36.45 0 0 0 1903.1 0h-72.88a36.46 36.46 0 0 0-36.46 36.42v546.92h145.84zm-189.59 218.79a36.45 36.45 0 0 0-36.46-36.46h-72.91a36.45 36.45 0 0 0-36.46 36.46v328.13h145.83zm-189.58 218.75a36.46 36.46 0 0 0-36.46-36.46h-72.87a36.46 36.46 0 0 0-36.5 36.46v109.38h145.83zm428.21 153.13h-625.08a21.875 21.875 0 1 0 0 43.75h625.08a21.88 21.88 0 1 0 0-43.75z"/></svg>