<svg xmlns="http://www.w3.org/2000/svg" data-name="Layer 1" viewBox="0 0 534 623.76"><path d="M43 601.32c0 13.53 13.81 22.44 27.34 22.44H243v-280H43zm476.3-403.56h-175A98.49 98.49 0 0 0 443 98.98C443 44.24 397.9.14 343.16.14a101 101 0 0 0-75.94 34.68A99.39 99.39 0 0 0 191.71 0c-54.75 0-99.54 44.23-99.54 99s44.54 98.76 99.29 98.76h-175C7.57 197.76 0 205.68 0 214.55v68.8c0 8.87 7.57 17.41 16.43 17.41H243v-103h48v103h228.3c8.87 0 14.7-8.54 14.7-17.41v-68.8c0-8.87-5.83-16.79-14.7-16.79zm-276.3-43h-51.54c-29.53 0-54.1-24.89-54.1-54.41s23.57-54.45 53.1-54.45S243 69.96 243 99.48zm48-55.28a53.09 53.09 0 0 1 53.41-53.07c29.52 0 53.35 24.42 53.35 53.94s-23.96 54.41-53.48 54.41H291zm198.28 244.28H291v280h174.4c13.53 0 25.6-8.91 25.6-22.44v-258c0-.35-1.38.44-1.72.44z"/></svg>