<svg width="60" height="48" viewBox="0 0 60 48" fill="none" xmlns="http://www.w3.org/2000/svg">
<path id="check copy 6" d="M53.2031 0.949219C53.4609 0.691406 53.7188 0.5625 54.2344 0.5625C54.6211 0.5625 55.0078 0.691406 55.3945 0.949219L59.0039 4.6875C59.2617 4.94531 59.5195 5.33203 59.5195 5.71875C59.5195 6.23438 59.2617 6.62109 59.0039 6.87891L20.332 45.5508C20.0742 45.8086 19.6875 45.9375 19.3008 45.9375C18.7852 45.9375 18.3984 45.8086 18.1406 45.5508L0.996094 28.2773C0.609375 28.0195 0.480469 27.7617 0.480469 27.2461C0.480469 26.8594 0.609375 26.4727 0.996094 26.0859L4.60547 22.4766C4.86328 22.2188 5.25 21.9609 5.76562 21.9609C6.15234 21.9609 6.53906 22.2188 6.79688 22.4766L19.3008 34.9805L53.2031 0.949219Z" fill="#990AE3"/>
</svg>
