<svg viewBox="0 0 88 43" aria-labelledby="title">
    <title>Infinity symbol</title>
    <g transform="translate(-144.000000, -153.000000)">
        <path d="M211.885395,153 C199.400833,153 191.138714,163.269668 183.849609,172.332319 C177.621972,180.074205 171.741129,187.384677 164.578557,187.384677 C157.133629,187.384677 152.562634,179.686404 152.562634,174.167599 C152.562634,169.05074 157.577079,161.614734 165.436167,161.614734 C173.062108,161.614734 177.035001,167.755318 177.235345,168.070038 C178.470796,170.081538 181.094007,170.714515 183.1033,169.481565 C185.122551,168.243901 185.762245,165.593531 184.531479,163.561993 C184.270213,163.131757 177.989855,153.000589 165.436167,153.000589 C152.803983,153.000589 144,164.157251 144,174.168188 C144,184.494435 152.451332,196 164.577971,196 C175.824739,196 183.288413,186.72341 190.504879,177.751521 C197.180652,169.454454 203.486785,161.615323 211.885395,161.615323 C216.882267,161.615323 220.165674,163.320943 221.92073,166.825302 C223.441465,169.86642 223.440294,173.307717 223.439122,174.5 C223.439122,175.183662 223.080027,178.612582 221.417528,181.70026 C219.52188,185.217585 216.830716,186.854838 212.941592,186.854838 C205.110036,186.854838 200.878805,181.733265 199.28543,179.804276 C198.87127,179.302138 198.573098,178.940858 198.174754,178.597848 C196.381035,177.051946 193.676984,177.259402 192.137502,179.066393 C190.653086,180.809142 190.796021,183.399986 192.417515,184.968284 C192.49484,185.056689 192.587982,185.172793 192.698699,185.307758 C194.775358,187.821985 201.089693,195.468394 212.939835,195.468394 C227.342306,195.468394 231.999999,181.33957 231.999999,174.441064 C232.00117,170.047355 231.183394,166.182305 229.566587,162.950822 C227.296613,158.412719 222.385269,153 211.885395,153 Z" id="Shape"></path>
    </g>
</svg>