<svg xmlns="http://www.w3.org/2000/svg" xmlns:xlink="http://www.w3.org/1999/xlink" viewBox="0 0 93 26"><defs><path id="a" d="M12.833 28.556h4.499c1.163 0 2.102.933 2.102 2.096a2.103 2.103 0 0 1-2.102 2.102h-4.5a2.103 2.103 0 0 1-2.102-2.102c0-1.158.94-2.096 2.103-2.096zm0-8.404h9.35a2.103 2.103 0 0 1 0 4.205h-9.35a2.103 2.103 0 0 1 0-4.205zm19.053-4.199H12.833a2.1 2.1 0 1 1 0-4.199h19.053c1.164 0 2.103.933 2.103 2.097a2.103 2.103 0 0 1-2.103 2.102zm4.678 9.337a4.653 4.653 0 0 1-2.033 3.84c5.387 1.167 5.7 4.12 5.78 5.882.016.376-.262.824-.63.92-.927.243-2.796.577-7.833.577-5.036 0-6.905-.339-7.833-.577-.367-.096-.646-.544-.629-.92.076-1.761.393-4.715 5.775-5.882a4.655 4.655 0 0 1-2.029-3.84c0-2.585 2.114-4.677 4.716-4.677 2.603 0 4.716 2.092 4.716 4.677z"/></defs><g fill="none" fill-rule="evenodd" transform="translate(-10 -11)"><mask id="b" fill="#fff"><use xlink:href="#a"/></mask><use fill="#000" xlink:href="#a"/><g fill="#000" mask="url(#b)"><path d="M0 .167h45v45H0z"/></g></g><g fill="#fff" fill-rule="evenodd" transform="translate(21 -11)"><use xlink:href="#a"/><g mask="url(#b)"><path d="M0 .167h45v45H0z"/></g></g><g fill="#990AE3" fill-rule="evenodd" transform="translate(52 -11)"><use xlink:href="#a"/><g mask="url(#b)"><path d="M0 .167h45v45H0z"/></g></g></svg>