<svg xmlns="http://www.w3.org/2000/svg" viewBox="0 0 38.04 35.1"><defs><style>.cls-1{fill:none}.cls-2{clip-path:url(#clip-path)}</style><clipPath id="clip-path"><path d="M0 0h38.05v35.22H0z" class="cls-1"/></clipPath></defs><g id="Layer_2" data-name="Layer 2"><g id="Layer_1-2" class="cls-2" data-name="Layer 1"><path d="M7.77 0a7.28 7.28 0 0 0-5.68 2.29A9 9 0 0 0 0 8.6v.95a9 9 0 0 0 2.07 6.31 7.28 7.28 0 0 0 5.67 2.3 7.28 7.28 0 0 0 5.68-2.29 9 9 0 0 0 2.09-6.31v-.94a9 9 0 0 0-2.07-6.32A7.28 7.28 0 0 0 7.77 0m2.92 9.32q0 4.3-2.94 4.3T4.83 9.31v-.47q0-4.3 2.94-4.3t2.93 4.31zM36 18.69a7.28 7.28 0 0 0-5.67-2.3 7.28 7.28 0 0 0-5.68 2.29A9 9 0 0 0 22.53 25v.95a9 9 0 0 0 2.07 6.31 7.27 7.27 0 0 0 5.67 2.3 7.28 7.28 0 0 0 5.73-2.3A9.05 9.05 0 0 0 38 26v-1a9.05 9.05 0 0 0-2-6.31m-2.75 7q0 4.3-2.94 4.3t-2.95-4.29v-.47q0-4.3 2.94-4.3t2.93 4.31z"/><path d="M1.19 34a.9.9 0 0 0 1.11 1.09l11.32-2.83c.72-.2.83-.83.24-1.42l-2.79-2.79L33.6 5.52a2 2 0 0 0-2.85-2.85L8.22 25.2l-2.78-2.78c-.58-.58-1.22-.47-1.42.24z"/></g></g></svg>