<svg xmlns="http://www.w3.org/2000/svg" viewBox="0 0 153 45"><path fill-rule="evenodd" d="M35.408.78c-5.137 0-8.379 4.564-10.26 6.824C23.266 5.344 20.024.78 14.885.78 6.14.78.264 8.882.264 16.45c0 11.015 21.16 25.779 23.573 27.426a2.32 2.32 0 0 0 2.621 0c2.413-1.647 23.572-16.41 23.572-27.427C50.03 8.882 44.155.78 35.408.78"/><path fill="#FFF" fill-rule="evenodd" d="M86.408.78c-5.137 0-8.379 4.564-10.26 6.824C74.266 5.344 71.024.78 65.885.78c-8.746 0-14.621 8.102-14.621 15.67 0 11.015 21.16 25.779 23.573 27.426a2.32 2.32 0 0 0 2.621 0c2.413-1.647 23.572-16.41 23.572-27.427 0-7.567-5.875-15.67-14.622-15.67"/><path fill="#990AE3" fill-rule="evenodd" d="M137.408.78c-5.137 0-8.379 4.564-10.26 6.824-1.882-2.26-5.124-6.824-10.263-6.824-8.746 0-14.621 8.102-14.621 15.67 0 11.015 21.16 25.779 23.573 27.426a2.32 2.32 0 0 0 2.621 0c2.413-1.647 23.572-16.41 23.572-27.427 0-7.567-5.875-15.67-14.622-15.67"/></svg>