<svg xmlns="http://www.w3.org/2000/svg" viewBox="0 0 51 17"><path fill-rule="evenodd" d="M16.114 13.022H4.82l.549-1.753 9.966-2.045a.887.887 0 0 0 .693-.707l.95-5.144a.883.883 0 0 0-.87-1.044H4.665l-.17-1.54A.884.884 0 0 0 3.616 0H.884a.884.884 0 0 0 0 1.768h1.94l.952 8.65-1.005 3.223a.884.884 0 0 0 .845 1.149h1.22a1.234 1.234 0 0 0 .77 2.203 1.234 1.234 0 1 0 .77-2.203h7.37a1.234 1.234 0 0 0 .77 2.203 1.234 1.234 0 1 0 .77-2.203h.828a.884.884 0 0 0 0-1.768zM9.423 8.629l-1.115.228-.524-4.76h1.141l.498 4.532zm1.28-4.532h1.141l.435 3.946-1.115.229-.461-4.175zm3.694 3.512l-.377.077-.396-3.589h1.421l-.648 3.512zM6 4.097l.563 5.117-1.114.228-.59-5.347H6v.002z"/><path fill="#fff" fill-rule="evenodd" d="M33.114 13.022H21.82l.549-1.753 9.966-2.045a.887.887 0 0 0 .693-.707l.95-5.144a.883.883 0 0 0-.87-1.044H21.665l-.17-1.54A.884.884 0 0 0 20.616 0h-2.732a.884.884 0 0 0 0 1.768h1.94l.952 8.65-1.005 3.223a.884.884 0 0 0 .845 1.149h1.22a1.234 1.234 0 0 0 .77 2.203 1.234 1.234 0 1 0 .77-2.203h7.37a1.234 1.234 0 0 0 .77 2.203 1.234 1.234 0 1 0 .77-2.203h.828a.884.884 0 0 0 0-1.768zm-6.691-4.393l-1.115.228-.524-4.76h1.141l.498 4.532zm1.28-4.532h1.141l.435 3.946-1.115.229-.461-4.175zm3.694 3.512l-.377.077-.396-3.589h1.421l-.648 3.512zM23 4.097l.563 5.117-1.114.228-.59-5.347H23v.002z"/><path fill="#990AE3" fill-rule="evenodd" d="M50.114 13.022H38.82l.549-1.753 9.966-2.045a.887.887 0 0 0 .693-.707l.95-5.144a.883.883 0 0 0-.87-1.044H38.665l-.17-1.54A.884.884 0 0 0 37.616 0h-2.732a.884.884 0 0 0 0 1.768h1.94l.952 8.65-1.005 3.223a.884.884 0 0 0 .845 1.149h1.22a1.234 1.234 0 0 0 .77 2.203 1.234 1.234 0 1 0 .77-2.203h7.37a1.234 1.234 0 0 0 .77 2.203 1.234 1.234 0 1 0 .77-2.203h.828a.884.884 0 0 0 0-1.768zm-6.691-4.393l-1.115.228-.524-4.76h1.141l.498 4.532zm1.28-4.532h1.141l.435 3.946-1.115.229-.461-4.175zm3.694 3.512l-.377.077-.396-3.589h1.421l-.648 3.512zM40 4.097l.563 5.117-1.114.228-.59-5.347H40v.002z"/></svg>