<svg xmlns="http://www.w3.org/2000/svg" viewBox="0 0 17 18"><path fill="#990AE3" fill-rule="evenodd" d="M16.114 13.781H4.82l.549-1.753 9.966-2.045a.887.887 0 0 0 .693-.707l.95-5.143a.883.883 0 0 0-.87-1.045H4.665l-.17-1.54A.884.884 0 0 0 3.616.76H.884a.884.884 0 0 0 0 1.768h1.94l.952 8.65-1.005 3.224a.884.884 0 0 0 .845 1.148h1.22a1.234 1.234 0 0 0 .77 2.203 1.234 1.234 0 1 0 .77-2.203h7.37a1.234 1.234 0 0 0 .77 2.203 1.234 1.234 0 1 0 .77-2.203h.828a.884.884 0 0 0 0-1.768zM9.423 9.388l-1.115.228-.524-4.76h1.141l.498 4.532zm1.28-4.532h1.141l.435 3.947-1.115.228-.461-4.175zm3.694 3.512l-.377.078-.396-3.59h1.421l-.648 3.512zM6 4.856l.563 5.117-1.114.229-.59-5.348H6v.002z"/></svg>