<svg xmlns="http://www.w3.org/2000/svg" viewBox="0 0 64 64"><path d="M41.25 15.45H23.363v-4.512c0-5.213 4.012-9.438 8.95-9.438s8.938 4.237 8.938 9.438v4.512zM26.1 12.7h12.4v-1.762c0-3.688-2.775-6.688-6.2-6.688s-6.2 3-6.2 6.688V12.7zm11.1 24.7l-.6-5.475h-1.575l.638 5.788zm-3.95.812l-.688-6.288h-1.587l.725 6.6zm6.888-1.424l.9-4.863h-1.962l.538 4.975zm-10.85 2.225l-.775-7.087h-1.587l.825 7.413z"/><path d="M50.725 10.75h-36.85a3.26 3.26 0 0 0-3.25 3.25v45.513a3.26 3.26 0 0 0 3.25 3.25h36.85a3.259 3.259 0 0 0 3.25-3.25V14a3.26 3.26 0 0 0-3.25-3.25zm-8.2 36h-1.15a1.707 1.707 0 0 1-1.062 3.049 1.715 1.715 0 0 1-1.712-1.712c0-.538.263-1.025.65-1.337H29.039a1.706 1.706 0 0 1-1.062 3.049c-.95 0-1.712-.775-1.712-1.712 0-.538.262-1.025.65-1.337h-1.688a1.23 1.23 0 0 1-1.176-1.587l1.4-4.462-1.325-11.988h-2.688c-.675 0-1.225-.55-1.225-1.225s.55-1.225 1.225-1.225h3.788c.625 0 1.15.462 1.212 1.087l.238 2.137h15.85c.362 0 .712.163.938.438.237.275.325.65.263 1.012l-1.313 7.125a1.228 1.228 0 0 1-.962.975l-13.813 2.837-.762 2.425h15.65c.675 0 1.225.55 1.225 1.225s-.55 1.225-1.225 1.225z"/></svg>