<svg xmlns="http://www.w3.org/2000/svg" data-name="Layer 1" viewBox="0 0 2010 670.83"><path d="M495.84 627.09a43.87 43.87 0 0 1-43.75 43.75H43.75A43.87 43.87 0 0 1 0 627.09V43.75A43.88 43.88 0 0 1 43.75 0h273.64v91.69a87.5 87.5 0 0 0 87.47 87.49h91v447.91z"/><path d="M373.92 122.62a43.46 43.46 0 0 0 30.9 12.8h91L361.14 0v91.69a43.61 43.61 0 0 0 12.78 30.93z"/><g fill="#fff"><path d="M1165.84 627.09a43.87 43.87 0 0 1-43.75 43.75H713.75A43.87 43.87 0 0 1 670 627.09V43.75A43.88 43.88 0 0 1 713.75 0h273.64v91.69a87.5 87.5 0 0 0 87.47 87.49h91v447.91z"/><path d="M1043.92 122.62a43.46 43.46 0 0 0 30.9 12.8h91L1031.14 0v91.69a43.61 43.61 0 0 0 12.78 30.93z"/></g><g fill="#990AE3"><path d="M1835.84 627.09a43.87 43.87 0 0 1-43.75 43.75h-408.34a43.87 43.87 0 0 1-43.75-43.75V43.75A43.88 43.88 0 0 1 1383.75 0h273.64v91.69a87.5 87.5 0 0 0 87.47 87.49h91v447.91z"/><path d="M1713.92 122.62a43.46 43.46 0 0 0 30.9 12.8h91L1701.14 0v91.69a43.61 43.61 0 0 0 12.78 30.93z"/></g></svg>