<svg width="53" height="38" viewBox="0 0 53 38" fill="none" xmlns="http://www.w3.org/2000/svg">
<path d="M26.25 24.5C28.0547 24.5 29.5312 25.1562 30.8438 26.4688C32.1562 27.7812 32.8125 29.2578 32.8125 31.0625C32.8125 32.8672 32.1562 34.4258 30.8438 35.7383C29.5312 37.0508 28.0547 37.625 26.25 37.625C24.4453 37.625 22.8867 37.0508 21.5742 35.7383C20.2617 34.4258 19.6875 32.8672 19.6875 31.0625C19.6875 29.2578 20.2617 27.7812 21.5742 26.4688C22.8867 25.1562 24.4453 24.5 26.25 24.5ZM26.25 35C27.3164 35 28.2188 34.6719 29.0391 33.8516C29.7773 33.1133 30.1875 32.2109 30.1875 31.0625C30.1875 29.9961 29.7773 29.0938 29.0391 28.2734C28.2188 27.5352 27.3164 27.125 26.25 27.125C25.1016 27.125 24.1992 27.5352 23.4609 28.2734C22.6406 29.0938 22.3125 29.9961 22.3125 31.0625C22.3125 32.2109 22.6406 33.1133 23.4609 33.8516C24.1992 34.6719 25.1016 35 26.25 35ZM43.2305 21.875C43.3945 21.7109 43.4766 21.4648 43.4766 21.1367C43.4766 20.8906 43.3125 20.6445 43.1484 20.3984C39.9492 17.6094 36.3398 15.7227 32.3203 14.7383C28.2188 13.7539 24.1992 13.7539 20.1797 14.7383C16.0781 15.7227 12.4688 17.6094 9.35156 20.3984C9.10547 20.6445 9.02344 20.8906 9.02344 21.1367C9.02344 21.4648 9.10547 21.7109 9.26953 21.875L9.76172 22.2852C9.92578 22.5312 10.0898 22.6133 10.418 22.6133C10.6641 22.6133 10.9102 22.5312 11.1562 22.3672C13.9453 19.9062 17.1445 18.1836 20.7539 17.2812C24.3633 16.4609 28.0547 16.4609 31.6641 17.2812C35.2734 18.1836 38.5547 19.9062 41.3438 22.3672C41.5078 22.5312 41.7539 22.6133 42.082 22.6133C42.3281 22.6133 42.5742 22.5312 42.7383 22.2852L43.2305 21.875ZM51.5977 13.0156L52.0898 12.6055C52.2539 12.4414 52.3359 12.1953 52.3359 11.8672C52.3359 11.6211 52.1719 11.375 52.0078 11.1289C47.25 6.69922 41.7539 3.66406 35.4375 2.02344C29.2852 0.546875 23.1328 0.546875 17.0625 2.02344C10.6641 3.66406 5.16797 6.69922 0.492188 11.1289C0.246094 11.375 0.164062 11.6211 0.164062 11.8672C0.164062 12.1953 0.246094 12.4414 0.410156 12.6055L0.902344 13.0156C1.06641 13.2617 1.23047 13.3438 1.55859 13.3438C1.80469 13.3438 2.05078 13.2617 2.29688 13.0156C6.64453 8.91406 11.8125 6.04297 17.7188 4.56641C23.3789 3.17188 29.1211 3.17188 34.8633 4.56641C40.6875 6.04297 45.7734 8.91406 50.2031 13.0156C50.3672 13.2617 50.6133 13.3438 50.9414 13.3438C51.1875 13.3438 51.4336 13.2617 51.5977 13.0156Z" fill="#990AE3"/>
</svg>
