<svg xmlns="http://www.w3.org/2000/svg" viewBox="0 0 42 12"><g fill="none" fill-rule="evenodd"><path fill="#000" d="M12.821 9.326H1.167a1.165 1.165 0 1 0 0 2.331h11.654a1.166 1.166 0 1 0 0-2.331zm0-4.664H1.167a1.167 1.167 0 0 0 0 2.334h11.654a1.167 1.167 0 0 0 0-2.334zM1.167 2.33h11.654a1.166 1.166 0 1 0 0-2.33H1.167a1.165 1.165 0 1 0 0 2.33z"/><path fill="#fff" d="M26.821 9.326H15.167a1.165 1.165 0 1 0 0 2.331h11.654a1.166 1.166 0 1 0 0-2.331zm0-4.664H15.167a1.167 1.167 0 0 0 0 2.334h11.654a1.167 1.167 0 0 0 0-2.334zM15.167 2.33h11.654a1.166 1.166 0 1 0 0-2.33H15.167a1.165 1.165 0 1 0 0 2.33z"/><path fill="#990AE3" d="M40.821 9.326H29.167a1.165 1.165 0 1 0 0 2.331h11.654a1.166 1.166 0 1 0 0-2.331zm0-4.664H29.167a1.167 1.167 0 0 0 0 2.334h11.654a1.167 1.167 0 0 0 0-2.334zM29.167 2.33h11.654a1.166 1.166 0 1 0 0-2.33H29.167a1.165 1.165 0 1 0 0 2.33z"/></g></svg>