<svg xmlns="http://www.w3.org/2000/svg" viewBox="0 0 38.27 38.27"><defs><style>.cls-1{fill:none}.cls-2{clip-path:url(#clip-path)}</style><clipPath id="clip-path"><path d="M0 0h38.27v38.27H0z" class="cls-1"/></clipPath></defs><g id="Layer_2" data-name="Layer 2"><path id="Layer_1-2" d="M33.7 0H4.58A4.59 4.59 0 0 0 0 4.58V33.7a4.59 4.59 0 0 0 4.58 4.58H33.7a4.59 4.59 0 0 0 4.58-4.58V4.58A4.59 4.59 0 0 0 33.7 0M9.92 33.61a3.8 3.8 0 1 1 3.8-3.8 3.8 3.8 0 0 1-3.8 3.8m0-10.67a3.8 3.8 0 1 1 3.8-3.8 3.8 3.8 0 0 1-3.8 3.8m0-10.67a3.8 3.8 0 1 1 3.8-3.8 3.8 3.8 0 0 1-3.8 3.8m18.44 21.34a3.8 3.8 0 1 1 3.8-3.8 3.8 3.8 0 0 1-3.8 3.8m0-10.67a3.8 3.8 0 1 1 3.8-3.8 3.8 3.8 0 0 1-3.8 3.8m0-10.67a3.8 3.8 0 1 1 3.8-3.8 3.8 3.8 0 0 1-3.8 3.8" class="cls-2" data-name="Layer 1"/></g></svg>