<svg xmlns="http://www.w3.org/2000/svg" data-name="Layer 1" viewBox="0 0 1784.46 536.01"><path d="M440.67 157.71a157.46 157.46 0 0 1-67.95 129.56c180 39.29 190.52 138.93 193.09 198.23.54 12.67-8.79 27.8-21 31-31 8.13-93.57 19.5-261.83 19.5s-230.8-11.36-261.85-19.5c-12.28-3.22-21.6-18.34-21.06-31 2.56-59.3 13.12-158.94 193.1-198.23a157.69 157.69 0 1 1 247.5-129.56z"/><path fill="#fff" d="M1035.49 157.71a157.46 157.46 0 0 1-67.95 129.56c180 39.29 190.52 138.93 193.09 198.23.54 12.67-8.79 27.8-21 31-31 8.13-93.57 19.5-261.83 19.5S647 524.64 615.95 516.5c-12.28-3.22-21.6-18.34-21.06-31 2.56-59.3 13.12-158.94 193.1-198.23a157.69 157.69 0 1 1 247.5-129.56z"/><path fill="#990AE3" d="M1630.31 157.71a157.46 157.46 0 0 1-67.95 129.56c180 39.29 190.52 138.93 193.09 198.23.54 12.67-8.79 27.8-21 31-31 8.13-93.57 19.5-261.83 19.5s-230.8-11.36-261.85-19.5c-12.28-3.22-21.6-18.34-21.06-31 2.56-59.3 13.12-158.94 193.1-198.23a157.69 157.69 0 1 1 247.5-129.56z"/></svg>