<svg xmlns="http://www.w3.org/2000/svg" viewBox="0 0 256 256"><path fill-rule="evenodd" d="M59.008 187.137h-9.856c-5.44 0-9.856-4.416-9.856-9.856v-19.712h118.273V68.863h45.998c11.009 0 15.77 5.677 19.081 10.911 5.855 9.265 15.139 23.97 20.787 33.294a19.771 19.771 0 0 1 2.838 10.201v44.155c0 11.049-7.175 19.712-19.712 19.712h-9.856c0 16.322-13.246 29.568-29.568 29.568s-29.568-13.246-29.568-29.568h-39.424c0 16.322-13.247 29.568-29.568 29.568-16.323.001-29.569-13.246-29.569-29.567zm29.568-11.828c6.525 0 11.827 5.303 11.827 11.827 0 6.525-5.303 11.827-11.827 11.827-6.525 0-11.827-5.303-11.827-11.827-.001-6.524 5.302-11.827 11.827-11.827zm98.56 0c6.525 0 11.827 5.303 11.827 11.827 0 6.525-5.303 11.827-11.827 11.827-6.525 0-11.827-5.303-11.827-11.827s5.302-11.827 11.827-11.827zm-98.56-86.733H19.583c-5.443 0-9.856-4.413-9.856-9.856s4.413-9.856 9.856-9.856h68.992v-9.856h-49.28v-9.856c0-5.443 4.413-9.856 9.856-9.856h88.705c5.443 0 9.856 4.413 9.856 9.856v98.561H39.295v-29.568h-9.856c-5.443 0-9.856-4.413-9.856-9.856s4.413-9.856 9.856-9.856h59.137v-9.857zm88.704 0v29.568h46.471s-9.255-16.184-14.064-24.601a9.842 9.842 0 0 0-8.555-4.967H177.28z" clip-rule="evenodd"/></svg>