<svg xmlns="http://www.w3.org/2000/svg" data-name="Layer 1" viewBox="0 0 313.77 217.3"><defs><clipPath id="a" transform="translate(-295 -340.11)"><path fill="none" d="M376.99 340.11h150.28v217.28H376.99z"/></clipPath></defs><g clip-path="url(#a)"><path d="M232.27 13.17v191a13.19 13.19 0 0 1-13.15 13.18h-124A13.19 13.19 0 0 1 82 204.13v-191A13.19 13.19 0 0 1 95.16-.04h124a13.19 13.19 0 0 1 13.15 13.17M209.92 165.7V24.42a1.79 1.79 0 0 0-1.79-1.79h-102a1.79 1.79 0 0 0-1.76 1.81V165.7a1.79 1.79 0 0 0 1.79 1.79h102a1.79 1.79 0 0 0 1.77-1.79m-53 15.37a11.32 11.32 0 1 0 11.32 11.32 11.31 11.31 0 0 0-11.32-11.32"/></g><path d="M77.4 51.78c-20.73-17-71-36.35-76.6-21.53-4 10.59 7.76 22.75 18.76 28.94 0 0-9.67-1-9.84 7.76 0 6.78 3.41 13.32 15.57 19.92 0 0-7.06 0-7.41 5.79s5.21 12.16 16.38 16.61c0 0-7.52-1.5-5.27 6.43 2.73 9.84 29.71 19.86 49.68 12.85a34.19 34.19 0 0 0 4.22-1.82V57.24a53.39 53.39 0 0 0-5.49-5.46zm158.98 0c20.73-17 71-36.35 76.6-21.53 4 10.59-7.76 22.75-18.76 28.94 0 0 9.67-1 9.84 7.76 0 6.78-3.41 13.32-15.57 19.92 0 0 7.06 0 7.41 5.79s-5.21 12.16-16.39 16.61c0 0 7.53-1.5 5.27 6.43-2.72 9.84-29.7 19.86-49.67 12.85a33.55 33.55 0 0 1-4.22-1.82V57.24a52.41 52.41 0 0 1 5.49-5.46z"/></svg>