<svg width="30" height="27" viewBox="0 0 30 27" fill="none" xmlns="http://www.w3.org/2000/svg">
<path d="M27.1875 13.75C27.9492 13.75 28.5938 14.043 29.1797 14.5703C29.707 15.1562 30 15.8008 30 16.5625V24.0625C30 24.8828 29.707 25.5273 29.1797 26.0547C28.5938 26.6406 27.9492 26.875 27.1875 26.875H19.6875C18.8672 26.875 18.2227 26.6406 17.6953 26.0547C17.1094 25.5273 16.875 24.8828 16.875 24.0625V10C16.875 8.35938 17.2852 6.77734 18.1055 5.3125C18.9258 3.90625 20.0977 2.73438 21.5625 1.91406C22.9688 1.09375 24.5508 0.625 26.25 0.625H26.7188C27.0703 0.625 27.4219 0.800781 27.7148 1.03516C27.9492 1.32812 28.125 1.67969 28.125 2.03125V4.84375C28.125 5.25391 27.9492 5.60547 27.7148 5.83984C27.4219 6.13281 27.0703 6.25 26.7188 6.25H26.25C25.1953 6.25 24.3164 6.66016 23.6133 7.36328C22.8516 8.125 22.5 9.00391 22.5 10V13.75H27.1875ZM10.3125 13.75C11.0742 13.75 11.7188 14.043 12.3047 14.5703C12.832 15.1562 13.125 15.8008 13.125 16.5625V24.0625C13.125 24.8828 12.832 25.5273 12.3047 26.0547C11.7188 26.6406 11.0742 26.875 10.3125 26.875H2.8125C1.99219 26.875 1.34766 26.6406 0.820312 26.0547C0.234375 25.5273 0 24.8828 0 24.0625V10C0 8.35938 0.410156 6.77734 1.23047 5.3125C2.05078 3.90625 3.22266 2.73438 4.6875 1.91406C6.09375 1.09375 7.67578 0.625 9.375 0.625H9.84375C10.1953 0.625 10.5469 0.800781 10.8398 1.03516C11.0742 1.32812 11.25 1.67969 11.25 2.03125V4.84375C11.25 5.25391 11.0742 5.60547 10.8398 5.83984C10.5469 6.13281 10.1953 6.25 9.84375 6.25H9.375C8.32031 6.25 7.44141 6.66016 6.73828 7.36328C5.97656 8.125 5.625 9.00391 5.625 10V13.75H10.3125Z" fill="#990AE3"/>
</svg>
