<svg xmlns="http://www.w3.org/2000/svg" viewBox="0 0 616 557.15"><path d="M308 72.92a126.11 126.11 0 0 1 71.85 229.81c144 31.44 161.18 93.64 163.23 141.09.43 10.14-7 22.25-16.83 24.8-24.84 6.49-83.63 15.62-218.25 15.62s-193.38-9.12-218.22-15.66c-9.81-2.56-17.28-14.67-16.85-24.8 2.05-47.45 19.24-109.66 163.22-141.09A126.1 126.1 0 0 1 308 72.92M308 0C198.21 0 108.88 89.31 108.88 199.09a198.65 198.65 0 0 0 11.24 65.83C43 302.63 3.55 360.71.09 440.68c-1.89 45.07 28.74 87.4 71.26 98.51 45.62 11.92 125.24 18 236.64 18s191.06-6 236.69-18c42.51-11.12 73.14-53.44 71.24-98.43-3.45-80.03-42.92-138.18-120.06-175.84a198.45 198.45 0 0 0 11.24-65.83C507.1 89.31 417.78 0 308 0z"/></svg>