<svg xmlns="http://www.w3.org/2000/svg" viewBox="0 0 512 512"><path d="M7.7 278.7v6.6c0 14.6 11.9 26.5 26.5 26.5h82.1c.9-4.5 2.1-8.9 3.6-13.2H34.3c-7.3 0-13.3-5.9-13.3-13.2v-6.6c0-25 19.9-45.3 44.7-46.2 9.3 8.2 21.5 13.1 34.9 13.1s25.6-5 34.9-13.1c11.5.4 21.9 5.1 29.8 12.3 4.1-2.3 8.4-4.2 12.8-5.9-8.4-9.3-19.6-15.9-32.3-18.5 5-8.1 7.9-17.5 7.9-27.7 0-29.2-23.8-52.9-53.1-52.9s-53.1 23.7-53.1 52.9c0 10.2 2.9 19.6 7.9 27.7-27.1 5.4-47.7 29.4-47.7 58.2m53.1-86.1c0-21.9 17.9-39.7 39.8-39.7 22 0 39.8 17.8 39.8 39.7s-17.9 39.7-39.8 39.7c-21.9.1-39.8-17.7-39.8-39.7"/><path d="M319.7 248.4c7-11.3 11.1-24.6 11.1-38.9 0-41-33.5-74.4-74.6-74.4s-74.6 33.4-74.6 74.4c0 14.3 4.1 27.6 11.1 38.9-38.2 7.8-67.1 41.6-67.1 82v9.3c0 20.5 16.7 37.2 37.3 37.2h186.5c20.6 0 37.3-16.7 37.3-37.2v-9.3c0-40.5-28.8-74.3-67-82zm-63.5-94.8c30.8 0 55.9 25 55.9 55.8s-25.1 55.8-55.9 55.8-55.9-25-55.9-55.8 25.1-55.8 55.9-55.8zm111.9 186c0 10.3-8.4 18.6-18.6 18.6H163c-10.3 0-18.6-8.3-18.6-18.6v-9.3c0-35.1 28-63.7 62.9-65 13.1 11.5 30.3 18.5 49 18.5 18.8 0 35.9-7 49-18.5 34.9 1.3 62.9 29.9 62.9 65l-.1 9.3z"/><path d="M456.7 220.4c5-8.1 7.9-17.5 7.9-27.7 0-29.2-23.8-52.9-53.1-52.9s-53.1 23.7-53.1 52.9c0 10.2 2.9 19.6 7.9 27.7-12.7 2.6-23.9 9.3-32.3 18.5 4.4 1.7 8.7 3.7 12.8 5.9 7.9-7.3 18.3-11.9 29.8-12.3 9.3 8.2 21.5 13.1 34.9 13.1s25.6-5 34.9-13.1c24.8.9 44.7 21.3 44.7 46.2v6.6c0 7.3-6 13.2-13.3 13.2h-85.7c1.5 4.3 2.7 8.7 3.6 13.2h82.1c14.6 0 26.5-11.9 26.5-26.5v-6.6c.2-28.7-20.4-52.7-47.6-58.2m-45.1 12c-22 0-39.8-17.8-39.8-39.7s17.9-39.7 39.8-39.7c22 0 39.8 17.8 39.8 39.7s-17.9 39.7-39.8 39.7"/></svg>