<svg xmlns="http://www.w3.org/2000/svg" viewBox="0 0 16 13"><g fill-rule="evenodd"><path d="M7.987 9.585c-.833 0-1.507.694-1.507 1.553 0 .858.674 1.552 1.507 1.552.834 0 1.508-.694 1.508-1.552 0-.855-.674-1.553-1.508-1.553zm0-4.805A6.069 6.069 0 0 0 3.62 6.642a1.224 1.224 0 0 0 0 1.69 1.14 1.14 0 0 0 1.641 0 3.787 3.787 0 0 1 2.73-1.162c.989 0 1.968.386 2.726 1.163a1.137 1.137 0 0 0 1.64 0 1.22 1.22 0 0 0 0-1.69 6.068 6.068 0 0 0-4.37-1.865z"/><path d="M15.634 3.263C13.525 1.09 10.751 0 7.99 0 5.223 0 2.45 1.09.34 3.263a1.224 1.224 0 0 0 0 1.69 1.14 1.14 0 0 0 1.642 0A8.353 8.353 0 0 1 7.99 2.388c2.176 0 4.342.852 6.006 2.565a1.137 1.137 0 0 0 1.641 0 1.227 1.227 0 0 0-.003-1.69z"/></g></svg>