<svg xmlns="http://www.w3.org/2000/svg" viewBox="0 0 17 18"><g fill="#990AE3" fill-rule="evenodd"><path d="M8.098 10.269c.22.307.574.307.79 0l3.01-5.013c.185-.324-.003-.587-.416-.587h-1.98V1.011a1.012 1.012 0 0 0-2.025 0v3.66H5.499c-.413 0-.601.264-.416.588l3.015 5.01z"/><path d="M14.762 8.488H12.98a1.012 1.012 0 1 0 0 2.022h.771c.666 0 1.212.545 1.212 1.21v2.224c0 .664-.546 1.21-1.212 1.21H3.234a1.216 1.216 0 0 1-1.212-1.21V11.72c0-.668.546-1.21 1.212-1.21h.77a1.012 1.012 0 1 0 0-2.022h-1.78A2.226 2.226 0 0 0 0 10.71v4.243c0 1.224.998 2.218 2.224 2.218h12.538a2.226 2.226 0 0 0 2.225-2.221v-4.24a2.226 2.226 0 0 0-2.225-2.22z"/></g></svg>