<svg xmlns="http://www.w3.org/2000/svg" viewBox="0 0 17 16"><path fill="#990AE3" fill-rule="evenodd" d="M8.501 2.389a3.48 3.48 0 0 1 3.484 3.478c0 1.183-.594 2.23-1.499 2.856 3.975.865 4.45 2.58 4.505 3.889.01.278-.194.612-.464.683-.685.18-2.308.43-6.026.43-3.715 0-5.338-.25-6.022-.43-.27-.071-.478-.405-.464-.683.058-1.31.53-3.024 4.505-3.89A3.474 3.474 0 0 1 8.5 2.39zm0-2.01a5.498 5.498 0 0 0-5.495 5.488c0 .626.108 1.238.309 1.814C1.187 8.72.097 10.32.003 12.526c-.053 1.243.792 2.41 1.968 2.715 1.258.328 3.456.496 6.53.496 3.075 0 5.275-.165 6.534-.496 1.173-.306 2.018-1.472 1.965-2.712-.094-2.205-1.184-3.806-3.315-4.846A5.494 5.494 0 0 0 8.501.38z"/></svg>