<svg xmlns="http://www.w3.org/2000/svg" viewBox="0 0 28 25"><g fill="#990AE3" fill-rule="evenodd"><path d="M11.699 5.2H8.647V2.153a1.444 1.444 0 0 0-2.889 0v3.053H2.713a1.444 1.444 0 0 0 0 2.888h3.052v3.052a1.444 1.444 0 1 0 2.889 0V8.088h3.052a1.444 1.444 0 0 0 0-2.889m3.18-.695a.977.977 0 0 1-.08-1.38l.001-.001a9.11 9.11 0 0 1 12.861-.766.977.977 0 1 1-1.297 1.462 7.156 7.156 0 0 0-10.101.6l-.004.005a.977.977 0 0 1-1.38.08"/><path d="M17.81 7.097a.977.977 0 0 1-.08-1.379 5.204 5.204 0 0 1 7.345-.438.977.977 0 0 1-1.297 1.462 3.25 3.25 0 0 0-4.586.272l-.003.003a.977.977 0 0 1-1.379.08m3.461 14.193a1.253 1.253 0 1 1 0-2.506 1.253 1.253 0 0 1 0 2.505zm-5.01 0a1.253 1.253 0 1 1 0-2.506 1.253 1.253 0 0 1 0 2.505zm-5.01-.152H4.987a1.25 1.25 0 1 1 0-2.499h6.262a1.25 1.25 0 1 1 0 2.499zm11.336-6.293h-.097V9.061a1.25 1.25 0 1 0-2.499 0v5.784H4.901C2.134 14.845 0 17.056 0 19.823v.039c0 2.767 2.134 5.07 4.901 5.07h17.686c2.767 0 4.901-2.303 4.901-5.07v-.039c0-2.767-2.134-4.978-4.901-4.978z"/></g></svg>