<svg xmlns="http://www.w3.org/2000/svg" data-name="Layer 1" viewBox="0 0 459.8 463.27"><path fill="#990AE3" d="M96.23 383.28l-91.9 79.68c-1.76 1.39-5.43-2.32-4-4.07l80.77-90.93c2.25-2.54 7.27-1.45 11.06 2.38l1.83 1.85c3.78 3.83 4.8 8.87 2.24 11.09zm-73.6-4.09l82.63-70.56c2.31-2 1.07-6.79-2.71-10.62l-1.84-1.86c-3.78-3.83-8.6-5.12-10.59-2.84l-71.5 81.82c-1.25 1.57 2.42 5.29 4.01 4.06zm166.93-37.15c-3.79-3.83-9.15-4.57-11.81-1.64L82.29 445.84c-1.68 2 2 5.73 4 4.07l106.61-94.18c3-2.62 2.29-8-1.5-11.83zm143.35-71l-.69-.18a141.48 141.48 0 0 1-41.51 96.63l-55.67-55.68a62.18 62.18 0 0 1-81.58 1.92l-37.87 32.9c-1.77 1.39-5.44-2.32-4-4.07l33.25-37.43a62.19 62.19 0 0 1 2.35-81.06L90.03 166.9a141.44 141.44 0 0 1 100-41.55c12.43-15.63 115.75-139 268.54-124 15.99 163-125.67 269.73-125.67 269.73zm33.62-134a43.76 43.76 0 1 0-43.76 43.75 43.76 43.76 0 0 0 43.76-43.76z"/></svg>