<svg xmlns="http://www.w3.org/2000/svg" viewBox="0 0 39 13"><g fill="none" fill-rule="evenodd"><path fill="#000" d="M7.005 3.95L4.091 1.037a1.949 1.949 0 1 0-2.758 2.758l2.915 2.914-2.915 2.915a1.949 1.949 0 1 0 2.758 2.757l2.914-2.914L8.351 8.12c.78-.78.772-2.05 0-2.822L7.005 3.951z"/><path fill="#fff" d="M20.005 3.95l-2.914-2.914a1.949 1.949 0 1 0-2.758 2.758l2.915 2.914-2.915 2.915a1.949 1.949 0 1 0 2.758 2.757l2.914-2.914 1.346-1.347c.78-.78.772-2.05 0-2.822l-1.346-1.346z"/><path fill="#990AE3" d="M33.005 3.95l-2.914-2.914a1.949 1.949 0 1 0-2.758 2.758l2.915 2.914-2.915 2.915a1.949 1.949 0 1 0 2.758 2.757l2.914-2.914 1.346-1.347c.78-.78.772-2.05 0-2.822l-1.346-1.346z"/></g></svg>