<svg width="48" height="43" viewBox="0 0 48 43" fill="none" xmlns="http://www.w3.org/2000/svg">
<path d="M43.3125 0.25C44.3789 0.25 45.2812 0.660156 46.1016 1.39844C46.8398 2.21875 47.25 3.12109 47.25 4.1875V27.8125C47.25 28.9609 46.8398 29.8633 46.1016 30.6016C45.2812 31.4219 44.3789 31.75 43.3125 31.75H27.5625L29.5312 39.625H35.4375C35.7656 39.625 36.0938 39.7891 36.3398 40.0352C36.5859 40.2812 36.75 40.6094 36.75 40.9375C36.75 41.3477 36.5859 41.6758 36.3398 41.9219C36.0938 42.168 35.7656 42.25 35.4375 42.25H11.8125C11.4023 42.25 11.0742 42.168 10.8281 41.9219C10.582 41.6758 10.5 41.3477 10.5 40.9375C10.5 40.6094 10.582 40.2812 10.8281 40.0352C11.0742 39.7891 11.4023 39.625 11.8125 39.625H17.7188L19.6875 31.75H3.9375C2.78906 31.75 1.88672 31.4219 1.14844 30.6016C0.328125 29.8633 0 28.9609 0 27.8125V4.1875C0 3.12109 0.328125 2.21875 1.14844 1.39844C1.88672 0.660156 2.78906 0.25 3.9375 0.25H43.3125ZM20.4258 39.625H26.8242L25.5117 34.375H21.7383L20.4258 39.625ZM44.625 27.8125V23.875H2.625V27.8125C2.625 28.2227 2.70703 28.5508 2.95312 28.7969C3.19922 29.043 3.52734 29.125 3.9375 29.125H43.3125C43.6406 29.125 43.9688 29.043 44.2148 28.7969C44.4609 28.5508 44.625 28.2227 44.625 27.8125ZM44.625 21.25V4.1875C44.625 3.85938 44.4609 3.53125 44.2148 3.28516C43.9688 3.03906 43.6406 2.875 43.3125 2.875H3.9375C3.52734 2.875 3.19922 3.03906 2.95312 3.28516C2.70703 3.53125 2.625 3.85938 2.625 4.1875V21.25H44.625Z" fill="#990AE3"/>
</svg>
