<svg xmlns="http://www.w3.org/2000/svg" viewBox="0 0 51 16"><path fill-rule="evenodd" d="M8.501 2.01a3.48 3.48 0 0 1 3.484 3.478c0 1.182-.594 2.23-1.499 2.855 3.975.866 4.45 2.58 4.505 3.89.01.278-.194.611-.464.683-.685.18-2.308.43-6.026.43-3.715 0-5.338-.25-6.022-.43-.27-.072-.478-.405-.464-.684.058-1.309.53-3.023 4.505-3.889A3.474 3.474 0 0 1 8.5 2.01zm0-2.01a5.497 5.497 0 0 0-5.495 5.488c0 .625.108 1.237.309 1.813C1.187 8.341.097 9.941.003 12.147c-.053 1.243.792 2.409 1.968 2.715 1.258.328 3.456.496 6.53.496 3.075 0 5.275-.165 6.534-.496 1.173-.306 2.018-1.472 1.965-2.712-.094-2.205-1.184-3.807-3.315-4.846A5.494 5.494 0 0 0 8.501 0z"/><path fill="#fff" fill-rule="evenodd" d="M25.501 2.01a3.48 3.48 0 0 1 3.484 3.478c0 1.182-.594 2.23-1.499 2.855 3.975.866 4.45 2.58 4.505 3.89.01.278-.194.611-.464.683-.685.18-2.308.43-6.026.43-3.715 0-5.338-.25-6.022-.43-.27-.072-.478-.405-.464-.684.058-1.309.53-3.023 4.505-3.889A3.474 3.474 0 0 1 25.5 2.01zm0-2.01a5.497 5.497 0 0 0-5.495 5.488c0 .625.108 1.237.309 1.813-2.128 1.04-3.218 2.64-3.312 4.846-.053 1.243.792 2.409 1.968 2.715 1.258.328 3.456.496 6.53.496 3.075 0 5.275-.165 6.534-.496 1.173-.306 2.018-1.472 1.965-2.712-.094-2.205-1.184-3.807-3.315-4.846A5.494 5.494 0 0 0 25.501 0z"/><path fill="#990AE3" fill-rule="evenodd" d="M42.501 2.01a3.48 3.48 0 0 1 3.484 3.478c0 1.182-.594 2.23-1.499 2.855 3.975.866 4.45 2.58 4.505 3.89.01.278-.194.611-.464.683-.685.18-2.308.43-6.026.43-3.715 0-5.338-.25-6.022-.43-.27-.072-.478-.405-.464-.684.058-1.309.53-3.023 4.505-3.889A3.474 3.474 0 0 1 42.5 2.01zm0-2.01a5.497 5.497 0 0 0-5.495 5.488c0 .625.108 1.237.309 1.813-2.128 1.04-3.218 2.64-3.312 4.846-.053 1.243.792 2.409 1.968 2.715 1.258.328 3.456.496 6.53.496 3.075 0 5.275-.165 6.534-.496 1.173-.306 2.018-1.472 1.965-2.712-.094-2.205-1.184-3.807-3.315-4.846A5.494 5.494 0 0 0 42.501 0z"/></svg>