<svg xmlns="http://www.w3.org/2000/svg" viewBox="0 0 64 64"><path fill="#222" fill-rule="evenodd" d="M31.4 10.52a7.2 7.2 0 0 1 5.15 2.13l9.16 9.19A7.2 7.2 0 0 1 47.84 27v25.88a7.3 7.3 0 0 1-7.29 7.29h-21a7.3 7.3 0 0 1-7.29-7.29V17.81a7.3 7.3 0 0 1 7.29-7.29zm0 4.05H19.59a3.24 3.24 0 0 0-3.23 3.24v35.07a3.24 3.24 0 0 0 3.23 3.24h21a3.24 3.24 0 0 0 3.24-3.24V27a3.21 3.21 0 0 0-.95-2.28l-9.2-9.2a3.21 3.21 0 0 0-2.28-.95zm5.69 20.5a3.79 3.79 0 0 1 3.78 3.78v10.53a3.79 3.79 0 0 1-3.78 3.78h-14a3.79 3.79 0 0 1-3.79-3.78V38.85a3.79 3.79 0 0 1 3.79-3.78zm-.29 11h-4.7v3h4.7v-3zm-8.77-7h-4.7v10h4.7v-10zm8.77 0h-4.71v3h4.71v-3zM46.3 4.1a2 2 0 0 1 2 2v2h2a2 2 0 1 1 0 4h-2v2a2 2 0 1 1-4 0v-2h-2a2 2 0 1 1 0-4h2v-2a2 2 0 0 1 2-2z"/></svg>