<svg viewBox="0 0 64 64" xmlns="http://www.w3.org/2000/svg">
    <g fill="#222" fill-rule="evenodd">
        <path d="M35.53,28.52 C36.9807208,29.9419908 37.4269024,32.1003621 36.6589076,33.981009 C35.8909128,35.8616559 34.0614154,37.0907142 32.03,37.0907142 C29.9985846,37.0907142 28.1690872,35.8616559 27.4010924,33.981009 C26.6330976,32.1003621 27.0792792,29.9419908 28.53,28.52 L28.53,28.52 C30.4742176,26.6142856 33.5857824,26.6142856 35.53,28.52 Z M58,32 C58,46.3594035 46.3594035,58 32,58 C17.6405965,58 6,46.3594035 6,32 C6,17.6405965 17.6405965,6 32,6 C38.8956287,6 45.5088305,8.73927785 50.3847763,13.6152237 C55.2607222,18.4911695 58,25.1043713 58,32 Z M54,32 C54,19.8497355 44.1502645,10 32,10 C19.8497355,10 10,19.8497355 10,32 C10,44.1502645 19.8497355,54 32,54 C44.1502645,54 54,44.1502645 54,32 Z" id="Shape" fill="#222222" fill-rule="nonzero"></path>
    </g>
</svg>