<svg xmlns="http://www.w3.org/2000/svg" viewBox="0 0 67 73"><path fill="#990AE3" stroke="#DEDEDE" d="M65.527 18.009c-.033-.575-.058-1.149-.105-1.726a23.573 23.573 0 0 0-.265-2.062l-.016-.008a18.791 18.791 0 0 0-.464-2.117l-.021-.009a16.77 16.77 0 0 0-.895-2.43l-.002-.018a14.596 14.596 0 0 0-1.001-1.818l-.022-.032-.15-.236-.008.001a13.303 13.303 0 0 0-1.198-1.54h-.009c-.368-.41-.762-.796-1.18-1.155l-.009.001a13.278 13.278 0 0 0-1.68-1.254h-.012c-.466-.29-.948-.553-1.443-.79l-.019-.023a17.512 17.512 0 0 0-3.085-1.12l-.064-.032a22.441 22.441 0 0 0-3.46-.62l-.015.012a29.229 29.229 0 0 0-4.64-.09c-.263.013-.53.026-.792.048a52.13 52.13 0 0 0-5.67.792 57.11 57.11 0 0 0-3.863.895l-.04.003c-.18.048-.36.1-.538.149a62.575 62.575 0 0 0-6.214 2.082l-.031.012c-6.141 2.42-11.927 5.803-16.632 9.826-.09.075-.177.153-.265.23l-.16.136c-.136.12-.271.238-.405.36l-.037.032a41.13 41.13 0 0 0-3.642 3.7l-.027.038c-.95 1.1-1.829 2.26-2.63 3.473-.11.16-.208.32-.31.48l-.05.077v.009c-.506.81-.97 1.646-1.391 2.504a23.601 23.601 0 0 0-1.158 2.79h-.007c-.33.955-.59 1.931-.779 2.923l.004.05a19.476 19.476 0 0 0-.315 2.975 17.435 17.435 0 0 0 .042 2.023c.09.995.258 1.981.503 2.949.127.516.278 1.043.445 1.574.365 1.18.799 2.337 1.297 3.466a44.227 44.227 0 0 0 1.828 3.602l.013.013c.246.43.499.86.76 1.292l.047.074c.058.095.114.19.174.285.384.615.784 1.23 1.202 1.843.052.078.106.154.159.235l.075.112c.153.221.309.444.466.665v.008a60.482 60.482 0 0 0 1.546 2.067l.029.037c.09.116.18.233.274.35l.008.005a63.492 63.492 0 0 0 2.696 3.192l.017.012c.437.484.878.963 1.329 1.432l.018.011c.423.441.854.876 1.29 1.303l.362.343.052.051c.375.36.75.716 1.133 1.063l.036.023a54.97 54.97 0 0 0 2.497 2.141l.015.008c.184.148.37.296.556.442l.175.134a45.633 45.633 0 0 0 2.172 1.586v.006c.485.332.971.648 1.458.95.98.63 1.99 1.21 3.027 1.737v.01a27.1 27.1 0 0 0 3.18 1.343h.012c.81.282 1.637.512 2.475.69a.03.03 0 0 1 .001.01 14.51 14.51 0 0 0 4.167.31c5.44-.442 11.688-4.668 17.015-11.58l.05-.055a53.28 53.28 0 0 0 4.397-6.768v-.008c.44-.799.866-1.618 1.278-2.458a61.655 61.655 0 0 0 2.51-5.91l-.01.01.3-.824.009-.018a64.16 64.16 0 0 0 1.26-3.98l-.001-.008c.199-.705.386-1.417.562-2.138v-.006c.228-.97.44-1.95.634-2.942l.024-.066c.155-.788.299-1.583.42-2.388l-.01-.008a65.4 65.4 0 0 0 .392-2.881c-.001-.014.009-.027.013-.041.083-.728.155-1.461.217-2.2l-.008-.005a64.67 64.67 0 0 0 .181-2.812l-.009-.007c.026-.666.045-1.335.053-2.009.016-1.17.01-2.354-.037-3.545l-.012-.006a70.25 70.25 0 0 0-.061-1.249.036.036 0 0 1 .012-.013z"/></svg>