<svg xmlns="http://www.w3.org/2000/svg" data-name="Layer 1" viewBox="0 0 652.25 527.37"><path d="M332.29 9.38L189.47 150.3a57.55 57.55 0 0 0-7.64 7.78 108.53 108.53 0 0 0-22.3-2.41h-52C48 155.67 0 204.04 0 263.58v.15c0 59.53 48 107.94 107.55 107.94h52a108.19 108.19 0 0 0 23.16-2.6 35.3 35.3 0 0 0 5.74 7.34L331.3 517.06c22.5 22.17 60.7 6.21 60.7-25.39v-456c0-30.94-36.87-47.15-59.71-26.29zm109.39 334.07A26.49 26.49 0 0 1 423 298.23a48.83 48.83 0 0 0 0-69.11 26.49 26.49 0 0 1 37.41-37.45 101.81 101.81 0 0 1 0 144 26.41 26.41 0 0 1-18.73 7.78z"/><path d="M493.64 414.8a26.49 26.49 0 0 1-18.73-45.22c58.39-58.39 58.39-153.41 0-211.8a26.49 26.49 0 1 1 37.46-37.46 202.64 202.64 0 0 1 0 286.72 26.41 26.41 0 0 1-18.73 7.76z"/><path d="M552.05 467.97a26.49 26.49 0 0 1-18.73-45.22 224.82 224.82 0 0 0 0-318.14 26.49 26.49 0 1 1 37.46-37.46 277.8 277.8 0 0 1 0 393.07 26.41 26.41 0 0 1-18.73 7.75z"/></svg>