<?xml version="1.0" encoding="UTF-8"?>
<svg width="83px" height="33px" viewBox="0 0 83 33" version="1.1" xmlns="http://www.w3.org/2000/svg" xmlns:xlink="http://www.w3.org/1999/xlink">
    <!-- Generator: Sketch 47.1 (45422) - http://www.bohemiancoding.com/sketch -->
    
    <desc>Created with Sketch.</desc>
    <defs></defs>
    <g stroke="none" stroke-width="1" fill="none" fill-rule="evenodd">
        <g transform="translate(-679.000000, -479.000000)">
            <g transform="translate(679.000000, 479.502581)">
                <path d="M37.9193327,12.1946651 C37.503427,12.1946651 37.0875213,11.8819614 36.6732467,11.259863 C36.4008692,10.8255523 36.265496,10.4987852 36.265496,10.2737709 C36.265496,9.88744121 36.5166704,9.53254733 37.0206502,9.20412571 C37.5088486,8.8797973 38.0803184,8.70833012 38.6638855,8.71107967 L48.4645809,8.71107967 C49.0876239,8.71107967 49.3991455,9.00062013 49.3991455,9.57556477 C49.4042692,10.2165987 49.220541,10.8445771 48.8715161,11.3789882 C48.5192195,11.9249788 48.1375648,12.1963196 47.7216592,12.1963196 L44.5330488,12.1963196 L44.5330488,23.0582233 C44.5330488,23.7150665 44.357716,24.3156561 44.0070504,24.8591649 C43.6563848,25.4051555 43.2714682,25.6781508 42.8571935,25.6781508 C42.4412878,25.6781508 42.0253821,25.3654471 41.6094764,24.7400397 C41.33873,24.3082108 41.2033567,23.9789619 41.2033567,23.7556021 L41.2033567,12.1946651 L37.9193327,12.1946651 Z M53.1365882,15.7998575 C52.3700169,15.7998575 51.7135383,16.0199082 51.1712299,16.4600097 C50.628106,16.9009385 50.292935,17.4899465 50.1649012,18.2262065 L55.8187722,18.2262065 C55.7962415,17.5598054 55.5006689,16.9331526 55.0032708,16.4972364 C54.4919515,16.0314898 53.8697239,15.7998575 53.1357727,15.7998575 L53.1365882,15.7998575 Z M50.1657167,20.6533829 C50.340234,21.4061881 50.7235197,22.0100868 51.3155737,22.468388 C51.9059967,22.9233801 52.6162983,23.1517035 53.4472942,23.1517035 C54.1510719,23.1517035 54.9885918,22.9117985 55.9631159,22.4319886 C56.4116417,22.2069743 56.8251009,22.0952944 57.2083865,22.0952944 C57.7197059,22.0952944 57.9749578,22.3269268 57.9749578,22.791846 C57.9749578,23.2096115 57.8836217,23.6083501 57.7001339,23.9930253 C57.516646,24.3768732 57.2817817,24.6564866 56.9939097,24.8318654 C56.4299706,25.1780912 55.8204118,25.4413064 55.1834966,25.6136247 C54.5399298,25.7945701 53.8753632,25.8872202 53.2075368,25.8891017 C52.0576799,25.8891017 51.0056831,25.5846706 50.0580706,24.9758084 C49.132931,24.3949369 48.3694053,23.5839548 47.8399068,22.6197763 C47.3186994,21.6813742 47.0461589,20.6219533 47.0488705,19.5448565 C47.0488705,18.3271321 47.337558,17.2260511 47.913302,16.2407862 C48.4882304,15.2563487 49.2384917,14.4952709 50.1657167,13.9575529 C51.0917562,13.421458 52.1413526,13.1440006 53.2075368,13.1534576 C54.2782901,13.1534576 55.2405817,13.4049442 56.0944117,13.9095719 C56.9506881,14.4141995 57.6087977,15.0842789 58.072818,15.9173282 C58.5366354,16.7526683 58.7762183,17.6968611 58.7676251,18.6555537 C58.7741205,19.1457092 58.6364167,19.6267007 58.372107,20.0370753 C58.1087,20.445741 57.8175661,20.6492466 57.4978895,20.6492466 L50.1657167,20.6492466 L50.1657167,20.6533829 Z M63.2006906,25.6748418 C62.4814184,25.6748418 61.8583753,25.3910921 61.3315614,24.8227656 C60.8165399,24.2869595 60.5320581,23.565799 60.5405251,22.817491 L60.5405251,10.0562019 C60.5405251,9.70461709 60.7851755,9.36792289 61.2720298,9.04694661 C61.7365594,8.73401682 62.2817953,8.56710942 62.8394235,8.5671367 C63.4306619,8.5671367 63.7266889,8.84013199 63.7266889,9.3836408 L63.7266889,21.7809362 C63.7266889,21.9894053 63.770726,22.1614751 63.8588002,22.2979727 C63.9460588,22.4344704 64.1034506,22.5511138 64.3260824,22.6454213 C64.5813344,22.7595829 64.7093681,22.9845972 64.7093681,23.3196369 C64.7093681,23.911954 64.5495298,24.452981 64.2306688,24.9410635 C63.9101768,25.4308005 63.5668507,25.6748418 63.1998751,25.6748418 L63.2006906,25.6748418 Z M68.0406912,25.6748418 C67.6737156,25.6748418 67.2741199,25.3687561 66.8419042,24.7623757 C66.5866522,24.3437829 66.4586185,24.0319065 66.4586185,23.8234373 L66.4586185,14.8609191 C66.4586185,14.5101615 66.7032689,14.1742946 67.1893077,13.8516638 C67.6547753,13.5389854 68.2008756,13.3726495 68.7591479,13.3735084 C69.3520174,13.3735084 69.6480444,13.6448492 69.6480444,14.1900125 L69.6480444,23.1492217 C69.6480444,23.5818779 69.5632322,23.9988161 69.3952389,24.4000365 C69.2280612,24.7996023 69.0201083,25.1114788 68.7730114,25.3364931 C68.525099,25.5598529 68.2820796,25.6731873 68.0415067,25.6731873 L68.0406912,25.6748418 Z M68.0415067,11.8331531 C67.625601,11.8331531 67.1933852,11.5055588 66.747306,10.8487155 C66.443124,10.3854508 66.2922562,10.0239389 66.2922562,9.76748873 C66.2922562,9.36709563 66.5638182,8.98986577 67.1061266,8.63745367 C67.6264592,8.29259548 68.2346488,8.10917558 68.8561925,8.10966276 C69.5249037,8.10966276 69.8608902,8.41326662 69.8608902,9.02212885 C69.8618841,9.49678949 69.7681203,9.96673942 69.5852508,10.4036505 C69.4017629,10.8445793 69.1693451,11.1928551 68.8904436,11.4484779 C68.6099111,11.7049281 68.3277476,11.8331531 68.0390602,11.8331531 L68.0415067,11.8331531 Z M77.5771641,22.6950568 C78.291574,22.6964636 78.9911282,22.4881686 79.5914525,22.0952944 L79.5914525,16.6395248 C78.9993985,16.3044851 78.3355804,16.1348971 77.6016292,16.1348971 C76.6915296,16.1348971 75.9282204,16.4442918 75.3133323,17.0614266 C74.6984443,17.6777342 74.3918158,18.4512209 74.3918158,19.3794049 C74.3918158,20.3092434 74.6984443,21.0943117 75.3133323,21.7337824 C75.9282204,22.375735 76.6833746,22.695884 77.5771641,22.695884 L77.5771641,22.6950568 Z M77.3626873,25.6773236 C76.2128303,25.6773236 75.1689886,25.3877831 74.2368705,24.8120112 C73.3255566,24.2607899 72.5727883,23.4766308 72.0537734,22.5378777 C71.5357638,21.603868 71.2675606,20.5486702 71.2757851,19.4770213 C71.2757851,18.2899055 71.5718121,17.2103332 72.1622351,16.2325136 C72.7534736,15.2546941 73.5208603,14.4977526 74.4635799,13.9608619 C75.3910696,13.4282954 76.4396448,13.1508228 77.5054,13.1559394 C78.4334406,13.1559394 79.3362006,13.4123895 80.215311,13.9252898 C80.7739295,13.5555052 81.3325479,13.3710266 81.8919819,13.3710266 C82.4832203,13.3710266 82.7784318,13.6440219 82.7784318,14.188358 L82.7784318,23.1500489 C82.7795214,23.5792841 82.6946228,24.0042682 82.5288884,24.3992092 C82.3608951,24.8004296 82.1537578,25.1139605 81.9058454,25.3373203 C81.6571175,25.5606801 81.4140981,25.6740145 81.1743407,25.6740145 C80.807365,25.6740145 80.4077694,25.3704107 79.9755536,24.7615484 C79.8386826,24.5510298 79.7264733,24.3250414 79.6411981,24.08816 C79.5238695,24.4209806 79.3490719,24.7299559 79.1249857,25.0006261 C78.9096934,25.2570763 78.6821685,25.4250097 78.4424111,25.5052538 C78.1080555,25.6161064 77.7476039,25.6731873 77.3643183,25.6731873 L77.3626873,25.6773236 Z" fill="#9909E3"></path>
                <g stroke-width="1">
                    <path d="M17.3841929,27.819923 C24.038684,25.1230604 27.625259,21.2928537 29.2986678,18.1724347 C29.6004033,17.2922317 29.8678878,16.3797657 30.0978591,15.4391728 C28.7229238,18.6762352 25.7447129,21.7147555 21.5807629,24.1369683 C14.5715287,28.213698 9.103592,29.2725888 5.78694795,26.3159671 C6.25977807,26.8711044 6.7540871,27.407036 7.26871393,27.922503 L7.29317897,27.9423572 C8.9837133,29.2974066 12.0426589,29.9898219 17.3858239,27.8182685" fill="#FFFFFF"></path>
                    <path d="M18.9646345,18.9475759 C25.6435907,15.7295405 30.6915441,10.8056981 30.933748,6.89028378 C30.8138693,5.67586836 30.4852223,4.65420415 29.9942905,3.80295519 C30.915807,7.26916816 25.6248342,12.4974417 18.0259924,16.172951 C10.0846401,20.0114303 3.28988277,21.2688632 1.06682605,18.3122414 C1.35225152,19.1593541 1.72493565,20.0345936 2.16775289,20.9123148 C4.86543141,23.8722456 10.9099275,22.8282454 18.963819,18.9475759" fill="#FFFFFF"></path>
                    <path d="M21.5823939,24.1377955 C25.7463439,21.7155828 28.7245548,18.6778897 30.0986746,15.4383455 C30.6912053,12.9882202 30.989668,10.4744323 30.9875711,7.9516564 C30.9875711,7.5810446 30.9712611,7.22697798 30.9370101,6.88780201 C30.6915441,10.8056981 25.6435907,15.7295405 18.9646345,18.9475759 C10.910743,22.8274181 4.86706241,23.8722456 2.17019939,20.9123148 C3.10639496,22.7670283 4.36063606,24.6391142 5.78694795,26.3176216 C9.1060385,29.2725888 14.5731597,28.213698 21.5832094,24.1369683 L21.5823939,24.1377955 Z" fill="#9909E3"></path>
                    <path d="M18.0268079,16.172951 C25.6248342,12.4974417 30.9166225,7.26916816 29.9942905,3.80295519 C28.4774579,1.17889133 25.4128038,0.179563106 22.1247023,0.179563106 C12.379461,0.179563106 0.420133464,6.62142478 0.420133464,14.8385831 C0.420133464,15.8941649 0.652551353,17.07549 1.06845705,18.3130687 C3.29151377,21.2696904 10.0862711,20.0130848 18.0259924,16.1737783" fill="#9909E3"></path>
                    <path d="M17.3825619,27.819923 C12.0393969,29.9923037 8.98045129,29.3007156 7.28991696,27.9440118 L7.26545192,27.9249848 C9.88484231,30.5416033 12.8663153,32.3822534 15.4808127,32.3822534 C20.0606683,32.3822534 26.3310583,26.8106677 29.2978523,18.1724347 C27.6260745,21.2911992 24.0378685,25.1230604 17.3858239,27.819923" fill="#9909E3"></path>
                </g>
            </g>
        </g>
    </g>
</svg>