<?xml version="1.0" encoding="UTF-8"?>
<svg width="64px" height="64px" viewBox="0 0 64 64" version="1.1" xmlns="http://www.w3.org/2000/svg" xmlns:xlink="http://www.w3.org/1999/xlink">
    <!-- Generator: Sketch 60.1 (88133) - https://sketch.com -->
    <title>Icons/pulse</title>
    <desc>Created with Sketch.</desc>
    <g id="Icons/pulse" stroke="none" stroke-width="1" fill="none" fill-rule="evenodd">
        <path d="M17.2516854,21.0287141 C18.0695441,19.5565685 20.2033481,19.7049441 20.8389089,21.2122897 L20.8973666,21.3675445 L25.459,35.053 L28.2516854,30.0287141 C28.5772908,29.4426246 29.1725784,29.062009 29.833516,29.0069208 L30,29 L54,29 C55.1045695,29 56,29.8954305 56,31 C56,32.0543618 55.1841222,32.9181651 54.1492623,32.9945143 L54,33 L31.176,33 L26.7483146,40.9712859 C25.9304559,42.4434315 23.7966519,42.2950559 23.1610911,40.7877103 L23.1026334,40.6324555 L18.54,26.946 L15.7483146,31.9712859 C15.4227092,32.5573754 14.8274216,32.937991 14.166484,32.9930792 L14,33 L10,33 C8.8954305,33 8,32.1045695 8,31 C8,29.9456382 8.81587779,29.0818349 9.85073766,29.0054857 L10,29 L12.822,29 L17.2516854,21.0287141 Z" id="Path-12" fill="#222222"></path>
    </g>
</svg>