<svg version="1.1" xmlns="http://www.w3.org/2000/svg" xmlns:xlink="http://www.w3.org/1999/xlink" style="display:none">
<symbol viewBox="0 0 113.52 37.84" id="facebook_icon_sprite"><defs><style>.cls-1{fill:none}.cls-2{clip-path:url(#clip-path)}</style><clipPath id="clip-path"><path d="M0 0h37.84v37.84H0z" class="cls-1"/></clipPath></defs><g id="Layer_2" data-name="Layer 2"><path id="Layer_1-2" d="M17.09 18.92h-5.23v18.92H3.93V18.92H0v-6.74h3.77V7.82a10.86 10.86 0 0 1 .33-2.54 6.94 6.94 0 0 1 1.24-2.53A6.44 6.44 0 0 1 7.82.81a8.61 8.61 0 0 1 4-.81h6.31v6.31c-.81.05-1.51.05-2.16.05h-2.6a1.9 1.9 0 0 0-1.13.38c-.38.21-.54.75-.54 1.45v4h6z" data-name="Layer 1" transform="translate(9.46)"/></g><g id="Layer_2" data-name="Layer 2" transform="translate(37.84)"><path id="Layer_1-2" fill="#FFF" d="M17.09 18.92h-5.23v18.92H3.93V18.92H0v-6.74h3.77V7.82a10.86 10.86 0 0 1 .33-2.54 6.94 6.94 0 0 1 1.24-2.53A6.44 6.44 0 0 1 7.82.81a8.61 8.61 0 0 1 4-.81h6.31v6.31c-.81.05-1.51.05-2.16.05h-2.6a1.9 1.9 0 0 0-1.13.38c-.38.21-.54.75-.54 1.45v4h6z" data-name="Layer 1" transform="translate(9.46)"/></g><g id="Layer_2" data-name="Layer 2" transform="translate(75.68)"><path id="Layer_1-2" fill="#990AE3" d="M17.09 18.92h-5.23v18.92H3.93V18.92H0v-6.74h3.77V7.82a10.86 10.86 0 0 1 .33-2.54 6.94 6.94 0 0 1 1.24-2.53A6.44 6.44 0 0 1 7.82.81a8.61 8.61 0 0 1 4-.81h6.31v6.31c-.81.05-1.51.05-2.16.05h-2.6a1.9 1.9 0 0 0-1.13.38c-.38.21-.54.75-.54 1.45v4h6z" data-name="Layer 1" transform="translate(9.46)"/></g></symbol>
<symbol viewBox="0 0 1417 152" id="full-screen-image-mask"><path fill="#FFF" fill-rule="evenodd" d="M1416.281-.014v151.336H-.288C935.129 111.722 1401.807 3.39 1416.282-.014z"/></symbol>
<symbol viewBox="0 0 15 15" id="ico_add_purple"><path fill="#990AE3" fill-rule="evenodd" d="M13.175 5.675H9.322V1.822a1.822 1.822 0 1 0-3.644 0v3.853H1.822a1.822 1.822 0 0 0 0 3.647h3.853v3.853a1.822 1.822 0 1 0 3.644 0V9.322h3.853A1.822 1.822 0 0 0 14.994 7.5a1.818 1.818 0 0 0-1.819-1.825z"/></symbol>
<symbol viewBox="0 0 15 15" id="ico_add_white"><path fill="#FFF" fill-rule="evenodd" d="M13.175 5.675H9.322V1.822a1.822 1.822 0 1 0-3.644 0v3.853H1.822a1.822 1.822 0 0 0 0 3.647h3.853v3.853a1.822 1.822 0 1 0 3.644 0V9.322h3.853A1.822 1.822 0 0 0 14.994 7.5a1.818 1.818 0 0 0-1.819-1.825z"/></symbol>
<symbol viewBox="0 0 9 13" id="ico_backarrow_black"><path fill-rule="evenodd" d="M1.995 3.95l2.914-2.913a1.95 1.95 0 1 0 2.758 2.758L4.752 6.709l2.915 2.915a1.95 1.95 0 1 0-2.758 2.757L1.995 9.467.649 8.12a2.001 2.001 0 0 1 0-2.822l1.346-1.347z"/></symbol>
<symbol viewBox="0 0 17 18" id="ico_buy_purple"><path fill="#990AE3" fill-rule="evenodd" d="M16.114 13.781H4.82l.549-1.753 9.966-2.045a.887.887 0 0 0 .693-.707l.95-5.143a.883.883 0 0 0-.87-1.045H4.665l-.17-1.54A.884.884 0 0 0 3.616.76H.884a.884.884 0 0 0 0 1.768h1.94l.952 8.65-1.005 3.224a.884.884 0 0 0 .845 1.148h1.22a1.234 1.234 0 0 0 .77 2.203 1.234 1.234 0 1 0 .77-2.203h7.37a1.234 1.234 0 0 0 .77 2.203 1.234 1.234 0 1 0 .77-2.203h.828a.884.884 0 0 0 0-1.768zM9.423 9.388l-1.115.228-.524-4.76h1.141l.498 4.532zm1.28-4.532h1.141l.435 3.947-1.115.228-.461-4.175zm3.694 3.512l-.377.078-.396-3.59h1.421l-.648 3.512zM6 4.856l.563 5.117-1.114.229-.59-5.348H6v.002z"/></symbol>
<symbol viewBox="0 0 51 17" id="ico_buy"><path fill-rule="evenodd" d="M16.114 13.022H4.82l.549-1.753 9.966-2.045a.887.887 0 0 0 .693-.707l.95-5.144a.883.883 0 0 0-.87-1.044H4.665l-.17-1.54A.884.884 0 0 0 3.616 0H.884a.884.884 0 0 0 0 1.768h1.94l.952 8.65-1.005 3.223a.884.884 0 0 0 .845 1.149h1.22a1.234 1.234 0 0 0 .77 2.203 1.234 1.234 0 1 0 .77-2.203h7.37a1.234 1.234 0 0 0 .77 2.203 1.234 1.234 0 1 0 .77-2.203h.828a.884.884 0 0 0 0-1.768zM9.423 8.629l-1.115.228-.524-4.76h1.141l.498 4.532zm1.28-4.532h1.141l.435 3.946-1.115.229-.461-4.175zm3.694 3.512l-.377.077-.396-3.589h1.421l-.648 3.512zM6 4.097l.563 5.117-1.114.228-.59-5.347H6v.002z"/><path fill="#fff" fill-rule="evenodd" d="M33.114 13.022H21.82l.549-1.753 9.966-2.045a.887.887 0 0 0 .693-.707l.95-5.144a.883.883 0 0 0-.87-1.044H21.665l-.17-1.54A.884.884 0 0 0 20.616 0h-2.732a.884.884 0 0 0 0 1.768h1.94l.952 8.65-1.005 3.223a.884.884 0 0 0 .845 1.149h1.22a1.234 1.234 0 0 0 .77 2.203 1.234 1.234 0 1 0 .77-2.203h7.37a1.234 1.234 0 0 0 .77 2.203 1.234 1.234 0 1 0 .77-2.203h.828a.884.884 0 0 0 0-1.768zm-6.691-4.393l-1.115.228-.524-4.76h1.141l.498 4.532zm1.28-4.532h1.141l.435 3.946-1.115.229-.461-4.175zm3.694 3.512l-.377.077-.396-3.589h1.421l-.648 3.512zM23 4.097l.563 5.117-1.114.228-.59-5.347H23v.002z"/><path fill="#990AE3" fill-rule="evenodd" d="M50.114 13.022H38.82l.549-1.753 9.966-2.045a.887.887 0 0 0 .693-.707l.95-5.144a.883.883 0 0 0-.87-1.044H38.665l-.17-1.54A.884.884 0 0 0 37.616 0h-2.732a.884.884 0 0 0 0 1.768h1.94l.952 8.65-1.005 3.223a.884.884 0 0 0 .845 1.149h1.22a1.234 1.234 0 0 0 .77 2.203 1.234 1.234 0 1 0 .77-2.203h7.37a1.234 1.234 0 0 0 .77 2.203 1.234 1.234 0 1 0 .77-2.203h.828a.884.884 0 0 0 0-1.768zm-6.691-4.393l-1.115.228-.524-4.76h1.141l.498 4.532zm1.28-4.532h1.141l.435 3.946-1.115.229-.461-4.175zm3.694 3.512l-.377.077-.396-3.589h1.421l-.648 3.512zM40 4.097l.563 5.117-1.114.228-.59-5.347H40v.002z"/></symbol>
<symbol viewBox="0 0 14 11" id="ico_check_purple"><path fill="#990AE3" d="M5.6 5.3L4 3.47c-.7-.8-1.93-.9-2.75-.2C.43 3.97.33 5.2 1.03 6L4 9.46l.05.06c0 .03.02.04.03.05l.07.07c.36.36.83.54 1.3.55.46 0 .94-.15 1.32-.47l.04-.04c.04 0 .05 0 .06-.03l.08-.1 5.94-6.12c.75-.76.73-2-.04-2.75-.78-.74-2-.73-2.76.05L5.6 5.3z"/></symbol>
<symbol viewBox="0 0 14 11" id="ico_check"><path d="M5.6 5.3L4 3.47c-.7-.8-1.93-.9-2.75-.2C.43 3.97.33 5.2 1.03 6L4 9.46l.05.06c0 .03.02.04.03.05l.07.07c.36.36.83.54 1.3.55.46 0 .94-.15 1.32-.47l.04-.04c.04 0 .05 0 .06-.03l.08-.1 5.94-6.12c.75-.76.73-2-.04-2.75-.78-.74-2-.73-2.76.05L5.6 5.3z"/></symbol>
<symbol viewBox="0 0 21 16" id="ico_checkmark_green"><path fill="#0C6" d="M17.705.592L7.644 11.124l-4.35-4.551a1.87 1.87 0 0 0-2.729 0 2.087 2.087 0 0 0 0 2.856l5.714 5.98A1.89 1.89 0 0 0 7.644 16c.511 0 1.002-.213 1.364-.592l11.427-11.96c.487-.51.678-1.254.5-1.951A1.977 1.977 0 0 0 19.57.069a1.872 1.872 0 0 0-1.864.523z"/></symbol>
<symbol viewBox="0 0 1784.46 536.01" id="ico_contacts"><path d="M440.67 157.71a157.46 157.46 0 0 1-67.95 129.56c180 39.29 190.52 138.93 193.09 198.23.54 12.67-8.79 27.8-21 31-31 8.13-93.57 19.5-261.83 19.5s-230.8-11.36-261.85-19.5c-12.28-3.22-21.6-18.34-21.06-31 2.56-59.3 13.12-158.94 193.1-198.23a157.69 157.69 0 1 1 247.5-129.56z"/><path fill="#fff" d="M1035.49 157.71a157.46 157.46 0 0 1-67.95 129.56c180 39.29 190.52 138.93 193.09 198.23.54 12.67-8.79 27.8-21 31-31 8.13-93.57 19.5-261.83 19.5S647 524.64 615.95 516.5c-12.28-3.22-21.6-18.34-21.06-31 2.56-59.3 13.12-158.94 193.1-198.23a157.69 157.69 0 1 1 247.5-129.56z"/><path fill="#990AE3" d="M1630.31 157.71a157.46 157.46 0 0 1-67.95 129.56c180 39.29 190.52 138.93 193.09 198.23.54 12.67-8.79 27.8-21 31-31 8.13-93.57 19.5-261.83 19.5s-230.8-11.36-261.85-19.5c-12.28-3.22-21.6-18.34-21.06-31 2.56-59.3 13.12-158.94 193.1-198.23a157.69 157.69 0 1 1 247.5-129.56z"/></symbol>
<symbol viewBox="0 0 17 17" id="ico_content"><g fill-rule="evenodd"><path d="M12.27 2.977c.2.202.465.311.75.311h2.21L11.958 0v2.227c0 .284.112.551.311.75z"/><path d="M17 8.206v1.698c0 .415-.16.828-.447 1.158a1.773 1.773 0 0 1-1.066.612l-.257.046v3.51c0 .585-.479 1.063-1.064 1.063h-1.071a3.874 3.874 0 0 1-1.567.646 4.03 4.03 0 0 1-.701.061c-.843 0-1.596-.265-2.155-.71H4.25a1.067 1.067 0 0 1-1.064-1.063V12.69A5.51 5.51 0 0 1 0 7.703a5.507 5.507 0 0 1 3.186-4.985V1.064C3.186.478 3.665 0 4.25 0h6.645v2.227a2.124 2.124 0 0 0 2.122 2.125h2.21v2.276c.06-.008.12-.015.177-.015A1.598 1.598 0 0 1 17 8.206zm-1.593-.532l-.095.008-2.615.463a.532.532 0 0 0-.44.525v3.885a2.595 2.595 0 0 0-1.018-.198c-.167 0-.34.014-.514.046-1.254.22-2.13 1.18-1.96 2.144.145.828 1.02 1.39 2.06 1.39.17 0 .342-.015.516-.047 1.081-.192 1.883-.935 1.97-1.753l.007-.221v-2.939l1.992-.352a.728.728 0 0 0 .434-.255c.122-.14.19-.31.19-.469V8.204a.521.521 0 0 0-.19-.406.517.517 0 0 0-.337-.124zM5.503 3.262a4.442 4.442 0 1 0 0 8.884 4.442 4.442 0 0 0 0-8.884z"/><path d="M8.522 7.359L4.129 4.72c-.285-.163-.515.003-.515.364v5.236c0 .362.23.525.515.365L8.524 8.05c.27-.192.27-.503-.002-.692z"/></g></symbol>
<symbol viewBox="0 0 459.8 463.27" id="ico_databoost_purple"><path fill="#990AE3" d="M96.23 383.28l-91.9 79.68c-1.76 1.39-5.43-2.32-4-4.07l80.77-90.93c2.25-2.54 7.27-1.45 11.06 2.38l1.83 1.85c3.78 3.83 4.8 8.87 2.24 11.09zm-73.6-4.09l82.63-70.56c2.31-2 1.07-6.79-2.71-10.62l-1.84-1.86c-3.78-3.83-8.6-5.12-10.59-2.84l-71.5 81.82c-1.25 1.57 2.42 5.29 4.01 4.06zm166.93-37.15c-3.79-3.83-9.15-4.57-11.81-1.64L82.29 445.84c-1.68 2 2 5.73 4 4.07l106.61-94.18c3-2.62 2.29-8-1.5-11.83zm143.35-71l-.69-.18a141.48 141.48 0 0 1-41.51 96.63l-55.67-55.68a62.18 62.18 0 0 1-81.58 1.92l-37.87 32.9c-1.77 1.39-5.44-2.32-4-4.07l33.25-37.43a62.19 62.19 0 0 1 2.35-81.06L90.03 166.9a141.44 141.44 0 0 1 100-41.55c12.43-15.63 115.75-139 268.54-124 15.99 163-125.67 269.73-125.67 269.73zm33.62-134a43.76 43.76 0 1 0-43.76 43.75 43.76 43.76 0 0 0 43.76-43.76z"/></symbol>
<symbol viewBox="0 0 2010 670.83" id="ico_default_doc"><path d="M495.84 627.09a43.87 43.87 0 0 1-43.75 43.75H43.75A43.87 43.87 0 0 1 0 627.09V43.75A43.88 43.88 0 0 1 43.75 0h273.64v91.69a87.5 87.5 0 0 0 87.47 87.49h91v447.91z"/><path d="M373.92 122.62a43.46 43.46 0 0 0 30.9 12.8h91L361.14 0v91.69a43.61 43.61 0 0 0 12.78 30.93z"/><g fill="#fff"><path d="M1165.84 627.09a43.87 43.87 0 0 1-43.75 43.75H713.75A43.87 43.87 0 0 1 670 627.09V43.75A43.88 43.88 0 0 1 713.75 0h273.64v91.69a87.5 87.5 0 0 0 87.47 87.49h91v447.91z"/><path d="M1043.92 122.62a43.46 43.46 0 0 0 30.9 12.8h91L1031.14 0v91.69a43.61 43.61 0 0 0 12.78 30.93z"/></g><g fill="#990AE3"><path d="M1835.84 627.09a43.87 43.87 0 0 1-43.75 43.75h-408.34a43.87 43.87 0 0 1-43.75-43.75V43.75A43.88 43.88 0 0 1 1383.75 0h273.64v91.69a87.5 87.5 0 0 0 87.47 87.49h91v447.91z"/><path d="M1713.92 122.62a43.46 43.46 0 0 0 30.9 12.8h91L1701.14 0v91.69a43.61 43.61 0 0 0 12.78 30.93z"/></g></symbol>
<symbol viewBox="0 0 10 10" id="ico_delete_purple"><path fill="#990AE3" fill-rule="evenodd" d="M7.2 4.995l2.332-2.332A1.559 1.559 0 1 0 7.326.457L4.995 2.79 2.663.457A1.559 1.559 0 1 0 .457 2.663L2.79 4.995.457 7.326a1.559 1.559 0 1 0 2.206 2.206l2.332-2.331 2.331 2.331a1.559 1.559 0 1 0 2.206-2.206L7.201 4.995z"/></symbol>
<symbol viewBox="0 0 10 10" id="ico_delete_white"><path fill="#FFF" fill-rule="evenodd" d="M7.2 4.995l2.332-2.332A1.559 1.559 0 1 0 7.326.457L4.995 2.79 2.663.457A1.559 1.559 0 1 0 .457 2.663L2.79 4.995.457 7.326a1.559 1.559 0 1 0 2.206 2.206l2.332-2.331 2.331 2.331a1.559 1.559 0 1 0 2.206-2.206L7.201 4.995z"/></symbol>
<symbol viewBox="0 0 63 21" id="ico_delete"><defs><path id="a" d="M25.773 22.502l6.546 6.546c.907.907.912 2.366.005 3.273a2.318 2.318 0 0 1-3.278 0L22.5 25.775l-6.546 6.546a2.318 2.318 0 0 1-3.278 0 2.313 2.313 0 0 1 .005-3.273l6.546-6.546-6.546-6.546a2.309 2.309 0 0 1-.005-3.274 2.314 2.314 0 0 1 3.278 0L22.5 19.23l6.546-6.547a2.309 2.309 0 0 1 3.273-.004 2.318 2.318 0 0 1 0 3.278l-6.546 6.546z"/></defs><use fill-rule="evenodd" transform="translate(-12 -12)" xlink:href="#a"/><use fill="#fff" fill-rule="evenodd" transform="translate(9 -12)" xlink:href="#a"/><use fill="#990AE3" fill-rule="evenodd" transform="translate(30 -12)" xlink:href="#a"/></symbol>
<symbol viewBox="0 0 17 18" id="ico_download_purple"><g fill="#990AE3" fill-rule="evenodd"><path d="M8.098 10.269c.22.307.574.307.79 0l3.01-5.013c.185-.324-.003-.587-.416-.587h-1.98V1.011a1.012 1.012 0 0 0-2.025 0v3.66H5.499c-.413 0-.601.264-.416.588l3.015 5.01z"/><path d="M14.762 8.488H12.98a1.012 1.012 0 1 0 0 2.022h.771c.666 0 1.212.545 1.212 1.21v2.224c0 .664-.546 1.21-1.212 1.21H3.234a1.216 1.216 0 0 1-1.212-1.21V11.72c0-.668.546-1.21 1.212-1.21h.77a1.012 1.012 0 1 0 0-2.022h-1.78A2.226 2.226 0 0 0 0 10.71v4.243c0 1.224.998 2.218 2.224 2.218h12.538a2.226 2.226 0 0 0 2.225-2.221v-4.24a2.226 2.226 0 0 0-2.225-2.22z"/></g></symbol>
<symbol viewBox="0 0 17 18" id="ico_download_white"><g fill="#FFF" fill-rule="evenodd"><path d="M8.098 10.269c.22.307.574.307.79 0l3.01-5.013c.185-.324-.003-.587-.416-.587h-1.98V1.011a1.012 1.012 0 0 0-2.025 0v3.66H5.499c-.413 0-.601.264-.416.588l3.015 5.01z"/><path d="M14.762 8.488H12.98a1.012 1.012 0 1 0 0 2.022h.771c.666 0 1.212.545 1.212 1.21v2.224c0 .664-.546 1.21-1.212 1.21H3.234a1.216 1.216 0 0 1-1.212-1.21V11.72c0-.668.546-1.21 1.212-1.21h.77a1.012 1.012 0 1 0 0-2.022h-1.78A2.226 2.226 0 0 0 0 10.71v4.243c0 1.224.998 2.218 2.224 2.218h12.538a2.226 2.226 0 0 0 2.225-2.221v-4.24a2.226 2.226 0 0 0-2.225-2.22z"/></g></symbol>
<symbol viewBox="0 0 17 18" id="ico_download"><g fill-rule="evenodd"><path d="M8.098 10.269c.22.307.574.307.79 0l3.01-5.013c.185-.324-.003-.587-.416-.587h-1.98V1.011a1.012 1.012 0 0 0-2.025 0v3.66H5.499c-.413 0-.601.264-.416.588l3.015 5.01z"/><path d="M14.762 8.488H12.98a1.012 1.012 0 1 0 0 2.022h.771c.666 0 1.212.545 1.212 1.21v2.224c0 .664-.546 1.21-1.212 1.21H3.234a1.216 1.216 0 0 1-1.212-1.21V11.72c0-.668.546-1.21 1.212-1.21h.77a1.012 1.012 0 1 0 0-2.022h-1.78A2.226 2.226 0 0 0 0 10.71v4.243c0 1.224.998 2.218 2.224 2.218h12.538a2.226 2.226 0 0 0 2.225-2.221v-4.24a2.226 2.226 0 0 0-2.225-2.22z"/></g></symbol>
<symbol viewBox="0 0 9 13" id="ico_backarrow_purple"><style>.st0{fill:#990ae3}</style><path d="M2.3 9.5l2.9 2.9c.8.8 2 .8 2.8 0 .8-.8.8-2 0-2.8L5.1 6.7 8 3.8c.8-.8.8-2 0-2.8-.8-.7-2-.7-2.7 0l-3 3L1 5.3c-.8.8-.8 2.1 0 2.8l1.3 1.4z" class="st0"/></symbol>
<symbol viewBox="0 0 15 10" id="ico_dropArrow_purple"><path fill="#990AE3" fill-rule="evenodd" d="M.975.67a1.408 1.408 0 0 1 2.073 0l4.496 4.761 4.51-4.777a1.408 1.408 0 0 1 2.073 0 1.62 1.62 0 0 1 0 2.196L8.581 8.725c-.573.607-1.5.607-2.074 0L.975 2.866a1.597 1.597 0 0 1-.429-1.098C.546 1.37.69.973.976.67z"/></symbol>
<symbol viewBox="0 0 9 13" id="ico_backarrow_white"><style>.st0{fill:#fff}</style><path d="M2.3 9.5l2.9 2.9c.8.8 2 .8 2.8 0 .8-.8.8-2 0-2.8L5.1 6.7 8 3.8c.8-.8.8-2 0-2.8-.8-.7-2-.7-2.7 0l-3 3L1 5.3c-.8.8-.8 2.1 0 2.8l1.3 1.4z" class="st0"/></symbol>
<symbol viewBox="0 0 15 10" id="ico_dropArrow"><path fill-rule="evenodd" d="M.975.67a1.408 1.408 0 0 1 2.073 0l4.496 4.761 4.51-4.777a1.408 1.408 0 0 1 2.073 0 1.62 1.62 0 0 1 0 2.196L8.581 8.725c-.573.607-1.5.607-2.074 0L.975 2.866a1.597 1.597 0 0 1-.429-1.098C.546 1.37.69.973.976.67z"/></symbol>
<symbol viewBox="0 0 16 18" id="ico_edit"><g fill-rule="evenodd"><path d="M9.976 3.278c.221.22.514.34.823.34h2.425L9.634.017v2.44c0 .308.123.601.342.822z"/><path d="M12.838 15.6l-.24.237a2.697 2.697 0 0 1-.733.513.586.586 0 0 1-.392.154h-.002c-.094.03-.187.059-.285.078l-1.642.41-.042.01-.043.008a1.754 1.754 0 0 1-.31.027c-.468 0-.902-.195-1.2-.533H1.76a.583.583 0 1 1 0-1.165h5.8c.004-.07.004-.141.014-.213l.008-.042.01-.043.403-1.602H1.761a.583.583 0 1 1 0-1.165h6.752c.032-.04.059-.085.093-.123l.014-.023.133-.134 1.62-1.617H1.761a.583.583 0 1 1 0-1.166h9.715c.019 0 .037.003.059.006l.858-.857c.245-.245.527-.434.834-.567V4.784h-2.425c-.645 0-1.226-.26-1.647-.681a2.32 2.32 0 0 1-.682-1.647V.016H1.178A1.17 1.17 0 0 0 .01 1.179v15.52a1.17 1.17 0 0 0 1.167 1.165h10.879c.642 0 1.164-.524 1.164-1.165v-1.485l-.383.386zM1.76 6.152h9.715a.583.583 0 1 1 0 1.165H1.761a.583.583 0 1 1 0-1.165z"/><path d="M15.172 11.622l.24-.242a1.55 1.55 0 0 0 0-2.195 1.555 1.555 0 0 0-2.2 0l-.241.24 2.2 2.197zm-.824.825l-2.198-2.198-2.574 2.57v.003a1.528 1.528 0 0 0-.429.83l-.42 1.676c-.057.32.133.548.428.548a.524.524 0 0 0 .11-.01l1.678-.42a1.54 1.54 0 0 0 .831-.429l.24-.24 2.334-2.33z"/></g></symbol>
<symbol viewBox="0 0 616 557.15" id="ico_end_user"><path d="M308 72.92a126.11 126.11 0 0 1 71.85 229.81c144 31.44 161.18 93.64 163.23 141.09.43 10.14-7 22.25-16.83 24.8-24.84 6.49-83.63 15.62-218.25 15.62s-193.38-9.12-218.22-15.66c-9.81-2.56-17.28-14.67-16.85-24.8 2.05-47.45 19.24-109.66 163.22-141.09A126.1 126.1 0 0 1 308 72.92M308 0C198.21 0 108.88 89.31 108.88 199.09a198.65 198.65 0 0 0 11.24 65.83C43 302.63 3.55 360.71.09 440.68c-1.89 45.07 28.74 87.4 71.26 98.51 45.62 11.92 125.24 18 236.64 18s191.06-6 236.69-18c42.51-11.12 73.14-53.44 71.24-98.43-3.45-80.03-42.92-138.18-120.06-175.84a198.45 198.45 0 0 0 11.24-65.83C507.1 89.31 417.78 0 308 0z"/></symbol>
<symbol viewBox="0 0 17 16" id="ico_enduser_purple"><path fill="#990AE3" fill-rule="evenodd" d="M8.501 2.389a3.48 3.48 0 0 1 3.484 3.478c0 1.183-.594 2.23-1.499 2.856 3.975.865 4.45 2.58 4.505 3.889.01.278-.194.612-.464.683-.685.18-2.308.43-6.026.43-3.715 0-5.338-.25-6.022-.43-.27-.071-.478-.405-.464-.683.058-1.31.53-3.024 4.505-3.89A3.474 3.474 0 0 1 8.5 2.39zm0-2.01a5.498 5.498 0 0 0-5.495 5.488c0 .626.108 1.238.309 1.814C1.187 8.72.097 10.32.003 12.526c-.053 1.243.792 2.41 1.968 2.715 1.258.328 3.456.496 6.53.496 3.075 0 5.275-.165 6.534-.496 1.173-.306 2.018-1.472 1.965-2.712-.094-2.205-1.184-3.806-3.315-4.846A5.494 5.494 0 0 0 8.501.38z"/></symbol>
<symbol viewBox="0 0 51 16" id="ico_enduser"><path fill-rule="evenodd" d="M8.501 2.01a3.48 3.48 0 0 1 3.484 3.478c0 1.182-.594 2.23-1.499 2.855 3.975.866 4.45 2.58 4.505 3.89.01.278-.194.611-.464.683-.685.18-2.308.43-6.026.43-3.715 0-5.338-.25-6.022-.43-.27-.072-.478-.405-.464-.684.058-1.309.53-3.023 4.505-3.889A3.474 3.474 0 0 1 8.5 2.01zm0-2.01a5.497 5.497 0 0 0-5.495 5.488c0 .625.108 1.237.309 1.813C1.187 8.341.097 9.941.003 12.147c-.053 1.243.792 2.409 1.968 2.715 1.258.328 3.456.496 6.53.496 3.075 0 5.275-.165 6.534-.496 1.173-.306 2.018-1.472 1.965-2.712-.094-2.205-1.184-3.807-3.315-4.846A5.494 5.494 0 0 0 8.501 0z"/><path fill="#fff" fill-rule="evenodd" d="M25.501 2.01a3.48 3.48 0 0 1 3.484 3.478c0 1.182-.594 2.23-1.499 2.855 3.975.866 4.45 2.58 4.505 3.89.01.278-.194.611-.464.683-.685.18-2.308.43-6.026.43-3.715 0-5.338-.25-6.022-.43-.27-.072-.478-.405-.464-.684.058-1.309.53-3.023 4.505-3.889A3.474 3.474 0 0 1 25.5 2.01zm0-2.01a5.497 5.497 0 0 0-5.495 5.488c0 .625.108 1.237.309 1.813-2.128 1.04-3.218 2.64-3.312 4.846-.053 1.243.792 2.409 1.968 2.715 1.258.328 3.456.496 6.53.496 3.075 0 5.275-.165 6.534-.496 1.173-.306 2.018-1.472 1.965-2.712-.094-2.205-1.184-3.807-3.315-4.846A5.494 5.494 0 0 0 25.501 0z"/><path fill="#990AE3" fill-rule="evenodd" d="M42.501 2.01a3.48 3.48 0 0 1 3.484 3.478c0 1.182-.594 2.23-1.499 2.855 3.975.866 4.45 2.58 4.505 3.89.01.278-.194.611-.464.683-.685.18-2.308.43-6.026.43-3.715 0-5.338-.25-6.022-.43-.27-.072-.478-.405-.464-.684.058-1.309.53-3.023 4.505-3.889A3.474 3.474 0 0 1 42.5 2.01zm0-2.01a5.497 5.497 0 0 0-5.495 5.488c0 .625.108 1.237.309 1.813-2.128 1.04-3.218 2.64-3.312 4.846-.053 1.243.792 2.409 1.968 2.715 1.258.328 3.456.496 6.53.496 3.075 0 5.275-.165 6.534-.496 1.173-.306 2.018-1.472 1.965-2.712-.094-2.205-1.184-3.807-3.315-4.846A5.494 5.494 0 0 0 42.501 0z"/></symbol>
<symbol viewBox="0 0 14 14" id="ico_favourites"><path fill-rule="evenodd" d="M10.752 13.084l-3.773-2.4L3.217 13.1c-.473.305-.744.11-.602-.436l1.123-4.317L.27 5.527c-.436-.354-.333-.67.23-.703l4.465-.27 1.62-4.16c.202-.524.536-.526.744-.002l1.635 4.152 4.469.25c.562.03.665.347.23.703l-3.455 2.836 1.143 4.313c.145.545-.123.74-.6.438z"/></symbol>
<symbol viewBox="0 0 51 45" id="ico_heart_purple"><path fill="#990AE3" fill-rule="evenodd" d="M35.408.78c-5.137 0-8.379 4.564-10.26 6.824C23.266 5.344 20.024.78 14.885.78 6.14.78.264 8.882.264 16.45c0 11.015 21.16 25.779 23.573 27.426a2.32 2.32 0 0 0 2.621 0c2.413-1.647 23.572-16.41 23.572-27.427C50.03 8.882 44.155.78 35.408.78"/></symbol>
<symbol viewBox="0 0 153 45" id="ico_heart_sprite"><path fill-rule="evenodd" d="M35.408.78c-5.137 0-8.379 4.564-10.26 6.824C23.266 5.344 20.024.78 14.885.78 6.14.78.264 8.882.264 16.45c0 11.015 21.16 25.779 23.573 27.426a2.32 2.32 0 0 0 2.621 0c2.413-1.647 23.572-16.41 23.572-27.427C50.03 8.882 44.155.78 35.408.78"/><path fill="#FFF" fill-rule="evenodd" d="M86.408.78c-5.137 0-8.379 4.564-10.26 6.824C74.266 5.344 71.024.78 65.885.78c-8.746 0-14.621 8.102-14.621 15.67 0 11.015 21.16 25.779 23.573 27.426a2.32 2.32 0 0 0 2.621 0c2.413-1.647 23.572-16.41 23.572-27.427 0-7.567-5.875-15.67-14.622-15.67"/><path fill="#990AE3" fill-rule="evenodd" d="M137.408.78c-5.137 0-8.379 4.564-10.26 6.824-1.882-2.26-5.124-6.824-10.263-6.824-8.746 0-14.621 8.102-14.621 15.67 0 11.015 21.16 25.779 23.573 27.426a2.32 2.32 0 0 0 2.621 0c2.413-1.647 23.572-16.41 23.572-27.427 0-7.567-5.875-15.67-14.622-15.67"/></symbol>
<symbol viewBox="0 0 51 45" id="ico_heart"><path fill="#231F20" fill-rule="evenodd" d="M35.408.78c-5.137 0-8.379 4.564-10.26 6.824C23.266 5.344 20.024.78 14.885.78 6.14.78.264 8.882.264 16.45c0 11.015 21.16 25.779 23.573 27.426a2.32 2.32 0 0 0 2.621 0c2.413-1.647 23.572-16.41 23.572-27.427C50.03 8.882 44.155.78 35.408.78"/></symbol>
<symbol viewBox="0 0 1706.91 591.7" id="ico_home"><path d="M549.42 246.77l-234-234a43.85 43.85 0 0 0-61.87 0l-223 223-11 11c-34 34-22.5 61.87 25.62 61.87h8.22V591.7h145.84v-181a21.88 21.88 0 0 1 21.88-21.85h126.75a21.88 21.88 0 0 1 21.88 21.88v181h145.82v-283.1h8.22c48.12 0 59.7-27.84 25.64-61.86z"/><path fill="#fff" d="M1144.42 246.77l-234-234a43.85 43.85 0 0 0-61.87 0l-223 223-11 11c-34 34-22.5 61.87 25.62 61.87h8.22V591.7h145.84v-181a21.88 21.88 0 0 1 21.88-21.85h126.75a21.88 21.88 0 0 1 21.88 21.88v181h145.82v-283.1h8.22c48.12 0 59.7-27.84 25.64-61.86z"/><path fill="#990AE3" d="M1739.42 246.77l-234-234a43.85 43.85 0 0 0-61.87 0l-223 223-11 11c-34 34-22.5 61.87 25.62 61.87h8.22V591.7h145.84v-181a21.88 21.88 0 0 1 21.88-21.85h126.75a21.88 21.88 0 0 1 21.88 21.88v181h145.82v-283.1h8.22c48.12 0 59.7-27.84 25.64-61.86z"/></symbol>
<symbol viewBox="0 0 17 17" id="ico_info"><path fill-rule="evenodd" d="M14.49 14.488a8.488 8.488 0 0 1-12.005 0c-3.313-3.316-3.313-8.69 0-12.003a8.493 8.493 0 0 1 12.006 0c3.313 3.316 3.313 8.69 0 12.003zm-4.72-1.145v-5.81a1.282 1.282 0 1 0-2.567 0v5.81a1.282 1.282 0 1 0 2.567 0zM8.486 4.95a1.282 1.282 0 1 0 .002-2.565 1.282 1.282 0 0 0-.002 2.565z"/></symbol>
<symbol viewBox="0 0 9 13" id="ico_linkarrow_black"><path fill-rule="evenodd" d="M7.005 3.95L4.091 1.037a1.949 1.949 0 1 0-2.758 2.758l2.915 2.914-2.915 2.915a1.949 1.949 0 1 0 2.758 2.757l2.914-2.914L8.351 8.12c.78-.78.772-2.05 0-2.822L7.005 3.951z"/></symbol>
<symbol viewBox="0 0 9 13" id="ico_linkarrow_purple"><path fill="#990AE3" fill-rule="evenodd" d="M7.005 3.95L4.091 1.037a1.949 1.949 0 1 0-2.758 2.758l2.915 2.914-2.915 2.915a1.949 1.949 0 1 0 2.758 2.757l2.914-2.914L8.351 8.12c.78-.78.772-2.05 0-2.822L7.005 3.951z"/></symbol>
<symbol viewBox="0 0 9 13" id="ico_linkarrow_white"><path fill="#FFF" fill-rule="evenodd" d="M7.005 3.95L4.091 1.037a1.949 1.949 0 1 0-2.758 2.758l2.915 2.914-2.915 2.915a1.949 1.949 0 1 0 2.758 2.757l2.914-2.914L8.351 8.12c.78-.78.772-2.05 0-2.822L7.005 3.951z"/></symbol>
<symbol viewBox="0 0 39 13" id="ico_linkarrow"><g fill="none" fill-rule="evenodd"><path fill="#000" d="M7.005 3.95L4.091 1.037a1.949 1.949 0 1 0-2.758 2.758l2.915 2.914-2.915 2.915a1.949 1.949 0 1 0 2.758 2.757l2.914-2.914L8.351 8.12c.78-.78.772-2.05 0-2.822L7.005 3.951z"/><path fill="#fff" d="M20.005 3.95l-2.914-2.914a1.949 1.949 0 1 0-2.758 2.758l2.915 2.914-2.915 2.915a1.949 1.949 0 1 0 2.758 2.757l2.914-2.914 1.346-1.347c.78-.78.772-2.05 0-2.822l-1.346-1.346z"/><path fill="#990AE3" d="M33.005 3.95l-2.914-2.914a1.949 1.949 0 1 0-2.758 2.758l2.915 2.914-2.915 2.915a1.949 1.949 0 1 0 2.758 2.757l2.914-2.914 1.346-1.347c.78-.78.772-2.05 0-2.822l-1.346-1.346z"/></g></symbol>
<symbol viewBox="0 0 93 26" id="ico_menu_logged_in"><defs><path id="a" d="M12.833 28.556h4.499c1.163 0 2.102.933 2.102 2.096a2.103 2.103 0 0 1-2.102 2.102h-4.5a2.103 2.103 0 0 1-2.102-2.102c0-1.158.94-2.096 2.103-2.096zm0-8.404h9.35a2.103 2.103 0 0 1 0 4.205h-9.35a2.103 2.103 0 0 1 0-4.205zm19.053-4.199H12.833a2.1 2.1 0 1 1 0-4.199h19.053c1.164 0 2.103.933 2.103 2.097a2.103 2.103 0 0 1-2.103 2.102zm4.678 9.337a4.653 4.653 0 0 1-2.033 3.84c5.387 1.167 5.7 4.12 5.78 5.882.016.376-.262.824-.63.92-.927.243-2.796.577-7.833.577-5.036 0-6.905-.339-7.833-.577-.367-.096-.646-.544-.629-.92.076-1.761.393-4.715 5.775-5.882a4.655 4.655 0 0 1-2.029-3.84c0-2.585 2.114-4.677 4.716-4.677 2.603 0 4.716 2.092 4.716 4.677z"/></defs><g fill="none" fill-rule="evenodd" transform="translate(-10 -11)"><mask id="b" fill="#fff"><use xlink:href="#a"/></mask><use fill="#000" xlink:href="#a"/><g fill="#000" mask="url(#b)"><path d="M0 .167h45v45H0z"/></g></g><g fill="#fff" fill-rule="evenodd" transform="translate(21 -11)"><use xlink:href="#a"/><g mask="url(#b)"><path d="M0 .167h45v45H0z"/></g></g><g fill="#990AE3" fill-rule="evenodd" transform="translate(52 -11)"><use xlink:href="#a"/><g mask="url(#b)"><path d="M0 .167h45v45H0z"/></g></g></symbol>
<symbol viewBox="0 0 14 12" id="ico_menu_purple"><path fill="#990AE3" fill-rule="evenodd" d="M12.821 9.56H1.167a1.165 1.165 0 1 0 0 2.332h11.654c.643 0 1.167-.522 1.167-1.167 0-.646-.521-1.164-1.167-1.164zm0-4.664H1.167a1.167 1.167 0 0 0 0 2.334h11.654a1.167 1.167 0 0 0 0-2.334zM1.167 2.565h11.654c.643 0 1.167-.521 1.167-1.167S13.467.234 12.821.234H1.167a1.165 1.165 0 1 0 0 2.331z"/></symbol>
<symbol viewBox="0 0 42 12" id="ico_menu"><g fill="none" fill-rule="evenodd"><path fill="#000" d="M12.821 9.326H1.167a1.165 1.165 0 1 0 0 2.331h11.654a1.166 1.166 0 1 0 0-2.331zm0-4.664H1.167a1.167 1.167 0 0 0 0 2.334h11.654a1.167 1.167 0 0 0 0-2.334zM1.167 2.33h11.654a1.166 1.166 0 1 0 0-2.33H1.167a1.165 1.165 0 1 0 0 2.33z"/><path fill="#fff" d="M26.821 9.326H15.167a1.165 1.165 0 1 0 0 2.331h11.654a1.166 1.166 0 1 0 0-2.331zm0-4.664H15.167a1.167 1.167 0 0 0 0 2.334h11.654a1.167 1.167 0 0 0 0-2.334zM15.167 2.33h11.654a1.166 1.166 0 1 0 0-2.33H15.167a1.165 1.165 0 1 0 0 2.33z"/><path fill="#990AE3" d="M40.821 9.326H29.167a1.165 1.165 0 1 0 0 2.331h11.654a1.166 1.166 0 1 0 0-2.331zm0-4.664H29.167a1.167 1.167 0 0 0 0 2.334h11.654a1.167 1.167 0 0 0 0-2.334zM29.167 2.33h11.654a1.166 1.166 0 1 0 0-2.33H29.167a1.165 1.165 0 1 0 0 2.33z"/></g></symbol>
<symbol viewBox="0 0 16 4" id="ico_minus_purple"><path fill="#990AE3" fill-rule="evenodd" d="M2.265 0a1.822 1.822 0 0 0 0 3.647h11.35a1.822 1.822 0 0 0 1.822-1.822A1.818 1.818 0 0 0 13.617 0H2.266z"/></symbol>
<symbol viewBox="0 0 16 4" id="ico_minus_white"><path fill="#FFF" fill-rule="evenodd" d="M2.265 0a1.822 1.822 0 0 0 0 3.647h11.35a1.822 1.822 0 0 0 1.822-1.822A1.818 1.818 0 0 0 13.617 0H2.266z"/></symbol>
<symbol viewBox="0 0 13 18" id="ico_mobile"><path fill-rule="evenodd" d="M12.448 1.09v15.817a1.092 1.092 0 0 1-1.09 1.09H1.09A1.09 1.09 0 0 1 0 16.91V1.09A1.094 1.094 0 0 1 1.09 0h10.27a1.09 1.09 0 0 1 1.088 1.09zm-1.851 12.636V2.024a.15.15 0 0 0-.15-.15H1.999a.149.149 0 0 0-.147.15v11.702c0 .083.067.147.15.147h8.45a.143.143 0 0 0 .146-.147zM6.21 15a.939.939 0 1 0 0 1.878.939.939 0 0 0 0-1.878z"/></symbol>
<symbol viewBox="0 0 555.73 635.32" id="ico_money_purple"><path fill="#990AE3" d="M181.35 140.16c100.16 0 181.35-18.24 181.35-40.73v-58.7C362.7 18.23 281.51 0 181.35 0S0 18.24 0 40.73v58.7c0 22.5 81.19 40.73 181.35 40.73zm0 158.23C81.19 298.39 0 280.15 0 257.66v58.7c0 19.92 63.7 36.5 147.83 40a234.19 234.19 0 0 1 34.36-58zM362.7 152.38c0 22.5-81.19 40.73-181.35 40.73S0 174.88 0 152.38v58.7c0 22.5 81.19 40.73 181.35 40.73 18.63 0 36.59-.63 53.51-1.8a233.67 233.67 0 0 1 127.84-39.7zM133.39 407.31C56.52 402.59 0 386.79 0 368v58.7c0 18.6 55.37 34.3 131 39.16-.6-7.22-.9-14.51-.84-21.84a238.57 238.57 0 0 1 3.23-36.71zM0 474.57v58.7c0 21.48 74 39.06 167.9 40.61a231.91 231.91 0 0 1-27.7-59.64C59.85 510.05 0 493.89 0 474.57zm366.85-218.4h-1c-104 0-188.78 84-189.68 188.24-.91 105 83.56 190.32 189.06 190.91h1.08c104.08 0 188.94-84.18 189.42-188.19.45-105.47-83.52-190.4-188.88-190.96zm7.44 257.38q-4.13 6.3-9.11 6.29a6.46 6.46 0 0 1-3.37-1 26.41 26.41 0 0 1-4.44-3.81l-41.26-41.37v23.44a28.9 28.9 0 0 1-2.26 11.25 23.32 23.32 0 0 1-5.64 8.46q-3.37 3-6.61 3-5 0-10.86-8.24c-2.31-3.76-3.48-6.59-3.48-8.47V378.78q0-4.77 6.62-9.11a25.46 25.46 0 0 1 14.21-4.35q8 0 8 7.38v76l34.76-33.24a25.37 25.37 0 0 1 8-4.77 25.73 25.73 0 0 1 9.33-2q8 0 8 7.38a29.47 29.47 0 0 1-2.28 11.07 23.07 23.07 0 0 1-6 8.89l-26.69 24.74 35.24 33.64a7.06 7.06 0 0 1 2 5.21 24.79 24.79 0 0 1-4.13 13.89zm83.76-82.89q-4.34 6.73-9.55 6.73a21.73 21.73 0 0 1-3-.22 25 25 0 0 0-3.5-.17q-10.63 0-17.36 5.64v54.48a28.9 28.9 0 0 1-2.28 11.29 23.32 23.32 0 0 1-5.64 8.46c-2.24 2-4.44 3-6.62 3q-5 0-10.85-8.24-3.48-5.64-3.48-8.47v-80.97q0-4.77 6.62-9.12a25.45 25.45 0 0 1 14.21-4.33q8 0 8 7.38v5.2a33.08 33.08 0 0 1 11.51-9.88 29.58 29.58 0 0 1 14.1-4q12.15 0 12.16 8.69a26.29 26.29 0 0 1-4.32 14.53z"/></symbol>
<symbol viewBox="0 0 16 17" id="ico_music"><path fill-rule="evenodd" d="M14.365 11.04a3.395 3.395 0 0 0-1.89-.19c-1.546.273-2.629 1.458-2.419 2.648.21 1.187 1.631 1.93 3.178 1.658 1.334-.237 2.324-1.151 2.435-2.165l.009-.272V3.508l-.003-.549V.657a.657.657 0 0 0-.77-.645L4.874 1.781a.656.656 0 0 0-.543.645V12.81a3.395 3.395 0 0 0-1.888-.188c-1.545.27-2.627 1.454-2.417 2.644.21 1.187 1.631 1.93 3.178 1.658 1.334-.237 2.324-1.151 2.432-2.165 0 0 .012-.246.009-.273v-9.21l8.716-1.538.003 7.3z"/></symbol>
<symbol viewBox="0 0 18 15" id="ico_premisesdatacenter"><path fill-rule="evenodd" d="M0 14.984V1.8A1.8 1.8 0 0 1 1.8 0h14.384a1.8 1.8 0 0 1 1.8 1.8v13.184h-3.448v-2.696a.902.902 0 0 0-.9-.9h-1.8a.902.902 0 0 0-.9.9v2.696H0zm7.229-8.13a.902.902 0 0 0-.637-.262H3.896a.902.902 0 0 0-.9.9v1.2a.902.902 0 0 0 .9.9h2.696a.902.902 0 0 0 .9-.9v-1.2a.91.91 0 0 0-.263-.637zm7.492 0a.902.902 0 0 0-.637-.262h-2.696a.902.902 0 0 0-.9.9v1.2a.902.902 0 0 0 .9.9h2.696a.902.902 0 0 0 .9-.9v-1.2a.927.927 0 0 0-.263-.637zm-7.492-4.79a.902.902 0 0 0-.637-.263H3.896a.902.902 0 0 0-.9.9v1.2a.902.902 0 0 0 .9.9h2.696a.902.902 0 0 0 .9-.9V2.696a.893.893 0 0 0-.263-.633zm7.492 0a.902.902 0 0 0-.637-.263h-2.696a.902.902 0 0 0-.9.9v1.2a.902.902 0 0 0 .9.9h2.696a.902.902 0 0 0 .9-.9V2.696a.91.91 0 0 0-.263-.633z"/></symbol>
<symbol viewBox="0 0 16 14" id="ico_quote"><path fill="#726E6E" fill-rule="evenodd" d="M15.641 5.766c0 4.035-2.63 6.75-6.339 7.484l-.698-1.502c1.713-.647 2.816-2.74 2.816-4.304H9.784c-.566 0-1.026-.46-1.026-1.027V1.565c0-.568.46-1.027 1.026-1.027h4.833c.565 0 1.024.459 1.024 1.027v4.2zm-8.603 0c0 4.035-2.631 6.75-6.34 7.484L0 11.748c1.714-.647 2.817-2.74 2.817-4.304H1.18c-.566 0-1.025-.46-1.025-1.027V1.565C.155.997.615.538 1.18.538h4.834c.564 0 1.024.459 1.024 1.027v4.2z"/></symbol>
<symbol viewBox="0 0 21 30" id="ico_refill_purple"><g fill="#990AE3"><path d="M20.727 1.813v26.334a1.82 1.82 0 0 1-1.814 1.813h-17.1A1.82 1.82 0 0 1 0 28.147V1.813A1.82 1.82 0 0 1 1.813 0h17.1c1 .004 1.81.813 1.814 1.813m-3.087 21.04V3.367a.247.247 0 0 0-.247-.247H3.333a.247.247 0 0 0-.24.247v19.486c0 .137.11.247.247.247H17.4c.136 0 .247-.11.247-.247m-7.334 2.12a1.56 1.56 0 1 0 0 3.12 1.56 1.56 0 0 0 0-3.12"/><path d="M14.573 11.72h-2.86V8.867a1.353 1.353 0 1 0-2.706 0v2.86H6.153a1.353 1.353 0 1 0 0 2.706h2.86v2.86a1.353 1.353 0 1 0 2.707 0v-2.866h2.86a1.353 1.353 0 0 0 0-2.707"/></g></symbol>
<symbol viewBox="0 0 28 25" id="ico_router_refill_purple"><g fill="#990AE3" fill-rule="evenodd"><path d="M11.699 5.2H8.647V2.153a1.444 1.444 0 0 0-2.889 0v3.053H2.713a1.444 1.444 0 0 0 0 2.888h3.052v3.052a1.444 1.444 0 1 0 2.889 0V8.088h3.052a1.444 1.444 0 0 0 0-2.889m3.18-.695a.977.977 0 0 1-.08-1.38l.001-.001a9.11 9.11 0 0 1 12.861-.766.977.977 0 1 1-1.297 1.462 7.156 7.156 0 0 0-10.101.6l-.004.005a.977.977 0 0 1-1.38.08"/><path d="M17.81 7.097a.977.977 0 0 1-.08-1.379 5.204 5.204 0 0 1 7.345-.438.977.977 0 0 1-1.297 1.462 3.25 3.25 0 0 0-4.586.272l-.003.003a.977.977 0 0 1-1.379.08m3.461 14.193a1.253 1.253 0 1 1 0-2.506 1.253 1.253 0 0 1 0 2.505zm-5.01 0a1.253 1.253 0 1 1 0-2.506 1.253 1.253 0 0 1 0 2.505zm-5.01-.152H4.987a1.25 1.25 0 1 1 0-2.499h6.262a1.25 1.25 0 1 1 0 2.499zm11.336-6.293h-.097V9.061a1.25 1.25 0 1 0-2.499 0v5.784H4.901C2.134 14.845 0 17.056 0 19.823v.039c0 2.767 2.134 5.07 4.901 5.07h17.686c2.767 0 4.901-2.303 4.901-5.07v-.039c0-2.767-2.134-4.978-4.901-4.978z"/></g></symbol>
<symbol viewBox="0 0 51 17" id="ico_search"><path fill-rule="evenodd" d="M16.536 16.51a1.541 1.541 0 0 1-2.18 0l-2.369-2.368a7.692 7.692 0 0 1-4.253 1.276 7.698 7.698 0 0 1-5.453-2.257 7.713 7.713 0 0 1 10.91-10.904 7.715 7.715 0 0 1 .977 9.704l2.368 2.368a1.541 1.541 0 0 1 0 2.181zm-8.8-14.583a5.749 5.749 0 0 0-4.088 1.694 5.791 5.791 0 0 0 0 8.176 5.749 5.749 0 0 0 4.089 1.694 5.749 5.749 0 0 0 4.09-1.694 5.786 5.786 0 0 0 0-8.176 5.753 5.753 0 0 0-4.09-1.694z"/><path fill="#fff" fill-rule="evenodd" d="M33.536 16.51a1.541 1.541 0 0 1-2.18 0l-2.369-2.368a7.692 7.692 0 0 1-4.253 1.276 7.698 7.698 0 0 1-5.453-2.257 7.713 7.713 0 0 1 10.91-10.904 7.715 7.715 0 0 1 .977 9.704l2.368 2.368a1.541 1.541 0 0 1 0 2.181zm-8.8-14.583a5.749 5.749 0 0 0-4.088 1.694 5.791 5.791 0 0 0 0 8.176 5.749 5.749 0 0 0 4.089 1.694 5.749 5.749 0 0 0 4.09-1.694 5.786 5.786 0 0 0 0-8.176 5.753 5.753 0 0 0-4.09-1.694z"/><path fill="#990AE3" fill-rule="evenodd" d="M50.536 16.51a1.541 1.541 0 0 1-2.18 0l-2.369-2.368a7.692 7.692 0 0 1-4.253 1.276 7.698 7.698 0 0 1-5.453-2.257 7.713 7.713 0 0 1 10.91-10.904 7.715 7.715 0 0 1 .977 9.704l2.368 2.368a1.541 1.541 0 0 1 0 2.181zm-8.8-14.583a5.749 5.749 0 0 0-4.088 1.694 5.791 5.791 0 0 0 0 8.176 5.749 5.749 0 0 0 4.089 1.694 5.749 5.749 0 0 0 4.09-1.694 5.786 5.786 0 0 0 0-8.176 5.753 5.753 0 0 0-4.09-1.694z"/></symbol>
<symbol viewBox="0 0 12 15" id="ico_share"><path fill-rule="evenodd" d="M8.144 10.42L4.436 8.28a2.25 2.25 0 0 0-.02-.963L8.412 5.01a2.239 2.239 0 1 0-.922-1.476L3.37 5.913a2.239 2.239 0 1 0 .09 3.811l4.004 2.312a2.239 2.239 0 1 0 .681-1.616z"/></symbol>
<symbol viewBox="0 0 2012.52 670.83" id="ico_statistics"><path d="M597.92 36.42A36.45 36.45 0 0 0 561.42 0h-72.88a36.46 36.46 0 0 0-36.46 36.42v546.92h145.84zM408.33 255.21a36.45 36.45 0 0 0-36.46-36.46h-72.91a36.45 36.45 0 0 0-36.46 36.46v328.13h145.83zM218.75 473.96a36.46 36.46 0 0 0-36.46-36.46h-72.87a36.46 36.46 0 0 0-36.5 36.46v109.38h145.83zm428.21 153.13H21.88a21.875 21.875 0 1 0 0 43.75h625.08a21.88 21.88 0 1 0 0-43.75z"/><path fill="#fff" d="M1268.76 36.42A36.45 36.45 0 0 0 1232.26 0h-72.88a36.46 36.46 0 0 0-36.46 36.42v546.92h145.84zm-189.59 218.79a36.45 36.45 0 0 0-36.46-36.46H969.8a36.45 36.45 0 0 0-36.46 36.46v328.13h145.83zM889.59 473.96a36.46 36.46 0 0 0-36.46-36.46h-72.87a36.46 36.46 0 0 0-36.5 36.46v109.38h145.83zm428.21 153.13H692.72a21.875 21.875 0 1 0 0 43.75h625.08a21.88 21.88 0 1 0 0-43.75z"/><path fill="#990AE3" d="M1939.6 36.42A36.45 36.45 0 0 0 1903.1 0h-72.88a36.46 36.46 0 0 0-36.46 36.42v546.92h145.84zm-189.59 218.79a36.45 36.45 0 0 0-36.46-36.46h-72.91a36.45 36.45 0 0 0-36.46 36.46v328.13h145.83zm-189.58 218.75a36.46 36.46 0 0 0-36.46-36.46h-72.87a36.46 36.46 0 0 0-36.5 36.46v109.38h145.83zm428.21 153.13h-625.08a21.875 21.875 0 1 0 0 43.75h625.08a21.88 21.88 0 1 0 0-43.75z"/></symbol>
<symbol viewBox="0 0 700 700" id="ico_subscription_purple"><defs><style>.cls-1{fill:#990ae3}</style></defs><path d="M463.21 14.61H145.85a43.87 43.87 0 0 0-43.74 43.75v583.28a43.87 43.87 0 0 0 43.74 43.75h408.3a43.87 43.87 0 0 0 43.74-43.75V150zm-244.45 576a21.87 21.87 0 1 1-43.74 0V558.5a21.87 21.87 0 0 1 43.74 0zm0-108.65A21.87 21.87 0 0 1 175 482v-32.1a21.87 21.87 0 0 1 43.74 0zm0-108.65a21.87 21.87 0 0 1-43.74 0V341.2a21.87 21.87 0 0 1 43.74 0zm93 239.18h-38.32a21.88 21.88 0 0 1 0-43.75h38.28a21.88 21.88 0 1 1 0 43.75zm0-249.41h-38.32a21.87 21.87 0 0 1 0-43.74h38.28a21.87 21.87 0 1 1 0 43.74zm114.8 249.4h-38.28a21.88 21.88 0 1 1 0-43.75h38.28a21.88 21.88 0 0 1 0 43.75zm0-249.41h-38.28a21.87 21.87 0 1 1 0-43.74h38.28a21.87 21.87 0 0 1 0 43.74zM525 590.6a21.87 21.87 0 1 1-43.74 0v-32.1a21.87 21.87 0 0 1 43.74 0zm0-108.6a21.87 21.87 0 0 1-43.74 0v-32.1a21.87 21.87 0 0 1 43.74 0zm0-108.65a21.87 21.87 0 0 1-43.74 0V341.2a21.87 21.87 0 0 1 43.74 0z" class="cls-1"/></symbol>
<symbol viewBox="0 0 16 13" id="ico_wireless"><g fill-rule="evenodd"><path d="M7.987 9.585c-.833 0-1.507.694-1.507 1.553 0 .858.674 1.552 1.507 1.552.834 0 1.508-.694 1.508-1.552 0-.855-.674-1.553-1.508-1.553zm0-4.805A6.069 6.069 0 0 0 3.62 6.642a1.224 1.224 0 0 0 0 1.69 1.14 1.14 0 0 0 1.641 0 3.787 3.787 0 0 1 2.73-1.162c.989 0 1.968.386 2.726 1.163a1.137 1.137 0 0 0 1.64 0 1.22 1.22 0 0 0 0-1.69 6.068 6.068 0 0 0-4.37-1.865z"/><path d="M15.634 3.263C13.525 1.09 10.751 0 7.99 0 5.223 0 2.45 1.09.34 3.263a1.224 1.224 0 0 0 0 1.69 1.14 1.14 0 0 0 1.642 0A8.353 8.353 0 0 1 7.99 2.388c2.176 0 4.342.852 6.006 2.565a1.137 1.137 0 0 0 1.641 0 1.227 1.227 0 0 0-.003-1.69z"/></g></symbol>
<symbol viewBox="0 0 38.08 38.08" id="linkedin_icon_purple"><defs><style>.cls-1{fill:none}.cls-2{clip-path:url(#clip-path)}</style><clipPath id="clip-path"><path d="M0 0h38.08v38.08H0z" class="cls-1"/></clipPath></defs><g id="Layer_2" data-name="Layer 2"><path id="Layer_1-2" fill="#990AE3" d="M35.26 0H2.81A2.78 2.78 0 0 0 0 2.74v32.59a2.78 2.78 0 0 0 2.81 2.75h32.45a2.79 2.79 0 0 0 2.82-2.75V2.74A2.79 2.79 0 0 0 35.26 0m-24 32.44H5.64V14.27h5.65zM8.47 11.79a3.27 3.27 0 1 1 3.27-3.28 3.27 3.27 0 0 1-3.27 3.28m24 20.65H26.8v-8.83c0-2.11 0-4.82-2.93-4.82s-3.39 2.3-3.39 4.67v9h-5.64V14.27h5.41v2.48h.08a5.93 5.93 0 0 1 5.34-2.93c5.71 0 6.77 3.76 6.77 8.66z" class="cls-2" data-name="Layer 1"/></g></symbol>
<symbol viewBox="0 0 38.08 38.08" id="linkedin_icon_white"><defs><style>.cls-1{fill:none}.cls-2{clip-path:url(#clip-path)}</style><clipPath id="clip-path"><path d="M0 0h38.08v38.08H0z" class="cls-1"/></clipPath></defs><g id="Layer_2" data-name="Layer 2"><path id="Layer_1-2" fill="#FFF" d="M35.26 0H2.81A2.78 2.78 0 0 0 0 2.74v32.59a2.78 2.78 0 0 0 2.81 2.75h32.45a2.79 2.79 0 0 0 2.82-2.75V2.74A2.79 2.79 0 0 0 35.26 0m-24 32.44H5.64V14.27h5.65zM8.47 11.79a3.27 3.27 0 1 1 3.27-3.28 3.27 3.27 0 0 1-3.27 3.28m24 20.65H26.8v-8.83c0-2.11 0-4.82-2.93-4.82s-3.39 2.3-3.39 4.67v9h-5.64V14.27h5.41v2.48h.08a5.93 5.93 0 0 1 5.34-2.93c5.71 0 6.77 3.76 6.77 8.66z" class="cls-2" data-name="Layer 1"/></g></symbol>
<symbol viewBox="0 0 38.08 38.08" id="linkedin_icon"><defs><style>.cls-1{fill:none}.cls-2{clip-path:url(#clip-path)}</style><clipPath id="clip-path"><path d="M0 0h38.08v38.08H0z" class="cls-1"/></clipPath></defs><g id="Layer_2" data-name="Layer 2"><path id="Layer_1-2" d="M35.26 0H2.81A2.78 2.78 0 0 0 0 2.74v32.59a2.78 2.78 0 0 0 2.81 2.75h32.45a2.79 2.79 0 0 0 2.82-2.75V2.74A2.79 2.79 0 0 0 35.26 0m-24 32.44H5.64V14.27h5.65zM8.47 11.79a3.27 3.27 0 1 1 3.27-3.28 3.27 3.27 0 0 1-3.27 3.28m24 20.65H26.8v-8.83c0-2.11 0-4.82-2.93-4.82s-3.39 2.3-3.39 4.67v9h-5.64V14.27h5.41v2.48h.08a5.93 5.93 0 0 1 5.34-2.93c5.71 0 6.77 3.76 6.77 8.66z" class="cls-2" data-name="Layer 1"/></g></symbol>
<symbol viewBox="0 0 66 72" id="step-by-step-pebble-grey"><path fill="#F2F2F2" stroke="#DEDEDE" d="M65.259 17.572c-.033-.575-.058-1.15-.105-1.726a23.573 23.573 0 0 0-.265-2.062l-.016-.008a18.79 18.79 0 0 0-.464-2.118l-.021-.008a16.77 16.77 0 0 0-.896-2.43l-.001-.018c-.29-.63-.625-1.237-1.001-1.819l-.023-.031-.15-.236h-.007a13.303 13.303 0 0 0-1.199-1.54l-.008.001c-.368-.41-.762-.796-1.18-1.155h-.01a13.278 13.278 0 0 0-1.679-1.254l-.012.001c-.467-.29-.948-.553-1.443-.79l-.02-.023a17.511 17.511 0 0 0-3.084-1.12l-.064-.033a22.443 22.443 0 0 0-3.46-.619l-.015.012a29.229 29.229 0 0 0-4.64-.09c-.263.013-.53.026-.792.047a52.03 52.03 0 0 0-5.67.793c-1.289.251-2.577.55-3.864.894l-.04.004c-.179.048-.36.1-.538.149a62.577 62.577 0 0 0-6.214 2.081l-.03.013c-6.142 2.42-11.927 5.803-16.633 9.825-.09.076-.176.154-.265.23l-.16.137c-.135.119-.27.238-.404.359l-.037.033a41.13 41.13 0 0 0-3.642 3.7l-.027.037c-.95 1.1-1.829 2.26-2.63 3.474-.11.16-.208.32-.31.48l-.05.077v.009c-.506.81-.971 1.645-1.392 2.504a23.602 23.602 0 0 0-1.157 2.79h-.008c-.329.954-.59 1.931-.778 2.923l.004.05c-.18.976-.287 1.966-.316 2.96v.015a17.436 17.436 0 0 0 .043 2.023c.089.995.257 1.98.503 2.949.126.516.277 1.042.445 1.574.365 1.18.798 2.337 1.297 3.466a44.224 44.224 0 0 0 1.828 3.602l.013.013c.245.429.499.86.76 1.292l.046.074.174.285c.384.615.785 1.23 1.203 1.843.051.078.105.154.159.235l.075.111c.153.222.309.445.465.666l.001.007a60.483 60.483 0 0 0 1.546 2.067l.029.038c.09.116.18.233.273.349l.008.006a63.49 63.49 0 0 0 2.696 3.192l.018.012c.437.484.878.963 1.328 1.432l.018.01c.424.442.854.876 1.291 1.304l.362.342.052.052c.374.36.75.716 1.132 1.062l.037.023c.819.746 1.651 1.46 2.497 2.142l.015.008c.184.148.37.295.555.441l.176.135a45.645 45.645 0 0 0 2.172 1.586v.006c.485.332.971.648 1.457.95.98.63 1.99 1.21 3.028 1.737v.01a27.1 27.1 0 0 0 3.179 1.343h.012a20.3 20.3 0 0 0 2.476.69.03.03 0 0 1 0 .01c1.368.304 2.772.408 4.168.31 5.44-.443 11.687-4.668 17.015-11.58l.05-.056a53.28 53.28 0 0 0 4.396-6.768v-.007c.44-.799.866-1.618 1.279-2.458a61.654 61.654 0 0 0 2.51-5.91l-.011.01.301-.824s.005-.013.009-.018a65.13 65.13 0 0 0 1.26-3.98l-.002-.008c.2-.705.387-1.418.563-2.138v-.006c.228-.97.44-1.951.634-2.942l.024-.067c.154-.788.298-1.582.42-2.388l-.011-.007c.15-.95.282-1.91.393-2.882-.002-.013.008-.026.012-.04.083-.728.156-1.461.218-2.2l-.008-.005a64.67 64.67 0 0 0 .18-2.812l-.008-.007a74.95 74.95 0 0 0 .052-2.009 65.7 65.7 0 0 0-.037-3.545l-.011-.006a70.25 70.25 0 0 0-.062-1.25.036.036 0 0 1 .013-.012z"/></symbol>
<symbol viewBox="0 0 67 73" id="step-by-step-pebble-purple"><path fill="#990AE3" stroke="#DEDEDE" d="M65.527 18.009c-.033-.575-.058-1.149-.105-1.726a23.573 23.573 0 0 0-.265-2.062l-.016-.008a18.791 18.791 0 0 0-.464-2.117l-.021-.009a16.77 16.77 0 0 0-.895-2.43l-.002-.018a14.596 14.596 0 0 0-1.001-1.818l-.022-.032-.15-.236-.008.001a13.303 13.303 0 0 0-1.198-1.54h-.009c-.368-.41-.762-.796-1.18-1.155l-.009.001a13.278 13.278 0 0 0-1.68-1.254h-.012c-.466-.29-.948-.553-1.443-.79l-.019-.023a17.512 17.512 0 0 0-3.085-1.12l-.064-.032a22.441 22.441 0 0 0-3.46-.62l-.015.012a29.229 29.229 0 0 0-4.64-.09c-.263.013-.53.026-.792.048a52.13 52.13 0 0 0-5.67.792 57.11 57.11 0 0 0-3.863.895l-.04.003c-.18.048-.36.1-.538.149a62.575 62.575 0 0 0-6.214 2.082l-.031.012c-6.141 2.42-11.927 5.803-16.632 9.826-.09.075-.177.153-.265.23l-.16.136c-.136.12-.271.238-.405.36l-.037.032a41.13 41.13 0 0 0-3.642 3.7l-.027.038c-.95 1.1-1.829 2.26-2.63 3.473-.11.16-.208.32-.31.48l-.05.077v.009c-.506.81-.97 1.646-1.391 2.504a23.601 23.601 0 0 0-1.158 2.79h-.007c-.33.955-.59 1.931-.779 2.923l.004.05a19.476 19.476 0 0 0-.315 2.975 17.435 17.435 0 0 0 .042 2.023c.09.995.258 1.981.503 2.949.127.516.278 1.043.445 1.574.365 1.18.799 2.337 1.297 3.466a44.227 44.227 0 0 0 1.828 3.602l.013.013c.246.43.499.86.76 1.292l.047.074c.058.095.114.19.174.285.384.615.784 1.23 1.202 1.843.052.078.106.154.159.235l.075.112c.153.221.309.444.466.665v.008a60.482 60.482 0 0 0 1.546 2.067l.029.037c.09.116.18.233.274.35l.008.005a63.492 63.492 0 0 0 2.696 3.192l.017.012c.437.484.878.963 1.329 1.432l.018.011c.423.441.854.876 1.29 1.303l.362.343.052.051c.375.36.75.716 1.133 1.063l.036.023a54.97 54.97 0 0 0 2.497 2.141l.015.008c.184.148.37.296.556.442l.175.134a45.633 45.633 0 0 0 2.172 1.586v.006c.485.332.971.648 1.458.95.98.63 1.99 1.21 3.027 1.737v.01a27.1 27.1 0 0 0 3.18 1.343h.012c.81.282 1.637.512 2.475.69a.03.03 0 0 1 .001.01 14.51 14.51 0 0 0 4.167.31c5.44-.442 11.688-4.668 17.015-11.58l.05-.055a53.28 53.28 0 0 0 4.397-6.768v-.008c.44-.799.866-1.618 1.278-2.458a61.655 61.655 0 0 0 2.51-5.91l-.01.01.3-.824.009-.018a64.16 64.16 0 0 0 1.26-3.98l-.001-.008c.199-.705.386-1.417.562-2.138v-.006c.228-.97.44-1.95.634-2.942l.024-.066c.155-.788.299-1.583.42-2.388l-.01-.008a65.4 65.4 0 0 0 .392-2.881c-.001-.014.009-.027.013-.041.083-.728.155-1.461.217-2.2l-.008-.005a64.67 64.67 0 0 0 .181-2.812l-.009-.007c.026-.666.045-1.335.053-2.009.016-1.17.01-2.354-.037-3.545l-.012-.006a70.25 70.25 0 0 0-.061-1.249.036.036 0 0 1 .012-.013z"/></symbol>
<symbol viewBox="0 0 48.04 39.04" id="twitter_icon_purple"><defs><style>.cls-1{fill:none}.cls-2{clip-path:url(#clip-path)}</style><clipPath id="clip-path"><path d="M0 0h48.04v39.04H0z" class="cls-1"/></clipPath></defs><g id="Layer_2" data-name="Layer 2"><path id="Layer_1-2" fill="#990AE3" d="M48 4.62a19.69 19.69 0 0 1-5.66 1.55A9.89 9.89 0 0 0 46.71.72a19.72 19.72 0 0 1-6.26 2.39 9.86 9.86 0 0 0-17 6.74 9.94 9.94 0 0 0 .25 2.25A28 28 0 0 1 3.34 1.8 9.87 9.87 0 0 0 6.39 15a9.82 9.82 0 0 1-4.46-1.23v.12a9.86 9.86 0 0 0 7.91 9.66 9.87 9.87 0 0 1-4.45.17 9.87 9.87 0 0 0 9.21 6.85 19.78 19.78 0 0 1-12.25 4.18A20.05 20.05 0 0 1 0 34.61 27.9 27.9 0 0 0 15.11 39c18.13 0 28-15 28-28V9.73A20 20 0 0 0 48 4.62" class="cls-2" data-name="Layer 1"/></g></symbol>
<symbol viewBox="0 0 144.12 39.04" id="twitter_icon_sprite"><defs><style>.cls-1{fill:none}.cls-2{clip-path:url(#clip-path)}</style><clipPath id="clip-path"><path d="M0 0h48.04v39.04H0z" class="cls-1"/></clipPath></defs><g id="Layer_2" data-name="Layer 2"><path id="Layer_1-2" d="M48 4.62a19.69 19.69 0 0 1-5.66 1.55A9.89 9.89 0 0 0 46.71.72a19.72 19.72 0 0 1-6.26 2.39 9.86 9.86 0 0 0-17 6.74 9.94 9.94 0 0 0 .25 2.25A28 28 0 0 1 3.34 1.8 9.87 9.87 0 0 0 6.39 15a9.82 9.82 0 0 1-4.46-1.23v.12a9.86 9.86 0 0 0 7.91 9.66 9.87 9.87 0 0 1-4.45.17 9.87 9.87 0 0 0 9.21 6.85 19.78 19.78 0 0 1-12.25 4.18A20.05 20.05 0 0 1 0 34.61 27.9 27.9 0 0 0 15.11 39c18.13 0 28-15 28-28V9.73A20 20 0 0 0 48 4.62" data-name="Layer 1"/></g><g id="Layer_2" data-name="Layer 2"><path id="Layer_1-2" fill="#FFF" d="M48 4.62a19.69 19.69 0 0 1-5.66 1.55A9.89 9.89 0 0 0 46.71.72a19.72 19.72 0 0 1-6.26 2.39 9.86 9.86 0 0 0-17 6.74 9.94 9.94 0 0 0 .25 2.25A28 28 0 0 1 3.34 1.8 9.87 9.87 0 0 0 6.39 15a9.82 9.82 0 0 1-4.46-1.23v.12a9.86 9.86 0 0 0 7.91 9.66 9.87 9.87 0 0 1-4.45.17 9.87 9.87 0 0 0 9.21 6.85 19.78 19.78 0 0 1-12.25 4.18A20.05 20.05 0 0 1 0 34.61 27.9 27.9 0 0 0 15.11 39c18.13 0 28-15 28-28V9.73A20 20 0 0 0 48 4.62" data-name="Layer 1" transform="translate(48.05)"/></g><g id="Layer_2" data-name="Layer 2"><path id="Layer_1-2" fill="#990AE3" d="M48 4.62a19.69 19.69 0 0 1-5.66 1.55A9.89 9.89 0 0 0 46.71.72a19.72 19.72 0 0 1-6.26 2.39 9.86 9.86 0 0 0-17 6.74 9.94 9.94 0 0 0 .25 2.25A28 28 0 0 1 3.34 1.8 9.87 9.87 0 0 0 6.39 15a9.82 9.82 0 0 1-4.46-1.23v.12a9.86 9.86 0 0 0 7.91 9.66 9.87 9.87 0 0 1-4.45.17 9.87 9.87 0 0 0 9.21 6.85 19.78 19.78 0 0 1-12.25 4.18A20.05 20.05 0 0 1 0 34.61 27.9 27.9 0 0 0 15.11 39c18.13 0 28-15 28-28V9.73A20 20 0 0 0 48 4.62" data-name="Layer 1" transform="translate(96.08)"/></g></symbol>
<symbol viewBox="0 0 48.04 39.04" id="twitter_icon_white"><defs><style>.cls-1{fill:none}.cls-2{clip-path:url(#clip-path)}</style><clipPath id="clip-path"><path d="M0 0h48.04v39.04H0z" class="cls-1"/></clipPath></defs><g id="Layer_2" data-name="Layer 2"><path id="Layer_1-2" fill="#FFF" d="M48 4.62a19.69 19.69 0 0 1-5.66 1.55A9.89 9.89 0 0 0 46.71.72a19.72 19.72 0 0 1-6.26 2.39 9.86 9.86 0 0 0-17 6.74 9.94 9.94 0 0 0 .25 2.25A28 28 0 0 1 3.34 1.8 9.87 9.87 0 0 0 6.39 15a9.82 9.82 0 0 1-4.46-1.23v.12a9.86 9.86 0 0 0 7.91 9.66 9.87 9.87 0 0 1-4.45.17 9.87 9.87 0 0 0 9.21 6.85 19.78 19.78 0 0 1-12.25 4.18A20.05 20.05 0 0 1 0 34.61 27.9 27.9 0 0 0 15.11 39c18.13 0 28-15 28-28V9.73A20 20 0 0 0 48 4.62" class="cls-2" data-name="Layer 1"/></g></symbol>
<symbol viewBox="0 0 48.04 39.04" id="twitter_icon"><defs><style>.cls-1{fill:none}.cls-2{clip-path:url(#clip-path)}</style><clipPath id="clip-path"><path d="M0 0h48.04v39.04H0z" class="cls-1"/></clipPath></defs><g id="Layer_2" data-name="Layer 2"><path id="Layer_1-2" d="M48 4.62a19.69 19.69 0 0 1-5.66 1.55A9.89 9.89 0 0 0 46.71.72a19.72 19.72 0 0 1-6.26 2.39 9.86 9.86 0 0 0-17 6.74 9.94 9.94 0 0 0 .25 2.25A28 28 0 0 1 3.34 1.8 9.87 9.87 0 0 0 6.39 15a9.82 9.82 0 0 1-4.46-1.23v.12a9.86 9.86 0 0 0 7.91 9.66 9.87 9.87 0 0 1-4.45.17 9.87 9.87 0 0 0 9.21 6.85 19.78 19.78 0 0 1-12.25 4.18A20.05 20.05 0 0 1 0 34.61 27.9 27.9 0 0 0 15.11 39c18.13 0 28-15 28-28V9.73A20 20 0 0 0 48 4.62" class="cls-2" data-name="Layer 1"/></g></symbol>
</svg>