<?xml version="1.0" encoding="UTF-8"?>
<svg width="30px" height="32px" viewBox="0 0 30 32" version="1.1" xmlns="http://www.w3.org/2000/svg" xmlns:xlink="http://www.w3.org/1999/xlink">
    <!-- Generator: Sketch 44.1 (41455) - http://www.bohemiancoding.com/sketch -->
    <title>logo_mob</title>
    <desc>Created with Sketch.</desc>
    <defs></defs>
    <g id="ikoner" stroke="none" stroke-width="1" fill="none" fill-rule="evenodd">
        <g id="MEDIA-ICONS" transform="translate(-162.000000, -1053.000000)" fill="#9909E3">
            <path d="M182.769408,1076.32721 L182.770208,1076.32641 C175.890292,1080.26785 170.524661,1081.2916 167.267186,1078.4347 C165.867352,1076.81189 164.636394,1075.00193 163.717578,1073.20877 C166.364377,1076.07047 172.295864,1075.06032 180.200244,1071.30924 C186.755213,1068.19799 191.709458,1063.43756 191.950367,1059.64968 C191.983982,1059.9776 191.999989,1060.31992 191.999989,1060.67823 C192.002047,1063.11728 191.709125,1065.54765 191.127594,1067.91646 C189.778983,1071.0485 186.856059,1073.98538 182.769408,1076.32721 Z M191.025148,1056.66721 C191.930358,1060.01839 186.736805,1065.07316 179.279027,1068.62749 C171.486697,1072.33938 164.818077,1073.55429 162.636288,1070.69579 C162.228103,1069.49928 162,1068.35716 162,1067.3366 C162,1059.39214 173.737317,1053.16406 183.301649,1053.16406 C186.528711,1053.16406 189.536473,1054.13023 191.025148,1056.66721 Z M178.647541,1079.88714 L178.650742,1079.88714 C185.1793,1077.27978 188.700895,1073.57508 190.341638,1070.55982 C187.429919,1078.91138 181.275932,1084.29807 176.781095,1084.29807 C174.215133,1084.29807 171.289008,1082.5185 168.718243,1079.98872 L168.742254,1080.00711 C170.401406,1081.31879 173.403566,1081.98743 178.647541,1079.88714 Z" id="logo_mob"></path>
        </g>
    </g>
</svg>