<svg xmlns="http://www.w3.org/2000/svg" viewBox="0 0 30 32"><path fill="#9909E3" fill-rule="evenodd" d="M20.77 23.327c-6.88 3.94-12.245 4.965-15.503 2.108-1.4-1.623-2.63-3.433-3.55-5.226 2.647 2.861 8.579 1.851 16.483-1.9 6.555-3.111 11.51-7.871 11.75-11.66.034.329.05.67.05 1.03a30.223 30.223 0 0 1-.872 7.237c-1.349 3.133-4.272 6.07-8.359 8.411zm8.255-19.66c.905 3.351-4.288 8.406-11.746 11.96C9.487 19.34 2.819 20.554.636 17.696.228 16.499 0 15.357 0 14.336 0 6.393 11.737.165 21.302.165c3.227 0 6.234.966 7.723 3.503zm-12.377 23.22h.003c6.528-2.607 10.05-6.312 11.69-9.327-2.911 8.351-9.065 13.738-13.56 13.738-2.566 0-5.492-1.78-8.063-4.31l.024.02c1.66 1.31 4.662 1.98 9.906-.12z"/></svg>