<svg xmlns="http://www.w3.org/2000/svg" viewBox="0 0 120 47"><g fill="none" fill-rule="evenodd"><path fill="#9909E3" d="M54.216 17.98c-.602 0-1.203-.446-1.802-1.332-.394-.618-.59-1.084-.59-1.404 0-.55.364-1.056 1.092-1.524a4.302 4.302 0 0 1 2.376-.702h14.17c.9 0 1.351.413 1.351 1.231a4.581 4.581 0 0 1-.763 2.569c-.51.778-1.06 1.164-1.662 1.164h-4.61v15.47c0 .936-.254 1.79-.76 2.565-.508.778-1.064 1.166-1.663 1.166-.602 0-1.203-.445-1.804-1.336-.392-.615-.587-1.084-.587-1.402V17.98h-4.748zm22 5.134c-1.108 0-2.057.314-2.84.94-.786.629-1.27 1.467-1.456 2.516h8.174a3.408 3.408 0 0 0-1.179-2.462c-.739-.664-1.638-.994-2.7-.994h.002zm-4.295 6.913c.253 1.072.807 1.932 1.663 2.585.853.648 1.88.973 3.082.973 1.017 0 2.228-.342 3.637-1.025.649-.32 1.246-.48 1.8-.48.74 0 1.109.33 1.109.993 0 .595-.132 1.163-.398 1.71-.265.547-.604.945-1.02 1.195-.816.493-1.697.868-2.618 1.114-.93.257-1.891.39-2.857.392-1.662 0-3.183-.434-4.553-1.3a9.23 9.23 0 0 1-3.207-3.356 8.87 8.87 0 0 1-1.144-4.38c0-1.734.417-3.302 1.25-4.706.831-1.402 1.916-2.486 3.256-3.252a8.724 8.724 0 0 1 4.398-1.145c1.548 0 2.94.358 4.174 1.077 1.238.719 2.19 1.673 2.86 2.86a7.798 7.798 0 0 1 1.005 3.9 3.51 3.51 0 0 1-.572 1.967c-.38.582-.802.872-1.264.872h-10.6v.006zm18.846 7.152c-1.04 0-1.94-.404-2.702-1.214a4.023 4.023 0 0 1-1.144-2.856V14.934c0-.5.354-.98 1.058-1.437a4.098 4.098 0 0 1 2.266-.684c.855 0 1.283.389 1.283 1.163v17.657c0 .297.063.542.19.736.127.195.354.36.676.495.37.163.554.483.554.96 0 .844-.23 1.614-.692 2.31-.463.697-.96 1.045-1.49 1.045h.001zm6.998 0c-.53 0-1.109-.436-1.734-1.3-.369-.596-.554-1.04-.554-1.337V21.777c0-.5.354-.978 1.057-1.437a4.102 4.102 0 0 1 2.27-.681c.857 0 1.285.386 1.285 1.163v12.76a4.51 4.51 0 0 1-.366 1.781c-.242.57-.542 1.013-.9 1.334-.358.318-.71.48-1.057.48l-.001.002zm0-19.714c-.6 0-1.225-.467-1.87-1.402-.44-.66-.658-1.175-.658-1.54 0-.57.392-1.108 1.176-1.61a4.622 4.622 0 0 1 2.53-.751c.968 0 1.453.432 1.453 1.3a5.004 5.004 0 0 1-.398 1.967c-.266.628-.602 1.124-1.005 1.488-.405.365-.813.548-1.23.548h.003zm13.787 15.47a5.356 5.356 0 0 0 2.913-.854v-7.77c-.856-.478-1.816-.72-2.877-.72-1.316 0-2.42.441-3.309 1.32-.889.878-1.332 1.98-1.332 3.301 0 1.325.443 2.443 1.332 3.354.89.914 1.981 1.37 3.273 1.37v-.001zm-.31 4.247c-1.662 0-3.171-.412-4.519-1.232a8.763 8.763 0 0 1-3.156-3.24 8.747 8.747 0 0 1-1.125-4.358c0-1.691.428-3.229 1.282-4.621.854-1.393 1.964-2.471 3.327-3.236a8.848 8.848 0 0 1 4.398-1.146c1.341 0 2.647.365 3.918 1.096.807-.527 1.615-.79 2.424-.79.854 0 1.281.389 1.281 1.164v12.764a4.51 4.51 0 0 1-.36 1.779c-.243.571-.543 1.018-.901 1.336-.36.318-.711.48-1.058.48-.53 0-1.108-.433-1.733-1.3a4.62 4.62 0 0 1-.484-.96 4.24 4.24 0 0 1-.746 1.3c-.311.366-.64.605-.987.72a4.999 4.999 0 0 1-1.558.238l-.003.006zM30.596 34.99c6.02-3.45 10.326-7.777 12.313-12.39a44.566 44.566 0 0 0 1.285-10.663c0-.528-.024-1.033-.073-1.516-.355 5.58-7.653 12.593-17.31 17.176-11.644 5.526-20.382 7.014-24.28 2.799 1.353 2.641 3.166 5.308 5.228 7.698 4.799 4.209 12.703 2.7 22.838-3.106l-.001.002z"/><path fill="#9909E3" d="M25.455 23.646C36.441 18.41 44.091 10.965 42.758 6.028 40.565 2.29 36.134.868 31.38.868 17.29.867 0 10.041 0 21.744c0 1.504.336 3.186.937 4.949 3.214 4.21 13.038 2.421 24.517-3.047m-.93 16.587c-7.725 3.094-12.148 2.109-14.592.177l-.035-.028c3.787 3.727 8.097 6.349 11.877 6.349 6.622 0 15.688-7.936 19.977-20.239-2.417 4.442-7.605 9.9-17.222 13.74"/><path fill="#FFF" d="M24.526 40.234c9.621-3.841 14.807-9.296 17.226-13.74a44.366 44.366 0 0 0 1.156-3.893c-1.988 4.61-6.294 8.938-12.314 12.387-10.134 5.807-18.04 7.315-22.835 3.104.684.79 1.399 1.554 2.143 2.288l.035.028c2.444 1.93 6.867 2.916 14.592-.177m2.282-12.634c9.657-4.583 16.955-11.596 17.305-17.172-.173-1.73-.648-3.185-1.358-4.397 1.332 4.937-6.317 12.383-17.304 17.618C13.973 29.113 4.15 30.904.935 26.693a28.248 28.248 0 0 0 1.592 3.703c3.9 4.215 12.639 2.728 24.283-2.799"/></g></svg>