<?xml version="1.0" encoding="UTF-8"?>
<svg width="33px" height="35px" viewBox="0 0 33 35" version="1.1" xmlns="http://www.w3.org/2000/svg" xmlns:xlink="http://www.w3.org/1999/xlink">
    <!-- Generator: Sketch 47.1 (45422) - http://www.bohemiancoding.com/sketch -->
    <title>pebble</title>
    <desc>Created with Sketch.</desc>
    <defs></defs>
    <g id="Symbols" stroke="none" stroke-width="1" fill="none" fill-rule="evenodd">
        <g id="Header/mobile" transform="translate(-171.000000, -17.000000)">
            <g id="pebble" transform="translate(171.000000, 17.766667)">
                <path d="M18.4314334,29.056364 C25.4867975,26.2396408 29.2894312,22.2392027 31.0636478,18.9800985 C31.3835601,18.0607754 31.6671581,17.1077552 31.9109832,16.1253582 C30.4532205,19.50629 27.2955992,22.6798557 22.8808088,25.2097224 C15.4493316,29.4676401 9.65200116,30.5735928 6.13555927,27.4855656 C6.63687314,28.0653757 7.16095982,28.6251264 7.70658826,29.1635032 L7.7325271,29.1842398 C9.52490085,30.5995136 12.7681203,31.3227029 18.4331627,29.054636" id="Path" fill="#FFFFFF"></path>
                <path d="M20.1070824,19.7896904 C27.1883853,16.4286312 32.5404323,11.2859514 32.7972268,7.19651862 C32.6701265,5.92812917 32.3216815,4.86105767 31.8011754,3.97197542 C32.778205,7.5922423 27.1684989,13.0528835 19.1118956,16.8917489 C10.6921486,20.9008272 3.48806848,22.214146 1.13109268,19.1261188 C1.43371246,20.0108809 1.82884743,20.9250199 2.29834041,21.841751 C5.15852968,24.9332343 11.5671521,23.8428341 20.1062177,19.7896904" id="Path" fill="#FFFFFF"></path>
                <path d="M22.8825381,25.2105865 C27.2973284,22.6807198 30.4549497,19.5080181 31.9118478,16.1244942 C32.5400731,13.5654745 32.8565155,10.9399626 32.8542923,8.30506335 C32.8542923,7.91797992 32.8369997,7.548177 32.8006854,7.19392654 C32.5404323,11.2859514 27.1883853,16.4286312 20.1070824,19.7896904 C11.5680167,23.8419701 5.16025894,24.9332343 2.3009343,21.841751 C3.29352719,23.7788962 4.62332498,25.7341859 6.13555927,27.4872937 C9.65459504,30.5735928 15.4510608,29.4676401 22.8834027,25.2097224 L22.8825381,25.2105865 Z" id="Path" fill="#9909E3"></path>
                <path d="M19.1127602,16.8917489 C27.1684989,13.0528835 32.7790697,7.5922423 31.8011754,3.97197542 C30.1929674,1.2312865 26.9436956,0.187543688 23.4575157,0.187543688 C13.1252116,0.187543688 0.445442708,6.91571033 0.445442708,15.4980757 C0.445442708,16.6005723 0.691861675,17.8344007 1.13282193,19.1269829 C3.48979773,22.21501 10.6938778,20.9025553 19.1118956,16.8926129" id="Path" fill="#9909E3"></path>
                <path d="M18.4297041,29.056364 C12.7646618,31.325295 9.52144234,30.6029697 7.72906859,29.1859678 L7.70312975,29.1660952 C10.4803147,31.8990079 13.6413945,33.8214647 16.4133918,33.8214647 C21.2691423,33.8214647 27.9172667,28.0022529 31.0627832,18.9800985 C29.2902959,22.2374747 25.4859329,26.2396408 18.4331627,29.056364" id="Path" fill="#9909E3"></path>
            </g>
        </g>
    </g>
</svg>