<svg xmlns="http://www.w3.org/2000/svg" viewBox="0 0 64 64"><path fill="#222" fill-rule="evenodd" d="M42 3.986a4 4 0 0 1 2.177 7.355L44 11.45V16h2a8 8 0 0 1 7.996 7.75L54 24v6a4 4 0 0 1 .2 7.995L54 38v12a8 8 0 0 1-7.75 7.996L46 58H18a8 8 0 0 1-7.996-7.75L10 50V38a4 4 0 0 1-.2-7.995L10 30v-6a8 8 0 0 1 7.75-7.996L18 16h2v-4.55a4 4 0 1 1 4.177-.109L24 11.45V16h16v-4.55a4 4 0 0 1 2-7.464zM46 20H18a4 4 0 0 0-3.995 3.8L14 24v26a4 4 0 0 0 3.8 3.995L18 54h28a4 4 0 0 0 3.995-3.8L50 50V24a4 4 0 0 0-4-4zm-5.13 22.35a2 2 0 1 1 2.26 3.3C40.9 47.17 36.95 48 32 48c-4.95 0-8.9-.83-11.13-2.35a2 2 0 1 1 2.26-3.3C23.7 42.73 26 44 32 44c6 0 8.3-1.27 8.87-1.65zM24 26a6 6 0 1 1 0 12 6 6 0 0 1 0-12zm16 0a6 6 0 1 1 0 12 6 6 0 0 1 0-12zm-16 4a2 2 0 1 0 0 4 2 2 0 0 0 0-4zm16 0a2 2 0 1 0 0 4 2 2 0 0 0 0-4z"/></svg>