<svg xmlns="http://www.w3.org/2000/svg" viewBox="0 0 64 64"><path fill="#222" fill-rule="evenodd" d="M42 55c-2.15 2.406-5.817 4-10 4s-7.85-1.594-10-4zM32.01 5c3.313 0 6.002 2.635 6.002 5.875 0 .344-.048.673-.102.999 6.989 2.4 12.033 8.912 12.06 16.57l.004.495c.147 11.451 4.168 16.86 5.028 17.887l.3.338a2.92 2.92 0 0 1 .46 3.044A2.997 2.997 0 0 1 53.02 52H11.001c-1.214-.001-2.314-.717-2.775-1.818a2.899 2.899 0 0 1 .66-3.205c.03-.03 5.164-5.417 5.164-18.524l.004-.37c.16-7.506 5.16-13.857 12.057-16.215a5.983 5.983 0 0 1-.102-.993C26.009 7.635 28.697 5 32.01 5zm0 4c-1.121 0-2.001.862-2.001 1.875l.004.047.603 3.633-3.211 1.098c-5.565 1.903-9.355 7.02-9.355 12.8l-.004.669c-.073 5.983-1.135 10.998-2.893 15.08-.651 1.51-1.357 2.795-2.02 3.798h37.76l-.198-.306a25.289 25.289 0 0 1-1.809-3.489c-1.818-4.232-2.897-9.468-2.916-15.747-.02-5.78-3.81-10.896-9.36-12.801l-3.2-1.1.554-3.338.041-.27.007-.074c0-1.013-.88-1.875-2.002-1.875z"/></svg>