<svg xmlns="http://www.w3.org/2000/svg" viewBox="0 0 64 64"><path fill="#222" fill-rule="evenodd" d="M31.487 12.662a2 2 0 0 1-.026 2.704l-.123.12L15.212 30 54 30a2 2 0 0 1 1.995 1.85L56 32a2 2 0 0 1-1.85 1.995L54 34H15.211l16.127 14.513a2 2 0 0 1 .259 2.692l-.11.133a2 2 0 0 1-2.692.259l-.133-.11L8.654 33.479l-.14-.141-.065-.075-.065-.085-.087-.129-.111-.206-.068-.166-.058-.19-.038-.192-.015-.131L8 31.999l.007-.162.02-.166.02-.105.045-.167.054-.15.07-.154.08-.144.114-.164.111-.133.172-.168 19.97-17.973a2 2 0 0 1 2.824.15z"/></svg>