<svg xmlns="http://www.w3.org/2000/svg" width="64" height="64" viewBox="0 0 64 64">
    <path fill="#222" fill-rule="evenodd" d="M52 10H24a8 8 0 0 0-8 8v8h-4a8 8 0 0 0-8 8v12a8 8 0 0 0 8 8h7.17l5.71 5.71a3 3 0 0 0 2.12.88 3 3 0 0 0 3-3V54h10a8 8 0 0 0 8-8v-8h4a8 8 0 0 0 8-8V18a8 8 0 0 0-8-8zm-8 36a4 4 0 0 1-4 4H26v5.17L20.83 50H12a4 4 0 0 1-4-4V34a4 4 0 0 1 4-4h4a8 8 0 0 0 8 8h6v3.59a3 3 0 0 0 5.12 2.12L40.83 38H44v8zm12-16a4 4 0 0 1-4 4H39.17L34 39.17V34H24a4 4 0 0 1-4-4V18a4 4 0 0 1 4-4h28a4 4 0 0 1 4 4v12z"/>
</svg>
