<svg xmlns="http://www.w3.org/2000/svg" viewBox="0 0 64 64"><path fill="#222" fill-rule="evenodd" d="M15.989 8.008A14 14 0 0 1 29.47 14H40a4 4 0 0 1 4 4v4h4.93a4 4 0 0 1 3.33 1.78l6.4 9.6A8 8 0 0 1 60 37.82V46a4 4 0 0 1-4 4h-2.29a7 7 0 0 1-13.42 0 2.85 2.85 0 0 1-.29 0H27.71a7 7 0 0 1-13.42 0 2.85 2.85 0 0 1-.29 0h-2.13A3.93 3.93 0 0 1 8 46V31.78a14 14 0 0 1 7.989-23.772zM21 45a3 3 0 1 0 0 6 3 3 0 0 0 0-6zm27.148.228a3 3 0 1 0-2.296 5.544 3 3 0 0 0 2.296-5.544zM40 18h-8.59A14 14 0 0 1 18 36a13.87 13.87 0 0 1-6-1.37V46h2a2.85 2.85 0 0 1 .29 0 7 7 0 0 1 13.42 0H40V18zm8.93 8H44v15.69a6.88 6.88 0 0 1 3-.69 7 7 0 0 1 6.71 5H56v-8.18a4 4 0 0 0-.67-2.22l-6.4-9.6zM18 12c-5.523 0-10 4.477-10 10s4.477 10 10 10 10-4.477 10-10-4.477-10-10-10zm0 2a2 2 0 0 1 2 2v5l.11.29 3.3 3.3a2 2 0 0 1-2.82 2.82l-4-4A2 2 0 0 1 16 22v-6a2 2 0 0 1 2-2z"/></svg>