<svg xmlns="http://www.w3.org/2000/svg" viewBox="0 0 64 64"><path fill="#222" fill-rule="evenodd" d="M30 4h20a8 8 0 0 1 7.996 7.75L58 12v34a8 8 0 0 1-7.75 7.996L50 54H31.74a8 8 0 0 1-7.48 5.996L24 60H14a8 8 0 0 1-7.996-7.75L6 52V24a8 8 0 0 1 7.75-7.996L14 16h8v-4a8 8 0 0 1 7.75-7.996L30 4h20zm-2 44H10v4a4 4 0 0 0 3.8 3.995L14 56h10a4 4 0 0 0 3.995-3.8L28 52v-4zm-8.99 2.01a2 2 0 1 1 0 4 2 2 0 0 1 0-4zM54 42H32v8h18a4 4 0 0 0 3.995-3.8L54 46v-4zm-13.99 2a2 2 0 1 1 0 4 2 2 0 0 1 0-4zM24 20H14a4 4 0 0 0-3.995 3.8L10 24v20h18V24a4 4 0 0 0-4-4zM50 8H30a4 4 0 0 0-3.995 3.8L26 12v4.27a8 8 0 0 1 5.995 7.47L32 24v14h22V12a4 4 0 0 0-4-4z"/></svg>