<svg xmlns="http://www.w3.org/2000/svg" width="64" height="64" viewBox="0 0 64 64">
    <path fill="#222" fill-rule="evenodd" d="M50 4H18a8 8 0 0 0-8 8v44a4 4 0 0 0 4 4h32a8 8 0 0 0 8-8V8a4 4 0 0 0-4-4zm0 48a4 4 0 0 1-4 4H14V12a4 4 0 0 1 4-4h32v44zM25.58 40.6c1.104 0 1.992.528 2.448 1.356.228.42.336.888.336 1.404 0 .768-.372 1.488-.924 1.98-.497.443-1.1.71-1.715.76l-.205.008h-1.44v1.656c0 .66-.42 1.308-.84 1.308-.388 0-.765-.644-.82-.904l-.008-.056V41.38c0-.358.533-.727 1.082-.775l.118-.005h1.968zm6.972 0c1.104 0 1.992.528 2.448 1.356.228.42.336.888.336 1.404 0 .768-.372 1.488-.924 1.98-.497.443-1.1.71-1.715.76l-.205.008h-1.44v1.656c0 .66-.42 1.308-.84 1.308-.388 0-.765-.644-.82-.904l-.008-.056V41.38c0-.358.533-.727 1.082-.775l.118-.005h1.968zm9.24 0c.312 0 .468.144.468.432 0 .66-.42 1.308-.84 1.308h-1.596v5.424c0 .66-.42 1.308-.84 1.308s-.828-.732-.828-.96V42.34h-1.644c-.42 0-.828-.732-.828-.96 0-.384.612-.78 1.2-.78h4.908zm-16.26 1.56H24.08v2.388h1.452c.684 0 1.212-.516 1.212-1.188 0-.708-.504-1.2-1.212-1.2zm6.972 0h-1.452v2.388h1.452c.684 0 1.212-.516 1.212-1.188 0-.708-.504-1.2-1.212-1.2zM30 26h12a2 2 0 0 1 .15 3.995L42 30H30a2 2 0 0 1-.15-3.995L30 26h12zm-8 0a2 2 0 1 1 0 4 2 2 0 0 1 0-4zm19-8c1.657 0 3 .895 3 2 0 1.06-1.238 1.928-2.803 1.996L41 22H23c-1.657 0-3-.895-3-2 0-1.06 1.238-1.928 2.803-1.996L23 18h18z"/>
</svg>
