<svg xmlns="http://www.w3.org/2000/svg" width="64" height="64" viewBox="0 0 64 64">
    <path fill="#222" fill-rule="evenodd" d="M50 4a4 4 0 0 1 3.995 3.8L54 8v44a8 8 0 0 1-7.75 7.996L46 60H14a4 4 0 0 1-3.995-3.8L10 56V12a8 8 0 0 1 7.75-7.996L18 4h32zm0 4H18a4 4 0 0 0-3.995 3.8L14 12v44h32a4 4 0 0 0 3.995-3.8L50 52V8zM25.094 40.6c1.104 0 1.992.528 2.448 1.356.228.42.336.888.336 1.404 0 .768-.372 1.488-.924 1.98-.497.443-1.1.71-1.715.76l-.205.008h-1.44v1.656c0 .66-.42 1.308-.84 1.308-.388 0-.765-.644-.82-.904l-.008-.056V41.38c0-.358.533-.727 1.082-.775l.118-.005h1.968zm17.208 0c.3 0 .444.144.444.42 0 .432-.192.864-.432 1.092-.132.108-.252.168-.372.168h-3.048v1.752h2.652c.276 0 .42.132.42.396 0 .588-.372 1.164-.756 1.164h-2.316v2.172c0 .66-.42 1.308-.84 1.308s-.828-.732-.828-.96V41.38c0-.384.612-.78 1.2-.78h3.876zm-10.368 0c1.584 0 2.892.804 3.576 2.04.336.612.504 1.296.504 2.028 0 1.764-.756 3.108-2.016 3.804a4.366 4.366 0 0 1-1.912.521l-.272.007h-2.088c-.388 0-.765-.624-.82-.899l-.008-.061v-6.66c0-.358.533-.727 1.082-.775l.118-.005h1.836zm.084 1.632h-1.452v5.136h1.344c1.5 0 2.388-.984 2.388-2.652 0-1.488-.924-2.484-2.28-2.484zm-6.972-.072h-1.452v2.388h1.452c.684 0 1.212-.516 1.212-1.188 0-.708-.504-1.2-1.212-1.2zM41 26c1.657 0 3 .895 3 2s-1.343 2-3 2H23c-1.657 0-3-.895-3-2s1.343-2 3-2zm-18-8h18c1.657 0 3 .895 3 2 0 1.06-1.238 1.928-2.803 1.996L41 22H23c-1.657 0-3-.895-3-2 0-1.06 1.238-1.928 2.803-1.996L23 18h18z"/>
</svg>
