<svg xmlns="http://www.w3.org/2000/svg" width="64" height="64" viewBox="0 0 64 64">
    <g fill="#220" fill-rule="nonzero">
        <path d="M24 14c3.728 0 6.86 2.55 7.748 6H54a2 2 0 0 1 .15 3.995L54 24H31.748a8.003 8.003 0 0 1-15.496 0H10a2 2 0 0 1-.15-3.995L10 20h6.252c.888-3.45 4.02-6 7.748-6zm0 4a4 4 0 1 0 0 8 4 4 0 0 0 0-8zM40 34a8.003 8.003 0 0 0-7.748 6H10a2 2 0 0 0-.15 3.995L10 44h22.252a8.003 8.003 0 0 0 15.496 0H54a2 2 0 0 0 .15-3.995L54 40h-6.252c-.888-3.45-4.02-6-7.748-6zm0 4a4 4 0 1 1 0 8 4 4 0 0 1 0-8z"/>
    </g>
</svg>
