<svg xmlns="http://www.w3.org/2000/svg" width="64" height="64" viewBox="0 0 64 64">
    <path fill="#222" fill-rule="evenodd" d="M56 16h-8.06c.04-.332.06-.666.06-1a9 9 0 0 0-16-5.64A9 9 0 0 0 16 15c0 .334.02.668.06 1H8a3.84 3.84 0 0 0-4 3.67v6.66A3.84 3.84 0 0 0 8 30v18a8 8 0 0 0 8 8h32a8 8 0 0 0 8-8V30a3.84 3.84 0 0 0 4-3.67v-6.66A3.84 3.84 0 0 0 56 16zm-17-6a5 5 0 0 1 5 5 4.79 4.79 0 0 1-.11 1h-9.78a4.79 4.79 0 0 1-.11-1 5 5 0 0 1 5-5zm-19 5a5 5 0 0 1 10 0 4.79 4.79 0 0 1-.11 1h-9.78a4.79 4.79 0 0 1-.11-1zm10 5v6H8v-6h22zM12 48V30h18v22H16a4 4 0 0 1-4-4zm40 0a4 4 0 0 1-4 4H34V30h18v18zm0-22H34v-6h22v6h-4z"/>
</svg>
