<svg xmlns="http://www.w3.org/2000/svg" width="64" height="64" viewBox="0 0 64 64">
    <path fill="#222" fill-rule="evenodd" d="M9.973 8c1.09 0 1.972.9 1.972 2.011v41.966h42.082c1.09 0 1.973.9 1.973 2.012 0 1.11-.883 2.011-1.973 2.011H9.973C8.883 56 8 55.1 8 53.989V10.01C8 8.901 8.883 8 9.973 8zm44.5 10.064c.9-.261 1.584.303 1.523 1.254l-2.025 14.595c-.039.243-.12.437-.234.58-.32.403-.895.397-1.482-.086l-3.8-3.132-.296-.243-8.109 10.445a1.994 1.994 0 0 1-1.4.767 1.983 1.983 0 0 1-1.507-.512l-8.19-7.455L18.557 47.25c-.396.494-.973.75-1.554.75-.445 0-.893-.15-1.265-.46a2.065 2.065 0 0 1-.286-2.87l11.724-14.626c.345-.432.85-.7 1.395-.744a1.982 1.982 0 0 1 1.492.513l8.165 7.433 6.817-8.78-.48-.395-3.806-3.136c-.586-.483-.712-1.053-.391-1.456.113-.143.283-.265.509-.354z"/>
</svg>
