<svg xmlns="http://www.w3.org/2000/svg" width="64" height="64" viewBox="0 0 64 64">
    <path fill="#222" fill-rule="evenodd" d="M54 12a6 6 0 0 1 6 6v28a6 6 0 0 1-6 6H10a6 6 0 0 1-6-6V18a6 6 0 0 1 6-6h44zm-6.038 16.06c-.476 0-.935.178-1.294.542l-6.537 6.632-11.02 11.19c-.71.72-1.87.72-2.58 0l-6.92-7.023a1.834 1.834 0 0 0-1.294-.542c-.476 0-.935.178-1.294.542L8.88 47.657c.281.19.613.311.97.338L10 48h44a2 2 0 0 0 1.995-1.85L56 46V35.436l-4.657-4.725-2.087-2.11a1.848 1.848 0 0 0-1.294-.541zM40.495 16H10a2 2 0 0 0-1.995 1.85L8 18v25.304l6.435-6.528a5.435 5.435 0 0 1 3.874-1.627c1.394 0 2.805.542 3.873 1.627l5.627 5.708 8.916-9.046a9.986 9.986 0 0 1-3.681-7.767c0-4.675 3.171-8.599 7.45-9.671zM54 16h-8.768c4.279 1.073 7.455 4.994 7.455 9.68 0 .372-.025.745-.067 1.11L56 30.217V18a2 2 0 0 0-2-2z"/>
</svg>
