<svg xmlns="http://www.w3.org/2000/svg" width="64" height="64" viewBox="0 0 64 64">
    <path fill="#222" fill-rule="evenodd" d="M50 4a4 4 0 0 1 3.995 3.8L54 8v44a8 8 0 0 1-7.75 7.996L46 60H14a4 4 0 0 1-3.995-3.8L10 56V12a8 8 0 0 1 7.75-7.996L18 4h32zm0 4H18a4 4 0 0 0-3.995 3.8L14 12v44h32a4 4 0 0 0 3.995-3.8L50 52V8zm-8 38a2 2 0 0 1 .15 3.995L42 50h-2a2 2 0 0 1-.15-3.995L40 46h2zm0-8a2 2 0 0 1 .15 3.995L42 42H22a2 2 0 0 1-.15-3.995L22 38h20zm-10-8a2 2 0 0 1 .15 3.995L32 34H22a2 2 0 0 1-.15-3.995L22 30h10zm10 0a2 2 0 0 1 .15 3.995L42 34h-2a2 2 0 0 1-.15-3.995L40 30h2zm-10-8a2 2 0 0 1 .15 3.995L32 26H22a2 2 0 0 1-.15-3.995L22 22h10zm10 0a2 2 0 0 1 .15 3.995L42 26h-2a2 2 0 0 1-.15-3.995L40 22h2zm-20-8h10a2 2 0 0 1 .15 3.995L32 18H22a2 2 0 0 1-.15-3.995L22 14h10zm20 0a2 2 0 1 1 0 4h-2a2 2 0 1 1 0-4z"/>
</svg>
