<svg xmlns="http://www.w3.org/2000/svg" width="64" height="64" viewBox="0 0 64 64">
    <path fill="#222" fill-rule="evenodd" d="M20.381 32.319c.3 0 .61.018.92.045l-.419.42a7.261 7.261 0 0 0-2.012 6.446 4.524 4.524 0 0 0-1.569.906l-.198.187-5.09 5.08a4.665 4.665 0 0 0-1.366 3.288c0 1.202.446 2.367 1.366 3.287a4.617 4.617 0 0 0 3.287 1.357 4.617 4.617 0 0 0 3.287-1.357l5.09-5.09a4.625 4.625 0 0 0 1.093-1.767c2.267.401 4.699-.264 6.447-2.012l.4-.428c.028.31.046.61.046.92 0 2.877-1.11 5.782-3.305 7.976l-5.09 5.09a11.284 11.284 0 0 1-7.977 3.306c-2.762 0-5.55-1.016-7.71-3.038l-.267-.259a11.284 11.284 0 0 1-.267-15.705l.258-.266 5.09-5.08a11.266 11.266 0 0 1 7.986-3.306zm19.896-8.642a3.332 3.332 0 0 1 .138 4.552l-.138.147-11.892 11.901a3.322 3.322 0 0 1-4.698.01 3.332 3.332 0 0 1-.139-4.552l.139-.147 11.892-11.91a3.33 3.33 0 0 1 4.698 0zM48.682 4a11.32 11.32 0 0 1 7.985 3.305l.258.267a11.415 11.415 0 0 1 3.066 7.728c0 2.878-1.111 5.782-3.305 7.977l-5.09 5.09-.267.258a11.308 11.308 0 0 1-7.72 3.047c-.3 0-.61-.018-.91-.045l.419-.42c1.748-1.747 2.413-4.179 2.012-6.446a4.583 4.583 0 0 0 1.767-1.093l5.09-5.09.176-.187a4.608 4.608 0 0 0 1.18-3.1 4.617 4.617 0 0 0-1.356-3.287l-.187-.178a4.58 4.58 0 0 0-3.1-1.188 4.617 4.617 0 0 0-3.287 1.357l-5.09 5.09a4.517 4.517 0 0 0-1.093 1.766 7.27 7.27 0 0 0-6.456 2.013l-.419.419c-.027-.3-.045-.61-.045-.911a11.3 11.3 0 0 1 3.305-7.977l5.09-5.09A11.284 11.284 0 0 1 48.682 4z"/>
</svg>
