<svg xmlns="http://www.w3.org/2000/svg" viewBox="0 0 64 64"><path fill="#222" fill-rule="evenodd" d="M11 43a3 3 0 0 1 2.995 2.824L14 46l-.005.176A3 3 0 1 1 11 43zm42.965 1l.152.005c1.053.077 1.883.942 1.883 1.996s-.832 1.917-1.886 1.994l-.152.005H20.035c-1.124 0-2.034-.894-2.035-1.999 0-1.054.83-1.92 1.883-1.996l.152-.005h33.93zM11 29a3 3 0 0 1 2.995 2.824L14 32l-.005.176A3 3 0 1 1 11 29zm42.963 1c1.12 0 2.037.895 2.037 2 0 1.054-.831 1.918-1.885 1.995l-.152.005H20.037C18.912 34 18 33.104 18 32c0-1.054.831-1.918 1.885-1.995l.152-.005h33.926zM11 15c1.657 0 3 1.347 3 3a3 3 0 1 1-3.186-2.994L10.99 15H11zm9.032 1l.152.005H54.11c1.008.072 1.81.86 1.884 1.85.081 1.102-.762 2.06-1.884 2.14H20.184a2.097 2.097 0 0 1-.295 0c-1.122-.08-1.965-1.038-1.884-2.14.082-1.102 1.058-1.93 2.179-1.85z"/></svg>