<svg xmlns="http://www.w3.org/2000/svg" viewBox="0 0 64 64"><path fill="#222" fill-rule="evenodd" d="M56 16a4 4 0 0 1 3.995 3.8L60 20v34a4 4 0 0 1-3.8 3.995L56 58H42a4 4 0 0 1-3.995-3.8L38 54V40a2 2 0 0 1 3.995-.15L42 40v2h14V20H42v4a2 2 0 0 1-3.995.15L38 24v-4a4 4 0 0 1 3.8-3.995L42 16h14zm0 30H42v8h14v-8zm-7 2a2 2 0 1 1 0 4 2 2 0 0 1 0-4zM33.404 23.993a2.007 2.007 0 0 1 1.648.868l.088.139L38 30a4 4 0 0 1-3.226 5.993L34.55 36h-7.72l.59.56a2 2 0 1 1-2.711 2.937l-.109-.117-4-4-.08-.09-.09-.11a2.34 2.34 0 0 1-.184-.28l-.076-.15-.057-.166-.043-.17-.03-.174v-.12a1.82 1.82 0 0 1-.017-.347l.017-.173.048-.163.056-.16.066-.157.06-.11a2.12 2.12 0 0 1 .202-.289l.118-.131 4-4a2 2 0 0 1 2.927 2.684l-.107.136-.58.59h7.69l-2.86-5a2.007 2.007 0 0 1 1.744-3.007zM14.21 18h.13l.29.1.12.05.128.049.122.061.07.06.105.071.105.079.12.11.15.16.1.15c.04.054.077.111.11.17.033.06.06.124.08.19l.032.06.028.06 2 6A2 2 0 0 1 16 28a2 2 0 0 1-1.843-1.22l-.057-.15-.58-1.75L9.45 32H16a2 2 0 0 1 .15 3.995L16 36H9.48a4 4 0 0 1-3.593-5.79L6 30l3.66-6.55-1 .35a2.002 2.002 0 0 1-1.407-3.745L7.4 20l6-2h.6l.105-.003zM22 6.04a4 4 0 0 1 3.47 2.01l3.97 7.11.58-1.75a2.002 2.002 0 0 1 3.8 1.26l-2 6v.06a2 2 0 0 1-.26.48 1.91 1.91 0 0 1-.38.37l-.22.16-.24.1-.19.07A2.56 2.56 0 0 1 30 22l-.183-.017a2 2 0 0 1-.357-.083h-.05l-6-2a2.002 2.002 0 0 1 1.26-3.8l1 .35L22 10l-2.83 5.05a2.007 2.007 0 0 1-3.48-2l2.84-5A4 4 0 0 1 22 6.04z"/></svg>