<svg xmlns="http://www.w3.org/2000/svg" width="64" height="64" viewBox="0 0 64 64">
    <path fill="#222" fill-rule="evenodd" d="M48 12a8 8 0 0 1 8 8v14.84A15 15 0 1 1 30.3 48H12a8 8 0 0 1-8-8V20a8 8 0 0 1 8-8zm-3 22c-6.075 0-11 4.925-11 11s4.925 11 11 11 11-4.925 11-11-4.925-11-11-11zm3.34 5.89a2 2 0 1 1 3.32 2.23l-6 9a2 2 0 0 1-1.46.88H44a2 2 0 0 1-1.41-.56l-4-4a2 2 0 0 1 2.82-2.82l2.28 2.27zM52 26H8v14a4 4 0 0 0 4 4h18.05A15 15 0 0 1 52 31.74V26zm-4-10H12a4 4 0 0 0-4 4v2h44v-2a4 4 0 0 0-4-4z"/>
</svg>
