<svg xmlns="http://www.w3.org/2000/svg" width="64" height="64" viewBox="0 0 64 64">
    <path fill="#222" fill-rule="evenodd" d="M40.744 13.645l1.97 1.363a24.352 24.352 0 0 1 6.161 6.16l1.367 1.974a4 4 0 0 1-.46 5.106l-23.7 23.695a6 6 0 0 1-3.58 1.72L12.41 54.785a3 3 0 0 1-3.329-3.092l.016-.221L10.22 41.38a6 6 0 0 1 1.72-3.58l23.7-23.696a4 4 0 0 1 5.105-.46zm-2.276 3.289l-23.7 23.695a2 2 0 0 0-.574 1.194l-.983 8.848 8.849-.983a2 2 0 0 0 1.193-.573l23.7-23.696-1.367-1.973a20.352 20.352 0 0 0-5.149-5.149l-1.97-1.363zm3.165-9.127a2 2 0 0 1 2.746-.675c2.67 1.617 5.017 3.435 7.035 5.454 2.035 2.035 3.703 4.24 4.998 6.613a2 2 0 1 1-3.51 1.916c-1.11-2.032-2.546-3.931-4.316-5.7-1.786-1.786-3.877-3.407-6.279-4.861a2 2 0 0 1-.674-2.747z"/>
</svg>
