<svg xmlns="http://www.w3.org/2000/svg" width="64" height="64" viewBox="0 0 64 64">
    <path fill="#222" fill-rule="evenodd" d="M25.707 20.082a2.94 2.94 0 0 1 2.288.75A3 3 0 0 1 29 23.082V35h11.917a3 3 0 0 1 2.236 1.042 2.94 2.94 0 0 1 .75 2.25c-.915 8.373-7.989 14.712-16.41 14.708h-.878c-8.69-.327-15.634-7.341-15.874-16.034-.24-8.692 6.308-16.079 14.966-16.884zM26 23.105c-6.975.782-12.187 6.777-11.991 13.792.195 7.016 5.734 12.711 12.741 13.103 7.16.398 13.382-4.872 14.167-12H29a3 3 0 0 1-3-3zm10.553-12.034l.21.011A18 18 0 0 1 52.925 27.26l.01.205a3 3 0 0 1-.76 2.045 3 3 0 0 1-2.25.99H33.5V14.082a3 3 0 0 1 3.263-3zm-.053 2.997V27.5h13.425A15 15 0 0 0 36.5 14.068z"/>
</svg>
