<svg xmlns="http://www.w3.org/2000/svg" viewBox="0 0 64 64"><path fill="#222" fill-rule="evenodd" d="M32 48a2 2 0 0 1 2 2v8a2 2 0 1 1-4 0v-8a2 2 0 0 1 2-2zm-6 0a2 2 0 0 1 2 2v4a2 2 0 1 1-4 0v-4a2 2 0 0 1 2-2zm12 0a2 2 0 0 1 2 2v4a2 2 0 1 1-4 0v-4a2 2 0 0 1 2-2zM30.73 4.49a2 2 0 0 1 2.54 0c8.77 7.18 13.18 15.23 13.18 24 4.19 2.64 6.74 6.3 7.3 10.56a3.81 3.81 0 0 1-1.19 3.34 3.89 3.89 0 0 1-2.62 1 4.23 4.23 0 0 1-.79-.08l-5.93-1.24c-.47.93-.93 1.93-1.47 2.93A2 2 0 0 1 40 46H24a2 2 0 0 1-1.75-1.07c-.54-.98-1.03-1.93-1.47-2.93l-5.93 1.23a4.23 4.23 0 0 1-.79.08 3.89 3.89 0 0 1-2.62-1 3.81 3.81 0 0 1-1.19-3.27c.56-4.26 3.11-7.92 7.3-10.54l.004-.453c.15-8.604 4.597-16.491 13.176-23.557zm1.29 4.12c-6.34 5.59-9.77 11.55-10.34 18a23.48 23.48 0 0 0 0 4.19 27.65 27.65 0 0 0 1.53 6.63 36.07 36.07 0 0 0 1.59 3.76c.13.27.26.54.4.81h13.6c.14-.27.27-.54.4-.81a36.07 36.07 0 0 0 1.59-3.76 27.65 27.65 0 0 0 1.53-6.63 23.48 23.48 0 0 0 .04-4.19c-.57-6.47-4.01-12.43-10.34-18zM18 33.13a10 10 0 0 0-3.75 6.17l5.07-1.04A31.75 31.75 0 0 1 18 33.13zm28.05 0a31.75 31.75 0 0 1-1.32 5.13l5.02 1.04a10 10 0 0 0-3.7-6.17zM32 18a6 6 0 1 1 0 12 6 6 0 0 1 0-12zm0 4a2 2 0 1 0 0 4 2 2 0 0 0 0-4z"/></svg>