<svg xmlns="http://www.w3.org/2000/svg" viewBox="0 0 64 64"><path fill="#222" fill-rule="evenodd" d="M9.441 44.312l5.05 2.55a2 2 0 1 1-1.79 3.57l-.7-.38a8.25 8.25 0 0 0 12 4.89 2.011 2.011 0 0 1 2 3.49h-.12a12.26 12.26 0 0 1-17.73-7.1l-.36.72a2 2 0 0 1-1.79 1.1 2 2 0 0 1-.9-.21 2 2 0 0 1-.89-2.68l2.54-5.06a2 2 0 0 1 2.69-.89zm19.81-36.31a6 6 0 0 1 6 6v2h8a6 6 0 0 1 6 6v26a6 6 0 0 1-6 6h-10.5a6 6 0 0 1-6-6v-2h-8a6 6 0 0 1-6-6v-26a6 6 0 0 1 6-6zm16 34h-14.5v6a2 2 0 0 0 2 2h10.5a2 2 0 0 0 2-2v-6zm-7.25 2a2 2 0 1 1 0 4 2 2 0 0 1 0-4zm-11.25-10h-10v6a2 2 0 0 0 2 2h8v-8zm-2.75 2a2 2 0 1 1 0 4 2 2 0 0 1 0-4zm19.25-16h-10.5a2 2 0 0 0-2 2v16h14.5v-16a2 2 0 0 0-2-2zm-14-8h-10.5a2 2 0 0 0-2 2v16h10v-8a6 6 0 0 1 4.5-5.8v-2.2a2 2 0 0 0-2-2zM48.616 4.88a12.26 12.26 0 0 1 7.165 7.793l.36-.72a2.001 2.001 0 0 1 3.58 1.79h.07l-2.54 5.06a2 2 0 0 1-1.79 1.1 2 2 0 0 1-.9-.21l-5.05-2.55a2 2 0 1 1 1.79-3.57l.75.38a8.25 8.25 0 0 0-12-4.89 2.011 2.011 0 0 1-2-3.49 12.26 12.26 0 0 1 10.565-.693z"/></svg>