<svg xmlns="http://www.w3.org/2000/svg" width="64" height="64" viewBox="0 0 64 64">
    <path fill="#222" fill-rule="evenodd" d="M52 32a8 8 0 0 1 7.996 7.75L60 40v6a8 8 0 0 1-7.75 7.996L52 54H12a8 8 0 0 1-7.996-7.75L4 46v-6a8 8 0 0 1 7.75-7.996L12 32h40zm0 4H12a4 4 0 0 0-3.995 3.8L8 40v6a4 4 0 0 0 3.8 3.995L12 50h40a4 4 0 0 0 3.995-3.8L56 46v-6a4 4 0 0 0-4-4zm-24 5a2 2 0 0 1 .15 3.995L28 45H16a2 2 0 0 1-.15-3.995L16 41h12zm12 0a2 2 0 1 1 0 4 2 2 0 0 1 0-4zm8 0a2 2 0 1 1 0 4 2 2 0 0 1 0-4zM32 18a11.9 11.9 0 0 1 8.42 3.49A2 2 0 0 1 39 24.9a2 2 0 0 1-1.41-.59 7.92 7.92 0 0 0-11.18 0 2 2 0 1 1-2.83-2.82A11.9 11.9 0 0 1 32 18zm16.24-4a2 2 0 0 1-1.3 3.54 1.94 1.94 0 0 1-1.3-.48c-7.74-6.66-19.138-6.747-26.973-.26l-.307.26V17a2 2 0 1 1-2.6-3c9.333-8.042 23.147-8.042 32.48 0z"/>
</svg>
