<svg xmlns="http://www.w3.org/2000/svg" viewBox="0 0 64 64"><path fill="#222" fill-rule="evenodd" d="M46 6a8 8 0 0 1 7.996 7.75L54 14v36a8 8 0 0 1-7.75 7.996L46 58H18a8 8 0 0 1-7.996-7.75L10 50V14a8 8 0 0 1 7.75-7.996L18 6h28zm4 36H14v8a4 4 0 0 0 3.8 3.995L18 54h28a4 4 0 0 0 3.995-3.8L50 50v-8zm-24 4a2 2 0 1 1 0 4h-6a2 2 0 1 1 0-4zm24-20H14v12h36V26zm-30 4h6a2 2 0 0 1 .15 3.995L26 34h-6a2 2 0 0 1-.15-3.995L20 30h6zm26-20H18a4 4 0 0 0-3.995 3.8L14 14v8h36v-8a4 4 0 0 0-4-4zm-20 4a2 2 0 0 1 .15 3.995L26 18h-6a2 2 0 0 1-.15-3.995L20 14h6z"/></svg>