<svg xmlns="http://www.w3.org/2000/svg" width="64" height="64" viewBox="0 0 64 64">
    <path fill="#222" fill-rule="evenodd" d="M52 9a8 8 0 0 1 7.996 7.75L60 17v12a8 8 0 0 1-7.75 7.996L52 37h-4v8a8 8 0 0 1-7.75 7.996L40 53H30v3.59a3 3 0 0 1-4.975 2.256l-.145-.136L19.17 53H12a8 8 0 0 1-7.996-7.75L4 45V33a8 8 0 0 1 7.75-7.996L12 25h4v-8a8 8 0 0 1 7.75-7.996L24 9h28zM16 29h-4a4 4 0 0 0-3.995 3.8L8 33v12a4 4 0 0 0 3.8 3.995L12 49h8.83L26 54.17V49h14a4 4 0 0 0 3.995-3.8L44 45v-8h-3.17l-5.71 5.71a3 3 0 0 1-2.12.88 3 3 0 0 1-2.994-2.81L30 40.59V37h-6a8 8 0 0 1-8-8zm2 9a2 2 0 1 1 0 4 2 2 0 0 1 0-4zm8 0a2 2 0 1 1 0 4 2 2 0 0 1 0-4zm26-25H24a4 4 0 0 0-3.995 3.8L20 17v12a4 4 0 0 0 3.8 3.995L24 33h10v5.17L39.17 33H52a4 4 0 0 0 3.995-3.8L56 29V17a4 4 0 0 0-4-4zm-22 8a2 2 0 1 1 0 4 2 2 0 0 1 0-4zm16 0a2 2 0 1 1 0 4 2 2 0 0 1 0-4zm-8 0a2 2 0 1 1 0 4 2 2 0 0 1 0-4z"/>
</svg>
