<svg xmlns="http://www.w3.org/2000/svg" viewBox="0 0 64 64"><path fill="#222" fill-rule="evenodd" d="M50 4a4 4 0 0 1 3.995 3.8L54 8v44a8 8 0 0 1-7.75 7.996L46 60H14a4 4 0 0 1-3.995-3.8L10 56V12a8 8 0 0 1 7.75-7.996L18 4h32zm0 4H18a4 4 0 0 0-3.995 3.8L14 12v44h32a4 4 0 0 0 3.995-3.8L50 52V8zm-8 34a2 2 0 0 1 .15 3.995L42 46H30a2 2 0 0 1-.15-3.995L30 42h12zm-20 0a2 2 0 1 1 0 4 2 2 0 0 1 0-4zm20-12a2 2 0 0 1 .15 3.995L42 34H30a2 2 0 0 1-.15-3.995L30 30h12zm-20 0a2 2 0 1 1 0 4 2 2 0 0 1 0-4zm20-12a2 2 0 0 1 .15 3.995L42 22H30a2 2 0 0 1-.15-3.995L30 18h12zm-20 0a2 2 0 1 1 0 4 2 2 0 0 1 0-4z"/></svg>