<svg xmlns="http://www.w3.org/2000/svg" viewBox="0 0 64 64"><path fill="#222" fill-rule="evenodd" d="M10.44 44.31l5.05 2.55a2 2 0 1 1-1.79 3.57l-.7-.38a8.25 8.25 0 0 0 12 4.89 2.011 2.011 0 0 1 2 3.49h-.12a12.26 12.26 0 0 1-17.73-7.1l-.36.72A2 2 0 0 1 7 53.15a2 2 0 0 1-.9-.21 2 2 0 0 1-.89-2.68l2.54-5.06a2 2 0 0 1 2.69-.89zM30.25 8a6 6 0 0 1 6 6v2h8a6 6 0 0 1 6 6v26a6 6 0 0 1-6 6h-10.5a6 6 0 0 1-6-6v-2h-8a6 6 0 0 1-6-6V14a6 6 0 0 1 6-6zm16 34h-14.5v6a2 2 0 0 0 2 2h10.5a2 2 0 0 0 2-2v-6zM39 44a2 2 0 1 1 0 4 2 2 0 0 1 0-4zM27.75 34h-10v6a2 2 0 0 0 2 2h8v-8zM25 36a2 2 0 1 1 0 4 2 2 0 0 1 0-4zm19.25-16h-10.5a2 2 0 0 0-2 2v16h14.5V22a2 2 0 0 0-2-2zm-14-8h-10.5a2 2 0 0 0-2 2v16h10v-8a6 6 0 0 1 4.5-5.8V14a2 2 0 0 0-2-2zm19.364-7.124a12.26 12.26 0 0 1 7.166 7.794l.36-.72a2.001 2.001 0 0 1 3.58 1.79h.07l-2.54 5.06a2 2 0 0 1-1.79 1.1 2 2 0 0 1-.9-.21l-5.05-2.55a2 2 0 1 1 1.79-3.57l.75.38a8.25 8.25 0 0 0-12-4.89 2.011 2.011 0 0 1-2-3.49 12.26 12.26 0 0 1 10.564-.694z"/></svg>