<svg xmlns="http://www.w3.org/2000/svg" viewBox="0 0 64 64"><path fill="#222" fill-rule="evenodd" d="M8.027 37.519c-.17-.996.495-1.668 1.493-1.49l15.125 3.777c.961.265 1.102 1.114.326 1.888l-3.726 3.719a17.726 17.726 0 0 0 12.582 5.201c4.569-.007 9.1-1.726 12.582-5.201a17.696 17.696 0 0 0 4.34-7.053 2.695 2.695 0 0 1 3.393-1.727 2.69 2.69 0 0 1 1.723 3.401 22.993 22.993 0 0 1-5.648 9.193l-.35.343A23.169 23.169 0 0 1 33.826 56a23.136 23.136 0 0 1-16.39-6.773l-3.725 3.719c-.777.774-1.634.634-1.893-.325zM30.172 8c5.92 0 11.862 2.266 16.386 6.775l3.725-3.72c.783-.774 1.633-.634 1.892.325l3.799 15.1c.17.997-.503 1.669-1.493 1.492l-15.13-3.78c-.96-.265-1.1-1.114-.325-1.889l3.725-3.72a17.716 17.716 0 0 0-12.58-5.203c-4.56.008-9.098 1.727-12.579 5.204l-.357.366a17.659 17.659 0 0 0-3.981 6.69 2.692 2.692 0 1 1-5.122-1.66 23.13 23.13 0 0 1 5.654-9.205l.35-.342A23.156 23.156 0 0 1 30.172 8z"/></svg>