<svg xmlns="http://www.w3.org/2000/svg" width="64" height="64" viewBox="0 0 64 64">
    <path fill="#222" fill-rule="evenodd" d="M10.958 56C9.877 56 9 55.105 9 54c0-.078.004-.156.013-.232l-.01-.146L9 53.474V10.526C9 9.131 9.895 8 11 8c.152 0 .3.021.442.062a1.85 1.85 0 0 1 .332-.057L11.917 8H54.083C55.142 8 56 8.895 56 10c0 .08-.004.159-.013.236.009.095.013.192.013.29V14l-.001.026v19.949L56 34l-.001.026L56 53.474c0 .1-.005.198-.014.295.01.075.014.153.014.231 0 1.054-.799 1.918-1.812 1.995l-.146.005H10.958zM52 52V36H34v16h17.999zM30 36H13v16h17V36zm21.999-4V16H34v16h17.999zM30 16H13v16h17V16z"/>
</svg>
