<svg xmlns="http://www.w3.org/2000/svg" width="64" height="64" viewBox="0 0 64 64">
    <path fill="#222" fill-rule="evenodd" d="M42 52a2 2 0 0 1 .15 3.995L42 56H22a2 2 0 0 1-.15-3.995L22 52h20zm10-40a8 8 0 0 1 7.996 7.75L60 20v22a8 8 0 0 1-7.75 7.996L52 50H12a8 8 0 0 1-7.996-7.75L4 42V20a8 8 0 0 1 7.75-7.996L12 12h40zm0 4H12a4 4 0 0 0-3.995 3.8L8 20v22a4 4 0 0 0 3.8 3.995L12 46h40a4 4 0 0 0 3.995-3.8L56 42V20a4 4 0 0 0-4-4zm-34.12 5h12c.75 0 1.12.33 1.12 1a3.61 3.61 0 0 1-.62 2.06 1.75 1.75 0 0 1-1.221.917L29 25h-4v13a3.61 3.61 0 0 1-.62 2.06A1.75 1.75 0 0 1 23 41c-.507 0-1.01-.36-1.51-1.08a2.33 2.33 0 0 1-.458-.954L21 38.79V25h-4c-.507 0-1.02-.36-1.54-1.08a2.33 2.33 0 0 1-.49-1.13c0-.44.3-.85.91-1.22a3.62 3.62 0 0 1 1.765-.566L17.88 21h12zm17.78 0a.93.93 0 0 1 1 .67L41 36l4.33-13.5a2 2 0 0 1 1-1.05A3.3 3.3 0 0 1 48 21c.65 0 1 .32 1 1 0 .419-.07.835-.21 1.23l-5.53 15.94a3.84 3.84 0 0 1-.79 1.31 1.38 1.38 0 0 1-1 .48h-.78c-.46 0-.98-.31-1.46-1a3.51 3.51 0 0 1-.41-.78l-5.66-15.83a1.76 1.76 0 0 1-.16-.61 1.49 1.49 0 0 1 .83-1.19 3.25 3.25 0 0 1 1.83-.55z"/>
</svg>
