<svg xmlns="http://www.w3.org/2000/svg" viewBox="0 0 64 64"><path fill="#222" fill-rule="evenodd" d="M28.459 8.138a1.02 1.02 0 0 1 1.026.001c.318.185.514.527.515.897l-.004 4.983a21.16 21.16 0 0 1 15.936 6.246 20.924 20.924 0 0 1 4.438 22.828C47.094 50.897 39.434 55.984 30.935 56c-10.507-.01-19.413-7.697-20.91-18.046a2.485 2.485 0 0 1 .932-2.312 2.513 2.513 0 0 1 2.477-.354 2.493 2.493 0 0 1 1.547 1.959c.839 5.904 4.91 10.853 10.56 12.838 8.365 2.952 17.584-1.419 20.55-9.742a15.963 15.963 0 0 0-4.024-16.906 16.143 16.143 0 0 0-12.076-4.438l-.004 3.963c0 .371-.196.714-.514.9a1.02 1.02 0 0 1-1.028-.002l-11.932-6.973A1.04 1.04 0 0 1 16 15.99c0-.37.195-.712.513-.898z"/></svg>