<svg xmlns="http://www.w3.org/2000/svg" width="64" height="64" viewBox="0 0 64 64">
    <path fill="#222" fill-rule="evenodd" d="M9.846 36C8.826 36 8 35.105 8 34V16c0-4.418 3.306-8 7.385-8h33.23C52.694 8 56 11.582 56 16v18c0 1.105-.827 2-1.846 2-1.02 0-1.846-.895-1.846-2V16c0-2.21-1.653-4-3.693-4h-33.23c-2.04 0-3.693 1.79-3.693 4v18c0 1.105-.826 2-1.846 2zM32 56a2 2 0 0 1-2-2V26.83l-8.59 8.58a2 2 0 0 1-2.82-2.82l11.29-11.3a3 3 0 0 1 4.24 0l11.29 11.3a2 2 0 0 1-2.82 2.82L34 26.83V54a2 2 0 0 1-2 2z"/>
</svg>
