<svg xmlns="http://www.w3.org/2000/svg" viewBox="0 0 64 64"><path fill="#222" fill-rule="evenodd" d="M32 6c8.837 0 16 7.163 16 16s-7.163 16-16 16a15.94 15.94 0 0 1-10.65-4.06c-.146.05-.3.08-.461.093a14.1 14.1 0 0 0-7.693 3.071c-1.556 1.26-2.86 2.908-3.852 4.874-.447.887-.869 2.098-1.095 3.286a9.372 9.372 0 0 0-.137 1.05l-.02.26-.029.516-.031.719-.038 1.076c-.02.843.002 1.385.08 1.848l.028.152.042.157.11.34c.16.494.414.899.885 1.425.22.247.39.384.72.58.463.273.94.467 1.379.543l.036.006.038.005.19.023.646.054.334.004 1.221-.024 1.003-.008 1.788.006L31.999 54a2 2 0 0 1 .151 3.994l-.149.006H20.073l-4.978-.01-1.023.003-1.647.03c-.122 0-.234-.001-.34-.004l-.157-.006-.301-.02-.604-.057-.238-.03-.227-.035c-.97-.167-1.883-.538-2.733-1.04a6.595 6.595 0 0 1-1.667-1.357c-.734-.82-1.247-1.602-1.598-2.539l-.112-.318-.12-.374-.05-.167-.043-.164-.053-.23c-.134-.66-.19-1.28-.196-2.089v-.359L4 48.602l.047-1.249c.057-1.338.114-2.004.272-2.837.298-1.565.843-3.129 1.454-4.34 1.241-2.46 2.9-4.557 4.906-6.18a18.122 18.122 0 0 1 7.678-3.633A15.923 15.923 0 0 1 16 22c0-8.837 7.163-16 16-16zm16 28a2 2 0 0 1 2 2v8h8a2 2 0 1 1 0 4h-8v8a2 2 0 1 1-4 0v-8h-8a2 2 0 1 1 0-4h8v-8a2 2 0 0 1 2-2zM32 10c-6.627 0-12 5.373-12 12s5.373 12 12 12 12-5.373 12-12-5.373-12-12-12z"/></svg>