<svg xmlns="http://www.w3.org/2000/svg" width="64" height="64" viewBox="0 0 64 64">
    <path fill="#222" fill-rule="evenodd" d="M33.53 11.13a4 4 0 0 1 2.465 3.49l.005.21v34.34a4 4 0 0 1-2.47 3.7 4.12 4.12 0 0 1-1.53.3 4 4 0 0 1-2.665-1.014L29.17 52l-10-10H16a8 8 0 0 1-7.996-7.75L8 34v-4a8 8 0 0 1 7.75-7.996L16 22h3.17l10-10a4 4 0 0 1 4.36-.87zm13.34 1.544a2 2 0 0 1 2.65.026C53.64 17.51 56 24.54 56 32c0 7.46-2.36 14.49-6.52 19.3a2 2 0 0 1-3-2.6C50 44.6 52 38.52 52 32s-2-12.6-5.48-16.7a2 2 0 0 1 .35-2.626zM32 14.83L20.83 26H16a4 4 0 0 0-3.995 3.8L12 30v4a4 4 0 0 0 3.8 3.995L16 38h4.83L32 49.17V14.83zm11.52 3.87A20.6 20.6 0 0 1 48 32a20.6 20.6 0 0 1-4.52 13.3 2 2 0 0 1-3-2.6A16.58 16.58 0 0 0 44 32a16.58 16.58 0 0 0-3.48-10.7 2 2 0 0 1 3-2.6z"/>
</svg>
