<svg xmlns="http://www.w3.org/2000/svg" viewBox="0 0 64 64"><path fill="#222" fill-rule="evenodd" d="M43 18a9 9 0 0 1 2.933 17.511A9.467 9.467 0 0 1 49 42.5c0 .494-.038.98-.11 1.453A6.5 6.5 0 0 1 46 55.981V56H12v-.014A8.5 8.5 0 0 1 4 47.5c0-4.545 3.882-8.618 8.083-8.523A13.05 13.05 0 0 1 12 37.5C12 30.044 18.268 24 26 24c2.983 0 5.748.9 8.019 2.433A8.998 8.998 0 0 1 43 18zM26 28c-5.555 0-10 4.286-10 9.5 0 .346.02.688.058 1.024l.518 4.555-4.583-.103C10.1 42.933 8 45.143 8 47.5a4.5 4.5 0 0 0 4.232 4.492l.133.008H45.6l.098-.007a2.5 2.5 0 0 0 1.104-4.628l-2.269-1.39.404-2.629c.042-.277.064-.56.064-.846 0-3.038-2.462-5.5-5.439-5.5l-3.135.048-.977-2.668C34.069 30.609 30.309 28 26 28zm26.99 9.962l1.438 1.39a2 2 0 1 1-2.778 2.877l-1.439-1.39a2 2 0 1 1 2.779-2.877zM43 22a5 5 0 1 0 0 10 5 5 0 0 0 0-10zm15 5a2 2 0 1 1 0 4h-2a2 2 0 1 1 0-4h2zM30.181 15.644l1.439 1.39a2 2 0 0 1-2.779 2.876l-1.438-1.389a2 2 0 0 1 2.778-2.877zm25.696-1.033a2 2 0 0 1-.049 2.828l-1.439 1.389a2 2 0 0 1-2.778-2.877l1.438-1.39a2 2 0 0 1 2.828.05zm-14.96-4.484a2 2 0 0 1 2 2v2a2 2 0 1 1-4 0v-2a2 2 0 0 1 2-2z"/></svg>