<svg xmlns="http://www.w3.org/2000/svg" viewBox="0 0 64 64"><path fill="#222" fill-rule="evenodd" d="M53.577 17.494A26 26 0 0 1 58 32c0 14.36-11.64 26-26 26a25.88 25.88 0 0 1-14.508-4.42l2.892-2.893A21.897 21.897 0 0 0 32 54c12.15 0 22-9.85 22-22a21.761 21.761 0 0 0-1.773-8.66L52 22.83l-2 2V30a2 2 0 0 1-1.85 1.995L48 32h-6a2 2 0 0 1-1.802-1.128l3.149-3.149.093.277H46v-2.93l7.577-7.576zm-.991-8.908a2 2 0 0 1 2.828 2.828l-44 44a2 2 0 0 1-2.828-2.828zm-17.63 27.529a4.002 4.002 0 0 1 3.04 3.685L38 40v6a4 4 0 0 1-3.8 3.995L34 50h-3.17a4 4 0 0 1-2.665-1.014L28 48.83 25.17 46h-.1l2.879-2.879.051.049L30.83 46H34v-6h-2.93l3.886-3.885zM32 6a26 26 0 0 1 14.506 4.423l-2.902 2.902A22.067 22.067 0 0 0 38 10.84V16a2 2 0 0 1-.47 1.28l-.12.13L34 20.83V22h.928l-3.253 3.255a3.995 3.995 0 0 1-1.67-3.055L30 22v-1.17a4 4 0 0 1 1.014-2.665L31.17 18 34 15.17v-5.08c-.66-.09-1.33-.09-2-.09a21.84 21.84 0 0 0-9.533 2.178L22 12.41v9.95a4 4 0 0 1-3.02 3.915l-.2.045-8.4 1.68-.1.566A21.53 21.53 0 0 0 10 32c0 4.264 1.213 8.245 3.313 11.616l-2.892 2.892A25.88 25.88 0 0 1 6 32C6 17.64 17.64 6 32 6zM20.718 36.21l-2.508 2.508a4.01 4.01 0 0 1 2.508-2.508zM18 15a22.19 22.19 0 0 0-6.147 8.137l-.193.453L18 22.32V15z"/></svg>