<svg xmlns="http://www.w3.org/2000/svg" data-name="Layer 1" viewBox="0 0 592.48 592.48"><path d="M521.63 0H70.85A71.06 71.06 0 0 0 0 70.85v450.78a71.06 71.06 0 0 0 70.85 70.85h450.78a71.06 71.06 0 0 0 70.85-70.85V70.85A71.06 71.06 0 0 0 521.63 0zM153.52 520.32a58.86 58.86 0 1 1 58.86-58.86 58.86 58.86 0 0 1-58.86 58.86zm0-330.45A58.86 58.86 0 1 1 212.38 131a58.86 58.86 0 0 1-58.86 58.86zM296.24 355.1a58.86 58.86 0 1 1 58.86-58.86 58.86 58.86 0 0 1-58.86 58.86zM439 520.32a58.86 58.86 0 1 1 58.86-58.86A58.86 58.86 0 0 1 439 520.32zm0-330.45A58.86 58.86 0 1 1 497.82 131 58.86 58.86 0 0 1 439 189.87z"/></svg>