<?xml version="1.0" encoding="UTF-8"?>
<svg width="69" height="69" viewBox="0 0 69 69" fill="none" xmlns="http://www.w3.org/2000/svg">
    <path d="M34.1273 68.6562C27.9749 68.6562 22.3695 67.1523 17.1741 64.1445C11.9788 61.1367 7.74055 56.8984 4.73274 51.7031C1.72493 46.5078 0.221024 40.9023 0.221024 34.75C0.221024 28.7344 1.72493 22.9922 4.73274 17.7969C7.74055 12.6016 11.9788 8.5 17.1741 5.49219C22.3695 2.48438 27.9749 0.84375 34.1273 0.84375C40.1429 0.84375 45.8851 2.48438 51.0804 5.49219C56.2757 8.5 60.3773 12.6016 63.3851 17.7969C66.3929 22.9922 68.0335 28.7344 68.0335 34.75C68.0335 40.9023 66.3929 46.5078 63.3851 51.7031C60.3773 56.8984 56.2757 61.1367 51.0804 64.1445C45.8851 67.1523 40.1429 68.6562 34.1273 68.6562ZM4.59602 34.75C4.59602 40.2188 5.82649 45.1406 8.56087 49.6523C11.1585 54.1641 14.7132 57.7188 19.3616 60.3164C23.8734 63.0508 28.7952 64.2812 34.1273 64.2812C39.4593 64.2812 44.3812 63.0508 48.8929 60.3164C53.4046 57.7188 56.9593 54.1641 59.6937 49.5156C62.2913 45.0039 63.6585 40.082 63.6585 34.75C63.6585 29.418 62.2913 24.4961 59.6937 19.9844C56.9593 15.4727 53.4046 11.918 48.8929 9.18359C44.2445 6.58594 39.3226 5.21875 33.9906 5.21875C28.6585 5.21875 23.7366 6.58594 19.2249 9.18359C14.7132 11.918 11.1585 15.4727 8.56087 19.9844C5.82649 24.6328 4.59602 29.5547 4.59602 34.75ZM49.9866 32.2891C51.0804 32.9727 51.6273 33.9297 51.6273 35.1602C51.6273 36.5273 51.0804 37.4844 49.9866 38.0312L25.9241 51.8398C24.8304 52.5234 23.7366 52.5234 22.6429 51.8398C21.5491 51.293 21.0023 50.3359 21.0023 48.9688V20.5312C21.0023 19.3008 21.5491 18.3438 22.6429 17.6602C23.7366 17.1133 24.8304 17.1133 25.9241 17.6602L49.9866 32.2891ZM25.3773 45.6875C25.3773 45.9609 25.514 46.2344 25.7874 46.3711C26.0609 46.6445 26.3343 46.6445 26.6077 46.3711L45.0648 35.8438C45.2015 35.707 45.3382 35.4336 45.3382 35.1602C45.3382 34.8867 45.3382 34.6133 45.0648 34.3398L26.6077 23.2656C26.3343 23.1289 26.0609 23.1289 25.7874 23.2656C25.514 23.4023 25.3773 23.6758 25.3773 23.9492V45.6875Z"
        fill="white" />
</svg>