<svg xmlns="http://www.w3.org/2000/svg" viewBox="0 0 652.25 534.69"><path d="M336.69 9.51L192 152.36a74.73 74.73 0 0 0-6.38 6.51 97.76 97.76 0 0 0-11.72-.51h-77A96.69 96.69 0 0 0 0 255.21v24.29a96.69 96.69 0 0 0 96.91 96.86h77a98.22 98.22 0 0 0 12.43-.63 36.64 36.64 0 0 0 4.73 5.82l144.62 142.67C358.5 546.7 397 530.58 397 498.55V36.17c0-31.37-37.14-47.81-60.31-26.66zm250.09 257.85l57.61-57.61a26.87 26.87 0 1 0-38-38l-57.6 57.61-57.61-57.61a26.87 26.87 0 1 0-38 38l57.63 57.61-57.61 57.61a26.87 26.87 0 0 0 38 38l57.59-57.61 57.61 57.61a26.87 26.87 0 1 0 38-38z"/></svg>