<svg xmlns="http://www.w3.org/2000/svg" viewBox="0 0 17 17"><g fill-rule="evenodd"><path d="M12.27 2.977c.2.202.465.311.75.311h2.21L11.958 0v2.227c0 .284.112.551.311.75z"/><path d="M17 8.206v1.698c0 .415-.16.828-.447 1.158a1.773 1.773 0 0 1-1.066.612l-.257.046v3.51c0 .585-.479 1.063-1.064 1.063h-1.071a3.874 3.874 0 0 1-1.567.646 4.03 4.03 0 0 1-.701.061c-.843 0-1.596-.265-2.155-.71H4.25a1.067 1.067 0 0 1-1.064-1.063V12.69A5.51 5.51 0 0 1 0 7.703a5.507 5.507 0 0 1 3.186-4.985V1.064C3.186.478 3.665 0 4.25 0h6.645v2.227a2.124 2.124 0 0 0 2.122 2.125h2.21v2.276c.06-.008.12-.015.177-.015A1.598 1.598 0 0 1 17 8.206zm-1.593-.532l-.095.008-2.615.463a.532.532 0 0 0-.44.525v3.885a2.595 2.595 0 0 0-1.018-.198c-.167 0-.34.014-.514.046-1.254.22-2.13 1.18-1.96 2.144.145.828 1.02 1.39 2.06 1.39.17 0 .342-.015.516-.047 1.081-.192 1.883-.935 1.97-1.753l.007-.221v-2.939l1.992-.352a.728.728 0 0 0 .434-.255c.122-.14.19-.31.19-.469V8.204a.521.521 0 0 0-.19-.406.517.517 0 0 0-.337-.124zM5.503 3.262a4.442 4.442 0 1 0 0 8.884 4.442 4.442 0 0 0 0-8.884z"/><path d="M8.522 7.359L4.129 4.72c-.285-.163-.515.003-.515.364v5.236c0 .362.23.525.515.365L8.524 8.05c.27-.192.27-.503-.002-.692z"/></g></svg>