<svg xmlns="http://www.w3.org/2000/svg" viewBox="0 0 21 30"><path d="M20.727 1.813v26.334a1.82 1.82 0 0 1-1.814 1.813h-17.1A1.82 1.82 0 0 1 0 28.147V1.813A1.82 1.82 0 0 1 1.813 0h17.1c1 .004 1.81.813 1.814 1.813m-3.087 21.04V3.367a.247.247 0 0 0-.247-.247H3.333a.247.247 0 0 0-.24.247v19.486c0 .137.11.247.247.247H17.4c.136 0 .247-.11.247-.247m-7.334 2.12a1.56 1.56 0 1 0 0 3.12 1.56 1.56 0 0 0 0-3.12"/><path d="M14.573 11.72h-2.86V8.867a1.353 1.353 0 1 0-2.706 0v2.86H6.153a1.353 1.353 0 1 0 0 2.706h2.86v2.86a1.353 1.353 0 1 0 2.707 0v-2.866h2.86a1.353 1.353 0 0 0 0-2.707"/></svg>