<svg xmlns="http://www.w3.org/2000/svg" viewBox="0 0 16 14"><path fill="#726E6E" fill-rule="evenodd" d="M15.641 5.766c0 4.035-2.63 6.75-6.339 7.484l-.698-1.502c1.713-.647 2.816-2.74 2.816-4.304H9.784c-.566 0-1.026-.46-1.026-1.027V1.565c0-.568.46-1.027 1.026-1.027h4.833c.565 0 1.024.459 1.024 1.027v4.2zm-8.603 0c0 4.035-2.631 6.75-6.34 7.484L0 11.748c1.714-.647 2.817-2.74 2.817-4.304H1.18c-.566 0-1.025-.46-1.025-1.027V1.565C.155.997.615.538 1.18.538h4.834c.564 0 1.024.459 1.024 1.027v4.2z"/></svg>