<svg width="27" height="43" viewBox="0 0 27 43" fill="none" xmlns="http://www.w3.org/2000/svg">
<path d="M15.75 34.375C15.75 33.7188 15.4219 33.0625 14.9297 32.5703C14.4375 32.0781 13.7812 31.75 13.125 31.75C12.3867 31.75 11.7305 32.0781 11.2383 32.5703C10.7461 33.0625 10.5 33.7188 10.5 34.375C10.5 35.1133 10.7461 35.7695 11.2383 36.2617C11.7305 36.7539 12.3867 37 13.125 37C13.7812 37 14.4375 36.7539 14.9297 36.2617C15.4219 35.7695 15.75 35.1133 15.75 34.375ZM26.25 4.1875C26.25 3.12109 25.8398 2.21875 25.1016 1.39844C24.2812 0.660156 23.3789 0.25 22.3125 0.25H3.9375C2.78906 0.25 1.88672 0.660156 1.14844 1.39844C0.328125 2.21875 0 3.12109 0 4.1875V38.3125C0 39.4609 0.328125 40.3633 1.14844 41.1016C1.88672 41.9219 2.78906 42.25 3.9375 42.25H22.3125C23.3789 42.25 24.2812 41.9219 25.1016 41.1016C25.8398 40.3633 26.25 39.4609 26.25 38.3125V4.1875ZM23.625 4.1875V38.3125C23.625 38.7227 23.4609 39.0508 23.2148 39.2969C22.9688 39.543 22.6406 39.625 22.3125 39.625H3.9375C3.52734 39.625 3.19922 39.543 2.95312 39.2969C2.70703 39.0508 2.625 38.7227 2.625 38.3125V4.1875C2.625 3.85938 2.70703 3.53125 2.95312 3.28516C3.19922 3.03906 3.52734 2.875 3.9375 2.875H22.3125C22.6406 2.875 22.9688 3.03906 23.2148 3.28516C23.4609 3.53125 23.625 3.85938 23.625 4.1875Z" fill="#990AE3"/>
</svg>
