<svg xmlns="http://www.w3.org/2000/svg" viewBox="0 0 512 512"><path d="M397.751 495H114.249a34.073 34.073 0 0 1-24.95-10.912 34.083 34.083 0 0 1-8.929-25.725l22.738-290.251c1.38-17.568 16.261-31.329 33.879-31.329h238.027c17.623 0 32.504 13.762 33.879 31.331l22.738 290.248a34.087 34.087 0 0 1-8.929 25.727A34.08 34.08 0 0 1 397.751 495zM136.987 165.203c-2.884 0-5.321 2.253-5.546 5.131l-22.738 290.25a5.514 5.514 0 0 0 1.461 4.211c.618.666 1.968 1.786 4.085 1.786h283.502a5.514 5.514 0 0 0 4.085-1.786 5.506 5.506 0 0 0 1.461-4.211l-22.738-290.251c-.225-2.878-2.662-5.129-5.546-5.129H136.987z"/><path d="M329.414 336.337l-97.51-73.828c-6.823-5.166-16.611-.299-16.611 8.258v118.87c0 8.96 10.606 13.694 17.276 7.71l24.543-22.019 27.256 55.768c4.311 8.82 14.955 12.475 23.775 8.164 8.828-4.315 12.481-14.975 8.153-23.797l-27.018-55.08 35.484-5.555c9.031-1.412 11.939-12.974 4.652-18.491zm-134.306-74.718a5.924 5.924 0 0 1-8.091 2.168l-20.492-11.831a5.924 5.924 0 0 1 5.923-10.259l20.492 11.831a5.923 5.923 0 0 1 2.168 8.091zm15.252-16.492a5.922 5.922 0 0 1-7.999-2.484l-11.017-20.942a5.922 5.922 0 1 1 10.483-5.515l11.017 20.942a5.923 5.923 0 0 1-2.484 7.999zM255.999 17c-43.983 0-79.768 35.785-79.768 79.776v82c0 7.303 5.941 13.244 13.244 13.244s13.244-5.941 13.244-13.244v-82c0-29.385 23.903-53.288 53.28-53.288s53.28 23.903 53.28 53.288v83.354c0 7.303 5.941 13.244 13.244 13.244s13.244-5.941 13.244-13.244V96.776c0-43.991-35.785-79.776-79.768-79.776zm-24.976 223.331a5.923 5.923 0 0 1-5.069-6.668l3.195-23.446a5.923 5.923 0 0 1 11.737 1.599l-3.195 23.446a5.921 5.921 0 0 1-6.668 5.069z"/></svg>