<svg xmlns="http://www.w3.org/2000/svg" viewBox="0 0 57.09 41.76"><g data-name="Layer 2"><path d="M56.93 1C55.84-1.87 46 2 42 5.24a10.25 10.25 0 0 0-1.2 1.15V3.71a1.53 1.53 0 0 0-1.8-1.5L15.63 6.33a1.53 1.53 0 0 0-1.26 1.51v2.1a9 9 0 0 0-1-1C9.79 6 1.1 2.66.14 5.22c-.69 1.83 1.34 3.93 3.24 5 0 0-1.67-.17-1.7 1.34 0 1.17.59 2.3 2.69 3.44 0 0-1.22 0-1.28 1s.9 2.1 2.83 2.87c0 0-1.3-.26-.91 1.11.47 1.7 5.13 3.43 8.58 2.22a5.85 5.85 0 0 0 .8-.35V32a7.87 7.87 0 0 0-4.4-.44c-3.6.63-6.13 3.4-5.64 6.17s3.8 4.5 7.41 3.87c3.11-.55 5.41-2.69 5.67-5V14.48l20.31-3.58v17a7.87 7.87 0 0 0-4.4-.44c-3.6.63-6.13 3.4-5.64 6.17s3.8 4.5 7.41 3.87c3.11-.55 5.42-2.69 5.67-5V19.89a6.62 6.62 0 0 0 .91.4c3.91 1.36 9.18-.6 9.72-2.52.43-1.56-1-1.26-1-1.26 2.19-.87 3.28-2 3.2-3.25s-1.45-1.18-1.45-1.18c2.39-1.3 3.08-2.57 3.05-3.9 0-1.71-1.93-1.52-1.93-1.52C55.41 5.48 57.72 3.1 56.93 1z" data-name="Layer 1"/></g></svg>