<svg width="43" height="38" viewBox="0 0 43 38" fill="none" xmlns="http://www.w3.org/2000/svg">
<path d="M21.0764 0.875C24.8498 0.875 28.3771 1.85938 31.5764 3.74609C34.7756 5.63281 37.3186 8.17578 39.2053 11.375C41.092 14.5742 42.0764 18.1016 42.0764 21.875V26.0586C42.0764 26.6328 41.8303 27.043 41.4201 27.207L39.4514 28.3555V28.4375C39.4514 30.0781 39.0412 31.6367 38.2209 33.0312C37.4006 34.5078 36.2521 35.5742 34.8576 36.3945C33.3811 37.2148 31.9045 37.625 30.2639 37.625H28.2951C27.7209 37.625 27.2287 37.4609 26.9006 37.0508C26.4904 36.7227 26.3264 36.2305 26.3264 35.6562V21.2188C26.3264 20.7266 26.4904 20.2344 26.9006 19.8242C27.2287 19.4961 27.7209 19.25 28.2951 19.25H30.2639C32.2326 19.25 34.0373 19.9062 35.6779 21.0547C37.2365 22.2031 38.3029 23.7617 38.9592 25.5664L39.4514 25.3203V21.875C39.4514 18.5938 38.6311 15.4766 36.9904 12.6875C35.3498 9.89844 33.0529 7.60156 30.2639 5.96094C27.4748 4.32031 24.3576 3.5 21.0764 3.5C17.7131 3.5 14.5959 4.32031 11.8068 5.96094C9.01777 7.60156 6.80293 9.89844 5.1623 12.6875C3.52168 15.4766 2.70136 18.5938 2.70136 21.875V25.3203L3.19355 25.5664C3.76777 23.7617 4.83418 22.2031 6.4748 21.0547C8.0334 19.9062 9.83808 19.25 11.8889 19.25H13.8576C14.3498 19.25 14.842 19.4961 15.2521 19.8242C15.5803 20.2344 15.8264 20.7266 15.8264 21.2188V35.6562C15.8264 36.2305 15.5803 36.7227 15.2521 37.0508C14.842 37.4609 14.3498 37.625 13.8576 37.625H11.8889C10.2482 37.625 8.68965 37.2148 7.29511 36.3945C5.81855 35.5742 4.75215 34.5078 3.93183 33.0312C3.11152 31.6367 2.70136 30.0781 2.70136 28.4375V28.3555L0.732615 27.207C0.240427 27.043 0.0763645 26.6328 0.0763645 26.0586V21.875C0.0763645 18.1016 0.978708 14.5742 2.86543 11.375C4.75215 8.17578 7.29511 5.63281 10.4943 3.74609C13.6936 1.85938 17.2209 0.875 21.0764 0.875ZM11.8889 21.875C10.0842 21.875 8.52558 22.5312 7.21308 23.8438C5.90058 25.1562 5.32636 26.6328 5.32636 28.4375C5.32636 30.2422 5.90058 31.8008 7.21308 33.1133C8.52558 34.4258 10.0842 35 11.8889 35H13.2014V21.875H11.8889ZM30.2639 35C32.0686 35 33.5451 34.4258 34.8576 33.1133C36.1701 31.8008 36.8264 30.2422 36.8264 28.4375C36.8264 26.6328 36.1701 25.1562 34.8576 23.8438C33.5451 22.5312 32.0686 21.875 30.2639 21.875H28.9514V35H30.2639Z" fill="#990AE3"/>
</svg>
