<svg xmlns="http://www.w3.org/2000/svg" viewBox="0 0 16 17"><path fill-rule="evenodd" d="M14.365 11.04a3.395 3.395 0 0 0-1.89-.19c-1.546.273-2.629 1.458-2.419 2.648.21 1.187 1.631 1.93 3.178 1.658 1.334-.237 2.324-1.151 2.435-2.165l.009-.272V3.508l-.003-.549V.657a.657.657 0 0 0-.77-.645L4.874 1.781a.656.656 0 0 0-.543.645V12.81a3.395 3.395 0 0 0-1.888-.188c-1.545.27-2.627 1.454-2.417 2.644.21 1.187 1.631 1.93 3.178 1.658 1.334-.237 2.324-1.151 2.432-2.165 0 0 .012-.246.009-.273v-9.21l8.716-1.538.003 7.3z"/></svg>