<svg xmlns="http://www.w3.org/2000/svg" viewBox="0 0 64 64"><path fill="#222" fill-rule="evenodd" d="M25.71 17.47c9.56-8.22 21.14-6.79 25.33-5.89a4 4 0 0 1 3.16 3.69c.2 4.32-.21 15.95-9.8 24.12a17.54 17.54 0 0 1-3 12.07l.03-.03a4 4 0 0 1-6.75-.39l-2.9-5.19c-.58.18-1.09.31-1.67.45a4 4 0 0 1-4-1.3l-8.8-10.27a4 4 0 0 1-.68-4.16c.25-.57.47-1.05.71-1.57l-4.69-3.71a3.35 3.35 0 0 1-.58-.55 4 4 0 0 1 1.27-6.15 17.53 17.53 0 0 1 12.37-1.12zm-3.168 27.554l.176.007a2 2 0 0 1 1.362.699 2 2 0 0 1-.23 2.78l-3 2.59a2 2 0 1 1-2.59-3l3-2.6a2 2 0 0 1 1.458-.47zM18.65 40.46l.176.006a2 2 0 0 1 1.364.694A2 2 0 0 1 20 44l-6.13 5.13a2 2 0 1 1-2.59-3l6.09-5.19a2 2 0 0 1 1.456-.474zm21.92 1.76a33.07 33.07 0 0 1-4.91 2.36l2.56 4.58a13 13 0 0 0 2.35-6.94zm9.75-26.7C45.4 14.47 28.6 12.58 20.4 32.11l8.8 10.32.01.02c20.58-5.01 21.36-21.93 21.11-26.93zM14.752 35.894l.176.007a2 2 0 0 1 1.362.699 2 2 0 0 1-.29 2.81L13 42a2 2 0 0 1-2.53-3.03l3-2.6a2 2 0 0 1 1.458-.47zm19.79-14.872a6 6 0 1 1 7.78 9.137 6 6 0 0 1-7.78-9.137zm5.417 3.28a2 2 0 0 0-3.049 2.588h.02a2 2 0 0 0 2.8.23 2 2 0 0 0 .23-2.819zM22.36 20.91a12.82 12.82 0 0 0-7.16 1.25l4.03 3.19a35.16 35.16 0 0 1 3.13-4.44z"/></svg>