<svg xmlns="http://www.w3.org/2000/svg" viewBox="0 0 64 64"><path fill="#222" fill-rule="evenodd" d="M56.06 16a1.68 1.68 0 0 0-.09-.32 2.88 2.88 0 0 0-2-1.76c-2.23-.61-6 .86-8.59 2.34a3.56 3.56 0 0 0-1-1.31 3.71 3.71 0 0 0-3.15-.72l-18.89 4.31a3.69 3.69 0 0 0-2.88 3.62v.11C17 21 13.81 19.91 11.89 20.43a2.82 2.82 0 0 0-2 1.73c-.04.104-.07.21-.09.32-.46 2.33-.26 7 3.64 8.29a4.37 4.37 0 0 0 1 3.32 6.62 6.62 0 0 0 5 2.17v2.33a8.64 8.64 0 0 0-4-1c-4.41 0-8 3.2-8 7.14 0 3.94 3.59 7.13 8 7.13s8-3.2 8-7.13V22.38l18.26-4.21v15.28a8.76 8.76 0 0 0-4-1c-4.41 0-8 3.2-8 7.13 0 3.93 3.58 7.13 8 7.13s8-3.2 8-7.13v-9h.16a7 7 0 0 0 5.23-2.29 4.5 4.5 0 0 0 1-3.56c4.24-1.34 4.46-6.29 3.97-8.73zM15.47 47.91c-2.21 0-4-1.41-4-3.14 0-1.73 1.79-3.14 4-3.14s4 1.41 4 3.14c0 1.73-1.8 3.14-4 3.14zm4-15.64a2.72 2.72 0 0 1-1.91-.71c-.09-.1-.27-.33.11-1l.06-.11c.1-.154.174-.323.22-.5a2 2 0 0 0-1.42-2.45l-1.61-.43c-1.1-.29-1.28-1.7-1.27-2.71A16.22 16.22 0 0 1 19.46 27l.01 5.27zm18.27 10.5c-2.21 0-4-1.41-4-3.14 0-1.73 1.79-3.14 4-3.14s4 1.41 4 3.14c0 1.73-1.81 3.14-4.01 3.14h.01zM50.77 21l-1.77.44a2 2 0 0 0-1.42 2.45c.046.177.12.346.22.5l.06.1c.47.85.23 1.15.12 1.28a3 3 0 0 1-2.29.81v-5.85a17.49 17.49 0 0 1 6.5-3c.09 1.18-.08 2.89-1.42 3.27z"/></svg>