<svg xmlns="http://www.w3.org/2000/svg" viewBox="0 0 64 64"><path fill="#222" fill-rule="evenodd" d="M33.15 7.36a68.33 68.33 0 0 0 19.42 9.72A2 2 0 0 1 54 19c0 18.88-7.08 32.26-21 39.76a2 2 0 0 1-1 .24 2 2 0 0 1-.95-.24c-14-7.5-21-20.88-21-39.76a2 2 0 0 1 1.43-1.92 68.33 68.33 0 0 0 19.37-9.72 2 2 0 0 1 2.3 0zM32 11.46a72.4 72.4 0 0 1-18 9c.34 16.31 6.24 27.54 18 34.25C43.76 48 49.66 36.77 50 20.46a72.4 72.4 0 0 1-18-9zm7.488 12.877A2 2 0 0 1 40.53 27.8l-9.43 11a2 2 0 0 1-1.44.7h-.02a2 2 0 0 1-1.41-.59l-4.72-4.71a2.001 2.001 0 0 1 2.83-2.83l3.19 3.19 8-9.36a2 2 0 0 1 1.958-.863z"/></svg>