<svg xmlns="http://www.w3.org/2000/svg" viewBox="0 0 64 64"><path d="M2.78 50.55c-1.35 0-2.49-1.04-2.59-2.4-.06-.8-.09-1.6-.09-2.39C.1 28.79 13.9 15 30.85 15c2.89 0 5.75.4 8.5 1.19.98.28 1.96.62 2.92 1 1.33.53 1.98 2.05 1.45 3.38s-2.05 1.98-3.38 1.45a25.453 25.453 0 00-9.48-1.82c-14.09 0-25.55 11.46-25.55 25.55 0 .66.03 1.33.08 2 .11 1.43-.96 2.68-2.39 2.79h-.2zM58.91 50.61h-.21a2.607 2.607 0 01-2.39-2.8c.05-.68.08-1.37.08-2.05 0-4.84-1.36-9.55-3.93-13.62-.77-1.21-.4-2.82.81-3.59s2.82-.4 3.59.81c3.1 4.9 4.73 10.57 4.73 16.4 0 .82-.03 1.65-.1 2.47a2.602 2.602 0 01-2.59 2.39zM30.13 48.83c-.59 0-1.19-.2-1.67-.61a2.612 2.612 0 01-.32-3.67L48 20.95c.93-1.1 2.57-1.24 3.67-.32a2.6 2.6 0 01.32 3.66l-19.86 23.6c-.51.61-1.25.93-1.99.93z"/></svg>