<svg xmlns="http://www.w3.org/2000/svg" viewBox="0 0 64 64"><path d="M61.38 48.92H32.46c-1.45 0-2.62-1.17-2.62-2.62s1.17-2.62 2.62-2.62h28.92c1.45 0 2.62 1.17 2.62 2.62s-1.17 2.62-2.62 2.62z"/><path d="M2.69 50.49c-1.36 0-2.51-1.05-2.61-2.43v-.11C.02 47.23 0 46.52 0 45.82c0-17.06 13.88-30.94 30.94-30.94 13.48 0 25.32 8.61 29.45 21.44a2.61 2.61 0 01-1.69 3.29 2.61 2.61 0 01-3.29-1.69c-3.43-10.65-13.27-17.81-24.47-17.81-14.17 0-25.7 11.53-25.7 25.7 0 .59.02 1.18.06 1.77v.1c.11 1.44-.98 2.69-2.42 2.8h-.19z"/></svg>