<?xml version="1.0" encoding="UTF-8"?>
<svg width="645px" height="645px" viewBox="0 0 645 645" version="1.1" xmlns="http://www.w3.org/2000/svg" xmlns:xlink="http://www.w3.org/1999/xlink">
    <!-- Generator: Sketch 49 (51002) - http://www.bohemiancoding.com/sketch -->
    <title>Halvfigur blunkefjes</title>
    <desc>Created with Sketch.</desc>
    <defs>
        <polygon id="path-1" points="0 0.758353764 644.872732 0.758353764 644.872732 644.006146 0 644.006146"></polygon>
        <polygon id="path-3" points="0.5189 0.9491 149.2389 0.9491 149.2389 167 0.5189 167"></polygon>
    </defs>
    <g id="Kontakt-oss-+-skjema" stroke="none" stroke-width="1" fill="none" fill-rule="evenodd">
        <g id="-" transform="translate(-2299.000000, -644.000000)">
            <g id="Halvfigur-blunkefjes" transform="translate(2299.000000, 643.000000)">
                <g id="Group-3" transform="translate(0.000000, 0.242000)">
                    <mask id="mask-2" fill="white">
                        <use xlink:href="#path-1"></use>
                    </mask>
                    <g id="Clip-2"></g>
                    <path d="M0.7833,375.8868 C-13.6657,249.1228 172.9163,35.2388 462.6633,2.2128 C580.3723,-11.2042 630.9233,70.1698 641.7603,165.2428 C664.4663,364.4438 561.0403,623.8818 393.5313,642.9748 C262.2393,657.9408 15.7483,507.1778 0.7833,375.8868" id="Fill-1" fill="#B864FF" mask="url(#mask-2)"></path>
                </g>
                <path d="M496.0275,242.2694 C501.1685,242.2694 506.1095,243.2084 510.7355,244.9164 C511.9315,245.3574 513.1095,245.8404 514.2605,246.3834 C514.2885,246.3954 514.3165,246.4074 514.3435,246.4194 C515.0475,246.7534 515.7425,247.1024 516.4275,247.4724 C532.0365,255.9064 542.7985,273.7134 542.7985,294.3204 C542.7985,313.9794 533.0025,331.0874 518.5495,339.9434 C517.8465,340.3744 517.1295,340.7814 516.4045,341.1724 C515.9725,341.4064 515.5265,341.6144 515.0865,341.8334 C513.9275,342.4104 512.7525,342.9544 511.5455,343.4274 C506.6905,345.3324 501.4685,346.3724 496.0275,346.3724 C470.1965,346.3724 449.2565,323.0684 449.2565,294.3204 C449.2565,265.5734 470.1965,242.2694 496.0275,242.2694" id="Fill-4" fill="#EAEAEA"></path>
                <path d="M496.0275,346.3719 C470.1965,346.3719 449.2565,323.0679 449.2565,294.3209 C449.2565,265.5739 470.1965,242.2689 496.0275,242.2689 C501.1685,242.2689 506.1095,243.2089 510.7355,244.9159 C511.9315,245.3569 513.1095,245.8409 514.2605,246.3829 C519.5575,261.8119 522.4305,278.2609 522.4305,295.3419 C522.4305,311.5149 519.8565,327.1229 515.0865,341.8339 C513.9275,342.4109 512.7525,342.9549 511.5455,343.4279 C506.6905,345.3319 501.4685,346.3719 496.0275,346.3719" id="Fill-6" fill="#000000" opacity="0.07"></path>
                <path d="M189.0006,242.2694 C183.8596,242.2694 178.9186,243.2084 174.2926,244.9164 C173.0976,245.3574 171.9186,245.8404 170.7676,246.3834 C170.7396,246.3954 170.7116,246.4074 170.6846,246.4194 C169.9806,246.7534 169.2856,247.1024 168.6006,247.4724 C152.9916,255.9064 142.2296,273.7134 142.2296,294.3204 C142.2296,313.9794 152.0256,331.0874 166.4786,339.9434 C167.1816,340.3744 167.8986,340.7814 168.6236,341.1724 C169.0556,341.4064 169.5016,341.6144 169.9416,341.8334 C171.1006,342.4104 172.2756,342.9544 173.4826,343.4274 C178.3386,345.3324 183.5596,346.3724 189.0006,346.3724 C214.8316,346.3724 235.7716,323.0684 235.7716,294.3204 C235.7716,265.5734 214.8316,242.2694 189.0006,242.2694" id="Fill-8" fill="#FFFFFF"></path>
                <path d="M189.0006,346.3719 C214.8316,346.3719 235.7716,323.0679 235.7716,294.3209 C235.7716,265.5739 214.8316,242.2689 189.0006,242.2689 C183.8596,242.2689 178.9186,243.2089 174.2926,244.9159 C173.0976,245.3569 171.9186,245.8409 170.7676,246.3829 C165.4706,261.8119 162.5976,278.2609 162.5976,295.3419 C162.5976,311.5149 165.1716,327.1229 169.9416,341.8339 C171.1006,342.4109 172.2756,342.9549 173.4826,343.4279 C178.3386,345.3319 183.5596,346.3719 189.0006,346.3719" id="Fill-10" fill="#000000" opacity="0.07"></path>
                <polygon id="Fill-12" fill="#EAEAEA" points="340.6281 107.9925 333.0851 107.9925 333.0851 134.3485 333.0851 145.7105 346.6631 145.7105 346.6631 135.9045 346.6631 134.0745 346.6631 107.9925"></polygon>
                <polygon id="Fill-14" fill="#000000" opacity="0.07" points="340.628 141.09 346.663 141.09 346.663 113.179 340.628 113.179"></polygon>
                <path d="M512.6237,295.6615 C512.6237,383.7885 436.4627,455.2305 342.5147,455.2305 C248.5647,455.2305 172.4047,383.7885 172.4047,295.6615 C172.4047,207.5345 248.5647,136.0935 342.5147,136.0935 C436.4627,136.0935 512.6237,207.5345 512.6237,295.6615" id="Fill-16" fill="#FFFFFF"></path>
                <path d="M471.1335,296.3173 C471.1335,354.5553 429.2755,415.4523 339.1195,415.4523 C248.9635,415.4523 207.1055,353.7513 207.1055,295.5123 C207.1055,237.2743 266.2105,204.5513 339.1195,204.5513 C412.0295,204.5513 471.1335,238.0783 471.1335,296.3173" id="Fill-18" fill="#602E8D"></path>
                <path d="M453.9445,307.2294 C453.9445,357.5524 417.7755,410.1714 339.8735,410.1714 C261.9715,410.1714 225.8035,356.8564 225.8035,306.5344 C225.8035,256.2114 276.8745,227.9374 339.8735,227.9374 C402.8735,227.9374 453.9445,256.9074 453.9445,307.2294" id="Fill-20" fill="#6F33A0"></path>
                <path d="M411.4259,310.0682 L375.2169,310.0682 C373.3419,310.0682 371.8219,308.5482 371.8219,306.6732 C371.8219,304.7982 373.3419,303.2792 375.2169,303.2792 L411.4259,303.2792 C413.3009,303.2792 414.8209,304.7982 414.8209,306.6732 C414.8209,308.5482 413.3009,310.0682 411.4259,310.0682" id="Fill-22" fill="#FFD36F"></path>
                <path d="M302.9098,306.7679 C302.9098,317.8089 293.9598,326.7589 282.9188,326.7589 C271.8788,326.7589 262.9288,317.8089 262.9288,306.7679 C262.9288,295.7269 271.8788,286.7769 282.9188,286.7769 C293.9598,286.7769 302.9098,295.7269 302.9098,306.7679" id="Fill-24" fill="#FFD36F"></path>
                <path d="M319.5158,335.0565 C319.5138,335.1825 319.5058,335.3075 319.5058,335.4335 C319.5058,346.4745 328.4558,355.4245 339.4968,355.4245 C350.5368,355.4245 359.4878,346.4745 359.4878,335.4335 C359.4878,335.3075 359.4798,335.1825 359.4778,335.0565 L319.5158,335.0565 Z" id="Fill-26" fill="#FFFFFF"></path>
                <path d="M342.5143,135.9984 C341.8833,135.9984 341.2573,136.0144 340.6283,136.0204 L340.6283,455.1134 C341.2573,455.1194 341.8833,455.1354 342.5143,455.1354 C436.4633,455.1354 512.6233,383.6944 512.6233,295.5664 C512.6233,207.4394 436.4633,135.9984 342.5143,135.9984" id="Fill-28" fill="#000000" opacity="0.07"></path>
                <path d="M340.2511,71.0287 C340.1251,71.0287 340.0001,71.0357 339.8741,71.0377 C327.7581,71.2397 317.9971,81.1187 317.9971,93.2827 C317.9971,105.4457 327.7581,115.3247 339.8741,115.5267 L339.8741,115.5357 L340.2511,115.5357 C352.5421,115.5357 362.5051,105.5727 362.5051,93.2827 C362.5051,80.9917 352.5421,71.0287 340.2511,71.0287" id="Fill-30" fill="#A3FF6F"></path>
                <path d="M362.505,93.2821 C362.505,80.9921 352.874,71.0291 340.993,71.0291 C340.871,71.0291 340.75,71.0361 340.628,71.0381 L340.628,115.5271 C340.75,115.5291 340.871,115.5361 340.993,115.5361 C352.874,115.5361 362.505,105.5731 362.505,93.2821" id="Fill-32" fill="#000000" opacity="0.07"></path>
                <path d="M343.6481,479.2015 C343.2691,479.1995 342.8931,479.1915 342.5141,479.1915 C341.8471,479.1915 341.1831,479.2015 340.5191,479.2095 C340.3041,479.2115 340.0881,479.2125 339.8741,479.2155 C339.7551,479.2165 339.6381,479.2215 339.5191,479.2225 C259.8701,480.3625 195.7901,526.8225 195.7901,583.9795 C195.7901,586.2265 195.9131,588.5345 196.1081,590.8755 C244.3441,616.9485 294.9141,635.5935 339.5191,642.3995 C339.8541,642.4505 340.1851,642.4955 340.5191,642.5455 C359.4981,645.3715 377.3901,646.0565 393.5311,644.2175 C427.3061,640.3675 458.4741,626.7415 486.5301,605.8125 C488.3001,598.2015 489.2381,590.8515 489.2381,583.9795 C489.2381,526.3775 424.1581,479.6375 343.6481,479.2015" id="Fill-34" fill="#FFFFFF"></path>
                <path d="M258.1007,569.2401 C252.1887,561.9901 253.2727,551.3211 260.5217,545.4091 C267.7707,539.4971 278.4407,540.5811 284.3527,547.8301 C290.2647,555.0801 289.1807,565.7491 281.9317,571.6611 C274.6827,577.5731 264.0127,576.4891 258.1007,569.2401" id="Fill-36" fill="#A302E7"></path>
                <g id="Group-40" opacity="0.07" transform="translate(340.000000, 478.242000)">
                    <mask id="mask-4" fill="white">
                        <use xlink:href="#path-3"></use>
                    </mask>
                    <g id="Clip-39"></g>
                    <path d="M53.5309,165.9751 C87.3059,162.1251 118.4739,148.4991 146.5309,127.5701 C148.2999,119.9591 149.2389,112.6091 149.2389,105.7371 C149.2389,48.1351 84.1579,1.3951 3.6479,0.9591 C3.2689,0.9571 2.8929,0.9491 2.5139,0.9491 C1.8469,0.9491 1.1829,0.9591 0.5189,0.9671 L0.5189,164.3031 C19.4979,167.1301 37.3899,167.8151 53.5309,165.9751" id="Fill-38" fill="#000000" mask="url(#mask-4)"></path>
                </g>
            </g>
        </g>
    </g>
</svg>