<svg version="1.1" xmlns="http://www.w3.org/2000/svg" xmlns:xlink="http://www.w3.org/1999/xlink" style="display:none">
<symbol viewBox="0 0 64 64" id="add"><path d="M31.85 8.005L32 8a2 2 0 0 1 1.995 1.85L34 10v20h20a2 2 0 0 1 1.995 1.85L56 32a2 2 0 0 1-1.85 1.995L54 34H34v20a2 2 0 0 1-1.85 1.995L32 56a2 2 0 0 1-1.995-1.85L30 54V34H10a2 2 0 0 1-1.995-1.85L8 32a2 2 0 0 1 1.85-1.995L10 30h20V10a2 2 0 0 1 1.85-1.995L32 8l-.15.005z"/></symbol>
<symbol viewBox="0 0 64 64" id="alarm-off"><path d="M42.419 54.049a2 2 0 0 1-.166 3.491A22.09 22.09 0 0 1 32.033 60a22.09 22.09 0 0 1-10.22-2.51 2 2 0 0 1 1.86-3.49 18.09 18.09 0 0 0 8.36 2 17.85 17.85 0 0 0 8.36-2 2 2 0 0 1 2.026.049zM7.323 8.65l10.63 8.92 3 2.56L48.263 43l7.29 6.13 3.77 3.16a2 2 0 0 1 .24 2.81l-.15.17a2 2 0 0 1-2.67.08L52.693 52l-4.77-4-29-24.36-3.19-2.67-11-9.2a2.027 2.027 0 0 1 2.59-3.12zm7.56 14.26l3.44 2.88a9.46 9.46 0 0 0-.06 1.07c0 8.94-1.28 14.76-4.79 21.14h31.34l4.77 4h-38.39a2.68 2.68 0 0 1-2.35-1.38 2.59 2.59 0 0 1 0-2.62c4-6.54 5.42-12.07 5.42-21.14a13 13 0 0 1 .62-3.95zM35.569 5.127a6 6 0 0 1 2.244 6.623c6.45 2.57 12 8.12 12 15.06-.04 7.53.94 12.62 3.57 17.88l-6.26-5.24a49.26 49.26 0 0 1-1.35-12.64c0-5.75-5.4-10-10.57-11.72a18.16 18.16 0 0 0-1.8-.52 38.7 38.7 0 0 0 .59-4 3.43 3.43 0 0 0 0-.41 1.56 1.56 0 0 0 0-.2 2 2 0 1 0-4 0 1.56 1.56 0 0 0 0 .2 3.43 3.43 0 0 0 0 .41 38.7 38.7 0 0 0 .59 4 18.16 18.16 0 0 0-1.8.52 19.61 19.61 0 0 0-6.44 3.62l-3.01-2.59a22.38 22.38 0 0 1 7-4.37 6 6 0 0 1 9.236-6.623z"/></symbol>
<symbol viewBox="0 0 64 64" id="alarm"><path d="M42.386 54.049a2 2 0 0 1-.166 3.491A22.09 22.09 0 0 1 32 60a22.09 22.09 0 0 1-10.22-2.51A2 2 0 0 1 23.64 54 18.09 18.09 0 0 0 32 56a17.85 17.85 0 0 0 8.36-2 2 2 0 0 1 2.026.049zM28.504 5.177A6 6 0 0 1 37.74 11.8c6.45 2.57 12 8.12 12 15.06 0 9.07 1.42 14.6 5.42 21.14a2.59 2.59 0 0 1 .03 2.62A2.68 2.68 0 0 1 52.84 52H11.16a2.68 2.68 0 0 1-2.32-1.38 2.59 2.59 0 0 1 0-2.62c4-6.54 5.42-12.07 5.42-21.14 0-6.94 5.55-12.49 12-15.06a6 6 0 0 1 2.244-6.623zM32.04 8.01a2 2 0 0 0-2 2 1.56 1.56 0 0 0 0 .2 3.43 3.43 0 0 0 0 .41 38.7 38.7 0 0 0 .59 4 18.16 18.16 0 0 0-1.8.52c-5.17 1.72-10.57 5.97-10.57 11.72 0 8.94-1.28 14.76-4.79 21.14h37.14c-3.51-6.38-4.79-12.2-4.79-21.14 0-5.72-5.4-9.97-10.57-11.72a18.16 18.16 0 0 0-1.8-.52 38.7 38.7 0 0 0 .59-4 3.43 3.43 0 0 0 0-.41 1.56 1.56 0 0 0 0-.2 2 2 0 0 0-2-2z"/></symbol>
<symbol viewBox="0 0 64 64" id="alert"><path d="M53.133 45.803L36.82 13.215c-2.653-4.287-6.99-4.287-9.636 0L10.87 45.803C8.614 50.31 10.896 54 15.938 54h32.128c5.035 0 7.317-3.69 5.067-8.197zM33.33 15.18l16.224 32.41c.922 1.847.575 2.41-1.488 2.41H15.938c-2.068 0-2.415-.56-1.49-2.406l16.226-32.416c1.004-1.57 1.648-1.571 2.656.002zM32 25c1.105 0 2 1.096 2 2.451V38.55C34 39.904 33.105 41 32 41s-2-1.096-2-2.451V27.45c0-1.355.895-2.451 2-2.451zm2 20a1.999 1.999 0 1 1-4 0 1.999 1.999 0 1 1 4 0z"/></symbol>
<symbol viewBox="0 0 64 64" id="arrow-down"><path d="M31.147 44.903L11.554 20.74a2 2 0 0 0-3.107 2.52l21.083 26a2 2 0 0 0 3.054.063l22.916-26a2 2 0 1 0-3-2.645L31.147 44.903z"/></symbol>
<symbol viewBox="0 0 64 64" id="arrow-large-down"><path d="M12.662 32.513a2 2 0 0 1 2.704.026l.12.123L30 48.788 30 10a2 2 0 0 1 1.85-1.995L32 8a2 2 0 0 1 1.995 1.85L34 10v38.789l14.513-16.127a2 2 0 0 1 2.692-.259l.133.11a2 2 0 0 1 .259 2.692l-.11.133-18.008 20.008-.141.14-.075.065-.085.065-.129.087-.206.111-.166.068-.19.058-.192.038-.131.015-.165.007-.162-.007-.166-.02-.105-.02-.167-.045-.15-.054-.154-.07-.144-.08-.164-.114-.133-.111-.168-.172-17.973-19.97a2 2 0 0 1 .15-2.824z"/></symbol>
<symbol viewBox="0 0 64 64" id="arrow-large-left"><path d="M31.487 12.662a2 2 0 0 1-.026 2.704l-.123.12L15.212 30 54 30a2 2 0 0 1 1.995 1.85L56 32a2 2 0 0 1-1.85 1.995L54 34H15.211l16.127 14.513a2 2 0 0 1 .259 2.692l-.11.133a2 2 0 0 1-2.692.259l-.133-.11L8.654 33.479l-.14-.141-.065-.075-.065-.085-.087-.129-.111-.206-.068-.166-.058-.19-.038-.192-.015-.131L8 31.999l.007-.162.02-.166.02-.105.045-.167.054-.15.07-.154.08-.144.114-.164.111-.133.172-.168 19.97-17.973a2 2 0 0 1 2.824.15z"/></symbol>
<symbol viewBox="0 0 64 64" id="arrow-large-right"><path d="M32.513 51.338a2 2 0 0 1 .026-2.704l.123-.12L48.788 34 10 34a2 2 0 0 1-1.995-1.85L8 32a2 2 0 0 1 1.85-1.995L10 30h38.789L32.662 15.487a2 2 0 0 1-.259-2.692l.11-.133a2 2 0 0 1 2.692-.259l.133.11 20.008 18.008.14.141.065.075.065.085.087.129.111.206.068.166.058.19.038.192.015.131.007.165-.007.162-.02.166-.02.105-.045.167-.054.15-.07.154-.08.144-.114.164-.111.133-.172.168-19.97 17.973a2 2 0 0 1-2.824-.15z"/></symbol>
<symbol viewBox="0 0 64 64" id="arrow-large-up"><path d="M51.338 31.487a2 2 0 0 1-2.704-.026l-.12-.123L34 15.212 34 54a2 2 0 0 1-1.85 1.995L32 56a2 2 0 0 1-1.995-1.85L30 54V15.211L15.487 31.338a2 2 0 0 1-2.692.259l-.133-.11a2 2 0 0 1-.259-2.692l.11-.133L30.521 8.654l.141-.14.075-.065.085-.065.129-.087.206-.111.166-.068.19-.058.192-.038.131-.015.165-.007.162.007.166.02.105.02.167.045.15.054.154.07.144.08.164.114.133.111.168.172 17.973 19.97a2 2 0 0 1-.15 2.824z"/></symbol>
<symbol viewBox="0 0 64 64" id="arrow-left"><path d="M19.097 31.147L43.26 11.553a2 2 0 0 0-2.52-3.106l-26 21.083a2 2 0 0 0-.063 3.054l26 22.916a2 2 0 1 0 2.645-3L19.097 31.147z"/></symbol>
<symbol viewBox="0 0 64 64" id="arrow-right"><path d="M44.903 32.853L20.74 52.447a2 2 0 0 0 2.52 3.106l26-21.083a2 2 0 0 0 .062-3.054l-26-22.916a2 2 0 1 0-2.644 3l24.225 21.353z"/></symbol>
<symbol viewBox="0 0 64 64" id="arrow-small-down"><defs><path id="a" d="M33.386 22.714L47.728 43.55c.502.73.289 1.71-.477 2.19-.27.169-.586.259-.91.259H17.658C16.743 46 16 45.292 16 44.419c0-.309.095-.61.272-.868l14.341-20.837c.503-.73 1.531-.934 2.297-.455"/></defs><use transform="rotate(180 32 34)" xlink:href="#a"/></symbol>
<symbol viewBox="0 0 64 64" id="arrow-small-left"><defs><path id="a" d="M31.386 20.714L45.728 41.55c.502.73.289 1.71-.477 2.19-.27.169-.586.259-.91.259H15.658C14.743 44 14 43.292 14 42.419c0-.309.095-.61.272-.868l14.341-20.837c.503-.73 1.531-.934 2.297-.455"/></defs><use transform="rotate(-90 30 32)" xlink:href="#a"/></symbol>
<symbol viewBox="0 0 64 64" id="arrow-small-right"><defs><path id="a" d="M35.386 20.714L49.728 41.55c.502.73.289 1.71-.477 2.19-.27.169-.586.259-.91.259H19.658C18.743 44 18 43.292 18 42.419c0-.309.095-.61.272-.868l14.341-20.837c.503-.73 1.531-.934 2.297-.455"/></defs><use transform="rotate(90 34 32)" xlink:href="#a"/></symbol>
<symbol viewBox="0 0 64 64" id="arrow-small-up"><defs><path id="a" d="M33.386 18.714L47.728 39.55c.502.73.289 1.71-.477 2.19-.27.169-.586.259-.91.259H17.658C16.743 42 16 41.292 16 40.419c0-.309.095-.61.272-.868l14.341-20.837c.503-.73 1.531-.934 2.297-.455"/></defs><use xlink:href="#a"/></symbol>
<symbol viewBox="0 0 64 64" id="arrow-up"><path d="M32.853 19.097L52.447 43.26a2 2 0 0 0 3.106-2.52l-21.083-26a2 2 0 0 0-3.054-.062l-22.916 26a2 2 0 1 0 3 2.644l21.353-24.225z"/></symbol>
<symbol viewBox="0 0 64 64" id="attach"><path d="M53.77 27.82L45.64 36 36 45.55l-5.21 5.25c-5.293 5.146-13.737 5.087-18.957-.133-5.22-5.22-5.279-13.664-.133-18.957l15.56-15.56A2.008 2.008 0 0 1 30.09 19L14.53 34.54A9.521 9.521 0 1 0 28 48l5.31-5.3L51 25a6 6 0 0 0-4.3-10.25 6 6 0 0 0-4.24 1.75l-3.13 3.13v.06L24.78 34.18 23 36a2.5 2.5 0 0 0 0 3.53 2.56 2.56 0 0 0 3.54 0l16.27-16.31a2.001 2.001 0 0 1 2.83 2.83L29.38 42.31a6.5 6.5 0 1 1-9.19-9.19l19.44-19.44a10 10 0 0 1 14.14 14.14z"/></symbol>
<symbol viewBox="0 0 64 64" id="battery"><path d="M48 16a8 8 0 0 1 7.75 6H56c2.24 0 4 2.05 4 4.67v10.66C60 40 58.24 42 56 42h-.25A8 8 0 0 1 48 48H12a8 8 0 0 1-8-8V24a8 8 0 0 1 8-8zm0 4H12a4 4 0 0 0-4 4v16a4 4 0 0 0 4 4h36a4 4 0 0 0 4-4v-2h3.83c.118-.203.176-.435.17-.67V26.67a1.275 1.275 0 0 0-.17-.67H52v-2a4 4 0 0 0-4-4zm-32.374 3.997l.194.003H26a2 2 0 0 1 1.41.59l12 12a2 2 0 0 1 .44 2.18A2 2 0 0 1 38 40H15.82A3.67 3.67 0 0 1 12 36.5v-9a3.67 3.67 0 0 1 3.82-3.5zM25.17 28H16v8h17.17l-8-8z"/></symbol>
<symbol viewBox="0 0 64 64" id="best-in-test"><path d="M48 4a4 4 0 0 1 4 4v4h3.83a4 4 0 0 1 3.95 4.64A16.12 16.12 0 0 1 49.48 29 20.2 20.2 0 0 1 38 39v3c.005.09.005.18 0 .27.005.09.005.18 0 .27a18.88 18.88 0 0 1 11.38 12.34 3.94 3.94 0 0 1-.63 3.51A4 4 0 0 1 45.54 60H18.46a4 4 0 0 1-3.84-5.13A18.92 18.92 0 0 1 26 42.53a1.64 1.64 0 0 1 0-.23V39a20.41 20.41 0 0 1-11.5-10A16.1 16.1 0 0 1 4.22 16.66 4 4 0 0 1 8.17 12H12V8a4 4 0 0 1 4-4zM34 39.89a17.45 17.45 0 0 1-4 0V42c.005.09.005.18 0 .27.005.09.005.18 0 .27a4 4 0 0 1-2.63 3.74A14.87 14.87 0 0 0 18.45 56h27.09a14.83 14.83 0 0 0-8.91-9.71A4 4 0 0 1 34 42.54a2.48 2.48 0 0 1 0-.27 2.48 2.48 0 0 1 0-.27zM48 8H16v11.131c.004.505.02.999.1 1.519.02.18.08.35.08.53.06.46.13.92.23 1.37.03.17.12.33.12.5.109.486.242.967.4 1.44.04.11.11.22.11.33.2.56.43 1.12.68 1.66A15.93 15.93 0 0 0 32 36a15.87 15.87 0 0 0 14.26-9.46 18.28 18.28 0 0 0 1.74-7.8V8zm-14.12 3.55c.75 0 1.12.31 1.12 1v16.31a3.9 3.9 0 0 1-.63 2.14 1.77 1.77 0 0 1-1.38 1c-.5 0-.98-.37-1.5-1.12A2.39 2.39 0 0 1 31 29.7V16.32l-3.4 1.56a1.09 1.09 0 0 1-.46.12c-.48 0-.94-.36-1.38-1a2.27 2.27 0 0 1-.43-1.08c0-.53.45-1.01 1.35-1.43l5.93-2.68a3.24 3.24 0 0 1 1.27-.26zM12 16H8.17a12 12 0 0 0 4.26 7.33v-.17c-.02-.12-.07-.24-.07-.37-.11-.6-.2-1.21-.26-1.83v-.17c-.1-.68-.1-1.36-.1-2.05V16zm43.77 0h-3.83v4.35c-.02.26-.07.52-.07.78l-.06.5-.09.67c-.03.18-.1.35-.1.53l-.09.5A12 12 0 0 0 55.77 16z"/></symbol>
<symbol viewBox="0 0 64 64" id="business-intelligence"><path d="M35 4c12.703 0 23 10.297 23 23a24.08 24.08 0 0 1-8 17.91V56a4 4 0 0 1-4 4H30a4 4 0 0 1-4-4v-2a4 4 0 0 0-4-4h-6a4 4 0 0 1-4-4v-8h-1.54a4 4 0 0 1-3-6.66L12 26.22C12.42 13.823 22.596 3.993 35 4zm0 4c-10.493 0-19 8.507-19 19v.76L10.45 34H16v12h6a8 8 0 0 1 8 8v2h16V44.9a4 4 0 0 1 1.4-3A20.27 20.27 0 0 0 54 27c0-10.493-8.507-19-19-19zm1 5a2 2 0 0 1 2 2v1.2a10.09 10.09 0 0 1 3.51 1.46l1.08-1.07a2 2 0 0 1 2.82 2.82l-1.07 1.08A10.09 10.09 0 0 1 45.8 24H47a2 2 0 1 1 0 4h-1.2a10.09 10.09 0 0 1-1.46 3.51l1.07 1.08a2 2 0 0 1-2.82 2.82l-1.08-1.07A10.09 10.09 0 0 1 38 35.8V37a2 2 0 1 1-4 0v-1.2a10.09 10.09 0 0 1-3.51-1.46l-1.08 1.07a2 2 0 1 1-2.82-2.82l1.07-1.08A10.09 10.09 0 0 1 26.2 28H25a2 2 0 1 1 0-4h1.2a10.09 10.09 0 0 1 1.46-3.51l-1.07-1.08a2 2 0 0 1 2.82-2.82l1.08 1.07A10.09 10.09 0 0 1 34 16.2V15a2 2 0 0 1 2-2zm0 7a6 6 0 1 0 0 12 6 6 0 0 0 0-12z"/></symbol>
<symbol viewBox="0 0 64 64" id="business"><path d="M38 8a6 6 0 0 1 6 6v2h10a6 6 0 0 1 6 6v28a6 6 0 0 1-6 6H10a6 6 0 0 1-6-6V22a6 6 0 0 1 6-6h10v-2a6 6 0 0 1 6-6zm18 33.65a5.8 5.8 0 0 1-2 .35H10a5.8 5.8 0 0 1-2-.35V50a2 2 0 0 0 2 2h44a2 2 0 0 0 2-2zM54 20H10a2 2 0 0 0-2 2v14a2 2 0 0 0 2 2h44a2 2 0 0 0 2-2V22a2 2 0 0 0-2-2zM32 32a2 2 0 1 1 0 4 2 2 0 0 1 0-4zm6-20H26a2 2 0 0 0-2 2v2h16v-2a2 2 0 0 0-2-2z"/></symbol>
<symbol viewBox="0 0 64 64" id="calendar"><path d="M24 4a4 4 0 0 1 4 4v4h8V8a4 4 0 0 1 4-4h4a4 4 0 0 1 4 4v4h4a4 4 0 0 1 4 4v32a8 8 0 0 1-8 8H16a8 8 0 0 1-8-8V16a4 4 0 0 1 4-4h4V8a4 4 0 0 1 4-4zm-8 12h-4v32a4 4 0 0 0 4 4h32a4 4 0 0 0 4-4V16h-4a4 4 0 0 1-4 4h-4a4 4 0 0 1-4-4h-8a4 4 0 0 1-4 4h-4a4 4 0 0 1-4-4zm26.88 9.76c.75 0 1.12.34 1.12 1.03v16.32a4 4 0 0 1-.63 2.13 1.75 1.75 0 0 1-1.38 1c-.5 0-.98-.37-1.5-1.12a2.39 2.39 0 0 1-.49-1.18V30.56l-3.4 1.51a1.09 1.09 0 0 1-.46.12c-.48 0-.94-.31-1.38-1a2.25 2.25 0 0 1-.43-1.06c0-.54.45-1.02 1.35-1.44l5.93-2.68a3.232 3.232 0 0 1 1.27-.25zm-17.49-.36a7 7 0 0 1 3.21.74 5.84 5.84 0 0 1 2.23 1.95 4.65 4.65 0 0 1 .8 2.63 4.56 4.56 0 0 1-.63 2.34 5.5 5.5 0 0 1-1.89 1.87 5.93 5.93 0 0 1 2.45 2.03 4.82 4.82 0 0 1 .9 2.81 5.46 5.46 0 0 1-1.09 3.29 7.37 7.37 0 0 1-2.79 2.33 8.66 8.66 0 0 1-7.66-.15 6.22 6.22 0 0 1-2.68-2.56 2.2 2.2 0 0 1-.23-.77c0-.4.28-.78.83-1.14a3.17 3.17 0 0 1 1.76-.54 1 1 0 0 1 .89.4 5.11 5.11 0 0 0 1.63 1.49 4 4 0 0 0 2 .47 3.66 3.66 0 0 0 3-1.33 1.93 1.93 0 0 0 .39-.89 2.47 2.47 0 0 0-.94-2.62 4.38 4.38 0 0 0-2.67-.74h-1.31c-.38 0-.77-.28-1.17-.85a1.83 1.83 0 0 1-.37-.92c0-.37.24-.69.72-1a2.73 2.73 0 0 1 1.48-.45 4.32 4.32 0 0 0 2.61-.7 2.21 2.21 0 0 0 .95-1.87 2 2 0 0 0-.81-1.58 3.23 3.23 0 0 0-2-.64 5.45 5.45 0 0 0-3.85 2.05 1.18 1.18 0 0 1-.77.4 1.73 1.73 0 0 1-1.37-1 1.93 1.93 0 0 1-.4-1 1.09 1.09 0 0 1 .17-.54 7.5 7.5 0 0 1 2.82-2.51 8.06 8.06 0 0 1 3.79-1zM44 8h-4v8h4V8zM24 8h-4v8h4V8z"/></symbol>
<symbol viewBox="0 0 64 64" id="camera"><path d="M37.53 6C39.94 6 42 7.79 43 10.68L45.44 18H50a8 8 0 0 1 8 8v24a8 8 0 0 1-8 8H14a8 8 0 0 1-8-8V26a8 8 0 0 1 8-8h4.56L21 10.68C22 7.79 24.06 6 26.47 6zM50 22H14a4 4 0 0 0-4 4v24a4 4 0 0 0 4 4h36a4 4 0 0 0 4-4V26a4 4 0 0 0-4-4zm-18 4c6.627 0 12 5.373 12 12s-5.373 12-12 12-12-5.373-12-12 5.373-12 12-12zm0 4a8 8 0 1 0 0 16 8 8 0 0 0 0-16zm5.53-20H26.47c-.47 0-1.25.67-1.68 1.94L22.77 18h18.44l-2-6.06c-.43-1.27-1.17-1.94-1.68-1.94z"/></symbol>
<symbol viewBox="0 0 64 64" id="card-view"><path d="M52 34a4 4 0 0 1 4 4v14a4 4 0 0 1-4 4H12a4 4 0 0 1-4-4V38a4 4 0 0 1 4-4h40zm-30 4H12v14h10V38zm30 0H26v14h26V38zm0-30a4 4 0 0 1 4 4v14a4 4 0 0 1-4 4H12a4 4 0 0 1-4-4V12a4 4 0 0 1 4-4h40zm-30 4H12v14h10V12zm30 0H26v14h26V12z"/></symbol>
<symbol viewBox="0 0 64 64" id="chat"><path d="M52 10H24a8 8 0 0 0-8 8v8h-4a8 8 0 0 0-8 8v12a8 8 0 0 0 8 8h7.17l5.71 5.71a3 3 0 0 0 2.12.88 3 3 0 0 0 3-3V54h10a8 8 0 0 0 8-8v-8h4a8 8 0 0 0 8-8V18a8 8 0 0 0-8-8zm-8 36a4 4 0 0 1-4 4H26v5.17L20.83 50H12a4 4 0 0 1-4-4V34a4 4 0 0 1 4-4h4a8 8 0 0 0 8 8h6v3.59a3 3 0 0 0 5.12 2.12L40.83 38H44v8zm12-16a4 4 0 0 1-4 4H39.17L34 39.17V34H24a4 4 0 0 1-4-4V18a4 4 0 0 1 4-4h28a4 4 0 0 1 4 4v12z"/></symbol>
<symbol viewBox="0 0 64 64" id="check-mark"><path d="M11.365 34.538a2 2 0 1 0-2.73 2.924l15 14a2 2 0 0 0 2.847-.119l29-32a2 2 0 1 0-2.964-2.686L24.881 47.153 11.365 34.538z"/></symbol>
<symbol viewBox="0 0 64 64" id="child-boy"><path d="M13.87 12.13c5.94-6.68 17.83-9.02 26.68-5.3a13.16 13.16 0 0 1 10.54 5.76c2.47 3.76 2.8 8.76.91 13.76v1.43l.33.09v.02a7.82 7.82 0 0 1 0 15l-.76.21a20 20 0 0 1-39.14 0l-.81-.23a7.82 7.82 0 0 1 0-15l.44-.12c-2.8-5.51-2.19-11.14 1.81-15.62zM40 21.78a40.17 40.17 0 0 1-24 9V39c0 8.837 7.163 16 16 16s16-7.163 16-16V27.66c-3.3-.88-5.92-3.35-8-5.88zm-2.965 22.76a2 2 0 0 1 1.785 2.97v.06a7.8 7.8 0 0 1-6.537 4.01l-.283.005a7.8 7.8 0 0 1-6.82-4.015 2.011 2.011 0 0 1 3.49-2 3.8 3.8 0 0 0 6.65 0 2 2 0 0 1 1.715-1.03zM12 32a3.81 3.81 0 0 0 0 6.75zm40 0v6.7a3.82 3.82 0 0 0 0-6.7zm-22.27 3.33c.17.386.21.797.136 1.183a1.997 1.997 0 0 1-3.796.457 2.06 2.06 0 0 0-1.85-.8 2.1 2.1 0 0 0-1.86.8 2 2 0 0 1-3.872-.714 2 2 0 0 1 .212-.926 5.92 5.92 0 0 1 5.52-3.2 5.84 5.84 0 0 1 5.51 3.2zm16 0c.17.386.21.797.136 1.183a1.997 1.997 0 0 1-3.796.457 2.06 2.06 0 0 0-1.85-.8 2.1 2.1 0 0 0-1.838.772l.008-.012a2.01 2.01 0 0 1-.186.302A2.002 2.002 0 0 1 34.7 35.37c.19-.368.415-.71.67-1.024a5.915 5.915 0 0 1 4.85-2.216 5.84 5.84 0 0 1 5.51 3.2zm-6.838-24.909C31.547 7.38 21.722 9.267 16.86 14.74c-2.15 2.44-4.03 6.49-.78 12a35.77 35.77 0 0 0 22.91-9.34 2 2 0 0 1 2.94.3c2.47 3.35 4.65 5.29 6.74 6a10.69 10.69 0 0 0-.98-8.96 9.15 9.15 0 0 0-7.64-4h-.06a1.6 1.6 0 0 1-.39-.05l-.36-.12z"/></symbol>
<symbol viewBox="0 0 64 64" id="child-girl"><path d="M21.57 7.82a23.25 23.25 0 0 1 24-.61A24.2 24.2 0 0 1 58 29.08v1.49a7.72 7.72 0 0 1 0 7.53v5c0 9.498 1.71 12.14 1.979 12.511l.021.029-.06-.04a2 2 0 0 1-.66 3.4c-.26.09-2.7.87-8.09.87a33.18 33.18 0 0 1-12.63-2.7l-.47.13a20 20 0 0 1-11-.23l-.581.249A33.27 33.27 0 0 1 14.24 59.87c-5.4 0-7.84-.78-8.1-.87a2 2 0 0 1-1.29-1.55 2 2 0 0 1 .67-1.79c.22-.24 2-2.74 2-12.54v-5.89a7.63 7.63 0 0 1 0-5.69c-.02-.8-.08-1.61-.08-2.43-.07-1.86-.16-11.43 5.26-17.2a12.82 12.82 0 0 1 8.87-4.09zM54 41.66a5.3 5.3 0 0 1-.67.23l-.76.21a20 20 0 0 1-8.75 12.73 26.09 26.09 0 0 0 7.39 1.1v-.02a38.91 38.91 0 0 0 4.33-.22C54.72 53.4 54 49.56 54 43.1zm-42.56-.21v1.65c0 6.46-.71 10.3-1.54 12.59a39 39 0 0 0 4.34.22A26.55 26.55 0 0 0 22 54.7a20 20 0 0 1-8.58-12.58l-.81-.23a7.19 7.19 0 0 1-1.17-.44zM25 20.8c-2.11 2.53-4.73 5-8 5.88V38c.002 8.312 6.368 15.239 14.65 15.94.44.04.89.06 1.35.06h.8c8.523-.427 15.21-7.467 15.2-16v-8.2a40.17 40.17 0 0 1-24-9zm13.035 22.74a2 2 0 0 1 1.785 2.97v.06a7.8 7.8 0 0 1-6.537 4.01l-.283.005a7.8 7.8 0 0 1-6.82-4.015 2.011 2.011 0 0 1 3.49-2 3.8 3.8 0 0 0 6.65 0 2 2 0 0 1 1.715-1.03zM52.78 30.92v6.91l.22-.1a3.71 3.71 0 0 0 1-.8 3.77 3.77 0 0 0 1-2.55 3.81 3.81 0 0 0-1-2.58 3.71 3.71 0 0 0-1-.8 1.51 1.51 0 0 0-.22-.08zm-39.61-.01A.56.56 0 0 0 13 31a3.67 3.67 0 0 0-1.47 1.41 3.73 3.73 0 0 0-.56 1.94 3.82 3.82 0 0 0 .55 2 3.7 3.7 0 0 0 1.48 1.4l.17.07zm12.297.253l.245.003a5.84 5.84 0 0 1 5.018 3.204 2 2 0 0 1-1.665 2.792l-.165.008a2 2 0 0 1-1.83-1.2 2.06 2.06 0 0 0-1.85-.8l-.165-.01-.164.004a2.1 2.1 0 0 0-1.531.806 2 2 0 0 1-1.615 1.28l-.169.015h-.168A2 2 0 0 1 19.7 34.37a5.92 5.92 0 0 1 5.273-3.206l.247.006.247-.007zm16 0l.245.003a5.84 5.84 0 0 1 5.018 3.204 2 2 0 0 1-1.665 2.792l-.165.008a2 2 0 0 1-1.83-1.2 2.06 2.06 0 0 0-1.85-.8l-.165-.01-.164.004a2.1 2.1 0 0 0-1.531.806 2 2 0 0 1-1.69 1.101l-.15.002a2 2 0 0 1-1.82-2.703 5.92 5.92 0 0 1 5.273-3.206l.247.006.247-.007zM43.62 10.79a19.34 19.34 0 0 0-20.24.69l-.11.07a2.32 2.32 0 0 1-.53.25h-.55a8.91 8.91 0 0 0-6.57 2.84c-3.09 3.36-4.07 8.94-4.19 12.68a8.1 8.1 0 0 1 1.19-.45l.38-.11V25a2 2 0 0 1 1.85-2c2.55-.17 5.16-2.17 8.21-6.27a2 2 0 0 1 2.94-.3 35.83 35.83 0 0 0 24.64 9.38H51a2 2 0 0 1 1.46.58c.085.084.159.178.22.28l.69.2c.214.058.424.128.63.21a20.18 20.18 0 0 0-10.38-16.29z"/></symbol>
<symbol viewBox="0 0 64 64" id="close"><path d="M12.469 12.713l.117-.127a2 2 0 0 1 2.701-.117l.127.117L32 29.17l16.586-16.585a2 2 0 0 1 2.701-.117l.127.117a2 2 0 0 1 .117 2.701l-.117.127L34.83 32l16.585 16.586a2 2 0 0 1 .117 2.701l-.117.127a2 2 0 0 1-2.701.117l-.127-.117L32 34.83 15.414 51.414a2 2 0 0 1-2.701.117l-.127-.117a2 2 0 0 1-.117-2.701l.117-.127L29.17 32 12.586 15.414a2 2 0 0 1-.117-2.701l.117-.127-.117.127z"/></symbol>
<symbol viewBox="0 0 64 64" id="cloud"><path d="M50 50H16a12 12 0 0 1-1.88-23.85 14 14 0 0 1 26.58-4.06c.43-.06.865-.09 1.3-.09a10 10 0 0 1 9.83 8.17A10 10 0 0 1 50 50zM16 30a8 8 0 1 0 0 16h34a6 6 0 1 0 0-12h-2v-2a6 6 0 0 0-7.91-5.68l-1.93.68-.61-2A10 10 0 0 0 18 28v2h-2z"/></symbol>
<symbol viewBox="0 0 64 64" id="company"><path d="M42 6a8 8 0 0 1 8 8v44H36v-6a2 2 0 0 0-2-2h-4a2 2 0 0 0-2 2v6H14V14a8 8 0 0 1 8-8zm0 4H22a4 4 0 0 0-4 4v40h6v-2a6 6 0 0 1 5.775-5.996L30 46h4a6 6 0 0 1 6 6v2h6V14a4 4 0 0 0-4-4zM26 38v4h-4v-4h4zm8 0v4h-4v-4h4zm8 0v4h-4v-4h4zm-16-8v4h-4v-4h4zm8 0v4h-4v-4h4zm8 0v4h-4v-4h4zm-16-8v4h-4v-4h4zm8 0v4h-4v-4h4zm8 0v4h-4v-4h4zm-16-8v4h-4v-4h4zm8 0v4h-4v-4h4zm8 0v4h-4v-4h4z"/></symbol>
<symbol viewBox="0 0 64 64" id="contact"><path d="M54 12a6 6 0 0 1 6 6v28a6 6 0 0 1-6 6H10a6 6 0 0 1-6-6V18a6 6 0 0 1 6-6h44zm0 4H10a2 2 0 0 0-1.995 1.85L8 18v28a2 2 0 0 0 1.85 1.995L10 48h44a2 2 0 0 0 1.995-1.85L56 46V18a2 2 0 0 0-2-2zm-29.5 4c3.945 0 7.143 3.168 7.143 7.077a6.932 6.932 0 0 1-1.067 3.698c3.74.758 6.425 4.02 6.424 7.802v.885C37 41.416 35.401 43 33.429 43H15.57C13.6 43 12 41.416 12 39.462v-.885c-.001-3.783 2.684-7.044 6.424-7.802a6.932 6.932 0 0 1-1.067-3.698c0-3.909 3.198-7.077 7.143-7.077zm3.712 13c-2.128 1.581-5.31 1.581-7.438 0-2.666.084-4.776 1.94-4.774 4.2v.6c0 .663.634 1.2 1.417 1.2h14.166c.783 0 1.417-.537 1.417-1.2v-.6c.002-2.265-2.117-4.122-4.788-4.2zM50 28a2 2 0 1 1 0 4H39a2 2 0 1 1 0-4h11zm-25.5-4a3.5 3.5 0 1 0 0 7 3.5 3.5 0 0 0 0-7zM50 21a2 2 0 1 1 0 4H39a2 2 0 1 1 0-4h11z"/></symbol>
<symbol viewBox="0 0 64 64" id="delivery"><path d="M59.54 31.72l-10-12A2 2 0 0 0 48 19h-4v-2a6 6 0 0 0-6-6H10a6 6 0 0 0-6 6v24a6 6 0 0 0 6 6h.08a7 7 0 0 0 13.84 0h12.16a7 7 0 0 0 13.84 0H58a2 2 0 0 0 2-2V33a2 2 0 0 0-.46-1.28zM19.82 47a3 3 0 0 1-5.64 0 2.771 2.771 0 0 1-.18-1 3 3 0 0 1 6 0c.002.342-.059.68-.18 1zm16.86-4H23.32a7 7 0 0 0-12.64 0H10a2 2 0 0 1-2-2V17a2 2 0 0 1 2-2h28a2 2 0 0 1 2 2v22.68A7 7 0 0 0 36.68 43zm9.14 4A3 3 0 0 1 40 46a3.19 3.19 0 0 1 0-.54 3 3 0 0 1 2-2.27 2.77 2.77 0 0 1 1.63-.12A3 3 0 0 1 45.82 45a2.87 2.87 0 0 1 0 2zM56 43h-6.68A7 7 0 0 0 44 39.08V23h3.06L56 33.72V43z"/></symbol>
<symbol viewBox="0 0 64 64" id="devices"><path d="M50 4a8 8 0 0 1 8 8v34a8 8 0 0 1-8 8H31.74A8 8 0 0 1 24 60H14a8 8 0 0 1-8-8V24a8 8 0 0 1 8-8h8v-4a8 8 0 0 1 8-8zM28 48H10v4a4 4 0 0 0 4 4h10a4 4 0 0 0 4-4v-4zm-8.99 2.01a2 2 0 1 1 0 4 2 2 0 0 1 0-4zM54 42H32v8h18a4 4 0 0 0 4-4v-4zm-13.99 2a2 2 0 1 1 0 4 2 2 0 0 1 0-4zM24 20H14a4 4 0 0 0-4 4v20h18V24a4 4 0 0 0-4-4zM50 8H30a4 4 0 0 0-4 4v4.27A8 8 0 0 1 32 24v14h22V12a4 4 0 0 0-4-4z"/></symbol>
<symbol viewBox="0 0 64 64" id="document-doc"><path d="M50 4H18a8 8 0 0 0-8 8v44a4 4 0 0 0 4 4h32a8 8 0 0 0 8-8V8a4 4 0 0 0-4-4zm0 48a4 4 0 0 1-4 4H14V12a4 4 0 0 1 4-4h32v44zM32.366 40.42c1.596 0 3.012.912 3.744 2.244.372.66.552 1.38.552 2.136 0 1.632-.9 3.06-2.196 3.816a4.207 4.207 0 0 1-2.1.564c-1.596 0-3.012-.912-3.744-2.244a4.295 4.295 0 0 1-.552-2.136c0-1.632.9-3.06 2.208-3.816a4.13 4.13 0 0 1 2.088-.564zm9.456 0c.828 0 1.584.204 2.244.624.12.072.18.192.18.36 0 .588-.384 1.2-.756 1.2a.594.594 0 0 1-.288-.084c-.492-.252-.96-.372-1.416-.372-1.008 0-1.836.516-2.256 1.32a2.816 2.816 0 0 0-.324 1.344c0 1.02.492 1.872 1.248 2.304.372.228.792.336 1.248.336.453 0 .896-.088 1.339-.257l.221-.091c.276-.12.492-.18.66-.18.288 0 .432.144.432.42 0 .42-.192.864-.468 1.104-.516.432-1.452.732-2.304.732-1.572 0-2.904-.876-3.6-2.184a4.41 4.41 0 0 1-.528-2.112c0-1.668.9-3.12 2.232-3.888a4.197 4.197 0 0 1 2.136-.576zm-18.624.18c1.584 0 2.892.804 3.576 2.04.336.612.504 1.296.504 2.028 0 1.764-.756 3.108-2.016 3.804-.636.348-1.356.528-2.184.528H20.99c-.42 0-.828-.732-.828-.96v-6.66c0-.384.612-.78 1.2-.78zm9.168 1.524c-.96 0-1.8.552-2.232 1.368-.228.408-.336.84-.336 1.308 0 1.008.54 1.872 1.32 2.328.384.228.804.348 1.248.348.96 0 1.8-.552 2.244-1.368.216-.408.324-.84.324-1.308 0-1.008-.54-1.884-1.308-2.34a2.48 2.48 0 0 0-1.26-.336zm-9.084.108H21.83v5.136h1.344c1.5 0 2.388-.984 2.388-2.652 0-1.488-.924-2.484-2.28-2.484zM42 26a2 2 0 1 1 0 4H30a2 2 0 1 1 0-4zm-20 0a2 2 0 1 1 0 4 2 2 0 0 1 0-4zm20-8a2 2 0 1 1 0 4H30a2 2 0 1 1 0-4zm-20 0a2 2 0 1 1 0 4 2 2 0 0 1 0-4z"/></symbol>
<symbol viewBox="0 0 64 64" id="document-edit"><path d="M50 4a4 4 0 0 1 4 4v22.15a2 2 0 1 1-4 0V8H17.87a4 4 0 0 0-4 4v44h15.56a2 2 0 1 1 0 4H13.87a4 4 0 0 1-4-4V12a8 8 0 0 1 8-8H50zm-.03 30.89c1.61-1.61 4.33-.97 6.94 1.64 2.6 2.6 3.24 5.32 1.63 6.93L44.21 57.84c-.39.38-1.3 1.28-8.39 2h-.2a2 2 0 0 1-2-2.2c.7-7.1 1.61-8.01 2-8.39zM38.24 53.53c-.12.58-.23 1.28-.33 2l-.02.01c.73-.1 1.42-.21 2.03-.32a22.31 22.31 0 0 0-1.68-1.69zm14.17-15.4l-12 12a20.52 20.52 0 0 1 2.91 2.91L55.34 41a7.7 7.7 0 0 0-2.93-2.87zM21.97 26.06a2.05 2.05 0 1 1 0 4.1 2.05 2.05 0 0 1 0-4.1zm20.03.09a2 2 0 1 1 0 4H30a2 2 0 1 1 0-4h12zm-20.03-8.09a2.05 2.05 0 1 1 0 4.1 2.05 2.05 0 0 1 0-4.1zm20.03.09a2 2 0 1 1 0 4H30a2 2 0 1 1 0-4h12z"/></symbol>
<symbol viewBox="0 0 64 64" id="document-pdf"><path d="M50 4a4 4 0 0 1 4 4v44a8 8 0 0 1-8 8H14a4 4 0 0 1-4-4V12a8 8 0 0 1 8-8zm0 4H18a4 4 0 0 0-4 4v44h32a4 4 0 0 0 4-4V8zM25.094 40.6c1.104 0 1.992.528 2.448 1.356.228.42.336.888.336 1.404 0 .768-.372 1.488-.924 1.98s-1.236.768-1.92.768h-1.44v1.656c0 .66-.42 1.308-.84 1.308s-.828-.756-.828-.96V41.38c0-.384.612-.78 1.2-.78zm17.208 0c.3 0 .444.144.444.42 0 .432-.192.864-.432 1.092-.132.108-.252.168-.372.168h-3.048v1.752h2.652c.276 0 .42.132.42.396 0 .588-.372 1.164-.756 1.164h-2.316v2.172c0 .66-.42 1.308-.84 1.308s-.828-.732-.828-.96V41.38c0-.384.612-.78 1.2-.78h3.876zm-10.368 0c1.584 0 2.892.804 3.576 2.04.336.612.504 1.296.504 2.028 0 1.764-.756 3.108-2.016 3.804-.636.348-1.356.528-2.184.528h-2.088c-.42 0-.828-.732-.828-.96v-6.66c0-.384.612-.78 1.2-.78zm.084 1.632h-1.452v5.136h1.344c1.5 0 2.388-.984 2.388-2.652 0-1.488-.924-2.484-2.28-2.484zm-6.972-.072h-1.452v2.388h1.452c.684 0 1.212-.516 1.212-1.188 0-.708-.504-1.2-1.212-1.2zM41 26c1.657 0 3 .895 3 2s-1.343 2-3 2H23c-1.657 0-3-.895-3-2s1.343-2 3-2zm0-8c1.657 0 3 .895 3 2s-1.343 2-3 2H23c-1.657 0-3-.895-3-2s1.343-2 3-2z"/></symbol>
<symbol viewBox="0 0 64 64" id="document-ppt"><path d="M50 4H18a8 8 0 0 0-8 8v44a4 4 0 0 0 4 4h32a8 8 0 0 0 8-8V8a4 4 0 0 0-4-4zm0 48a4 4 0 0 1-4 4H14V12a4 4 0 0 1 4-4h32v44zM25.58 40.6c1.104 0 1.992.528 2.448 1.356.228.42.336.888.336 1.404 0 .768-.372 1.488-.924 1.98s-1.236.768-1.92.768h-1.44v1.656c0 .66-.42 1.308-.84 1.308s-.828-.756-.828-.96V41.38c0-.384.612-.78 1.2-.78zm6.972 0c1.104 0 1.992.528 2.448 1.356.228.42.336.888.336 1.404 0 .768-.372 1.488-.924 1.98s-1.236.768-1.92.768h-1.44v1.656c0 .66-.42 1.308-.84 1.308s-.828-.756-.828-.96V41.38c0-.384.612-.78 1.2-.78zm9.24 0c.312 0 .468.144.468.432 0 .66-.42 1.308-.84 1.308h-1.596v5.424c0 .66-.42 1.308-.84 1.308s-.828-.732-.828-.96V42.34h-1.644c-.42 0-.828-.732-.828-.96 0-.384.612-.78 1.2-.78h4.908zm-16.26 1.56H24.08v2.388h1.452c.684 0 1.212-.516 1.212-1.188 0-.708-.504-1.2-1.212-1.2zm6.972 0h-1.452v2.388h1.452c.684 0 1.212-.516 1.212-1.188 0-.708-.504-1.2-1.212-1.2zM42 26a2 2 0 1 1 0 4H30a2 2 0 1 1 0-4zm-20 0a2 2 0 1 1 0 4 2 2 0 0 1 0-4zm19-8c1.657 0 3 .895 3 2s-1.343 2-3 2H23c-1.657 0-3-.895-3-2s1.343-2 3-2z"/></symbol>
<symbol viewBox="0 0 64 64" id="document-xls"><path d="M50 4H18a8 8 0 0 0-8 8v44a4 4 0 0 0 4 4h32a8 8 0 0 0 8-8V8a4 4 0 0 0-4-4zm0 48a4 4 0 0 1-4 4H14V12a4 4 0 0 1 4-4h32v44zM38.96 40.42c.804 0 1.608.252 2.232.684.12.084.18.192.18.348 0 .576-.36 1.14-.732 1.14a.49.49 0 0 1-.214-.06l-.086-.048c-.528-.312-1.008-.468-1.44-.468-.684 0-1.176.3-1.176.732 0 .295.119.47.52.68l.128.064c.22.116.57.259 1.047.445l.213.083c1.536.576 2.22 1.38 2.22 2.628 0 .972-.588 1.788-1.488 2.208a3.419 3.419 0 0 1-1.488.324c-.816 0-1.668-.312-2.292-.768-.312-.228-.552-.48-.708-.756-.096-.156-.144-.288-.144-.384 0-.348.552-.708 1.092-.708a.46.46 0 0 1 .348.132c.54.612 1.044.852 1.704.852.78 0 1.296-.348 1.296-.888 0-.276-.12-.516-.36-.708-.24-.192-.672-.408-1.308-.636-1.776-.66-2.46-1.344-2.46-2.532 0-.9.6-1.668 1.476-2.064.444-.204.924-.3 1.44-.3zm-10.56.108c.348 0 .516.156.516.468 0 .408-.144.804-.42 1.176l-1.788 2.4 2.232 2.892a.518.518 0 0 1 .108.312c0 .66-.408 1.296-.828 1.296-.18 0-.348-.096-.504-.3l-2.172-2.94-1.932 2.784c-.216.3-.432.456-.648.456-.432 0-.912-.792-.912-1.068 0-.108.036-.204.108-.3l2.388-3.18-2.052-2.676c-.168-.228-.252-.42-.252-.564 0-.372.6-.756 1.188-.756.18 0 .324.06.42.192l1.848 2.532 1.464-2.148c.228-.324.756-.576 1.236-.576zm2.94 0c.312 0 .468.144.468.432v6.36h3.12c.3 0 .444.144.444.42 0 .432-.192.864-.432 1.092-.132.108-.252.168-.372.168h-3.6c-.42 0-.828-.732-.828-.96v-6.732c0-.384.612-.78 1.2-.78zM25 26a1 1 0 0 1 1 1v2a1 1 0 0 1-1 1h-2a1 1 0 0 1-1-1v-2a1 1 0 0 1 1-1zm8 0a1 1 0 0 1 1 1v2a1 1 0 0 1-1 1h-2a1 1 0 0 1-1-1v-2a1 1 0 0 1 1-1zm8 0a1 1 0 0 1 1 1v2a1 1 0 0 1-1 1h-2a1 1 0 0 1-1-1v-2a1 1 0 0 1 1-1zm-16-8a1 1 0 0 1 1 1v2a1 1 0 0 1-1 1h-2a1 1 0 0 1-1-1v-2a1 1 0 0 1 1-1zm8 0a1 1 0 0 1 1 1v2a1 1 0 0 1-1 1h-2a1 1 0 0 1-1-1v-2a1 1 0 0 1 1-1zm8 0a1 1 0 0 1 1 1v2a1 1 0 0 1-1 1h-2a1 1 0 0 1-1-1v-2a1 1 0 0 1 1-1z"/></symbol>
<symbol viewBox="0 0 64 64" id="document"><path d="M50 4a4 4 0 0 1 4 4v44a8 8 0 0 1-8 8H14a4 4 0 0 1-4-4V12a8 8 0 0 1 8-8zm0 4H18a4 4 0 0 0-4 4v44h32a4 4 0 0 0 4-4V8zm-8 18a2 2 0 1 1 0 4H30a2 2 0 1 1 0-4zm-20 0a2 2 0 1 1 0 4 2 2 0 0 1 0-4zm20-8a2 2 0 1 1 0 4H30a2 2 0 1 1 0-4zm-20 0a2 2 0 1 1 0 4 2 2 0 0 1 0-4z"/></symbol>
<symbol viewBox="0 0 64 64" id="download"><path d="M56 30a2 2 0 0 1 2 2v18a8 8 0 0 1-8 8H14a8 8 0 0 1-8-8V32a2 2 0 1 1 4 0v18a4 4 0 0 0 4 4h36a4 4 0 0 0 4-4V32a2 2 0 0 1 2-2zM32 10a2 2 0 0 1 2 2v27.17l8.59-8.58a2 2 0 0 1 2.82 2.82l-11.29 11.3a3 3 0 0 1-4.24 0l-11.29-11.3a2 2 0 0 1 2.82-2.82L30 39.17V12a2 2 0 0 1 2-2z"/></symbol>
<symbol viewBox="0 0 64 64" id="email"><path d="M52 12H12a8 8 0 0 0-8 8v24a8 8 0 0 0 8 8h40a8 8 0 0 0 8-8V20a8 8 0 0 0-8-8zm0 4a3.81 3.81 0 0 1 1 .15L39.17 30H24.83L11 16.15a3.81 3.81 0 0 1 1-.15h40zm4 28a4 4 0 0 1-4 4H12a4 4 0 0 1-4-4V20a3.81 3.81 0 0 1 .15-1L22 32.83A4 4 0 0 0 24.83 34h14.34A4 4 0 0 0 42 32.83L55.85 19c.094.325.145.661.15 1v24z"/></symbol>
<symbol viewBox="0 0 64 64" id="entertainment"><path d="M57 21v29.69a6.6 6.6 0 0 1-.26 1.84A6.72 6.72 0 1 1 44.11 48 6.68 6.68 0 0 1 50 44c.09-.01.18-.01.27 0a6.75 6.75 0 0 1 2.73.54V33.1H34v17.59a6.6 6.6 0 0 1-.22 1.84A6.72 6.72 0 1 1 26.62 44h-.04c.093-.01.187-.013.28-.01l.125.009L27 44l.103-.009c.07-.003.138 0 .207.009.23-.015.46-.015.69 0a6.76 6.76 0 0 1 2 .54V27.05l.001-.107-.001.107v-.95h.08l.027-.164A6.082 6.082 0 0 1 36.09 21H57zm-6.73 27H50a2.73 2.73 0 1 0 2.32 4.53h-.04a2.68 2.68 0 0 0 .72-1.84A2.73 2.73 0 0 0 50.27 48zm-22.8-.01h-.04l-.16.01H26.83a2.73 2.73 0 1 0 2.49 4.53 2.68 2.68 0 0 0 .68-1.84A2.73 2.73 0 0 0 27.75 48h.005-.445l.016-.001-.016.001a2.59 2.59 0 0 1 .16-.01zM47 6a8 8 0 0 1 8 8v4h-4v-4a4 4 0 0 0-4-4H15a4 4 0 0 0-4 4v26a4 4 0 0 0 4 4h5.29A9.58 9.58 0 0 0 18 48h-3a8 8 0 0 1-8-8V14a8 8 0 0 1 8-8zM21 34v6h-6v-6h6zm0-10v6h-6v-6h6zm32 1H36.09a2 2 0 0 0-1.85 1.1c-.16.29-.244.618-.24.95v2.05h19V25zM21 14v6h-6v-6h6zm26 0v4h-6v-4h6z"/></symbol>
<symbol viewBox="0 0 64 64" id="facebook"><path d="M37.268 60h-11.47V32H20.07v-9.654h5.73v-5.79C25.798 8.681 29.03 4 38.222 4h7.662v9.654h-4.786c-3.578 0-3.82 1.356-3.82 3.864l-.01 4.828h8.673L44.93 32h-7.65v28h-.012z"/></symbol>
<symbol viewBox="0 0 64 64" id="filter"><g><path d="M24 14c3.728 0 6.86 2.55 7.748 6H54a2 2 0 1 1 0 4H31.748a8.003 8.003 0 0 1-15.496 0H10a2 2 0 1 1 0-4h6.252c.888-3.45 4.02-6 7.748-6zm0 4a4 4 0 1 0 0 8 4 4 0 0 0 0-8zM40 34a8.003 8.003 0 0 0-7.748 6H10a2 2 0 1 0 0 4h22.252a8.003 8.003 0 0 0 15.496 0H54a2 2 0 1 0 0-4h-6.252c-.888-3.45-4.02-6-7.748-6zm0 4a4 4 0 1 1 0 8 4 4 0 0 1 0-8z"/></g></symbol>
<symbol viewBox="0 0 64 64" id="folder-new"><path d="M48 32a2 2 0 0 1 2 2v8h8a2 2 0 1 1 0 4h-8v8a2 2 0 1 1-4 0v-8h-8a2 2 0 1 1 0-4h8v-8a2 2 0 0 1 2-2zm8-8a4 4 0 0 0-3.8-3.995L52 20H32v-2a2 2 0 0 0-2-2H10a2 2 0 0 0-1.995 1.85L8 18v28a4 4 0 0 0 3.8 3.995L12 50h34-10a2 2 0 1 1 0 4h-2l-.046-.002L12 54a8 8 0 0 1-7.996-7.75L4 46V18a6 6 0 0 1 5.775-5.996L10 12h20a6 6 0 0 1 5.574 3.77l.086.23H52a8 8 0 0 1 7.996 7.75L60 24v8a2 2 0 1 1-4 0v-8zm-8 2a2 2 0 1 1 0 4H16a2 2 0 1 1 0-4h32z"/></symbol>
<symbol viewBox="0 0 64 64" id="folder"><path d="M30 12a6 6 0 0 1 5.66 4H52a8 8 0 0 1 8 8v22a8 8 0 0 1-8 8H12a8 8 0 0 1-8-8V18a6 6 0 0 1 6-6zm0 4H10a2 2 0 0 0-2 2v28a4 4 0 0 0 4 4h40a4 4 0 0 0 4-4V24a4 4 0 0 0-4-4H32v-2a2 2 0 0 0-2-2zm18 10a2 2 0 1 1 0 4H16a2 2 0 1 1 0-4h32z"/></symbol>
<symbol viewBox="0 0 64 64" id="food"><path d="M49.73 4.47a2 2 0 0 1 2 2v46.4A6.67 6.67 0 0 1 45 59.53a6.67 6.67 0 0 1-6.66-6.66v-.1L39.22 37a5.2 5.2 0 0 1-2-1.39 7.8 7.8 0 0 1-1.62-5.4V14.45a8.32 8.32 0 0 1 2.5-6.16c4-3.9 11.32-3.83 11.63-3.82zm-20.282.238A2 2 0 0 1 30.5 6.41l.56 18.47c.16 2.54-.12 5.92-3.95 7.12l1.07 20.49a6.64 6.64 0 0 1-6.45 6.64h-.4a6.65 6.65 0 0 1-6.46-6.64v-.11L16 32c-3.83-1.16-4.12-4.55-3.95-7.15l.56-18.4a2 2 0 1 1 4 .12L16 25c-.19 3 .38 3.17 2.22 3.34l1.92.18-1.27 24a2.66 2.66 0 0 0 5.31 0l-1.26-24 1.91-.18c1.85-.17 2.42-.37 2.23-3.27L26.5 6.53a2 2 0 0 1 2.948-1.822zM47.66 8.58c-2.15.25-5.14.93-6.81 2.57a4.41 4.41 0 0 0-1.32 3.3v15.86c.005.06.005.12 0 .18a3.94 3.94 0 0 0 .65 2.51 1.48 1.48 0 0 0 1.17.44 2 2 0 0 1 1.95 2.1l-.96 17.38a2.66 2.66 0 1 0 5.32-.05V8.58zM21.53 4.47a2 2 0 0 1 2 2v16.72a2 2 0 1 1-4 0V6.47a2 2 0 0 1 2-2z"/></symbol>
<symbol viewBox="0 0 64 64" id="fraud"><path d="M18 9.19A20.07 20.07 0 0 1 40.72 7.5c6.12-.14 10.78 3.07 12 8.27V16c.65 6 .28 10.13-1.19 12.82A7.14 7.14 0 0 1 55 35a7 7 0 0 1-4.49 6.53c-4.94 10.79-10.51 16.38-17 17-.58.08-1.17.08-1.75 0-6.49-.59-12.07-6.18-17-17A7 7 0 0 1 10.25 35a7.2 7.2 0 0 1 3.94-6.43C9.64 19.1 13.63 12.85 18 9.19zm-1.35 22.57a3.4 3.4 0 0 0-2.44 3.18 3 3 0 0 0 2.42 3A2 2 0 0 1 18 39.08c4.5 10.08 9.41 15.31 14.61 15.54 5.22-.24 10.12-5.47 14.58-15.54a2 2 0 0 1 1.37-1.14h.02A3 3 0 0 0 51 35a3.23 3.23 0 0 0-1.88-2.98c-1.42 6.68-4.33 10.25-8.67 10.68h-.51c-3.49 0-5.65-2.45-7-5.18-1.39 2.73-3.53 5.18-7 5.18h-.5c-4.46-.44-7.4-4.11-8.79-10.94zm4.2.38c1.01 4.16 2.67 6.37 4.94 6.6h.16c1.82 0 3.33-1.94 4.47-5.94h.02c-3.18-.06-6.36-.28-9.59-.66zM45 32.07c-3.2.393-6.403.633-9.61.72 1.18 4.07 2.71 6.07 4.71 5.94 2.22-.22 3.9-2.46 4.9-6.66zm-6.67-12.3c-2.33 1.84-5.54 2.41-9.33 2.9-6.17.89-8.54 2.58-9.54 5.25h-.01A97 97 0 0 0 45.6 28c-.6-.82-1.6-1.74-2.27-2.45a32 32 0 0 1-5-5.78zm.452-8.726A16.05 16.05 0 0 0 20.46 12.31c-4.04 3.38-5.27 7.31-3.64 12.06 2.05-3.12 5.74-4.87 11.67-5.73 5.67-.73 7.56-1.49 8.56-3.49a1.52 1.52 0 0 1 .28-.4.35.35 0 0 1 .1-.11 1.53 1.53 0 0 1 .41-.31l.19-.1.2-.08a.8.8 0 0 1 .15 0h.19c.12-.02.24-.02.36 0a.76.76 0 0 1 .26 0 1.8 1.8 0 0 1 .55.19 1 1 0 0 1 .26.16c.222.154.406.356.54.59a1.3 1.3 0 0 1 .08.17.85.85 0 0 1 .09.22v.06c.87 2.68 3.26 5.04 5.38 7.11a35.14 35.14 0 0 1 2.5 2.62 26.19 26.19 0 0 0 .15-8.7c-.84-3.38-4.08-5.32-8.45-5.06a1.57 1.57 0 0 1-.93-.13l-.26-.14z"/></symbol>
<symbol viewBox="0 0 64 64" id="games"><path d="M46 4a2 2 0 0 1 2 2v4a8 8 0 0 1-8 8 4 4 0 0 0-4 4v2h7.6c8.662-.133 15.892 6.581 16.4 15.23a16 16 0 0 1-25.66 13.52 4 4 0 0 0-2.41-.75h-.22a3.46 3.46 0 0 0-2.05.75A15.82 15.82 0 0 1 20 56 16 16 0 0 1 4 39.23c.508-8.649 7.738-15.363 16.4-15.23H32v-2a8 8 0 0 1 8-8 4 4 0 0 0 4-4V6a2 2 0 0 1 2-2zm-2.095 23.998L43.6 28H20.4C13.876 27.875 8.41 32.908 8 39.42a12 12 0 0 0 19.24 10.14A7.38 7.38 0 0 1 31.71 48h.22a8 8 0 0 1 4.83 1.56 12 12 0 0 0 15.92-1.28A11.91 11.91 0 0 0 56 39.42c-.41-6.512-5.876-11.545-12.4-11.42zM20 34a2 2 0 0 1 2 2v2h2a2 2 0 1 1 0 4h-2v2a2 2 0 1 1-4 0v-2h-2a2 2 0 1 1 0-4h2v-2a2 2 0 0 1 2-2zm22 6a2 2 0 1 1 0 4 2 2 0 0 1 0-4zm6-4a2 2 0 1 1 0 4 2 2 0 0 1 0-4z"/></symbol>
<symbol viewBox="0 0 64 64" id="gift"><path d="M56 16h-8.06c.04-.332.06-.666.06-1a9 9 0 0 0-16-5.64A9 9 0 0 0 16 15c0 .334.02.668.06 1H8a3.84 3.84 0 0 0-4 3.67v6.66A3.84 3.84 0 0 0 8 30v18a8 8 0 0 0 8 8h32a8 8 0 0 0 8-8V30a3.84 3.84 0 0 0 4-3.67v-6.66A3.84 3.84 0 0 0 56 16zm-17-6a5 5 0 0 1 5 5 4.79 4.79 0 0 1-.11 1h-9.78a4.79 4.79 0 0 1-.11-1 5 5 0 0 1 5-5zm-19 5a5 5 0 0 1 10 0 4.79 4.79 0 0 1-.11 1h-9.78a4.79 4.79 0 0 1-.11-1zm10 5v6H8v-6h22zM12 48V30h18v22H16a4 4 0 0 1-4-4zm40 0a4 4 0 0 1-4 4H34V30h18v18zm0-22H34v-6h22v6h-4z"/></symbol>
<symbol viewBox="0 0 64 64" id="graph"><path d="M9.973 8c1.09 0 1.972.9 1.972 2.011v41.966h42.082c1.09 0 1.973.9 1.973 2.012 0 1.11-.883 2.011-1.973 2.011H9.973C8.883 56 8 55.1 8 53.989V10.01C8 8.901 8.883 8 9.973 8zm44.5 10.064c.9-.261 1.584.303 1.523 1.254l-2.025 14.595c-.039.243-.12.437-.234.58-.32.403-.895.397-1.482-.086l-3.8-3.132-.296-.243-8.109 10.445a1.994 1.994 0 0 1-1.4.767 1.983 1.983 0 0 1-1.507-.512l-8.19-7.455L18.557 47.25c-.396.494-.973.75-1.554.75-.445 0-.893-.15-1.265-.46a2.065 2.065 0 0 1-.286-2.87l11.724-14.626c.345-.432.85-.7 1.395-.744a1.982 1.982 0 0 1 1.492.513l8.165 7.433 6.817-8.78-.48-.395-3.806-3.136c-.586-.483-.712-1.053-.391-1.456.113-.143.283-.265.509-.354z"/></symbol>
<symbol viewBox="0 0 64 64" id="grid-view"><path d="M28 34a2 2 0 0 1 2 2v18a2 2 0 0 1-2 2H10a2 2 0 0 1-2-2V36a2 2 0 0 1 2-2h18zm26 0a2 2 0 0 1 2 2v18a2 2 0 0 1-2 2H36a2 2 0 0 1-2-2V36a2 2 0 0 1 2-2h18zm-28 4H12v14h14V38zm26 0H38v14h14V38zM28 8a2 2 0 0 1 2 2v18a2 2 0 0 1-2 2H10a2 2 0 0 1-2-2V10a2 2 0 0 1 2-2h18zm26 0a2 2 0 0 1 2 2v18a2 2 0 0 1-2 2H36a2 2 0 0 1-2-2V10a2 2 0 0 1 2-2h18zm-28 4H12v14h14V12zm26 0H38v14h14V12z"/></symbol>
<symbol viewBox="0 0 64 64" id="group"><path d="M21.47 18.538A12 12 0 0 1 35 23.54l.224.358A11.82 11.82 0 0 1 36.63 27.4a10.7 10.7 0 0 1 .3 2.21 4.7 4.7 0 0 1 0 .53 12.39 12.39 0 0 1-.36 2.94 11.36 11.36 0 0 1-1.11 2.8A17.5 17.5 0 0 1 38.27 37a14.91 14.91 0 0 1 3.14 2.12 12.89 12.89 0 0 1 2.15 2.46 14 14 0 0 1 .87 1.54 11.5 11.5 0 0 1 .09 9.98 5.18 5.18 0 0 1-4.52 3H9.74a5.18 5.18 0 0 1-4.52-3 11.7 11.7 0 0 1 1-11.52A13.63 13.63 0 0 1 11.51 37a19.9 19.9 0 0 1 2.86-1.12 11.84 11.84 0 0 1-1.1-2.79 12.39 12.39 0 0 1-.36-2.94 12 12 0 0 1 8.56-11.612zM32.69 39.32a12 12 0 0 1-7.8 2.88h-.42a11.92 11.92 0 0 1-7.38-2.87 14.39 14.39 0 0 0-3.27 1 9.73 9.73 0 0 0-4.27 3.47 7.71 7.71 0 0 0-.8 7.41c.24.45.63.92 1 .92H40c.37 0 .76-.47 1-.92a7.65 7.65 0 0 0-.78-7.42 8 8 0 0 0-.51-.68 9.79 9.79 0 0 0-3.76-2.79 15 15 0 0 0-3.26-1zm17.302-26.708a11.17 11.17 0 0 1 .928 11.758 13.32 13.32 0 0 1 7.28 5.21 10.75 10.75 0 0 1 .9 10.68 4.92 4.92 0 0 1-4.29 2.86h-7.14a15.8 15.8 0 0 0-2.2-4h9.34c.22 0 .52-.3.76-.75a6.83 6.83 0 0 0-.72-6.59 10.08 10.08 0 0 0-6.68-4A11.09 11.09 0 0 1 41 30.39c-.36 0-.71 0-1.06-.05v-.19a14.34 14.34 0 0 0-.25-2.72c-.07-.42-.17-.83-.27-1.23a6.39 6.39 0 0 0 1.58.19 7.16 7.16 0 0 0 5.74-2.88 7.09 7.09 0 0 0 1.43-4.29 7.16 7.16 0 0 0-14.24-1.09 14.67 14.67 0 0 0-3.66-2 11.17 11.17 0 0 1 19.722-3.518zM24.89 22.12v.01a8 8 0 0 0-6.38 12.94c.258.326.535.637.83.93A8 8 0 0 0 22 37.65a8 8 0 0 0 4.2.43 8.09 8.09 0 0 0 4.16-2.09 9.05 9.05 0 0 0 .83-.93 7.93 7.93 0 0 0 1.41-2.85 8.07 8.07 0 0 0 0-4.14 7.88 7.88 0 0 0-2-3.55 8 8 0 0 0-5.71-2.4z"/></symbol>
<symbol viewBox="0 0 64 64" id="heart-filled"><path d="M53.82 12.35a14.08 14.08 0 0 0-20.35 0L32 13.87l-1.47-1.52a14.08 14.08 0 0 0-20.35 0c-5.562 5.833-5.562 15.007 0 20.84l19 19.59a4 4 0 0 0 5.74 0l19-19.59c5.534-5.86 5.49-15.033-.1-20.84z"/></symbol>
<symbol viewBox="0 0 64 64" id="heart"><path d="M53.82 12.35a14.08 14.08 0 0 0-20.35 0L32 13.87l-1.47-1.52a14.08 14.08 0 0 0-20.35 0c-5.562 5.833-5.562 15.007 0 20.84l19 19.59a4 4 0 0 0 5.74 0l19-19.59c5.534-5.86 5.49-15.033-.1-20.84zm-2.88 18.06L32 50 13.06 30.41a11.07 11.07 0 0 1 0-15.28 10.07 10.07 0 0 1 14.59 0l2.91 3c.8.783 2.08.783 2.88 0l2.91-3a10.07 10.07 0 0 1 14.59 0 11.07 11.07 0 0 1 0 15.28z"/></symbol>
<symbol viewBox="0 0 64 64" id="home"><path d="M27.76 7.35a6 6 0 0 1 8.48 0l21.83 21.82A4 4 0 0 1 55.24 36H52v18a4 4 0 0 1-4 4H16a4 4 0 0 1-4-4V36H8.76a4 4 0 0 1-2.83-6.83zm5.65 2.83a2 2 0 0 0-2.82 0L8.76 32H16v22h32V32h7.24zM40 36a4 4 0 0 1 4 4v6a4 4 0 0 1-4 4h-6a4 4 0 0 1-4-4v-6a4 4 0 0 1 4-4zm0 4h-6v6h6v-6z"/></symbol>
<symbol viewBox="0 0 64 64" id="image"><path d="M54 12a6 6 0 0 1 6 6v28a5.92 5.92 0 0 1-1.15 3.53A6 6 0 0 1 54 52H10a6 6 0 0 1-6-6V18a6 6 0 0 1 6-6zM22.41 30.1a2 2 0 0 0-2.82 0L8 41.68V46a2 2 0 0 0 2 2h30.32l-4.82-4.81zm23 6a2 2 0 0 0-2.82 0l-4.26 4.26 6.83 6.83c.25.246.475.518.67.81H54a2 2 0 0 0 1.91-1.41zM54 16H10a2 2 0 0 0-2 2v18l8.76-8.73a6 6 0 0 1 8.48 0L35.5 37.53l4.26-4.26a6 6 0 0 1 8.48 0L56 41V18a2 2 0 0 0-2-2zm-7 7a2 2 0 1 1 0 4 2 2 0 0 1 0-4z"/></symbol>
<symbol viewBox="0 0 64 64" id="infinite"><path d="M46.211 41.522c-1.058 0-3.494-.586-7.923-4.513a52.984 52.984 0 0 1-3.728-3.676 52.953 52.953 0 0 1 3.694-3.646c4.45-3.952 6.895-4.542 7.957-4.542 4.687 0 8.5 3.673 8.5 8.188 0 4.515-3.813 8.189-8.5 8.189m-20.5-4.513c-4.428 3.927-6.864 4.513-7.922 4.513-4.687 0-8.5-3.674-8.5-8.189 0-4.515 3.813-8.188 8.5-8.188 1.058 0 3.494.586 7.923 4.512a52.996 52.996 0 0 1 3.728 3.676 52.977 52.977 0 0 1-3.728 3.676m20.5-15.676c-2.913 0-6.492 1.868-10.64 5.552A56.002 56.002 0 0 0 32 30.374a56.002 56.002 0 0 0-3.573-3.489c-4.147-3.684-7.726-5.552-10.638-5.552-6.868 0-12.456 5.384-12.456 12 0 6.617 5.588 12 12.456 12 2.912 0 6.491-1.868 10.638-5.552A56.003 56.003 0 0 0 32 36.293a56.003 56.003 0 0 0 3.573 3.488c4.147 3.684 7.726 5.552 10.638 5.552 6.868 0 12.456-5.383 12.456-12 0-6.616-5.588-12-12.456-12"/></symbol>
<symbol viewBox="0 0 64 64" id="info"><path d="M32 6a26 26 0 0 1 26 26c0 14.36-11.64 26-26 26S6 46.36 6 32 17.64 6 32 6zm0 4c-12.15 0-22 9.85-22 22s9.85 22 22 22a22 22 0 0 0 22-22c0-12.15-9.85-22-22-22zm.89 16c.74 0 1.11.333 1.11 1v15.84a4 4 0 0 1-.3 1.56 3.2 3.2 0 0 1-.78 1.18A1.38 1.38 0 0 1 32 46c-.513 0-1.03-.38-1.55-1.14a2.25 2.25 0 0 1-.48-1.18V27.86c0-.44.31-.86.92-1.26a3.531 3.531 0 0 1 2-.6zm.11-8c.827 0 1.233.38 1.22 1.14a4.41 4.41 0 0 1-.34 1.73 3.59 3.59 0 0 1-.88 1.31 1.58 1.58 0 0 1-1.01.48c-.52 0-1.06-.41-1.62-1.23a2.81 2.81 0 0 1-.57-1.35 1.81 1.81 0 0 1 1-1.42A4 4 0 0 1 33 18z"/></symbol>
<symbol viewBox="0 0 64 64" id="insurance"><path d="M40 4a8 8 0 0 1 8 8v40a8 8 0 0 1-8 8H24a8 8 0 0 1-8-8V12a8 8 0 0 1 8-8zm4 44H20v4a4 4 0 0 0 4 4h16a4 4 0 0 0 4-4v-4zm-12 2a2 2 0 1 1 0 4 2 2 0 0 1 0-4zm8-42H24a4 4 0 0 0-4 4v13.32l4.16-4.13a2 2 0 0 1 3.06.28l3.06 4.45 3.31-3.3a2 2 0 0 1 2.82 2.82l-5 5a2 2 0 0 1-1.59.58 2 2 0 0 1-1.47-.86l-3.06-4.44L20 31v13h24V12a4 4 0 0 0-4-4z"/></symbol>
<symbol viewBox="0 0 64 64" id="internet"><path d="M58 32C58 17.68 46.42 6.055 32.1 6h-.2C17.54 6.028 5.922 17.69 5.95 32.05 5.978 46.41 17.64 58.028 32 58a26 26 0 0 0 26-26zm-6.36 9.89a45.32 45.32 0 0 0-8.19-2.64c.365-2.4.549-4.823.55-7.25a48.21 48.21 0 0 0-.55-7.24 46.49 46.49 0 0 0 8.2-2.64 21.92 21.92 0 0 1 0 19.77h-.01zM32 53.7c-2.91-1.89-5.29-6-6.67-11.24a48.59 48.59 0 0 1 13.34 0c-1.38 5.22-3.76 9.35-6.67 11.24zM32 38a54.35 54.35 0 0 0-7.49.53 42.06 42.06 0 0 1 0-13.06A54.35 54.35 0 0 0 32 26a54.2 54.2 0 0 0 7.48-.53A41.93 41.93 0 0 1 40 32c0 2.187-.17 4.37-.51 6.53A54.35 54.35 0 0 0 32 38zm0-27.7c2.91 1.89 5.29 6 6.67 11.24A48.68 48.68 0 0 1 32 22a50.36 50.36 0 0 1-6.67-.46c1.38-5.22 3.76-9.35 6.67-11.24zm17.5 8.39a42 42 0 0 1-6.85 2.14 29.19 29.19 0 0 0-4.42-9.93 22 22 0 0 1 11.27 7.79zM25.77 10.9a29.39 29.39 0 0 0-4.42 9.93 42 42 0 0 1-6.85-2.14 22.06 22.06 0 0 1 11.27-7.79zM12.36 22.11a44.54 44.54 0 0 0 8.19 2.64 48.06 48.06 0 0 0 0 14.5 45.32 45.32 0 0 0-8.19 2.64 21.9 21.9 0 0 1 0-19.78zm2.14 23.2a42 42 0 0 1 6.85-2.14 29.39 29.39 0 0 0 4.42 9.93 22.06 22.06 0 0 1-11.27-7.79zm23.73 7.79a29.39 29.39 0 0 0 4.42-9.93 42 42 0 0 1 6.85 2.14 22.06 22.06 0 0 1-11.27 7.79z"/></symbol>
<symbol viewBox="0 0 64 64" id="kontantkort"><path d="M54 12a6 6 0 0 1 6 6v28a6 6 0 0 1-6 6H10a6 6 0 0 1-6-6V18a6 6 0 0 1 6-6zm0 4H10a2 2 0 0 0-2 2v28a2 2 0 0 0 2 2h44a2 2 0 0 0 2-2V18a2 2 0 0 0-2-2zM28 26.61a3.33 3.33 0 0 1 1.29 1.29 3.61 3.61 0 0 1 .46 1.83 3.17 3.17 0 0 1-.5 1.7 4 4 0 0 1-1.4 1.33l1.85 2.64a.66.66 0 0 1 .13.4 2 2 0 0 1-.33 1.09c-.22.33-.45.5-.69.5a.92.92 0 0 1-.7-.48l-2.52-3.59h-1.42v2.33a2.19 2.19 0 0 1-.35 1.2 1 1 0 0 1-.77.54c-.28 0-.55-.21-.83-.62a1.54 1.54 0 0 1-.27-.66v-8.94a.89.89 0 0 1 .5-.71 2 2 0 0 1 1.09-.33H26a3.91 3.91 0 0 1 2 .48zM19.81 26c.43 0 .64.2.64.58a2.36 2.36 0 0 1-.18.89 2 2 0 0 1-.51.73l-3.33 3.08 4.1 4a.52.52 0 0 1 .14.4 2.11 2.11 0 0 1-.31 1.13.85.85 0 0 1-.69.51A1 1 0 0 1 19 37l-4.44-4.47v3.12a2.11 2.11 0 0 1-.35 1.2 1 1 0 0 1-.76.54c-.28 0-.56-.21-.83-.62a1.45 1.45 0 0 1-.27-.66v-9a.89.89 0 0 1 .5-.71 1.94 1.94 0 0 1 1.09-.4c.42 0 .62.2.62.58v3.56l3.88-3.59a1.83 1.83 0 0 1 .64-.4 1.91 1.91 0 0 1 .73-.15zm6.1 2.24h-1.74v3.08h1.74a1.61 1.61 0 0 0 1.14-.45 1.42 1.42 0 0 0 .47-1.08 1.45 1.45 0 0 0-.46-1.11 1.6 1.6 0 0 0-1.15-.44z"/></symbol>
<symbol viewBox="0 0 64 64" id="laptop"><path d="M58.34 46.21L56 41.53V16a4 4 0 0 0-4-4H12a4 4 0 0 0-4 4v25.53l-2.34 4.68A4 4 0 0 0 9.24 52h45.52a4 4 0 0 0 3.58-5.79zM12 16h40v24H12V16zM9.24 48l2-4h41.52l2 4H9.24z"/></symbol>
<symbol viewBox="0 0 64 64" id="lightbulb"><path d="M35 54a2 2 0 1 1 0 4h-6a2 2 0 1 1 0-4h6zm1-5a2 2 0 1 1 0 4h-8a2 2 0 1 1 0-4h8zm-4-32c7.732 0 14 6.268 14 14 0 4.953-2.596 9.445-6.713 11.957l-.648 3.415A2 2 0 0 1 36.674 48h-9.382a2 2 0 0 1-1.967-1.637l-.631-3.418-.284-.179A13.993 13.993 0 0 1 18 31c0-7.732 6.268-14 14-14zm0 4c-5.523 0-10 4.477-10 10a9.998 9.998 0 0 0 5.41 8.888 2 2 0 0 1 1.048 1.413L28.956 44h6.062l.512-2.701a2 2 0 0 1 1.048-1.405A9.998 9.998 0 0 0 42 31c0-5.523-4.477-10-10-10zm-20 9a2 2 0 1 1 0 4H6a2 2 0 1 1 0-4h6zm46 0a2 2 0 1 1 0 4h-6a2 2 0 1 1 0-4h6zm-6.465-17.918a2 2 0 0 1 0 2.828l-4.242 4.243a2 2 0 1 1-2.829-2.828l4.243-4.243a2 2 0 0 1 2.828 0zm-36.087-.066l4.243 4.243a2 2 0 1 1-2.829 2.828l-4.242-4.243a2 2 0 0 1 2.828-2.828zM32 4a2 2 0 0 1 2 2v6a2 2 0 1 1-4 0V6a2 2 0 0 1 2-2z"/></symbol>
<symbol viewBox="0 0 64 64" id="like"><path d="M54.64 34.52a8 8 0 0 0 .76-8A8.25 8.25 0 0 0 48 22h-5.15a25 25 0 0 0 1.2-4.89 14.07 14.07 0 0 0-1.72-8c-1.21-2.06-4.56-3-7-2.78a4.74 4.74 0 0 0-4.24 3.18c-.23.7-.45 1.42-.66 2.12-.63 2.07-1.27 4.2-2 5.17l-.09.13C26.91 19 22.2 25 20.66 26h-2.2A6 6 0 0 0 8 30v20a6 6 0 0 0 10.46 4h1.79c2.502.1 4.964.662 7.26 1.66a70.51 70.51 0 0 0 15.39 2.4c.454.01.908-.01 1.36-.06 3.45-.46 7.2-3.09 7.7-9.08a9.71 9.71 0 0 0 2.12-7.6 9.09 9.09 0 0 0 .56-6.8zM12 50V30a2 2 0 1 1 4 0v20a2 2 0 1 1-4 0zm38.85-17a2 2 0 0 0-.3 1.93 5.33 5.33 0 0 1-.26 5 2 2 0 0 0-.29 1.39 5.85 5.85 0 0 1-1.5 5.42A2 2 0 0 0 48 48c-.13 3.47-1.69 5.65-4.27 6-2.58.35-12.65-1.31-14.88-2.13a23.93 23.93 0 0 0-8.6-1.87H20V30h1c3.17 0 10-9.88 10.62-10.82 1.21-1.56 1.92-3.93 2.68-6.43.2-.667.41-1.333.63-2 0-.09.1-.31.71-.42a4.54 4.54 0 0 1 3.25.82 10 10 0 0 1 1.17 5.65 34.14 34.14 0 0 1-1.91 6.51 2 2 0 0 0 .2 1.86A2 2 0 0 0 40 26h8a4.24 4.24 0 0 1 3.85 2.23c.63 1.39.29 3.07-1 4.77z"/></symbol>
<symbol viewBox="0 0 64 64" id="link"><path d="M24.33 28.89c1.418 0 2.824.272 4.14.8l.2.08-3.21 3.21a7.08 7.08 0 0 0-1.13-.09 7 7 0 0 0-5 2l-5.56 5.56a7 7 0 1 0 9.9 9.9l5.56-5.56a7 7 0 0 0 1.92-6.28l3.17-3.17a11 11 0 0 1-2.21 12.36l-5.56 5.56a11 11 0 0 1-7.78 3.22 11.21 11.21 0 0 1-4.14-.8 11 11 0 0 1-3.64-18l5.57-5.57a10.93 10.93 0 0 1 7.77-3.22zm14.092-4.4a2 2 0 0 1 .648 3.27L27.76 39.07a2 2 0 1 1-2.83-2.83l11.31-11.31a2 2 0 0 1 2.182-.44zM45.15 7.71c1.418 0 2.824.272 4.14.8a11 11 0 0 1 3.64 2.42 11 11 0 0 1 0 15.6l-5.44 5.44a11 11 0 0 1-7.78 3.22 11.13 11.13 0 0 1-4.14-.8l-.18-.08 3.21-3.21a7 7 0 0 0 6.06-2l5.39-5.44a7 7 0 0 0-9.9-9.9l-5.44 5.44a7 7 0 0 0-2 4.95 6.72 6.72 0 0 0 .13 1.35l-3.17 3.17a11 11 0 0 1 2.26-12.3l5.44-5.44a11 11 0 0 1 7.78-3.22z"/></symbol>
<symbol viewBox="0 0 64 64" id="list-view"><path d="M11 43a3 3 0 0 1 3 3l-.005.176A3 3 0 1 1 11 43zm42.965 1l.152.005c1.053.077 1.883.942 1.883 1.996C56 47.105 55.087 48 53.962 48H20.035c-1.124 0-2.034-.894-2.035-1.999 0-1.105.91-2.001 2.035-2.001h33.93zM11 29a3 3 0 0 1 3 3l-.005.176A3 3 0 1 1 11 29zm42.963 1c1.12 0 2.037.895 2.037 2 0 1.104-.912 2-2.037 2H20.037C18.912 34 18 33.104 18 32s.912-2 2.037-2zM11 15c1.657 0 3 1.347 3 3a3 3 0 1 1-3.01-3zm9.032 1l.152.005H54.11c1.008.072 1.81.86 1.884 1.85.081 1.102-.762 2.06-1.884 2.14H20.184a2.097 2.097 0 0 1-.295 0c-1.122-.08-1.965-1.038-1.884-2.14.082-1.102 1.058-1.93 2.179-1.85z"/></symbol>
<symbol viewBox="0 0 64 64" id="lock-locked"><path d="M32 6c7.732 0 14 6.268 14 14v6a6 6 0 0 1 2.34.47l.227.102A6 6 0 0 1 52 32v6a19.81 19.81 0 0 1-.49 4.38c-2.24 9.936-11.59 16.6-21.714 15.478C19.673 56.736 12.01 48.185 12 38v-6a6 6 0 0 1 3.67-5.53l.28-.11A6 6 0 0 1 18 26v-6c0-7.732 6.268-14 14-14zm14 24H18a2 2 0 0 0-.79.2h-.1A2 2 0 0 0 16 32v6c-.001 1.174.13 2.345.39 3.49 1.788 7.95 9.266 13.287 17.366 12.392C41.856 52.988 47.989 46.15 48 38v-6a2 2 0 0 0-1.12-1.84h-.09A2 2 0 0 0 46 30zm-13.303 4.057A4 4 0 0 1 34 41.46V48a2 2 0 1 1-4 0v-6.54a4 4 0 0 1 2.697-7.403zM32 10c-5.523 0-10 4.477-10 10v6h20v-6c0-5.523-4.477-10-10-10z"/></symbol>
<symbol viewBox="0 0 64 64" id="lock-unlocked"><path d="M28.14 5.3a14.08 14.08 0 0 1 10.45 2.27 13.41 13.41 0 0 1 5.68 8.85l.73 4.24a2.029 2.029 0 0 1-4 .68l-.72-4.24a9.44 9.44 0 0 0-4-6.24 10.12 10.12 0 0 0-7.47-1.62c-5.364.831-9.047 5.842-8.24 11.21L21.69 27H46a6 6 0 0 1 2.34.47l.227.102A6 6 0 0 1 52 33v6a19.81 19.81 0 0 1-.49 4.38c-2.24 9.936-11.59 16.6-21.714 15.478C19.673 57.736 12.01 49.185 12 39v-6a6 6 0 0 1 3.63-5.53l.274-.108a5.79 5.79 0 0 1 1.726-.342l-1-5.9C15.45 13.575 20.598 6.498 28.14 5.3zM46 31H18a2 2 0 0 0-.79.2h-.1A2 2 0 0 0 16 33v6c-.001 1.174.13 2.345.39 3.49 1.788 7.95 9.266 13.287 17.366 12.392C41.856 53.988 47.989 47.15 48 39v-6a2 2 0 0 0-1.12-1.84h-.09A2 2 0 0 0 46 31zm-13.303 4.057A4 4 0 0 1 34 42.46V49a2 2 0 1 1-4 0v-6.54a4 4 0 0 1 2.697-7.403z"/></symbol>
<symbol viewBox="0 0 64 64" id="login"><path d="M31.998 8a2 2 0 1 0 0 4h18a4 4 0 0 1 4 4v32a4 4 0 0 1-4 4h-18a2 2 0 1 0 0 4h18a8 8 0 0 0 8-8V16a8 8 0 0 0-8-8zm-3.303 10.685a2 2 0 0 0-.105 2.715l8.58 8.6H10a2 2 0 1 0 0 4h27.17l-8.58 8.59a2 2 0 1 0 2.82 2.82l12-12a1.79 1.79 0 0 0 .25-.3.55.55 0 0 0 .08-.15c.043-.063.08-.13.11-.2l.06-.2a.84.84 0 0 0 .05-.17 2 2 0 0 0 0-.78.84.84 0 0 0-.05-.17l-.06-.2a1.28 1.28 0 0 0-.11-.2.55.55 0 0 0-.08-.15 1.79 1.79 0 0 0-.25-.31l-12-12a2 2 0 0 0-2.715.105z"/></symbol>
<symbol viewBox="0 0 64 64" id="logout"><path d="M34 8a2 2 0 1 1 0 4H16a4 4 0 0 0-4 4v32a4 4 0 0 0 4 4h18a2 2 0 1 1 0 4H16a8 8 0 0 1-8-8V16a8 8 0 0 1 8-8zm8.695 10.685a2 2 0 0 1 2.715-.105l12 12c.095.094.178.198.25.31a.55.55 0 0 1 .08.15c.043.063.08.13.11.2l.06.2a.84.84 0 0 1 .05.17 2 2 0 0 1 0 .78.84.84 0 0 1-.05.17l-.06.2a1.28 1.28 0 0 1-.11.2.55.55 0 0 1-.08.15 1.79 1.79 0 0 1-.25.3l-12 12a2 2 0 1 1-2.82-2.82L51.17 34H24a2 2 0 1 1 0-4h27.17l-8.58-8.6a2 2 0 0 1 .105-2.715z"/></symbol>
<symbol viewBox="0 0 64 64" id="map"><path d="M32 4c11.355 0 20.56 9.205 20.56 20.56 0 15.44-18.36 34.06-19.14 34.85a2.002 2.002 0 0 1-2.84 0C29.8 58.62 11.44 40 11.44 24.56 11.44 13.205 20.645 4 32 4zm0 4c-9.141.011-16.549 7.419-16.56 16.56C15.44 36 27.75 50.45 32 55.08 36.25 50.45 48.56 36 48.56 24.56 48.549 15.419 41.141 8.011 32 8zm0 6a10 10 0 0 1 10 10c0 5.523-4.477 10-10 10s-10-4.477-10-10 4.477-10 10-10zm0 4a6 6 0 1 0 0 12 6 6 0 0 0 0-12z"/></symbol>
<symbol viewBox="0 0 64 64" id="menu"><path d="M50 44a2 2 0 1 1 0 4H14a2 2 0 1 1 0-4zm0-14a2 2 0 1 1 0 4H14a2 2 0 1 1 0-4zm0-14a2 2 0 1 1 0 4H14a2 2 0 1 1 0-4z"/></symbol>
<symbol viewBox="0 0 64 64" id="microphone"><path d="M46 24a2 2 0 0 1 2 2v10c-.002 8.062-6.002 14.862-14 15.87a.57.57 0 0 1 0 .13v4h8a2 2 0 1 1 0 4H22a2 2 0 1 1 0-4h8v-4a.57.57 0 0 1 0-.13C22.002 50.862 16.002 44.062 16 36V26a2 2 0 1 1 4 0v10c0 6.627 5.373 12 12 12s12-5.373 12-12V26a2 2 0 0 1 2-2zM32 4a8 8 0 0 1 8 8v24a8 8 0 1 1-16 0V12a8 8 0 0 1 8-8zm0 4a4 4 0 0 0-4 4v24a4 4 0 1 0 8 0V12a4 4 0 0 0-4-4z"/></symbol>
<symbol viewBox="0 0 64 64" id="minus"><path d="M17.333 35h29.334c.736 0 1.333-.895 1.333-2s-.597-2-1.333-2H17.333c-.736 0-1.333.895-1.333 2s.597 2 1.333 2z"/></symbol>
<symbol viewBox="0 0 64 64" id="mms"><path d="M50.07 10a9.75 9.75 0 0 1 9.81 9.74v16.8a9.67 9.67 0 0 1-1.22 4.72 10 10 0 0 1-2.62 3 9.68 9.68 0 0 1-5.89 2h-16l-2.22 2.23L27 53.41a2 2 0 0 1-2.22.44A2 2 0 0 1 23.54 52v-5.74h-9.61a9.76 9.76 0 0 1-9.73-9.74V19.74c.005-5.373 4.357-9.729 9.73-9.74zM19.85 25.998a2 2 0 0 0-1.42.592L8.21 36.82a5.73 5.73 0 0 0 5.72 5.44h11.61a2 2 0 0 1 2 2v2.91l4.34-4.33c.14-.142.302-.26.48-.35a2 2 0 0 1 .92-.23H37l-5.48-5.42-10.25-10.25a2 2 0 0 0-1.42-.592zm23 6a2 2 0 0 0-1.42.592l-4.25 4.26 5.41 5.41h7.48a5.68 5.68 0 0 0 3.01-.86l-8.81-8.81a2 2 0 0 0-1.42-.592zM50.07 14H13.93a5.74 5.74 0 0 0-5.73 5.74v11.43l7.4-7.41a6 6 0 0 1 8.49 0L34.35 34l4.25-4.24a6 6 0 0 1 8.49 0l8.45 8.45a5.53 5.53 0 0 0 .26-1.69V19.74A5.75 5.75 0 0 0 50.07 14zm-4.22 5.49a2 2 0 1 1 0 4 2 2 0 0 1 0-4z"/></symbol>
<symbol viewBox="0 0 64 64" id="mobile"><path d="M40 4a8 8 0 0 1 8 8v40a8 8 0 0 1-8 8H24a8 8 0 0 1-8-8V12a8 8 0 0 1 8-8zm4 44H20v4a4 4 0 0 0 4 4h16a4 4 0 0 0 4-4v-4zm-12 2a2 2 0 1 1 0 4 2 2 0 0 1 0-4zm8-42H24a4 4 0 0 0-4 4v32h24V12a4 4 0 0 0-4-4z"/></symbol>
<symbol viewBox="0 0 64 64" id="money-euro"><path d="M21.11 14.05A21 21 0 0 1 60 25a21.001 21.001 0 0 1-10 17.89 21 21 0 0 1-7 7A21.09 21.09 0 0 1 25 60a21 21 0 0 1-10.99-38.95 21 21 0 0 1 7-7zM11.21 29A17 17 0 0 0 25 56a17.06 17.06 0 0 0 9.91-3.21A21.67 21.67 0 0 1 32 53c-11.598 0-21-9.402-21-21a22.29 22.29 0 0 1 .21-3zm7.03-7A17 17 0 0 0 32 49a16.9 16.9 0 0 0 10-3.24A20.84 20.84 0 0 1 18.24 22zM39 8c-9.389 0-17 7.611-17 17s7.611 17 17 17a17 17 0 0 0 17-17c0-9.389-7.611-17-17-17zm1.56 5.47A9.38 9.38 0 0 1 45.72 15a1 1 0 0 1 .47.85 3.5 3.5 0 0 1-1 2.5 1.28 1.28 0 0 1-.88.41 1.37 1.37 0 0 1-.6-.19 6.58 6.58 0 0 0-3.22-1A5.45 5.45 0 0 0 35.4 21H43c.53 0 .78.25.78.72 0 1.11-.75 2.28-1.42 2.28h-7.78a8.55 8.55 0 0 0 0 1.06 6.54 6.54 0 0 0 0 .94h7.35c.54 0 .79.25.79.72 0 1.11-.72 2.28-1.42 2.28h-6a5.21 5.21 0 0 0 5.09 3.53 10.54 10.54 0 0 0 2.9-.56 7.24 7.24 0 0 1 1.71-.35c.73 0 1.11.35 1.11 1a3.47 3.47 0 0 1-1.45 2.94 9.7 9.7 0 0 1-4.55 1c-4.67 0-8.17-2.81-9.53-7.58h-1.27a.68.68 0 0 1-.45-.19 2.32 2.32 0 0 1-1-1.48c0-.64 1.08-1.33 2.06-1.33h.28a4.92 4.92 0 0 1 0-.94 6.42 6.42 0 0 1 0-1.06h-.47a.68.68 0 0 1-.45-.19 2.32 2.32 0 0 1-1-1.48c0-.64 1.08-1.33 2.05-1.33h.45c1.64-4.64 5.4-7.51 9.78-7.51z"/></symbol>
<symbol viewBox="0 0 64 64" id="money"><path d="M21.11 14.05A21 21 0 0 1 60 25a21.001 21.001 0 0 1-10 17.89 21 21 0 0 1-7 7A21.09 21.09 0 0 1 25 60a21 21 0 0 1-10.99-38.95 21 21 0 0 1 7-7zM11.21 29A17 17 0 0 0 25 56a17.06 17.06 0 0 0 9.91-3.21A21.67 21.67 0 0 1 32 53c-11.598 0-21-9.402-21-21a22.29 22.29 0 0 1 .21-3zm7.03-7A17 17 0 0 0 32 49a16.9 16.9 0 0 0 10-3.24A20.84 20.84 0 0 1 18.24 22zM39 8c-9.389 0-17 7.611-17 17s7.611 17 17 17a17 17 0 0 0 17-17c0-9.389-7.611-17-17-17zm-1.28 9.88c.54 0 .8.24.8.72 0 .74-.32 1.56-.86 2.04l-4.18 3.86 5.14 5.06c.12.12.18.28.18.5 0 1.04-.62 2.06-1.26 2.06-.26 0-.56-.16-.86-.5l-5.54-5.6v3.92c0 1.1-.7 2.18-1.4 2.18s-1.38-1.22-1.38-1.6V19.18c0-.64 1.02-1.3 2-1.3.52 0 .78.24.78.72v4.46l4.86-4.5c.46-.42 1.1-.68 1.72-.68zm7.72.12c1.84 0 3.32.86 4.08 2.22.38.68.56 1.44.56 2.3 0 1.5-.88 2.92-2.38 3.8l2.42 3.3c.1.16.16.32.16.5 0 .98-.66 2-1.28 2-.3 0-.58-.2-.88-.6l-3.16-4.5h-1.78v2.92c0 1.1-.7 2.18-1.4 2.18s-1.38-1.26-1.38-1.6V19.3c0-.64 1.02-1.3 2-1.3zm-.08 2.6h-2.18v3.86h2.18c1.12 0 2.02-.86 2.02-1.92 0-1.12-.84-1.94-2.02-1.94z"/></symbol>
<symbol viewBox="0 0 64 64" id="more"><defs><path id="a" d="M32 21c2.75 0 5-2.25 5-5s-2.25-5-5-5-5 2.25-5 5 2.25 5 5 5zm0 6c-2.75 0-5 2.25-5 5s2.25 5 5 5 5-2.25 5-5-2.25-5-5-5zm0 16c-2.75 0-5 2.25-5 5s2.25 5 5 5 5-2.25 5-5-2.25-5-5-5z"/></defs><use transform="rotate(90 32 32)" xlink:href="#a"/></symbol>
<symbol viewBox="0 0 64 64" id="music"><path d="M28 6a8 8 0 0 0-8 8v27.52A9 9 0 1 0 24 49V22h30v19.52A9 9 0 1 0 58 49V6H28zM15 54a5 5 0 1 1 0-10 5 5 0 0 1 0 10zm34 0a5 5 0 1 1 0-10 5 5 0 0 1 0 10zM24 18v-4a4 4 0 0 1 4-4h26v8H24z"/></symbol>
<symbol viewBox="0 0 64 64" id="open"><path d="M28 8a2 2 0 1 1 0 4H15.63A3.63 3.63 0 0 0 12 15.66v32.75A3.64 3.64 0 0 0 15.63 52H48.3a3.64 3.64 0 0 0 3.63-3.63V36a2 2 0 1 1 4 0v12.41A7.64 7.64 0 0 1 48.3 56H15.63A7.64 7.64 0 0 1 8 48.41V15.66A7.63 7.63 0 0 1 15.63 8H28zm28.28-4a3.65 3.65 0 0 1 3.64 3.63v14.8a2 2 0 1 1-4 0V10.69L34.79 31.83a2 2 0 0 1-1.42.58 2 2 0 0 1-1.37-.58A2 2 0 0 1 32 29L53 8H41.48a2 2 0 1 1 0-4h14.8z"/></symbol>
<symbol viewBox="0 0 64 64" id="org-chart"><path d="M32 8c5.523 0 10 4.477 10 10 0 4.838-3.435 8.873-7.999 9.8L34 33h13a4 4 0 0 1 3.995 3.8L51 37l.001 5.29a7 7 0 1 1-4.001 0V37H34l.001 5.29a7 7 0 1 1-4.001 0V37H17l.001 5.29a7 7 0 1 1-4.001 0V37a4 4 0 0 1 3.8-3.995L17 33h13v-5.2c-4.564-.927-8-4.962-8-9.8 0-5.523 4.477-10 10-10zM15 46a3 3 0 1 0 0 6 3 3 0 0 0 0-6zm17 0a3 3 0 1 0 0 6 3 3 0 0 0 0-6zm17 0a3 3 0 1 0 0 6 3 3 0 0 0 0-6zM32 12a6 6 0 1 0 0 12 6 6 0 0 0 0-12z"/></symbol>
<symbol viewBox="0 0 64 64" id="payment"><path d="M44 8a8 8 0 0 1 7.93 6.91c.044.362.067.726.07 1.09a8 8 0 0 1 8 8v24a8 8 0 0 1-8 8H12a8 8 0 0 1-8-8V14a6 6 0 0 1 6-6zM8 19.65V48a4 4 0 0 0 4 4h40a4 4 0 0 0 4-4v-4H46a8 8 0 1 1 0-16h10v-4a4 4 0 0 0-4-4H10a5.8 5.8 0 0 1-2-.35zM56 32H46a4 4 0 1 0 0 8h10v-8zm-10 2a2 2 0 1 1 0 4 2 2 0 0 1 0-4zm-2-22H10a2 2 0 0 0 0 4h38a3.882 3.882 0 0 0-.18-1.19l-.067-.198A4 4 0 0 0 44 12z"/></symbol>
<symbol viewBox="0 0 64 64" id="pen"><path d="M51.12 12.88c-4.3-4.29-8.58-5.56-10.92-3.22L12.07 37.8l-.16.15a2.26 2.26 0 0 0-.28.35c-1.54 2.22-2.55 9.29-3.12 15a2 2 0 0 0 2 2.2h.2c5.71-.57 12.78-1.58 15-3.12a2.26 2.26 0 0 0 .35-.28l28.28-28.29c2.34-2.35 1.07-6.63-3.22-10.93zM12.76 51.24a71.59 71.59 0 0 1 1.69-9.62 35.94 35.94 0 0 1 7.93 7.93 71.59 71.59 0 0 1-9.62 1.69zM51.51 21l-26 26a32.82 32.82 0 0 0-3.93-4.56A32.12 32.12 0 0 0 17 38.51l26-26c.45-.17 2.61.51 5.3 3.2 2.69 2.69 3.36 4.85 3.21 5.29z"/></symbol>
<symbol viewBox="0 0 64 64" id="phone"><path d="M56.426 41.187l-6.605-6.612c-2.1-2.1-5.53-2.1-7.628 0l-2.76 2.76a1.407 1.407 0 0 1-1.971 0L26.669 26.542a1.406 1.406 0 0 1 0-1.97l2.76-2.76a5.406 5.406 0 0 0 0-7.626l-6.613-6.613a5.407 5.407 0 0 0-7.627 0l-1.25 1.265c-8.796 8.795-5.729 19.983 7.608 33.309l.36.344.698.69c13 12.71 23.952 15.507 32.588 6.873l1.235-1.243a5.406 5.406 0 0 0-.002-7.625zm-2.833 4.803l-1.233 1.24c-6.678 6.678-15.32 4.47-26.95-6.9l-.718-.709-.352-.336c-11.826-11.817-14.33-20.632-7.767-27.42l1.453-1.471c.528-.528 1.425-.528 1.962.009l6.613 6.612a1.406 1.406 0 0 1 0 1.97l-2.76 2.76a5.406 5.406 0 0 0 0 7.627l10.792 10.79a5.407 5.407 0 0 0 7.628 0l2.76-2.759a1.407 1.407 0 0 1 1.97 0l6.606 6.612c.501.502.535 1.316.1 1.859l-.104.116z"/></symbol>
<symbol viewBox="0 0 64 64" id="pie-chart"><path d="M28.62 14.25a2 2 0 0 1 2 2v18.13h18.13a2 2 0 0 1 2 2c-.011 12.216-9.914 22.114-22.13 22.12-12.036-.256-21.66-10.086-21.66-22.125s9.624-21.87 21.66-22.125zm-2 4.11c-9.444 1.037-16.486 9.188-16.14 18.682.346 9.495 7.963 17.112 17.458 17.458 9.494.346 17.645-6.696 18.682-16.14h-18a2 2 0 0 1-2-2v-18zM36.38 6.5c12.21.017 22.103 9.91 22.12 22.12a2 2 0 0 1-2 2H36.38a2 2 0 0 1-2-2V8.5a2 2 0 0 1 2-2zm2 4.12v16h16a18.18 18.18 0 0 0-16-16z"/></symbol>
<symbol viewBox="0 0 64 64" id="place"><path d="M32 4a20 20 0 0 1 20 20c0 12.49-13.63 28.11-17.81 32.55a3 3 0 0 1-2.19 1l-.207-.007a3 3 0 0 1-1.983-.943C25.63 52.11 12 36.49 12 24c0-11.046 8.954-20 20-20zm0 4c-8.837 0-16 7.163-16 16 0 10.53 12.07 24.73 16 29.07C35.93 48.73 48 34.53 48 24c0-8.837-7.163-16-16-16zm0 6a10 10 0 0 1 10 10c0 5.523-4.477 10-10 10s-10-4.477-10-10 4.477-10 10-10zm0 4a6 6 0 1 0 0 12 6 6 0 0 0 0-12z"/></symbol>
<symbol viewBox="0 0 64 64" id="play"><path d="M18 54.75a6.09 6.09 0 0 1-2.9-.75 5.93 5.93 0 0 1-3.1-5.26V15.26a6 6 0 0 1 9.16-5.11l29.91 16.78a6 6 0 0 1 0 10.14l-.09.06-29.82 16.72c-.95.588-2.043.9-3.16.9zm0-41.5a2.11 2.11 0 0 0-1 .26 2 2 0 0 0-1 1.75v33.48a2 2 0 0 0 3.07 1.69h.09L49 33.67a2 2 0 0 0 0-3.34L19.07 13.57a2 2 0 0 0-1.07-.32z"/></symbol>
<symbol viewBox="0 0 64 64" id="police"><path d="M48.43 7.59l5 5a2 2 0 0 1 0 2.85c-2.27 2.18-1.7 5.54-.59 10.84A42.42 42.42 0 0 1 54 35c0 8.56-8.08 19.11-21.59 22a1.84 1.84 0 0 1-.41 0 1.84 1.84 0 0 1-.41 0C18.08 54.11 10 43.56 10 35a42.42 42.42 0 0 1 1.2-8.72c1.11-5.3 1.68-8.66-.59-10.84a2 2 0 0 1 0-2.85l5-5a2 2 0 0 1 2.35-.36 13.21 13.21 0 0 0 13.13 0 2 2 0 0 1 1.86 0 13.21 13.21 0 0 0 13.13 0 2 2 0 0 1 2.35.36zM32 11.23a16.89 16.89 0 0 1-14.59.19l-2.72 2.71c2.38 3.67 1.39 8.39.43 13A39.37 39.37 0 0 0 14 35c0 6.73 6.87 15.43 18 18 11.13-2.52 18-11.22 18-18a39.37 39.37 0 0 0-1.12-7.9l-.157-.724c-.939-4.35-1.715-8.77.587-12.276l-2.72-2.71A16.89 16.89 0 0 1 32 11.23zm-.04 6.992a2 2 0 0 1 1.79 1.108l2.72 5.5 6.06.88a2 2 0 0 1 1.11 3.41l-4.35 4.28 1 6a2 2 0 0 1-2 2.34l.07.04a2.1 2.1 0 0 1-.94-.23L32 38.7l-5.42 2.85a2 2 0 0 1-2.11-.15 2 2 0 0 1-.8-2l1-6-4.39-4.28a2 2 0 0 1 1.11-3.41l6.06-.88 2.72-5.5a2 2 0 0 1 1.79-1.108zM32 24.74l-1.38 2.8a2 2 0 0 1-1.51 1.1l-3.1.45 2.24 2.18a2 2 0 0 1 .58 1.73l-.53 3.08 2.77-1.45c.29-.14.609-.206.93-.19a1.91 1.91 0 0 1 .93.23l2.77 1.45-.53-3.12a2 2 0 0 1 .58-1.77L38 29.09l-3.1-.45a2 2 0 0 1-1.51-1.1L32 24.74z"/></symbol>
<symbol viewBox="0 0 64 64" id="position"><path d="M4.683 29.9L53.21 8.149a2 2 0 0 1 2.643 2.643L34.1 59.317a2 2 0 0 1-3.722-.186L24 40 4.869 33.623a2 2 0 0 1-.186-3.722zm6.32 1.551l14.262 4.754a4 4 0 0 1 2.53 2.53l4.754 14.262 17.506-39.052-39.052 17.506z"/></symbol>
<symbol viewBox="0 0 64 64" id="pulse"><path d="M17.252 21.029c.818-1.472 2.951-1.324 3.587.183l.058.156 4.562 13.685 2.793-5.024a2 2 0 0 1 1.582-1.022L30 29h24a2 2 0 0 1 .15 3.995L54 33H31.176l-4.428 7.971c-.818 1.472-2.951 1.324-3.587-.183l-.058-.156-4.563-13.686-2.792 5.025a2 2 0 0 1-1.582 1.022L14 33h-4a2 2 0 0 1-.15-3.995L10 29h2.822l4.43-7.971z"/></symbol>
<symbol viewBox="0 0 64 64" id="question"><path d="M31.912 40.408l6.592-7.04.64-.697c4.558-5.023 6.08-8.118 6.08-11.975 0-2.112-.512-4.096-1.6-5.824-2.112-3.456-6.144-5.632-11.2-5.632-5.32 0-10.516 2.753-13.616 7.183l-.208.305c-.448.64-.64 1.216-.64 1.664 0 1.088 1.856 4.544 3.904 4.544.384 0 .768-.128 1.152-.384.32-.256.832-.768 1.536-1.536 2.752-3.072 4.608-4.224 7.104-4.224 2.88 0 4.992 1.92 4.992 4.48 0 2.24-1.216 4.352-4.096 7.488l-6.208 6.592c-.448.576-.704 1.088-.704 1.6s.32 1.344.96 2.432c.96 1.472 1.984 2.24 3.072 2.24.704 0 1.408-.384 2.24-1.216zm-1.6 14.976c-2.496 0-4.864-4.16-4.864-5.76 0-2.24 3.648-4.608 7.168-4.608 1.856 0 2.816.832 2.816 2.56 0 2.624-1.216 5.312-2.752 6.72-.768.704-1.536 1.088-2.368 1.088z"/></symbol>
<symbol viewBox="0 0 64 64" id="recycle"><path d="M48.434 32.187l5.09 8.82a6 6 0 0 1-5.2 9h-10.08l.83.83a2 2 0 1 1-2.82 2.83l-3.83-3.82a2.61 2.61 0 0 1 0-3.68l3.83-3.83a2 2 0 0 1 2.82 2.83l-.84.84h10.09a2 2 0 0 0 1.73-3l-5.09-8.82a2.003 2.003 0 1 1 3.47-2zm-27.55-4.61a2.61 2.61 0 0 1 1.22 1.58l1.39 5.23a2 2 0 0 1-1.93 2.52 2 2 0 0 1-1.93-1.49l-.3-1.13-5 8.72a2 2 0 0 0 1.73 3h10.1a2 2 0 1 1 0 4h-10.16a6 6 0 0 1-5.2-9l5-8.73-1.14.31a2 2 0 1 1-1-3.86l5.22-1.4a2.56 2.56 0 0 1 2 .25zM32.164 10a6 6 0 0 1 5.2 3.007l5 8.73.3-1.14a2 2 0 0 1 3.87 1l.04.04-1.41 5.22a2.6 2.6 0 0 1-3.19 1.84l-5.22-1.4a2 2 0 0 1 1-3.86l1.14.31-5-8.74a2 2 0 0 0-3.46 0l-5.1 8.82a2 2 0 1 1-3.46-2l5.09-8.82a6 6 0 0 1 5.2-3.007z"/></symbol>
<symbol viewBox="0 0 64 64" id="refresh"><path d="M53 38.6c-3.385 10.765-14.367 17.223-25.42 14.949-11.054-2.275-18.594-12.544-17.454-23.77C11.266 18.55 20.716 10.006 32 9.998a21.761 21.761 0 0 1 16.37 7.311l.63-4.26a2.02 2.02 0 0 1 4 .57L51.73 22a3 3 0 0 1-3 2.51 3.11 3.11 0 0 1-.43 0l-9-1.28a2.02 2.02 0 1 1 .57-4l5.54.79A17.78 17.78 0 0 0 32 14c-9.233.005-16.966 6.995-17.899 16.181-.933 9.186 5.236 17.588 14.28 19.45C37.425 51.49 46.41 46.208 49.18 37.4A2.002 2.002 0 1 1 53 38.6z"/></symbol>
<symbol viewBox="0 0 64 64" id="replace"><path d="M22.68 30.66a2.001 2.001 0 0 1 0 2.83l-8.21 8.21H54a2 2 0 1 1 0 4H14.47l8.21 8.21a2 2 0 0 1-2.83 2.83L9.39 46.27a3.64 3.64 0 0 1 0-5.15l10.46-10.46a2.001 2.001 0 0 1 2.83 0zm21.47-23l10.46 10.46a3.65 3.65 0 0 1 .01 5.15L44.15 33.74a2 2 0 1 1-2.83-2.83l8.21-8.21H10a2 2 0 1 1 0-4h39.53l-8.21-8.22a2 2 0 0 1 2.83-2.82z"/></symbol>
<symbol viewBox="0 0 64 64" id="return"><path d="M60 28v12a8 8 0 0 1-8 8H10.44l8.29 8.29a2 2 0 1 1-2.83 2.83L5.44 48.65a3.65 3.65 0 0 1 0-5.15L15.9 33a2 2 0 1 1 2.83 2.82L10.6 44H52a4 4 0 0 0 4-4V28a4 4 0 0 0-4-4h-9.18a2 2 0 1 1 0-4H52a8 8 0 0 1 8 8z"/></symbol>
<symbol viewBox="0 0 64 64" id="robot"><path d="M42 3.986a4 4 0 0 1 2 7.464V16h2a8 8 0 0 1 8 8v6a4 4 0 1 1 0 8v12a8 8 0 0 1-8 8H18a8 8 0 0 1-8-8V38a4 4 0 1 1 0-8v-6a8 8 0 0 1 8-8h2v-4.55a4 4 0 1 1 4 0V16h16v-4.55a4 4 0 0 1 2-7.464zM46 20H18a4 4 0 0 0-4 4v26a4 4 0 0 0 4 4h28a4 4 0 0 0 4-4V24a4 4 0 0 0-4-4zm-5.13 22.35a2 2 0 1 1 2.26 3.3C40.9 47.17 36.95 48 32 48c-4.95 0-8.9-.83-11.13-2.35a2 2 0 1 1 2.26-3.3C23.7 42.73 26 44 32 44c6 0 8.3-1.27 8.87-1.65zM24 26a6 6 0 1 1 0 12 6 6 0 0 1 0-12zm16 0a6 6 0 1 1 0 12 6 6 0 0 1 0-12zm-16 4a2 2 0 1 0 0 4 2 2 0 0 0 0-4zm16 0a2 2 0 1 0 0 4 2 2 0 0 0 0-4z"/></symbol>
<symbol viewBox="0 0 64 64" id="router"><path d="M52 32a8 8 0 0 1 8 8v6a8 8 0 0 1-8 8H12a8 8 0 0 1-8-8v-6a8 8 0 0 1 8-8zm0 4H12a4 4 0 0 0-4 4v6a4 4 0 0 0 4 4h40a4 4 0 0 0 4-4v-6a4 4 0 0 0-4-4zm-24 5a2 2 0 1 1 0 4H16a2 2 0 1 1 0-4zm12 0a2 2 0 1 1 0 4 2 2 0 0 1 0-4zm8 0a2 2 0 1 1 0 4 2 2 0 0 1 0-4zM32 18a11.9 11.9 0 0 1 8.42 3.49A2 2 0 0 1 39 24.9a2 2 0 0 1-1.41-.59 7.92 7.92 0 0 0-11.18 0 2 2 0 1 1-2.83-2.82A11.9 11.9 0 0 1 32 18zm-16.24-4c9.333-8.042 23.147-8.042 32.48 0a2 2 0 0 1-1.3 3.54 1.94 1.94 0 0 1-1.3-.48c-7.841-6.749-19.439-6.749-27.28 0V17a2 2 0 1 1-2.6-3z"/></symbol>
<symbol viewBox="0 0 64 64" id="search"><path d="M55.41 54.59L45.19 44.36c7.134-8.645 6.222-21.369-2.073-28.907-8.294-7.539-21.047-7.235-28.973.691-7.926 7.926-8.23 20.679-.691 28.973 7.538 8.295 20.262 9.207 28.907 2.073l10.23 10.22a2 2 0 0 0 2.82-2.82zM12 31c0-9.389 7.611-17 17-17s17 7.611 17 17-7.611 17-17 17-17-7.611-17-17z"/></symbol>
<symbol viewBox="0 0 64 64" id="security"><path d="M33.15 7.36a68.33 68.33 0 0 0 19.42 9.72A2 2 0 0 1 54 19c0 18.88-7.08 32.26-21 39.76a2 2 0 0 1-1 .24 2 2 0 0 1-.95-.24c-14-7.5-21-20.88-21-39.76a2 2 0 0 1 1.43-1.92 68.33 68.33 0 0 0 19.37-9.72 2 2 0 0 1 2.3 0zM32 11.46a72.4 72.4 0 0 1-18 9c.34 16.31 6.24 27.54 18 34.25C43.76 48 49.66 36.77 50 20.46a72.4 72.4 0 0 1-18-9zm7.488 12.877A2 2 0 0 1 40.53 27.8l-9.43 11a2 2 0 0 1-1.44.7h-.02a2 2 0 0 1-1.41-.59l-4.72-4.71a2.001 2.001 0 0 1 2.83-2.83l3.19 3.19 8-9.36a2 2 0 0 1 1.958-.863z"/></symbol>
<symbol viewBox="0 0 64 64" id="server"><path d="M46 6a8 8 0 0 1 8 8v36a8 8 0 0 1-8 8H18a8 8 0 0 1-8-8V14a8 8 0 0 1 8-8zm4 36H14v8a4 4 0 0 0 4 4h28a4 4 0 0 0 4-4v-8zm-24 4a2 2 0 1 1 0 4h-6a2 2 0 1 1 0-4zm24-20H14v12h36V26zm-24 4a2 2 0 1 1 0 4h-6a2 2 0 1 1 0-4zm20-20H18a4 4 0 0 0-4 4v8h36v-8a4 4 0 0 0-4-4zm-20 4a2 2 0 1 1 0 4h-6a2 2 0 1 1 0-4z"/></symbol>
<symbol viewBox="0 0 64 64" id="services"><path d="M13 46a5 5 0 1 1 0 10 5 5 0 0 1 0-10zm20 0a5 5 0 1 1 0 10 5 5 0 0 1 0-10zm18 0a5 5 0 1 1 0 10 5 5 0 0 1 0-10zM13 27a5 5 0 1 1 0 10 5 5 0 0 1 0-10zm19 0a5 5 0 1 1 0 10 5 5 0 0 1 0-10zm19 0a5 5 0 1 1 0 10 5 5 0 0 1 0-10zM13 8a5 5 0 1 1 0 10 5 5 0 0 1 0-10zm19 0a5 5 0 1 1 0 10 5 5 0 0 1 0-10zm19 0a5 5 0 1 1 0 10 5 5 0 0 1 0-10z"/></symbol>
<symbol viewBox="0 0 64 64" id="settings"><path d="M36 4a4 4 0 0 1 4 4v3.5a21.59 21.59 0 0 1 5.78 3.34l3.05-1.77a4 4 0 0 1 5.48 1.48c.69 1.26 1.75 3.05 2.69 4.66l1.26 2.26a4 4 0 0 1-1.47 5.46l-3 1.76a21.2 21.2 0 0 1 0 6.62l3 1.76a4 4 0 0 1 1.86 2.44 3.94 3.94 0 0 1-.41 3.04c-.78 1.3-1.83 3.15-2.78 4.81l-1.21 2.11a4 4 0 0 1-5.46 1.46l-3.06-1.77A21.87 21.87 0 0 1 40 52.5V56a4 4 0 0 1-1.18 2.84A4 4 0 0 1 36 60h-8a4 4 0 0 1-4-4v-3.5a21.83 21.83 0 0 1-5.77-3.33l-3 1.76a4 4 0 0 1-5.48-1.48C9 48.16 8 46.32 7 44.68l-1.21-2.15a4 4 0 0 1 1.47-5.46l3-1.75A22.15 22.15 0 0 1 10 32a21.91 21.91 0 0 1 .26-3.31l-3.05-1.76a4 4 0 0 1-1.45-5.48l2.65-4.58 1.34-2.34a4 4 0 0 1 5.46-1.46l3.06 1.77A21.59 21.59 0 0 1 24 11.5V8a4 4 0 0 1 1.16-2.84A3.82 3.82 0 0 1 28 4zm0 4h-8v6.38l-1.4.44a17.72 17.72 0 0 0-6.75 3.92l-1.08 1-5.56-3.2-1.34 2.32c-.92 1.61-1.93 3.37-2.66 4.61l5.54 3.19-.31 1.44a17.55 17.55 0 0 0 0 7.81l.31 1.43-5.53 3.2 1.23 2.12a751.25 751.25 0 0 1 2.375 4.108l.395.692 5.55-3.21 1.08 1a17.72 17.72 0 0 0 6.75 3.92l1.4.44V56h8.01v-6.38l1.4-.44a17.72 17.72 0 0 0 6.75-3.92l1.08-1 5.56 3.2 1.2-2.1c1-1.66 2-3.53 2.79-4.85l-.018.03-5.522-3.19.31-1.43a17.59 17.59 0 0 0 0-7.82l-.31-1.43 5.53-3.2-1.3-2.24-2.7-4.69-5.55 3.21-1.08-1a17.72 17.72 0 0 0-6.75-3.92l-1.4-.44V8zm-4 14a10 10 0 0 1 10 10c0 5.523-4.477 10-10 10s-10-4.477-10-10 4.477-10 10-10zm0 4a6 6 0 1 0 0 12 6 6 0 0 0 0-12z"/></symbol>
<symbol viewBox="0 0 64 64" id="shopping"><path d="M55.33 49.19l-3.15-29.61a4 4 0 0 0-4-3.58H44c0-6.627-5.373-12-12-12S20 9.373 20 16h-4.2a4 4 0 0 0-4 3.58L8.67 49.2a8 8 0 0 0 8 8.8h30.7a8 8 0 0 0 8-8.81h-.04zM32 8a8 8 0 0 1 8 8H24a8 8 0 0 1 8-8zm18.34 44.68a4 4 0 0 1-3 1.32H16.63a4 4 0 0 1-4-4.38L15.8 20H20v8a2 2 0 1 0 4 0v-8h16v8a2 2 0 1 0 4 0v-8h4.2l3.15 29.6a4 4 0 0 1-1.01 3.08z"/></symbol>
<symbol viewBox="0 0 64 64" id="shoppingcart"><path d="M47.44 44a6 6 0 0 0 5.82-4.54L57.88 21A4 4 0 0 0 54 16H17.24l-1-4.78A4 4 0 0 0 12.36 8H6a2 2 0 1 0 0 4h6.36l7.3 36.48a6 6 0 1 0 8 7.52h14.7a6 6 0 1 0 0-4H27.65a6 6 0 0 0-4-3.75L22.84 44h24.6zM54 20l-4.62 18.49A2 2 0 0 1 47.44 40H22l-4-20h36zM22 56a2 2 0 1 1 0-4 2 2 0 1 1 0 4zm26-4a2 2 0 1 1 0 4 2 2 0 0 1 0-4z"/></symbol>
<symbol viewBox="0 0 64 64" id="shuffle"><path d="M7.32 18.28c11 0 16.4 4.27 20.86 9 .45.48.9 1 1.35 1.47.29.33.58.67.88 1 .6.67 1.19 1.34 1.8 2 .45.49.91 1 1.38 1.45 3.93 4 8.71 7.17 17.91 7.54l-2.15-2.15-.51-.59a2.001 2.001 0 0 1 2.83-2.83l5.68 5.68a2.89 2.89 0 0 1 0 4.15l-5.68 5.69a2 2 0 0 1-1.42.58 2 2 0 0 1-1.41-.58 2 2 0 0 1 0-2.83l3.08-3.08c-10.78-.32-16.58-4.22-21-8.57-.48-.48-.94-1-1.39-1.44-.74-.79-1.43-1.58-2.12-2.35l-.58-.65c-.45-.51-.89-1-1.34-1.49-4.15-4.48-8.56-8-18.17-8a2 2 0 1 1 0-4zm18.2 14.95l.43.48.9 1c.44.53.89 1.02 1.36 1.52-4.45 4.76-9.84 9-20.85 9a2 2 0 1 1 0-4c9.6 0 14-3.52 18.16-8zm26.14-20.39l5.68 5.68a2.89 2.89 0 0 1 .01 4.09l-5.68 5.69a2 2 0 0 1-1.42.58 2 2 0 0 1-1.41-.58 2 2 0 0 1 0-2.83l2.71-2.71c-9.21.37-14 3.57-17.92 7.54-.45-.48-.89-1-1.34-1.48l-.35-.4-1-1.11c4.38-4.35 10.17-8.25 20.95-8.57L50 16.84l-1.17-1.17a2.001 2.001 0 0 1 2.83-2.83z"/></symbol>
<symbol viewBox="0 0 64 64" id="signal"><path d="M32 32a2 2 0 0 1 2 2v22a2 2 0 1 1-4 0V34a2 2 0 0 1 2-2zM43.9 9.27a2.001 2.001 0 0 1 2.83 0 18 18 0 0 1 0 25.46 2 2 0 1 1-2.83-2.83 14 14 0 0 0 0-19.8 2.001 2.001 0 0 1 0-2.83zm-26.63 0a2.001 2.001 0 1 1 2.83 2.83A13.92 13.92 0 0 0 16 22a13.92 13.92 0 0 0 4.1 9.9 2.001 2.001 0 0 1-2.83 2.83 18 18 0 0 1 0-25.46zm7.075 5.073a2 2 0 0 1 1.415 3.417 6 6 0 0 0 0 8.48 2 2 0 1 1-2.83 2.83c-3.904-3.905-3.904-10.235 0-14.14a2 2 0 0 1 1.415-.587zm14.792.07a2.001 2.001 0 0 1 1.933.517c3.904 3.905 3.904 10.235 0 14.14a2.001 2.001 0 0 1-2.83-2.83 6 6 0 0 0 0-8.48 2.001 2.001 0 0 1 .897-3.348zM32 19a3 3 0 1 1 0 6 3 3 0 0 1 0-6z"/></symbol>
<symbol viewBox="0 0 64 64" id="sim-card"><path d="M33.51 4a8 8 0 0 1 5.66 2.34l10.49 10.49A8 8 0 0 1 52 22.49V52a8 8 0 0 1-8 8H20a8 8 0 0 1-8-8V12a8 8 0 0 1 8-8zm0 4H20a4 4 0 0 0-4 4v40a4 4 0 0 0 4 4h24a4 4 0 0 0 4-4V22.49a4 4 0 0 0-1.17-2.83L36.34 9.17A4 4 0 0 0 33.51 8zM40 32a4 4 0 0 1 4 4v12a4 4 0 0 1-4 4H24a4 4 0 0 1-4-4V36a4 4 0 0 1 4-4zm-10 4h-6v12h6V36zm10 8h-6v4h6v-4zm0-8h-6v4h6v-4z"/></symbol>
<symbol viewBox="0 0 64 64" id="speedometer"><path d="M60 32c0 7.827-3.211 14.904-8.389 19.985l-2.828-2.83A23.928 23.928 0 0 0 56 32c0-4.204-1.08-8.156-2.98-11.592l2.927-2.927A27.87 27.87 0 0 1 60 32zM32 4a27.87 27.87 0 0 1 14.519 4.053l-2.927 2.927A23.892 23.892 0 0 0 32 8C18.745 8 8 18.745 8 32a23.928 23.928 0 0 0 7.217 17.156l-2.83 2.828C7.212 46.903 4 39.826 4 32 4 16.536 16.536 4 32 4zm1.414 29.414l20-20a2 2 0 0 0-2.828-2.828l-20 20a2 2 0 0 0 2.828 2.828z"/></symbol>
<symbol viewBox="0 0 64 64" id="star-filled"><path d="M55.4 28.49l-10.25 10 2.42 14.1a2 2 0 0 1-2 2.34 1.913 1.913 0 0 1-.93-.23L32 48l-12.67 6.69a2 2 0 0 1-2.1-.15 2 2 0 0 1-.8-2l2.42-14.1L8.6 28.49a2 2 0 0 1 1.11-3.41L23.87 23l6.34-12.83a2 2 0 0 1 3.58 0L40.13 23l14.16 2.06a2 2 0 0 1 1.11 3.41v.02z"/></symbol>
<symbol viewBox="0 0 64 64" id="star"><path d="M45.6 54.92a1.911 1.911 0 0 1-.93-.23L32 48l-12.67 6.69a2 2 0 0 1-2.1-.15 2 2 0 0 1-.8-2l2.42-14.1L8.6 28.49a2 2 0 0 1 1.11-3.41L23.87 23l6.34-12.83a2 2 0 0 1 3.58 0L40.13 23l14.16 2.06a2 2 0 0 1 1.11 3.41l-10.25 10 2.42 14.1a2 2 0 0 1-2 2.34l.03.01zM32 43.78a2 2 0 0 1 .93.22l10 5.27L41 38.12a2 2 0 0 1 .57-1.77l8.1-7.89-11.16-1.63A2 2 0 0 1 37 25.74L32 15.6l-5 10.14a2 2 0 0 1-1.5 1.09l-11.2 1.63 8.1 7.89a2 2 0 0 1 .6 1.77l-1.94 11.15 10-5.27a2 2 0 0 1 .94-.22z"/></symbol>
<symbol viewBox="0 0 64 64" id="statistics"><path d="M58 52h-6V12a4 4 0 0 0-4-4h-8a4 4 0 0 0-4 4v12h-8a4 4 0 0 0-4 4v4h-8a4 4 0 0 0-4 4v16H6a2 2 0 1 0 0 4h52a2 2 0 1 0 0-4zm-42 0V36h8v16h-8zm12 0V28h8v24h-8zm12 0V12h8v40h-8z"/></symbol>
<symbol viewBox="0 0 64 64" id="stop"><path d="M32 4a28 28 0 0 1 28 28c0 15.464-12.536 28-28 28S4 47.464 4 32 16.536 4 32 4zm0 4C18.745 8 8 18.745 8 32s10.745 24 24 24 24-10.745 24-24S45.255 8 32 8zm12 22a2 2 0 1 1 0 4H20a2 2 0 1 1 0-4h24z"/></symbol>
<symbol viewBox="0 0 64 64" id="store"><path d="M52 8a8 8 0 0 1 6 2.69A8 8 0 0 1 60 16v32a8 8 0 0 1-8 8H12a8 8 0 0 1-8-8V16a8 8 0 0 1 8-8zm-6 28h-4a2 2 0 0 0-2 2v14h8V38a2 2 0 0 0-2-2zm10-10.54a6 6 0 0 1-8 0 6 6 0 0 1-8 0 6 6 0 0 1-8 0 6 6 0 0 1-8 0 6 6 0 0 1-8 0 6 6 0 0 1-8 0V48a4 4 0 0 0 4 4h24V38a6 6 0 0 1 6-6h4a6 6 0 0 1 6 6v14a4 4 0 0 0 4-4zM26 32a6 6 0 0 1 6 6v4a6 6 0 0 1-6 6h-8a6 6 0 0 1-6-6v-4a6 6 0 0 1 6-6zm0 4h-8a2 2 0 0 0-2 2v4a2 2 0 0 0 2 2h8a2 2 0 0 0 2-2v-4a2 2 0 0 0-2-2zm28-23h-4v8a2 2 0 1 0 4 0v-8zm-8 0h-4v8a2 2 0 1 0 4 0v-8zm-8 0h-4v8a2 2 0 1 0 4 0v-8zm-8 0h-4v8a2 2 0 1 0 4 0v-8zm-8 0h-4v8a2 2 0 1 0 4 0v-8zm-8 0h-4v8a2 2 0 1 0 4 0v-8z"/></symbol>
<symbol viewBox="0 0 64 64" id="support"><path d="M45.61 30.36A15.78 15.78 0 0 0 48 22a16 16 0 1 0-5.48 12c7.528.28 13.485 6.467 13.48 14v2a4 4 0 0 1-4 4H12a4 4 0 0 1-4-4v-2a14 14 0 0 1 4.76-10.52 26.11 26.11 0 0 0 15.65 8.26 4 4 0 1 0 .29-4 22.11 22.11 0 0 1-14.57-8.9A21.83 21.83 0 0 1 10 20a2 2 0 1 0-4 0 25.74 25.74 0 0 0 4.32 14.31A18.06 18.06 0 0 0 4 48v2a8 8 0 0 0 8 8h40a8 8 0 0 0 8-8v-2a18 18 0 0 0-14.39-17.64zM32 34c-6.627 0-12-5.373-12-12s5.373-12 12-12 12 5.373 12 12a12 12 0 0 1-12 12z"/></symbol>
<symbol viewBox="0 0 64 64" id="svitsj"><path d="M10.44 44.31l5.05 2.55a2 2 0 1 1-1.79 3.57l-.7-.38a8.25 8.25 0 0 0 12 4.89 2.011 2.011 0 0 1 2 3.49h-.12a12.26 12.26 0 0 1-17.73-7.1l-.36.72A2 2 0 0 1 7 53.15a2 2 0 0 1-.9-.21 2 2 0 0 1-.89-2.68l2.54-5.06a2 2 0 0 1 2.69-.89zM30.25 8a6 6 0 0 1 6 6v2h8a6 6 0 0 1 6 6v26a6 6 0 0 1-6 6h-10.5a6 6 0 0 1-6-6v-2h-8a6 6 0 0 1-6-6V14a6 6 0 0 1 6-6zm16 34h-14.5v6a2 2 0 0 0 2 2h10.5a2 2 0 0 0 2-2v-6zM39 44a2 2 0 1 1 0 4 2 2 0 0 1 0-4zM27.75 34h-10v6a2 2 0 0 0 2 2h8v-8zM25 36a2 2 0 1 1 0 4 2 2 0 0 1 0-4zm19.25-16h-10.5a2 2 0 0 0-2 2v16h14.5V22a2 2 0 0 0-2-2zm-14-8h-10.5a2 2 0 0 0-2 2v16h10v-8a6 6 0 0 1 4.5-5.8V14a2 2 0 0 0-2-2zm19.364-7.124a12.26 12.26 0 0 1 7.166 7.794l.36-.72a2.001 2.001 0 0 1 3.58 1.79h.07l-2.54 5.06a2 2 0 0 1-1.79 1.1 2 2 0 0 1-.9-.21l-5.05-2.55a2 2 0 1 1 1.79-3.57l.75.38a8.25 8.25 0 0 0-12-4.89 2.011 2.011 0 0 1-2-3.49 12.26 12.26 0 0 1 10.564-.694z"/></symbol>
<symbol viewBox="0 0 64 64" id="sync"><path d="M12.4 35.4a20.54 20.54 0 0 0 37.8 7.68 22.59 22.59 0 0 0 1.16-2.17l-4.13 1a2.014 2.014 0 1 1-.97-3.91l8.12-1.94a2.95 2.95 0 0 1 3.53 2.17l1.93 8.12a2 2 0 0 1-1.48 2.45c-.15.04-.305.06-.46.06a2 2 0 0 1-1.9-1.54l-1.08-4.54a24.61 24.61 0 0 1-22.3 14.11C20.496 56.863 10.207 47.989 8.4 36a2.022 2.022 0 1 1 4-.6zM35.379 8.217A24.54 24.54 0 0 1 56.19 27.53a2 2 0 0 1-3.057 2.077 2 2 0 0 1-.863-1.267A20.54 20.54 0 0 0 15 21.28a18.77 18.77 0 0 0-1.21 2.13l4.15-.87a2.001 2.001 0 0 1 .81 3.92l-8.17 1.7a2.48 2.48 0 0 1-.61.07 2.94 2.94 0 0 1-2.87-2.34l-1.7-8.17a2.001 2.001 0 1 1 3.92-.81l.95 4.56A24.54 24.54 0 0 1 35.379 8.217z"/></symbol>
<symbol viewBox="0 0 64 64" id="table-view"><path d="M10.958 56C9.877 56 9 55.105 9 54c0-.078.004-.156.013-.232A3.377 3.377 0 0 1 9 53.474V10.526C9 9.131 9.895 8 11 8c.152 0 .3.021.443.062.15-.04.31-.062.474-.062h42.166C55.142 8 56 8.895 56 10c0 .08-.004.158-.013.235.009.095.013.192.013.291l-.001 3.449L56 14v.025l-.001 19.95L56 34v19.474c0 .1-.005.198-.014.295.01.075.014.153.014.231 0 1.105-.877 2-1.958 2zM52 52V36H34v16h17.999zM30 36H13v16h17V36zm21.999-4V16H34v16h17.999zM30 16H13v16h17V16z"/></symbol>
<symbol viewBox="0 0 64 64" id="tablet"><path d="M44 4a8 8 0 0 1 8 8v40a8 8 0 0 1-8 8H20a8 8 0 0 1-8-8V12a8 8 0 0 1 8-8zm4 44H16v4a4 4 0 0 0 4 4h24a4 4 0 0 0 4-4v-4zm-16 2a2 2 0 1 1 0 4 2 2 0 0 1 0-4zM44 8H20a4 4 0 0 0-4 4v32h32V12a4 4 0 0 0-4-4z"/></symbol>
<symbol viewBox="0 0 64 64" id="tags"><path d="M54.625 34.54a3.948 3.948 0 0 0-.496-.611l-23.077-23.07C29.546 9.355 26.569 8.07 24.434 8H11.758A3.617 3.617 0 0 0 8 11.555v12.876c.072 2.135 1.356 5.112 2.862 6.618L33.94 54.128c.186.186.39.354.602.496 2.534 1.976 6.21 1.825 8.531-.496l11.056-11.065c2.265-2.248 2.462-5.786.655-8.309l-.16-.214zM12.002 11.998h12.35c1.134.06 3.098.916 3.871 1.69l23.066 23.06.09.135.091.117c.766.982.693 2.378-.16 3.224L40.244 51.3c-.858.858-2.262.932-3.241.169l-.117-.092-.117-.078L13.692 28.22c-.731-.73-1.535-2.523-1.673-3.675l-.017-.196V11.998zM20.996 24A2.996 2.996 0 0 1 18 21.004 3.005 3.005 0 0 1 21.004 18 2.996 2.996 0 0 1 24 20.996 2.995 2.995 0 0 1 20.996 24z"/></symbol>
<symbol viewBox="0 0 64 64" id="time-waiting"><path d="M32 54a3 3 0 1 1 0 6 3 3 0 0 1 0-6zm18-7a3 3 0 1 1 0 6 3 3 0 0 1 0-6zm-36 0a3 3 0 1 1 0 6 3 3 0 0 1 0-6zm18-24a2 2 0 0 1 2 2v7h12a2 2 0 1 1 0 4H32a2 2 0 0 1-2-2v-9a2 2 0 0 1 2-2zM7 29a3 3 0 1 1 0 6 3 3 0 0 1 0-6zM32 4c8.505 0 15.35 2.522 20.414 7.586C57.478 16.65 60 23.496 60 32a2 2 0 1 1-4 0c0-7.495-2.145-13.316-6.414-17.586C45.316 10.144 39.496 8 32 8a2 2 0 1 1 0-4zm-18 7a3 3 0 1 1 0 6 3 3 0 0 1 0-6z"/></symbol>
<symbol viewBox="0 0 64 64" id="time"><path d="M32 4c15.464 0 28 12.536 28 28S47.464 60 32 60 4 47.464 4 32 16.536 4 32 4zm0 4C18.745 8 8 18.745 8 32s10.745 24 24 24 24-10.745 24-24S45.255 8 32 8zm0 8a2 2 0 0 1 2 2v16a2 2 0 0 1-.481 1.302l-6 7a2 2 0 1 1-3.038-2.604L30 33.26V18a2 2 0 0 1 2-2z"/></symbol>
<symbol viewBox="0 0 64 64" id="trash"><path d="M38 4a6 6 0 0 1 6 6v2h12a2 2 0 1 1 0 4h-4v38a6 6 0 0 1-6 6H18a6 6 0 0 1-6-6V16H8a2 2 0 1 1 0-4h12v-2a6 6 0 0 1 6-6zm10 12H16v38a2 2 0 0 0 2 2h28a2 2 0 0 0 2-2V16zm-24 6a2 2 0 0 1 2 2v24a2 2 0 1 1-4 0V24a2 2 0 0 1 2-2zm8 0a2 2 0 0 1 2 2v24a2 2 0 1 1-4 0V24a2 2 0 0 1 2-2zm8 0a2 2 0 0 1 2 2v24a2 2 0 1 1-4 0V24a2 2 0 0 1 2-2zM38 8H26a2 2 0 0 0-2 2v2h16v-2a2 2 0 0 0-2-2z"/></symbol>
<symbol viewBox="0 0 64 64" id="tv"><path d="M42 52a2 2 0 1 1 0 4H22a2 2 0 1 1 0-4zm10-40a8 8 0 0 1 8 8v22a8 8 0 0 1-8 8H12a8 8 0 0 1-8-8V20a8 8 0 0 1 8-8zm0 4H12a4 4 0 0 0-4 4v22a4 4 0 0 0 4 4h40a4 4 0 0 0 4-4V20a4 4 0 0 0-4-4zm-22.12 5c.75 0 1.12.33 1.12 1a3.61 3.61 0 0 1-.62 2.06A1.75 1.75 0 0 1 29 25h-4v13a3.61 3.61 0 0 1-.62 2.06A1.75 1.75 0 0 1 23 41c-.507 0-1.01-.36-1.51-1.08a2.33 2.33 0 0 1-.49-1.13V25h-4c-.507 0-1.02-.36-1.54-1.08a2.33 2.33 0 0 1-.49-1.13c0-.44.3-.85.91-1.22a3.62 3.62 0 0 1 2-.57zm5.78 0a.93.93 0 0 1 1 .67L41 36l4.33-13.5a2 2 0 0 1 1-1.05A3.3 3.3 0 0 1 48 21c.65 0 1 .32 1 1 0 .419-.07.835-.21 1.23l-5.53 15.94a3.84 3.84 0 0 1-.79 1.31 1.38 1.38 0 0 1-1 .48h-.78c-.46 0-.98-.31-1.46-1a3.51 3.51 0 0 1-.41-.78l-5.66-15.83a1.76 1.76 0 0 1-.16-.61 1.49 1.49 0 0 1 .83-1.19 3.25 3.25 0 0 1 1.83-.55z"/></symbol>
<symbol viewBox="0 0 64 64" id="twitter"><path d="M60 15.443a22.752 22.752 0 0 1-6.595 1.833 11.627 11.627 0 0 0 5.05-6.427 22.758 22.758 0 0 1-7.29 2.817A11.437 11.437 0 0 0 42.778 10c-6.35 0-11.49 5.194-11.49 11.61 0 .906.102 1.8.303 2.648-9.551-.486-18.017-5.103-23.683-12.13a11.71 11.71 0 0 0-1.556 5.839c0 4.028 2.026 7.581 5.106 9.664a11.328 11.328 0 0 1-5.207-1.449v.147c0 5.624 3.964 10.32 9.216 11.384-.964.26-1.982.408-3.024.408-.739 0-1.456-.068-2.161-.204 1.467 4.617 5.7 7.966 10.727 8.057a22.892 22.892 0 0 1-14.266 4.968c-.929 0-1.836-.057-2.743-.159C9.084 54.076 15.12 56 21.603 56c21.13 0 32.686-17.687 32.686-33.032 0-.498-.011-1.007-.033-1.505 2.261-1.64 4.199-3.689 5.744-6.02z"/></symbol>
<symbol viewBox="0 0 64 64" id="undo"><path d="M56.461 34.915c.002 12.437-9.3 22.908-21.65 24.373-12.35 1.464-23.842-6.54-26.75-18.633a2 2 0 1 1 3.89-.93c2.51 10.416 12.601 17.153 23.182 15.478C45.714 53.527 53.231 44 52.398 33.319c-.832-10.68-9.734-18.927-20.447-18.944a20 20 0 0 0-2.45.15l3 3a2 2 0 0 1-2.82 2.83l-5.91-5.91a2.9 2.9 0 0 1-.86-2.07 2.94 2.94 0 0 1 .86-2.07l5.91-5.9a2 2 0 0 1 2.78 2.83l-3.29 3.29a25 25 0 0 1 2.74-.15c13.55.011 24.534 10.99 24.55 24.54z"/></symbol>
<symbol viewBox="0 0 64 64" id="upload"><path d="M9.846 36C8.826 36 8 35.105 8 34V16c0-4.418 3.306-8 7.385-8h33.23C52.694 8 56 11.582 56 16v18c0 1.105-.827 2-1.846 2-1.02 0-1.846-.895-1.846-2V16c0-2.21-1.653-4-3.693-4h-33.23c-2.04 0-3.693 1.79-3.693 4v18c0 1.105-.826 2-1.846 2zM32 56a2 2 0 0 1-2-2V26.83l-8.59 8.58a2 2 0 0 1-2.82-2.82l11.29-11.3a3 3 0 0 1 4.24 0l11.29 11.3a2 2 0 0 1-2.82 2.82L34 26.83V54a2 2 0 0 1-2 2z"/></symbol>
<symbol viewBox="0 0 64 64" id="user-admin"><path d="M47 34a2 2 0 0 1 2 2v1.2a10.09 10.09 0 0 1 3.51 1.46l1.08-1.07a2 2 0 0 1 2.82 2.82l-1.07 1.08A10.09 10.09 0 0 1 56.8 45H58a2 2 0 1 1 0 4h-1.2a10.09 10.09 0 0 1-1.46 3.51l1.07 1.08a2 2 0 0 1-2.82 2.82l-1.08-1.07A10.09 10.09 0 0 1 49 56.8V58a2 2 0 1 1-4 0v-1.2a10.09 10.09 0 0 1-3.51-1.46l-1.08 1.07a2 2 0 1 1-2.82-2.82l1.07-1.08A10.09 10.09 0 0 1 37.2 49H36a2 2 0 1 1 0-4h1.2a10.09 10.09 0 0 1 1.46-3.51l-1.07-1.08a2 2 0 0 1 2.82-2.82l1.08 1.07A10.09 10.09 0 0 1 45 37.2V36a2 2 0 0 1 2-2zM32 6c8.837 0 16 7.163 16 16s-7.163 16-16 16a15.94 15.94 0 0 1-10.65-4.059c-.146.048-.3.08-.461.092a14.1 14.1 0 0 0-7.693 3.071c-1.556 1.26-2.86 2.908-3.852 4.874-.447.887-.869 2.098-1.095 3.286-.075.393-.12.763-.156 1.31l-.03.516-.031.719-.038 1.076c-.022.937.007 1.502.108 2l.042.157.11.34c.16.494.414.899.885 1.425.22.247.39.384.72.58.463.273.94.467 1.379.543l.074.011.19.023.646.054.334.004 1.221-.024 1.003-.008 1.788.006L31.999 54A2 2 0 0 1 32 58H20.073l-4.978-.01-1.023.003-1.647.03c-.184 0-.344-.003-.497-.01l-.301-.02-.604-.057-.238-.03-.227-.035c-.97-.167-1.883-.538-2.733-1.04a6.595 6.595 0 0 1-1.667-1.357c-.815-.91-1.359-1.776-1.71-2.857l-.12-.374a6.608 6.608 0 0 1-.093-.33l-.053-.231c-.153-.755-.205-1.457-.195-2.448L4 48.602l.047-1.249c.057-1.338.114-2.004.272-2.837.298-1.565.843-3.129 1.454-4.34 1.241-2.46 2.9-4.557 4.906-6.18a18.122 18.122 0 0 1 7.678-3.633A15.923 15.923 0 0 1 16 22c0-8.837 7.163-16 16-16zm15 35a6 6 0 1 0 0 12 6 6 0 0 0 0-12zM32 10c-6.627 0-12 5.373-12 12s5.373 12 12 12 12-5.373 12-12-5.373-12-12-12z"/></symbol>
<symbol viewBox="0 0 64 64" id="user-new"><path d="M32 6c8.837 0 16 7.163 16 16s-7.163 16-16 16a15.94 15.94 0 0 1-10.65-4.06c-.146.05-.3.08-.461.093a14.1 14.1 0 0 0-7.693 3.071c-1.556 1.26-2.86 2.908-3.852 4.874-.447.887-.869 2.098-1.095 3.286a9.372 9.372 0 0 0-.137 1.05l-.02.26-.029.516-.031.719-.038 1.076c-.02.843.002 1.385.08 1.848l.028.152.042.157.11.34c.16.494.414.899.885 1.425.22.247.39.384.72.58.463.273.94.467 1.379.543l.036.006.038.005.19.023.646.054.334.004 1.221-.024 1.003-.008 1.788.006L31.999 54a2 2 0 0 1 .151 3.994l-.149.006H20.073l-4.978-.01-1.023.003-1.647.03c-.122 0-.234-.001-.34-.004l-.157-.006-.301-.02-.604-.057-.238-.03-.227-.035c-.97-.167-1.883-.538-2.733-1.04a6.595 6.595 0 0 1-1.667-1.357c-.734-.82-1.247-1.602-1.598-2.539l-.112-.318-.12-.374-.05-.167-.043-.164-.053-.23c-.134-.66-.19-1.28-.196-2.089v-.359L4 48.602l.047-1.249c.057-1.338.114-2.004.272-2.837.298-1.565.843-3.129 1.454-4.34 1.241-2.46 2.9-4.557 4.906-6.18a18.122 18.122 0 0 1 7.678-3.633A15.923 15.923 0 0 1 16 22c0-8.837 7.163-16 16-16zm16 28a2 2 0 0 1 2 2v8h8a2 2 0 1 1 0 4h-8v8a2 2 0 1 1-4 0v-8h-8a2 2 0 1 1 0-4h8v-8a2 2 0 0 1 2-2zM32 10c-6.627 0-12 5.373-12 12s5.373 12 12 12 12-5.373 12-12-5.373-12-12-12z"/></symbol>
<symbol viewBox="0 0 64 64" id="user"><path d="M45.61 30.36A15.78 15.78 0 0 0 48 22c0-8.837-7.163-16-16-16s-16 7.163-16 16a15.78 15.78 0 0 0 2.39 8.36A18 18 0 0 0 4 48v2a8 8 0 0 0 8 8h40a8 8 0 0 0 8-8v-2a18 18 0 0 0-14.39-17.64zM32 10c6.627 0 12 5.373 12 12s-5.373 12-12 12-12-5.373-12-12 5.373-12 12-12zm24 40a4 4 0 0 1-4 4H12a4 4 0 0 1-4-4v-2c-.005-7.533 5.952-13.72 13.48-14a15.92 15.92 0 0 0 21 0c7.544.259 13.524 6.452 13.52 14v2z"/></symbol>
<symbol viewBox="0 0 64 64" id="video"><path d="M52 12a8 8 0 0 1 8 8v24a8 8 0 0 1-8 8H12a8 8 0 0 1-8-8V20a8 8 0 0 1 8-8zm0 4H12a4 4 0 0 0-4 4v24a4 4 0 0 0 4 4h40a4 4 0 0 0 4-4V20a4 4 0 0 0-4-4zm-25.938 6.113a4 4 0 0 1 4.058.107l10.23 6.39a4 4 0 0 1 0 6.78l-10.23 6.39a4 4 0 0 1-4.06.11 4 4 0 0 1-2.06-3.5V25.61a4 4 0 0 1 2.062-3.497zM28 25.61v12.78L38.23 32 28 25.61z"/></symbol>
<symbol viewBox="0 0 64 64" id="visibility-filled"><path d="M32 12c15.464 0 28 14 28 20S47.464 52 32 52 4 38 4 32s12.536-20 28-20zm0 8c-6.627 0-12 5.373-12 12s5.373 12 12 12 12-5.373 12-12-5.373-12-12-12zm0 4.8a7.2 7.2 0 1 1 0 14.4 7.2 7.2 0 0 1 0-14.4z"/></symbol>
<symbol viewBox="0 0 64 64" id="visibility"><path d="M32 12c15.464 0 28 14 28 20S47.464 52 32 52 4 38 4 32s12.536-20 28-20zm0 4c-6.046 0-12.167 2.57-17.228 6.815-2.16 1.811-3.978 3.823-5.229 5.725C8.511 30.111 8 31.423 8 32s.511 1.889 1.543 3.46c1.25 1.902 3.069 3.914 5.229 5.725C19.832 45.431 25.954 48 32 48c6.046 0 12.167-2.57 17.228-6.815 2.16-1.811 3.978-3.823 5.229-5.725C55.489 33.889 56 32.577 56 32s-.511-1.889-1.543-3.46c-1.25-1.902-3.069-3.914-5.229-5.725C44.168 18.569 38.046 16 32 16zm0 6c5.523 0 10 4.477 10 10s-4.477 10-10 10-10-4.477-10-10 4.477-10 10-10zm0 4a6 6 0 1 0 0 12 6 6 0 0 0 0-12z"/></symbol>
<symbol viewBox="0 0 64 64" id="voicemail"><path d="M48 21a12 12 0 0 0-9 20H25a12 12 0 1 0-9 4h32c6.627 0 12-5.373 12-12s-5.373-12-12-12zM16 41a8 8 0 1 1 0-16 8 8 0 0 1 0 16zm32 0a8 8 0 1 1 0-16 8 8 0 0 1 0 16z"/></symbol>
<symbol viewBox="0 0 64 64" id="volume"><path d="M29.17 12A4 4 0 0 1 36 14.83v34.34a4 4 0 0 1-2.47 3.7 4.12 4.12 0 0 1-1.53.3A4 4 0 0 1 29.17 52l-10-10H16a8 8 0 0 1-8-8v-4a8 8 0 0 1 8-8h3.17zm17.7.674a2 2 0 0 1 2.65.026C53.64 17.51 56 24.54 56 32c0 7.46-2.36 14.49-6.52 19.3a2 2 0 0 1-3-2.6C50 44.6 52 38.52 52 32s-2-12.6-5.48-16.7a2 2 0 0 1 .35-2.626zM32 14.83L20.83 26H16a4 4 0 0 0-4 4v4a4 4 0 0 0 4 4h4.83L32 49.17V14.83zm8.87 3.844a2 2 0 0 1 2.65.026A20.6 20.6 0 0 1 48 32a20.6 20.6 0 0 1-4.52 13.3 2 2 0 0 1-3-2.6A16.58 16.58 0 0 0 44 32a16.58 16.58 0 0 0-3.48-10.7 2 2 0 0 1 .35-2.626z"/></symbol>
<symbol viewBox="0 0 64 64" id="warning"><path d="M27.256 39.192c.064 1.344.768 1.984 2.112 1.984 2.752 0 5.44-1.792 5.504-3.584l1.024-25.216c0-1.728-.896-2.56-2.752-2.56-3.52 0-7.168 2.368-7.168 4.608l1.28 24.768zm3.648 16.192c-2.496 0-4.864-4.16-4.864-5.76 0-2.24 3.648-4.608 7.168-4.608 1.856 0 2.816.832 2.816 2.56 0 2.624-1.216 5.312-2.752 6.72-.768.704-1.536 1.088-2.368 1.088z"/></symbol>
<symbol viewBox="0 0 64 64" id="weather"><path d="M43 18a9 9 0 0 1 2.933 17.511A9.467 9.467 0 0 1 49 42.5c0 .494-.038.98-.11 1.453A6.5 6.5 0 0 1 46 55.981V56H12v-.014A8.5 8.5 0 0 1 4 47.5c0-4.545 3.882-8.618 8.083-8.523A13.05 13.05 0 0 1 12 37.5C12 30.044 18.268 24 26 24c2.983 0 5.748.9 8.019 2.433A8.998 8.998 0 0 1 43 18zM26 28c-5.555 0-10 4.286-10 9.5 0 .346.02.688.058 1.024l.518 4.555-4.583-.103C10.1 42.933 8 45.143 8 47.5a4.5 4.5 0 0 0 4.232 4.492l.133.008H45.6l.098-.007a2.5 2.5 0 0 0 1.104-4.628l-2.269-1.39.404-2.629c.042-.277.064-.56.064-.846 0-3.038-2.462-5.5-5.439-5.5l-3.135.048-.977-2.668C34.069 30.609 30.309 28 26 28zm26.99 9.962l1.438 1.39a2 2 0 1 1-2.778 2.877l-1.439-1.39a2 2 0 1 1 2.779-2.877zM43 22a5 5 0 1 0 0 10 5 5 0 0 0 0-10zm15 5a2 2 0 1 1 0 4h-2a2 2 0 1 1 0-4h2zM30.181 15.644l1.439 1.39a2 2 0 0 1-2.779 2.876l-1.438-1.389a2 2 0 0 1 2.778-2.877zm25.696-1.033a2 2 0 0 1-.049 2.828l-1.439 1.389a2 2 0 0 1-2.778-2.877l1.438-1.39a2 2 0 0 1 2.828.05zm-14.96-4.484a2 2 0 0 1 2 2v2a2 2 0 1 1-4 0v-2a2 2 0 0 1 2-2z"/></symbol>
<symbol viewBox="0 0 64 64" id="wireless-off"><path d="M48.586 12.586a2 2 0 0 1 2.828 2.828l-36 36a2 2 0 0 1-2.828-2.828zM32 45a3 3 0 1 1 0 6 3 3 0 0 1 0-6zm4.377-10.307a11.032 11.032 0 0 1 4.004 2.6 2.14 2.14 0 0 1 0 3.015 2.102 2.102 0 0 1-1.489.618 2.102 2.102 0 0 1-1.457-.629 6.851 6.851 0 0 0-4.63-2.032zm7.61-7.61c1.153.664 2.25 1.43 3.279 2.292.667.56.908 1.47.604 2.279A2.095 2.095 0 0 1 45.903 33c-.5 0-.983-.175-1.362-.494a18.635 18.635 0 0 0-3.589-2.387zM32.404 24c.174 0 .348.002.522.005l-4.493 4.492a18.665 18.665 0 0 0-8.167 4.009c-.879.58-2.06.425-2.753-.361a2.032 2.032 0 0 1 .028-2.729A23.093 23.093 0 0 1 32.403 24zm19.758-5.09c.682.44 1.352.904 2.009 1.393a2.023 2.023 0 0 1 .391 2.89c-.713.904-2.045 1.074-2.975.38a32.382 32.382 0 0 0-2.438-1.65zm-42.33 1.393c9.487-7.062 21.655-9.002 32.616-5.82l-3.392 3.39c-9.094-1.982-18.885-.082-26.641 5.7-.93.694-2.262.524-2.975-.38a2.023 2.023 0 0 1 .391-2.89z"/></symbol>
<symbol viewBox="0 0 64 64" id="wireless"><path d="M32 45a3 3 0 1 1 0 6 3 3 0 0 1 0-6zm.557-11a10.994 10.994 0 0 1 7.824 3.292 2.14 2.14 0 0 1 0 3.016 2.102 2.102 0 0 1-1.489.618 2.102 2.102 0 0 1-1.457-.629 6.86 6.86 0 0 0-9.756 0 2.1 2.1 0 0 1-2.077.64 2.121 2.121 0 0 1-1.538-1.547c-.19-.762.05-1.569.627-2.098A10.994 10.994 0 0 1 32.557 34zm-.154-10a23.095 23.095 0 0 1 14.863 5.375c.667.56.908 1.47.604 2.279A2.095 2.095 0 0 1 45.903 33c-.5 0-.983-.175-1.362-.494-6.976-5.905-17.3-5.905-24.276 0-.879.58-2.06.425-2.753-.361a2.032 2.032 0 0 1 .028-2.729A23.093 23.093 0 0 1 32.403 24zM9.83 20.303c13.081-9.737 31.259-9.737 44.34 0a2.023 2.023 0 0 1 .391 2.89c-.713.904-2.045 1.074-2.975.38-11.553-8.612-27.62-8.612-39.172 0-.93.694-2.262.524-2.975-.38a2.023 2.023 0 0 1 .391-2.89z"/></symbol>
<symbol viewBox="0 0 64 64" id="world-alert"><path d="M36.497 26.338c1.925-3.117 5.08-3.117 7.009 0l11.863 23.7C57.006 53.316 55.346 56 51.684 56H28.318c-3.666 0-5.326-2.684-3.684-5.962zM32 6a26 26 0 0 1 26 26c0 3.66-.756 7.144-2.122 10.304l-2.516-5.024A22.05 22.05 0 0 0 54 32a21.761 21.761 0 0 0-2-9.17l-2 2V30c0 .157-.018.31-.052.457l-3.707-7.401a2 2 0 0 1 .349-.466l3.33-3.33A22.07 22.07 0 0 0 38 10.84V16a2 2 0 0 1-.59 1.41L34 20.83V22h.289l-1.844 3.687a4.002 4.002 0 0 1-2.44-3.487L30 22v-1.17A4 4 0 0 1 31.17 18L34 15.17v-5.08c-.66-.09-1.33-.09-2-.09a21.84 21.84 0 0 0-10 2.41v9.95a4 4 0 0 1-3.22 3.96L10.38 28l-.1.566A21.53 21.53 0 0 0 10 32c0 7.74 3.997 14.547 10.04 18.468l-1.169 2.335a9.114 9.114 0 0 0-.54 1.318C10.93 49.538 6 41.345 6 32 6 17.64 17.64 6 32 6zm8.959 21.852c-.727-1.136-1.191-1.136-1.914-.002L27.349 51.262C26.683 52.596 26.932 53 28.423 53H51.58c1.487 0 1.738-.406 1.073-1.74zM40.5 48a1.5 1.5 0 1 1 0 3 1.5 1.5 0 1 1 0-3zM27.282 36l-2.003 4H22v2h2.278l-2.002 4H22a4 4 0 0 1-3.995-3.8L18 42v-2a4 4 0 0 1 4-4h5.282zM40.5 35c.83 0 1.5.754 1.5 1.685v7.63c0 .931-.67 1.685-1.5 1.685s-1.5-.754-1.5-1.685v-7.63c0-.931.67-1.685 1.5-1.685zM18 15a22.19 22.19 0 0 0-6.34 8.59L18 22.32z"/></symbol>
<symbol viewBox="0 0 64 64" id="world-off"><path d="M53.577 17.494A26 26 0 0 1 58 32c0 14.36-11.64 26-26 26a25.88 25.88 0 0 1-14.508-4.42l2.892-2.893A21.897 21.897 0 0 0 32 54c12.15 0 22-9.85 22-22a21.761 21.761 0 0 0-2-9.17l-2 2V30a2 2 0 0 1-2 2h-6a2 2 0 0 1-1.802-1.128l3.149-3.149.093.277H46v-2.93zm-.991-8.908a2 2 0 0 1 2.828 2.828l-44 44a2 2 0 0 1-2.828-2.828zm-17.63 27.529A4.002 4.002 0 0 1 38 40v6a4 4 0 0 1-4 4h-3.17A4 4 0 0 1 28 48.83L25.17 46h-.1l2.879-2.879.051.049L30.83 46H34v-6h-2.93zM32 6a26 26 0 0 1 14.506 4.423l-2.902 2.902A22.067 22.067 0 0 0 38 10.84V16a2 2 0 0 1-.59 1.41L34 20.83V22h.928l-3.253 3.255a3.995 3.995 0 0 1-1.67-3.055L30 22v-1.17A4 4 0 0 1 31.17 18L34 15.17v-5.08c-.66-.09-1.33-.09-2-.09a21.84 21.84 0 0 0-10 2.41v9.95a4 4 0 0 1-3.22 3.96L10.38 28l-.1.566A21.53 21.53 0 0 0 10 32c0 4.264 1.213 8.245 3.313 11.616l-2.892 2.892A25.88 25.88 0 0 1 6 32C6 17.64 17.64 6 32 6zM18.21 38.718a4.01 4.01 0 0 1 2.508-2.508zM18 15a22.19 22.19 0 0 0-6.34 8.59L18 22.32z"/></symbol>
<symbol viewBox="0 0 64 64" id="world-question"><path d="M41 26c8.837 0 16 7.163 16 16s-7.163 16-16 16-16-7.163-16-16 7.163-16 16-16zM32 6a26 26 0 0 1 25.994 25.45 20.113 20.113 0 0 0-4.777-5.286 21.59 21.59 0 0 0-.976-2.791L52 22.83l-1.542 1.543a19.872 19.872 0 0 0-4.011-1.622l.024-.032.119-.129 3.33-3.33a22.07 22.07 0 0 0-11.47-8.287L38 10.84V16a2 2 0 0 1-.47 1.28l-.12.13L34 20.83V22h4.56c.253 0 .501.024.743.07-3 .253-5.81 1.167-8.285 2.595a3.977 3.977 0 0 1-1.011-2.43L30 22v-1.17a4 4 0 0 1 1.014-2.665L31.17 18 34 15.17v-5.08c-.66-.09-1.33-.09-2-.09a21.84 21.84 0 0 0-9.533 2.178L22 12.41v9.95a4 4 0 0 1-3.02 3.915l-.2.045-8.4 1.68a21.53 21.53 0 0 0-.38 4c0 9.315 5.79 17.279 13.967 20.487a20.1 20.1 0 0 0 4.765 5.31C15.915 56.189 6 45.253 6 32 6 17.64 17.64 6 32 6zm9 23c-7.18 0-13 5.82-13 13s5.82 13 13 13 13-5.82 13-13-5.82-13-13-13zm.58 17.18c.58 0 .88.26.88.8 0 .82-.38 1.66-.86 2.1-.24.22-.48.34-.74.34-.78 0-1.52-1.3-1.52-1.8 0-.7 1.14-1.44 2.24-1.44zM41.52 35c1.58 0 2.84.68 3.5 1.76.34.54.5 1.16.5 1.82 0 1.082-.383 1.972-1.492 3.278l-.203.235-.405.447-2.06 2.2c-.26.26-.48.38-.7.38-.34 0-.66-.24-.96-.7-.2-.34-.3-.6-.3-.76 0-.128.051-.256.143-.394l.077-.106 1.94-2.06c.9-.98 1.28-1.64 1.28-2.34 0-.8-.66-1.4-1.56-1.4-.728 0-1.282.314-2.052 1.136l-.168.184-.105.113c-.167.178-.292.3-.375.367-.12.08-.24.12-.36.12-.64 0-1.22-1.08-1.22-1.42 0-.14.06-.32.2-.52.96-1.44 2.62-2.34 4.32-2.34zM18 15a22.19 22.19 0 0 0-6.147 8.137l-.193.453L18 22.32V15z"/></symbol>
<symbol viewBox="0 0 64 64" id="world"><path d="M32 6a26 26 0 0 1 26 26c0 14.36-11.64 26-26 26S6 46.36 6 32 17.64 6 32 6zm0 4a21.84 21.84 0 0 0-10 2.41v9.95a4 4 0 0 1-3.22 3.96L10.38 28l-.1.566A21.53 21.53 0 0 0 10 32c0 12.15 9.85 22 22 22s22-9.85 22-22a21.761 21.761 0 0 0-2-9.17l-2 2V30a2 2 0 0 1-2 2h-6a2 2 0 0 1-1.9-1.37L38.56 26H34a4 4 0 0 1-4-4v-1.17A4 4 0 0 1 31.17 18L34 15.17v-5.08c-.66-.09-1.33-.09-2-.09zm2 26a4 4 0 0 1 4 4v6a4 4 0 0 1-4 4h-3.17A4 4 0 0 1 28 48.83L25.17 46H22a4 4 0 0 1-4-4v-2a4 4 0 0 1 4-4zm0 4H22v2h3.17A4 4 0 0 1 28 43.17L30.83 46H34v-6zm16-3v5h-8v-5h8zM38 10.84V16a2 2 0 0 1-.59 1.41L34 20.83V22h4.56a4 4 0 0 1 3.79 2.73L43.44 28H46v-4a2 2 0 0 1 .59-1.41l3.33-3.33A22.07 22.07 0 0 0 38 10.84zM18 15a22.19 22.19 0 0 0-6.34 8.59L18 22.32z"/></symbol>
<symbol viewBox="0 0 64 64" id="wrench"><path d="M32.543 8.896A16 16 0 0 1 48 4.5a3.93 3.93 0 0 1 2.77 2.8 4 4 0 0 1-1 3.9l-7.1 7.1a2.19 2.19 0 0 0-.41 2.75 2 2 0 0 0 3.13.29L52.74 14a4 4 0 0 1 6.69 1.75 16 16 0 0 1-19.94 19.59L17 57.76A7.68 7.68 0 0 1 11.6 60h-.36a7.71 7.71 0 0 1-5.55-2.79 7.85 7.85 0 0 1 .68-10.45L28.7 24.5a16 16 0 0 1 3.843-15.604zM44 8a12 12 0 0 0-11.18 16.32l.47 1.22-24.1 24.05a3.82 3.82 0 0 0-.41 5.07A3.64 3.64 0 0 0 11.43 56a3.69 3.69 0 0 0 2.76-1.07l24.27-24.22 1.22.47a12 12 0 0 0 16.18-9.32 12.08 12.08 0 0 0-.28-5.06l-7.35 7.37a6 6 0 0 1-9.23-.82 6.15 6.15 0 0 1 .84-7.88l7.1-7.1A11.563 11.563 0 0 0 44 8zM12 50a2 2 0 1 1 0 4 2 2 0 0 1 0-4z"/></symbol>
</svg>