<?xml version="1.0" encoding="utf-8"?>
<!-- Generator: Adobe Illustrator 16.0.0, SVG Export Plug-In . SVG Version: 6.00 Build 0)  -->
<!DOCTYPE svg PUBLIC "-//W3C//DTD SVG 1.1//EN" "http://www.w3.org/Graphics/SVG/1.1/DTD/svg11.dtd">
<svg version="1.1" xmlns="http://www.w3.org/2000/svg" xmlns:xlink="http://www.w3.org/1999/xlink" x="0px" y="0px"
	 width="512px" height="512px" viewBox="0 0 512 512" enable-background="new 0 0 512 512" xml:space="preserve">
	<text transform="matrix(1 0 0 1 168.7834 543.8088)" fill="#FFFF00" font-family="'Verdana-Bold'" font-size="20">simpleicon.com</text>
	<text transform="matrix(1 0 0 1 9.1931 567.8088)" fill="#FFFF00" font-family="'Verdana'" font-size="20">Collection Of Flat Icon, Symbols And Glyph Icons</text>
	<g>
		<path d="M222.012,293.484v25.212L132.4,279.849v-21.556l89.612-38.838v25.388l-62.439,24.058L222.012,293.484z"/>
		<path d="M277.425,218.919l-24.95,102.713c-0.83,3.38-1.554,6.056-2.178,8.018c-0.624,1.961-1.569,3.495-2.847,4.581
			c-1.277,1.102-3.133,1.649-5.572,1.649c-6.05,0-9.083-2.62-9.083-7.835c0-1.368,0.593-4.783,1.78-10.245l24.854-102.713
			c1.308-5.461,2.555-9.204,3.742-11.22c1.187-2.019,3.5-3.03,6.95-3.03c2.968,0,5.241,0.714,6.81,2.14
			c1.574,1.426,2.364,3.387,2.364,5.879C279.296,210.697,278.667,214.051,277.425,218.919z"/>
		<path d="M379.599,279.849l-89.611,39.022v-25.212l62.625-24.583l-62.625-24.234v-25.031l89.611,38.658V279.849z"/>
		<path d="M437.281,74.719H74.719C61.069,74.719,50,85.791,50,99.441v313.121c0,13.645,11.069,24.72,24.719,24.72h362.563
			c13.654,0,24.719-11.075,24.719-24.72V99.441C462,85.786,450.935,74.719,437.281,74.719z M375.481,91.2
			c9.082,0,16.48,7.39,16.48,16.481c0,9.088-7.398,16.479-16.48,16.479c-9.089,0-16.481-7.391-16.481-16.479
			C359,98.591,366.392,91.2,375.481,91.2z M330.162,91.2c9.083,0,16.476,7.39,16.476,16.481c0,9.088-7.393,16.479-16.476,16.479
			c-9.088,0-16.481-7.391-16.481-16.479C313.68,98.591,321.074,91.2,330.162,91.2z M437.281,412.562H74.719V140.641h362.563V412.562z
			M420.8,124.16c-9.083,0-16.48-7.391-16.48-16.479c0-9.091,7.397-16.481,16.48-16.481s16.481,7.39,16.481,16.481
			C437.281,116.769,429.883,124.16,420.8,124.16z"/>
	</g>
</svg>
