<svg xmlns="http://www.w3.org/2000/svg" version="1.1" xmlns:xlink="http://www.w3.org/1999/xlink" x="0px" y="0px" viewBox="0 0 539.541 566.93" enable-background="new 0 0 539.541 566.93" xml:space="preserve" shape-rendering="auto" style="display: inline;"><defs><mask id="gradient-mask"><image xmlns:xlink="http://www.w3.org/1999/xlink" width="100%" height="100%" mask="url(#mask1)"/></mask><filter id="innerShadow" x="-20%" y="-20%" width="140%" height="140%"><feGaussianBlur in="SourceGraphic" stdDeviation="3" result="blur"/><feOffset in="blur" dx="2.5" dy="2.5"/></filter></defs><g id="ripples"><path fill="#990AE3" d="M419.434,476.449c-0.063-0.127-0.064-0.277-0.176-0.381c-0.244-0.23-0.557-0.347-0.868-0.347 c-0.32,0-0.642,0.121-0.886,0.363c-19.216,18.834-51.968,45.584-98.885,66.066c-28.334,12.37-53.497,18.645-74.788,18.645 c-3.631,0-7.136-0.19-10.413-0.57c-0.05-0.006-0.1-0.008-0.147-0.008c-0.596,0-1.121,0.42-1.24,1.019 c-0.031,0.158,0.053,0.293,0.078,0.444c11.495,3.39,22.804,5.248,33.742,5.248C312.745,566.93,369.66,533.848,419.434,476.449"/><path fill="#990AE3" d="M412.585,484.215c14.054-15.381,27.604-32.692,40.293-51.744c-0.084-0.133-0.111-0.297-0.248-0.395 c-0.225-0.16-0.468,0.268-0.725,0.268c-0.377,0-1.53,1.363-1.779,1.683c-29.367,37.625-88.492,87.776-160.631,110.086 c-21.198,6.557-40.312,9.881-56.81,9.881c-8.395,0-16.034-0.865-22.705-2.57c-0.105-0.024-0.211-0.039-0.313-0.039 c-0.526,0-1.013,0.33-1.194,0.847c-0.051,0.145,0.012,0.282,0.013,0.43c9.555,4.424,19.044,7.859,28.403,10.271 c2.297,0.17,4.569,0.4,6.941,0.4c21.642,0,47.146-6.344,75.803-18.857C361.896,526.023,392.675,502.561,412.585,484.215"/><path fill="#990AE3" d="M464.64,413.037c-0.215-0.143-0.458-0.211-0.699-0.211c-0.392,0-0.774,0.182-1.022,0.521 C404.425,493.535,293.296,547.402,226.2,547.402c-14.522,0-27.025-2.361-37.161-7.021c-0.171-0.078-0.352-0.115-0.528-0.115 c-0.457,0-0.897,0.248-1.123,0.679c-0.085,0.164-0.042,0.338-0.052,0.512c8.323,4.982,16.656,9.289,24.947,12.916 c6.275,1.35,13,2.15,20.401,2.15c16.752,0,36.118-3.361,57.56-9.992c67.903-21,125.011-67.957,156.369-104.963 c6.299-8.982,12.414-18.351,18.289-28.148C464.813,413.291,464.779,413.129,464.64,413.037"/><path fill="#990AE3" d="M488.599,367.832c-10.01,17.76-22.618,35.758-38.906,53.754 c-58.023,64.109-162.945,116.268-233.888,116.268c-20.854,0-37.406-3.375-49.827-12.01c-0.22-0.151-1.135-0.69-1.384-0.69 c-0.396,0-0.443-0.354-0.689-0.009c-0.11,0.154-0.088,0.339-0.12,0.513c9.538,7.061,19.17,13.326,28.809,18.778 c9.636,3.593,20.818,5.505,33.604,5.505c66.172,0,174.479-51.855,234.422-129.568c10.303-16.537,19.956-34.222,28.714-53.031 L488.599,367.832z"/><path fill="#990AE3" d="M495.126,353.391c-0.181-0.09-0.373-0.133-0.562-0.133c-0.444,0-0.872,0.234-1.104,0.645 c-11.427,20.281-24.246,38.171-39.19,54.683c-60.42,66.756-171.226,121.068-247.004,121.068c-21.927,0-39.71-4.523-52.854-13.447 c-0.218-0.146-0.466-0.219-0.709-0.219c-0.391,0-0.773,0.18-1.021,0.516c-0.104,0.141-0.085,0.312-0.123,0.475 c5.954,4.804,11.964,9.279,18.003,13.507c12.067,6.448,27.11,9.903,45.244,9.903c72.773,0,176.333-51.436,235.763-117.1 c14.05-15.525,24.511-31.729,33.606-47.354c3.541-7.25,6.95-14.662,10.218-22.244C495.297,353.592,495.255,353.455,495.126,353.391 "/><path fill="#990AE3" d="M504.851,329.189c-0.169-0.078-0.348-0.113-0.523-0.113c-0.451,0-0.888,0.242-1.114,0.666 c-10.144,18.879-27.758,46.828-54.073,72.768C392.212,458.623,280.677,519.19,199.749,519.19c-25.888,0-47.458-6.095-63.406-18.111 c-0.227-0.172-0.495-0.254-0.76-0.254c-0.365,0-0.728,0.156-0.978,0.459c-0.051,0.062,0.003,0.145-0.024,0.215 c7.395,6.754,14.912,13.113,22.513,19.039c13.146,7.611,29.841,11.646,50.169,11.646c76.4,0,188.048-54.684,248.883-121.899 c13.642-15.072,25.459-31.375,36.128-49.466c4.555-10.149,8.895-20.555,12.901-31.295 C505.065,329.41,505.002,329.258,504.851,329.189"/><path fill="#990AE3" d="M510.848,312.271c-0.164-0.07-0.335-0.105-0.504-0.105c-0.452,0-0.889,0.246-1.115,0.668 c-17.726,33.006-38.848,60.277-64.571,83.369c-73.479,65.957-180.267,113.83-253.912,113.83c-25.661,0-46.65-5.627-62.384-16.726 c-0.22-0.155-0.476-0.229-0.728-0.229c-0.367,0-0.729,0.158-0.978,0.461c-0.094,0.111-0.078,0.258-0.126,0.389 c4.465,4.295,8.974,8.472,13.535,12.486c15.801,10.146,35.793,15.309,59.683,15.309c81.568,0,193.887-60.942,251.169-117.408 c24.295-23.948,41.159-49.514,51.7-68.287c2.983-7.682,5.849-15.483,8.522-23.465C511.037,312.467,510.982,312.33,510.848,312.271"/><path fill="#990AE3" d="M519.736,282.842c-0.137-0.047-0.275-0.07-0.413-0.07c-0.497,0-0.965,0.295-1.168,0.777 c-15.271,36.404-45.195,75.32-80.051,104.104C359.706,452.395,254.846,497.609,183.1,497.609c-31.934,0-57.476-7.787-75.182-24.259 c-0.243-0.227-0.555-0.34-0.862-0.34c-0.238,0-0.45,0.14-0.656,0.271c7.737,8.444,15.688,16.555,23.827,24.203 c15.741,9.998,35.227,15.08,60.517,15.08c74.21,0,181.707-48.146,255.604-114.478c24.998-22.441,45.599-48.914,63.055-80.561 c3.875-11.191,7.431-22.666,10.64-34.426C519.933,283.019,519.871,282.889,519.736,282.842"/><path fill="#990AE3" d="M523.246,269.366c-0.139-0.05-0.282-0.073-0.423-0.073c-0.479,0-0.931,0.272-1.146,0.726 c-15.812,33.526-37.643,70.112-89.857,110.467c-84.309,65.154-184.747,107.257-255.884,107.257 c-31.011,0-56.134-7.652-74.669-22.744c-0.233-0.191-0.518-0.285-0.8-0.285c-0.333,0-0.665,0.133-0.913,0.389 c-0.11,0.115-0.112,0.273-0.17,0.412c3.822,4.355,7.698,8.64,11.641,12.818c17.905,14.436,42.043,21.811,72.075,21.811 c72.281,0,177.806-45.452,256.616-110.534c33.848-27.951,62.951-65.377,78.846-100.935c1.778-6.257,3.471-12.583,5.046-19 C523.487,269.567,523.406,269.422,523.246,269.366"/><path fill="#990AE3" d="M529.301,241.396c-0.114-0.032-0.231-0.048-0.346-0.048c-0.515,0-0.994,0.316-1.185,0.819 c-18.406,48.756-52.388,90.668-103.886,128.131C335.655,434.48,236.748,474.35,165.76,474.35c-32.283,0-58.184-8.106-76.985-24.102 c-0.237-0.201-0.529-0.303-0.819-0.303c-0.322,0-0.643,0.123-0.888,0.36c-0.101,0.101-0.103,0.242-0.164,0.363 c5.071,6.252,10.268,12.377,15.6,18.338c18.809,14.101,43.398,21.271,73.433,21.271c71.659,0,172.707-42.312,257.431-107.787 c50.852-39.297,73.113-75.068,88.947-107.95c2.744-10.749,5.175-21.724,7.305-32.903 C529.508,241.56,529.438,241.436,529.301,241.396"/><path fill="#990AE3" d="M531.623,228.414c-0.112-0.031-0.228-0.047-0.341-0.047c-0.507,0-0.979,0.308-1.176,0.801 c-19.086,48.286-57.098,92.622-112.979,131.777C347.119,410,242.233,462.42,157.81,462.42c-32.946,0-59.398-8.197-78.627-24.365 c-0.236-0.196-0.525-0.295-0.814-0.295c-0.315,0-0.631,0.117-0.874,0.351c-0.105,0.1-0.111,0.243-0.175,0.366 c4.003,5.255,8.08,10.453,12.281,15.548c19.174,15.161,44.678,22.86,76.159,22.86c71.494,0,170.972-40.057,259.613-104.537 c50.755-36.92,84.534-78.219,103.394-126.056c1.16-5.814,2.243-11.677,3.228-17.604 C531.868,228.593,531.782,228.458,531.623,228.414"/><path fill="#990AE3" d="M534.911,205.791c-0.103-0.025-0.204-0.037-0.304-0.037c-0.518,0-0.996,0.318-1.186,0.821 c-20.52,54.587-62.899,103.19-125.967,144.461c-94.719,61.979-188.581,97.529-257.521,97.529c-35.172,0-63.112-9.166-83.043-27.247 c-0.241-0.219-0.545-0.327-0.851-0.327c-0.299,0-0.599,0.104-0.837,0.315c-0.104,0.092-0.113,0.23-0.181,0.344 c4.688,6.703,9.538,13.331,14.569,19.835c19.664,15.58,45.854,23.469,78.21,23.469c85.014,0,190.45-52.654,260.776-101.935 c55.23-38.699,93.039-82.501,112.652-130.186c1.532-8.819,2.928-17.723,4.05-26.787 C535.157,205.959,535.068,205.83,534.911,205.791"/><path fill="#990AE3" d="M536.632,189.596c-0.082-0.016-0.164-0.024-0.245-0.024c-0.549,0-1.048,0.358-1.211,0.901 c-15.021,49.958-63.084,103.451-135.339,150.625c-88.716,57.92-191.248,95.345-261.216,95.345c-34.967,0-61.623-8.796-79.23-26.14 c-0.245-0.24-0.565-0.363-0.889-0.363c-0.284,0-0.569,0.097-0.804,0.291c-0.108,0.088-0.122,0.228-0.193,0.34 c3.166,4.796,6.428,9.55,9.781,14.269c20.406,17.435,48.09,26.262,82.649,26.262c69.418,0,163.786-35.7,258.907-97.944 c62.563-40.941,104.831-89.136,125.886-143.224c0.87-6.64,1.604-13.355,2.239-20.123 C536.851,189.74,536.771,189.623,536.632,189.596"/><path fill="#990AE3" d="M538.841,161.06c-0.147-0.057-0.303-0.085-0.456-0.085c-0.21,0-0.419,0.052-0.607,0.155 c-0.327,0.178-0.559,0.492-0.634,0.857c-11.51,56.244-66.751,118.69-147.769,167.042 c-100.378,59.906-191.788,92.897-257.395,92.897c-36.237,0-64.431-9.87-83.796-29.34c-0.246-0.246-0.57-0.373-0.897-0.373 c-0.271,0-0.542,0.086-0.771,0.263c-0.126,0.096-0.155,0.25-0.233,0.379c4.234,7.059,8.75,14.065,13.419,21.016 c18.224,16.66,44.646,25.104,78.92,25.104c70.425,0,173.5-37.586,262.599-95.756c71.201-46.486,119.021-99.174,135.273-148.763 c1.124-10.953,2.025-22.025,2.51-33.301C538.948,161.124,538.897,161.083,538.841,161.06"/><path fill="#990AE3" d="M539.353,146.102c-0.127-0.061-0.22-0.174-0.366-0.189c-0.045-0.005-0.09-0.007-0.135-0.007 c-0.6,0-1.124,0.423-1.241,1.023c-11.29,57.74-66.762,118.703-156.196,171.659c-96.618,57.209-191.081,90.02-259.166,90.02 c-34.665,0-61.297-8.291-79.156-24.643c-0.241-0.223-0.548-0.334-0.855-0.334c-0.279,0-0.559,0.092-0.792,0.277 c-0.092,0.074-0.105,0.195-0.172,0.287c2.234,3.912,4.527,7.813,6.903,11.707l0.001,0.002 c19.946,18.965,48.016,28.557,83.804,28.557c66.057,0,157.929-33.119,258.694-93.258c79.854-47.658,134.764-109.04,148.019-164.989 v-0.004C539.036,159.564,539.241,152.856,539.353,146.102"/><path fill="#990AE3" d="M538.757,120.039c-0.149-0.066-0.271-0.185-0.442-0.189c-0.01,0-0.02-0.001-0.029-0.001 c-0.664,0-1.218,0.516-1.263,1.182c-3.887,57.732-67.609,128.445-166.3,184.543c-99.326,56.457-190.67,87.549-257.207,87.549 c-36.528,0-63.616-9.365-80.51-27.836c-0.249-0.271-0.59-0.412-0.936-0.412c-0.251,0-0.503,0.074-0.722,0.227 c-0.118,0.082-0.147,0.222-0.229,0.332c3.67,7.228,7.646,14.459,11.837,21.676c18.311,15.902,44.926,24.031,79.291,24.031 c68.525,0,163.458-32.938,260.456-90.371c88.289-52.278,143.631-112.461,156.553-169.884c0.113-4.671,0.284-9.318,0.284-14.04 C539.541,131.007,539.233,125.445,538.757,120.039"/><path fill="#990AE3" d="M539.007,125.392c-0.475-7.994-1.278-15.685-2.697-22.802c-0.14-0.053-0.261-0.149-0.417-0.149 c-0.037,0-0.073,0.002-0.11,0.005c-0.645,0.055-1.144,0.59-1.154,1.238c-1.117,58.519-63.034,125.96-174.348,189.896 c-95.037,54.588-187.677,85.896-254.163,85.896c-36.672,0-63.551-9.463-79.891-28.125c-0.249-0.285-0.599-0.435-0.953-0.435 c-0.237,0-0.478,0.065-0.688,0.205c-0.112,0.071-0.143,0.203-0.223,0.299c2.601,5.664,5.357,11.345,8.307,17.037 c17.467,18,44.596,27.196,80.846,27.196c66.969,0,158.758-31.209,258.459-87.879C469.054,252.594,532.398,183.163,539.007,125.392"/><path fill="#990AE3" d="M536.916,106.659c-1.772-10.295-4.474-19.706-7.984-28.316c0,0-0.005-0.006-0.009-0.006 c-0.117,0-0.235,0.017-0.353,0.05c-0.626,0.182-1.013,0.808-0.894,1.45c10.815,57.972-59.549,136.652-179.263,200.448 c-99.161,52.838-188.716,81.938-252.169,81.938c-38.151,0-64.573-10.428-78.532-30.992c-0.243-0.358-0.64-0.557-1.048-0.557 c-0.199,0-0.401,0.047-0.588,0.146c-0.137,0.072-0.188,0.215-0.286,0.324c2.954,7.674,6.233,15.43,9.9,23.235 c16.941,18.287,43.933,27.629,80.425,27.629c66.915,0,160.014-31.43,255.425-86.231 C471.834,232.425,533.842,165.414,536.916,106.659"/><path fill="#990AE3" d="M530.442,82.164c-2.318-6.275-5.056-12.131-8.172-17.596c-0.056-0.007-0.08-0.086-0.138-0.086 c-0.129,0-0.262,0.021-0.391,0.062c-0.599,0.195-0.964,0.8-0.856,1.421c9.996,57.776-58.145,132.306-182.273,199.366 c-95.643,51.666-187.068,81.298-250.835,81.298c-34.56,0-59.394-8.545-73.812-25.395c-0.248-0.289-0.604-0.443-0.963-0.443 c-0.219,0-0.44,0.057-0.642,0.174c-0.087,0.051-0.11,0.152-0.181,0.219c1.511,4.373,3.149,8.779,4.912,13.217 c14.919,20.162,41.412,30.355,79.153,30.355c63.86,0,153.839-29.205,253.359-82.236 C468.452,219.188,538.815,140.954,530.442,82.164"/><path fill="#990AE3" d="M523.492,66.803c-2.992-5.533-6.306-10.728-10.021-15.491c-0.143,0.025-0.285,0.036-0.415,0.112 c-0.551,0.319-0.779,0.998-0.533,1.585c20.091,47.979-61.84,136.141-186.525,200.71c-93.062,48.197-181.826,75.838-243.528,75.838 c-40.196,0-66.445-11.728-75.907-33.912c-0.205-0.479-0.67-0.771-1.165-0.771c-0.131,0-0.264,0.021-0.394,0.062 c-0.153,0.052-0.23,0.189-0.349,0.285c2.148,9.353,5.017,18.982,8.521,28.801c15.053,16.644,40.091,25.14,74.601,25.14 c64.174,0,156.038-29.742,252.039-81.603C464.063,200.435,532.506,125.519,523.492,66.803"/><path fill="#990AE3" d="M515.647,54.318c-3.406-4.685-7.076-9.078-11.086-13.089c-0.133,0.04-0.274,0.042-0.393,0.128 c-0.509,0.366-0.674,1.048-0.388,1.605c23.331,45.522-56.018,128.073-188.674,196.288 c-92.017,47.318-179.319,74.458-239.521,74.458c-36.089,0-60.566-10.168-70.784-29.405c-0.278-0.521-0.535-1.059-0.792-1.597 c-0.224-0.467-0.73-0.8-1.236-0.8c-0.11,0-0.222,0.016-0.33,0.05c-0.15,0.048-0.238,0.166-0.36,0.251 c0.88,5.475,2.069,11.083,3.483,16.783c10.845,21.662,37.208,33.102,76.898,33.102c62.095,0,151.283-27.746,244.694-76.121 C451.118,191.777,532.881,103.95,515.647,54.318"/><path fill="#990AE3" d="M506.844,43.67c-4.705-5-9.717-9.646-15.216-13.704c-0.154,0.05-0.322,0.056-0.451,0.167 c-0.451,0.388-0.571,1.037-0.289,1.561c4.938,9.167,5.47,20.186,1.58,32.751c-13.843,44.717-80.818,102.599-174.791,151.057 c-95.862,49.434-189.016,78.947-249.187,78.947c-32.337,0-53.147-8.312-61.856-24.706c-2.355-4.435-3.958-9.554-4.764-15.216 c-0.089-0.627-0.627-1.087-1.252-1.087c-0.028,0-0.057,0-0.083,0.002c-0.14,0.009-0.23,0.116-0.354,0.165 c-0.045,1.485-0.201,2.952-0.201,4.444c0,8.764,1.012,18.063,2.745,27.682c10.763,19.949,35.935,30.508,72.862,30.508 c60.591,0,148.314-27.242,240.678-74.738C448.494,173.507,527.887,90.833,506.844,43.67"/><path fill="#990AE3" d="M494.901,65.152c3.957-12.812,3.418-24.118-1.404-33.705c-4.901-3.772-10.129-7.131-15.604-10.167 c-0.104,0.063-0.239,0.051-0.324,0.146c-0.396,0.446-0.428,1.108-0.075,1.589c0.419,0.573,0.811,1.152,1.164,1.742 c4.709,7.867,5.419,17.43,2.11,28.426c-13.464,44.725-91.962,109.032-190.896,156.382c-88.084,42.16-172.528,67.329-225.888,67.329 c-30.827,0-50.362-8.091-58.061-24.049c-1.884-3.905-2.787-8.958-2.687-15.018c0.012-0.67-0.502-1.232-1.169-1.283 c-0.032-0.003-0.065-0.004-0.098-0.004c-0.114,0-0.196,0.084-0.302,0.113C0.668,243.569,0.02,250.548,0,257.624 c0.948,4.901,2.328,9.41,4.397,13.308c9.183,17.287,30.746,26.05,64.093,26.05c60.555,0,154.143-29.617,250.346-79.228 C413.428,168.977,480.893,110.502,494.901,65.152"/><path fill="#990AE3" d="M483.19,53.913c3.523-11.706,2.729-21.954-2.361-30.458c-0.199-0.334-0.438-0.658-0.657-0.987 c-9.085-5.27-18.989-9.43-29.408-12.754c-0.135,0.123-0.358,0.111-0.431,0.29c-0.252,0.615,0.015,1.32,0.608,1.615 c4.764,2.356,7.982,4.788,9.567,7.225c4.088,6.281,4.841,14.094,2.238,23.224c-11.955,41.954-93.225,106.433-193.235,153.317 c-82.786,38.81-157.963,61.069-206.254,61.069c-28.649,0-47.188-7.808-53.613-22.579c-2.235-5.14-2.555-12.027-0.95-20.471 c0.441-1.431,0.902-2.858,1.385-4.28c0.224-0.663-0.131-1.381-0.793-1.604c-0.136-0.046-0.272-0.068-0.407-0.068 c-0.072,0-0.095,0.107-0.166,0.12C4.886,218.646,2.289,229.996,1,241.573c0.283,4.769,1.035,9.038,2.643,12.373 c8.158,16.908,28.46,25.482,60.342,25.482c53.72,0,138.572-25.263,226.98-67.578C390.492,164.215,469.538,99.269,483.19,53.913"/><path fill="#990AE3" d="M465.183,42.761c2.812-9.865,1.953-18.377-2.552-25.299c-1.424-2.187-3.903-4.316-7.347-6.357 c-8.858-3.106-18.161-5.51-27.779-7.273c-0.179,0.16-0.47,0.165-0.533,0.41c-0.171,0.641,0.182,1.305,0.809,1.522 c6.764,2.346,11.253,5.316,13.348,8.83c3.163,5.307,3.57,11.979,1.21,19.831c-11.566,38.453-83.978,96.266-176.087,140.592 c-80.918,38.939-154.443,61.272-201.724,61.272c-25.785,0-42.759-6.848-49.085-19.803c-2.726-5.585-2.831-12.475-0.311-20.48 c0.203-0.644-0.134-1.333-0.765-1.568c-0.146-0.054-0.296-0.08-0.441-0.08c-0.028,0-0.038,0.041-0.066,0.043 c-3.32,7.561-6.111,15.256-8.273,23.083c-0.799,6.943-0.264,12.798,1.739,17.401c6.857,15.767,26.199,24.101,55.934,24.101 c49.365,0,122.996-21.773,207.33-61.308C372.825,149.75,452.848,86.045,465.183,42.761"/><path fill="#990AE3" d="M444.762,35.156c2.575-8.562,2.083-15.916-1.461-21.859c-1.972-3.31-5.734-6.12-11.034-8.439 c-14.891-3.098-30.567-4.646-46.608-4.788c-0.073,0.148-0.197,0.267-0.21,0.443c-0.044,0.673,0.445,1.262,1.115,1.341 c15.163,1.796,24.908,5.751,28.18,11.437c2.619,4.552,2.899,10.196,0.833,16.775c-10.73,34.159-79.949,87.052-168.328,128.625 c-74.073,34.843-137.555,54.032-178.752,54.032c-22.76,0-37.114-5.835-42.666-17.343c-2.835-5.878-2.648-12.959,0.554-21.045 c0.238-0.599-0.013-1.282-0.582-1.585c-0.179-0.095-0.372-0.135-0.563-0.14c-5.362,8.921-9.934,18.077-13.669,27.44 c-1.316,6.67-0.838,12.561,1.599,17.549c6.875,14.083,24.156,21.223,51.358,21.223c47.647,0,121.572-22.424,202.821-61.522 C360.051,132.688,433.007,74.237,444.762,35.156"/><path fill="#990AE3" d="M417.991,30.824c2.287-7.282,1.934-13.606-1.055-18.797c-3.223-5.604-11.219-9.538-23.748-11.751 C389.85,0.156,386.519,0,383.146,0c-15.314,0-30.945,0.939-46.704,2.678c-0.057,0.162-0.168,0.302-0.153,0.484 c0.05,0.663,0.603,1.172,1.262,1.172c0.018,0,0.036-0.001,0.054-0.001c2.92-0.123,5.748-0.186,8.467-0.186 c20.604,0,33.867,3.53,37.35,9.94c2.095,3.859,2.258,8.573,0.481,14.013c-9.372,28.723-72.036,75.355-152.39,113.399 c-63.339,29.99-120.804,47.19-157.661,47.19c-19.285,0-31.716-4.824-35.95-13.95c-2.883-6.22-1.365-14.274,4.51-23.939 c0.348-0.573,0.189-1.318-0.362-1.7c-0.126-0.087-0.275-0.094-0.415-0.13c-6.905,8.745-13.053,17.765-18.385,27.033 c-2.525,7.748-2.521,14.625,0.302,20.477c6.01,12.458,21.132,18.776,44.946,18.776c41.562,0,105.427-19.275,179.828-54.274 C337.295,119.131,407.063,65.608,417.991,30.824"/><path fill="#990AE3" d="M347.174,1.633c-18.022,1.555-36.262,4.259-54.473,7.979c-0.035,0.157-0.13,0.294-0.103,0.462 c0.107,0.615,0.642,1.05,1.247,1.05c0.062,0,0.121-0.004,0.183-0.014c8.688-1.265,16.597-1.907,23.502-1.907 c15.673,0,25.84,3.388,28.629,9.541c9.494,20.939-47.869,68.176-127.874,105.301c-53.241,24.705-105.353,40.053-135.995,40.053 c-14.414,0-23.599-3.376-26.562-9.764c-3.886-8.382,2.754-21.796,18.698-37.771c0.485-0.487,0.494-1.273,0.02-1.77 c-0.129-0.134-0.312-0.138-0.475-0.203c-13.446,12.165-25.408,25.088-35.634,38.643c-4.524,8.826-5.58,16.432-2.733,22.571 c4.679,10.087,17.903,15.417,38.246,15.417c37.218,0,95.078-17.288,158.745-47.432c82.217-38.928,143.989-85.104,153.713-114.903 c1.999-6.128,1.775-11.514-0.665-16.008C380.704,3.787,362.252,1.725,347.174,1.633"/><path fill="#990AE3" d="M348.466,17.697c-3.271-7.215-13.97-11.029-30.937-11.029c-4.14,0-8.714,0.292-13.502,0.74 c-25.149,4.537-50.31,11.097-74.821,19.434c-0.014,0.162-0.09,0.313-0.037,0.477c0.172,0.537,0.669,0.881,1.205,0.881 c0.121,0,0.246-0.018,0.368-0.055c20.256-6.154,37.862-9.407,50.917-9.407c11.632,0,18.986,2.604,21.271,7.53 c7.338,15.84-36.936,52.059-98.694,80.736c-41.069,19.073-81.548,30.921-105.637,30.921c-11.127,0-18.179-2.525-20.393-7.3 c-3.797-8.196,6.169-22.498,27.343-39.238c0.54-0.428,0.64-1.208,0.225-1.757c-0.107-0.144-0.292-0.136-0.439-0.219 c-14.367,10.31-27.725,21.313-39.717,32.986C53.947,136.004,49.686,147.32,53.433,155.4c3.456,7.452,13.165,11.23,28.857,11.23 c31.458,0,82.694-15.061,137.061-40.288C303.365,87.357,358.872,40.649,348.466,17.697"/><path fill="#990AE3" d="M305.227,25.203c-2.77-5.973-10.701-9.002-23.577-9.002c-9.339,0-21.102,1.686-34.339,4.83 c-56.54,16.983-110.416,43.54-153.41,76.921c-15.178,13.936-21.664,25.811-17.991,33.738c2.696,5.818,10.33,8.768,22.689,8.768 c24.435,0,65.32-11.938,106.703-31.156C270.461,79.045,313.42,42.89,305.227,25.203 M189.502,89.162 c-27.56,12.657-54.056,20.521-69.149,20.521c-6.244,0-10.162-1.345-11.33-3.89c-3.892-8.481,21.038-30.926,64.354-50.819 c26.595-12.216,52.769-19.804,68.307-19.805c6.729,0,10.939,1.42,12.172,4.105C257.562,47.35,234.01,68.72,189.502,89.162"/><path fill="#990AE3" d="M256.156,38.217c-1.699-3.703-6.568-5.581-14.473-5.581c-15.879,0-42.458,7.677-69.364,20.036 c-36.725,16.866-71.303,41.743-65.597,54.178c1.634,3.561,6.22,5.366,13.631,5.366c15.436,0,42.336-7.952,70.205-20.752 C227.511,74.493,261.909,50.753,256.156,38.217 M220.685,49.684c-1.302,4.687-14.385,14.968-36.868,25.55 c-17.512,8.245-34.354,13.573-42.908,13.573c-2.391,0-4.062-0.448-4.582-1.227c-0.084-0.126-0.34-0.509-0.093-1.399 c1.34-4.815,14.7-15.552,36.827-25.967c17.011-8.008,33.735-13.183,42.604-13.183c2.577,0,4.371,0.475,4.923,1.302 C220.669,48.456,220.921,48.833,220.685,49.684"/><path fill="#990AE3" d="M222.693,46.926c-1.091-1.634-3.389-2.428-7.027-2.428c-9.213,0-26.36,5.269-43.684,13.423 c-20.676,9.733-36.379,21.075-38.188,27.581c-0.461,1.661-0.023,2.811,0.426,3.484c1.058,1.583,3.246,2.353,6.688,2.353 c8.896,0,26.162-5.422,43.986-13.813c17.569-8.27,36.204-19.876,38.229-27.164C223.577,48.734,223.14,47.595,222.693,46.926"/><path fill="#990AE3" d="M222.693,46.926c-1.091-1.634-3.389-2.428-7.027-2.428c-9.213,0-26.36,5.269-43.684,13.423 c-20.676,9.733-36.379,21.075-38.188,27.581c-0.461,1.661-0.023,2.811,0.426,3.484c1.058,1.583,3.246,2.353,6.688,2.353 c8.896,0,26.162-5.422,43.986-13.813c17.569-8.27,36.204-19.876,38.229-27.164C223.577,48.734,223.14,47.595,222.693,46.926" style="fill: rgb(0, 204, 204);"/><path fill="#990AE3" d="M256.156,38.217c-1.699-3.703-6.568-5.581-14.473-5.581c-15.879,0-42.458,7.677-69.364,20.036 c-36.725,16.866-71.303,41.743-65.597,54.178c1.634,3.561,6.22,5.366,13.631,5.366c15.436,0,42.336-7.952,70.205-20.752 C227.511,74.493,261.909,50.753,256.156,38.217 M220.685,49.684c-1.302,4.687-14.385,14.968-36.868,25.55 c-17.512,8.245-34.354,13.573-42.908,13.573c-2.391,0-4.062-0.448-4.582-1.227c-0.084-0.126-0.34-0.509-0.093-1.399 c1.34-4.815,14.7-15.552,36.827-25.967c17.011-8.008,33.735-13.183,42.604-13.183c2.577,0,4.371,0.475,4.923,1.302 C220.669,48.456,220.921,48.833,220.685,49.684" style="fill: rgb(0, 204, 204);"/><path fill="#990AE3" d="M305.227,25.203c-2.77-5.973-10.701-9.002-23.577-9.002c-9.339,0-21.102,1.686-34.339,4.83 c-56.54,16.983-110.416,43.54-153.41,76.921c-15.178,13.936-21.664,25.811-17.991,33.738c2.696,5.818,10.33,8.768,22.689,8.768 c24.435,0,65.32-11.938,106.703-31.156C270.461,79.045,313.42,42.89,305.227,25.203 M189.502,89.162 c-27.56,12.657-54.056,20.521-69.149,20.521c-6.244,0-10.162-1.345-11.33-3.89c-3.892-8.481,21.038-30.926,64.354-50.819 c26.595-12.216,52.769-19.804,68.307-19.805c6.729,0,10.939,1.42,12.172,4.105C257.562,47.35,234.01,68.72,189.502,89.162" style="fill: rgb(0, 204, 204);"/><path fill="#990AE3" d="M348.466,17.697c-3.271-7.215-13.97-11.029-30.937-11.029c-4.14,0-8.714,0.292-13.502,0.74 c-25.149,4.537-50.31,11.097-74.821,19.434c-0.014,0.162-0.09,0.313-0.037,0.477c0.172,0.537,0.669,0.881,1.205,0.881 c0.121,0,0.246-0.018,0.368-0.055c20.256-6.154,37.862-9.407,50.917-9.407c11.632,0,18.986,2.604,21.271,7.53 c7.338,15.84-36.936,52.059-98.694,80.736c-41.069,19.073-81.548,30.921-105.637,30.921c-11.127,0-18.179-2.525-20.393-7.3 c-3.797-8.196,6.169-22.498,27.343-39.238c0.54-0.428,0.64-1.208,0.225-1.757c-0.107-0.144-0.292-0.136-0.439-0.219 c-14.367,10.31-27.725,21.313-39.717,32.986C53.947,136.004,49.686,147.32,53.433,155.4c3.456,7.452,13.165,11.23,28.857,11.23 c31.458,0,82.694-15.061,137.061-40.288C303.365,87.357,358.872,40.649,348.466,17.697" style="fill: rgb(0, 204, 204);"/><path fill="#990AE3" d="M347.174,1.633c-18.022,1.555-36.262,4.259-54.473,7.979c-0.035,0.157-0.13,0.294-0.103,0.462 c0.107,0.615,0.642,1.05,1.247,1.05c0.062,0,0.121-0.004,0.183-0.014c8.688-1.265,16.597-1.907,23.502-1.907 c15.673,0,25.84,3.388,28.629,9.541c9.494,20.939-47.869,68.176-127.874,105.301c-53.241,24.705-105.353,40.053-135.995,40.053 c-14.414,0-23.599-3.376-26.562-9.764c-3.886-8.382,2.754-21.796,18.698-37.771c0.485-0.487,0.494-1.273,0.02-1.77 c-0.129-0.134-0.312-0.138-0.475-0.203c-13.446,12.165-25.408,25.088-35.634,38.643c-4.524,8.826-5.58,16.432-2.733,22.571 c4.679,10.087,17.903,15.417,38.246,15.417c37.218,0,95.078-17.288,158.745-47.432c82.217-38.928,143.989-85.104,153.713-114.903 c1.999-6.128,1.775-11.514-0.665-16.008C380.704,3.787,362.252,1.725,347.174,1.633" style="fill: rgb(0, 204, 204);"/><path fill="#990AE3" d="M417.991,30.824c2.287-7.282,1.934-13.606-1.055-18.797c-3.223-5.604-11.219-9.538-23.748-11.751 C389.85,0.156,386.519,0,383.146,0c-15.314,0-30.945,0.939-46.704,2.678c-0.057,0.162-0.168,0.302-0.153,0.484 c0.05,0.663,0.603,1.172,1.262,1.172c0.018,0,0.036-0.001,0.054-0.001c2.92-0.123,5.748-0.186,8.467-0.186 c20.604,0,33.867,3.53,37.35,9.94c2.095,3.859,2.258,8.573,0.481,14.013c-9.372,28.723-72.036,75.355-152.39,113.399 c-63.339,29.99-120.804,47.19-157.661,47.19c-19.285,0-31.716-4.824-35.95-13.95c-2.883-6.22-1.365-14.274,4.51-23.939 c0.348-0.573,0.189-1.318-0.362-1.7c-0.126-0.087-0.275-0.094-0.415-0.13c-6.905,8.745-13.053,17.765-18.385,27.033 c-2.525,7.748-2.521,14.625,0.302,20.477c6.01,12.458,21.132,18.776,44.946,18.776c41.562,0,105.427-19.275,179.828-54.274 C337.295,119.131,407.063,65.608,417.991,30.824" style="fill: rgb(49, 255, 0);"/><path fill="#990AE3" d="M444.762,35.156c2.575-8.562,2.083-15.916-1.461-21.859c-1.972-3.31-5.734-6.12-11.034-8.439 c-14.891-3.098-30.567-4.646-46.608-4.788c-0.073,0.148-0.197,0.267-0.21,0.443c-0.044,0.673,0.445,1.262,1.115,1.341 c15.163,1.796,24.908,5.751,28.18,11.437c2.619,4.552,2.899,10.196,0.833,16.775c-10.73,34.159-79.949,87.052-168.328,128.625 c-74.073,34.843-137.555,54.032-178.752,54.032c-22.76,0-37.114-5.835-42.666-17.343c-2.835-5.878-2.648-12.959,0.554-21.045 c0.238-0.599-0.013-1.282-0.582-1.585c-0.179-0.095-0.372-0.135-0.563-0.14c-5.362,8.921-9.934,18.077-13.669,27.44 c-1.316,6.67-0.838,12.561,1.599,17.549c6.875,14.083,24.156,21.223,51.358,21.223c47.647,0,121.572-22.424,202.821-61.522 C360.051,132.688,433.007,74.237,444.762,35.156" style="fill: rgb(49, 255, 0);"/><path fill="#990AE3" d="M465.183,42.761c2.812-9.865,1.953-18.377-2.552-25.299c-1.424-2.187-3.903-4.316-7.347-6.357 c-8.858-3.106-18.161-5.51-27.779-7.273c-0.179,0.16-0.47,0.165-0.533,0.41c-0.171,0.641,0.182,1.305,0.809,1.522 c6.764,2.346,11.253,5.316,13.348,8.83c3.163,5.307,3.57,11.979,1.21,19.831c-11.566,38.453-83.978,96.266-176.087,140.592 c-80.918,38.939-154.443,61.272-201.724,61.272c-25.785,0-42.759-6.848-49.085-19.803c-2.726-5.585-2.831-12.475-0.311-20.48 c0.203-0.644-0.134-1.333-0.765-1.568c-0.146-0.054-0.296-0.08-0.441-0.08c-0.028,0-0.038,0.041-0.066,0.043 c-3.32,7.561-6.111,15.256-8.273,23.083c-0.799,6.943-0.264,12.798,1.739,17.401c6.857,15.767,26.199,24.101,55.934,24.101 c49.365,0,122.996-21.773,207.33-61.308C372.825,149.75,452.848,86.045,465.183,42.761" style="fill: rgb(49, 255, 0);"/><path fill="#990AE3" d="M483.19,53.913c3.523-11.706,2.729-21.954-2.361-30.458c-0.199-0.334-0.438-0.658-0.657-0.987 c-9.085-5.27-18.989-9.43-29.408-12.754c-0.135,0.123-0.358,0.111-0.431,0.29c-0.252,0.615,0.015,1.32,0.608,1.615 c4.764,2.356,7.982,4.788,9.567,7.225c4.088,6.281,4.841,14.094,2.238,23.224c-11.955,41.954-93.225,106.433-193.235,153.317 c-82.786,38.81-157.963,61.069-206.254,61.069c-28.649,0-47.188-7.808-53.613-22.579c-2.235-5.14-2.555-12.027-0.95-20.471 c0.441-1.431,0.902-2.858,1.385-4.28c0.224-0.663-0.131-1.381-0.793-1.604c-0.136-0.046-0.272-0.068-0.407-0.068 c-0.072,0-0.095,0.107-0.166,0.12C4.886,218.646,2.289,229.996,1,241.573c0.283,4.769,1.035,9.038,2.643,12.373 c8.158,16.908,28.46,25.482,60.342,25.482c53.72,0,138.572-25.263,226.98-67.578C390.492,164.215,469.538,99.269,483.19,53.913" style="fill: rgb(49, 255, 0);"/><path fill="#990AE3" d="M494.901,65.152c3.957-12.812,3.418-24.118-1.404-33.705c-4.901-3.772-10.129-7.131-15.604-10.167 c-0.104,0.063-0.239,0.051-0.324,0.146c-0.396,0.446-0.428,1.108-0.075,1.589c0.419,0.573,0.811,1.152,1.164,1.742 c4.709,7.867,5.419,17.43,2.11,28.426c-13.464,44.725-91.962,109.032-190.896,156.382c-88.084,42.16-172.528,67.329-225.888,67.329 c-30.827,0-50.362-8.091-58.061-24.049c-1.884-3.905-2.787-8.958-2.687-15.018c0.012-0.67-0.502-1.232-1.169-1.283 c-0.032-0.003-0.065-0.004-0.098-0.004c-0.114,0-0.196,0.084-0.302,0.113C0.668,243.569,0.02,250.548,0,257.624 c0.948,4.901,2.328,9.41,4.397,13.308c9.183,17.287,30.746,26.05,64.093,26.05c60.555,0,154.143-29.617,250.346-79.228 C413.428,168.977,480.893,110.502,494.901,65.152" style="fill: rgb(49, 255, 0);"/><path fill="#990AE3" d="M506.844,43.67c-4.705-5-9.717-9.646-15.216-13.704c-0.154,0.05-0.322,0.056-0.451,0.167 c-0.451,0.388-0.571,1.037-0.289,1.561c4.938,9.167,5.47,20.186,1.58,32.751c-13.843,44.717-80.818,102.599-174.791,151.057 c-95.862,49.434-189.016,78.947-249.187,78.947c-32.337,0-53.147-8.312-61.856-24.706c-2.355-4.435-3.958-9.554-4.764-15.216 c-0.089-0.627-0.627-1.087-1.252-1.087c-0.028,0-0.057,0-0.083,0.002c-0.14,0.009-0.23,0.116-0.354,0.165 c-0.045,1.485-0.201,2.952-0.201,4.444c0,8.764,1.012,18.063,2.745,27.682c10.763,19.949,35.935,30.508,72.862,30.508 c60.591,0,148.314-27.242,240.678-74.738C448.494,173.507,527.887,90.833,506.844,43.67" style="fill: rgb(49, 255, 0);"/><path fill="#990AE3" d="M515.647,54.318c-3.406-4.685-7.076-9.078-11.086-13.089c-0.133,0.04-0.274,0.042-0.393,0.128 c-0.509,0.366-0.674,1.048-0.388,1.605c23.331,45.522-56.018,128.073-188.674,196.288 c-92.017,47.318-179.319,74.458-239.521,74.458c-36.089,0-60.566-10.168-70.784-29.405c-0.278-0.521-0.535-1.059-0.792-1.597 c-0.224-0.467-0.73-0.8-1.236-0.8c-0.11,0-0.222,0.016-0.33,0.05c-0.15,0.048-0.238,0.166-0.36,0.251 c0.88,5.475,2.069,11.083,3.483,16.783c10.845,21.662,37.208,33.102,76.898,33.102c62.095,0,151.283-27.746,244.694-76.121 C451.118,191.777,532.881,103.95,515.647,54.318" style="fill: rgb(152, 255, 99);"/><path fill="#990AE3" d="M523.492,66.803c-2.992-5.533-6.306-10.728-10.021-15.491c-0.143,0.025-0.285,0.036-0.415,0.112 c-0.551,0.319-0.779,0.998-0.533,1.585c20.091,47.979-61.84,136.141-186.525,200.71c-93.062,48.197-181.826,75.838-243.528,75.838 c-40.196,0-66.445-11.728-75.907-33.912c-0.205-0.479-0.67-0.771-1.165-0.771c-0.131,0-0.264,0.021-0.394,0.062 c-0.153,0.052-0.23,0.189-0.349,0.285c2.148,9.353,5.017,18.982,8.521,28.801c15.053,16.644,40.091,25.14,74.601,25.14 c64.174,0,156.038-29.742,252.039-81.603C464.063,200.435,532.506,125.519,523.492,66.803" style="fill: rgb(152, 255, 99);"/><path fill="#990AE3" d="M530.442,82.164c-2.318-6.275-5.056-12.131-8.172-17.596c-0.056-0.007-0.08-0.086-0.138-0.086 c-0.129,0-0.262,0.021-0.391,0.062c-0.599,0.195-0.964,0.8-0.856,1.421c9.996,57.776-58.145,132.306-182.273,199.366 c-95.643,51.666-187.068,81.298-250.835,81.298c-34.56,0-59.394-8.545-73.812-25.395c-0.248-0.289-0.604-0.443-0.963-0.443 c-0.219,0-0.44,0.057-0.642,0.174c-0.087,0.051-0.11,0.152-0.181,0.219c1.511,4.373,3.149,8.779,4.912,13.217 c14.919,20.162,41.412,30.355,79.153,30.355c63.86,0,153.839-29.205,253.359-82.236 C468.452,219.188,538.815,140.954,530.442,82.164" style="fill: rgb(152, 255, 99);"/><path fill="#990AE3" d="M536.916,106.659c-1.772-10.295-4.474-19.706-7.984-28.316c0,0-0.005-0.006-0.009-0.006 c-0.117,0-0.235,0.017-0.353,0.05c-0.626,0.182-1.013,0.808-0.894,1.45c10.815,57.972-59.549,136.652-179.263,200.448 c-99.161,52.838-188.716,81.938-252.169,81.938c-38.151,0-64.573-10.428-78.532-30.992c-0.243-0.358-0.64-0.557-1.048-0.557 c-0.199,0-0.401,0.047-0.588,0.146c-0.137,0.072-0.188,0.215-0.286,0.324c2.954,7.674,6.233,15.43,9.9,23.235 c16.941,18.287,43.933,27.629,80.425,27.629c66.915,0,160.014-31.43,255.425-86.231 C471.834,232.425,533.842,165.414,536.916,106.659" style="fill: rgb(152, 255, 99);"/><path fill="#990AE3" d="M539.007,125.392c-0.475-7.994-1.278-15.685-2.697-22.802c-0.14-0.053-0.261-0.149-0.417-0.149 c-0.037,0-0.073,0.002-0.11,0.005c-0.645,0.055-1.144,0.59-1.154,1.238c-1.117,58.519-63.034,125.96-174.348,189.896 c-95.037,54.588-187.677,85.896-254.163,85.896c-36.672,0-63.551-9.463-79.891-28.125c-0.249-0.285-0.599-0.435-0.953-0.435 c-0.237,0-0.478,0.065-0.688,0.205c-0.112,0.071-0.143,0.203-0.223,0.299c2.601,5.664,5.357,11.345,8.307,17.037 c17.467,18,44.596,27.196,80.846,27.196c66.969,0,158.758-31.209,258.459-87.879C469.054,252.594,532.398,183.163,539.007,125.392" style="fill: rgb(152, 50, 255);"/><path fill="#990AE3" d="M538.757,120.039c-0.149-0.066-0.271-0.185-0.442-0.189c-0.01,0-0.02-0.001-0.029-0.001 c-0.664,0-1.218,0.516-1.263,1.182c-3.887,57.732-67.609,128.445-166.3,184.543c-99.326,56.457-190.67,87.549-257.207,87.549 c-36.528,0-63.616-9.365-80.51-27.836c-0.249-0.271-0.59-0.412-0.936-0.412c-0.251,0-0.503,0.074-0.722,0.227 c-0.118,0.082-0.147,0.222-0.229,0.332c3.67,7.228,7.646,14.459,11.837,21.676c18.311,15.902,44.926,24.031,79.291,24.031 c68.525,0,163.458-32.938,260.456-90.371c88.289-52.278,143.631-112.461,156.553-169.884c0.113-4.671,0.284-9.318,0.284-14.04 C539.541,131.007,539.233,125.445,538.757,120.039" style="fill: rgb(152, 50, 255);"/><path fill="#990AE3" d="M539.353,146.102c-0.127-0.061-0.22-0.174-0.366-0.189c-0.045-0.005-0.09-0.007-0.135-0.007 c-0.6,0-1.124,0.423-1.241,1.023c-11.29,57.74-66.762,118.703-156.196,171.659c-96.618,57.209-191.081,90.02-259.166,90.02 c-34.665,0-61.297-8.291-79.156-24.643c-0.241-0.223-0.548-0.334-0.855-0.334c-0.279,0-0.559,0.092-0.792,0.277 c-0.092,0.074-0.105,0.195-0.172,0.287c2.234,3.912,4.527,7.813,6.903,11.707l0.001,0.002 c19.946,18.965,48.016,28.557,83.804,28.557c66.057,0,157.929-33.119,258.694-93.258c79.854-47.658,134.764-109.04,148.019-164.989 v-0.004C539.036,159.564,539.241,152.856,539.353,146.102" style="fill: rgb(152, 50, 255);"/><path fill="#990AE3" d="M538.841,161.06c-0.147-0.057-0.303-0.085-0.456-0.085c-0.21,0-0.419,0.052-0.607,0.155 c-0.327,0.178-0.559,0.492-0.634,0.857c-11.51,56.244-66.751,118.69-147.769,167.042 c-100.378,59.906-191.788,92.897-257.395,92.897c-36.237,0-64.431-9.87-83.796-29.34c-0.246-0.246-0.57-0.373-0.897-0.373 c-0.271,0-0.542,0.086-0.771,0.263c-0.126,0.096-0.155,0.25-0.233,0.379c4.234,7.059,8.75,14.065,13.419,21.016 c18.224,16.66,44.646,25.104,78.92,25.104c70.425,0,173.5-37.586,262.599-95.756c71.201-46.486,119.021-99.174,135.273-148.763 c1.124-10.953,2.025-22.025,2.51-33.301C538.948,161.124,538.897,161.083,538.841,161.06" style="fill: rgb(152, 50, 255);"/><path fill="#990AE3" d="M536.632,189.596c-0.082-0.016-0.164-0.024-0.245-0.024c-0.549,0-1.048,0.358-1.211,0.901 c-15.021,49.958-63.084,103.451-135.339,150.625c-88.716,57.92-191.248,95.345-261.216,95.345c-34.967,0-61.623-8.796-79.23-26.14 c-0.245-0.24-0.565-0.363-0.889-0.363c-0.284,0-0.569,0.097-0.804,0.291c-0.108,0.088-0.122,0.228-0.193,0.34 c3.166,4.796,6.428,9.55,9.781,14.269c20.406,17.435,48.09,26.262,82.649,26.262c69.418,0,163.786-35.7,258.907-97.944 c62.563-40.941,104.831-89.136,125.886-143.224c0.87-6.64,1.604-13.355,2.239-20.123 C536.851,189.74,536.771,189.623,536.632,189.596" style="fill: rgb(152, 50, 255);"/><path fill="#990AE3" d="M534.911,205.791c-0.103-0.025-0.204-0.037-0.304-0.037c-0.518,0-0.996,0.318-1.186,0.821 c-20.52,54.587-62.899,103.19-125.967,144.461c-94.719,61.979-188.581,97.529-257.521,97.529c-35.172,0-63.112-9.166-83.043-27.247 c-0.241-0.219-0.545-0.327-0.851-0.327c-0.299,0-0.599,0.104-0.837,0.315c-0.104,0.092-0.113,0.23-0.181,0.344 c4.688,6.703,9.538,13.331,14.569,19.835c19.664,15.58,45.854,23.469,78.21,23.469c85.014,0,190.45-52.654,260.776-101.935 c55.23-38.699,93.039-82.501,112.652-130.186c1.532-8.819,2.928-17.723,4.05-26.787 C535.157,205.959,535.068,205.83,534.911,205.791" style="fill: rgb(152, 50, 255);"/><path fill="#990AE3" d="M531.623,228.414c-0.112-0.031-0.228-0.047-0.341-0.047c-0.507,0-0.979,0.308-1.176,0.801 c-19.086,48.286-57.098,92.622-112.979,131.777C347.119,410,242.233,462.42,157.81,462.42c-32.946,0-59.398-8.197-78.627-24.365 c-0.236-0.196-0.525-0.295-0.814-0.295c-0.315,0-0.631,0.117-0.874,0.351c-0.105,0.1-0.111,0.243-0.175,0.366 c4.003,5.255,8.08,10.453,12.281,15.548c19.174,15.161,44.678,22.86,76.159,22.86c71.494,0,170.972-40.057,259.613-104.537 c50.755-36.92,84.534-78.219,103.394-126.056c1.16-5.814,2.243-11.677,3.228-17.604 C531.868,228.593,531.782,228.458,531.623,228.414" style="fill: rgb(152, 50, 255);"/><path fill="#990AE3" d="M529.301,241.396c-0.114-0.032-0.231-0.048-0.346-0.048c-0.515,0-0.994,0.316-1.185,0.819 c-18.406,48.756-52.388,90.668-103.886,128.131C335.655,434.48,236.748,474.35,165.76,474.35c-32.283,0-58.184-8.106-76.985-24.102 c-0.237-0.201-0.529-0.303-0.819-0.303c-0.322,0-0.643,0.123-0.888,0.36c-0.101,0.101-0.103,0.242-0.164,0.363 c5.071,6.252,10.268,12.377,15.6,18.338c18.809,14.101,43.398,21.271,73.433,21.271c71.659,0,172.707-42.312,257.431-107.787 c50.852-39.297,73.113-75.068,88.947-107.95c2.744-10.749,5.175-21.724,7.305-32.903 C529.508,241.56,529.438,241.436,529.301,241.396" style="fill: rgb(152, 50, 255);"/><path fill="#990AE3" d="M523.246,269.366c-0.139-0.05-0.282-0.073-0.423-0.073c-0.479,0-0.931,0.272-1.146,0.726 c-15.812,33.526-37.643,70.112-89.857,110.467c-84.309,65.154-184.747,107.257-255.884,107.257 c-31.011,0-56.134-7.652-74.669-22.744c-0.233-0.191-0.518-0.285-0.8-0.285c-0.333,0-0.665,0.133-0.913,0.389 c-0.11,0.115-0.112,0.273-0.17,0.412c3.822,4.355,7.698,8.64,11.641,12.818c17.905,14.436,42.043,21.811,72.075,21.811 c72.281,0,177.806-45.452,256.616-110.534c33.848-27.951,62.951-65.377,78.846-100.935c1.778-6.257,3.471-12.583,5.046-19 C523.487,269.567,523.406,269.422,523.246,269.366" style="fill: rgb(152, 50, 255);"/><path fill="#990AE3" d="M519.736,282.842c-0.137-0.047-0.275-0.07-0.413-0.07c-0.497,0-0.965,0.295-1.168,0.777 c-15.271,36.404-45.195,75.32-80.051,104.104C359.706,452.395,254.846,497.609,183.1,497.609c-31.934,0-57.476-7.787-75.182-24.259 c-0.243-0.227-0.555-0.34-0.862-0.34c-0.238,0-0.45,0.14-0.656,0.271c7.737,8.444,15.688,16.555,23.827,24.203 c15.741,9.998,35.227,15.08,60.517,15.08c74.21,0,181.707-48.146,255.604-114.478c24.998-22.441,45.599-48.914,63.055-80.561 c3.875-11.191,7.431-22.666,10.64-34.426C519.933,283.019,519.871,282.889,519.736,282.842" style="fill: rgb(152, 50, 255);"/><path fill="#990AE3" d="M510.848,312.271c-0.164-0.07-0.335-0.105-0.504-0.105c-0.452,0-0.889,0.246-1.115,0.668 c-17.726,33.006-38.848,60.277-64.571,83.369c-73.479,65.957-180.267,113.83-253.912,113.83c-25.661,0-46.65-5.627-62.384-16.726 c-0.22-0.155-0.476-0.229-0.728-0.229c-0.367,0-0.729,0.158-0.978,0.461c-0.094,0.111-0.078,0.258-0.126,0.389 c4.465,4.295,8.974,8.472,13.535,12.486c15.801,10.146,35.793,15.309,59.683,15.309c81.568,0,193.887-60.942,251.169-117.408 c24.295-23.948,41.159-49.514,51.7-68.287c2.983-7.682,5.849-15.483,8.522-23.465C511.037,312.467,510.982,312.33,510.848,312.271" style="fill: rgb(174, 89, 255);"/><path fill="#990AE3" d="M504.851,329.189c-0.169-0.078-0.348-0.113-0.523-0.113c-0.451,0-0.888,0.242-1.114,0.666 c-10.144,18.879-27.758,46.828-54.073,72.768C392.212,458.623,280.677,519.19,199.749,519.19c-25.888,0-47.458-6.095-63.406-18.111 c-0.227-0.172-0.495-0.254-0.76-0.254c-0.365,0-0.728,0.156-0.978,0.459c-0.051,0.062,0.003,0.145-0.024,0.215 c7.395,6.754,14.912,13.113,22.513,19.039c13.146,7.611,29.841,11.646,50.169,11.646c76.4,0,188.048-54.684,248.883-121.899 c13.642-15.072,25.459-31.375,36.128-49.466c4.555-10.149,8.895-20.555,12.901-31.295 C505.065,329.41,505.002,329.258,504.851,329.189" style="fill: rgb(174, 89, 255);"/><path fill="#990AE3" d="M495.126,353.391c-0.181-0.09-0.373-0.133-0.562-0.133c-0.444,0-0.872,0.234-1.104,0.645 c-11.427,20.281-24.246,38.171-39.19,54.683c-60.42,66.756-171.226,121.068-247.004,121.068c-21.927,0-39.71-4.523-52.854-13.447 c-0.218-0.146-0.466-0.219-0.709-0.219c-0.391,0-0.773,0.18-1.021,0.516c-0.104,0.141-0.085,0.312-0.123,0.475 c5.954,4.804,11.964,9.279,18.003,13.507c12.067,6.448,27.11,9.903,45.244,9.903c72.773,0,176.333-51.436,235.763-117.1 c14.05-15.525,24.511-31.729,33.606-47.354c3.541-7.25,6.95-14.662,10.218-22.244C495.297,353.592,495.255,353.455,495.126,353.391 " style="fill: rgb(174, 89, 255);"/><path fill="#990AE3" d="M488.599,367.832c-10.01,17.76-22.618,35.758-38.906,53.754 c-58.023,64.109-162.945,116.268-233.888,116.268c-20.854,0-37.406-3.375-49.827-12.01c-0.22-0.151-1.135-0.69-1.384-0.69 c-0.396,0-0.443-0.354-0.689-0.009c-0.11,0.154-0.088,0.339-0.12,0.513c9.538,7.061,19.17,13.326,28.809,18.778 c9.636,3.593,20.818,5.505,33.604,5.505c66.172,0,174.479-51.855,234.422-129.568c10.303-16.537,19.956-34.222,28.714-53.031 L488.599,367.832z" style="fill: rgb(174, 89, 255);"/><path fill="#990AE3" d="M464.64,413.037c-0.215-0.143-0.458-0.211-0.699-0.211c-0.392,0-0.774,0.182-1.022,0.521 C404.425,493.535,293.296,547.402,226.2,547.402c-14.522,0-27.025-2.361-37.161-7.021c-0.171-0.078-0.352-0.115-0.528-0.115 c-0.457,0-0.897,0.248-1.123,0.679c-0.085,0.164-0.042,0.338-0.052,0.512c8.323,4.982,16.656,9.289,24.947,12.916 c6.275,1.35,13,2.15,20.401,2.15c16.752,0,36.118-3.361,57.56-9.992c67.903-21,125.011-67.957,156.369-104.963 c6.299-8.982,12.414-18.351,18.289-28.148C464.813,413.291,464.779,413.129,464.64,413.037" style="fill: rgb(174, 89, 255);"/><path fill="#990AE3" d="M412.585,484.215c14.054-15.381,27.604-32.692,40.293-51.744c-0.084-0.133-0.111-0.297-0.248-0.395 c-0.225-0.16-0.468,0.268-0.725,0.268c-0.377,0-1.53,1.363-1.779,1.683c-29.367,37.625-88.492,87.776-160.631,110.086 c-21.198,6.557-40.312,9.881-56.81,9.881c-8.395,0-16.034-0.865-22.705-2.57c-0.105-0.024-0.211-0.039-0.313-0.039 c-0.526,0-1.013,0.33-1.194,0.847c-0.051,0.145,0.012,0.282,0.013,0.43c9.555,4.424,19.044,7.859,28.403,10.271 c2.297,0.17,4.569,0.4,6.941,0.4c21.642,0,47.146-6.344,75.803-18.857C361.896,526.023,392.675,502.561,412.585,484.215" style="fill: rgb(174, 89, 255);"/><path fill="#990AE3" d="M419.434,476.449c-0.063-0.127-0.064-0.277-0.176-0.381c-0.244-0.23-0.557-0.347-0.868-0.347 c-0.32,0-0.642,0.121-0.886,0.363c-19.216,18.834-51.968,45.584-98.885,66.066c-28.334,12.37-53.497,18.645-74.788,18.645 c-3.631,0-7.136-0.19-10.413-0.57c-0.05-0.006-0.1-0.008-0.147-0.008c-0.596,0-1.121,0.42-1.24,1.019 c-0.031,0.158,0.053,0.293,0.078,0.444c11.495,3.39,22.804,5.248,33.742,5.248C312.745,566.93,369.66,533.848,419.434,476.449" style="fill: rgb(174, 89, 255);"/></g><g id="gradient" mask="url(#gradient-mask)"><path fill="#fff" d="M538.596,117.98c-2.114-21.35-7.901-39.317-16.57-54.28C495.312,17.562,441.263,0,383.312,0 C211.509,0,0.659,113.23,0.659,257.705c0,18.565,4.092,39.334,11.434,61.085c5.037,14.905,11.602,30.283,19.416,45.721 c16.509,32.604,38.617,65.518,63.766,95.027c8.395,9.846,17.121,19.315,26.098,28.264c46.133,46.013,98.703,78.367,144.802,78.367 c80.734,0,191.277-97.954,243.583-249.833c5.329-15.475,10.053-31.512,14.083-48.06c9.963-40.964,15.653-85.071,15.653-131.617 C539.493,130.165,539.191,123.942,538.596,117.98z" style="fill: rgb(255, 255, 255);"/></g></svg>