<?xml version="1.0" encoding="UTF-8"?>
<svg width="120px" height="47px" viewBox="0 0 120 47" version="1.1" xmlns="http://www.w3.org/2000/svg" xmlns:xlink="http://www.w3.org/1999/xlink">
    <!-- Generator: Sketch 47.1 (45422) - http://www.bohemiancoding.com/sketch -->
    <title>logo</title>
    <desc>Created with Sketch.</desc>
    <defs></defs>
    <g id="Symbols" stroke="none" stroke-width="1" fill="none" fill-rule="evenodd">
        <g id="Header/desktop-logged-in" transform="translate(-660.000000, -23.000000)">
            <g id="logo" transform="translate(660.000000, 23.260262)">
                <path d="M54.8231317,17.3681593 C54.2218222,17.3681593 53.6205128,16.9227935 53.0215614,16.0367746 C52.6277627,15.4182109 52.4320424,14.9528153 52.4320424,14.6323404 C52.4320424,14.0821132 52.7951861,13.5766583 53.5238317,13.1089063 C54.2296606,12.646984 55.055882,12.4027732 55.8995935,12.4066892 L70.0692736,12.4066892 C70.9700587,12.4066892 71.4204513,12.819065 71.4204513,13.6379256 C71.4278591,14.5509133 71.1622279,15.4453067 70.6576136,16.2064378 C70.1482691,16.9840607 69.5964793,17.3705158 68.9951699,17.3705158 L64.3851308,17.3705158 L64.3851308,32.8404998 C64.3851308,33.7760038 64.1316376,34.631389 63.6246512,35.4054773 C63.1176648,36.1831003 62.5611588,36.5719118 61.9622075,36.5719118 C61.360898,36.5719118 60.7595886,36.1265459 60.1582792,35.2358141 C59.7668385,34.6207851 59.5711182,34.1518549 59.5711182,33.8337364 L59.5711182,17.3681593 L54.8231317,17.3681593 Z M76.823983,22.5028273 C75.7156871,22.5028273 74.7665614,22.8162329 73.9825011,23.4430442 C73.1972617,24.0710336 72.712677,24.9099238 72.5275681,25.9585366 L80.7018393,25.9585366 C80.6692649,25.0094197 80.241931,24.1169143 79.5228012,23.4960639 C78.7835443,22.832728 77.8839382,22.5028273 76.8228039,22.5028273 L76.823983,22.5028273 Z M72.5287471,29.4154241 C72.7810613,30.4876012 73.3352092,31.3476993 74.1911908,32.0004313 C75.0448144,32.6484505 76.0717566,32.9736383 77.2731965,32.9736383 C78.2907064,32.9736383 79.5015785,32.6319554 80.9105291,31.9485898 C81.559,31.6281149 82.1567724,31.4690557 82.7109203,31.4690557 C83.4501772,31.4690557 83.8192161,31.7989563 83.8192161,32.461114 C83.8192161,33.0561134 83.6871638,33.6240138 83.4218803,34.1718845 C83.1565967,34.718577 82.8170337,35.1168143 82.4008333,35.3665962 C81.5854996,35.8597056 80.7042099,36.2345878 79.7833686,36.4800109 C78.8529106,36.737721 77.8920913,36.8696772 76.9265593,36.872357 C75.2641155,36.872357 73.7431564,36.4387733 72.3731141,35.5716059 C71.0355629,34.7443041 69.9316703,33.5892689 69.1661304,32.216045 C68.4125775,30.8795329 68.0185429,29.3706608 68.0224634,27.8366139 C68.0224634,26.102279 68.4398429,24.5340727 69.2722438,23.1308168 C70.1034657,21.728739 71.1881808,20.6447797 72.5287471,19.8789389 C73.8675993,19.1154099 75.3850881,18.7202433 76.9265593,18.7337124 C78.4746363,18.7337124 79.8659013,19.0918902 81.1003542,19.8106024 C82.3383442,20.5293145 83.289828,21.4836699 83.9607007,22.6701341 C84.6312801,23.8598609 84.977665,25.2046204 84.9652412,26.570031 C84.9746321,27.2681313 84.7755422,27.9531797 84.3934077,28.5376527 C84.0125784,29.1196917 83.5916618,29.409533 83.1294788,29.409533 L72.5287471,29.409533 L72.5287471,29.4154241 Z M91.3744924,36.5671989 C90.3345808,36.5671989 89.4337956,36.1630706 88.672137,35.3536358 C87.9275276,34.5905181 87.5162285,33.5634107 87.52847,32.4976387 L87.52847,14.3224694 C87.52847,13.8217274 87.8821815,13.3421932 88.5860672,12.8850452 C89.2576763,12.4393573 90.0459692,12.2016407 90.8521785,12.2016795 C91.7069811,12.2016795 92.134972,12.590491 92.134972,13.3645793 L92.134972,31.0213333 C92.134972,31.3182439 92.19864,31.563313 92.3259761,31.7577187 C92.4521332,31.9521245 92.6796876,32.118253 93.001565,32.2525697 C93.3706039,32.4151636 93.5557129,32.7356385 93.5557129,33.2128162 C93.5557129,34.0564193 93.3246214,34.826973 92.8636175,35.5221208 C92.4002555,36.219625 91.9038805,36.5671989 91.3733133,36.5671989 L91.3744924,36.5671989 Z M98.3720836,36.5671989 C97.8415165,36.5671989 97.2637878,36.1312588 96.6388976,35.267626 C96.2698586,34.6714484 96.0847497,34.2272607 96.0847497,33.9303501 L96.0847497,21.1655515 C96.0847497,20.6659876 96.4384611,20.1876317 97.1411678,19.7281272 C97.814133,19.2827974 98.6036756,19.0458948 99.4108162,19.047118 C100.267977,19.047118 100.695968,19.433573 100.695968,20.2100178 L100.695968,32.9701036 C100.695968,33.5863109 100.573348,34.1801321 100.330466,34.7515671 C100.088763,35.3206457 99.7881084,35.7648334 99.4308598,36.0853083 C99.0724323,36.4034268 98.7210789,36.5648425 98.3732627,36.5648425 L98.3720836,36.5671989 Z M98.3732627,16.8532787 C97.7719532,16.8532787 97.147063,16.3867049 96.5021292,15.4512009 C96.0623479,14.7913996 95.8442259,14.276519 95.8442259,13.9112718 C95.8442259,13.341015 96.2368456,12.8037482 97.0209059,12.3018279 C97.7731941,11.8106663 98.6525043,11.5494319 99.5511217,11.5501258 C100.517933,11.5501258 101.003697,11.9825312 101.003697,12.8496987 C101.005134,13.5257305 100.869571,14.1950531 100.605182,14.8173204 C100.339898,15.4453098 100.003872,15.941339 99.6006413,16.305408 C99.1950522,16.6706551 98.787105,16.8532787 98.3697255,16.8532787 L98.3732627,16.8532787 Z M112.159755,32.3232627 C113.192637,32.3252664 114.204041,32.0286037 115.07198,31.4690557 L115.07198,23.6987172 C114.215998,23.2215394 113.256261,22.980005 112.195127,22.980005 C110.87932,22.980005 109.77574,23.420658 108.886746,24.2996076 C107.997751,25.177379 107.554432,26.2790115 107.554432,27.6009705 C107.554432,28.925286 107.997751,30.0434136 108.886746,30.954175 C109.77574,31.8684711 110.86753,32.3244409 112.159755,32.3244409 L112.159755,32.3232627 Z M111.849668,36.5707335 C110.187225,36.5707335 108.678056,36.1583577 107.330415,35.338319 C106.012853,34.5532462 104.924513,33.4364136 104.17413,32.0994015 C103.425201,30.7691454 103.037437,29.2662879 103.049328,27.7400001 C103.049328,26.0492593 103.477319,24.5116866 104.330942,23.1190346 C105.185745,21.7263826 106.29522,20.6483144 107.658188,19.8836518 C108.999137,19.125148 110.515149,18.7299597 112.056,18.737247 C113.397745,18.737247 114.702941,19.1024942 115.973944,19.8329885 C116.781585,19.3063257 117.589226,19.0435834 118.398046,19.0435834 C119.252849,19.0435834 119.67966,19.4323948 119.67966,20.2076614 L119.67966,32.9712818 C119.681236,33.5826167 119.558491,34.1878971 119.318875,34.7503889 C119.075993,35.3218239 118.776517,35.768368 118.41809,36.0864865 C118.058483,36.404605 117.70713,36.5660207 117.360493,36.5660207 C116.829925,36.5660207 116.252197,36.1336152 115.627306,35.2664478 C115.429421,34.9666182 115.26719,34.644756 115.143901,34.3073795 C114.974269,34.7813966 114.72155,35.2214524 114.39757,35.6069524 C114.086304,35.9721995 113.757352,36.2113775 113.410715,36.3256645 C112.927309,36.4835455 112.406174,36.5648425 111.852026,36.5648425 L111.849668,36.5707335 Z" id="telia" fill="#9909E3"></path>
                <g id="pebble" stroke-width="1">
                    <path d="M25.1337728,39.6223146 C34.7547239,35.7813284 39.9401335,30.3261855 42.3595197,25.8819525 C42.7957638,24.6283301 43.1824883,23.3287571 43.5149771,21.9891249 C41.5271188,26.5994864 37.2212716,30.927076 31.201103,34.3768942 C21.0672703,40.1831457 13.1618198,41.6912629 8.36667173,37.4803168 C9.05028155,38.2709668 9.7649452,39.0342633 10.508984,39.7684134 L10.5443551,39.7966906 C12.9885012,41.7266094 17.4110731,42.7127767 25.1361309,39.6199581" id="Path" fill="#FFFFFF"></path>
                    <path d="M27.4187487,26.9859415 C37.0750709,22.4026789 44.3733168,15.3899337 44.7234912,9.81343448 C44.5501725,8.08381251 44.0750202,6.628715 43.3652392,5.41633012 C44.6975523,10.3530577 37.047953,17.7993866 26.0616758,23.034203 C14.5802026,28.501128 4.75645701,30.2920173 1.5423991,26.0810711 C1.95506244,27.2875649 2.49388286,28.5341181 3.13410056,29.7842059 C7.03435866,33.9998649 15.7733892,32.5129556 27.4175696,26.9859415" id="Path" fill="#FFFFFF"></path>
                    <path d="M31.203461,34.3780724 C37.2236297,30.9282542 41.5294769,26.6018429 43.5161561,21.9879466 C44.372827,18.4983743 44.8043393,14.9181309 44.8013077,11.3250864 C44.8013077,10.7972453 44.7777269,10.2929686 44.7282073,9.80989983 C44.3733168,15.3899337 37.0750709,22.4026789 27.4187487,26.9859415 C15.7745682,32.5117773 7.03671673,33.9998649 3.13763768,29.7842059 C4.49117344,32.4257675 6.30453406,35.0920717 8.36667173,37.4826732 C13.1653569,41.6912629 21.0696284,40.1831457 31.2046401,34.3768942 L31.203461,34.3780724 Z" id="Path" fill="#9909E3"></path>
                    <path d="M26.0628549,23.034203 C37.047953,17.7993866 44.6987314,10.3530577 43.3652392,5.41633012 C41.1722283,1.67902705 36.7414031,0.255741393 31.9875214,0.255741393 C17.8980159,0.255741393 0.607421875,9.43051409 0.607421875,21.1337396 C0.607421875,22.637144 0.943447739,24.3196373 1.54475718,26.0822493 C4.75881509,30.2931955 14.5825607,28.5034845 26.0616758,23.0353812" id="Path" fill="#9909E3"></path>
                    <path d="M25.1314147,39.6223146 C17.406357,42.7163114 12.983785,41.7313223 10.539639,39.799047 L10.5042678,39.7719481 C14.2913383,43.4986472 18.6019016,46.1201791 22.3818978,46.1201791 C29.0033759,46.1201791 38.069,38.1848903 42.3583407,25.8819525 C39.9413125,30.3238291 34.7535448,35.7813284 25.1361309,39.6223146" id="Path" fill="#9909E3"></path>
                </g>
            </g>
        </g>
    </g>
</svg>