<svg width="64" height="64" fill="none" xmlns="http://www.w3.org/2000/svg"><path d="M32 6a26 26 0 1 0 26 26A26.029 26.029 0 0 0 32 6Zm0 48a22 22 0 1 1 22-22 22.025 22.025 0 0 1-22 22Zm16-22a2 2 0 0 1-4 0 11.974 11.974 0 0 0-.497-3.429 2.001 2.001 0 0 1 3.834-1.142c.44 1.484.664 3.023.663 4.571Zm-10.586-2.586 8-8a2 2 0 0 0-2.828-2.828l-.781.781A15.99 15.99 0 0 0 16 32a2 2 0 0 0 4 0 11.986 11.986 0 0 1 18.945-9.773l-4.36 4.359-.004.006a6.023 6.023 0 1 0 2.827 2.827l.006-.005ZM32 34a2 2 0 1 1 0-4 2 2 0 0 1 0 4Z" fill="#222"/></svg>