<svg width="64" height="64" fill="none" xmlns="http://www.w3.org/2000/svg"><path fill-rule="evenodd" clip-rule="evenodd" d="M54.76 30.973v-6.22a8.303 8.303 0 0 0-8.293-8.293h-2.073v-4.722a4.147 4.147 0 1 0-4.147 0v4.722H23.66v-4.722a4.147 4.147 0 1 0-4.147 0v4.722H17.44a8.303 8.303 0 0 0-8.293 8.293v6.22a4.147 4.147 0 0 0 0 8.294v12.44A8.303 8.303 0 0 0 17.44 60h29.027a8.303 8.303 0 0 0 8.293-8.293v-12.44a4.147 4.147 0 1 0 0-8.294Zm-4.146 20.733a4.151 4.151 0 0 1-4.147 4.147H17.44a4.151 4.151 0 0 1-4.147-4.147V24.753a4.151 4.151 0 0 1 4.147-4.147h29.027a4.151 4.151 0 0 1 4.147 4.147v26.953ZM29.88 33.046a6.22 6.22 0 1 0-6.22 6.22 6.227 6.227 0 0 0 6.22-6.22Zm-8.293 0a2.073 2.073 0 1 1 4.147 0 2.073 2.073 0 0 1-4.147 0Zm18.66-6.22a6.22 6.22 0 1 0 6.22 6.22 6.227 6.227 0 0 0-6.22-6.22Zm0 8.294a2.073 2.073 0 1 1 0-4.147 2.073 2.073 0 0 1 0 4.147Zm3.787 9.2c.645.946.4 2.236-.546 2.88-2.304 1.57-6.4 2.433-11.534 2.433s-9.23-.863-11.534-2.432a2.074 2.074 0 0 1 2.334-3.428c.59.402 2.998 1.714 9.2 1.714 6.201 0 8.609-1.312 9.2-1.714a2.076 2.076 0 0 1 2.88.546Z" fill="#222"/></svg>