<svg width="64" height="64" fill="none" xmlns="http://www.w3.org/2000/svg"><path d="m47.1 39.449 6.257 5.24c-2.628-5.26-3.608-10.35-3.568-17.88 0-6.941-5.547-12.491-11.994-15.062a6.002 6.002 0 0 0-2.242-6.623 5.994 5.994 0 0 0-6.99 0 6.002 6.002 0 0 0-2.241 6.624 22.367 22.367 0 0 0-6.997 4.37l3.009 2.59a19.595 19.595 0 0 1 6.436-3.62c.59-.204 1.191-.378 1.8-.52a38.732 38.732 0 0 1-.59-4 3.421 3.421 0 0 1 0-.41 1.552 1.552 0 0 1 0-.2 2 2 0 1 1 3.997 0c.005.066.005.133 0 .2.009.136.009.273 0 .41a38.732 38.732 0 0 1-.59 4c.61.142 1.21.316 1.8.52 5.167 1.72 10.564 5.97 10.564 11.72a49.288 49.288 0 0 0 1.35 12.641ZM11.189 52h38.37l-4.768-4H13.468c3.508-6.38 4.787-12.201 4.787-21.142 0-.357.02-.714.06-1.07l-3.438-2.88a13.01 13.01 0 0 0-.62 3.95c0 9.07-1.42 14.601-5.417 21.142a2.591 2.591 0 0 0 0 2.62A2.678 2.678 0 0 0 11.189 52ZM32.017 60a22.07 22.07 0 0 1-10.215-2.51 2 2 0 0 1 1.86-3.49 18.072 18.072 0 0 0 8.355 2 17.833 17.833 0 0 0 8.356-2 1.998 1.998 0 0 1 2.968 1.843 2 2 0 0 1-1.11 1.696A22.068 22.068 0 0 1 32.018 60ZM59.384 55.27l.15-.17a2 2 0 0 0-.24-2.81l-3.768-3.16L48.239 43 20.944 20.127l-2.999-2.56-10.624-8.92a2.026 2.026 0 0 0-2.854.265 2.028 2.028 0 0 0 .265 2.855l14.183 11.87L52.667 52l4.048 3.35c.78.659 1.93.624 2.669-.08Z" fill="#222"/></svg>