<svg width="64" height="64" fill="none" xmlns="http://www.w3.org/2000/svg"><path fill-rule="evenodd" clip-rule="evenodd" d="M32 60c15.464 0 28-12.536 28-28S47.464 4 32 4 4 16.536 4 32c.017 15.457 12.543 27.983 28 28Zm0-51.692c13.085 0 23.692 10.607 23.692 23.692S45.085 55.692 32 55.692 8.308 45.085 8.308 32C8.322 18.921 18.92 8.322 32 8.308Z" fill="#222"/><path d="M29.35 38.603V20.681a6.828 6.828 0 0 1 .417-2.371c.227-.673.581-1.28 1.037-1.778a1.75 1.75 0 0 1 1.216-.638c.665 0 1.33.577 1.993 1.731.36.509.583 1.128.638 1.78v17.922c0 .668-.406 1.306-1.217 1.914-.77.594-1.68.911-2.609.911-.983 0-1.475-.516-1.476-1.549ZM33.66 44.696c.305.39.501.855.568 1.346 0 .498-.339.966-1.017 1.406a3.947 3.947 0 0 1-2.183.658c-.838 0-1.256-.379-1.256-1.137a4.417 4.417 0 0 1 .344-1.72 3.61 3.61 0 0 1 .867-1.3c.28-.29.66-.462 1.062-.48.518 0 1.057.41 1.615 1.227Z" fill="#222"/></svg>