<svg width="64" height="64" fill="none" xmlns="http://www.w3.org/2000/svg"><path fill-rule="evenodd" clip-rule="evenodd" d="M60 32c0 15.464-12.536 28-28 28-15.457-.017-27.983-12.543-28-28C4 16.536 16.536 4 32 4s28 12.536 28 28ZM34.228 46.042a2.809 2.809 0 0 0-.568-1.346c-.558-.818-1.096-1.227-1.615-1.227-.402.018-.782.19-1.062.48a3.61 3.61 0 0 0-.867 1.3 4.417 4.417 0 0 0-.344 1.72c0 .758.418 1.137 1.256 1.137.776 0 1.536-.229 2.183-.658.678-.44 1.017-.908 1.017-1.406ZM29.35 20.68v17.922c.001 1.033.493 1.55 1.476 1.55.93 0 1.838-.318 2.61-.912.81-.608 1.216-1.246 1.216-1.914V19.404a3.613 3.613 0 0 0-.638-1.779c-.663-1.154-1.328-1.731-1.993-1.731a1.75 1.75 0 0 0-1.216.638 4.998 4.998 0 0 0-1.037 1.778 6.828 6.828 0 0 0-.418 2.37Z" fill="#222"/></svg>