<svg width="64" height="64" fill="none" xmlns="http://www.w3.org/2000/svg"><path fill-rule="evenodd" clip-rule="evenodd" d="M21.414 17C22.72 12.383 26.964 9 32 9c5.035 0 9.28 3.383 10.586 8H52a8 8 0 0 1 8 8v22a8 8 0 0 1-8 8H12a8 8 0 0 1-8-8V25a8 8 0 0 1 8-8h9.414Zm4.26 0a7 7 0 0 1 12.652 0H25.674ZM56 25a4 4 0 0 0-4-4H12a4 4 0 0 0-4 4v4a4 4 0 0 0 4 4h12v-.5a4 4 0 0 1 4-4h7a4 4 0 0 1 4 4v.5h13a4 4 0 0 0 4-4v-4ZM12 37h12.03A4 4 0 0 0 28 40.5h7a4 4 0 0 0 3.97-3.5H52c1.457 0 2.823-.39 4-1.07V47a4 4 0 0 1-4 4H12a4 4 0 0 1-4-4V35.93A7.963 7.963 0 0 0 12 37Zm16-4.5v4h7v-4h-7Z" fill="#222"/></svg>