<svg width="64" height="64" fill="none" xmlns="http://www.w3.org/2000/svg"><path d="m55.33 49.191-3.15-29.615A3.992 3.992 0 0 0 48.203 16H44a12 12 0 0 0-24 0h-4.2a3.993 3.993 0 0 0-3.98 3.576l-3.15 29.628A8 8 0 0 0 16.631 58h30.74a8.001 8.001 0 0 0 7.96-8.809ZM32.002 8a8.01 8.01 0 0 1 8 8h-16a8.009 8.009 0 0 1 8-8Zm18.336 44.685A3.956 3.956 0 0 1 47.371 54h-30.74a3.999 3.999 0 0 1-3.98-4.385L15.8 20H20v8a2 2 0 0 0 4 0v-8h16v8a2 2 0 0 0 4 0v-8h4.202l3.148 29.602a3.953 3.953 0 0 1-1.014 3.083Z" fill="#222"/></svg>