<svg width="64" height="64" fill="none" xmlns="http://www.w3.org/2000/svg"><path fill-rule="evenodd" clip-rule="evenodd" d="M27.415 24.586A2 2 0 0 0 26 24H15.82A3.674 3.674 0 0 0 12 27.5v9A3.674 3.674 0 0 0 15.82 40H38a2 2 0 0 0 1.414-3.414l-12-12ZM16 35.994V28h9.172l7.998 7.998L16 35.995ZM56 22h-.252A8.015 8.015 0 0 0 48 16H12a8.01 8.01 0 0 0-8 8v16a8.01 8.01 0 0 0 8 8h36a8.015 8.015 0 0 0 7.748-6H56c2.244 0 4-2.05 4-4.666V26.666C60 24.05 58.244 22 56 22Zm0 15.334c.008.233-.051.465-.17.666H52v2a4.004 4.004 0 0 1-4 4H12a4.004 4.004 0 0 1-4-4V24a4.004 4.004 0 0 1 4-4h36a4.004 4.004 0 0 1 4 4v2h3.83c.119.201.178.433.17.666v10.668Z" fill="#222"/></svg>