<svg width="64" height="64" fill="none" xmlns="http://www.w3.org/2000/svg"><path fill-rule="evenodd" clip-rule="evenodd" d="m55.826 34.275-20.494 21.25a4.297 4.297 0 0 1-3.108 1.327h-.008a4.298 4.298 0 0 1-3.107-1.317L8.329 34.12a14.98 14.98 0 0 1-1.779-2.063 2.166 2.166 0 0 1 1.801-3.37h9.495l3.734-7.47a2.167 2.167 0 0 1 3.876 0l6.729 13.459 2.395-4.792a2.167 2.167 0 0 1 1.938-1.197h6.5a2.167 2.167 0 1 1 0 4.333h-5.161l-3.734 7.47a2.167 2.167 0 0 1-3.877 0L23.518 27.03l-2.395 4.791a2.167 2.167 0 0 1-1.939 1.198h-5.883l18.917 19.498 20.489-21.25c4.407-4.642 4.396-11.926-.025-16.553a10.927 10.927 0 0 0-7.894-3.38h-.017a10.929 10.929 0 0 0-7.9 3.404l-3.15 3.266c-.408.422-.97.661-1.557.662h-.003a2.166 2.166 0 0 1-1.555-.658l-3.159-3.256a10.928 10.928 0 0 0-7.894-3.38h-.016a10.93 10.93 0 0 0-7.901 3.404 11.907 11.907 0 0 0-3.244 9.411 2.167 2.167 0 0 1-4.314.409 16.24 16.24 0 0 1 4.439-12.829A15.226 15.226 0 0 1 19.53 7.038h.023a15.227 15.227 0 0 1 11.004 4.696l1.6 1.649 1.594-1.654A15.226 15.226 0 0 1 44.764 7h.024a15.227 15.227 0 0 1 11.004 4.696c6.03 6.313 6.045 16.248.034 22.579Z" fill="#222"/></svg>