<svg width="64" height="64" fill="none" xmlns="http://www.w3.org/2000/svg"><path fill-rule="evenodd" clip-rule="evenodd" d="M33.833 32.423v23.834a2.167 2.167 0 1 1-4.333 0V32.422a2.167 2.167 0 1 1 4.333 0Zm7.661-20.66a2.166 2.166 0 1 0-3.064 3.064 6.501 6.501 0 0 1 0 9.192 2.166 2.166 0 1 0 3.064 3.064c4.23-4.23 4.23-11.09 0-15.32Zm6.128-6.129A2.167 2.167 0 1 0 44.558 8.7a15.165 15.165 0 0 1 0 21.448 2.167 2.167 0 0 0 3.064 3.065 19.5 19.5 0 0 0 0-27.578Zm-15.955 10.54a3.25 3.25 0 1 0 0 6.499 3.25 3.25 0 0 0 0-6.5Zm-6.764-4.412a2.167 2.167 0 0 0-3.064 0c-4.23 4.231-4.23 11.09 0 15.321a2.167 2.167 0 1 0 3.064-3.064 6.502 6.502 0 0 1 0-9.192 2.166 2.166 0 0 0 0-3.065Zm-10.57 7.661A15.063 15.063 0 0 1 18.776 8.7a2.167 2.167 0 0 0-3.064-3.064 19.5 19.5 0 0 0 0 27.577 2.167 2.167 0 0 0 3.064-3.065 15.063 15.063 0 0 1-4.443-10.724Z" fill="#222"/></svg>