<svg width="64" height="64" fill="none" xmlns="http://www.w3.org/2000/svg"><path d="m33.56 7.914 3.77 1.277a3.77 3.77 0 0 1 2.353 4.777l-3.75 11.219a1.995 1.995 0 0 0 1.247 2.523c.206.07.421.107.638.11a1.995 1.995 0 0 0 1.885-1.357l3.81-11.209a7.749 7.749 0 0 0-4.857-9.833l-3.81-1.276a1.995 1.995 0 1 0-1.286 3.77ZM29.342 52.242a1.925 1.925 0 1 1-3.85 0 1.925 1.925 0 0 1 3.85 0Z" fill="#222"/><path fill-rule="evenodd" clip-rule="evenodd" d="M38.856 34.012c0-1.102.893-1.995 1.994-1.995a1.995 1.995 0 0 1 2.014 1.995v18.24A7.758 7.758 0 0 1 35.117 60H19.759A7.768 7.768 0 0 1 12 52.252V14.845a7.768 7.768 0 0 1 7.739-7.758h7.04a1.994 1.994 0 0 1 0 3.989h-7.04a3.77 3.77 0 0 0-3.75 3.77v29.647h22.867V34.012Zm-19.117 21.94h15.357v.059a3.76 3.76 0 0 0 3.83-3.76v-3.77H15.988v3.77a3.76 3.76 0 0 0 3.75 3.7ZM45.108 25.116c.33-.003.655-.085.947-.239l4.837-2.662a1.995 1.995 0 1 0-1.915-3.5l-4.856 2.662a1.994 1.994 0 0 0 .997 3.74h-.01Zm-.04 0h-.01.05-.04Z" fill="#222"/><path d="m45.736 27.031 4.668 1.357v-.02a1.994 1.994 0 0 1-.549 3.919 2.081 2.081 0 0 1-.548-.08l-4.668-1.336a1.996 1.996 0 1 1 1.097-3.84Z" fill="#222"/></svg>