<svg width="64" height="64" fill="none" xmlns="http://www.w3.org/2000/svg"><path fill-rule="evenodd" clip-rule="evenodd" d="M59.999 32a2 2 0 0 1-2 2h-4a2 2 0 0 1 0-4h4a2 2 0 0 1 2 2ZM51.798 12.2a2 2 0 0 0-2.828 0l-2.828 2.828a2 2 0 1 0 2.828 2.828l2.828-2.828a2 2 0 0 0 0-2.828ZM31.999 12a2 2 0 0 0 2-2V6a2 2 0 1 0-4 0v4a2 2 0 0 0 2 2Zm-14.142 5.857a1.999 1.999 0 0 0 0-2.828l-2.828-2.828a2 2 0 1 0-2.828 2.828l2.828 2.828a1.999 1.999 0 0 0 2.828 0ZM10 30H6a2 2 0 1 0 0 4h4a2 2 0 0 0 0-4Zm37.999 2a15.968 15.968 0 0 1-5.53 12.075c-.347.314-.63.695-.831 1.119l-1.639 3.278v3.3a8.123 8.123 0 0 1-7.009 8.166A8.002 8.002 0 0 1 24 52v-3.527l-1.642-3.284a3.583 3.583 0 0 0-.83-1.118A15.99 15.99 0 1 1 47.998 32Zm-12 18h-8v2a4.002 4.002 0 0 0 4.51 3.968A4.175 4.175 0 0 0 36 51.77V50Zm8-18a12 12 0 1 0-19.853 9.046 7.547 7.547 0 0 1 1.79 2.352l1.3 2.601h9.527l1.297-2.595a7.54 7.54 0 0 1 1.792-2.353 11.973 11.973 0 0 0 4.147-9.052Z" fill="#222"/></svg>