<svg width="64" height="64" fill="none" xmlns="http://www.w3.org/2000/svg"><path fill-rule="evenodd" clip-rule="evenodd" d="M46.553 24h-1.2a10.09 10.09 0 0 0-1.46-3.51l1.07-1.08a2 2 0 0 0-2.82-2.82l-1.08 1.07a10.09 10.09 0 0 0-3.51-1.46V15a2 2 0 1 0-4 0v1.2a10.09 10.09 0 0 0-3.51 1.46l-1.08-1.07a2 2 0 0 0-2.82 2.82l1.07 1.08a10.09 10.09 0 0 0-1.46 3.51h-1.2a2 2 0 1 0 0 4h1.2a10.09 10.09 0 0 0 1.46 3.51l-1.07 1.08a2 2 0 1 0 2.82 2.82l1.08-1.07a10.09 10.09 0 0 0 3.51 1.46V37a2 2 0 1 0 4 0v-1.2a10.09 10.09 0 0 0 3.51-1.46l1.08 1.07a2 2 0 0 0 2.82-2.82l-1.07-1.08a10.09 10.09 0 0 0 1.46-3.51h1.2a2 2 0 1 0 0-4Zm-11 8a6 6 0 1 1 0-12 6 6 0 0 1 0 12Z" fill="#222"/><path fill-rule="evenodd" clip-rule="evenodd" d="M34.553 4c-12.404-.007-22.58 9.823-23 22.22l-4.54 5.12a4 4 0 0 0 3 6.66h1.54v8a4 4 0 0 0 4 4h6a4 4 0 0 1 4 4v2a4 4 0 0 0 4 4h16a4 4 0 0 0 4-4V44.91a24.08 24.08 0 0 0 8-17.91c0-12.703-10.298-23-23-23Zm12.4 37.9a4 4 0 0 0-1.4 3V56h-16v-2a8 8 0 0 0-8-8h-6V34h-5.55l5.55-6.24V27c0-10.493 8.506-19 19-19 10.493 0 19 8.507 19 19a20.27 20.27 0 0 1-6.6 14.9Z" fill="#222"/></svg>