<svg width="64" height="65" fill="none" xmlns="http://www.w3.org/2000/svg"><path fill-rule="evenodd" clip-rule="evenodd" d="M57.402 36.72a8.615 8.615 0 0 0-2.685-1.881A17.017 17.017 0 0 0 42.78 24.032a13.727 13.727 0 1 0-24.874.007A16.91 16.91 0 0 0 5 40.44v4.223a8.457 8.457 0 0 0 8.447 8.447h23.186l6.216 6.426a3.163 3.163 0 0 0 4.55-.001l10.003-10.341a9.042 9.042 0 0 0 0-12.472ZM30.342 8.762a9.503 9.503 0 1 1-9.503 9.503 9.513 9.513 0 0 1 9.502-9.503Zm-21.118 35.9v-4.223a12.686 12.686 0 0 1 11.305-12.594 13.683 13.683 0 0 0 19.619.007 12.78 12.78 0 0 1 9.68 6.384 8.49 8.49 0 0 0-4.684 2.486l-.02.02-.02-.02a8.483 8.483 0 0 0-12.259 0 9.04 9.04 0 0 0-.269 12.164H13.447a4.228 4.228 0 0 1-4.223-4.223Zm45.142 1.595-9.242 9.556-9.243-9.556a4.785 4.785 0 0 1 0-6.598 4.26 4.26 0 0 1 6.188 0l1.537 1.589a2.175 2.175 0 0 0 3.035 0l1.538-1.59a4.26 4.26 0 0 1 6.187 0 4.784 4.784 0 0 1 0 6.599Z" fill="#222"/></svg>