<svg width="64" height="64" fill="none" xmlns="http://www.w3.org/2000/svg"><path fill-rule="evenodd" clip-rule="evenodd" d="M49.438 42a5.99 5.99 0 0 0 5.821-4.544l4.622-18.486A4 4 0 0 0 56 14H17.24l-.957-4.784A4.01 4.01 0 0 0 12.36 6H6a2 2 0 1 0 0 4h6.361l7.295 36.478A5.999 5.999 0 1 0 27.65 54h14.7a6 6 0 1 0 0-4h-14.7a6.019 6.019 0 0 0-3.961-3.755l-.85-4.245h26.6ZM56 18l-4.622 18.486A1.996 1.996 0 0 1 49.438 38H22.04l-4-20H56ZM22 54a2 2 0 0 1-.003-4l.001.001h.003a2 2 0 1 1 0 4Zm26-4a2 2 0 1 1 0 4 2 2 0 0 1 0-4Z" fill="#222"/></svg>