<svg width="64" height="64" fill="none" xmlns="http://www.w3.org/2000/svg"><path d="M60 20v24a8.01 8.01 0 0 1-8 8H30a2 2 0 0 1 0-4h22a4.005 4.005 0 0 0 4-4V20a4.005 4.005 0 0 0-4-4H12a4.004 4.004 0 0 0-4 4v6a2 2 0 0 1-4 0v-6a8.01 8.01 0 0 1 8-8h40a8.01 8.01 0 0 1 8 8ZM6 48a2 2 0 1 0 0 4 2 2 0 0 0 0-4Zm.889-16H6a2 2 0 1 0 0 4h.889A13.114 13.114 0 0 1 20 49.111V50a2 2 0 0 0 4 0v-.889A17.12 17.12 0 0 0 6.889 32Zm-.09 8H6a2 2 0 1 0 0 4h.8a5.206 5.206 0 0 1 5.2 5.2v.8a2 2 0 0 0 4 0v-.8A9.21 9.21 0 0 0 6.8 40Z" fill="#222"/></svg>