<svg width="64" height="64" fill="none" xmlns="http://www.w3.org/2000/svg"><path fill-rule="evenodd" clip-rule="evenodd" d="M16.5 44a.5.5 0 1 0 0 1 .5.5 0 0 0 0-1Zm-2.5.5a2.5 2.5 0 1 1 5 0 2.5 2.5 0 0 1-5 0ZM25.5 44a.5.5 0 1 0 0 1 .5.5 0 0 0 0-1Zm-2.5.5a2.5 2.5 0 1 1 5 0 2.5 2.5 0 0 1-5 0Z" fill="#222"/><path fill-rule="evenodd" clip-rule="evenodd" d="M28 32.83a3.001 3.001 0 1 0-2 0V34H16v-1.17a3.001 3.001 0 1 0-2 0v1.232A8.001 8.001 0 0 0 7 42v1a3 3 0 1 0 0 6v3a8 8 0 0 0 8 8h12a8 8 0 0 0 8-8v-3a3 3 0 1 0 0-6v-1a8.001 8.001 0 0 0-7-7.938v-1.233ZM15 38a4 4 0 0 0-4 4v10a4 4 0 0 0 4 4h12a4 4 0 0 0 4-4V42a4 4 0 0 0-4-4H15Z" fill="#222"/><path fill-rule="evenodd" clip-rule="evenodd" d="M16 49a1 1 0 0 0-1 1.019c.003.056.009.174.015.233a4.452 4.452 0 0 0 .796 2.08C16.656 53.513 18.237 54.5 21 54.5s4.344-.986 5.189-2.169a4.452 4.452 0 0 0 .796-2.08A5.519 5.519 0 0 0 27 50a1 1 0 0 0-1-1H16Zm1.12 2.112s-.084-.075-.12-.112h8a1.836 1.836 0 0 1-.12.112l-.084.073c-.48.42-1.502 1.315-3.796 1.315-2.294 0-3.317-.895-3.796-1.315l-.084-.073Z" fill="#222"/><path d="M39 16a2 2 0 1 1-4 0 2 2 0 0 1 4 0ZM46 16a2 2 0 1 1-4 0 2 2 0 0 1 4 0ZM53 16a2 2 0 1 1-4 0 2 2 0 0 1 4 0Z" fill="#222"/><path fill-rule="evenodd" clip-rule="evenodd" d="M35 4a8 8 0 0 0-8 8v7a8 8 0 0 0 8 8h1v4a2 2 0 0 0 3.302 1.519L45.74 27H52a8 8 0 0 0 8-8v-7a8 8 0 0 0-8-8H35Zm17 19h-6c-1 0-2 0-3 1l-3 2.5V25a2 2 0 0 0-2-2h-3a4 4 0 0 1-4-4v-7a4 4 0 0 1 4-4h17a4 4 0 0 1 4 4v7a4 4 0 0 1-4 4Z" fill="#222"/></svg>