<svg width="64" height="64" fill="none" xmlns="http://www.w3.org/2000/svg"><path fill-rule="evenodd" clip-rule="evenodd" d="M52 7H24a8.01 8.01 0 0 0-8 8v8h-4a8.01 8.01 0 0 0-8 8v12a8.01 8.01 0 0 0 8 8h7.17l5.709 5.708A3 3 0 0 0 30 54.586V51h9.999a8.01 8.01 0 0 0 8-8v-8H52a8.01 8.01 0 0 0 8-8V15a8.01 8.01 0 0 0-8-8Zm-8.001 36a4.004 4.004 0 0 1-4 4H26v5.172L20.826 47H12a4.004 4.004 0 0 1-4-4V31a4.004 4.004 0 0 1 4-4h4a8.01 8.01 0 0 0 8 8h6v3.586a2.999 2.999 0 0 0 5.121 2.122L40.83 35H44v8ZM56 27a4.004 4.004 0 0 1-4 4H39.173L34 36.172V31H24a4.004 4.004 0 0 1-4-4V15a4.004 4.004 0 0 1 4-4h28a4.004 4.004 0 0 1 4 4v12Z" fill="#222"/></svg>