<svg width="64" height="64" fill="none" xmlns="http://www.w3.org/2000/svg"><path fill-rule="evenodd" clip-rule="evenodd" d="M32 4C16.536 4 4 16.536 4 32s12.536 28 28 28 28-12.536 28-28C59.983 16.543 47.456 4.017 32 4Zm0 51.693C18.915 55.693 8.307 45.085 8.307 32S18.915 8.308 32 8.308c13.084 0 23.692 10.607 23.692 23.692C55.677 45.08 45.078 55.678 32 55.693ZM44.56 24.58 31.639 43.963a2.151 2.151 0 0 1-3.315.328l-8.616-8.615a2.154 2.154 0 0 1 3.046-3.046l6.758 6.757L40.977 22.19a2.154 2.154 0 1 1 3.584 2.39Z" fill="#222"/></svg>