<svg width="64" height="64" fill="none" xmlns="http://www.w3.org/2000/svg"><path d="M18.7 35.33c-.144.29-.214.604-.211.916a1.999 1.999 0 0 0 3.872.724 2.1 2.1 0 0 1 1.86-.8 2.06 2.06 0 0 1 1.85.8 2 2 0 0 0 1.83 1.2 1.998 1.998 0 0 0 1.97-1.682 1.99 1.99 0 0 0-.14-1.158 5.84 5.84 0 0 0-5.51-3.2 5.92 5.92 0 0 0-5.52 3.2ZM38.82 47.57a7.8 7.8 0 0 1-13.64 0 2.011 2.011 0 1 1 3.49-2 3.8 3.8 0 0 0 6.65 0 2 2 0 1 1 3.5 1.94v.06ZM45.73 35.33a5.84 5.84 0 0 0-5.51-3.2 5.92 5.92 0 0 0-4.962 2.36 5.916 5.916 0 0 0-.557.88 2 2 0 0 0 3.486 1.885c.076-.098.143-.205.2-.319a2.1 2.1 0 0 1 1.834-.766 2.06 2.06 0 0 1 1.85.8 2 2 0 0 0 1.83 1.2 1.998 1.998 0 0 0 1.97-1.682c.068-.379.027-.78-.14-1.158Z" fill="#222"/><path fill-rule="evenodd" clip-rule="evenodd" d="m52 27.78.33.09v.02a7.82 7.82 0 0 1 0 15l-.76.21a20 20 0 0 1-39.14 0l-.81-.23a7.82 7.82 0 0 1 0-15l.44-.12c-2.8-5.51-2.19-11.14 1.81-15.62 5.94-6.68 17.83-9.02 26.68-5.3a13.16 13.16 0 0 1 10.54 5.76c2.47 3.76 2.8 8.76.91 13.76v1.43ZM9.96 35.375A3.81 3.81 0 0 0 12 38.75V32a3.81 3.81 0 0 0-2.042 3.375ZM48 39c0 8.837-7.164 16-16 16-8.837 0-16-7.163-16-16v-8.22a40.17 40.17 0 0 0 24-9c2.08 2.53 4.7 5 8 5.88V39Zm-6.07-21.3c2.47 3.35 4.65 5.29 6.74 6a10.69 10.69 0 0 0-.98-8.96 9.15 9.15 0 0 0-7.64-4h-.06c-.132 0-.263-.017-.39-.05l-.36-.12c-7.38-3.25-17.44-1.39-22.38 4.17-2.15 2.44-4.03 6.49-.78 12a35.77 35.77 0 0 0 22.91-9.34 2 2 0 0 1 2.94.3ZM52 32a3.82 3.82 0 0 1 0 6.7V32Z" fill="#222"/></svg>