<svg width="64" height="64" fill="none" xmlns="http://www.w3.org/2000/svg"><path fill-rule="evenodd" clip-rule="evenodd" d="M32 56c13.255 0 24-10.745 24-24S45.255 8 32 8 8 18.745 8 32s10.745 24 24 24Zm0 4c15.464 0 28-12.536 28-28S47.464 4 32 4 4 16.536 4 32s12.536 28 28 28Z" fill="#222"/><path d="M25.277 22.695a2 2 0 1 0-2.9 2.755l6.864 7.225-6.764 7.12a2 2 0 0 0 2.9 2.755L32 35.58l6.622 6.97a2 2 0 1 0 2.9-2.755l-6.764-7.12 6.864-7.225a2 2 0 1 0-2.9-2.755L32 29.771l-6.723-7.076Z" fill="#222"/></svg>