<svg width="64" height="64" fill="none" xmlns="http://www.w3.org/2000/svg"><path d="M51.607 34.168A10.018 10.018 0 0 0 41.775 26c-.436 0-.872.029-1.304.087a14.004 14.004 0 0 0-26.574 4.06A12 12 0 0 0 15.775 54h34a10 10 0 0 0 1.832-19.832ZM49.775 50h-34a8 8 0 0 1 0-16h2v-2a10 10 0 0 1 19.547-2.984l.61 1.95 1.936-.65A5.989 5.989 0 0 1 47.775 36v2h2a6 6 0 1 1 0 12ZM38.663 9.15a2 2 0 0 1 1.346-2.487A16.018 16.018 0 0 1 59.917 17.43a2.002 2.002 0 0 1-1.343 2.5 2 2 0 0 1-2.491-1.36 12.016 12.016 0 0 0-14.932-8.073 2.002 2.002 0 0 1-2.488-1.346Zm13.223 10.184a2.002 2.002 0 0 1-1.22 2.552 2.001 2.001 0 0 1-2.552-1.22 4.006 4.006 0 0 0-5.103-2.44 2 2 0 0 1-1.338-3.77 8.006 8.006 0 0 1 10.213 4.878Z" fill="#222"/></svg>