<svg width="64" height="64" fill="none" xmlns="http://www.w3.org/2000/svg"><path fill-rule="evenodd" clip-rule="evenodd" d="M49.519 41.333a7.26 7.26 0 0 0 1.448-14.373 10.783 10.783 0 0 0-1.344-.142l-1.142-.001v-.002a4.152 4.152 0 0 0-4.148-4.148h-31.11a4.152 4.152 0 0 0-4.149 4.148v8.296a18.678 18.678 0 0 0 4.755 12.445H10.11A3.115 3.115 0 0 0 7 50.666v1.038A8.306 8.306 0 0 0 15.296 60H42.26a8.306 8.306 0 0 0 8.297-8.296v-1.037a3.115 3.115 0 0 0-3.111-3.111h-3.718a18.712 18.712 0 0 0 3.683-6.223h2.109Zm-.046-10.37c.224.008.448.029.67.062a3.112 3.112 0 0 1-.624 6.16h-1.162c.08-.688.122-1.38.125-2.074v-4.148h.991ZM42.26 55.852H15.296a4.152 4.152 0 0 1-4.148-4.148h35.26a4.152 4.152 0 0 1-4.149 4.148Zm-21.985-8.296a14.532 14.532 0 0 1-7.052-12.445v-8.296h31.111v8.296a14.532 14.532 0 0 1-7.052 12.445H20.275Zm.993-35.867a2.077 2.077 0 0 0 0-2.933L20.052 7.54a2.074 2.074 0 1 1 2.933-2.933L24.2 5.823a6.227 6.227 0 0 1 0 8.798l-.357.357a2.074 2.074 0 0 0-.327 2.508 2.075 2.075 0 0 1-3.585 2.089 6.227 6.227 0 0 1 .98-7.53l.356-.357Zm10.371 0a2.076 2.076 0 0 0 0-2.933L30.423 7.54a2.074 2.074 0 1 1 2.933-2.933l1.215 1.216a6.227 6.227 0 0 1 0 8.798l-.356.357a2.074 2.074 0 0 0-.329 2.507 2.074 2.074 0 1 1-3.585 2.087 6.225 6.225 0 0 1 .98-7.527l.357-.357Z" fill="#222"/></svg>