<svg width="64" height="64" fill="none" xmlns="http://www.w3.org/2000/svg"><path d="M32 6a26 26 0 1 0 26 26A26.029 26.029 0 0 0 32 6Zm2 47.905V50a2 2 0 0 0-4 0v3.905A22.033 22.033 0 0 1 10.095 34H14a2 2 0 1 0 0-4h-3.905A22.033 22.033 0 0 1 30 10.095V14a2 2 0 0 0 4 0v-3.905A22.033 22.033 0 0 1 53.905 30H50a2 2 0 0 0 0 4h3.905A22.033 22.033 0 0 1 34 53.905Zm6.924-36.029-13.28 5.312a8.045 8.045 0 0 0-4.456 4.457l-5.311 13.279a3.999 3.999 0 0 0 5.2 5.2l13.278-5.313a8.045 8.045 0 0 0 4.457-4.456l5.311-13.279a4 4 0 0 0-5.2-5.2h.001Zm-3.825 16.993a4.021 4.021 0 0 1-2.23 2.229l-13.284 5.329.005-.017 5.31-13.28a4.02 4.02 0 0 1 2.23-2.228l13.278-5.312-5.309 13.279ZM29 32a3 3 0 1 1 6 0 3 3 0 0 1-6 0Z" fill="#222"/></svg>