<svg width="64" height="64" fill="none" xmlns="http://www.w3.org/2000/svg"><path fill-rule="evenodd" clip-rule="evenodd" d="M46.34 25.745a4.15 4.15 0 0 0-5.866 0l-7.437 7.437V15.375a4.152 4.152 0 0 0-4.148-4.148H8.149A4.152 4.152 0 0 0 4 15.375v39.407a4.152 4.152 0 0 0 4.148 4.148h45.63a4.152 4.152 0 0 0 4.148-4.148V39.048a4.12 4.12 0 0 0-1.215-2.933l-10.37-10.37ZM20.593 54.782h-4.149v-4.148h4.149v4.148Zm8.296 0H24.74V48.56a2.074 2.074 0 0 0-2.074-2.074H14.37a2.074 2.074 0 0 0-2.074 2.074v6.222H8.148V15.375l20.74-.003v39.41Zm24.889 0H33.037V39.048l10.37-10.37 10.37 10.37v15.734ZM24.74 40.264a2.074 2.074 0 0 1-2.074 2.074H14.37a2.074 2.074 0 1 1 0-4.148h8.297c1.145 0 2.074.928 2.074 2.074Zm0-8.297a2.074 2.074 0 0 1-2.074 2.074H14.37a2.074 2.074 0 1 1 0-4.148h8.297c1.145 0 2.074.929 2.074 2.074Zm0-8.296a2.074 2.074 0 0 1-2.074 2.074H14.37a2.074 2.074 0 1 1 0-4.148h8.297c1.145 0 2.074.928 2.074 2.074ZM39.259 38.19h8.297a2.074 2.074 0 0 1 0 4.148h-8.297a2.074 2.074 0 1 1 0-4.148Zm10.37 10.37a2.074 2.074 0 0 1-2.073 2.074h-8.297a2.074 2.074 0 1 1 0-4.148h8.297c1.145 0 2.074.928 2.074 2.074Zm8.888-29.123a2.07 2.07 0 0 1-2.58-1.397c-1.97-6.582-8.897-10.328-15.484-8.372a2.074 2.074 0 1 1-1.185-3.976c8.784-2.609 18.021 2.387 20.646 11.165a2.074 2.074 0 0 1-1.397 2.58Zm-18.784-3.014a2.074 2.074 0 0 1 1.261-2.649 8.302 8.302 0 0 1 10.591 5.058 2.074 2.074 0 1 1-3.911 1.381 4.154 4.154 0 0 0-5.292-2.53 2.074 2.074 0 0 1-2.649-1.26Z" fill="#222"/></svg>