<svg width="64" height="64" fill="none" xmlns="http://www.w3.org/2000/svg"><path d="M54 18a4.004 4.004 0 0 0 4-4v-4a4.004 4.004 0 0 0-4-4H14.83A3.973 3.973 0 0 0 12 7.172l-5.707 5.707A3 3 0 0 0 8.414 18h3.587v6.35a5.997 5.997 0 1 0 7.196 8.651 2 2 0 1 0-3.463-2.002A2 2 0 1 1 14 28a2 2 0 0 0 2-2v-8h18v36h-4a2 2 0 0 0 0 4h26a2 2 0 0 0 0-4h-4V18h2Zm-6 36H38.66l9.342-10.677V54Zm-10-5.323V38h9.343L38 48.677ZM48 34H38.66l9.342-10.677V34Zm-10-5.323V18h9.343L38 28.677ZM10.83 14l4-4H54l.003 4H10.829Z" fill="#222"/></svg>