<svg width="64" height="64" fill="none" xmlns="http://www.w3.org/2000/svg"><path d="M49.333 58H25.5c-.575 0-1.126-.21-1.532-.586A1.925 1.925 0 0 1 23.333 56V26c0-2.122.913-4.157 2.539-5.657C27.497 18.843 29.702 18 32 18h23.833c.575 0 1.126.21 1.532.586.407.375.635.884.635 1.414v30c0 2.122-.913 4.157-2.538 5.657-1.626 1.5-3.83 2.343-6.129 2.343Zm-21.666-4h21.666c1.15 0 2.252-.421 3.064-1.172.813-.75 1.27-1.767 1.27-2.828V22H32c-1.15 0-2.252.421-3.064 1.172-.813.75-1.27 1.767-1.27 2.828v28Z" fill="#222"/><path d="M16.833 48H8.167c-.575 0-1.126-.21-1.532-.586A1.925 1.925 0 0 1 6 46V14c0-2.122.913-4.157 2.538-5.657C10.164 6.843 12.368 6 14.667 6H38.5c.575 0 1.126.21 1.532.586.407.375.635.884.635 1.414v4c0 .53-.228 1.04-.635 1.414A2.261 2.261 0 0 1 38.5 14c-.574 0-1.126-.21-1.532-.586A1.925 1.925 0 0 1 36.333 12v-2H14.668c-1.15 0-2.252.421-3.064 1.172-.813.75-1.27 1.767-1.27 2.828v30h6.5c.575 0 1.126.21 1.533.586.406.375.634.884.634 1.414 0 .53-.228 1.04-.634 1.414a2.262 2.262 0 0 1-1.533.586Z" fill="#222"/></svg>