<svg width="64" height="64" fill="none" xmlns="http://www.w3.org/2000/svg"><path d="m38.642 18.243-7.07-7.071-7.072 7.07a2 2 0 0 0 2.828 2.83l2.465-2.465V26a2 2 0 0 0 4 0v-6.95l2.02 2.021a2 2 0 1 0 2.83-2.828ZM43.242 24.586l-7.07 7.07 7.07 7.072a2 2 0 0 0 2.829-2.829l-2.464-2.464H51a2 2 0 1 0 0-4h-6.95l2.02-2.021a2 2 0 0 0-2.828-2.828ZM38.642 45.757l-7.07 7.071-7.072-7.07a2 2 0 0 1 2.828-2.83l2.465 2.465V38a2 2 0 0 1 4 0v6.95l2.02-2.021a2 2 0 1 1 2.83 2.828ZM20.758 24.586l7.07 7.07-7.07 7.072a2 2 0 0 1-2.829-2.829l2.464-2.464H13a2 2 0 1 1 0-4h6.95l-2.02-2.021a2 2 0 0 1 2.828-2.828Z" fill="#222"/><path fill-rule="evenodd" clip-rule="evenodd" d="M32 8C18.745 8 8 18.745 8 32s10.745 24 24 24 24-10.745 24-24S45.255 8 32 8ZM4 32C4 16.536 16.536 4 32 4s28 12.536 28 28-12.536 28-28 28S4 47.464 4 32Z" fill="#222"/></svg>