<svg xmlns="http://www.w3.org/2000/svg" viewBox="0 0 64 64"><path fill="#222" fill-rule="evenodd" d="M54.6 13.92a2.27 2.27 0 01-2.26 2.26H36.52c-1.24 0-2.26-1.02-2.26-2.26s1.02-2.26 2.26-2.26h15.82a2.27 2.27 0 012.26 2.26zm-9.04 4.52h-9.04c-1.24 0-2.26 1.02-2.26 2.26s1.02 2.26 2.26 2.26h9.04c1.24 0 2.26-1.02 2.26-2.26s-1.02-2.26-2.26-2.26zm18.08-6.78v11.3c0 5-4.04 9.04-9.04 9.04h-1.33l-6.45 6.45c-.96.96-2.44 1.27-3.71.72-1.27-.51-2.08-1.75-2.08-3.13V32h-4.52c0 2.65-.78 5.24-2.23 7.44A15.835 15.835 0 0145.55 54.6c0 3.74-3.04 6.78-6.78 6.78H7.14C3.4 61.38.36 58.34.36 54.6c0-6.99 4.58-13.14 11.27-15.16a13.518 13.518 0 01-.09-14.89c2.95-4.52 8.32-6.87 13.65-5.94v-6.96c0-5 4.04-9.04 9.04-9.04h20.34c5 0 9.04 4.04 9.04 9.04h.03zM13.92 32c0 5 4.04 9.04 9.04 9.04S32 37 32 32s-4.04-9.04-9.04-9.04S13.92 27 13.92 32zm16.45 11.33a13.468 13.468 0 01-14.86 0C9.54 43.66 4.87 48.6 4.84 54.6a2.27 2.27 0 002.26 2.26h31.67a2.27 2.27 0 002.26-2.26c0-6-4.67-10.91-10.67-11.27zm28.75-31.67c0-2.5-2.02-4.52-4.52-4.52H34.26c-2.5 0-4.52 2.02-4.52 4.52v8.62c2.77 1.63 4.91 4.16 6 7.2h9.82v5.85l5.85-5.85h3.19c2.5 0 4.52-2.02 4.52-4.52v-11.3z"/></svg>