<svg width="64" height="65" fill="none" xmlns="http://www.w3.org/2000/svg"><path fill-rule="evenodd" clip-rule="evenodd" d="M52 16.5a2 2 0 0 1-2 2H36a2 2 0 1 1 0-4h14a2 2 0 0 1 2 2Zm-8 4h-8a2 2 0 1 0 0 4h8a2 2 0 1 0 0-4Zm16-6v10a8.01 8.01 0 0 1-8 8h-1.172l-5.707 5.707A3 3 0 0 1 40 36.086V32.5h-4a11.924 11.924 0 0 1-1.984 6.594A14.02 14.02 0 0 1 44 52.5a6.007 6.007 0 0 1-6 6H10a6.007 6.007 0 0 1-6-6 14.02 14.02 0 0 1 9.985-13.406A11.956 11.956 0 0 1 26 20.68V14.5a8.01 8.01 0 0 1 8-8h18a8.01 8.01 0 0 1 8 8Zm-44 18a8 8 0 1 0 8-8 8.01 8.01 0 0 0-8 8Zm14.572 10.029a11.94 11.94 0 0 1-13.143 0A10.004 10.004 0 0 0 8 52.499a2.003 2.003 0 0 0 2 2h28a2.003 2.003 0 0 0 2-2 10.004 10.004 0 0 0-9.428-9.97ZM56 14.5a4.004 4.004 0 0 0-4-4H34a4.004 4.004 0 0 0-4 4v7.623a12.046 12.046 0 0 1 5.3 6.377H44v5.172l5.172-5.172H52a4.004 4.004 0 0 0 4-4v-10Z" fill="#222"/></svg>