<svg width="64" height="64" fill="none" xmlns="http://www.w3.org/2000/svg"><path d="M33 52a2 2 0 1 1-4 0 2 2 0 0 1 4 0Z" fill="#222"/><path fill-rule="evenodd" clip-rule="evenodd" d="M23 4a8 8 0 0 0-8 8v40a8 8 0 0 0 8 8h16a8 8 0 0 0 8-8V37a2 2 0 1 0-4 0v7H19V12a4 4 0 0 1 4-4h16a4 4 0 0 1 4 4v3.5a2 2 0 1 0 4 0V12a8 8 0 0 0-8-8H23Zm-4 44v4a4 4 0 0 0 4 4h16a4 4 0 0 0 4-4v-4H19Z" fill="#222"/><path fill-rule="evenodd" clip-rule="evenodd" d="M48.367 20.572a2 2 0 0 1 .173 2.823L36.279 37.258a2 2 0 0 1-2.936.065l-6.641-6.866a2 2 0 1 1 2.875-2.78l5.138 5.311 10.828-12.243a2 2 0 0 1 2.824-.173Z" fill="#222"/></svg>