<svg width="64" height="64" fill="none" xmlns="http://www.w3.org/2000/svg"><path d="M13.373 10a1.994 1.994 0 0 0-1.518.68l-7.27 7.27a2 2 0 1 0 2.83 2.828l4.307-4.308V34a2 2 0 1 0 4 0V17.193l3.586 3.585a2 2 0 0 0 2.828-2.828l-7.27-7.27a1.994 1.994 0 0 0-1.493-.68ZM28.722 29.53l-4.308-4.308a2 2 0 1 0-2.828 2.828l7.269 7.27a1.994 1.994 0 0 0 1.518.68 1.993 1.993 0 0 0 1.493-.68l7.27-7.27a2 2 0 1 0-2.828-2.828l-3.586 3.585V12a2 2 0 0 0-4 0v17.53ZM45.74 47a2 2 0 1 0 4 0 2 2 0 0 0-4 0Z" fill="#222"/><path fill-rule="evenodd" clip-rule="evenodd" d="M56 11a4 4 0 0 1 4 4v36a4 4 0 0 1-4 4H40a4 4 0 0 1-4-4V35.692a2 2 0 1 1 4 0v3.616h15.461c.187 0 .368.025.539.073V15H40v4.23a2 2 0 0 1-4 0V15a4 4 0 0 1 4-4h16Zm0 32.234a2.002 2.002 0 0 1-.539.074H40V51h16v-7.766Z" fill="#222"/></svg>