<svg width="64" height="64" fill="none" xmlns="http://www.w3.org/2000/svg"><path fill-rule="evenodd" clip-rule="evenodd" d="M52.63 22.667v29.037A8.306 8.306 0 0 1 44.333 60H19.444a8.306 8.306 0 0 1-8.296-8.296V22.667a2.074 2.074 0 1 1 4.148 0v29.037a4.153 4.153 0 0 0 4.148 4.148h24.89a4.153 4.153 0 0 0 4.147-4.148V22.667a2.074 2.074 0 1 1 4.149 0Zm4.148-8.297a2.074 2.074 0 0 1-2.074 2.074H9.074a2.074 2.074 0 1 1 0-4.148h10.37V8.148A4.153 4.153 0 0 1 23.593 4h16.592a4.153 4.153 0 0 1 4.148 4.148v4.148h10.37c1.146 0 2.075.929 2.075 2.074Zm-33.185-2.074h16.592V8.148H23.593v4.148Zm4.148 35.26V26.815a2.074 2.074 0 1 0-4.148 0v20.74a2.074 2.074 0 0 0 4.148 0Zm12.444 0V26.815a2.074 2.074 0 1 0-4.148 0v20.74a2.074 2.074 0 0 0 4.148 0Z" fill="#222"/></svg>