<svg width="64" height="64" fill="none" xmlns="http://www.w3.org/2000/svg"><path fill-rule="evenodd" clip-rule="evenodd" d="m20.584 27.415-4-4A2 2 0 0 1 15.998 22v-6a2 2 0 0 1 4 0v5l.115.287 3.3 3.3a2 2 0 1 1-2.829 2.828ZM60 37.817v8.184a4.004 4.004 0 0 1-4 4h-2.295a6.995 6.995 0 0 1-13.418-.029 1.967 1.967 0 0 1-.288.03H27.704a6.995 6.995 0 0 1-13.418-.03 1.966 1.966 0 0 1-.287.03h-2.134a3.939 3.939 0 0 1-3.867-4V31.78A13.988 13.988 0 1 1 29.472 14h10.527a4.004 4.004 0 0 1 4 4v4h4.93a3.992 3.992 0 0 1 3.329 1.782l6.398 9.598A7.972 7.972 0 0 1 60 37.817Zm-42.002-5.816c5.523 0 10-4.478 10-10 0-5.524-4.477-10-10-10s-10 4.476-10 10c.006 5.52 4.48 9.993 10 10Zm6 16a3 3 0 1 0-6 0 3 3 0 0 0 6 0Zm16.001-30h-8.59A13.97 13.97 0 0 1 12 34.63V46h2c.095.003.192.013.287.03A6.995 6.995 0 0 1 27.704 46h12.295v-28Zm10 30a3 3 0 1 0-6 0 3 3 0 0 0 6 0Zm6-10.184c.001-.79-.233-1.562-.671-2.218L48.929 26h-4.93v15.685a6.976 6.976 0 0 1 9.706 4.315h2.294v-8.184Z" fill="#222"/></svg>