<svg width="64" height="64" fill="none" xmlns="http://www.w3.org/2000/svg"><path fill-rule="evenodd" clip-rule="evenodd" d="M50 4H30a8.01 8.01 0 0 0-8 8v4h-8a8.01 8.01 0 0 0-8 8v28a8.01 8.01 0 0 0 8 8h10a8.007 8.007 0 0 0 7.737-6H50a8.01 8.01 0 0 0 8-8V12a8.01 8.01 0 0 0-8-8ZM30 8h20a4.004 4.004 0 0 1 4 4v26H32V24a8.007 8.007 0 0 0-6-7.737V12a4.004 4.004 0 0 1 4-4ZM14 20h10a4.004 4.004 0 0 1 4 4v20H10V24a4.004 4.004 0 0 1 4-4Zm10 36H14a4.004 4.004 0 0 1-4-4v-4h18v4a4.004 4.004 0 0 1-4 4Zm30-10a4.004 4.004 0 0 1-4 4H32v-8h22v4Zm-16 0a2 2 0 1 1 4 0 2 2 0 0 1-4 0Zm-17 6a2 2 0 1 1-4 0 2 2 0 0 1 4 0Z" fill="#222"/></svg>