<svg width="64" height="64" fill="none" xmlns="http://www.w3.org/2000/svg"><path fill-rule="evenodd" clip-rule="evenodd" d="M9.175 41.578h8.351a4.147 4.147 0 0 0 2.942-1.228c6.027 2.112 11.372 8.068 13.287 15.002a6.288 6.288 0 0 0 5.39 4.604 6.123 6.123 0 0 0 6.167-3.253c.226-.423.428-.858.607-1.302a12.242 12.242 0 0 0 .16-8.448l-2.637-7.462h9.575a6.27 6.27 0 0 0 6.263-6.264V31.14a6.265 6.265 0 0 0-2.895-5.279 6.22 6.22 0 0 0 .807-3.072v-2.088a6.273 6.273 0 0 0-4.616-6.042 6.237 6.237 0 0 0 .44-2.308v-2.088A6.27 6.27 0 0 0 46.755 4H20.658a2.07 2.07 0 0 0-.522.074A2.07 2.07 0 0 0 19.614 4H7.088A2.088 2.088 0 0 0 5 6.088v31.315a4.18 4.18 0 0 0 4.175 4.175Zm39.666-31.315v2.088a2.09 2.09 0 0 1-2.087 2.087 2.088 2.088 0 0 0 0 4.176h4.175a2.09 2.09 0 0 1 2.088 2.087v2.088a2.09 2.09 0 0 1-2.088 2.088 2.088 2.088 0 0 0 0 4.175h2.088a2.09 2.09 0 0 1 2.087 2.088v2.087a2.09 2.09 0 0 1-2.087 2.088H40.49c-.131 0-.261.014-.39.04-.046.008-.09.023-.135.035-.057.015-.114.024-.17.044-.02.007-.035.018-.053.025-.072.03-.143.062-.211.1-.055.028-.11.055-.161.087-.058.039-.114.08-.168.125-.052.041-.105.08-.153.126s-.09.098-.134.148c-.043.051-.088.1-.126.154-.04.056-.072.117-.107.177-.031.056-.065.11-.091.169-.029.062-.049.127-.07.192-.023.064-.045.127-.06.194-.015.06-.022.122-.03.184-.012.076-.02.153-.023.23 0 .02-.006.038-.006.058 0 .044.01.086.013.13.005.149.03.297.075.44.012.041.016.083.031.125l3.608 10.21a8.04 8.04 0 0 1-.084 5.532 9.086 9.086 0 0 1-.417.895 1.992 1.992 0 0 1-2.024 1.07 2.097 2.097 0 0 1-1.825-1.564c-2.278-8.248-8.751-15.351-16.079-17.876V8.175h25.053a2.09 2.09 0 0 1 2.087 2.088ZM9.175 8.176h8.351v29.171c0 .02-.006.037-.006.056H9.175V8.176Z" fill="#222"/></svg>