<svg width="64" height="64" fill="none" xmlns="http://www.w3.org/2000/svg"><path fill-rule="evenodd" clip-rule="evenodd" d="M50.828 16 40 5.172A3.973 3.973 0 0 0 37.172 4H20a8.01 8.01 0 0 0-8 8v44a4.004 4.004 0 0 0 4 4h28a8.01 8.01 0 0 0 8-8V18.828A3.972 3.972 0 0 0 50.828 16Zm-5.656 0H40v-5.172L45.172 16ZM44 56H16V12a4.004 4.004 0 0 1 4-4h16v8a4.004 4.004 0 0 0 4 4h8v32a4.004 4.004 0 0 1-4 4Zm-2-20a2 2 0 0 1-2 2H24a2 2 0 1 1 0-4h16a2 2 0 0 1 2 2Zm0-10a2 2 0 0 1-2 2H24a2 2 0 1 1 0-4h16a2 2 0 0 1 2 2Zm0 20a2 2 0 0 1-2 2H24a2 2 0 1 1 0-4h16a2 2 0 0 1 2 2Z" fill="#222"/></svg>