<svg width="64" height="64" fill="none" xmlns="http://www.w3.org/2000/svg"><path d="M51.924 53.55a2 2 0 0 0-3.846-1.099c-.427 1.491-.985 2.28-1.623 2.74-.65.47-1.665.804-3.412.81L43.001 56H16v-3a2 2 0 1 0-4 0v3a4 4 0 0 0 4 4h27c2.226 0 4.2-.414 5.796-1.566 1.611-1.164 2.553-2.875 3.127-4.884ZM16.483 39.011c1.654 0 3.306-.667 4.64-1.856 1.334-1.189 2.233-2.929 2.233-4.785 0-1.247-.26-2.378-.812-3.393-1.102-2-3.247-3.277-5.916-3.277h-4.755c-1.421 0-2.9.957-2.9 1.885v16.27c0 .492.985 2.32 2 2.32 1.015 0 2.03-1.567 2.03-3.162v-4.002h3.48Zm-3.48-9.54h3.51c1.71 0 2.928 1.188 2.928 2.9 0 1.623-1.275 2.87-2.928 2.87h-3.51v-5.77ZM33.334 39.011c1.653 0 3.306-.667 4.64-1.856 1.334-1.189 2.233-2.929 2.233-4.785 0-1.247-.26-2.378-.812-3.393-1.102-2-3.248-3.277-5.916-3.277h-4.756c-1.42 0-2.9.957-2.9 1.885v16.27c0 .492.986 2.32 2.001 2.32s2.03-1.567 2.03-3.162v-4.002h3.48Zm-3.48-9.54h3.51c1.71 0 2.928 1.188 2.928 2.9 0 1.623-1.276 2.87-2.929 2.87h-3.509v-5.77ZM47.024 43.854c0 .551.986 2.32 2 2.32 1.016 0 2.03-1.566 2.03-3.16V29.904h3.858c1.015 0 2.03-1.566 2.03-3.16 0-.697-.377-1.045-1.131-1.045H43.95c-1.421 0-2.9.957-2.9 1.885 0 .551.986 2.32 2 2.32h3.974v13.95ZM51.414 16.586 40.001 5.172A3.974 3.974 0 0 0 37.172 4H20a8.009 8.009 0 0 0-8 8v6a2 2 0 1 0 4 0v-6a4 4 0 0 1 4-4h16v8a4 4 0 0 0 4 4h10a2 2 0 0 0 1.414-3.414Zm-11.413-5.758L45.172 16H40v-5.172Z" fill="#222"/></svg>