<svg width="64" height="64" fill="none" xmlns="http://www.w3.org/2000/svg"><path fill-rule="evenodd" clip-rule="evenodd" d="M48.116 27.037a4 4 0 0 1 5.657.007l4.235 4.245A4 4 0 0 1 58 36.946L45.685 49.23a4 4 0 0 1-2.044 1.092l-5.303 1.054c-2.8.557-5.265-1.915-4.702-4.713l1.068-5.3a4 4 0 0 1 1.097-2.042l12.315-12.284Zm7.06 7.077L50.94 29.87 38.625 42.153l-1.067 5.3 5.302-1.055 12.316-12.284Z" fill="#222"/><path fill-rule="evenodd" clip-rule="evenodd" d="M8 12a8 8 0 0 1 8-8h28a4 4 0 0 1 4 4v15a2 2 0 1 1-4 0V8H16a4 4 0 0 0-4 4v44h27.801a4 4 0 0 0 3.406-1.903l.09-.146a2 2 0 1 1 3.406 2.098l-.09.146A8 8 0 0 1 39.801 60H12a4 4 0 0 1-4-4V12Z" fill="#222"/><path fill-rule="evenodd" clip-rule="evenodd" d="M16 20a2 2 0 0 1 2-2h20a2 2 0 1 1 0 4H18a2 2 0 0 1-2-2ZM16 28a2 2 0 0 1 2-2h20a2 2 0 1 1 0 4H18a2 2 0 0 1-2-2ZM16 36a2 2 0 0 1 2-2h12a2 2 0 1 1 0 4H18a2 2 0 0 1-2-2Z" fill="#222"/></svg>