<svg width="64" height="64" fill="none" xmlns="http://www.w3.org/2000/svg"><path fill-rule="evenodd" clip-rule="evenodd" d="M60 29.692v19.385a8.625 8.625 0 0 1-8.615 8.615h-38.77A8.625 8.625 0 0 1 4 49.077V29.692a2.154 2.154 0 0 1 4.308 0v19.385a4.313 4.313 0 0 0 4.307 4.308h38.77a4.313 4.313 0 0 0 4.307-4.308V29.692a2.154 2.154 0 0 1 4.308 0ZM29.716 43.377a3.233 3.233 0 0 0 4.568 0l12.162-12.162A2.154 2.154 0 0 0 43.4 28.17l-9.246 9.247V8.154a2.154 2.154 0 1 0-4.308 0v29.262L20.6 28.17a2.154 2.154 0 1 0-3.046 3.045l12.162 12.162Z" fill="#222"/></svg>