<svg width="64" height="64" fill="none" xmlns="http://www.w3.org/2000/svg"><path d="M54 18h-2v-4h6a2 2 0 0 0 0-4H42a2 2 0 0 0 0 4h6v4h-8.764l-.894-1.79A3.98 3.98 0 0 0 34.764 14h-5.528a3.979 3.979 0 0 0-3.578 2.21L24.764 18H16v-4h6a2 2 0 0 0 0-4H6a2 2 0 1 0 0 4h6v4h-2a6.007 6.007 0 0 0-6 6v2a6.007 6.007 0 0 0 6 6h12.832a10.004 10.004 0 0 0 18.334.002l.001-.002H54a6.007 6.007 0 0 0 6-6v-2a6.007 6.007 0 0 0-6-6Zm2 8a2.003 2.003 0 0 1-2 2H40.485a2.975 2.975 0 0 0-2.816 1.973c-.05.143-.106.285-.166.423l-.002.003a6.003 6.003 0 0 1-11.168-.421A2.98 2.98 0 0 0 23.509 28H10a2.003 2.003 0 0 1-2-2v-2a2.003 2.003 0 0 1 2-2h15.382a2.98 2.98 0 0 0 2.683-1.658L29.236 18h5.528l1.17 2.34A2.982 2.982 0 0 0 38.618 22H54a2.003 2.003 0 0 1 2 2v2ZM25.249 44.69a2 2 0 1 1 1.502-3.707 14.116 14.116 0 0 0 10.498 0 2.001 2.001 0 1 1 1.502 3.707 18.056 18.056 0 0 1-13.502 0Zm20.482 3.098a1.999 1.999 0 0 1-.73 2.733 26.029 26.029 0 0 1-26.002 0 1.999 1.999 0 1 1 2.002-3.463 22.03 22.03 0 0 0 21.998 0 1.998 1.998 0 0 1 2.732.73Z" fill="#222"/></svg>