<svg width="64" height="64" fill="none" xmlns="http://www.w3.org/2000/svg"><path d="M48 8H16a8.01 8.01 0 0 0-8 8v32a8.01 8.01 0 0 0 8 8h32a8.01 8.01 0 0 0 8-8V16a8.01 8.01 0 0 0-8-8Zm4 40a4.004 4.004 0 0 1-4 4H16a4.004 4.004 0 0 1-4-4V16a4.004 4.004 0 0 1 4-4h32a4.004 4.004 0 0 1 4 4v32Zm-8-32H20a4.004 4.004 0 0 0-4 4v16a4.004 4.004 0 0 0 4 4h2v4a4.004 4.004 0 0 0 4 4h12a4.004 4.004 0 0 0 4-4v-4h2a4.004 4.004 0 0 0 4-4V20a4.004 4.004 0 0 0-4-4Zm0 20h-2a4.004 4.004 0 0 0-4 4v4H26v-4a4.004 4.004 0 0 0-4-4h-2V20h6v4a2 2 0 0 0 4 0v-4h4v4a2 2 0 0 0 4 0v-4h6v16Z" fill="#222"/></svg>