<svg width="64" height="64" fill="none" xmlns="http://www.w3.org/2000/svg"><path fill-rule="evenodd" clip-rule="evenodd" d="M25.207 19a2 2 0 0 1 2 2v5.392l-1.413.434c-2.02.62-3.828 1.73-5.284 3.195l-1.158 1.164-1.336-.888-3.354-1.852-2.253 4.07 3.281 1.812 1.693.441-.346 1.835a12.774 12.774 0 0 0 .09 5.176l.505 2.235-2.083.18-3.209 1.773 2.253 4.07 3.179-1.756 1.186-1.848 1.755 1.689a12.715 12.715 0 0 0 5.081 2.995l1.413.434V56h4.66v-4.45l1.413-.433a12.707 12.707 0 0 0 4.81-2.741l1.059-.962 4.259 2.353 2.253-4.07-4.109-2.27.356-1.48c.228-.953.35-1.949.35-2.976 0-.868-.087-1.715-.252-2.531l-.291-1.438 4.841-2.675a2 2 0 1 1 1.934 3.502l-2.334 1.29a16.845 16.845 0 0 1-.068 4.244l2.333 1.29a3.056 3.056 0 0 1 1.197 4.155l-3.167 5.72a3.059 3.059 0 0 1-4.155 1.194l-2.635-1.455a16.703 16.703 0 0 1-3.794 2.17v2.506A3.058 3.058 0 0 1 32.808 60h-6.542a3.058 3.058 0 0 1-3.059-3.057v-2.507a16.711 16.711 0 0 1-4.037-2.358l-3.466 1.915a3.059 3.059 0 0 1-4.155-1.196L8.383 47.08a3.056 3.056 0 0 1 1.197-4.157l3.366-1.86a16.842 16.842 0 0 1-.052-3.71l-3.245-1.793a3.056 3.056 0 0 1-1.197-4.156l3.166-5.719a3.06 3.06 0 0 1 4.156-1.195l3.03 1.674a16.721 16.721 0 0 1 4.403-2.657V21a2 2 0 0 1 2-2Z" fill="#222"/><path fill-rule="evenodd" clip-rule="evenodd" d="M30 35a4 4 0 1 0 0 8 4 4 0 0 0 0-8Zm-8 4a8 8 0 1 1 16 0 8 8 0 0 1-16 0ZM42.5 8a9.5 9.5 0 1 0 0 19 9.5 9.5 0 0 0 0-19ZM29 17.5C29 10.044 35.045 4 42.5 4 49.956 4 56 10.044 56 17.5S49.956 31 42.5 31C35.045 31 29 24.956 29 17.5Z" fill="#222"/><path fill-rule="evenodd" clip-rule="evenodd" d="M43 10a2 2 0 0 1 2 2v6.828l-3.585 3.586a2 2 0 1 1-2.829-2.828L41 17.172V12a2 2 0 0 1 2-2Z" fill="#222"/></svg>