<svg width="64" height="65" fill="none" xmlns="http://www.w3.org/2000/svg"><path fill-rule="evenodd" clip-rule="evenodd" d="M45.613 30.907a16 16 0 1 0-27.226 0A18.03 18.03 0 0 0 4 48.543v2a8.01 8.01 0 0 0 8 8h40a8.01 8.01 0 0 0 8-8v-2a18.03 18.03 0 0 0-14.387-17.636ZM32 10.543c6.627 0 12 5.372 12 12 0 6.627-5.373 12-12 12s-12-5.373-12-12c.007-6.625 5.376-11.993 12-12Zm24 40a4.004 4.004 0 0 1-4 4H12a4.004 4.004 0 0 1-4-4v-2c.012-7.523 5.964-13.692 13.481-13.974a15.908 15.908 0 0 0 21.038 0c7.517.282 13.47 6.451 13.481 13.974v2Z" fill="#222"/></svg>