<svg width="64" height="64" fill="none" xmlns="http://www.w3.org/2000/svg"><path d="m45.133 32.589-14 3.111A3.975 3.975 0 0 0 28 39.604v7.343A8.823 8.823 0 0 0 24 46c-4.411 0-8 3.14-8 7s3.589 7 8 7 8-3.14 8-7a6.157 6.157 0 0 0-.037-.635c.024-.12.036-.242.037-.365V39.605l14-3.112v8.454A8.823 8.823 0 0 0 42 44c-4.411 0-8 3.14-8 7s3.589 7 8 7 8-3.14 8-7a6.157 6.157 0 0 0-.037-.635c.024-.12.036-.242.037-.365V36.493a4 4 0 0 0-4.867-3.904ZM24 56c-2.168 0-4-1.374-4-3s1.832-3 4-3 4 1.374 4 3-1.832 3-4 3Zm18-2c-2.168 0-4-1.374-4-3s1.832-3 4-3 4 1.374 4 3-1.832 3-4 3Zm14-30H26.198l28.234-5.646a4 4 0 0 0 3.136-4.707l-1.137-5.692a4 4 0 0 0-4.707-3.139L7.216 13.718A4.01 4.01 0 0 0 4 17.64V50a4.004 4.004 0 0 0 4 4h4a2 2 0 0 0 0-4H8V28h48v22h-2a2 2 0 0 0 0 4h2a4.004 4.004 0 0 0 4-4V28a4.004 4.004 0 0 0-4-4ZM45.94 10.485a1.99 1.99 0 0 0 .056-.444l6.512-1.303 1.139 5.694-9.15 1.83 1.443-5.777Zm-12 2c.003-.011.003-.023.005-.034l7.769-1.554-1.558 6.233-7.765 1.553 1.55-6.198Zm-17.88 9.03a1.988 1.988 0 0 0-.056.445L8 23.56v-5.92l9.503-1.901-1.443 5.776Zm5.784-6.644 7.765-1.553-1.55 6.197c-.002.011-.002.023-.005.035l-7.768 1.553 1.558-6.232Z" fill="#222"/></svg>