<svg width="64" height="64" fill="none" xmlns="http://www.w3.org/2000/svg"><path d="M51.999 8h-20a24.093 24.093 0 0 0-17.492 7.566 23.982 23.982 0 0 0-.702 32.075A17.256 17.256 0 0 0 9.999 58a2 2 0 0 0 4 0 13.06 13.06 0 0 1 2.67-7.533A23.864 23.864 0 0 0 32.019 56a23.77 23.77 0 0 0 16.413-6.509A24.092 24.092 0 0 0 56 32V12a4.004 4.004 0 0 0-4-4Zm0 24a19.996 19.996 0 0 1-32.656 15.484L22.827 44h13.172a2 2 0 0 0 0-4h-9.172l6-6h9.172a2 2 0 0 0 0-4h-5.172l6.586-6.586a2 2 0 1 0-2.828-2.828l-6.586 6.586V22a2 2 0 0 0-4 0v9.172l-6 6V28a2 2 0 0 0-4 0v13.172l-3.484 3.484A19.997 19.997 0 0 1 31.999 12h20v20Z" fill="#222"/></svg>