<svg width="64" height="64" fill="none" xmlns="http://www.w3.org/2000/svg"><path fill-rule="evenodd" clip-rule="evenodd" d="m38.858 11.547 19.404 32.337A8 8 0 0 1 51.402 56H12.596a8 8 0 0 1-6.86-12.116L25.14 11.546a7.998 7.998 0 0 1 13.718.001ZM51.402 52a3.955 3.955 0 0 0 3.48-2.029c.72-1.251.701-2.795-.05-4.028L35.43 13.605a3.998 3.998 0 0 0-6.86-.001L9.166 45.943A4 4 0 0 0 12.596 52h38.806ZM30 36.978v-11.82c0-.538.107-1.07.316-1.565.171-.443.438-.843.782-1.172.242-.25.57-.4.917-.42.502 0 1.003.38 1.504 1.14.272.337.44.745.481 1.174v11.82c0 .441-.306.862-.918 1.264-.582.391-1.267.6-1.968.6-.742 0-1.113-.34-1.114-1.021Zm4.242 6.946a2.825 2.825 0 0 0-.572-1.354c-.561-.823-1.103-1.234-1.625-1.234a1.587 1.587 0 0 0-1.068.482c-.383.367-.68.814-.872 1.309a4.444 4.444 0 0 0-.347 1.73c0 .762.421 1.143 1.264 1.143.781 0 1.545-.23 2.196-.662.683-.442 1.024-.913 1.024-1.414Z" fill="#222"/></svg>