<svg width="64" height="64" fill="none" xmlns="http://www.w3.org/2000/svg"><path d="M12.963 41.545a7.567 7.567 0 0 0 1.992-.877 2.14 2.14 0 0 0 .78-.944c.2-.423.303-.884.303-1.352 0-.52-.281-.78-.844-.782a3.026 3.026 0 0 0-1.373.378 6.395 6.395 0 0 1-2.772.809 3.676 3.676 0 0 1-2.35-.77 3.502 3.502 0 0 1-1.268-2.036h8.079a1.2 1.2 0 0 0 .965-.69 2.844 2.844 0 0 0 .436-1.552 6.316 6.316 0 0 0-.767-3.078 5.87 5.87 0 0 0-2.18-2.255 6.04 6.04 0 0 0-3.18-.85 6.486 6.486 0 0 0-3.353.903 6.883 6.883 0 0 0-2.482 2.567 7.33 7.33 0 0 0-.95 3.71 7.255 7.255 0 0 0 3.313 6.103 6.203 6.203 0 0 0 3.473 1.026 7.98 7.98 0 0 0 2.178-.31ZM8.539 31.257a3.295 3.295 0 0 1 2.166-.742 2.913 2.913 0 0 1 2.059.784 2.714 2.714 0 0 1 .898 1.942H7.43a3.187 3.187 0 0 1 1.108-1.984Zm19.169 4.929a1.986 1.986 0 0 0-.79-1.593 10.969 10.969 0 0 0-2.88-1.43 11.413 11.413 0 0 1-4.17-2.404 4.57 4.57 0 0 1-1.243-3.294 4.522 4.522 0 0 1 .899-2.74 5.955 5.955 0 0 1 2.35-1.905 7.443 7.443 0 0 1 3.168-.675 8.65 8.65 0 0 1 2.602.404 8.341 8.341 0 0 1 2.31 1.134.89.89 0 0 1 .395.785 3.265 3.265 0 0 1-.5 1.768 1.386 1.386 0 0 1-1.11.796 1.368 1.368 0 0 1-.661-.242 6.245 6.245 0 0 0-3.168-1.055 3.44 3.44 0 0 0-1.863.46 1.37 1.37 0 0 0-.724 1.188c-.012.327.09.647.29.906.318.332.7.598 1.122.782.555.28 1.483.67 2.785 1.173a8.823 8.823 0 0 1 3.71 2.391 5.345 5.345 0 0 1 1.176 3.525 5.115 5.115 0 0 1-.898 2.955 5.956 5.956 0 0 1-2.39 2.026 7.448 7.448 0 0 1-3.261.714 7.938 7.938 0 0 1-2.68-.472 8.817 8.817 0 0 1-2.363-1.242 5.53 5.53 0 0 1-1.558-1.714 1.88 1.88 0 0 1-.316-.863 1.37 1.37 0 0 1 .752-1.095 2.91 2.91 0 0 1 1.65-.498.97.97 0 0 1 .765.296 6.094 6.094 0 0 0 1.784 1.47 4.28 4.28 0 0 0 1.966.446 3.576 3.576 0 0 0 2.073-.54 1.687 1.687 0 0 0 .778-1.457Zm8.66-13.797c.686 0 1.03.324 1.03.971v15.31a3.716 3.716 0 0 1-.582 2.026 1.59 1.59 0 0 1-1.267.918c-.458 0-.916-.351-1.373-1.054a2.431 2.431 0 0 1-.447-1.106v-15.31a1.516 1.516 0 0 1 .83-1.2 3.194 3.194 0 0 1 1.808-.554v-.001Zm23.63.945V38.75a3.66 3.66 0 0 1-.276 1.404c-.153.4-.387.764-.688 1.068a1.218 1.218 0 0 1-.831.391c-.422 0-.87-.342-1.346-1.026a2.137 2.137 0 0 1-.423-1.08v-11.72l-3.908 8.318c-.387.793-.854 1.19-1.4 1.188h-.923a1.854 1.854 0 0 1-1.373-.892 3.441 3.441 0 0 1-.421-.7l-3.857-7.913V38.75c0 .482-.093.959-.277 1.404-.152.4-.386.764-.686 1.068a1.218 1.218 0 0 1-.831.391c-.476 0-.925-.342-1.348-1.026a2.13 2.13 0 0 1-.42-1.08V24.09a1.471 1.471 0 0 1 .803-1.163 3.107 3.107 0 0 1 1.758-.538H45a.958.958 0 0 1 .978.538l4.699 9.884 4.119-9.073c.217-.418.565-.755.99-.958a3.15 3.15 0 0 1 1.52-.391h1.689c.268-.016.532.07.739.242a.91.91 0 0 1 .264.703ZM9.999 22v-8a8.01 8.01 0 0 1 8-8h28a8.01 8.01 0 0 1 8 8v4a2 2 0 0 1-4 0v-4a4.005 4.005 0 0 0-4-4h-28a4.004 4.004 0 0 0-4 4v8a2 2 0 0 1-4 0Zm44 22v6a8.01 8.01 0 0 1-8 8h-28a8.01 8.01 0 0 1-8-8v-4a2 2 0 0 1 4 0v4a4.004 4.004 0 0 0 4 4h28a4.004 4.004 0 0 0 4-4v-6a2 2 0 0 1 4 0Z" fill="#222"/></svg>