<svg width="64" height="64" fill="none" xmlns="http://www.w3.org/2000/svg"><path d="M46 6H18a8.01 8.01 0 0 0-8 8v36a8.01 8.01 0 0 0 8 8h28a8.01 8.01 0 0 0 8-8V14a8.01 8.01 0 0 0-8-8Zm4 44a4.005 4.005 0 0 1-4 4h-4v-2a2 2 0 0 0-4 0v2h-4v-2a2 2 0 0 0-4 0v2h-4v-2a2 2 0 0 0-4 0v2h-4a4.005 4.005 0 0 1-4-4V14a4.005 4.005 0 0 1 4-4h4v2a2 2 0 0 0 4 0v-2h4v2a2 2 0 0 0 4 0v-2h4v2a2 2 0 0 0 4 0v-2h4a4.005 4.005 0 0 1 4 4v36Zm-8-32H28.028a3.972 3.972 0 0 0-2.828 1.172L19.172 25.2A3.972 3.972 0 0 0 18 28.028V42a4.005 4.005 0 0 0 4 4h20a4.005 4.005 0 0 0 4-4V22a4.005 4.005 0 0 0-4-4Zm0 24H22V28.028L28.028 22H42v20Z" fill="#222"/></svg>