<svg width="64" height="64" fill="none" xmlns="http://www.w3.org/2000/svg"><path d="m16.799 39.71-4.508 6.5c-.504.709-1.008 1.063-1.512 1.063s-1.037-.4-1.6-1.2a2.613 2.613 0 0 1-.533-1.288 1.15 1.15 0 0 1 .252-.7l5.573-7.42-4.787-6.252a2.49 2.49 0 0 1-.585-1.316c0-.428.289-.828.867-1.2a3.446 3.446 0 0 1 1.9-.56 1.152 1.152 0 0 1 .98.448l4.312 5.908 3.416-5.012a3.033 3.033 0 0 1 1.218-.952 3.857 3.857 0 0 1 1.667-.396c.8 0 1.2.364 1.2 1.092a4.533 4.533 0 0 1-.98 2.744l-4.171 5.6 5.208 6.748c.162.208.251.464.252.728.009.74-.2 1.466-.6 2.088a1.66 1.66 0 0 1-1.33.938 1.493 1.493 0 0 1-1.175-.7l-5.064-6.862ZM29.45 47.1c-.486 0-.97-.364-1.456-1.092a2.501 2.501 0 0 1-.476-1.149V29.153a1.573 1.573 0 0 1 .882-1.246 3.451 3.451 0 0 1 1.918-.574c.728 0 1.092.336 1.092 1.008v14.84h7.28c.691 0 1.037.327 1.037.98 0 .5-.1.995-.294 1.456a3.04 3.04 0 0 1-.73 1.092 1.29 1.29 0 0 1-.852.392H29.45Zm25.676-5.488a5.211 5.211 0 0 1-.952 3.066 6.3 6.3 0 0 1-2.534 2.1 8.065 8.065 0 0 1-3.457.742 8.674 8.674 0 0 1-2.843-.49 9.51 9.51 0 0 1-2.506-1.288 5.784 5.784 0 0 1-1.651-1.778 1.908 1.908 0 0 1-.337-.9 1.423 1.423 0 0 1 .8-1.133 3.154 3.154 0 0 1 1.75-.518 1.044 1.044 0 0 1 .812.308 6.453 6.453 0 0 0 1.89 1.526c.65.314 1.365.472 2.087.462a3.848 3.848 0 0 0 2.2-.56 1.738 1.738 0 0 0 .826-1.512 2.042 2.042 0 0 0-.84-1.652 11.796 11.796 0 0 0-3.052-1.484 12.173 12.173 0 0 1-4.424-2.492 4.918 4.918 0 0 1-.364-6.258 6.3 6.3 0 0 1 2.493-1.974 8.024 8.024 0 0 1 3.359-.7c.935 0 1.865.142 2.758.42.872.264 1.698.661 2.45 1.176a.916.916 0 0 1 .42.812 3.329 3.329 0 0 1-.531 1.834 1.468 1.468 0 0 1-1.177.826 1.453 1.453 0 0 1-.7-.252 6.737 6.737 0 0 0-3.36-1.092 3.706 3.706 0 0 0-1.974.476 1.414 1.414 0 0 0-.77 1.232c-.011.34.098.672.308.938.339.347.743.623 1.19.812.588.29 1.573.696 2.954 1.217a9.363 9.363 0 0 1 3.934 2.48 5.452 5.452 0 0 1 1.24 3.656Zm-11.128 19.72h-28a4 4 0 0 1-4-4v-3a2 2 0 0 1 4 0v3h28a3.981 3.981 0 0 0 3.937-3.332 2 2 0 1 1 3.946.664 7.973 7.973 0 0 1-7.883 6.668Zm7.414-43.414L39.999 6.505a3.972 3.972 0 0 0-2.828-1.172H19.999a8.009 8.009 0 0 0-8 8v6a2 2 0 0 0 4 0v-6a4 4 0 0 1 4-4h16v8a4 4 0 0 0 4 4h10a2.001 2.001 0 0 0 1.414-3.414Zm-11.414-5.758 5.172 5.172h-5.172v-5.172Z" fill="#222"/></svg>