<svg width="64" height="64" fill="none" xmlns="http://www.w3.org/2000/svg"><path d="M59.914 23.848V7.909A3.93 3.93 0 0 0 55.994 4H40.055a2.154 2.154 0 0 0 0 4.308h12.407L29.846 30.923a2.154 2.154 0 0 0 0 3.048c.393.39.922.614 1.476.624a2.154 2.154 0 0 0 1.529-.624l22.755-22.766v12.643a2.154 2.154 0 0 0 4.308 0Z" fill="#222"/><path d="M12.217 60H47.4a8.228 8.228 0 0 0 8.217-8.174V38.462a2.154 2.154 0 0 0-4.308 0v13.321a3.92 3.92 0 0 1-3.909 3.91H12.217a3.92 3.92 0 0 1-3.91-3.867v-35.27a3.909 3.909 0 0 1 3.91-3.94h13.321a2.154 2.154 0 1 0 0-4.308H12.217A8.217 8.217 0 0 0 4 16.557v35.27A8.228 8.228 0 0 0 12.217 60Z" fill="#222"/></svg>