<svg width="64" height="64" fill="none" xmlns="http://www.w3.org/2000/svg"><path fill-rule="evenodd" clip-rule="evenodd" d="M20 10c-5.523 0-10 4.477-10 10v2a2 2 0 1 1-4 0v-2c0-7.732 6.268-14 14-14h2a2 2 0 1 1 0 4h-2Zm20-2a2 2 0 0 1 2-2h2c7.732 0 14 6.268 14 14v2a2 2 0 1 1-4 0v-2c0-5.523-4.477-10-10-10h-2a2 2 0 0 1-2-2ZM23.519 27c-1.074 0-1.485.402-1.73.893a2 2 0 1 1-3.579-1.786C19.163 24.197 21 23 23.52 23c2.713 0 4.31 1.578 5.168 2.926a2 2 0 0 1-3.374 2.148c-.218-.343-.458-.606-.723-.782-.243-.16-.57-.292-1.071-.292Zm17 0c-1.074 0-1.485.402-1.73.893a2 2 0 1 1-3.578-1.786c.952-1.91 2.788-3.107 5.308-3.107 2.713 0 4.31 1.578 5.168 2.926a2 2 0 0 1-3.374 2.148c-.218-.343-.458-.606-.723-.782-.243-.16-.57-.292-1.071-.292ZM21.57 37.602a2 2 0 0 1 2.828-.032C25.95 39.087 27.912 41 32 41c3.645 0 6.095-1.957 7.602-3.43a2 2 0 1 1 2.796 2.86C40.632 42.157 37.217 45 32 45c-5.724 0-8.671-2.881-10.393-4.565l-.005-.005a2 2 0 0 1-.032-2.828ZM8 40a2 2 0 0 1 2 2v2c0 5.523 4.477 10 10 10h2a2 2 0 1 1 0 4h-2c-7.732 0-14-6.268-14-14v-2a2 2 0 0 1 2-2Zm48 0a2 2 0 0 1 2 2v2c0 7.732-6.268 14-14 14h-2a2 2 0 1 1 0-4h2c5.523 0 10-4.477 10-10v-2a2 2 0 0 1 2-2Z" fill="#222"/></svg>