<svg width="64" height="64" fill="none" xmlns="http://www.w3.org/2000/svg"><path d="M21 26a3 3 0 1 1 6.001 0A3 3 0 0 1 21 26Zm19 3a3 3 0 1 0 0-6 3 3 0 0 0 0 6Zm9.442 22.265.03.11-.234.066a25.932 25.932 0 0 1-34.476 0l-.235-.067.031-.109a26 26 0 1 1 34.884 0ZM10.289 28.456l10.589 7.06A7.974 7.974 0 0 1 25.525 34h12.95a7.974 7.974 0 0 1 4.647 1.515l10.589-7.059a21.998 21.998 0 0 0-43.422 0Zm8 10.14-8.261-5.507a21.915 21.915 0 0 0 5.784 13.79l2.022-7.077c.119-.414.27-.817.455-1.206Zm26.58 11.23-2.549-8.925a3.938 3.938 0 0 0-.452-.994l-.188-.28A4.009 4.009 0 0 0 38.475 38h-12.95a4.01 4.01 0 0 0-3.204 1.624l-.191.286c-.195.308-.346.641-.45.99l-2.55 8.926a21.93 21.93 0 0 0 25.74 0h-.001Zm9.103-16.737-8.261 5.508c.184.39.336.792.455 1.206l2.022 7.076a21.915 21.915 0 0 0 5.784-13.79Z" fill="#222"/></svg>