<svg width="64" height="64" fill="none" xmlns="http://www.w3.org/2000/svg"><path fill-rule="evenodd" clip-rule="evenodd" d="M57.846 41H46.793a8.603 8.603 0 0 0-16.663 0H6.154a2.154 2.154 0 1 0 0 4.308H30.13a8.603 8.603 0 0 0 16.663 0h11.053a2.154 2.154 0 0 0 0-4.308Zm-19.384 6.462a4.308 4.308 0 1 1 0-8.616 4.308 4.308 0 0 1 0 8.616ZM6.154 23.769h11.053a8.603 8.603 0 0 0 16.663 0h23.976a2.154 2.154 0 0 0 0-4.307H33.87a8.603 8.603 0 0 0-16.663 0H6.154a2.154 2.154 0 0 0 0 4.307Zm19.384-6.461a4.308 4.308 0 1 1 0 8.615 4.308 4.308 0 0 1 0-8.615Z" fill="#222"/></svg>