<svg width="64" height="64" fill="none" xmlns="http://www.w3.org/2000/svg"><path fill-rule="evenodd" clip-rule="evenodd" d="M32 4a2 2 0 0 1 2 2v4.09c10.554.95 18.96 9.356 19.91 19.91H58a2 2 0 1 1 0 4h-4.09C52.96 44.554 44.554 52.96 34 53.91V58a2 2 0 1 1-4 0v-4.09C19.446 52.96 11.04 44.554 10.09 34H6a2 2 0 1 1 0-4h4.09c.95-10.554 9.356-18.96 19.91-19.91V6a2 2 0 0 1 2-2Zm2 45.89V45a2 2 0 1 0-4 0v4.89c-8.343-.922-14.968-7.547-15.89-15.89H19a2 2 0 1 0 0-4h-4.89c.922-8.343 7.547-14.968 15.89-15.89V19a2 2 0 1 0 4 0v-4.89c8.343.922 14.968 7.547 15.89 15.89H45a2 2 0 1 0 0 4h4.89c-.922 8.343-7.547 14.968-15.89 15.89Z" fill="#222"/></svg>