<svg width="64" height="64" fill="none" xmlns="http://www.w3.org/2000/svg"><path fill-rule="evenodd" clip-rule="evenodd" d="M48 30.088c1.105 0 2 .855 2 1.909v7.635h8c1.105 0 2 .855 2 1.91 0 1.053-.895 1.908-2 1.908h-8v7.635c0 1.054-.895 1.909-2 1.909-1.104 0-2-.855-2-1.909V43.45h-8c-1.104 0-2-.855-2-1.909s.896-1.909 2-1.909h8v-7.635c0-1.054.896-1.909 2-1.909Zm8-7.635c0-2.045-1.684-3.714-3.8-3.813l-.2-.005H32v-1.909c0-1.054-.895-1.908-2-1.908H10c-1.054 0-1.918.778-1.994 1.766L8 16.727V43.45c0 2.044 1.684 3.714 3.8 3.813l.2.005h34-10c1.105 0 2 .854 2 1.908 0 1.054-.895 1.91-2 1.91h-2l-.046-.003L12 51.085c-4.334 0-7.864-3.29-7.996-7.397L4 43.45V16.726c0-3.09 2.566-5.61 5.775-5.722L10 11h20c2.462-.001 4.666 1.432 5.574 3.599l.086.219H52c4.335 0 7.865 3.29 7.997 7.397l.003.238v7.635c0 1.054-.895 1.909-2 1.909-1.104 0-2-.855-2-1.909v-7.635Zm-8 1.909c1.105 0 2 .854 2 1.909 0 1.054-.895 1.908-2 1.908H16c-1.104 0-2-.854-2-1.908 0-1.055.896-1.91 2-1.91h32Z" fill="#222"/></svg>