<svg width="64" height="64" fill="none" xmlns="http://www.w3.org/2000/svg"><path fill-rule="evenodd" clip-rule="evenodd" d="M12 8a8 8 0 0 0-8 8v21a8.001 8.001 0 0 0 7 7.938V49a8 8 0 0 0 8 8h33a8 8 0 0 0 8-8V31a8.001 8.001 0 0 0-7-7.938V20a8 8 0 0 0-8-8H32.624a6.12 6.12 0 0 0-5.742-4H12Zm17 6.118c0-1.17-.948-2.118-2.118-2.118H12a4 4 0 0 0-4 4v21a4.002 4.002 0 0 0 3 3.874V27a8 8 0 0 1 8-8h14.294a6.708 6.708 0 0 1 6.138 4H49v-3a4 4 0 0 0-4-4H29v-1.882ZM33.294 23A2.706 2.706 0 0 1 36 25.706V27h16a4 4 0 0 1 4 4v18a4 4 0 0 1-4 4H19a4 4 0 0 1-4-4V27a4 4 0 0 1 4-4h14.294Z" fill="#222"/><path fill-rule="evenodd" clip-rule="evenodd" d="M20 35a2 2 0 0 1 2-2h27a2 2 0 1 1 0 4H22a2 2 0 0 1-2-2Z" fill="#222"/></svg>