<svg xmlns="http://www.w3.org/2000/svg" viewBox="0 0 64 64"><path fill="#222" fill-rule="evenodd" d="M48 32a2 2 0 0 1 2 2v8h8a2 2 0 1 1 0 4h-8v8a2 2 0 1 1-4 0v-8h-8a2 2 0 1 1 0-4h8v-8a2 2 0 0 1 2-2zm8-8a4 4 0 0 0-3.8-3.995L52 20H32v-2a2 2 0 0 0-2-2H10a2 2 0 0 0-1.995 1.85L8 18v28a4 4 0 0 0 3.8 3.995L12 50h34-10a2 2 0 1 1 0 4h-2l-.046-.002L12 54a8 8 0 0 1-7.996-7.75L4 46V18a6 6 0 0 1 5.775-5.996L10 12h20a6 6 0 0 1 5.574 3.77l.086.23H52a8 8 0 0 1 7.996 7.75L60 24v8a2 2 0 1 1-4 0v-8zm-8 2a2 2 0 1 1 0 4H16a2 2 0 1 1 0-4h32z"/></svg>