<svg width="64" height="64" fill="none" xmlns="http://www.w3.org/2000/svg"><path d="M39.384 12.13a1.47 1.47 0 0 1-.51 0c.169.024.34.024.51 0Z" fill="#222"/><path fill-rule="evenodd" clip-rule="evenodd" d="M50.614 29.4c1.47-2.69 1.84-6.82 1.19-12.82v-.23c-1.22-5.2-5.88-8.41-12-8.27a20.07 20.07 0 0 0-22.72 1.69c-4.37 3.66-8.36 9.91-3.81 19.38a7.2 7.2 0 0 0-3.94 6.43 7 7 0 0 0 4.51 6.53c4.93 10.82 10.51 16.41 17 17 .58.08 1.17.08 1.75 0 6.49-.62 12.06-6.21 17-17a7 7 0 0 0 4.49-6.53 7.14 7.14 0 0 0-3.47-6.18Zm-31.07-16.51a16.05 16.05 0 0 1 18.64-1.07l.26.14a1.572 1.572 0 0 0 .93.13c4.37-.26 7.61 1.68 8.45 5.06a26.193 26.193 0 0 1-.15 8.7 35.12 35.12 0 0 0-2.5-2.62c-2.12-2.07-4.51-4.43-5.38-7.11v-.06a.853.853 0 0 0-.09-.22 1.304 1.304 0 0 0-.08-.17 1.82 1.82 0 0 0-.54-.59.999.999 0 0 0-.26-.16 1.797 1.797 0 0 0-.55-.19.757.757 0 0 0-.26 0c-.12-.02-.24-.02-.36 0h-.19a.8.8 0 0 0-.15 0l-.2.08-.19.1c-.153.08-.292.184-.41.31a.346.346 0 0 0-.1.11 1.516 1.516 0 0 0-.28.4c-1 2-2.89 2.76-8.56 3.49-5.93.86-9.62 2.61-11.67 5.73-1.63-4.75-.4-8.68 3.64-12.06Zm8.54 10.36c-6.17.89-8.54 2.58-9.54 5.25h-.01a97 97 0 0 0 26.15.08c-.427-.584-1.058-1.219-1.627-1.792-.23-.232-.45-.454-.643-.658a32 32 0 0 1-5-5.78c-2.33 1.84-5.54 2.41-9.33 2.9Zm16 9.4c-1 4.2-2.68 6.44-4.9 6.66-2 .13-3.53-1.87-4.71-5.94 3.207-.087 6.41-.327 9.61-.72Zm-19.05 6.67c1.82 0 3.33-1.94 4.47-5.94h.02c-3.18-.06-6.36-.28-9.59-.66 1.01 4.16 2.67 6.37 4.94 6.6h.16Zm22.61-.8a2 2 0 0 0-1.37 1.14c-4.46 10.07-9.36 15.3-14.58 15.54-5.2-.23-10.11-5.46-14.61-15.54a2 2 0 0 0-1.37-1.14 3 3 0 0 1-2.42-3 3.4 3.4 0 0 1 2.44-3.18c1.39 6.83 4.33 10.5 8.79 10.94h.5c3.47 0 5.61-2.45 7-5.18 1.35 2.73 3.51 5.18 7 5.18h.51c4.34-.43 7.25-4 8.67-10.68a3.23 3.23 0 0 1 1.88 2.98 3 3 0 0 1-2.42 2.94h-.02Z" fill="#222"/><path d="M32.084 59.21c.17.002.338-.022.5-.07a6.35 6.35 0 0 1-.87.07h.37ZM31.714 59.2h-.38a1.68 1.68 0 0 1-.5-.07c.291.044.585.067.88.07Z" fill="#222"/></svg>