<svg width="64" height="64" fill="none" xmlns="http://www.w3.org/2000/svg"><path d="M25.322 34.768h-1.568c-.467 0-.924-.336-1.372-1.008a2.448 2.448 0 0 1-.447-1.064 1.484 1.484 0 0 1 .825-1.162 3.21 3.21 0 0 1 1.806-.546h3.5c.691 0 1.037.317 1.037.952v4.9a4.213 4.213 0 0 1-1.876 3.7 8.875 8.875 0 0 1-2.577 1.218c-.974.29-1.984.436-3 .434a9.182 9.182 0 0 1-5.011-1.415 9.7 9.7 0 0 1-3.458-3.695 10.323 10.323 0 0 1-1.219-4.942 10.007 10.007 0 0 1 1.471-5.32 10.467 10.467 0 0 1 3.821-3.738 10.082 10.082 0 0 1 5.04-1.33 9.665 9.665 0 0 1 5.24 1.448.9.9 0 0 1 .42.84c0 .463-.095.92-.28 1.344A3.125 3.125 0 0 1 27 26.41c-.202.224-.483.36-.784.378a1.557 1.557 0 0 1-.672-.2c-.547-.276-1.12-.5-1.708-.672a6.04 6.04 0 0 0-1.567-.2 6.13 6.13 0 0 0-4.508 1.75A6.022 6.022 0 0 0 16 31.94a6.75 6.75 0 0 0 .8 3.318 5.7 5.7 0 0 0 2.142 2.225c.919.53 1.964.8 3.024.785 1.178.02 2.34-.28 3.36-.869l-.004-2.631Zm6.72-10.948a1.573 1.573 0 0 1 .882-1.246A3.455 3.455 0 0 1 34.842 22c.728 0 1.092.336 1.092 1.008v15.876a3.777 3.777 0 0 1-.616 2.1 1.69 1.69 0 0 1-1.343.953c-.487 0-.972-.364-1.457-1.092a2.495 2.495 0 0 1-.476-1.148V23.82Zm11.592 9.995v5.069a3.777 3.777 0 0 1-.616 2.1 1.69 1.69 0 0 1-1.344.953c-.486 0-.971-.364-1.456-1.092a2.495 2.495 0 0 1-.476-1.148V23.988a1.573 1.573 0 0 1 .882-1.246 3.455 3.455 0 0 1 1.918-.574h9.044c.69 0 1.035.327 1.036.98 0 .5-.1.995-.294 1.456-.16.414-.408.789-.728 1.096a1.29 1.29 0 0 1-.854.392h-7.112v4.088h6.188c.653 0 .98.308.98.924a3.367 3.367 0 0 1-.546 1.876 1.509 1.509 0 0 1-1.218.839l-5.404-.004ZM4 20a2 2 0 0 1-2-2v-4a8.009 8.009 0 0 1 8-8h4a2 2 0 0 1 0 4h-4a4 4 0 0 0-4 4v4a2 2 0 0 1-2 2Zm56 0a2 2 0 0 1-2-2v-4a4 4 0 0 0-4-4h-4a2 2 0 0 1 0-4h4a8.009 8.009 0 0 1 8 8v4a2 2 0 0 1-2 2Zm-6 38h-4a2 2 0 0 1 0-4h4a4 4 0 0 0 4-4v-4a2 2 0 0 1 4 0v4a8.009 8.009 0 0 1-8 8Zm-40 0h-4a8.009 8.009 0 0 1-8-8v-4a2 2 0 0 1 4 0v4a4 4 0 0 0 4 4h4a2 2 0 0 1 0 4Z" fill="#222"/></svg>