<svg width="65" height="64" fill="none" xmlns="http://www.w3.org/2000/svg"><path fill-rule="evenodd" clip-rule="evenodd" d="M58.39 55.833c0 1.197-.97 2.167-2.167 2.167H15.056a8.677 8.677 0 0 1-8.666-8.667V8.167a2.167 2.167 0 1 1 4.333 0v41.166a4.338 4.338 0 0 0 4.333 4.334h41.167c1.197 0 2.167.97 2.167 2.166ZM17.223 40.667a2.16 2.16 0 0 0 1.532-.635l8.218-8.218 5.603 5.603a4.336 4.336 0 0 0 6.127 0L51.89 24.23v5.603a2.167 2.167 0 1 0 4.334 0v-8.666a4.338 4.338 0 0 0-4.334-4.334h-8.666a2.167 2.167 0 0 0 0 4.334h5.603L35.639 34.353l-5.602-5.603a4.435 4.435 0 0 0-6.128 0l-8.218 8.218a2.167 2.167 0 0 0 1.532 3.699Z" fill="#222"/></svg>