<svg width="64" height="64" fill="none" xmlns="http://www.w3.org/2000/svg"><path fill-rule="evenodd" clip-rule="evenodd" d="M10 8h18a2 2 0 0 1 2 2v18a2 2 0 0 1-2 2H10a2 2 0 0 1-2-2V10a2 2 0 0 1 2-2Zm2 4v14h14V12H12ZM10 34h18a2 2 0 0 1 2 2v18a2 2 0 0 1-2 2H10a2 2 0 0 1-2-2V36a2 2 0 0 1 2-2Zm2 4v14h14V38H12ZM54 8H36a2 2 0 0 0-2 2v18a2 2 0 0 0 2 2h18a2 2 0 0 0 2-2V10a2 2 0 0 0-2-2ZM38 26V12h14v14H38ZM36 34h18a2 2 0 0 1 2 2v18a2 2 0 0 1-2 2H36a2 2 0 0 1-2-2V36a2 2 0 0 1 2-2Zm2 4v14h14V38H38Z" fill="#222"/></svg>