<svg width="64" height="65" fill="none" xmlns="http://www.w3.org/2000/svg"><path fill-rule="evenodd" clip-rule="evenodd" d="M54 33.763V31.5c0-12.15-9.85-22-22-22s-22 9.85-22 22v2.263A8.007 8.007 0 0 0 4 41.5v6a8.01 8.01 0 0 0 8 8h2a4.004 4.004 0 0 0 4-4v-14a4.004 4.004 0 0 0-4-4v-2c0-9.941 8.059-18 18-18s18 8.059 18 18v2a4.004 4.004 0 0 0-4 4v14a4.004 4.004 0 0 0 4 4h2a8.01 8.01 0 0 0 8-8v-6a8.007 8.007 0 0 0-6-7.737ZM14.003 51.5H12a4.004 4.004 0 0 1-4-4v-6a4.004 4.004 0 0 1 4-4h2l.003 14ZM56 47.5a4.004 4.004 0 0 1-4 4h-2l-.003-14H52a4.004 4.004 0 0 1 4 4v6Z" fill="#222"/></svg>