<svg width="64" height="64" fill="none" xmlns="http://www.w3.org/2000/svg"><path fill-rule="evenodd" clip-rule="evenodd" d="M55.792 11.713a15.241 15.241 0 0 0-22.04 0l-1.598 1.65-1.598-1.65a15.241 15.241 0 0 0-22.04 0c-6.021 6.321-6.021 16.257 0 22.578l20.527 21.22a4.322 4.322 0 0 0 6.223 0l20.526-21.22c6.021-6.321 6.021-16.257 0-22.578Zm-3.115 19.565-20.52 21.22-20.526-21.22c-4.415-4.634-4.415-11.918 0-16.552a10.908 10.908 0 0 1 15.811 0l3.155 3.26a2.232 2.232 0 0 0 3.115 0l3.154-3.26a10.908 10.908 0 0 1 15.811 0c4.415 4.634 4.415 11.918 0 16.552Z" fill="#222"/></svg>