<svg width="64" height="64" fill="none" xmlns="http://www.w3.org/2000/svg"><path fill-rule="evenodd" clip-rule="evenodd" d="m32.115 40.765 7.141-7.626.694-.756c4.937-5.44 6.586-8.794 6.586-12.972 0-2.288-.555-4.438-1.733-6.31C42.515 9.357 38.147 7 32.669 7c-5.762 0-11.392 2.983-14.75 7.782l-.226.33c-.485.693-.693 1.317-.693 1.803 0 1.178 2.01 4.922 4.23 4.922.415 0 .831-.138 1.247-.416.347-.277.902-.832 1.664-1.664 2.982-3.328 4.992-4.576 7.696-4.576 3.12 0 5.408 2.08 5.408 4.854 0 2.426-1.317 4.714-4.437 8.112l-6.725 7.141c-.486.624-.763 1.179-.763 1.733 0 .555.347 1.456 1.04 2.635 1.04 1.595 2.15 2.427 3.328 2.427.763 0 1.525-.416 2.427-1.318ZM30.38 56.99c-2.704 0-5.269-4.506-5.269-6.24 0-2.426 3.952-4.992 7.765-4.992 2.011 0 3.051.902 3.051 2.774 0 2.842-1.317 5.754-2.981 7.28-.832.762-1.664 1.178-2.566 1.178Z" fill="#222"/></svg>