<svg width="64" height="64" fill="none" xmlns="http://www.w3.org/2000/svg"><path fill-rule="evenodd" clip-rule="evenodd" d="M58.795 29.24 36.361 6.808a6.167 6.167 0 0 0-8.722 0L5.205 29.24a4.112 4.112 0 0 0 2.907 7.02h3.328v18.503a4.116 4.116 0 0 0 4.112 4.112h32.896a4.116 4.116 0 0 0 4.112-4.112V36.26h3.328a4.112 4.112 0 0 0 2.907-7.02Zm-10.347 2.908v22.616H15.552V32.148h-7.44L30.546 9.714a2.104 2.104 0 0 1 2.908 0l22.434 22.434h-7.44Zm-18.504 8.224v6.168a4.116 4.116 0 0 0 4.112 4.112h6.168a4.116 4.116 0 0 0 4.112-4.112v-6.168a4.116 4.116 0 0 0-4.112-4.112h-6.168a4.116 4.116 0 0 0-4.112 4.112Zm4.112 0h6.168l.003 6.168h-6.171v-6.168Z" fill="#222"/></svg>