<svg width="64" height="64" fill="none" xmlns="http://www.w3.org/2000/svg"><path d="M46.001 46a2 2 0 0 1-2 2v2a8 8 0 0 1-16 0v-6c-4.41 0-8-3.252-8-7.25V26a2 2 0 0 1 2-2h4a2 2 0 0 1 0 4h-2v8.75c0 1.792 1.794 3.25 4 3.25h4c2.206 0 4-1.458 4-3.25V28h-2a2 2 0 1 1 0-4h4a2 2 0 0 1 2 2v10.75c0 3.998-3.588 7.25-8 7.25v6a4 4 0 1 0 8 0v-2a2 2 0 1 1 0-4h4a2 2 0 0 1 2 2Zm12.066-16.828L36.244 7.349a6 6 0 0 0-8.485 0L5.936 29.172A4 4 0 0 0 8.764 36h1.237v18a4.004 4.004 0 0 0 4 4h10a2 2 0 0 0 0-4h-10V32H8.764l21.823-21.823a2.049 2.049 0 0 1 2.828 0L55.24 32H50v22h-2a2 2 0 1 0 0 4h2a4.004 4.004 0 0 0 4-4V36h1.238a4 4 0 0 0 2.828-6.828Z" fill="#222"/></svg>