<svg width="64" height="64" fill="none" xmlns="http://www.w3.org/2000/svg"><path d="M26 18a2 2 0 0 1 2-2h2v-2a2 2 0 0 1 4 0v2h2a2 2 0 0 1 0 4h-2v2a2 2 0 0 1-4 0v-2h-2a2 2 0 0 1-2-2Zm26-8v44a6.007 6.007 0 0 1-6 6H18a6.007 6.007 0 0 1-6-6V10a6.007 6.007 0 0 1 6-6h28a6.007 6.007 0 0 1 6 6ZM30 48h-4v8h4v-8Zm8 0h-4v8h4v-8Zm10-38a2.003 2.003 0 0 0-2-2H18a2.003 2.003 0 0 0-2 2v44a2.003 2.003 0 0 0 2 2h4v-8a4.005 4.005 0 0 1 4-4h12a4.005 4.005 0 0 1 4 4v8h4a2.003 2.003 0 0 0 2-2V10Zm-8 26H24a2 2 0 0 0 0 4h16a2 2 0 0 0 0-4Zm0-8H24a2 2 0 0 0 0 4h16a2 2 0 0 0 0-4Z" fill="#222"/></svg>