<svg width="64" height="64" fill="none" xmlns="http://www.w3.org/2000/svg"><path fill-rule="evenodd" clip-rule="evenodd" d="M51.5 8.166h-39a8.677 8.677 0 0 0-8.667 8.667v30.334a8.677 8.677 0 0 0 8.667 8.666h39a8.677 8.677 0 0 0 8.666-8.666V16.832A8.677 8.677 0 0 0 51.5 8.167Zm4.333 39A4.338 4.338 0 0 1 51.5 51.5h-39a4.338 4.338 0 0 1-4.334-4.334V16.834A4.338 4.338 0 0 1 12.5 12.5h39a4.338 4.338 0 0 1 4.333 4.333v30.334ZM20.083 32a7.583 7.583 0 1 0-7.583-7.584A7.592 7.592 0 0 0 20.083 32Zm0-10.834a3.25 3.25 0 1 1 0 6.5 3.25 3.25 0 0 1 0-6.5Zm32.948 13.635a2.166 2.166 0 1 1-3.063 3.064l-7.135-7.135-13.635 13.635a2.166 2.166 0 0 1-3.064 0l-4.968-4.968-7.135 7.135a2.167 2.167 0 0 1-3.063-3.064l7.134-7.135a4.336 4.336 0 0 1 6.128 0l3.436 3.436L39.77 27.666a4.336 4.336 0 0 1 6.128 0l7.134 7.135Z" fill="#222"/></svg>