<svg width="64" height="64" fill="none" xmlns="http://www.w3.org/2000/svg"><path d="M57.27 26.067 53.088 17.7a7.99 7.99 0 0 0-13.411-8.58 2.017 2.017 0 0 0-.36.09l-17.782 6.467a9.991 9.991 0 1 0-8.927 17.717l-.02.02L25.173 46H18a4.004 4.004 0 0 0-4 4v4a4.004 4.004 0 0 0 4 4h30a4.004 4.004 0 0 0 4-4v-4a4.004 4.004 0 0 0-4-4h-5.172L25.052 28.223c.088-.186.17-.374.247-.567L38.3 22.928l-1.57 3.138a4.01 4.01 0 0 0 .249 4.01l3.357 5.033a2 2 0 1 0 3.328-2.218l-3.355-5.035 3.14-6.28a7.907 7.907 0 0 0 6.722-.762l3.52 7.042-3.355 5.035a2 2 0 1 0 3.328 2.218l3.357-5.036a4.01 4.01 0 0 0 .249-4.006ZM10 24a6 6 0 1 1 6 6 6.007 6.007 0 0 1-6-6Zm38 26 .004 4H18v-4h30Zm-10.827-4h-6.344L18.5 33.67a9.97 9.97 0 0 0 4.135-2.21L37.173 46ZM25.958 23.16a9.914 9.914 0 0 0-1.41-4.322l13.456-4.892L38 14c0 1.532.442 3.03 1.275 4.317L25.958 23.16ZM46 18a4 4 0 1 1 0-8 4 4 0 0 1 0 8Z" fill="#222"/></svg>