<svg width="64" height="64" fill="none" xmlns="http://www.w3.org/2000/svg"><path d="M54 4a4 4 0 0 1 4 4v46a4 4 0 0 1-4 4H8a4 4 0 0 1-4-4V32.872a4 4 0 0 1 1.278-2.931l10-9.286A4 4 0 0 1 22 23.586v3.827l7.278-6.758a4 4 0 0 1 2.49-1.062l.232-.007a4 4 0 0 1 4 4v3.827l7.278-6.758a4 4 0 0 1 2.49-1.062l.232-.007V8a4 4 0 0 1 4-4h4Zm0 4h-4v15.586c0 2.667-4 2.667-4 0l-10.64 9.88C34.082 34.654 32 33.746 32 32v-8.414l-10.64 9.88C20.082 34.654 18 33.746 18 32v-8.414L8 32.872V54h46V8ZM20 45a2 2 0 1 1 0 4 2 2 0 0 1 0-4Zm8 0a2 2 0 1 1 0 4 2 2 0 0 1 0-4Zm8 0a2 2 0 1 1 0 4 2 2 0 0 1 0-4Zm8 0a2 2 0 1 1 0 4 2 2 0 0 1 0-4Zm-24-8a2 2 0 1 1 0 4 2 2 0 0 1 0-4Zm8 0a2 2 0 1 1 0 4 2 2 0 0 1 0-4Zm8 0a2 2 0 1 1 0 4 2 2 0 0 1 0-4Zm8 0a2 2 0 1 1 0 4 2 2 0 0 1 0-4Z" fill="#222"/></svg>