<svg width="64" height="64" fill="none" xmlns="http://www.w3.org/2000/svg"><path fill-rule="evenodd" clip-rule="evenodd" d="M47.284 40.87c-1.146 0-3.785-.634-8.583-4.888A57.423 57.423 0 0 1 34.66 32a57.375 57.375 0 0 1 4.003-3.95c4.82-4.28 7.47-4.92 8.62-4.92 5.077 0 9.208 3.98 9.208 8.87 0 4.892-4.13 8.872-9.208 8.872Zm-22.207-4.888c-4.798 4.254-7.437 4.889-8.583 4.889-5.077 0-9.208-3.98-9.208-8.871 0-4.892 4.13-8.871 9.208-8.871 1.146 0 3.785.635 8.583 4.888A57.433 57.433 0 0 1 29.116 32a57.433 57.433 0 0 1-4.039 3.982ZM47.284 19c-3.155 0-7.032 2.024-11.525 6.014a60.68 60.68 0 0 0-3.87 3.78 60.68 60.68 0 0 0-3.87-3.78C23.525 21.024 19.648 19 16.492 19 9.053 19 3 24.832 3 32s6.053 13 13.493 13c3.155 0 7.033-2.024 11.525-6.014a60.682 60.682 0 0 0 3.87-3.78 60.682 60.682 0 0 0 3.871 3.78C40.252 42.976 44.13 45 47.285 45c7.44 0 13.493-5.832 13.493-13s-6.053-13-13.493-13Z" fill="#222"/></svg>