<svg width="64" height="64" fill="none" xmlns="http://www.w3.org/2000/svg"><path fill-rule="evenodd" clip-rule="evenodd" d="M17.621 32c0-7.941 6.437-14.379 14.378-14.379A14.378 14.378 0 0 1 46.378 32c0 7.94-6.438 14.378-14.379 14.378-7.94 0-14.378-6.437-14.378-14.378ZM32 41.333a9.334 9.334 0 1 1 0-18.667 9.334 9.334 0 0 1 0 18.667Z" fill="#222"/><path d="M50.306 17.053a3.36 3.36 0 1 1-6.72 0 3.36 3.36 0 0 1 6.72 0Z" fill="#222"/><path fill-rule="evenodd" clip-rule="evenodd" d="M32 4c-7.604 0-8.56.032-11.544.168-2.984.137-5.016.61-6.8 1.302a13.726 13.726 0 0 0-4.96 3.23 13.726 13.726 0 0 0-3.23 4.96c-.689 1.78-1.162 3.815-1.298 6.796C4.032 23.436 4 24.396 4 32c0 7.604.032 8.56.168 11.544.137 2.984.61 5.016 1.302 6.8a13.726 13.726 0 0 0 3.23 4.96 13.725 13.725 0 0 0 4.96 3.23c1.78.691 3.817 1.165 6.8 1.3 2.983.137 3.936.166 11.54.166 7.604 0 8.56-.032 11.544-.17 2.984-.136 5.016-.609 6.8-1.3a14.32 14.32 0 0 0 8.186-8.19c.692-1.78 1.166-3.816 1.302-6.8.136-2.983.168-3.936.168-11.54 0-7.604-.032-8.56-.17-11.544-.136-2.984-.609-5.016-1.3-6.8a13.725 13.725 0 0 0-3.23-4.96 13.726 13.726 0 0 0-4.96-3.23c-1.78-.689-3.816-1.162-6.796-1.298C40.563 4.032 39.604 4 32 4Zm0 5.044c7.475 0 8.361.03 11.314.16 2.73.125 4.213.581 5.2.964 1.307.508 2.24 1.115 3.22 2.095.978.98 1.585 1.913 2.093 3.219.384.986.84 2.47.965 5.2.134 2.953.16 3.84.16 11.314 0 7.475-.03 8.362-.16 11.315-.125 2.73-.581 4.213-.965 5.2-.508 1.307-1.114 2.24-2.094 3.219-.98.98-1.913 1.586-3.22 2.094-.985.384-2.469.84-5.2.964-2.951.135-3.84.16-11.314.16s-8.362-.028-11.314-.16c-2.73-.124-4.213-.58-5.2-.964-1.307-.508-2.24-1.114-3.22-2.094-.978-.98-1.585-1.91-2.094-3.217-.383-.986-.839-2.47-.964-5.2-.134-2.953-.16-3.84-.16-11.314 0-7.475.03-8.362.16-11.315.125-2.73.581-4.212.964-5.2.509-1.307 1.115-2.24 2.095-3.219.98-.979 1.913-1.586 3.22-2.094.985-.383 2.469-.84 5.2-.964 2.952-.135 3.84-.16 11.314-.16v-.003Z" fill="#222"/></svg>