<svg width="64" height="64" fill="none" xmlns="http://www.w3.org/2000/svg"><path fill-rule="evenodd" clip-rule="evenodd" d="M59.999 32C59.981 16.587 47.523 4.08 32.11 4.003h-.024c-.03 0-.058-.003-.087-.003l-.083.002h-.03C16.446 4.066 3.97 16.617 4 32.058 4.03 47.498 16.556 59.999 31.998 60H32c15.456-.018 27.982-12.544 27.999-28Zm-6.844 10.647a49.45 49.45 0 0 0-8.83-2.843c.398-2.582.598-5.191.597-7.804 0-2.612-.199-5.22-.597-7.802a49.464 49.464 0 0 0 8.832-2.84 23.609 23.609 0 0 1-.002 21.289ZM31.999 55.372c-3.136-2.033-5.695-6.49-7.188-12.108a52.508 52.508 0 0 1 14.375 0C37.694 48.882 35.134 53.338 32 55.371Zm0-16.91c-2.7.003-5.395.195-8.068.574-.73-4.662-.73-9.41 0-14.072 2.673.379 5.369.571 8.068.575h.007a57.906 57.906 0 0 0 8.06-.574c.363 2.328.546 4.68.548 7.035a45.884 45.884 0 0 1-.548 7.036A57.885 57.885 0 0 0 32 38.462Zm0-29.834c3.135 2.034 5.695 6.491 7.188 12.11-2.38.325-4.78.49-7.181.493h-.007a53.749 53.749 0 0 1-7.188-.495C26.304 15.118 28.863 10.661 32 8.628Zm18.846 9.036a45.422 45.422 0 0 1-7.376 2.311A31.363 31.363 0 0 0 38.704 9.28a23.766 23.766 0 0 1 12.14 8.384ZM25.295 9.28a31.362 31.362 0 0 0-4.766 10.694 45.377 45.377 0 0 1-7.374-2.312 23.766 23.766 0 0 1 12.14-8.382ZM10.842 21.354a49.392 49.392 0 0 0 8.83 2.842 51.291 51.291 0 0 0 0 15.608 49.441 49.441 0 0 0-8.83 2.842 23.61 23.61 0 0 1 0-21.292Zm2.312 24.984a45.442 45.442 0 0 1 7.374-2.312 31.364 31.364 0 0 0 4.765 10.694 23.765 23.765 0 0 1-12.14-8.382Zm25.55 8.382a31.362 31.362 0 0 0 4.764-10.694c2.52.56 4.987 1.333 7.375 2.312a23.765 23.765 0 0 1-12.14 8.382Z" fill="#222"/></svg>