<svg width="64" height="64" fill="none" xmlns="http://www.w3.org/2000/svg"><path fill-rule="evenodd" clip-rule="evenodd" d="M48 4H20a8.01 8.01 0 0 0-8 8v44a4.004 4.004 0 0 0 4 4h28a8.01 8.01 0 0 0 8-8V8a4.004 4.004 0 0 0-4-4Zm0 48a4.004 4.004 0 0 1-4 4l-28 .002V12a4.004 4.004 0 0 1 4-4h28v44ZM22 40a2 2 0 0 1 2-2h16a2 2 0 1 1 0 4H24a2 2 0 0 1-2-2Zm0-8a2 2 0 0 1 2-2h8a2 2 0 1 1 0 4h-8a2 2 0 0 1-2-2Zm20 16a2 2 0 0 1-2 2h-4a2 2 0 1 1 0-4h4a2 2 0 0 1 2 2Zm-3.41-14.59a1.965 1.965 0 0 1-.55-1.8c.023-.13.06-.258.11-.38a2.32 2.32 0 0 1 .19-.34c.07-.111.153-.212.25-.3a1.993 1.993 0 0 1 1.8-.55c.13.023.257.06.38.11a2.145 2.145 0 0 1 1.08 1.08c.05.122.087.25.11.38a1.965 1.965 0 0 1-.55 1.8c-.088.097-.19.18-.3.25a2.188 2.188 0 0 1-.34.19 2.71 2.71 0 0 1-.38.11 1.965 1.965 0 0 1-1.8-.55ZM22 24a2 2 0 0 1 2-2h8a2 2 0 1 1 0 4h-8a2 2 0 0 1-2-2Zm16.04.39a1.918 1.918 0 0 1 0-.78c.021-.13.058-.258.11-.38a2.32 2.32 0 0 1 .19-.34c.072-.112.155-.216.25-.31a2.015 2.015 0 0 1 1.8-.54c.129.027.256.064.38.11.12.05.234.113.34.19a1.778 1.778 0 0 1 .55.55c.073.108.136.221.19.34.15.367.189.77.11 1.16-.023.13-.06.258-.11.38a2.315 2.315 0 0 1-.19.34c-.07.11-.153.212-.25.3a1.98 1.98 0 0 1-2.82 0 1.446 1.446 0 0 1-.25-.3 2.32 2.32 0 0 1-.19-.34 1.797 1.797 0 0 1-.11-.38ZM22 16a2 2 0 0 1 2-2h8a2 2 0 1 1 0 4h-8a2 2 0 0 1-2-2Zm16.04.39a1.918 1.918 0 0 1 0-.78 1.8 1.8 0 0 1 .11-.38 2.32 2.32 0 0 1 .19-.34c.07-.111.153-.212.25-.3a1.993 1.993 0 0 1 1.8-.55c.129.027.256.064.38.11a2.146 2.146 0 0 1 1.08 1.08c.05.122.087.25.11.38.053.257.053.523 0 .78-.023.13-.06.258-.11.38a2.309 2.309 0 0 1-.44.65c-.091.09-.192.171-.3.24-.106.077-.22.14-.34.19-.123.05-.25.087-.38.11a1.998 1.998 0 0 1-1.8-.54 1.828 1.828 0 0 1-.25-.31 2.324 2.324 0 0 1-.19-.34 1.803 1.803 0 0 1-.11-.38Z" fill="#222"/></svg>