<svg width="64" height="64" fill="none" xmlns="http://www.w3.org/2000/svg"><path d="m57.586 48.758-6.794-6.794a24.032 24.032 0 1 0-8.828 8.828l6.622 6.622a6.25 6.25 0 0 0 8.828 0l.172-.172a6 6 0 0 0 0-8.484ZM10 30a20 20 0 1 1 20 20 20.022 20.022 0 0 1-20-20Zm44.758 24.414-.172.172a2.244 2.244 0 0 1-3.172 0l-6.112-6.112a24.22 24.22 0 0 0 3.172-3.172l6.284 6.284a2.002 2.002 0 0 1 0 2.828ZM37.536 26.658a8 8 0 1 0-15.073 0A10.008 10.008 0 0 0 16 36a6.006 6.006 0 0 0 6 6h16a6.006 6.006 0 0 0 6-6 10.008 10.008 0 0 0-6.464-9.342ZM30 20a4 4 0 1 1 0 8 4 4 0 0 1 0-8Zm8 18H22a2.003 2.003 0 0 1-2-2 6.008 6.008 0 0 1 4.85-5.887 7.97 7.97 0 0 0 10.3 0A6.007 6.007 0 0 1 40 36a2.002 2.002 0 0 1-2 2Z" fill="#222"/></svg>