<svg width="64" height="64" fill="none" xmlns="http://www.w3.org/2000/svg"><path d="M44 14a6 6 0 1 0 6 6 6.007 6.007 0 0 0-6-6Zm0 8a2 2 0 1 1 0-4 2 2 0 0 1 0 4ZM54.205 9.92A19.997 19.997 0 0 0 20.544 28.63L5.172 44A3.974 3.974 0 0 0 4 46.829V56a4.004 4.004 0 0 0 4 4h6a4.004 4.004 0 0 0 4-4v-2h1a5.006 5.006 0 0 0 5-5v-1h2a4.004 4.004 0 0 0 4-4v-2h1.308A19.993 19.993 0 0 0 54.205 9.92Zm1.72 15.64a15.983 15.983 0 0 1-23.06 12.75 2.988 2.988 0 0 0-1.314-.31H26v6h-6v5a1 1 0 0 1-1 1h-5v6H8v-9.172l15.78-15.78a3.005 3.005 0 0 0 .768-2.9 15.999 15.999 0 1 1 31.378-2.587h-.001Z" fill="#222"/></svg>