<svg width="64" height="64" fill="none" xmlns="http://www.w3.org/2000/svg"><path fill-rule="evenodd" clip-rule="evenodd" d="M8.667 4.726a6 6 0 0 0-6 6v18a6 6 0 0 0 6 6h16a2 2 0 0 0 0-4h-16a2 2 0 0 1-2-2V18.282H43.11v3.444a2 2 0 0 0 4 0v-11a6 6 0 0 0-6-6H8.667Zm34.444 9.556v-3.556a2 2 0 0 0-2-2H8.667a2 2 0 0 0-2 2v3.556H43.11Z" fill="#222"/><path fill-rule="evenodd" clip-rule="evenodd" d="M43.167 30.726c-6.352 0-11.5 5.149-11.5 11.5s5.148 11.5 11.5 11.5c6.35 0 11.5-5.149 11.5-11.5s-5.15-11.5-11.5-11.5Zm-15.5 11.5c0-8.56 6.94-15.5 15.5-15.5 8.56 0 15.5 6.94 15.5 15.5 0 8.56-6.94 15.5-15.5 15.5-8.56 0-15.5-6.94-15.5-15.5Z" fill="#222"/><path fill-rule="evenodd" clip-rule="evenodd" d="M43.167 34.44a2 2 0 0 1 2 2v7.175a2 2 0 0 1-.471 1.29l-2.893 3.431a2 2 0 1 1-3.058-2.578l2.422-2.873V36.44a2 2 0 0 1 2-2Z" fill="#222"/></svg>