<svg width="64" height="64" fill="none" xmlns="http://www.w3.org/2000/svg"><path d="M46 26a2 2 0 0 1-2 2H24a2 2 0 0 1 0-4h20a2 2 0 0 1 2 2Zm-22-8h20a2 2 0 0 0 0-4H24a2 2 0 0 0 0 4Zm20 16H24a2 2 0 0 0 0 4h20a2 2 0 0 0 0-4ZM54 8v44a8.01 8.01 0 0 1-8 8H14a8.01 8.01 0 0 1-8-8v-2a4.004 4.004 0 0 1 4-4h4V12a8.01 8.01 0 0 1 8-8h28a4.004 4.004 0 0 1 4 4ZM14 56h25.083A7.94 7.94 0 0 1 38 52v-2H10v2a4.004 4.004 0 0 0 4 4ZM50 8H22a4.004 4.004 0 0 0-4 4v34h20a4.004 4.004 0 0 1 4 4v2a4 4 0 1 0 8 0V8Z" fill="#222"/></svg>