<svg width="64" height="64" fill="none" xmlns="http://www.w3.org/2000/svg"><path fill-rule="evenodd" clip-rule="evenodd" d="M55.104 22.422h-8.35a4.147 4.147 0 0 0-2.942 1.228c-6.027-2.112-11.372-8.068-13.288-15.002a6.288 6.288 0 0 0-5.39-4.604 6.123 6.123 0 0 0-6.166 3.253c-.226.423-.428.858-.608 1.302a12.241 12.241 0 0 0-.16 8.448l2.637 7.462h-9.574A6.27 6.27 0 0 0 5 30.773v2.087a6.264 6.264 0 0 0 2.895 5.279 6.22 6.22 0 0 0-.807 3.072v2.088a6.273 6.273 0 0 0 4.615 6.042 6.24 6.24 0 0 0-.44 2.308v2.088A6.27 6.27 0 0 0 17.526 60h26.096c.176-.002.352-.027.522-.074.17.047.346.072.522.074h12.526a2.088 2.088 0 0 0 2.088-2.088V26.597a4.18 4.18 0 0 0-4.176-4.175ZM15.438 53.737v-2.088a2.09 2.09 0 0 1 2.088-2.087 2.088 2.088 0 0 0 0-4.176h-4.175a2.09 2.09 0 0 1-2.088-2.087V41.21a2.09 2.09 0 0 1 2.088-2.088 2.088 2.088 0 0 0 0-4.175h-2.088a2.09 2.09 0 0 1-2.088-2.088v-2.087a2.09 2.09 0 0 1 2.088-2.088h12.526c.13 0 .26-.014.389-.04.047-.008.09-.023.136-.035.057-.015.114-.024.17-.044.019-.007.034-.018.052-.025.073-.03.143-.062.212-.1.054-.028.11-.054.161-.087.058-.039.114-.08.167-.125.052-.041.106-.08.154-.126s.09-.098.133-.149c.044-.05.089-.099.127-.153.04-.056.072-.117.106-.177.032-.056.066-.11.092-.169.028-.062.048-.127.07-.192.022-.064.045-.128.06-.194.014-.06.021-.122.03-.184.012-.076.02-.153.023-.23 0-.02.006-.038.006-.058 0-.044-.01-.086-.013-.13a1.607 1.607 0 0 0-.076-.44c-.012-.041-.016-.083-.03-.125l-3.608-10.21a8.04 8.04 0 0 1 .084-5.532 9.07 9.07 0 0 1 .416-.895 1.992 1.992 0 0 1 2.024-1.07A2.097 2.097 0 0 1 26.5 9.758c2.277 8.247 8.75 15.351 16.078 17.876v28.19H17.526a2.09 2.09 0 0 1-2.088-2.088Zm39.666 2.087h-8.35V26.654c0-.02.005-.037.005-.056h8.345v29.227Z" fill="#222"/></svg>