<svg xmlns="http://www.w3.org/2000/svg" viewBox="0 0 64 64"><path d="M16.4 28.8c-.1-.7-.2-1.3-.2-2 0-5.4 4.4-9.9 9.9-9.9.9 0 1.7.1 2.5.3-.6.5-.9 1.3-.7 2.1.2.9 1 1.5 1.9 1.5.2 0 .3 0 .5-.1l3.6-.9c1.3-.3 2.1-1.7 1.7-2.9l-.9-3.6c-.3-1.1-1.4-1.7-2.4-1.4-.9.2-1.5 1-1.5 1.9-1.5-.5-3.1-.8-4.7-.8-7.7 0-13.9 6.2-13.9 13.9 0 .9.1 1.9.3 2.8.2.9 1 1.6 2 1.6h.4c1.1-.4 1.8-1.5 1.5-2.5zM18.7 40.6c.9-.2 1.5-.9 1.5-1.8 1.8.9 3.8 1.3 5.9 1.3 7.7 0 13.9-6.2 13.9-13.9 0-1.2-.2-2.5-.5-3.7-.3-1.1-1.4-1.7-2.5-1.4-1.1.3-1.7 1.4-1.4 2.5.2.9.4 1.7.4 2.6 0 5.4-4.4 9.9-9.9 9.9-1.3 0-2.6-.3-3.8-.7.7-.4 1.1-1.3.9-2.2-.3-1.1-1.3-1.7-2.4-1.5l-3.6.9c-1.3.3-2.1 1.6-1.8 2.9l.9 3.6c.2.9 1 1.5 1.9 1.5h.5z"/><circle cx="33.8" cy="52" r="2"/><path d="M41.8 4h-16c-3.5 0-6.5 2.3-7.6 5.4-.4 1.2.5 2.5 1.8 2.5h.2c.8 0 1.5-.5 1.8-1.3.6-1.5 2-2.6 3.8-2.6h16c2.2 0 4 1.8 4 4v32h-24v-.2c0-1.1-.9-2-2-2s-2 .9-2 2V52c0 4.4 3.6 8 8 8h16c4.4 0 8-3.6 8-8V12c0-4.4-3.6-8-8-8zm4 48c0 2.2-1.8 4-4 4h-16c-2.2 0-4-1.8-4-4v-4h24v4z"/></svg>