<svg width="64" height="64" fill="none" xmlns="http://www.w3.org/2000/svg"><path fill-rule="evenodd" clip-rule="evenodd" d="M37.383 27.972c4.572 4.583 4.572 12.001 0 16.584L25.368 56.57c-4.583 4.572-12.001 4.572-16.584 0L7.43 55.216c-4.572-4.583-4.572-12.001 0-16.584l8.14-8.14a2.132 2.132 0 0 1 3.014 3.015l-8.14 8.14a7.471 7.471 0 0 0 0 10.554l1.356 1.355a7.473 7.473 0 0 0 10.554 0l12.015-12.015a7.471 7.471 0 0 0 0-10.554l-1.743-1.744a2.132 2.132 0 1 1 3.014-3.014l1.744 1.743ZM56.571 8.784 55.216 7.43c-4.583-4.572-12.001-4.572-16.584 0L26.617 19.444c-4.572 4.583-4.572 12.001 0 16.584l1.744 1.743a2.132 2.132 0 1 0 3.014-3.014l-1.743-1.744a7.471 7.471 0 0 1 0-10.554l12.015-12.015a7.473 7.473 0 0 1 10.554 0l1.355 1.355a7.471 7.471 0 0 1 0 10.554l-8.14 8.14a2.132 2.132 0 0 0 3.015 3.014l8.14-8.14c4.572-4.582 4.572-12 0-16.583Z" fill="#222"/></svg>