<svg width="64" height="64" fill="none" xmlns="http://www.w3.org/2000/svg"><path d="M10.99 15a3 3 0 1 0 .01 0h-.01ZM8 32a3 3 0 1 1 6.001.001A3 3 0 0 1 8 32ZM8 46a3 3 0 1 1 6.001.001A3 3 0 0 1 8 46ZM20.037 30h33.926c1.12 0 2.037.895 2.037 2s-.912 2-2.037 2H20.037C18.912 34 18 33.104 18 32c0-1.105.912-2 2.037-2ZM20.035 44C18.91 44 18 44.896 18 46.001c0 1.105.911 1.998 2.035 1.999h33.927C55.087 48 56 47.105 56 46.001S55.09 44 53.965 44h-33.93ZM54.111 19.995H20.184a2.103 2.103 0 0 1-.295 0c-1.122-.08-1.965-1.038-1.884-2.14.082-1.102 1.058-1.93 2.179-1.85H54.11c1.008.072 1.81.86 1.884 1.85.081 1.102-.762 2.06-1.884 2.14Z" fill="#222"/></svg>