<svg width="64" height="64" fill="none" xmlns="http://www.w3.org/2000/svg"><path fill-rule="evenodd" clip-rule="evenodd" d="M46.333 24.74h-.01l-.034-7.119-.005-.136C45.736 9.885 39.41 4 31.793 4 24.172 4 17.849 9.885 17.3 17.485l-.038 7.257A8.305 8.305 0 0 0 9 33.037v18.667A8.306 8.306 0 0 0 17.296 60h29.037a8.306 8.306 0 0 0 8.297-8.296V33.037a8.306 8.306 0 0 0-8.297-8.296ZM31.815 8.149a10.38 10.38 0 0 1 10.325 9.565l.035 7.028H21.41l.034-7.028a10.422 10.422 0 0 1 10.37-9.565ZM50.48 51.704a4.152 4.152 0 0 1-4.148 4.148H17.296a4.152 4.152 0 0 1-4.148-4.148V33.037a4.152 4.152 0 0 1 4.148-4.148h29.037a4.152 4.152 0 0 1 4.148 4.148v18.667ZM33.89 41.334v6.222a2.074 2.074 0 0 1-4.148 0v-6.223a2.074 2.074 0 1 1 4.148 0Z" fill="#222"/></svg>