<svg width="64" height="64" fill="none" xmlns="http://www.w3.org/2000/svg"><path fill-rule="evenodd" clip-rule="evenodd" d="M46.33 24.744H23.52a10.364 10.364 0 1 1 17.263-11.403 2.074 2.074 0 0 0 3.59-2.08c-3.893-6.747-12.42-9.217-19.315-5.594-6.896 3.622-9.702 12.043-6.356 19.077h-1.407A8.305 8.305 0 0 0 9 33.04v18.665A8.305 8.305 0 0 0 17.296 60H46.33a8.305 8.305 0 0 0 8.295-8.295V33.04a8.305 8.305 0 0 0-8.295-8.296Zm4.148 26.96a4.152 4.152 0 0 1-4.148 4.148H17.296a4.152 4.152 0 0 1-4.148-4.147V33.04a4.152 4.152 0 0 1 4.148-4.148H46.33a4.152 4.152 0 0 1 4.148 4.148v18.665ZM33.886 41.336v6.222a2.074 2.074 0 1 1-4.147 0v-6.222a2.074 2.074 0 0 1 4.147 0Z" fill="#222"/></svg>