<svg width="64" height="64" fill="none" xmlns="http://www.w3.org/2000/svg"><path fill-rule="evenodd" clip-rule="evenodd" d="M37.602 34.167H8.168a2.167 2.167 0 0 1 0-4.334h29.435l-9.3-9.301a2.167 2.167 0 0 1 3.063-3.064l12.999 12.999c.101.101.192.213.272.332.034.051.057.107.087.16.085.131.146.276.178.429.02.063.043.123.056.188.056.28.056.568 0 .848-.013.065-.037.125-.056.188a1.269 1.269 0 0 1-.178.428c-.03.054-.053.11-.087.161-.08.12-.17.23-.272.332L31.365 46.532a2.167 2.167 0 0 1-3.064-3.064l9.302-9.301ZM49.334 6h-26a2.167 2.167 0 0 0 0 4.333h26a4.338 4.338 0 0 1 4.334 4.334v34.666a4.338 4.338 0 0 1-4.334 4.334h-26a2.167 2.167 0 1 0 0 4.333h26A8.677 8.677 0 0 0 58 49.333V14.667A8.677 8.677 0 0 0 49.333 6Z" fill="#222"/></svg>