<svg width="64" height="64" fill="none" xmlns="http://www.w3.org/2000/svg"><path fill-rule="evenodd" clip-rule="evenodd" d="M31.916 14.458c-5.776 0-10.458 4.682-10.458 10.458 0 5.775 4.682 10.457 10.458 10.457 5.775 0 10.457-4.682 10.457-10.457-.006-5.773-4.685-10.452-10.457-10.458Zm0 16.732a6.275 6.275 0 1 1 6.274-6.274 6.281 6.281 0 0 1-6.274 6.274Zm0-27.19C20.369 4.013 11.013 13.37 11 24.916c0 13.06 14.254 29.391 18.625 34.087a3.141 3.141 0 0 0 2.29.997h.003a3.141 3.141 0 0 0 2.29-.999c4.37-4.694 18.623-21.025 18.623-34.085C52.818 13.37 43.461 4.013 31.915 4Zm0 51.312c-4.11-4.54-16.733-19.387-16.733-30.396 0-9.242 7.491-16.733 16.733-16.733 9.24 0 16.732 7.491 16.732 16.733 0 11.009-12.624 25.857-16.733 30.396Z" fill="#222"/></svg>