<svg width="64" height="64" fill="none" xmlns="http://www.w3.org/2000/svg"><path fill-rule="evenodd" clip-rule="evenodd" d="M20 4a8 8 0 0 0-8 8v2a2 2 0 1 0 4 0v-2a4 4 0 0 1 4-4h17v8a4 4 0 0 0 4 4h7v3a2 2 0 1 0 4 0v-4.724a4 4 0 0 0-1.046-2.697L41.572 5.303A4 4 0 0 0 38.618 4H20Zm25.922 12L41 10.609V16h4.922Z" fill="#222"/><path d="M52 41.5a2 2 0 1 0-4 0V52a4 4 0 0 1-4 4H16V46a2 2 0 1 0-4 0v10a4 4 0 0 0 4 4h28a8 8 0 0 0 8-8V41.5Z" fill="#222"/><path fill-rule="evenodd" clip-rule="evenodd" d="M19.5 38a8.5 8.5 0 1 0 0-17 8.5 8.5 0 0 0 0 17Zm0 4C26.404 42 32 36.404 32 29.5S26.404 17 19.5 17 7 22.596 7 29.5 12.596 42 19.5 42ZM44.097 24.207a2 2 0 0 0-2.912.379A1.994 1.994 0 0 0 40.6 26v14.053c-1.486-.803-3.265-1.195-5.135-1.024-4.675.426-8.153 4.203-7.767 8.437.386 4.234 4.489 7.322 9.164 6.896 4.675-.426 8.152-4.204 7.766-8.438a7.084 7.084 0 0 0-.068-.526c.026-.129.04-.262.04-.398V29.833l5.863 4.886a2 2 0 1 0 2.56-3.073l-8.926-7.439Zm-7.598 26.171c2.855-.26 4.298-2.42 4.146-4.091-.153-1.672-1.962-3.535-4.817-3.275-2.856.26-4.299 2.42-4.146 4.091.152 1.672 1.961 3.535 4.817 3.275Z" fill="#222"/></svg>