<svg width="64" height="64" fill="none" xmlns="http://www.w3.org/2000/svg"><path fill-rule="evenodd" clip-rule="evenodd" d="M32.131 46c6.624-.008 11.993-5.376 12-12V16c0-6.627-5.372-12-12-12-6.627 0-12 5.373-12 12v18c.008 6.624 5.376 11.992 12 12Zm0-38a8.01 8.01 0 0 1 8 8v18a8 8 0 1 1-16 0v-4h6a2 2 0 1 0 0-4h-6v-4h6a2 2 0 0 0 0-4h-6v-2a8.01 8.01 0 0 1 8-8Zm17.92 34.89a19.874 19.874 0 0 1-15.92 11V58a2 2 0 0 1-4 0v-4.11a19.874 19.874 0 0 1-15.92-11 2 2 0 1 1 3.583-1.78 16.007 16.007 0 0 0 28.675 0 2 2 0 1 1 3.582 1.78Z" fill="#222"/></svg>