<svg width="64" height="64" fill="none" xmlns="http://www.w3.org/2000/svg"><path d="M32 4H16a8.01 8.01 0 0 0-8 8v40a8.01 8.01 0 0 0 8 8h16a8.01 8.01 0 0 0 8-8V12a8.01 8.01 0 0 0-8-8Zm-20 8a4.004 4.004 0 0 1 4-4h16a4.004 4.004 0 0 1 4 4v32H12V12Zm24 40a4.005 4.005 0 0 1-4 4H16a4.005 4.005 0 0 1-4-4v-4h24v4Zm-14 0a2 2 0 1 1 4 0 2 2 0 0 1-4 0Zm30-24a9.943 9.943 0 0 1-2.928 7.071 2.003 2.003 0 0 1-2.829.001 2.003 2.003 0 0 1-.001-2.829 6 6 0 0 0 0-8.486 2 2 0 1 1 2.83-2.828A9.942 9.942 0 0 1 52 28Zm8 0a17.88 17.88 0 0 1-5.272 12.728 2 2 0 0 1-2.829-2.829 14 14 0 0 0 0-19.798 2 2 0 1 1 2.829-2.829A17.88 17.88 0 0 1 60 28Z" fill="#222"/></svg>