<svg width="64" height="64" fill="none" xmlns="http://www.w3.org/2000/svg"><path fill-rule="evenodd" clip-rule="evenodd" d="M22 36a10 10 0 0 1-10-10c0-4.67 6.623-14.561 8.227-16.957l.123-.183L22 6.48l1.65 2.38.123.183C25.377 11.44 32 21.331 32 26a10 10 0 0 1-10 10Zm0-22.38c-2.88 4.49-6 10.2-6 12.38a6 6 0 1 0 12 0c0-2.18-3.12-7.89-6-12.38ZM30 60a8 8 0 0 1-8-8c0-3.75 5.29-11.6 6.35-13.14L30 36.48l1.65 2.38C32.71 40.4 38 48.25 38 52a8 8 0 0 1-8 8Zm0-16.36c-2.13 3.41-4 7-4 8.36a4 4 0 1 0 8 0c0-1.33-1.87-4.95-4-8.36ZM38.343 37.657A8 8 0 0 0 52 32c0-3.75-5.29-11.6-6.35-13.14L44 16.48l-1.65 2.38C41.29 20.4 36 28.25 36 32a8 8 0 0 0 2.343 5.657ZM40 32c0-1.36 1.87-4.95 4-8.36 2.13 3.41 4 7.03 4 8.36a4 4 0 1 1-8 0Z" fill="#222"/></svg>