<svg xmlns="http://www.w3.org/2000/svg" viewBox="0 0 64 64"><path fill="#222" fill-rule="evenodd" d="M21.11 14.05A21 21 0 0 1 60 25a21.001 21.001 0 0 1-10 17.89 21 21 0 0 1-7 7A21.09 21.09 0 0 1 25 60a21 21 0 0 1-10.99-38.95 21 21 0 0 1 7-7zM11.21 29A17 17 0 0 0 25 56a17.06 17.06 0 0 0 9.91-3.21A21.67 21.67 0 0 1 32 53c-11.598 0-21-9.402-21-21a22.29 22.29 0 0 1 .21-3zm7.03-7A17 17 0 0 0 32 49a16.9 16.9 0 0 0 10-3.24A20.84 20.84 0 0 1 18.24 22zM39 8c-9.389 0-17 7.611-17 17s7.611 17 17 17a17 17 0 0 0 17-17c0-9.389-7.611-17-17-17zm1.56 5.47A9.38 9.38 0 0 1 45.72 15a1 1 0 0 1 .47.85 3.5 3.5 0 0 1-1 2.5 1.28 1.28 0 0 1-.88.41 1.37 1.37 0 0 1-.6-.19 6.58 6.58 0 0 0-3.22-1A5.45 5.45 0 0 0 35.4 21H43c.53 0 .78.25.78.72 0 1.11-.75 2.28-1.42 2.28h-7.78a8.55 8.55 0 0 0 0 1.06 6.54 6.54 0 0 0 0 .94h7.35c.54 0 .79.25.79.72 0 1.11-.72 2.28-1.42 2.28h-6a5.21 5.21 0 0 0 5.09 3.53 10.54 10.54 0 0 0 2.9-.56 7.24 7.24 0 0 1 1.71-.35c.73 0 1.11.35 1.11 1a3.47 3.47 0 0 1-1.45 2.94 9.7 9.7 0 0 1-4.55 1c-4.67 0-8.17-2.81-9.53-7.58h-1.27a.68.68 0 0 1-.45-.19 2.32 2.32 0 0 1-1-1.48c0-.64 1.08-1.33 2.06-1.33h.28a4.92 4.92 0 0 1 0-.94 6.42 6.42 0 0 1 0-1.06h-.47a.68.68 0 0 1-.45-.19 2.32 2.32 0 0 1-1-1.48c0-.64 1.08-1.33 2.05-1.33h.45c1.64-4.64 5.4-7.51 9.78-7.51z"/></svg>