<svg width="64" height="64" fill="none" xmlns="http://www.w3.org/2000/svg"><path fill-rule="evenodd" clip-rule="evenodd" d="M47.293 52.244c-3.488.467-5.17 1.628-7.131 2.981-1.003.692-2.08 1.435-3.507 2.161-.06.03-.12.057-.181.08-6.74 2.627-14.927 1.572-19.987-1.802a1.99 1.99 0 0 1-.21-.161L5.774 46.279a5.214 5.214 0 0 1 6.021-8.447l7.507 4.278a5.628 5.628 0 0 1 3.888-2.542l9.297-1.447c.076-.054.16-.115.254-.18.41-.29.986-.682 1.655-1.1 1.29-.805 3.108-1.822 4.793-2.271 2.176-.58 4.855-.403 6.797-.154.4.05.78.107 1.132.163A4 4 0 0 1 51.096 31h5a4 4 0 0 1 4 4v16a4 4 0 0 1-4 4h-5a4.002 4.002 0 0 1-3.803-2.756Zm-.197-13.61a32.594 32.594 0 0 0-1.618-.25c-1.866-.24-3.883-.315-5.26.051-1.074.286-2.468 1.028-3.703 1.8a32.36 32.36 0 0 0-1.892 1.278l-.108.08-.025.019-.005.003c-.264.2-.574.332-.901.383l-9.78 1.522a1.634 1.634 0 0 0 .378 3.243l8.939-.696a2 2 0 1 1 .31 3.988l-8.938.696a5.636 5.636 0 0 1-5.955-4.472l-8.723-4.972a1.214 1.214 0 0 0-1.402 1.966l10.4 9.133c3.932 2.558 10.619 3.472 16.115 1.37.779-.405 1.539-.927 2.36-1.49 2.26-1.552 4.98-3.42 9.808-4.04v-9.613Zm4 11.462V51h5V35h-5V50.096ZM25.096 9c-5.523 0-10 4.477-10 10s4.477 10 10 10 10-4.477 10-10-4.477-10-10-10Zm-14 10c0-7.732 6.268-14 14-14s14 6.268 14 14-6.268 14-14 14-14-6.268-14-14Z" fill="#222"/><path d="M26.596 21.5c.42 0 .9-.74.9-1.44 0-.3-.16-.46-.5-.46h-4.68c-.02-.08-.02-.28-.02-.58 0-.34 0-.56.02-.66h4.98c.42 0 .9-.74.9-1.44 0-.3-.16-.46-.5-.46h-4.84c.72-1.46 1.8-2.2 3.22-2.2.62 0 1.3.22 2.04.64.14.08.28.12.38.12.18 0 .38-.08.56-.26.36-.32.64-.94.64-1.58 0-.22-.1-.4-.3-.54-.98-.62-2.06-.94-3.24-.94-2.78 0-5.16 1.82-6.2 4.76h-.28c-.62 0-1.3.44-1.3.84 0 .38.42.8.62.94.1.08.18.12.28.12h.24c-.02.1-.02.32-.02.66 0 .3 0 .5.02.58h-.12c-.62 0-1.3.44-1.3.84 0 .38.42.8.62.94.1.08.18.12.28.12h.78c.86 3.02 3.08 4.8 6.04 4.8 1.12 0 2.24-.26 2.88-.64.56-.34.92-1.08.92-1.86 0-.42-.24-.64-.7-.64-.22 0-.58.08-1.06.22-.78.24-1.4.36-1.84.36-1.5 0-2.58-.74-3.22-2.24h3.8Z" fill="#222"/></svg>