<svg width="64" height="64" fill="none" xmlns="http://www.w3.org/2000/svg"><path fill-rule="evenodd" clip-rule="evenodd" d="M60 25.001a20.977 20.977 0 0 0-38.884-10.949c-.034.018-.07.03-.103.05a21.017 21.017 0 0 0-6.961 6.981A20.998 20.998 0 0 0 25 60a21.1 21.1 0 0 0 17.952-10.114 21.003 21.003 0 0 0 7.01-7.009A20.984 20.984 0 0 0 60 25.001Zm-35 31a17.014 17.014 0 0 1-13.787-26.963c-.14.982-.21 1.972-.212 2.963.014 11.592 9.408 20.986 21 21a20.687 20.687 0 0 0 2.91-.212A17.033 17.033 0 0 1 25 56Zm7-7a17.013 17.013 0 0 1-13.76-27 20.844 20.844 0 0 0 23.764 23.76A16.899 16.899 0 0 1 32 49Zm7-7c-9.388 0-17-7.611-17-17 0-9.388 7.612-17 17-17 9.389 0 17 7.612 17 17-.01 9.384-7.616 16.99-17 17Zm-3.604-21h7.64c.537 0 .79.252.79.725 0 1.105-.759 2.275-1.422 2.275h-7.825a8.15 8.15 0 0 0-.032 1.064c-.013.313-.002.625.032.936h7.355c.538 0 .79.252.79.725 0 1.105-.759 2.275-1.42 2.275h-6a5.205 5.205 0 0 0 5.083 3.534c.99-.052 1.968-.243 2.905-.568a7.063 7.063 0 0 1 1.673-.347c.728 0 1.106.347 1.106 1.01a3.448 3.448 0 0 1-1.453 2.936 9.671 9.671 0 0 1-4.545 1.01c-4.673 0-8.177-2.81-9.534-7.575h-1.231a.68.68 0 0 1-.442-.19 2.312 2.312 0 0 1-.98-1.483c0-.633 1.075-1.327 2.051-1.327h.28a6.194 6.194 0 0 1-.031-.936 8.15 8.15 0 0 1 .031-1.064h-.47a.68.68 0 0 1-.443-.19 2.311 2.311 0 0 1-.98-1.483c0-.633 1.072-1.327 2.052-1.327h.442c1.643-4.64 5.398-7.514 9.786-7.514a9.385 9.385 0 0 1 5.116 1.483c.295.184.474.507.473.854a3.49 3.49 0 0 1-1.01 2.493 1.27 1.27 0 0 1-.885.412 1.308 1.308 0 0 1-.599-.19 6.65 6.65 0 0 0-3.22-1.01c-2.242 0-3.947 1.166-5.083 3.472Z" fill="#222"/></svg>