<svg width="64" height="64" fill="none" xmlns="http://www.w3.org/2000/svg"><path fill-rule="evenodd" clip-rule="evenodd" d="M52.491 10.872a3.986 3.986 0 0 0-3.391-.768l-22 5.077a3.981 3.981 0 0 0-3.1 3.897V38.84a9.755 9.755 0 0 0-5-1.353c-4.963 0-9 3.59-9 8 0 4.412 4.037 8 9 8s9-3.588 9-8V19.08l22-5.078v18.84a9.755 9.755 0 0 0-5-1.354c-4.963 0-9 3.59-9 8 0 4.412 4.037 8 9 8s9-3.588 9-8V14.001a3.977 3.977 0 0 0-1.509-3.129ZM19 49.487c-2.757 0-5-1.794-5-4s2.243-4 5-4 5 1.794 5 4-2.243 4-5 4Zm21-10c0 2.206 2.243 4 5 4s5-1.794 5-4-2.243-4-5-4-5 1.794-5 4Z" fill="#222"/></svg>