<svg width="64" height="64" fill="none" xmlns="http://www.w3.org/2000/svg"><path fill-rule="evenodd" clip-rule="evenodd" d="m51.428 11.676 1.749-2.137a2.167 2.167 0 1 0-3.354-2.744l-13.49 16.487v-9.885a4.333 4.333 0 0 0-7.397-3.064L18.103 21.167h-3.436A8.677 8.677 0 0 0 6 29.833v4.334a8.677 8.677 0 0 0 8.667 8.666h3.436l1.228 1.23-8.508 10.398a2.167 2.167 0 1 0 3.354 2.745l8.234-10.064 6.525 6.525a4.333 4.333 0 0 0 7.397-3.064V30.125l6.276-7.67A19.239 19.239 0 0 1 45 32c.118 4.19-1.23 8.29-3.813 11.59a2.167 2.167 0 0 0 3.293 2.82A22.356 22.356 0 0 0 49.333 32a23.054 23.054 0 0 0-3.832-13.079l3.11-3.803A28.806 28.806 0 0 1 53.668 32c0 7.059-2.18 13.652-5.98 18.09a2.167 2.167 0 0 0 3.293 2.82C55.44 47.696 58 40.075 58 32c0-7.79-2.4-15.134-6.572-20.324ZM19.898 38.5h-5.231a4.338 4.338 0 0 1-4.334-4.333v-4.334a4.338 4.338 0 0 1 4.334-4.333h5.23L32 13.397v15.181l-9.911 12.114-2.192-2.192ZM32 50.603l-6.832-6.831L32 35.422v15.181Z" fill="#222"/></svg>