<svg width="64" height="64" fill="none" xmlns="http://www.w3.org/2000/svg"><path fill-rule="evenodd" clip-rule="evenodd" d="M53.95 39.964a5.95 5.95 0 0 0-3.159.909l-6.35-5.08c2.254-4.03 1.977-9-.711-12.754l4.17-4.17a8.02 8.02 0 1 0-2.825-2.826l-4.17 4.17a11.92 11.92 0 0 0-14.726.668l-10.57-8.809a6.014 6.014 0 1 0-2.56 3.07l10.572 8.809a11.774 11.774 0 0 0-1.434 8.182l-3.611 1.313a7.984 7.984 0 1 0 1.369 3.755l3.61-1.313a12.037 12.037 0 0 0 6.503 5.406l-1.127 6.759a5.99 5.99 0 1 0 3.942.655l1.124-6.747a11.925 11.925 0 0 0 7.94-3.054l6.357 5.085a5.99 5.99 0 1 0 5.656-4.028Zm-41.958 1.998a3.996 3.996 0 1 1 0-7.992 3.996 3.996 0 0 1 0 7.992Zm39.96-33.966a3.996 3.996 0 1 1 0 7.992 3.996 3.996 0 0 1 0-7.992ZM9.994 11.992a1.998 1.998 0 1 1 0-3.996 1.998 1.998 0 0 1 0 3.996Zm19.98 43.956a1.998 1.998 0 1 1 0-3.996 1.998 1.998 0 0 1 0 3.996Zm3.996-17.982a7.992 7.992 0 1 1 7.992-7.992 8.001 8.001 0 0 1-7.992 7.992Zm19.98 9.99a1.998 1.998 0 1 1 0-3.996 1.998 1.998 0 0 1 0 3.996Z" fill="#222"/></svg>