<svg width="64" height="64" fill="none" xmlns="http://www.w3.org/2000/svg"><path d="M49.86 31.712a16.11 16.11 0 0 0-11.413-10.547 13 13 0 1 0-23.557.006A16.015 16.015 0 0 0 2.667 36.702v4a8.01 8.01 0 0 0 8 8h20.59a13.997 13.997 0 1 0 18.603-16.99ZM26.667 6.702a9 9 0 1 1-9 9 9.01 9.01 0 0 1 9-9Zm-16 38a4.004 4.004 0 0 1-4-4v-4a12.015 12.015 0 0 1 10.707-11.928 12.959 12.959 0 0 0 18.58.007 12.106 12.106 0 0 1 9.11 5.941c-.133-.004-.263-.02-.397-.02a14.016 14.016 0 0 0-14 14h-20Zm34 10a10 10 0 1 1 10-10 10.012 10.012 0 0 1-10 10Zm7-10a2 2 0 0 1-2 2h-3v3a2 2 0 0 1-4 0v-3h-3a2 2 0 1 1 0-4h3v-3a2 2 0 0 1 4 0v3h3a2 2 0 0 1 2 2Z" fill="#222"/></svg>