<svg width="64" height="64" fill="none" xmlns="http://www.w3.org/2000/svg"><path d="M36 36a2 2 0 0 1-2 2H18a2 2 0 0 1 0-4h16a2 2 0 0 1 2 2Zm-2 6H18a2 2 0 0 0 0 4h16a2 2 0 0 0 0-4Zm2-24v10a2 2 0 0 1-2 2H18a2 2 0 0 1-2-2V18a2 2 0 0 1 2-2h16a2 2 0 0 1 2 2Zm-4 2H20v6h12v-6Zm24 2v28a8.01 8.01 0 0 1-8 8H16a8.01 8.01 0 0 1-8-8V10a4.004 4.004 0 0 1 4-4h28a4.004 4.004 0 0 1 4 4v8h8a4.005 4.005 0 0 1 4 4ZM41.083 54A7.94 7.94 0 0 1 40 50V10H12v40a4.005 4.005 0 0 0 4 4h25.083ZM52 22h-8v28a4 4 0 1 0 8 0V22Z" fill="#222"/></svg>