<svg width="64" height="64" fill="none" xmlns="http://www.w3.org/2000/svg"><path d="M58.299 33.47a6.422 6.422 0 0 0-8.3-.613V26a4.004 4.004 0 0 0 4-4v-6a4.005 4.005 0 0 0-4-4h-2a7.989 7.989 0 0 0-14-5.274A7.99 7.99 0 0 0 20 12h-2a4.004 4.004 0 0 0-4 4v6a4.004 4.004 0 0 0 4 4v8.09a3.97 3.97 0 0 0-2 1.082l-10 10a4.004 4.004 0 0 0 0 5.656L13.173 58a4.003 4.003 0 0 0 5.656 0l2-2h22.344A3.972 3.972 0 0 0 46 54.828L58.299 42.53a6.412 6.412 0 0 0 0-9.058Zm-12.3 2.753-2.282 1.957A6.01 6.01 0 0 0 38 34h-2v-8h10v10.223ZM50 16l.004 6H36v-6h14ZM40 8a4.004 4.004 0 0 1 4 4h-8a4.004 4.004 0 0 1 4-4ZM28 8a4.004 4.004 0 0 1 4 4h-8a4.004 4.004 0 0 1 4-4Zm-10 8h14v6H18v-6Zm14 10v8H22v-8h10Zm23.472 13.701L43.17 52h-24L16 55.172 8.828 48l10-10H38a2 2 0 0 1 .527 3.93c-.246.047-.496.07-.747.07H28a2 2 0 1 0 0 4h10a5.97 5.97 0 0 0 1.431-.173 8.01 8.01 0 0 0 3.556-1.753l9.217-7.9A2.405 2.405 0 0 1 55.47 39.7Z" fill="#222"/></svg>