<svg width="64" height="64" fill="none" xmlns="http://www.w3.org/2000/svg"><path fill-rule="evenodd" clip-rule="evenodd" d="M52 32h2a2 2 0 0 1 2 2v8a2 2 0 0 1-2 2h-8v6a2 2 0 0 1-4 0v-6H22v6a2 2 0 0 1-4 0v-6h-8a2 2 0 0 1-2-2v-8a2 2 0 0 1 2-2h6.39L8.3 19.06a2.003 2.003 0 1 1 3.4-2.12l8.44 13.5L22 9.82A2 2 0 0 1 24 8h2a2 2 0 1 1 4 0h2a2 2 0 0 1 2 1.82l2 22c.005.06.005.12 0 .18h2v-6a6 6 0 0 1 6-6h6a2 2 0 0 1 2 2v10Zm-9.414-7.414A2 2 0 0 0 42 26v6h6v-8h-4a2 2 0 0 0-1.414.586ZM30.53 16l-.36-4h-4.34l-.36 4h5.06Zm.73 8-.36-4h-5.8l-.36 4h6.52Zm.74 8-.37-4h-7.26L24 32h8Zm-20 8h40v-4H12v4Z" fill="#222"/><path d="M57.414 57.414A2 2 0 0 0 58 56a2 2 0 0 0-2.07-2.07c-1.86 0-3.01-.82-4.26-3a2.873 2.873 0 0 0-.33-.43 2 2 0 0 0-1.85-.52l-.19.05-.19.07-.18.09a2.873 2.873 0 0 0-.43.33c-.12.126-.225.267-.31.42-1.26 2.19-2.4 3-4.26 3-1.86 0-3.01-.82-4.26-3a2.873 2.873 0 0 0-.33-.43 2.07 2.07 0 0 0-.42-.31l-.24-.11-.24-.08a1.19 1.19 0 0 0-.26 0 1.737 1.737 0 0 0-.51 0 2.449 2.449 0 0 0-.37.08 1.99 1.99 0 0 0-.36.16 2.873 2.873 0 0 0-.43.33 2.07 2.07 0 0 0-.31.42c-1.26 2.19-2.4 3-4.26 3-1.86 0-3.01-.82-4.26-3a2.078 2.078 0 0 0-.54-.6 1.999 1.999 0 0 0-1.79-.3 1.99 1.99 0 0 0-.36.16 2.873 2.873 0 0 0-.43.33c-.12.126-.225.267-.31.42-1.26 2.19-2.4 3-4.26 3-1.86 0-3.01-.82-4.26-3a1.999 1.999 0 0 0-.74-.75 1.99 1.99 0 0 0-.36-.16 2.323 2.323 0 0 0-.38-.08 1.737 1.737 0 0 0-.51 0 2.449 2.449 0 0 0-.37.08 2 2 0 0 0-1.11.9C11 53.19 9.86 54 8 54a2 2 0 1 0 0 4 7.86 7.86 0 0 0 6-2.59A7.86 7.86 0 0 0 20 58a7.86 7.86 0 0 0 6-2.59A7.86 7.86 0 0 0 32 58a7.86 7.86 0 0 0 6-2.59 8.24 8.24 0 0 0 12 0A7.86 7.86 0 0 0 56 58a2 2 0 0 0 1.414-.586Z" fill="#222"/></svg>