<svg xmlns="http://www.w3.org/2000/svg" viewBox="0 0 64 64"><path d="M58,56a2,2,0,0,1-2,2,7.86,7.86,0,0,1-6-2.59,8.24,8.24,0,0,1-12,0A7.86,7.86,0,0,1,32,58a7.86,7.86,0,0,1-6-2.59A7.86,7.86,0,0,1,20,58a7.86,7.86,0,0,1-6-2.59A7.86,7.86,0,0,1,8,58a2,2,0,0,1,0-4c1.86,0,3-.81,4.26-3h0a2,2,0,0,1,.75-.74,2,2,0,0,1,.36-.16,2.45,2.45,0,0,1,.37-.08,1.74,1.74,0,0,1,.51,0,2.33,2.33,0,0,1,.38.08,2,2,0,0,1,.36.16h0a2,2,0,0,1,.74.75c1.25,2.18,2.4,3,4.26,3s3-.81,4.26-3a2.07,2.07,0,0,1,.31-.42,2.88,2.88,0,0,1,.43-.33h0a2,2,0,0,1,.36-.16,2.45,2.45,0,0,1,.37-.08,2,2,0,0,1,1,.14,1.76,1.76,0,0,1,.42.24,2.08,2.08,0,0,1,.54.6h0c1.25,2.18,2.4,3,4.26,3s3-.81,4.26-3a2.07,2.07,0,0,1,.31-.42,2.88,2.88,0,0,1,.43-.33h0a2,2,0,0,1,.36-.16,2.45,2.45,0,0,1,.37-.08,1.74,1.74,0,0,1,.51,0,1.19,1.19,0,0,1,.26,0l.24.08.24.11a2.07,2.07,0,0,1,.42.31,2.88,2.88,0,0,1,.33.43h0c1.25,2.18,2.4,3,4.26,3s3-.81,4.26-3a2.07,2.07,0,0,1,.31-.42,2.88,2.88,0,0,1,.43-.33l.18-.09.19-.07.19-.05a2,2,0,0,1,1.85.52,2.88,2.88,0,0,1,.33.43h0c1.25,2.18,2.4,3,4.26,3A2,2,0,0,1,58,56Z"/><path d="M54,32H52V22a2,2,0,0,0-2-2H44a6,6,0,0,0-6,6v6H36a1.09,1.09,0,0,0,0-.18l-2-22A2,2,0,0,0,32,8H30a2,2,0,0,0-4,0H24a2,2,0,0,0-2,1.82L20.14,30.44,11.7,16.94a2,2,0,0,0-3.4,2.12L16.39,32H10a2,2,0,0,0-2,2v8a2,2,0,0,0,2,2h8v6a2,2,0,0,0,4,0V44H42v6a2,2,0,0,0,4,0V44h8a2,2,0,0,0,2-2V34A2,2,0,0,0,54,32ZM42,26a2,2,0,0,1,2-2h4v8H42ZM25.83,12h4.34l.36,4H25.47Zm-.73,8h5.8l.36,4H24.74Zm-.73,8h7.26L32,32H24ZM52,40H12V36H52Z"/></svg>