<svg width="64" height="64" fill="none" xmlns="http://www.w3.org/2000/svg"><path fill-rule="evenodd" clip-rule="evenodd" d="M55.692 40.615h-6.461v-6.461a4.312 4.312 0 0 0-4.308-4.308h-10.77v-6.461h15.078a4.312 4.312 0 0 0 4.307-4.308V8.307A4.312 4.312 0 0 0 49.231 4H14.769a4.312 4.312 0 0 0-4.308 4.308v10.769a4.312 4.312 0 0 0 4.308 4.308h15.077v6.461h-10.77a4.312 4.312 0 0 0-4.307 4.308v6.461H8.307A4.312 4.312 0 0 0 4 44.923v10.77A4.312 4.312 0 0 0 8.308 60h15.077a4.312 4.312 0 0 0 4.307-4.308V44.923a4.312 4.312 0 0 0-4.307-4.308h-4.309v-6.461h25.847v6.461h-4.308a4.312 4.312 0 0 0-4.307 4.308v10.77A4.312 4.312 0 0 0 40.615 60h15.077A4.312 4.312 0 0 0 60 55.692V44.923a4.312 4.312 0 0 0-4.308-4.308ZM14.77 8.308h34.462v10.769H14.769V8.307Zm8.616 47.384H8.308V44.923h15.077v10.77Zm32.308 0H40.615V44.923h15.078v10.77Z" fill="#222"/></svg>