<svg width="64" height="64" fill="none" xmlns="http://www.w3.org/2000/svg"><path fill-rule="evenodd" clip-rule="evenodd" d="M56.745 39.273a16.597 16.597 0 0 0-12.667-16.096 13.473 13.473 0 1 0-24.41 0A16.597 16.597 0 0 0 7 39.273v4.145a8.3 8.3 0 0 0 8.29 8.291h8.292v2.073A6.225 6.225 0 0 0 29.8 60h20.727a6.225 6.225 0 0 0 6.218-6.218v-2.073a8.228 8.228 0 0 0-1.152-4.195 8.026 8.026 0 0 0 1.152-4.096v-4.145ZM31.873 8.183a9.327 9.327 0 1 1-9.328 9.326 9.337 9.337 0 0 1 9.327-9.327ZM15.29 47.562a4.15 4.15 0 0 1-4.146-4.145v-4.145a12.451 12.451 0 0 1 11.097-12.361 13.43 13.43 0 0 0 19.261 0A12.451 12.451 0 0 1 52.6 39.272v4.146c-.007.347-.063.69-.166 1.022a8.226 8.226 0 0 0-3.014-.96 9.327 9.327 0 1 0-18.513 0 8.297 8.297 0 0 0-6.204 4.084h-9.412Zm30.054-5.181a5.182 5.182 0 1 1-10.363 0 5.182 5.182 0 0 1 10.363 0Zm7.255 11.4a2.075 2.075 0 0 1-2.073 2.073H29.8a2.075 2.075 0 0 1-2.073-2.073v-2.073a4.15 4.15 0 0 1 4.145-4.145h.541a9.318 9.318 0 0 0 15.5 0h.541a4.15 4.15 0 0 1 4.146 4.145v2.073Z" fill="#222"/></svg>