<svg width="64" height="64" fill="none" xmlns="http://www.w3.org/2000/svg"><path d="M49.128 19.836c-.432-.295-.868-.559-1.303-.832l5.59-5.59a2 2 0 0 0-2.83-2.828l-6.4 6.401A28.26 28.26 0 0 0 32 14C16.919 14 4 28.582 4 32c0 2.104 4.898 8.434 12.178 12.993l-5.592 5.593a2 2 0 1 0 2.828 2.828l6.405-6.405A28.19 28.19 0 0 0 32 50c15.081 0 28-14.582 28-18 0-2.477-5.182-8.275-10.872-12.164ZM8.092 32C9.532 29.088 19.852 18 32 18a23.55 23.55 0 0 1 9.174 1.998l-2.232 2.232A11.98 11.98 0 0 0 22.23 38.942L19.073 42.1C13.17 38.609 8.97 33.779 8.092 32ZM40 32a7.984 7.984 0 0 1-12.056 6.884l6.378-6.378A1.996 1.996 0 0 0 38.25 32c0-.957-.231-1.9-.673-2.75l1.307-1.306A7.94 7.94 0 0 1 40 32Zm-16 0a7.985 7.985 0 0 1 12.056-6.884l-1.394 1.394A5.96 5.96 0 0 0 32.25 26a1.995 1.995 0 0 0-.87 3.793l-6.264 6.263A7.939 7.939 0 0 1 24 32Zm8 14a23.5 23.5 0 0 1-9.175-1.997l2.233-2.233A11.98 11.98 0 0 0 41.77 25.058l3.156-3.156c.7.415 1.353.832 1.945 1.237a32.513 32.513 0 0 1 9.032 8.873C54.441 34.942 44.133 46 32 46Z" fill="#222"/></svg>