<svg width="64" height="64" fill="none" xmlns="http://www.w3.org/2000/svg"><path d="M32 20a12 12 0 1 0 12 12 12.013 12.013 0 0 0-12-12Zm0 20a8 8 0 1 1 8-8 8.01 8.01 0 0 1-8 8Zm6.25-8a2 2 0 0 1-4 0 2.003 2.003 0 0 0-2-2 2 2 0 0 1 0-4 6.006 6.006 0 0 1 6 6Zm10.878-12.164C43.54 16.018 37.618 14 32 14 16.919 14 4 28.582 4 32c0 3.418 12.919 18 28 18s28-14.582 28-18c0-2.477-5.182-8.275-10.872-12.164ZM32 46C19.852 46 9.531 34.912 8.092 32 9.532 29.088 19.852 18 32 18c6.075 0 11.44 2.794 14.871 5.139a32.513 32.513 0 0 1 9.032 8.873C54.441 34.942 44.133 46 32 46Z" fill="#222"/></svg>