<svg width="64" height="64" fill="none" xmlns="http://www.w3.org/2000/svg"><path fill-rule="evenodd" clip-rule="evenodd" d="M3.962 10.97a7.003 7.003 0 0 1 7.007-7.007h41.986c3.87 0 7.007 3.13 7.007 7.007v41.985a7.004 7.004 0 0 1-7.007 7.008H10.97a7.004 7.004 0 0 1-7.007-7.008V10.97Zm3.5 0v41.985a3.504 3.504 0 0 0 3.507 3.508h41.986a3.504 3.504 0 0 0 3.507-3.508V10.97a3.503 3.503 0 0 0-3.507-3.507H10.97a3.503 3.503 0 0 0-3.507 3.507Zm20.759 25.206c1.158 2.704 3.102 4.055 5.83 4.055.795 0 1.906-.217 3.33-.65.87-.267 1.51-.4 1.92-.4.844 0 1.267.386 1.267 1.159 0 .7-.15 1.358-.453 1.974-.302.614-.706 1.08-1.213 1.394-.579.337-1.34.615-2.281.832-.942.218-1.92.326-2.933.326-2.679 0-4.978-.766-6.897-2.3-1.92-1.532-3.265-3.663-4.037-6.39h-1.412c-.169 0-.344-.066-.525-.199-.182-.133-.416-.368-.707-.705-.265-.339-.398-.677-.398-1.014 0-.363.254-.707.761-1.033.506-.325 1.037-.489 1.593-.489h.217c-.024-.144-.037-.494-.037-1.05 0-.627.013-1.025.037-1.194h-.434c-.17 0-.345-.067-.525-.2-.181-.132-.417-.367-.706-.706-.266-.337-.4-.675-.4-1.013 0-.362.255-.706.761-1.032a2.899 2.899 0 0 1 1.594-.489h.506c.942-2.655 2.42-4.755 4.436-6.3 2.016-1.544 4.278-2.317 6.789-2.317 2.124 0 4.079.567 5.865 1.701.363.242.543.567.543.978a4.02 4.02 0 0 1-.344 1.647c-.228.52-.506.93-.833 1.231-.325.302-.657.453-.995.453-.194 0-.422-.072-.688-.217-1.351-.772-2.583-1.159-3.693-1.159-2.583 0-4.526 1.328-5.83 3.983h8.763c.603 0 .904.278.904.833 0 .628-.175 1.218-.525 1.774-.35.555-.717.833-1.103.833h-9.016c-.024.169-.036.567-.036 1.194 0 .556.012.906.036 1.05h8.472c.604 0 .905.278.905.833 0 .628-.175 1.22-.525 1.775-.35.555-.717.832-1.103.832h-6.88Z" fill="#222"/></svg>