<svg width="64" height="64" fill="none" xmlns="http://www.w3.org/2000/svg"><path fill-rule="evenodd" clip-rule="evenodd" d="M4 12a8 8 0 0 1 8-8h40a8 8 0 0 1 8 8v40a8 8 0 0 1-8 8H12a8 8 0 0 1-8-8V12Zm8-4a4 4 0 0 0-4 4v40a4 4 0 0 0 4 4h40a4 4 0 0 0 4-4V12a4 4 0 0 0-4-4H12Z" fill="#222"/><path fill-rule="evenodd" clip-rule="evenodd" d="M15.44 48.56a1.5 1.5 0 0 1 0-2.12l31-31a1.5 1.5 0 0 1 2.12 2.12l-31 31a1.5 1.5 0 0 1-2.12 0Z" fill="#222"/><path d="M22.5 25.5c.42 0 .9-.74.9-1.44 0-.3-.16-.46-.5-.46h-4.68c-.02-.08-.02-.28-.02-.58 0-.34 0-.56.02-.66h4.98c.42 0 .9-.74.9-1.44 0-.3-.16-.46-.5-.46h-4.84c.72-1.46 1.8-2.2 3.22-2.2.62 0 1.3.22 2.04.64.14.08.28.12.38.12.18 0 .38-.08.56-.26.36-.32.64-.94.64-1.58 0-.22-.1-.4-.3-.54-.98-.62-2.06-.94-3.24-.94-2.78 0-5.16 1.82-6.2 4.76h-.28c-.62 0-1.3.44-1.3.84 0 .38.42.8.62.94.1.08.18.12.28.12h.24c-.02.1-.02.32-.02.66 0 .3 0 .5.02.58h-.12c-.62 0-1.3.44-1.3.84 0 .38.42.8.62.94.1.08.18.12.28.12h.78c.86 3.02 3.08 4.8 6.04 4.8 1.12 0 2.24-.26 2.88-.64.56-.34.92-1.08.92-1.86 0-.42-.24-.64-.7-.64-.22 0-.58.08-1.06.22-.78.24-1.4.36-1.84.36-1.5 0-2.58-.74-3.22-2.24h3.8ZM39.744 48.696c.24.272.48.4.688.4.512 0 1.008-.816 1.008-1.648 0-.176-.048-.304-.144-.4L37.184 43l3.344-3.088c.432-.384.688-1.04.688-1.632 0-.384-.208-.576-.64-.576-.496 0-1.008.208-1.376.544l-3.888 3.6V38.28c0-.384-.208-.576-.624-.576-.784 0-1.6.528-1.6 1.04v9.072c0 .304.544 1.28 1.104 1.28s1.12-.864 1.12-1.744v-3.136l4.432 4.48ZM49.369 48.696c.24.272.48.4.688.4.512 0 1.008-.816 1.008-1.648 0-.176-.048-.304-.144-.4L46.809 43l3.344-3.088c.432-.384.688-1.04.688-1.632 0-.384-.208-.576-.64-.576-.496 0-1.008.208-1.376.544l-3.888 3.6V38.28c0-.384-.208-.576-.624-.576-.784 0-1.6.528-1.6 1.04v9.072c0 .304.544 1.28 1.104 1.28s1.12-.864 1.12-1.744v-3.136l4.432 4.48Z" fill="#222"/></svg>