<svg width="64" height="64" fill="none" xmlns="http://www.w3.org/2000/svg"><path fill-rule="evenodd" clip-rule="evenodd" d="M56 30.836V16a8.01 8.01 0 0 0-8-8H12a8.01 8.01 0 0 0-8 8v20a8.01 8.01 0 0 0 8 8h18.302A14.997 14.997 0 1 0 56 30.836ZM12 12h36a4.004 4.004 0 0 1 4 4v2H8v-2a4.004 4.004 0 0 1 4-4ZM8 36V22h44v5.743A14.97 14.97 0 0 0 30.05 40H12a4.004 4.004 0 0 1-4-4Zm37 16c-6.075 0-11-4.925-11-11s4.925-11 11-11 11 4.925 11 11c-.007 6.072-4.928 10.993-11 11Zm6.664-13.89-6 8.999a1.998 1.998 0 0 1-3.078.305l-4-4a2 2 0 1 1 2.828-2.828l2.275 2.274 4.647-6.97a2 2 0 1 1 3.328 2.22Z" fill="#222"/></svg>