<svg width="64" height="64" fill="none" xmlns="http://www.w3.org/2000/svg"><path d="M53.998 40a5.981 5.981 0 0 0-4.293 1.817l-4.638-2.141a17.899 17.899 0 0 0-5.903-19.768l2.533-4.054a6.016 6.016 0 1 0-3.389-2.122l-2.536 4.058a17.966 17.966 0 0 0-21.208 28.148l-2.27 2.52a6.002 6.002 0 1 0 2.974 2.677l2.266-2.518a17.92 17.92 0 0 0 25.845-5.315l4.647 2.144A6 6 0 1 0 53.998 40Zm-11-32a2 2 0 1 1 0 4 2 2 0 0 1 0-4Zm-15 12a13.998 13.998 0 0 1 12.89 19.462c-.078-.153-.142-.314-.229-.463a10.019 10.019 0 0 0-5.127-4.333 7.999 7.999 0 1 0-15.07-.008 10.043 10.043 0 0 0-5.358 4.794A14 14 0 0 1 27.998 20Zm0 16a4 4 0 1 1 0-8 4 4 0 0 1 0 8Zm-18 20a2 2 0 1 1 0-4 2 2 0 0 1 0 4Zm18-8a13.953 13.953 0 0 1-9.99-4.21 6.005 6.005 0 0 1 4.841-5.677 7.97 7.97 0 0 0 10.288.01 5.94 5.94 0 0 1 4.848 5.671A13.952 13.952 0 0 1 27.998 48Zm26 0a2 2 0 1 1 0-4.001 2 2 0 0 1 0 4.001Z" fill="#222"/></svg>