<svg width="64" height="65" fill="none" xmlns="http://www.w3.org/2000/svg"><path fill-rule="evenodd" clip-rule="evenodd" d="M60.166 30.333V26a10.842 10.842 0 0 0-7.002-10.12 8.667 8.667 0 1 0-16.329 0A10.87 10.87 0 0 0 32 19.527a10.869 10.869 0 0 0-4.836-3.649 8.667 8.667 0 1 0-16.329 0A10.842 10.842 0 0 0 3.833 26v4.334a6.507 6.507 0 0 0 6.5 6.5c.002.982.172 1.956.502 2.88a10.842 10.842 0 0 0-7.002 10.12v4.334a6.507 6.507 0 0 0 6.5 6.5h17.333A6.466 6.466 0 0 0 32 58.997a6.466 6.466 0 0 0 4.333 1.67h17.333a6.507 6.507 0 0 0 6.5-6.5v-4.334a10.842 10.842 0 0 0-7.002-10.12c.33-.924.5-1.898.502-2.88a6.507 6.507 0 0 0 6.5-6.5ZM45 8.667a4.333 4.333 0 1 1 0 8.666 4.333 4.333 0 0 1 0-8.666Zm-26 0a4.333 4.333 0 1 1 0 8.666 4.333 4.333 0 0 1 0-8.666Zm10.833 45.5a2.17 2.17 0 0 1-2.167 2.166H10.333a2.17 2.17 0 0 1-2.167-2.166v-4.334a6.509 6.509 0 0 1 5.255-6.377 8.634 8.634 0 0 0 11.157 0 6.509 6.509 0 0 1 5.255 6.377v4.334ZM14.666 36.833a4.333 4.333 0 1 1 8.667 0 4.333 4.333 0 0 1-8.667 0Zm41.167 13v4.334a2.17 2.17 0 0 1-2.167 2.166H36.333a2.17 2.17 0 0 1-2.167-2.166v-4.334a6.509 6.509 0 0 1 5.255-6.377 8.634 8.634 0 0 0 11.157 0 6.509 6.509 0 0 1 5.255 6.377Zm-15.167-13a4.333 4.333 0 1 1 8.667 0 4.333 4.333 0 0 1-8.667 0ZM52.494 32.5a8.654 8.654 0 0 0-15.659 7.213A10.87 10.87 0 0 0 32 43.36a10.87 10.87 0 0 0-4.836-3.648A8.656 8.656 0 0 0 11.506 32.5h-1.173a2.17 2.17 0 0 1-2.167-2.167V26a6.508 6.508 0 0 1 5.255-6.378 8.634 8.634 0 0 0 11.157 0A6.508 6.508 0 0 1 29.833 26v4.333a2.167 2.167 0 1 0 4.333 0V26a6.509 6.509 0 0 1 5.255-6.378 8.634 8.634 0 0 0 11.157 0A6.508 6.508 0 0 1 55.833 26v4.333a2.17 2.17 0 0 1-2.167 2.167h-1.172Z" fill="#222"/></svg>