<svg width="64" height="64" fill="none" xmlns="http://www.w3.org/2000/svg"><path d="M40.827 40a4.002 4.002 0 0 0-5.657 0L32 43.172 20.827 32l3.172-3.172a4.004 4.004 0 0 0 0-5.656L16.827 16a4.002 4.002 0 0 0-5.657 0l-1.272 1.273a18.019 18.019 0 0 0 0 25.454L21.271 54.1a18.02 18.02 0 0 0 25.455 0L48 52.828a4.004 4.004 0 0 0 0-5.656L40.827 40Zm3.071 11.273a14.015 14.015 0 0 1-19.799 0L12.726 39.9a14.017 14.017 0 0 1 0-19.8L14 18.829 21.17 26 18 29.172a4.004 4.004 0 0 0 0 5.656L29.17 46a4.002 4.002 0 0 0 5.656 0l3.172-3.172L45.17 50l-1.272 1.273ZM57.998 30a2 2 0 0 1-4 0 20.022 20.022 0 0 0-20-20 2 2 0 0 1 0-4 24.027 24.027 0 0 1 24 24Zm-8 0a2 2 0 0 1-4 0 12.013 12.013 0 0 0-12-12 2 2 0 0 1 0-4 16.018 16.018 0 0 1 16 16Zm-16-4a2 2 0 0 1 0-4 8.01 8.01 0 0 1 8 8 2 2 0 0 1-4 0 4.005 4.005 0 0 0-4-4Z" fill="#222"/></svg>