<svg width="64" height="64" fill="none" xmlns="http://www.w3.org/2000/svg"><path fill-rule="evenodd" clip-rule="evenodd" d="M46.655 50.135a2.053 2.053 0 1 1 4.106 0 2.053 2.053 0 0 1-4.106 0ZM60 19.339v34.902a4.11 4.11 0 0 1-4.106 4.106H41.523a4.11 4.11 0 0 1-4.107-4.106V39.87a2.053 2.053 0 1 1 4.107 0v2.053h14.37V19.339h-14.37v4.106a2.053 2.053 0 0 1-4.107 0V19.34a4.11 4.11 0 0 1 4.107-4.106h14.37A4.11 4.11 0 0 1 60 19.34Zm-4.106 26.69H41.523v8.212h14.37V46.03ZM37.444 29.62l-2.938-5.141a2.053 2.053 0 1 0-3.564 2.037l2.937 5.14h-7.93l.6-.6a2.053 2.053 0 1 0-2.902-2.904L19.54 32.26a2.032 2.032 0 0 0-.385.553 2.045 2.045 0 0 0-.174.488l-.004.013a2.054 2.054 0 0 0-.014.654c.02.18.064.357.13.526l.001.004.01.014c.069.159.159.308.266.444.03.038.058.074.09.11.028.032.05.067.08.097l4.106 4.106a2.053 2.053 0 0 0 2.903-2.903l-.602-.601h7.93a4.106 4.106 0 0 0 3.566-6.143Zm-22.61 2.037H8.105l4.178-7.313.601 1.803a2.053 2.053 0 0 0 3.896-1.299l-2.053-6.16c-.015-.043-.038-.08-.055-.122a1.58 1.58 0 0 0-.194-.366 2.018 2.018 0 0 0-.112-.156 2.024 2.024 0 0 0-.153-.164c-.04-.04-.079-.079-.123-.115a2.07 2.07 0 0 0-.212-.152c-.028-.018-.051-.04-.08-.057-.013-.007-.026-.01-.038-.017a2.043 2.043 0 0 0-.253-.112c-.04-.016-.08-.034-.12-.047a2.013 2.013 0 0 0-.262-.058c-.043-.007-.086-.018-.13-.023a2.009 2.009 0 0 0-.25-.005c-.051 0-.101-.002-.151.003-.072.008-.144.02-.215.037-.064.013-.128.024-.19.043-.02.006-.04.007-.06.014l-6.159 2.053a2.053 2.053 0 0 0 1.3 3.895l1.06-.353-3.79 6.634a4.106 4.106 0 0 0 3.565 6.143h6.727a2.053 2.053 0 1 0 0-4.106Zm9.922-15.966-1.06-.354a2.053 2.053 0 1 0-1.3 3.896l6.159 2.053c.02.007.039.004.058.01.18.055.366.085.554.09.013 0 .025.006.038.006.009 0 .017-.004.026-.004.186-.003.37-.032.549-.086l.443-.181c.039-.022.07-.052.107-.076.04-.027.078-.054.116-.083.148-.11.282-.24.396-.386.007-.01.012-.022.02-.032.109-.153.196-.32.259-.496.008-.022.024-.038.031-.06l2.053-6.16a2.053 2.053 0 0 0-3.895-1.298l-.601 1.803-4.152-7.265a4.105 4.105 0 0 0-7.13 0l-2.91 5.093a2.053 2.053 0 0 0 3.565 2.037l2.91-5.093 3.764 6.586Z" fill="#222"/></svg>