<svg width="64" height="64" fill="none" xmlns="http://www.w3.org/2000/svg"><path fill-rule="evenodd" clip-rule="evenodd" d="M38.406 4.017a3.983 3.983 0 0 0-3.034 1.01 4.028 4.028 0 0 0-1.319 2.978v21.943H55.99a4.039 4.039 0 0 0 2.984-1.321 3.95 3.95 0 0 0 1.01-3.031c-1.127-11.418-10.16-20.451-21.578-21.58Zm-.35 21.925-.038-17.937a20.045 20.045 0 0 1 17.974 17.937H38.055Zm5.9 10.017H28.042V20.045a4.037 4.037 0 0 0-1.339-3 3.951 3.951 0 0 0-3.057-.992C12.236 17.299 3.693 27.095 4.008 38.568c.316 11.474 9.386 20.784 20.847 21.401.393.021.784.032 1.173.031 11.248.003 20.695-8.464 21.92-19.645a3.951 3.951 0 0 0-.992-3.057 4.037 4.037 0 0 0-3-1.34ZM25.066 55.968c-9.368-.507-16.782-8.112-17.05-17.49-.27-9.377 6.697-17.395 16.02-18.437v15.918a4.011 4.011 0 0 0 4.008 4.007l15.922-.041c-1.06 9.508-9.346 16.543-18.9 16.043Z" fill="#222"/></svg>