<svg width="64" height="64" fill="none" xmlns="http://www.w3.org/2000/svg"><path d="M13 17.707c0 .85-.672 1.54-1.5 1.54s-1.5-.69-1.5-1.54c0-.85.672-1.54 1.5-1.54s1.5.69 1.5 1.54ZM18 17.707c0 .85-.672 1.54-1.5 1.54s-1.5-.69-1.5-1.54c0-.85.672-1.54 1.5-1.54s1.5.69 1.5 1.54Z" fill="#222"/><path fill-rule="evenodd" clip-rule="evenodd" d="M8 11a4 4 0 0 0-4 4v34a4 4 0 0 0 4 4h48a4 4 0 0 0 4-4V15a4 4 0 0 0-4-4H8Zm0 4h48v5.64H8V15Zm0 9.64V49h48V24.64H8Z" fill="#222"/><path fill-rule="evenodd" clip-rule="evenodd" d="M32 26a7 7 0 0 0-6.386 9.872A6.998 6.998 0 0 0 22 42v1a4 4 0 0 0 4 4h12a4 4 0 0 0 4-4v-1a6.998 6.998 0 0 0-3.614-6.128A7 7 0 0 0 32 26Zm-3 7a3 3 0 1 1 6 0 3 3 0 0 1-6 0Zm6.53 6.047A6.968 6.968 0 0 1 32 40a6.968 6.968 0 0 1-3.53-.953A3 3 0 0 0 26 42v1h12v-1a3 3 0 0 0-2.47-2.953Z" fill="#222"/></svg>