<svg width="64" height="64" fill="none" xmlns="http://www.w3.org/2000/svg"><path d="M52 32h-8.964l-.04-.21c.081-.057.158-.12.23-.188L50.828 24A3.975 3.975 0 0 0 52 21.172V20a4.005 4.005 0 0 0-4-4h-8.04l-1.685-8.755A4.004 4.004 0 0 0 34.348 4h-4.696a4.004 4.004 0 0 0-3.927 3.244L24.04 16H16a4.004 4.004 0 0 0-4 4v1.172A3.973 3.973 0 0 0 13.172 24l7.825 7.825-.034.175H12a4.004 4.004 0 0 0-4 4v1.172A3.973 3.973 0 0 0 9.172 40l8 8H16a4.004 4.004 0 0 0-4 4v4a4.004 4.004 0 0 0 4 4h32a4.004 4.004 0 0 0 4-4v-4a4.005 4.005 0 0 0-4-4h-1.172l8-8A3.975 3.975 0 0 0 56 37.172V36a4.005 4.005 0 0 0-4-4Zm-4-12v1.172l-5.91 5.91L40.73 20H48ZM29.652 8h4.696l1.538 8h-7.772l1.538-8Zm-2.308 12h9.31l2.309 12H25.036l2.308-12Zm-3.077 16h15.466l2.308 12H21.959l2.308-12ZM16 21.172V20h7.271l-1.362 7.081L16 21.172Zm-4 16V36h8.194l-1.51 7.855L12 37.172ZM48 52v4H16l-.003-4H48Zm4-14.828-6.683 6.683L43.806 36H52v1.172Z" fill="#222"/></svg>