<svg width="64" height="64" fill="none" xmlns="http://www.w3.org/2000/svg"><path d="M16 15a1 1 0 0 1 1-1h2a1 1 0 0 1 1 1v2a1 1 0 0 1-1 1h-2a1 1 0 0 1-1-1v-2ZM16 22a1 1 0 0 1 1-1h2a1 1 0 0 1 1 1v2a1 1 0 0 1-1 1h-2a1 1 0 0 1-1-1v-2ZM16 29a1 1 0 0 1 1-1h2a1 1 0 0 1 1 1v2a1 1 0 0 1-1 1h-2a1 1 0 0 1-1-1v-2ZM16 36a1 1 0 0 1 1-1h2a1 1 0 0 1 1 1v2a1 1 0 0 1-1 1h-2a1 1 0 0 1-1-1v-2ZM30 15a1 1 0 0 1 1-1h2a1 1 0 0 1 1 1v2a1 1 0 0 1-1 1h-2a1 1 0 0 1-1-1v-2ZM23 15a1 1 0 0 1 1-1h2a1 1 0 0 1 1 1v2a1 1 0 0 1-1 1h-2a1 1 0 0 1-1-1v-2ZM23 22a1 1 0 0 1 1-1h2a1 1 0 0 1 1 1v2a1 1 0 0 1-1 1h-2a1 1 0 0 1-1-1v-2ZM23 29a1 1 0 0 1 1-1h2a1 1 0 0 1 1 1v2a1 1 0 0 1-1 1h-2a1 1 0 0 1-1-1v-2ZM23 36a1 1 0 0 1 1-1h2a1 1 0 0 1 1 1v2a1 1 0 0 1-1 1h-2a1 1 0 0 1-1-1v-2Z" fill="#222"/><path fill-rule="evenodd" clip-rule="evenodd" d="M8 8a4 4 0 0 1 4-4h26a4 4 0 0 1 4 4v9.01c.166-.007.333-.01.5-.01C49.956 17 56 23.044 56 30.5S49.956 44 42.5 44c-.167 0-.334-.003-.5-.01V56a4 4 0 0 1-4 4H12a4 4 0 0 1-4-4V8Zm30 35.232c-5.243-1.853-9-6.854-9-12.732 0-5.878 3.757-10.879 9-12.732V8H12v48h7v-9a2 2 0 0 1 2-2h8a2 2 0 0 1 2 2v9h7V43.232ZM27 56h-4v-7h4v7Zm6-25.5a9.5 9.5 0 1 1 19 0 9.5 9.5 0 0 1-19 0Z" fill="#222"/><path d="M45.022 35c.14 0 .28-.07.434-.196.28-.266.504-.77.504-1.274 0-.322-.168-.49-.518-.49h-3.64v-7.42c0-.336-.182-.504-.546-.504-.686 0-1.4.462-1.4.91v7.854c0 .266.476 1.12.966 1.12h4.2Z" fill="#222"/></svg>