<svg width="64" height="64" fill="none" xmlns="http://www.w3.org/2000/svg"><path fill-rule="evenodd" clip-rule="evenodd" d="M56 17h-8.061A8.99 8.99 0 0 0 32 10.356 8.993 8.993 0 0 0 16.056 17H8a3.848 3.848 0 0 0-4 3.668v6.666A3.848 3.848 0 0 0 8 31v18a8.01 8.01 0 0 0 8 8h32a8.01 8.01 0 0 0 8-8V31a3.848 3.848 0 0 0 4-3.666v-6.666A3.848 3.848 0 0 0 56 17Zm-17-6a4.972 4.972 0 0 1 4.893 6h-9.781A4.953 4.953 0 0 1 39 11Zm-19 5a5 5 0 1 1 9.889 1h-9.784A5.03 5.03 0 0 1 20 16Zm10 5v6H8v-6h22ZM12 49V31h18v22H16a4.004 4.004 0 0 1-4-4Zm40 0a4.004 4.004 0 0 1-4 4H34V31h18v18ZM34 27v-6h22v6H34Z" fill="#222"/></svg>