<svg width="64" height="64" fill="none" xmlns="http://www.w3.org/2000/svg"><path fill-rule="evenodd" clip-rule="evenodd" d="M58.72 13.42A4 4 0 0 0 55.66 12h-3.827V8a4.004 4.004 0 0 0-4-4h-32a4.004 4.004 0 0 0-4 4v4H8.006a4.006 4.006 0 0 0-3.952 4.661 16.097 16.097 0 0 0 10.28 12.35 20.414 20.414 0 0 0 11.5 10.009V42c.002.1.012.199.03.297a1.99 1.99 0 0 0-.024.23 18.937 18.937 0 0 0-11.39 12.347A4.004 4.004 0 0 0 18.297 60H45.37a4.003 4.003 0 0 0 3.846-5.125 18.903 18.903 0 0 0-11.383-12.338 1.984 1.984 0 0 0-.027-.268 1.98 1.98 0 0 0 .027-.269v-2.981a20.2 20.2 0 0 0 11.48-10.001 16.096 16.096 0 0 0 10.3-12.357 3.985 3.985 0 0 0-.894-3.241ZM8.001 16h3.831v2.741c0 .688.037 1.37.098 2.047.005.059.008.118.014.177.06.615.152 1.224.263 1.83.022.123.043.246.067.369l.03.162A12.01 12.01 0 0 1 8.002 16ZM45.37 56l-27.084.006a14.874 14.874 0 0 1 8.916-9.719 4 4 0 0 0 2.631-3.75 1.992 1.992 0 0 0-.027-.27c.015-.088.024-.177.027-.267v-2.108a17.84 17.84 0 0 0 4-.01V42c.003.09.012.18.027.269a1.982 1.982 0 0 0-.027.268 3.997 3.997 0 0 0 2.63 3.75A14.843 14.843 0 0 1 45.37 56Zm2.463-37.26a18.156 18.156 0 0 1-1.742 7.796A15.85 15.85 0 0 1 31.833 36a15.933 15.933 0 0 1-14.279-9.516 18.387 18.387 0 0 1-.789-1.994c-.157-.475-.29-.956-.407-1.44-.04-.166-.083-.33-.118-.496a18.067 18.067 0 0 1-.228-1.377c-.024-.177-.057-.35-.075-.529a18.538 18.538 0 0 1-.104-1.9V8h32v10.74Zm3.529 4.586c.035-.166.06-.334.091-.5.032-.175.067-.349.095-.524.036-.223.064-.448.093-.673.022-.168.047-.334.065-.502.027-.257.045-.515.063-.773.01-.138.025-.275.032-.413.021-.399.032-.799.032-1.2V16h3.828l.006.001a12.018 12.018 0 0 1-4.305 7.325ZM24.596 16.95a2.292 2.292 0 0 1-.431-1.065c0-.536.45-1.016 1.352-1.438l5.928-2.677c.4-.172.83-.26 1.266-.259.749 0 1.123.346 1.123 1.036v16.317a3.893 3.893 0 0 1-.633 2.159c-.26.543-.783.913-1.382.978-.48 0-.978-.374-1.496-1.122a2.42 2.42 0 0 1-.49-1.18V16.316l-3.395 1.554c-.144.07-.3.11-.46.115-.48 0-.94-.345-1.382-1.036Z" fill="#222"/></svg>