<svg width="64" height="64" fill="none" xmlns="http://www.w3.org/2000/svg"><path d="M22 42a2 2 0 0 1 2-2h16a2 2 0 1 1 0 4H24a2 2 0 0 1-2-2ZM24 47a2 2 0 1 0 0 4h16a2 2 0 1 0 0-4H24Z" fill="#222"/><path fill-rule="evenodd" clip-rule="evenodd" d="M56 25h-4v-6.172A4 4 0 0 0 50.828 16L40 5.172A4 4 0 0 0 37.172 4H20a8 8 0 0 0-8 8v13H8a4 4 0 0 0-4 4v17a4 4 0 0 0 4 4h4v6a4 4 0 0 0 4 4h28a8 8 0 0 0 8-8v-2h4a4 4 0 0 0 4-4V29a4 4 0 0 0-4-4ZM16 12a4 4 0 0 1 4-4h16v8a4 4 0 0 0 4 4h8v5H16V12Zm24 4v-5.172L45.172 16H40ZM12 46H8V29h48v17h-4V33H12v13Zm4-9v19h28a4 4 0 0 0 4-4V37H16Z" fill="#222"/></svg>