<?xml version="1.0" encoding="UTF-8"?>
<svg width="64px" height="64px" viewBox="0 0 64 64" version="1.1" xmlns="http://www.w3.org/2000/svg" xmlns:xlink="http://www.w3.org/1999/xlink">
    <title>Icons/product-bankid-mobile</title>
    <g id="Icons/product-bankid-mobile" stroke="none" stroke-width="1" fill="none" fill-rule="evenodd">
        <path d="M40,4 C44.418278,4 48,7.581722 48,12 L48,12 L48,52 C48,56.418278 44.418278,60 40,60 L40,60 L24,60 C19.581722,60 16,56.418278 16,52 L16,52 L16,12 C16,7.581722 19.581722,4 24,4 L24,4 Z M44,48 L20,48 L20,52 C20,54.209139 21.790861,56 24,56 L24,56 L40,56 C42.209139,56 44,54.209139 44,52 L44,52 L44,48 Z M32,50 C33.1045695,50 34,50.8954305 34,52 C34,53.1045695 33.1045695,54 32,54 C30.8954305,54 30,53.1045695 30,52 C30,50.8954305 30.8954305,50 32,50 Z M40,8 L24,8 C21.790861,8 20,9.790861 20,12 L20,12 L20,44 L44,44 L44,12 C44,9.790861 42.209139,8 40,8 L40,8 Z M41,31 C41.5522847,31 42,31.4477153 42,32 C42,32.5522847 41.5522847,33 41,33 L37,33 C36.4477153,33 36,32.5522847 36,32 C36,31.4477153 36.4477153,31 37,31 L41,31 Z M34,31 C34.5522847,31 35,31.4477153 35,32 C35,32.5522847 34.5522847,33 34,33 L30,33 C29.4477153,33 29,32.5522847 29,32 C29,31.4477153 29.4477153,31 30,31 L34,31 Z M27,31 C27.5522847,31 28,31.4477153 28,32 C28,32.5522847 27.5522847,33 27,33 L23,33 C22.4477153,33 22,32.5522847 22,32 C22,31.4477153 22.4477153,31 23,31 L27,31 Z M34,27 C34.5522847,27 35,27.4477153 35,28 C35,28.5522847 34.5522847,29 34,29 L30,29 C29.4477153,29 29,28.5522847 29,28 C29,27.4477153 29.4477153,27 30,27 L34,27 Z M27,27 C27.5522847,27 28,27.4477153 28,28 C28,28.5522847 27.5522847,29 27,29 L23,29 C22.4477153,29 22,28.5522847 22,28 C22,27.4477153 22.4477153,27 23,27 L27,27 Z M41,23 C41.5522847,23 42,23.4477153 42,24 C42,24.5522847 41.5522847,25 41,25 L37,25 C36.4477153,25 36,24.5522847 36,24 C36,23.4477153 36.4477153,23 37,23 L41,23 Z M34,23 C34.5522847,23 35,23.4477153 35,24 C35,24.5522847 34.5522847,25 34,25 L30,25 C29.4477153,25 29,24.5522847 29,24 C29,23.4477153 29.4477153,23 30,23 L34,23 Z M41,19 C41.5522847,19 42,19.4477153 42,20 C42,20.5522847 41.5522847,21 41,21 L37,21 C36.4477153,21 36,20.5522847 36,20 C36,19.4477153 36.4477153,19 37,19 L41,19 Z M27,19 C27.5522847,19 28,19.4477153 28,20 C28,20.5522847 27.5522847,21 27,21 L23,21 C22.4477153,21 22,20.5522847 22,20 C22,19.4477153 22.4477153,19 23,19 L27,19 Z" id="Combined-Shape" fill="#222222"></path>
    </g>
</svg>