<svg xmlns="http://www.w3.org/2000/svg" viewBox="0 0 64 64"><g id="Workspace"><path d="M32,10A22,22,0,1,1,10,32,22,22,0,0,1,32,10m0-4A26,26,0,1,0,58,32,26,26,0,0,0,32,6Z"/><path d="M32.18,36.5a1.9,1.9,0,0,1-1.25.68c-.59,0-1.16-.42-1.7-1.25a3.2,3.2,0,0,1-.54-1.35,1.42,1.42,0,0,1,.39-.89L32.53,30a12.91,12.91,0,0,0,1.75-2.28,3.93,3.93,0,0,0,.53-1.89A2.32,2.32,0,0,0,34,24.08a2.87,2.87,0,0,0-2-.71,3.68,3.68,0,0,0-1.93.54,9.37,9.37,0,0,0-2,1.81,5.8,5.8,0,0,1-.87.85,1,1,0,0,1-.63.22c-.57,0-1.11-.4-1.63-1.21a2.82,2.82,0,0,1-.54-1.32,1.71,1.71,0,0,1,.36-.92,9.21,9.21,0,0,1,3.34-3,9,9,0,0,1,4.34-1.12,7.85,7.85,0,0,1,3.72.85,6.34,6.34,0,0,1,2.51,2.29,6,6,0,0,1,.89,3.22,6.85,6.85,0,0,1-.82,3.22,20.08,20.08,0,0,1-2.92,3.83Zm-.89,8.32c-.69,0-1.37-.5-2-1.52a3.23,3.23,0,0,1-.67-1.68q0-.91,1.26-1.74a4.87,4.87,0,0,1,2.72-.82c1,0,1.56.48,1.56,1.43a5.28,5.28,0,0,1-.44,2.13,4.65,4.65,0,0,1-1.09,1.62A1.92,1.92,0,0,1,31.29,44.82Z"/></g></svg>