<svg width="64" height="64" fill="none" xmlns="http://www.w3.org/2000/svg"><path fill-rule="evenodd" clip-rule="evenodd" d="M18 13a2 2 0 0 1 2-2h8a2 2 0 1 1 0 4h-8a2 2 0 0 1-2-2ZM18 27a2 2 0 0 1 2-2h8a2 2 0 1 1 0 4h-8a2 2 0 0 1-2-2ZM18 41a2 2 0 0 1 2-2h8a2 2 0 1 1 0 4h-8a2 2 0 0 1-2-2Z" fill="#222"/><path fill-rule="evenodd" clip-rule="evenodd" d="M20 4a8 8 0 0 0-8 8v40a8 8 0 0 0 8 8h24a8 8 0 0 0 8-8V12a8 8 0 0 0-8-8H20Zm28 42V36H16v10h32Zm-32 4v2a4 4 0 0 0 4 4h24a4 4 0 0 0 4-4v-2H16Zm32-28v10H16V22h32ZM16 12a4 4 0 0 1 4-4h24a4 4 0 0 1 4 4v6H16v-6Z" fill="#222"/><path d="M38 13a2 2 0 1 1-4 0 2 2 0 0 1 4 0ZM38 27a2 2 0 1 1-4 0 2 2 0 0 1 4 0ZM38 41a2 2 0 1 1-4 0 2 2 0 0 1 4 0ZM44 13a2 2 0 1 1-4 0 2 2 0 0 1 4 0ZM44 27a2 2 0 1 1-4 0 2 2 0 0 1 4 0ZM44 41a2 2 0 1 1-4 0 2 2 0 0 1 4 0Z" fill="#222"/></svg>