<svg width="64" height="64" fill="none" xmlns="http://www.w3.org/2000/svg"><path d="M24 28a4 4 0 1 0 0 8 4 4 0 0 0 0-8Z" fill="#222"/><path fill-rule="evenodd" clip-rule="evenodd" d="M12 32c0-6.627 5.373-12 12-12s12 5.373 12 12-5.373 12-12 12-12-5.373-12-12Zm12-8a8 8 0 1 0 0 16 8 8 0 0 0 0-16Z" fill="#222"/><path d="M40 32a2 2 0 0 1 2-2h8a2 2 0 1 1 0 4h-8a2 2 0 0 1-2-2ZM42 38a2 2 0 1 0 0 4h8a2 2 0 1 0 0-4h-8ZM40 24a2 2 0 0 1 2-2h8a2 2 0 1 1 0 4h-8a2 2 0 0 1-2-2Z" fill="#222"/><path fill-rule="evenodd" clip-rule="evenodd" d="M34 10a2 2 0 1 0-4 0v2h-4v-2a2 2 0 1 0-4 0v2h-4v-2a2 2 0 1 0-4 0v2h-2a8 8 0 0 0-8 8v24a8 8 0 0 0 8 8h40a8 8 0 0 0 8-8V20a8 8 0 0 0-8-8H34v-2Zm-22 6a4 4 0 0 0-4 4v24a4 4 0 0 0 4 4h40a4 4 0 0 0 4-4V20a4 4 0 0 0-4-4H12Z" fill="#222"/></svg>