<svg width="64" height="64" fill="none" xmlns="http://www.w3.org/2000/svg"><path d="M49.657 16.828 39.172 6.344A7.95 7.95 0 0 0 33.515 4H20a8.01 8.01 0 0 0-8 8v40a8.01 8.01 0 0 0 8 8h24a8.009 8.009 0 0 0 8-8V22.485a7.953 7.953 0 0 0-2.343-5.657ZM48 52a4.004 4.004 0 0 1-4 4H20a4.004 4.004 0 0 1-4-4V12a4.004 4.004 0 0 1 4-4h13.515a3.972 3.972 0 0 1 2.828 1.172l10.485 10.484A3.975 3.975 0 0 1 48 22.486V52Zm-4-14a12 12 0 1 1-12-12h1.172l-2.586-2.586a2 2 0 0 1 2.828-2.828l6 6a1.999 1.999 0 0 1 0 2.828l-6 6a2 2 0 0 1-2.828-2.828L33.172 30H32a8 8 0 1 0 8 8 2 2 0 0 1 4 0Z" fill="#222"/></svg>