<svg width="64" height="64" fill="none" xmlns="http://www.w3.org/2000/svg"><path d="M42 61.333H14a4 4 0 0 1-4-4v-44a8.009 8.009 0 0 1 8-8h28a4 4 0 0 1 4 4v15.025a2 2 0 1 1-4 0V9.333H18a4 4 0 0 0-4 4v44h28a4.011 4.011 0 0 0 3.459-2 2 2 0 0 1 3.463 2 8.026 8.026 0 0 1-6.922 4Z" fill="#222"/><path d="M40.865 32.888c-.405-3.453-1.748-5.989-3.93-7.583a8 8 0 1 0-13.87 0c-2.182 1.594-3.525 4.131-3.93 7.585a3.967 3.967 0 0 0 .98 3.1 4.015 4.015 0 0 0 3 1.347h13.772a4.015 4.015 0 0 0 3-1.347 3.966 3.966 0 0 0 .978-3.102ZM30 17.333a4 4 0 1 1 0 8 4 4 0 0 1 0-8Zm-6.887 16-.006.021c.3-2.57 1.2-4.233 2.819-5.148a7.924 7.924 0 0 0 8.148 0c1.623.914 2.515 2.571 2.813 5.128H23.113ZM39.626 53.7a4 4 0 0 1-3.9-4.869l1.193-5.363A3.99 3.99 0 0 1 38 41.508l12.172-12.175a4 4 0 0 1 5.656 0L60 33.505a4 4 0 0 1 0 5.656L47.826 51.333a4 4 0 0 1-1.963 1.077L40.5 53.604c-.287.064-.58.096-.874.096Zm1.2-9.367-1.192 5.363L45 48.507l12.172-12.174L53 32.161 40.826 44.333ZM31 48.333H21a2 2 0 0 1 0-4h10a2 2 0 0 1 0 4Z" fill="#222"/></svg>