<svg width="64" height="64" fill="none" xmlns="http://www.w3.org/2000/svg"><path d="M17.998 40a2 2 0 1 1 4 0 2 2 0 0 1-4 0Zm-2 2a2 2 0 1 0 0 4 2 2 0 0 0 0-4Zm8 0a2 2 0 1 0 0 4 2 2 0 0 0 0-4Zm-4 4a2 2 0 1 0 0 4 2 2 0 0 0 0-4Zm18-14a6 6 0 1 1-6-6 6.006 6.006 0 0 1 6 6Zm-4 0A2 2 0 1 0 30 32a2 2 0 0 0 4 0Zm10-28a2 2 0 0 0 0 4 12.013 12.013 0 0 1 12 12 2 2 0 0 0 4 0 16.018 16.018 0 0 0-16-16Zm0 8a2 2 0 0 0 0 4 4.005 4.005 0 0 1 4 4 2 2 0 0 0 4 0 8.01 8.01 0 0 0-8-8Zm1.672 12.844a8.008 8.008 0 0 1 0 11.312L25.412 56.414A12.607 12.607 0 0 1 7.584 38.586l20.258-20.258a8.008 8.008 0 0 1 11.313 0l6.515 6.516Zm-2.828 2.828-6.516-6.516a4.006 4.006 0 0 0-5.656 0L10.412 41.414a8.607 8.607 0 0 0 12.172 12.172l20.258-20.258a4.004 4.004 0 0 0 0-5.656Z" fill="#222"/></svg>