<svg width="64" height="64" fill="none" xmlns="http://www.w3.org/2000/svg"><path fill-rule="evenodd" clip-rule="evenodd" d="M59.404 15.753a4.002 4.002 0 0 0-6.687-1.75L45.37 21.35a2.042 2.042 0 0 1-3.13-.294 2.195 2.195 0 0 1 .408-2.753l7.097-7.097a4.023 4.023 0 0 0 1.03-3.9 3.925 3.925 0 0 0-2.839-2.801 15.974 15.974 0 0 0-19.296 20.01L6.35 46.758a7.847 7.847 0 0 0-.674 10.446A7.693 7.693 0 0 0 11.588 60c2.03 0 3.978-.807 5.416-2.24l22.464-22.418a15.962 15.962 0 0 0 20.324-12.883 16.084 16.084 0 0 0-.388-6.706Zm-3.566 6.113a11.966 11.966 0 0 1-16.181 9.317l-1.213-.47L14.177 54.93a3.696 3.696 0 0 1-2.761 1.067 3.637 3.637 0 0 1-2.656-1.338 3.818 3.818 0 0 1 .417-5.07L33.27 25.543l-.47-1.216a11.972 11.972 0 0 1 14.117-15.95l-7.097 7.097a6.148 6.148 0 0 0-.85 7.884 6.04 6.04 0 0 0 9.228.819l7.348-7.369.002.006c.45 1.645.55 3.366.29 5.05ZM13.983 52a2 2 0 1 1-4 0 2 2 0 0 1 4 0Z" fill="#222"/></svg>