<svg width="64" height="64" fill="none" xmlns="http://www.w3.org/2000/svg"><path fill-rule="evenodd" clip-rule="evenodd" d="M20 4a8 8 0 0 0-8 8v44a4 4 0 0 0 4 4h28a8 8 0 0 0 8-8V18.276a4 4 0 0 0-1.046-2.697L41.572 5.303A4 4 0 0 0 38.618 4H20Zm-4 8a4 4 0 0 1 4-4h17v8a4 4 0 0 0 4 4h7v32a4 4 0 0 1-4 4H16V12Zm29.922 4L41 10.609V16h4.922Z" fill="#222"/><path d="M24 28a2 2 0 1 0-4 0v20a2 2 0 0 0 2 2h20a2 2 0 1 0 0-4H24V28Z" fill="#222"/><path fill-rule="evenodd" clip-rule="evenodd" d="M43.087 28.82a2 2 0 0 1 .592 2.767l-5.5 8.5a2 2 0 0 1-2.996.418l-2.444-2.139-3.191 3.9a2 2 0 1 1-3.096-2.532l4.5-5.5a2 2 0 0 1 2.865-.24l2.26 1.978 4.244-6.559a2 2 0 0 1 2.766-.592Z" fill="#222"/></svg>