<svg width="64" height="64" fill="none" xmlns="http://www.w3.org/2000/svg"><path d="M37.785 10.624a2 2 0 0 0-2.903 2.752l3.823 4.032-20.713.01c-7.728.005-13.99 6.27-13.992 13.999v1.008a2 2 0 1 0 4 0v-1.008c0-5.52 4.474-9.995 9.994-9.998l21.498-.011-4.585 4.348a2 2 0 1 0 2.752 2.902l7.62-7.225a2 2 0 0 0 .074-2.827l-7.568-7.982ZM55.764 31.896c.005 5.525-4.47 10.007-9.994 10.01l-19.5.01 4.589-4.352a2 2 0 1 0-2.752-2.902l-7.62 7.225a2 2 0 0 0-.074 2.827l7.569 7.982a2 2 0 0 0 2.902-2.752l-3.82-4.029 18.708-.01c7.734-.003 13.999-6.279 13.992-14.013l-.001-.994a2 2 0 0 0-4 .003v.995Z" fill="#222"/></svg>