<svg width="64" height="64" fill="none" xmlns="http://www.w3.org/2000/svg"><path fill-rule="evenodd" clip-rule="evenodd" d="M52 33H12a8.01 8.01 0 0 0-8 8v6a8.01 8.01 0 0 0 8 8h40a8.01 8.01 0 0 0 8-8v-6a8.01 8.01 0 0 0-8-8Zm4 14a4.004 4.004 0 0 1-4 4H12a4.004 4.004 0 0 1-4-4v-6a4.004 4.004 0 0 1 4-4h40a4.004 4.004 0 0 1 4 4v6Zm-26-3a2 2 0 0 1-2 2H16a2 2 0 1 1 0-4h12a2 2 0 0 1 2 2Zm12 0a2 2 0 1 1-4 0 2 2 0 0 1 4 0Zm8 0a2 2 0 1 1-4 0 2 2 0 0 1 4 0ZM15.543 17.848a2 2 0 0 1 .215-2.82c9.337-8.037 23.147-8.037 32.484 0a2 2 0 0 1-2.605 3.034c-7.839-6.75-19.436-6.75-27.274 0a2 2 0 0 1-2.82-.214ZM32 19a11.822 11.822 0 0 1 8.416 3.486 2 2 0 0 1-2.83 2.828 7.898 7.898 0 0 0-11.172 0 2 2 0 1 1-2.83-2.828A11.822 11.822 0 0 1 32 19Z" fill="#222"/></svg>