<svg width="64" height="64" fill="none" xmlns="http://www.w3.org/2000/svg"><path d="M18 50a2.448 2.448 0 0 0 1.787-.778C22.256 46.57 28 39.778 28 34a10 10 0 0 0-20 0c0 5.773 5.743 12.567 8.21 15.219A2.452 2.452 0 0 0 18 50Zm0-22a6.007 6.007 0 0 1 6 6c0 3.157-3.019 7.751-6 11.22-2.98-3.469-6-8.066-6-11.22a6.007 6.007 0 0 1 6-6Zm28 4a2.448 2.448 0 0 0 1.787-.778C50.256 28.57 56 21.778 56 16a10 10 0 0 0-20 0c0 5.773 5.743 12.567 8.21 15.219A2.45 2.45 0 0 0 46 32Zm0-22a6.007 6.007 0 0 1 6 6c0 3.157-3.019 7.751-6 11.22-2.98-3.469-6-8.066-6-11.22a6.007 6.007 0 0 1 6-6ZM18 36a2 2 0 1 1 0-4 2 2 0 0 1 0 4Zm28-18a2 2 0 1 1 0-4 2 2 0 0 1 0 4Zm10 20a2 2 0 0 1-2 2H41.473a5.962 5.962 0 0 0-5.592 3.825l-3.033 7.799A9.937 9.937 0 0 1 23.528 58H10a2 2 0 1 1 0-4h13.527a5.962 5.962 0 0 0 5.592-3.825l3.033-7.799A9.937 9.937 0 0 1 41.472 36H54a2 2 0 0 1 2 2Z" fill="#222"/></svg>