<svg xmlns="http://www.w3.org/2000/svg" viewBox="0 0 64 64"><g id="Workspace"><path d="M16.07,24.48a2,2,0,0,1-1.42-.59L9,18.23a2,2,0,0,1,0-2.82l9.9-9.9a2,2,0,0,1,2.82,0l5.66,5.65A2,2,0,0,1,24.55,14L20.31,9.75l-7.07,7.07,4.24,4.24a2,2,0,0,1-1.41,3.42Z"/><path d="M47.18,55.59A2,2,0,0,1,45.77,55l-5.66-5.65a2,2,0,0,1,2.83-2.83l4.24,4.24,7.07-7.07L50,39.45a2,2,0,1,1,2.83-2.83l5.65,5.66a2,2,0,0,1,0,2.82L48.59,55A2,2,0,0,1,47.18,55.59Z"/><path d="M21.88,49.34c0-.1,0-.19,0-.28s0-.14,0-.21A1.35,1.35,0,0,1,21.88,49.34Z"/><path d="M21.88,49.34c0-.1,0-.19,0-.28s0-.14,0-.21A1.35,1.35,0,0,1,21.88,49.34Z"/><path d="M21.88,49.34c0-.1,0-.19,0-.28s0-.14,0-.21A1.35,1.35,0,0,1,21.88,49.34Z"/><path d="M55.07,20.24,43.76,8.93a6,6,0,0,0-8.49,0l-22,22a2,2,0,0,0-.59,1.42,2,2,0,0,0,.59,1.41l1.87,1.87A12.77,12.77,0,0,0,9,37.29a2,2,0,0,0-1,1.47,2,2,0,0,0,.57,1.69l3.23,3.24a6,6,0,0,0,8.49,8.49l3.24,3.23A2,2,0,0,0,25,56l.28,0a2,2,0,0,0,1.47-1,12.77,12.77,0,0,0,1.63-6.09l1.87,1.87a2,2,0,0,0,1.41.59A2,2,0,0,0,33,50.76l22-22A6,6,0,0,0,55.07,20.24ZM14.65,49.35a2,2,0,0,1,0-2.83l2.83,2.83A2,2,0,0,1,14.65,49.35Zm-.05-7.22a1.46,1.46,0,0,1,.55,0H15A2.07,2.07,0,0,0,14.6,42.13Zm9.58,8.26-2.84-2.84-4.89-4.89-2.84-2.85A9,9,0,0,1,24.18,50.39ZM52.24,25.9,31.62,46.52l-7.07-7.07-7.07-7.07L38.1,11.76a2,2,0,0,1,2.83,0L52.24,23.07A2,2,0,0,1,52.24,25.9Z"/></g></svg>