<svg width="64" height="64" fill="none" xmlns="http://www.w3.org/2000/svg"><path fill-rule="evenodd" clip-rule="evenodd" d="M56 27h-1.103a18.547 18.547 0 0 0-2.746-4.846l1.808-8.75a2 2 0 0 0-3.037-2.088l-7.317 4.683a11.991 11.991 0 0 0-23.067-.554l-.215.098c-.43.193-.86.387-1.264.604C12.814 19.478 8.85 24.93 8.129 31H6a2 2 0 1 0 0 4h2.128c.679 5.715 4.238 10.884 9.872 14.25V53a4.004 4.004 0 0 0 4 4h4a4.004 4.004 0 0 0 4-4v-2h4v2a4.004 4.004 0 0 0 4 4h4a4.004 4.004 0 0 0 4-4v-3.75A21.343 21.343 0 0 0 54.003 41H56a4.004 4.004 0 0 0 4-4v-6a4.004 4.004 0 0 0-4-4ZM32 11a8.01 8.01 0 0 1 8 8 7.916 7.916 0 0 1-2.725 6h-10.55A7.917 7.917 0 0 1 24 19a8.01 8.01 0 0 1 8-8Zm20.743 26H56v-6h-2.552c-.898 0-1.687-.6-1.926-1.466a14.489 14.489 0 0 0-3.04-5.55 2.001 2.001 0 0 1-.44-1.707l1.04-5.035-5.19 3.322a11.82 11.82 0 0 1-1.734 4.81A1.997 1.997 0 0 1 41 29H22a1.998 1.998 0 0 1-.353-3.964 11.826 11.826 0 0 1-1.58-4.863C14.999 23.2 12 27.93 12 33c0 5.352 3.343 10.331 8.941 13.32A2 2 0 0 1 22 48.083V53h4v-2a4.004 4.004 0 0 1 4-4h4a4.004 4.004 0 0 1 4 4v2h4v-4.916c0-.739.407-1.417 1.059-1.765a17.24 17.24 0 0 0 7.848-8.112A2 2 0 0 1 52.743 37Z" fill="#222"/></svg>