<svg width="64" height="64" fill="none" xmlns="http://www.w3.org/2000/svg"><path fill-rule="evenodd" clip-rule="evenodd" d="m20.501 5.805 36.345 20.983c3.61 2.085 3.976 7.017 1.019 9.656a8.002 8.002 0 0 1-13.489 8.46l-1.848 1.145a6 6 0 0 1-6.159.094l-11.517-6.65v9.477a2 2 0 0 1-2 2H8.104v6.98a2 2 0 1 1-4 0V41.112a2 2 0 1 1 4 0v5.857h12.748v-9.786L7 29.188a6 6 0 0 1-2.196-8.197l7.5-12.99A6 6 0 0 1 20.5 5.805Zm34.345 24.448L18.5 9.269a2 2 0 0 0-2.732.732l-7.5 12.99A2 2 0 0 0 9 25.723L38.369 42.68a2 2 0 0 0 2.053-.031L54.9 33.685c1.285-.796 1.257-2.676-.053-3.432Zm-7.03 12.522 6.65-4.118a4.002 4.002 0 0 1-6.65 4.118Z" fill="#222"/></svg>