<svg width="64" height="64" fill="none" xmlns="http://www.w3.org/2000/svg"><path fill-rule="evenodd" clip-rule="evenodd" d="M28 16.341V13.6C28 8.741 32.142 5 37 5s9 3.741 9 8.6v2.741c2.33.824 4 3.047 4 5.659v9a6 6 0 0 1-6 6H30a6 6 0 0 1-6-6v-9a6.003 6.003 0 0 1 4-5.659Zm4-2.741c0-2.431 2.126-4.6 5-4.6s5 2.169 5 4.6V16H32v-2.4ZM28 22a2 2 0 0 1 2-2h14a2 2 0 0 1 2 2v9a2 2 0 0 1-2 2H30a2 2 0 0 1-2-2v-9Z" fill="#222"/><path fill-rule="evenodd" clip-rule="evenodd" d="M37 24a2 2 0 0 1 2 2v2a2 2 0 1 1-4 0v-2a2 2 0 0 1 2-2Z" fill="#222"/><path d="M31 52a2 2 0 1 1-4 0 2 2 0 0 1 4 0Z" fill="#222"/><path fill-rule="evenodd" clip-rule="evenodd" d="M21 4a8 8 0 0 0-8 8v40a8 8 0 0 0 8 8h16a8 8 0 0 0 8-8V41a2 2 0 1 0-4 0v3H17V12a4 4 0 0 1 4-4h4.5a2 2 0 1 0 0-4H21Zm-4 44v4a4 4 0 0 0 4 4h16a4 4 0 0 0 4-4v-4H17Z" fill="#222"/></svg>