<svg width="64" height="64" fill="none" xmlns="http://www.w3.org/2000/svg"><path d="M52 34h-5.172L38 25.172A3.974 3.974 0 0 0 35.172 24H17.355a3.983 3.983 0 0 0-3.715 2.515L10.645 34H8a4.005 4.005 0 0 0-4 4v6a8.006 8.006 0 0 0 7.338 7.967A5.99 5.99 0 0 0 22.65 52H42a1.99 1.99 0 0 0 .337-.034A5.99 5.99 0 0 0 53.65 52H56a4.004 4.004 0 0 0 4-4v-6a8.01 8.01 0 0 0-8-8ZM17 52a2 2 0 1 1 0-4 2 2 0 0 1 0 4Zm31 0a2 2 0 1 1 0-4 2 2 0 0 1 0 4Zm8-4h-2.35a5.991 5.991 0 0 0-11.313.034A2 2 0 0 0 42 48H22.65a5.99 5.99 0 0 0-11.277-.063A3.996 3.996 0 0 1 8 44v-6h4.007a1.977 1.977 0 0 0 .633-.114c.159-.052.31-.123.451-.213l.02-.011a2.003 2.003 0 0 0 .467-.447c.111-.14.203-.295.272-.46l.007-.012L17.355 28h17.817l9.413 9.413a2 2 0 0 0 .306.25c.048.032.1.054.149.081.063.038.128.073.196.103.065.024.132.045.2.062.057.017.112.04.172.052.13.026.26.039.392.039h6a4.005 4.005 0 0 1 4 4v6ZM32.663 9.15a2 2 0 0 1 1.347-2.487A16.02 16.02 0 0 1 53.917 17.43a1.999 1.999 0 1 1-3.834 1.14 12.02 12.02 0 0 0-14.933-8.073 2.001 2.001 0 0 1-2.487-1.347Zm13.223 10.184a2.001 2.001 0 1 1-3.772 1.332 4.008 4.008 0 0 0-5.105-2.44 2 2 0 1 1-1.334-3.77 8.006 8.006 0 0 1 10.21 4.878Z" fill="#222"/></svg>