<svg width="64" height="64" fill="none" xmlns="http://www.w3.org/2000/svg"><path d="M29 52a2 2 0 1 1-4 0 2 2 0 0 1 4 0Z" fill="#222"/><path fill-rule="evenodd" clip-rule="evenodd" d="M19 4a8 8 0 0 0-8 8v40a8 8 0 0 0 8 8h16a8 8 0 0 0 8-8V42a2 2 0 1 0-4 0v2H15V12a4 4 0 0 1 4-4h16.5a4 4 0 0 1 4 4 2 2 0 1 0 4 0 8 8 0 0 0-8-8H19Zm-4 44v4a4 4 0 0 0 4 4h16a4 4 0 0 0 4-4v-4H15Z" fill="#222"/><path fill-rule="evenodd" clip-rule="evenodd" d="M23.506 26.9c4.18 5.655 8.585 8.1 12.602 8.1 4.017 0 8.364-2.445 12.423-8.114-4.435-5.611-8.593-7.916-12.407-7.886-3.833.03-8.058 2.419-12.618 7.9ZM36.092 15c5.965-.046 11.466 3.81 16.516 10.633a2 2 0 0 1 .062 2.29C48.01 34.993 42.284 39 36.108 39c-6.165 0-11.961-3.995-16.762-11.052a2 2 0 0 1 .077-2.356C24.603 18.955 30.16 15.047 36.093 15Z" fill="#222"/><path fill-rule="evenodd" clip-rule="evenodd" d="M36 24a3 3 0 1 0 0 6 3 3 0 0 0 0-6Zm-7 3a7 7 0 1 1 14 0 7 7 0 0 1-14 0Z" fill="#222"/></svg>