<svg width="64" height="64" fill="none" xmlns="http://www.w3.org/2000/svg"><path fill-rule="evenodd" clip-rule="evenodd" d="M46.77 4H16.614A8.625 8.625 0 0 0 8 12.615v38.77A8.625 8.625 0 0 0 16.615 60H46.77a8.625 8.625 0 0 0 8.616-8.615v-38.77A8.625 8.625 0 0 0 46.769 4Zm4.307 47.385a4.312 4.312 0 0 1-4.308 4.307H16.615a4.312 4.312 0 0 1-4.307-4.307v-8.616h38.769v8.616Zm0-12.923h-38.77V25.538h38.77v12.924ZM12.307 21.23v-8.616a4.312 4.312 0 0 1 4.308-4.307H46.77a4.312 4.312 0 0 1 4.308 4.307v8.616h-38.77Zm15.078-6.462c0 1.19-.965 2.154-2.154 2.154h-6.462a2.154 2.154 0 0 1 0-4.308h6.462c1.19 0 2.154.965 2.154 2.154ZM16.615 32c0-1.19.965-2.154 2.154-2.154h6.462a2.154 2.154 0 0 1 0 4.308h-6.462A2.154 2.154 0 0 1 16.615 32Zm0 17.23c0-1.189.965-2.153 2.154-2.153h6.462a2.154 2.154 0 0 1 0 4.308h-6.462a2.154 2.154 0 0 1-2.154-2.154Z" fill="#222"/></svg>