<svg width="64" height="64" fill="none" xmlns="http://www.w3.org/2000/svg"><path d="M28 52a2 2 0 1 1-4 0 2 2 0 0 1 4 0Z" fill="#222"/><path fill-rule="evenodd" clip-rule="evenodd" d="M18 4a8 8 0 0 0-8 8v40a8 8 0 0 0 8 8h16a8 8 0 0 0 8-8v-6a2 2 0 0 0-2-2H14V12a4 4 0 0 1 4-4h16a4 4 0 0 1 4 4v4.5a2 2 0 1 0 4 0V12a8 8 0 0 0-8-8H18Zm-4 44v4a4 4 0 0 0 4 4h16a4 4 0 0 0 4-4v-4H14Z" fill="#222"/><path fill-rule="evenodd" clip-rule="evenodd" d="M31.578 34.924c-3.59 1.636-7.535.679-10.606-1.571-2.914-2.135-4.392-5.489-4.315-8.861a3.414 3.414 0 0 1 2.24-3.17c1.177-.44 2.544-.254 3.62.534l3.698 2.71a.953.953 0 0 0 .96-1.311l-3.54-2.594c-1.116-.817-1.702-2.119-1.591-3.41a3.432 3.432 0 0 1 2.54-3.042c3.01-.847 6.613-.637 9.388 1.396 3.072 2.25 5.175 5.723 4.698 9.639L51.443 34.6c1.29.945 1.821 2.411 1.837 3.79.015 1.377-.466 2.799-1.35 4.005-.883 1.207-2.093 2.094-3.412 2.494-1.318.401-2.877.337-4.167-.608l-12.773-9.357Zm-8.243-4.798c-1.538-1.127-2.45-2.822-2.642-4.647l3.344 2.449c.304.223.648.386 1.012.48 4.338 1.128 7.822-3.628 5.44-7.424-.201-.32-.46-.598-.765-.82l-3.15-2.308c1.867-.316 3.714.009 5.034.976 2.523 1.847 3.595 4.325 2.928 6.745-.236.857.124 1.739.83 2.202l-.001.002 13.714 10.046c.046.034.196.177.2.608.006.432-.154 1.02-.575 1.596-.422.576-.935.906-1.349 1.031-.412.126-.593.026-.64-.008L33.001 31.008 33 31.01a2.001 2.001 0 0 0-2.35-.127c-2.107 1.365-4.792 1.09-7.315-.757Z" fill="#222"/></svg>