<svg width="64" height="64" fill="none" xmlns="http://www.w3.org/2000/svg"><path fill-rule="evenodd" clip-rule="evenodd" d="M31.785 22.001c-5.523 0-10 4.477-10 10 0 5.522 4.477 10 10 10s10-4.478 10-10c-.007-5.52-4.48-9.994-10-10Zm0 16a6 6 0 1 1 6-6 6.006 6.006 0 0 1-6 6Zm26.652 1.511a3.972 3.972 0 0 0-1.868-2.44l-3.044-1.757a21.35 21.35 0 0 0 0-6.629l3.043-1.757a4.002 4.002 0 0 0 1.468-5.458l-1.306-2.259a882.006 882.006 0 0 1-2.688-4.66 3.997 3.997 0 0 0-5.475-1.478l-3.053 1.763a21.72 21.72 0 0 0-5.73-3.332V8.002a4.002 4.002 0 0 0-3.992-4l-2.611.002c-1.863.003-3.924.006-5.377-.003a3.798 3.798 0 0 0-2.839 1.161 3.976 3.976 0 0 0-1.18 2.84v3.503a21.713 21.713 0 0 0-5.73 3.332L15 13.074a4.004 4.004 0 0 0-5.46 1.459L8.193 16.87a845.816 845.816 0 0 1-2.647 4.58 3.997 3.997 0 0 0 1.455 5.48l3.044 1.756a21.35 21.35 0 0 0 0 6.629l-3.043 1.757a4.005 4.005 0 0 0-1.468 5.46l1.242 2.143a873.29 873.29 0 0 1 2.752 4.772 3.995 3.995 0 0 0 5.474 1.481l3.054-1.764a21.736 21.736 0 0 0 5.73 3.332V56a4.002 4.002 0 0 0 3.994 4l2.603-.003c1.867-.002 3.93-.007 5.386.003h.021a3.997 3.997 0 0 0 3.996-4v-3.504a21.729 21.729 0 0 0 5.73-3.332l3.054 1.764a4.004 4.004 0 0 0 5.461-1.46l1.215-2.109c.952-1.654 2.022-3.513 2.778-4.807.54-.917.689-2.012.413-3.04Zm-3.866 1.02c-.76 1.301-1.836 3.17-2.793 4.833l-1.209 2.099-5.552-3.206-1.081.992a17.843 17.843 0 0 1-6.75 3.923l-1.4.44L35.79 56c-.729-.004-1.608-.005-2.54-.005l-2.874.002-2.59.002v-6.385l-1.401-.44a17.835 17.835 0 0 1-6.75-3.923l-1.082-.993-5.55 3.21c-.74-1.3-1.81-3.147-2.768-4.798l-1.234-2.133 5.539-3.198-.317-1.431a17.616 17.616 0 0 1 0-7.812l.317-1.432-5.542-3.194c.726-1.242 1.738-3.001 2.66-4.605l1.342-2.327 5.552 3.206 1.082-.992a17.83 17.83 0 0 1 6.75-3.924l1.4-.44-.004-6.387c1.461.008 3.532.005 5.405.003l2.599-.002v6.386l1.4.44a17.828 17.828 0 0 1 6.749 3.923l1.082.992 5.551-3.21c.724 1.27 1.762 3.062 2.701 4.684l1.3 2.248-5.539 3.198.317 1.431c.584 2.571.584 5.24 0 7.812l-.317 1.431 5.54 3.198 1-1.732-.998 1.73Z" fill="#222"/></svg>