<svg width="64" height="64" fill="none" xmlns="http://www.w3.org/2000/svg"><path fill-rule="evenodd" clip-rule="evenodd" d="M35.541 27.431a2.001 2.001 0 0 1 .005-2.829l4.286-4.27A7.949 7.949 0 0 1 45.478 18h7.694l-2.586-2.586a2 2 0 0 1 2.828-2.828l6 6a2 2 0 0 1 0 2.828l-6 6a2 2 0 0 1-2.828-2.828L53.172 22h-7.694a4.024 4.024 0 0 0-2.822 1.166l-4.286 4.27a2.002 2.002 0 0 1-2.829-.005Zm17.873 9.155a2 2 0 1 0-2.828 2.828L53.172 42H45.48a3.973 3.973 0 0 1-2.824-1.167L32.552 30.756a1.183 1.183 0 0 0-.337-.336L22.1 20.334C20.502 18.742 18.39 18 15.452 18H6a2 2 0 1 0 0 4h9.452c2.338 0 3.245.59 3.824 1.167l8.862 8.837-8.86 8.83A3.98 3.98 0 0 1 16.452 42H6a2 2 0 1 0 0 4h10.453a7.955 7.955 0 0 0 5.648-2.332l8.87-8.839 8.861 8.836A7.947 7.947 0 0 0 45.48 46h7.692l-2.586 2.586a2 2 0 0 0 2.828 2.828l6-6a2 2 0 0 0 0-2.828l-6-6Z" fill="#222"/></svg>