<svg width="64" height="64" fill="none" xmlns="http://www.w3.org/2000/svg"><path fill-rule="evenodd" clip-rule="evenodd" d="M21.333 39.629c-.53-2.145-1.95-4.268-4.62-4.554-4.796-.514-6.713 3.987-6.586 7.997.102 2.884 1.143 6.188 3.192 8.995-1.518 1.453-3.428 2.56-5.727 3.039a2 2 0 1 0 .816 3.916c3.126-.651 5.669-2.14 7.658-4.045.064.053.13.105.195.157 2.42 1.91 4.339 3.062 5.959 3.5.848.23 1.69.286 2.504.092a4.279 4.279 0 0 0 1.964-1.085c.474-.45.832-.963 1.103-1.383.123-.192.244-.39.352-.567l.037-.06c.122-.2.232-.377.344-.547.453-.69.784-1 1.179-1.147.394-.148 1.028 0 1.677.671.11.136.229.294.36.468.842 1.112 2.18 2.88 4.497 3.837 2.886 1.191 5.69.677 7.628-.02a14.619 14.619 0 0 0 2.366-1.104c.287-.166.516-.313.68-.422l.284-.2h.002c.885-.66 1.464-2.22.803-3.106-.602-.806-1.769-1.235-3.192-.103-.1.067-.38.253-.585.372a10.62 10.62 0 0 1-1.712.799c-1.437.517-3.133.753-4.747.086-1.243-.513-1.887-1.342-2.742-2.445-.164-.211-.335-.432-.52-.664-.513-.638-1.258-1.498-2.357-1.972-1.208-.52-2.502-.447-3.847.057-1.605.602-2.524 1.793-3.118 2.697-.15.228-.29.455-.412.655l-.035.057c-.112.183-.209.341-.306.493-.22.34-.37.53-.49.644-.092.087-.13.096-.141.098h-.002c-.019.005-.166.038-.528-.06-.803-.218-2.32-1.04-4.65-2.88a19.088 19.088 0 0 0 2.3-4.956c.76-2.542.947-5.163.417-7.31ZM17.5 45.56c-.32 1.637-1.5 4-1.5 4-1-1-1.926-4.125-2-6-.06-1.558 0-3 1-4s2.142-.32 2.5 1c.358 1.318.376 3.084 0 5ZM32.334 5.072c-4.127.756-8.173 3.293-10.768 6.488-1.36 1.676-1.19 3.883-.2 5.431l19.636 30.67c.41.638.992 1.15 1.687 1.47 1.162.537 4.055 1.863 6.722 3.018a93.04 93.04 0 0 0 3.632 1.502c.497.188.964.354 1.345.464.182.052.407.11.634.143.11.016.287.036.493.027.143-.007.631-.035 1.117-.371.468-.324.667-.75.723-.874.082-.18.13-.346.156-.452.055-.218.087-.445.109-.634.045-.392.073-.887.092-1.419a95.81 95.81 0 0 0 .027-3.932c-.027-2.905-.123-6.08-.164-7.343a3.988 3.988 0 0 0-.665-2.076L36.968 7.15c-.93-1.402-2.667-2.438-4.635-2.078Zm-7.662 9.01c2.038-2.51 5.26-4.504 8.382-5.075a.378.378 0 0 1 .24.042c.11.054.238.156.342.313l18.66 28.103c-.792.343-1.827.823-2.963 1.436-1.955 1.055-4.334 2.566-6.288 4.532l-18.31-28.599a.902.902 0 0 1-.15-.48c0-.126.036-.21.087-.272ZM45.92 46.213c1.393.635 3.29 1.491 5.079 2.265.992.43 1.936.828 2.734 1.148.015-.866.015-1.898.005-2.985a307.11 307.11 0 0 0-.107-5.394c-.67.296-1.5.69-2.4 1.175-1.809.976-3.778 2.26-5.311 3.791Z" fill="#222"/></svg>