<svg width="64" height="64" fill="none" xmlns="http://www.w3.org/2000/svg"><path d="M39.193 25.23a5.767 5.767 0 0 0-3.292.938c-1.875 1.273-2.956 3.795-2.956 7.184v1.297c-.037 1.468.216 2.93.745 4.301a5.97 5.97 0 0 0 8.817 2.859c1.874-1.25 2.933-3.772 2.933-7.16v-1.297a11.663 11.663 0 0 0-.722-4.3 5.688 5.688 0 0 0-5.525-3.821Zm2.978 9.227c0 3.484-.984 5.213-2.978 5.213-1.995 0-2.98-1.73-2.98-5.213v-.914c0-3.484.985-5.213 2.98-5.213 1.994 0 2.978 1.729 2.978 5.213v.914Zm-14.673 3.417a2.111 2.111 0 0 0-.8-2.227 3.734 3.734 0 0 0-2.277-.63h-1.09c-.323 0-.654-.242-.992-.726a1.472 1.472 0 0 1-.315-.775c0-.291.202-.566.605-.824.373-.249.811-.383 1.26-.387a3.682 3.682 0 0 0 2.216-.594 1.867 1.867 0 0 0 .811-1.586 1.654 1.654 0 0 0-.69-1.344 2.71 2.71 0 0 0-1.732-.545A4.637 4.637 0 0 0 21.2 29.93a.96.96 0 0 1-.654.34 1.46 1.46 0 0 1-1.162-.824 1.663 1.663 0 0 1-.34-.872.899.899 0 0 1 .146-.46 6.305 6.305 0 0 1 2.398-2.132 6.783 6.783 0 0 1 3.221-.823 5.871 5.871 0 0 1 2.725.629 4.907 4.907 0 0 1 1.9 1.656c.445.661.682 1.44.679 2.237a3.89 3.89 0 0 1-.533 1.984c-.39.649-.93 1.195-1.574 1.595a5.026 5.026 0 0 1 2.07 1.71c.497.698.764 1.533.764 2.389a4.674 4.674 0 0 1-.92 2.8 6.223 6.223 0 0 1-2.374 1.977 7.03 7.03 0 0 1-3.1.703 7.165 7.165 0 0 1-3.415-.824 5.314 5.314 0 0 1-2.277-2.18 1.82 1.82 0 0 1-.194-.653c0-.34.235-.662.703-.969.443-.299.966-.46 1.501-.46a.823.823 0 0 1 .751.339c.367.52.842.953 1.393 1.271.518.273 1.097.41 1.683.4a3.108 3.108 0 0 0 2.57-1.134c.174-.22.29-.48.337-.756ZM56 34a24 24 0 0 1-48 0c0-13.683 11.178-24 26-24h11.172l-2.586-2.586a2 2 0 0 1 2.828-2.828l6 6a1.984 1.984 0 0 1 .375.539c.076.15.133.31.169.475l.004.012a2.006 2.006 0 0 1 .014.638 1.98 1.98 0 0 1-.127.512l-.001.004-.009.014a1.99 1.99 0 0 1-.26.432 1.898 1.898 0 0 1-.088.107c-.027.031-.047.066-.077.095l-6 6a2 2 0 0 1-2.828-2.828L45.172 14H34c-12.542 0-22 8.598-22 20a20 20 0 1 0 40 0 2 2 0 0 1 4 0Z" fill="#222"/></svg>