<svg width="64" height="64" fill="none" xmlns="http://www.w3.org/2000/svg"><path d="M24.309 40.751V29.377l-2.887 1.32a.98.98 0 0 1-.391.099c-.408 0-.8-.294-1.174-.88a1.95 1.95 0 0 1-.367-.906c0-.456.383-.864 1.15-1.223l5.038-2.275c.34-.146.707-.221 1.077-.22.636 0 .954.293.954.88v13.87a3.31 3.31 0 0 1-.538 1.834 1.476 1.476 0 0 1-1.174.832c-.408 0-.832-.318-1.273-.954a2.058 2.058 0 0 1-.415-1.003Zm7.45-1.8a11.194 11.194 0 0 1-.745-4.303v-1.297c0-3.388 1.082-5.91 2.956-7.183a5.767 5.767 0 0 1 3.293-.937 5.69 5.69 0 0 1 5.524 3.82c.51 1.376.754 2.835.722 4.3v1.297c0 3.389-1.058 5.91-2.932 7.16a5.97 5.97 0 0 1-8.817-2.858Zm2.524-4.494c0 3.484.984 5.213 2.98 5.213 1.993 0 2.977-1.73 2.977-5.213v-.914c0-3.484-.984-5.213-2.977-5.213-1.996 0-2.98 1.729-2.98 5.213v.914ZM30 10H18.828l2.586-2.586a2 2 0 1 0-2.828-2.828l-6 6a1.984 1.984 0 0 0-.375.539c-.076.15-.133.31-.169.475l-.004.012a2.006 2.006 0 0 0-.014.638c.02.175.062.348.127.512l.001.004.009.014c.068.154.155.3.26.432.028.037.057.073.088.107.027.031.047.066.077.095l6 6a2 2 0 0 0 2.828-2.828L18.828 14H30c12.542 0 22 8.598 22 20a20 20 0 1 1-40 0 2 2 0 0 0-4 0 24 24 0 0 0 48 0c0-13.683-11.178-24-26-24Z" fill="#222"/></svg>