<svg width="64" height="64" fill="none" xmlns="http://www.w3.org/2000/svg"><path d="M39.193 42.77a5.665 5.665 0 0 0 3.314-.961c1.874-1.25 2.933-3.772 2.933-7.16v-1.297a11.665 11.665 0 0 0-.722-4.3 5.689 5.689 0 0 0-5.525-3.821 5.766 5.766 0 0 0-3.292.937c-1.875 1.274-2.956 3.795-2.956 7.184v1.297c-.037 1.468.217 2.93.745 4.301a5.64 5.64 0 0 0 5.503 3.82Zm-2.98-9.227c0-3.484.985-5.213 2.98-5.213 1.994 0 2.977 1.729 2.977 5.213v.914c0 3.484-.983 5.213-2.977 5.213-1.995 0-2.98-1.73-2.98-5.213v-.914Zm-8.715 4.331a2.111 2.111 0 0 0-.8-2.227 3.734 3.734 0 0 0-2.277-.63h-1.09c-.323 0-.654-.242-.992-.727a1.472 1.472 0 0 1-.315-.774c0-.291.202-.566.605-.824.373-.249.811-.383 1.26-.388a3.682 3.682 0 0 0 2.216-.593 1.868 1.868 0 0 0 .811-1.586 1.655 1.655 0 0 0-.69-1.344 2.709 2.709 0 0 0-1.732-.545A4.636 4.636 0 0 0 21.2 29.93a.96.96 0 0 1-.654.34 1.46 1.46 0 0 1-1.162-.824 1.663 1.663 0 0 1-.34-.872.899.899 0 0 1 .146-.46 6.304 6.304 0 0 1 2.398-2.132 6.782 6.782 0 0 1 3.221-.823 5.871 5.871 0 0 1 2.725.629 4.909 4.909 0 0 1 1.9 1.656c.445.661.682 1.44.679 2.237a3.889 3.889 0 0 1-.533 1.984c-.39.649-.93 1.196-1.574 1.595a5.026 5.026 0 0 1 2.07 1.71c.497.698.764 1.533.764 2.389a4.674 4.674 0 0 1-.92 2.8 6.223 6.223 0 0 1-2.374 1.977 7.03 7.03 0 0 1-3.1.703 7.165 7.165 0 0 1-3.415-.824 5.312 5.312 0 0 1-2.277-2.18 1.818 1.818 0 0 1-.194-.653c0-.34.235-.662.703-.969.444-.299.966-.46 1.502-.46a.824.824 0 0 1 .75.339c.367.52.842.953 1.393 1.272.518.272 1.097.41 1.683.4a3.107 3.107 0 0 0 2.57-1.135c.174-.22.29-.48.337-.756ZM56 34a24 24 0 0 1-48 0 2 2 0 1 1 4 0 20 20 0 1 0 40 0c0-11.402-9.458-20-22-20H18.828l2.586 2.586a2 2 0 1 1-2.828 2.828l-6-6c-.03-.03-.05-.064-.077-.094a1.934 1.934 0 0 1-.088-.108 1.993 1.993 0 0 1-.26-.432l-.009-.014v-.004a1.989 1.989 0 0 1-.14-.635 1.997 1.997 0 0 1 .026-.515l.004-.012a1.993 1.993 0 0 1 .228-.587c.085-.156.192-.3.316-.427l6-6a2 2 0 1 1 2.828 2.828L18.828 10H30c14.822 0 26 10.317 26 24Z" fill="#222"/></svg>