<svg width="64" height="64" fill="none" xmlns="http://www.w3.org/2000/svg"><path fill-rule="evenodd" clip-rule="evenodd" d="M53 28a2 2 0 1 1-4 0 2 2 0 0 1 4 0Zm7-.128A9 9 0 0 1 51 37h-2.172L46 39.828V41a8 8 0 0 1-16 0h-8a8 8 0 1 1-16 0 2 2 0 1 1 0-4h.05c.01-.05.03-.096.044-.144.002-.053-.008-.104-.004-.157C7.07 24.33 15.63 15 26 15c6.803 0 12.81 4.03 16.426 10.284A9.016 9.016 0 0 1 51.001 19l.127.001A9.06 9.06 0 0 1 60 27.872Zm-23.864-4.356a1.995 1.995 0 0 1-.153.281l-3.608 5.273L37.133 37h4.781a21.646 21.646 0 0 0-5.778-13.484ZM26 19c-2.518.01-4.983.727-7.114 2.067.073.073.14.152.201.236L23.047 27h5.899l3.736-5.46c.124-.179.277-.334.452-.462A13.474 13.474 0 0 0 26 19ZM10.08 37h4.787l4.752-7.92-3.817-5.494-.002-.003A21.715 21.715 0 0 0 10.08 37ZM18 41h-8a4 4 0 1 0 8 0Zm14.467-4-3.6-6h-5.734l-3.6 6h12.934ZM42 41h-8a4 4 0 1 0 8 0ZM56 27.929A5.094 5.094 0 0 0 51.07 23l-.07-.001a5.02 5.02 0 0 0-4.882 3.906 3.943 3.943 0 0 1-1.79 2.481 27.582 27.582 0 0 1 1.322 5.133l.349-.348A3.973 3.973 0 0 1 48.828 33H51a4.999 4.999 0 0 0 4.999-5.071Z" fill="#222"/></svg>