<svg width="64" height="64" fill="none" xmlns="http://www.w3.org/2000/svg"><path fill-rule="evenodd" clip-rule="evenodd" d="M14.23 9.276A6 6 0 0 1 19.975 5h8.048a6 6 0 0 1 5.747 4.276l1.86 6.2A7.99 7.99 0 0 1 39 22v20a7.99 7.99 0 0 1-3.37 6.524l-1.86 6.2A6 6 0 0 1 28.025 59h-8.048a6 6 0 0 1-5.747-4.276l-1.86-6.2A7.99 7.99 0 0 1 9 42V22a7.99 7.99 0 0 1 3.37-6.524l1.86-6.2ZM16.987 50l1.073 3.575A2 2 0 0 0 19.976 55h8.048a2 2 0 0 0 1.915-1.425L31.012 50H16.988ZM29.94 10.425 31.012 14H16.988l1.073-3.575A2 2 0 0 1 19.976 9h8.048a2 2 0 0 1 1.915 1.425ZM17 18a4 4 0 0 0-4 4v20a4 4 0 0 0 4 4h14a4 4 0 0 0 4-4V22a4 4 0 0 0-4-4H17ZM50.315 34.87c.622-2.384.671-5.785-1.98-9.76a2 2 0 0 1 3.33-2.22c3.349 5.026 3.398 9.624 2.52 12.99a15.416 15.416 0 0 1-1.617 3.9c-.272.46-.52.824-.706 1.08a9.526 9.526 0 0 1-.303.394l-.025.03-.009.01-.003.004-.002.002s.014-.017-.002.002a2 2 0 0 1-3.043-2.595l1.84-3.837Zm0 0a11.417 11.417 0 0 1-1.195 2.882 9.247 9.247 0 0 1-.62.923l-.018.022-.005.007 1.838-3.834Z" fill="#222"/><path d="M42.336 29.11c1.15 1.725 1.044 3.255.854 4.073-.143.614-.216.728-.441 1.08-.075.116-.166.258-.282.453-.467.784-.601 2.089.232 2.803a2 2 0 0 0 2.82-.217l.003-.004.003-.004.008-.008.018-.022a4.14 4.14 0 0 0 .188-.245c.11-.151.253-.36.407-.622.306-.52.67-1.27.914-2.204.504-1.929.454-4.527-1.396-7.302a2 2 0 0 0-3.328 2.219Z" fill="#222"/></svg>