<svg width="64" height="64" fill="none" xmlns="http://www.w3.org/2000/svg"><path d="M39.073 35.929a2 2 0 1 1-2.828 2.829 6.002 6.002 0 0 0-8.487 0 2 2 0 0 1-2.828-2.83 10.001 10.001 0 0 1 14.143 0ZM32 41a3 3 0 1 0 0 6 3 3 0 0 0 0-6Zm26.933-7.47A3.988 3.988 0 0 1 55.239 36H54v18a4.005 4.005 0 0 1-4 4h-36a4.004 4.004 0 0 1-4-4V36H8.764a4 4 0 0 1-2.828-6.828L27.759 7.349a5.998 5.998 0 0 1 8.484 0l21.824 21.823a3.988 3.988 0 0 1 .867 4.359ZM55.239 32 33.415 10.177a2.049 2.049 0 0 0-2.828 0L8.764 32h5.237v22h36V32h5.238Zm-35.965-1.727a2 2 0 0 0 2.828 2.828 14 14 0 0 1 19.799 0 2 2 0 0 0 2.828-2.828 17.996 17.996 0 0 0-25.455 0Z" fill="#222"/></svg>