<svg width="64" height="65" fill="none" xmlns="http://www.w3.org/2000/svg"><path fill-rule="evenodd" clip-rule="evenodd" d="M32 4.5c-15.464 0-28 12.536-28 28s12.536 28 28 28 28-12.536 28-28c-.017-15.457-12.543-27.983-28-28Zm0 51.692c-13.085 0-23.692-10.607-23.692-23.692S18.915 8.808 32 8.808 55.693 19.415 55.693 32.5C55.678 45.579 45.079 56.177 32 56.192Zm16.517-18.77a17.237 17.237 0 0 1-33.034 0 2.154 2.154 0 0 1 4.128-1.228 12.929 12.929 0 0 0 24.777 0 2.154 2.154 0 0 1 4.129 1.228ZM20.154 26.039a3.23 3.23 0 1 1 6.461 0 3.23 3.23 0 0 1-6.461 0Zm17.23 0a3.23 3.23 0 1 1 6.462 0 3.23 3.23 0 0 1-6.461 0Z" fill="#222"/></svg>