<svg width="64" height="64" fill="none" xmlns="http://www.w3.org/2000/svg"><path fill-rule="evenodd" clip-rule="evenodd" d="M32 4C16.536 4 4 16.536 4 32s12.536 28 28 28 28-12.536 28-28C59.983 16.543 47.457 4.017 32 4Zm0 51.692C18.915 55.692 8.308 45.085 8.308 32S18.915 8.308 32 8.308 55.692 18.915 55.692 32C55.678 45.079 45.08 55.678 32 55.692ZM20.154 25.538a3.23 3.23 0 1 1 6.461 0 3.23 3.23 0 0 1-6.461 0Zm17.23 0a3.23 3.23 0 1 1 6.462 0 3.23 3.23 0 0 1-6.461 0Zm7.174 17.404c-.663.987-2 1.251-2.989.589a17.163 17.163 0 0 0-19.138 0 2.154 2.154 0 1 1-2.4-3.578 21.474 21.474 0 0 1 23.938 0c.988.663 1.252 2 .59 2.989Z" fill="#222"/></svg>