<svg width="64" height="64" fill="none" xmlns="http://www.w3.org/2000/svg"><path d="M27.828 23.677a2.64 2.64 0 1 0 0-5.279 2.64 2.64 0 0 0 0 5.279ZM40.995 21.037a2.64 2.64 0 1 1-5.278 0 2.64 2.64 0 0 1 5.278 0ZM48.267 23.677a2.64 2.64 0 1 0 0-5.279 2.64 2.64 0 0 0 0 5.279Z" fill="#222"/><path fill-rule="evenodd" clip-rule="evenodd" d="M24.319 7a7.93 7.93 0 0 0-7.93 7.93v8.424h-4.46A7.93 7.93 0 0 0 4 31.284V42.68a7.93 7.93 0 0 0 7.93 7.93h10.576l6.152 6.152c1.874 1.873 5.076.546 5.076-2.103v-4.05h5.947a7.93 7.93 0 0 0 7.93-7.929v-8.424h4.46A7.93 7.93 0 0 0 60 26.327V14.93A7.93 7.93 0 0 0 52.07 7H24.32ZM52.07 30.292a3.965 3.965 0 0 0 3.964-3.965V14.93a3.965 3.965 0 0 0-3.964-3.964H24.319a3.965 3.965 0 0 0-3.965 3.964v11.398a3.965 3.965 0 0 0 3.965 3.965h9.911v5.621l5.622-5.621H52.07Zm-35.62-2.973a7.93 7.93 0 0 0 7.868 6.938h5.947v4.05c0 2.648 3.202 3.975 5.076 2.102l6.152-6.152h2.152v8.424a3.965 3.965 0 0 1-3.965 3.965H29.77v5.621l-5.622-5.621H11.93a3.965 3.965 0 0 1-3.964-3.965V31.283a3.965 3.965 0 0 1 3.964-3.964h4.522Z" fill="#222"/></svg>