<svg width="64" height="64" fill="none" xmlns="http://www.w3.org/2000/svg"><path fill-rule="evenodd" clip-rule="evenodd" d="M56.279 29.58a2.166 2.166 0 1 0 1.701-3.984l-6.178-2.639 5.123-2.988a2.167 2.167 0 1 0-2.183-3.743l-4.88 2.846.752-6.234a2.166 2.166 0 0 0-4.302-.519l-1.144 9.491-5.106 2.979a10.824 10.824 0 0 0-5.895-3.404V15.75l7.8-5.85a2.166 2.166 0 1 0-2.6-3.466l-5.2 3.9V6a2.167 2.167 0 1 0-4.333 0v4.334l-5.2-3.9a2.166 2.166 0 1 0-2.6 3.466l7.8 5.85v5.635a10.825 10.825 0 0 0-5.895 3.404l-5.107-2.979-1.144-9.49a2.166 2.166 0 0 0-4.301.518l.75 6.234-4.878-2.846a2.167 2.167 0 1 0-2.184 3.743l5.123 2.988-6.178 2.64a2.166 2.166 0 1 0 1.702 3.984l9.14-3.904 4.886 2.85a10.662 10.662 0 0 0 0 6.945l-4.887 2.85-9.14-3.902a2.166 2.166 0 1 0-1.7 3.984l6.177 2.639-5.123 2.988a2.167 2.167 0 0 0 2.184 3.743l4.879-2.846-.751 6.235a2.165 2.165 0 1 0 4.301.518l1.144-9.491 5.107-2.979a10.824 10.824 0 0 0 5.895 3.404v5.635l-7.8 5.85a2.166 2.166 0 0 0 2.6 3.466l5.2-3.9V58a2.167 2.167 0 1 0 4.333 0v-4.333l5.2 3.9a2.167 2.167 0 1 0 2.6-3.466l-7.8-5.85v-5.636a10.825 10.825 0 0 0 5.895-3.404l5.106 2.98 1.144 9.49a2.166 2.166 0 1 0 4.302-.518l-.752-6.235 4.88 2.846a2.167 2.167 0 1 0 2.183-3.743l-5.186-3.025 6.058-2.693a2.166 2.166 0 1 0-1.76-3.959l-8.912 3.96-4.873-2.842c.775-2.25.775-4.694 0-6.944l4.887-2.85 9.14 3.903ZM32 38.5a6.5 6.5 0 1 1 6.5-6.5 6.507 6.507 0 0 1-6.5 6.5Z" fill="#222"/></svg>