<svg width="64" height="64" fill="none" xmlns="http://www.w3.org/2000/svg"><path fill-rule="evenodd" clip-rule="evenodd" d="M33.153 42.686 20.301 55.414a2.034 2.034 0 0 1-2.857 0L4.592 42.686a1.986 1.986 0 0 1 0-2.828 2.034 2.034 0 0 1 2.856 0l9.405 9.314V10c0-1.105.904-2 2.02-2a2.01 2.01 0 0 1 2.02 2v39.172l9.404-9.314a2.033 2.033 0 0 1 2.856 0 1.986 1.986 0 0 1 0 2.828ZM30.847 21.314 43.699 8.586a2.034 2.034 0 0 1 2.857 0l12.852 12.728a1.986 1.986 0 0 1 0 2.828 2.034 2.034 0 0 1-2.856 0l-9.405-9.314V54c0 1.105-.904 2-2.02 2a2.01 2.01 0 0 1-2.02-2V14.828l-9.404 9.314a2.033 2.033 0 0 1-2.856 0 1.986 1.986 0 0 1 0-2.828Z" fill="#222"/></svg>