<svg width="64" height="64" fill="none" xmlns="http://www.w3.org/2000/svg"><path d="M13 55.31a2 2 0 0 1-1.54-.72A28 28 0 0 1 41.59 10c.37.12.74.25 1.1.39a2 2 0 1 1-1.38 3.75c-.32-.12-.63-.23-1-.33A24 24 0 0 0 14.54 52a2 2 0 0 1-.26 2.81 2 2 0 0 1-1.28.5ZM53 55.31a2 2 0 0 1-1.28-.47 2 2 0 0 1-.26-2.84 24 24 0 0 0 1.85-28.1 2 2 0 1 1 3.38-2.14 28 28 0 0 1-2.15 32.83 2 2 0 0 1-1.54.72ZM31.73 38.24a2 2 0 0 0 1.27.45 2 2 0 0 0 1.55-.69l18-22a2.013 2.013 0 1 0-3.1-2.57l-18 22a2 2 0 0 0 .28 2.81Z" fill="#222"/></svg>