
<svg width="64" height="64" fill="none"  xmlns="http://www.w3.org/2000/svg" >
<path d="M 4.320312 31.496094 C 4.285156 31.65625 4.265625 31.828125 4.265625 32 C 4.265625 32.09375 4.269531 32.1875 4.28125 32.277344 C 4.269531 32.589844 4.265625 32.90625 4.265625 33.222656 C 4.265625 40.636719 7.203125 47.371094 11.972656 52.332031 C 12.808594 53.199219 14.152344 53.3125 15.125 52.601562 L 18.753906 49.933594 C 19.820312 49.148438 20.050781 47.648438 19.265625 46.578125 C 18.480469 45.511719 16.980469 45.28125 15.910156 46.066406 L 14.050781 47.433594 C 11.160156 43.816406 9.347656 39.316406 9.09375 34.398438 L 12 34.398438 C 13.324219 34.398438 14.398438 33.324219 14.398438 32 C 14.398438 30.675781 13.324219 29.601562 12 29.601562 L 9.351562 29.601562 C 10.050781 25.257812 11.976562 21.324219 14.765625 18.164062 L 16.738281 20.136719 C 17.675781 21.070312 19.195312 21.070312 20.132812 20.136719 C 21.070312 19.199219 21.070312 17.679688 20.132812 16.742188 L 18.304688 14.914062 C 21.523438 12.527344 25.390625 10.957031 29.597656 10.523438 L 29.597656 13.332031 C 29.597656 14.660156 30.671875 15.734375 32 15.734375 C 33.324219 15.734375 34.398438 14.660156 34.398438 13.332031 L 34.398438 10.523438 C 36.4375 10.734375 38.390625 11.210938 40.230469 11.914062 C 41.46875 12.386719 42.855469 11.769531 43.332031 10.53125 C 43.804688 9.292969 43.1875 7.90625 41.949219 7.429688 C 38.855469 6.246094 35.5 5.601562 32 5.601562 C 24.988281 5.601562 18.578125 8.195312 13.691406 12.472656 C 13.429688 12.589844 13.183594 12.753906 12.96875 12.96875 C 12.800781 13.140625 12.660156 13.328125 12.550781 13.527344 C 7.824219 18.160156 4.753906 24.472656 4.320312 31.496094 Z M 51.03125 12.96875 C 51.964844 13.90625 51.964844 15.425781 51.03125 16.363281 L 32.363281 35.03125 C 31.425781 35.96875 29.90625 35.96875 28.96875 35.03125 C 28.03125 34.09375 28.03125 32.574219 28.96875 31.636719 L 47.636719 12.96875 C 48.574219 12.03125 50.09375 12.03125 51.03125 12.96875 Z M 53.410156 19.527344 C 54.589844 18.914062 56.035156 19.375 56.648438 20.550781 C 58.621094 24.347656 59.730469 28.660156 59.730469 33.222656 C 59.730469 40.636719 56.796875 47.371094 52.023438 52.332031 C 51.191406 53.199219 49.84375 53.3125 48.875 52.601562 L 45.246094 49.933594 C 44.175781 49.148438 43.945312 47.648438 44.730469 46.578125 C 45.515625 45.511719 47.019531 45.28125 48.085938 46.066406 L 49.945312 47.433594 C 52.839844 43.816406 54.652344 39.316406 54.902344 34.398438 L 50.664062 34.398438 C 49.339844 34.398438 48.265625 33.324219 48.265625 32 C 48.265625 30.675781 49.339844 29.601562 50.664062 29.601562 L 54.644531 29.601562 C 54.257812 27.167969 53.480469 24.871094 52.386719 22.761719 C 51.777344 21.585938 52.234375 20.136719 53.410156 19.527344 Z M 53.410156 19.527344 " fill="#222"/>
</svg>
