<svg width="64" height="64" fill="none" xmlns="http://www.w3.org/2000/svg"><path d="M19.19 28.365c.106.287.247.56.42.812.485.728.97 1.092 1.455 1.092a1.688 1.688 0 0 0 1.344-.952 3.787 3.787 0 0 0 .616-2.1 1.375 1.375 0 0 0-.112-.56l-5.6-15.54c-.133-.41-.478-.615-1.036-.616h-1.763c-.386.004-.77.072-1.135.2-.363.12-.704.3-1.008.532a1.652 1.652 0 0 0-.574.728L6.058 27.525c-.062.16-.1.329-.113.5.06.417.223.812.476 1.148.486.728.971 1.092 1.456 1.092a1.399 1.399 0 0 0 .98-.476c.332-.339.58-.75.728-1.2l.84-2.38h8.01l.754 2.156Zm-7.56-5.516 2.855-8.092 2.8 8.092H11.63ZM27.337 30.101h6.355a6.087 6.087 0 0 0 4.4-1.668 5.6 5.6 0 0 0 1.736-4.22 4.714 4.714 0 0 0-.364-1.808 5.279 5.279 0 0 0-1.05-1.612 5.078 5.078 0 0 0-1.61-1.15 5.828 5.828 0 0 0 1.5-1.817c.34-.647.518-1.368.518-2.1a4.98 4.98 0 0 0-.714-2.614 5.245 5.245 0 0 0-2-1.9 5.918 5.918 0 0 0-2.913-.713h-4.99a3.452 3.452 0 0 0-1.918.574 1.575 1.575 0 0 0-.883 1.246v15.54a2.5 2.5 0 0 0 .477 1.148c.486.73.971 1.094 1.456 1.094Zm1.848-16.1h3.864a1.971 1.971 0 0 1 1.442.6 2 2 0 0 1 .6 1.47 2.309 2.309 0 0 1-.6 1.6 1.9 1.9 0 0 1-1.47.672h-3.836v-4.342Zm0 7.644h4.284a2.402 2.402 0 0 1 1.792.688 2.472 2.472 0 0 1 .672 1.806 2.406 2.406 0 0 1-.7 1.75 2.334 2.334 0 0 1-1.736.714h-4.312v-4.958Z" fill="#222"/><path d="M56.54 25.257c-.536.037-1.06.18-1.54.42-.12.055-.243.088-.365.136a6.941 6.941 0 0 0-2.176-2.968 7.027 7.027 0 0 0-4.343-1.512c-.828 0-1.65.148-2.427.435a7.055 7.055 0 0 1-.153-1.435 6.614 6.614 0 0 1 .742-3.122 5.68 5.68 0 0 1 2.128-2.254 5.96 5.96 0 0 1 3.151-.84 7.285 7.285 0 0 1 3.3.868c.206.117.436.185.672.2.43 0 .83-.294 1.2-.882a3.513 3.513 0 0 0 .561-1.918.9.9 0 0 0-.42-.84 9.66 9.66 0 0 0-5.236-1.456 9.8 9.8 0 0 0-4.985 1.344 10.43 10.43 0 0 0-3.765 3.752 10.157 10.157 0 0 0-1.443 5.32 10.399 10.399 0 0 0 .783 3.99L28.485 41.851l-3.672-3.642a7 7 0 1 0-9.857 9.941l9.23 9.153a6.959 6.959 0 0 0 5.37 2.016 7 7 0 0 0 5.043-2.639l19-24a6.951 6.951 0 0 0 1.37-2.98 6.047 6.047 0 0 0 1.483-.885 3.14 3.14 0 0 0 .784-1.134c.204-.456.31-.949.313-1.448a.878.878 0 0 0-1.009-.976Zm-6.073 4.938-19 24a3 3 0 0 1-2.348 1.138 3 3 0 0 1-2.12-.87l-9.23-9.154a3.002 3.002 0 0 1 4.23-4.26l6.85 6.792 16.916-21.37a3 3 0 0 1 4.705 3.724h-.003Z" fill="#222"/></svg>