<svg width="64" height="64" fill="none" xmlns="http://www.w3.org/2000/svg"><path fill-rule="evenodd" clip-rule="evenodd" d="M59.763 25.024a4.236 4.236 0 0 0-4.065-2.915h-14.67L36.046 7.875a4.291 4.291 0 0 0-8.102-.001l-4.982 14.235H8.292a4.292 4.292 0 0 0-2.606 7.701l11.987 9.167-4.921 14.763a4.292 4.292 0 0 0 6.584 4.836l12.659-9.143 12.66 9.143a4.228 4.228 0 0 0 5.051-.02 4.227 4.227 0 0 0 1.532-4.817l-4.921-14.762 11.987-9.167a4.237 4.237 0 0 0 1.459-4.786ZM43.712 35.568a4.295 4.295 0 0 0-1.466 4.767l4.921 14.762-12.66-9.143a4.284 4.284 0 0 0-5.024 0l-12.66 9.143 4.922-14.764a4.294 4.294 0 0 0-1.465-4.765L8.293 26.4h14.67a4.294 4.294 0 0 0 4.05-2.873l4.982-14.235 4.982 14.234a4.294 4.294 0 0 0 4.051 2.874h14.67l-11.986 9.167Z" fill="#222"/></svg>