<svg width="64" height="64" fill="none" xmlns="http://www.w3.org/2000/svg"><path d="m56.47 16.018-2.902-5.807A3.98 3.98 0 0 0 49.99 8H12.462a3.979 3.979 0 0 0-3.578 2.21l-2.902 5.807a5.81 5.81 0 0 0-.43 4.246 7.912 7.912 0 0 0 1.782 3.116c-.07.2-.106.41-.108.621v28a4.004 4.004 0 0 0 4 4h40a4.004 4.004 0 0 0 4-4V24a1.98 1.98 0 0 0-.108-.621 7.912 7.912 0 0 0 1.783-3.115 5.814 5.814 0 0 0-.43-4.246ZM9.56 17.807 12.462 12H49.99l2.904 5.808c.22.406.28.878.169 1.326A4.02 4.02 0 0 1 49.226 22a3.544 3.544 0 0 1-3.367-2.428l-.736-2.205c-.008-.024-.021-.044-.03-.068a1.97 1.97 0 0 0-.087-.194 1.976 1.976 0 0 0-.09-.164 2.043 2.043 0 0 0-.112-.156 1.974 1.974 0 0 0-.125-.152 1.837 1.837 0 0 0-.137-.128c-.05-.043-.096-.085-.148-.122a2.027 2.027 0 0 0-.17-.106 2.137 2.137 0 0 0-.156-.086 1.99 1.99 0 0 0-.195-.075 2.215 2.215 0 0 0-.17-.053 2.02 2.02 0 0 0-.2-.035 1.983 1.983 0 0 0-.196-.02c-.028 0-.053-.008-.081-.008-.041 0-.08.01-.12.012a1.99 1.99 0 0 0-.406.067c-.035.01-.071.012-.107.024-.024.008-.044.021-.067.03a1.987 1.987 0 0 0-.195.087 1.979 1.979 0 0 0-.165.09 1.977 1.977 0 0 0-.154.111c-.053.04-.105.082-.154.127-.045.042-.084.088-.125.133-.045.05-.087.1-.127.154-.037.051-.068.105-.1.16-.032.055-.065.11-.092.17a1.965 1.965 0 0 0-.068.177 1.975 1.975 0 0 0-.06.19 2.042 2.042 0 0 0-.03.177c-.012.073-.02.146-.023.22 0 .024-.007.047-.007.071a4 4 0 1 1-8 0 2 2 0 0 0-4 0 4 4 0 1 1-8 0c0-.024-.006-.047-.007-.07a1.973 1.973 0 0 0-.022-.221c-.01-.06-.018-.119-.032-.176a2.026 2.026 0 0 0-.06-.191 2.249 2.249 0 0 0-.067-.178c-.027-.058-.06-.113-.092-.17-.032-.054-.063-.108-.1-.159a1.988 1.988 0 0 0-.127-.154c-.04-.045-.08-.091-.125-.133-.05-.045-.1-.087-.154-.127a1.88 1.88 0 0 0-.154-.111 1.979 1.979 0 0 0-.165-.09 1.987 1.987 0 0 0-.195-.087c-.023-.009-.043-.022-.067-.03-.037-.013-.074-.015-.111-.026a1.754 1.754 0 0 0-.42-.067c-.034-.001-.067-.01-.102-.01-.023 0-.044.006-.067.007-.078.003-.155.01-.232.023-.055.009-.11.016-.164.03a1.98 1.98 0 0 0-.205.063c-.055.02-.11.039-.164.063a2 2 0 0 0-.182.099c-.05.03-.1.059-.148.093-.056.041-.11.086-.162.133-.043.039-.087.077-.126.119-.046.05-.09.104-.131.159a2.025 2.025 0 0 0-.11.15c-.032.054-.062.11-.09.167a1.953 1.953 0 0 0-.086.193c-.01.024-.022.044-.03.068l-.736 2.206A3.545 3.545 0 0 1 13.226 22a4.019 4.019 0 0 1-3.837-2.867c-.11-.448-.05-.92.17-1.326ZM21.226 52V38h8v14h-8Zm12 0V38h8v14h-8Zm12 0V38a4.004 4.004 0 0 0-4-4h-20a4.004 4.004 0 0 0-4 4v14h-6V25.716a7.85 7.85 0 0 0 2 .284 7.525 7.525 0 0 0 5.89-2.848 7.971 7.971 0 0 0 12.11.122 7.973 7.973 0 0 0 12.11-.122A7.525 7.525 0 0 0 49.227 26a7.85 7.85 0 0 0 2-.284V52h-6Z" fill="#222"/></svg>