<svg width="64" height="64" fill="none" xmlns="http://www.w3.org/2000/svg"><path fill-rule="evenodd" clip-rule="evenodd" d="M48 4H20a8.01 8.01 0 0 0-8 8v44a4.004 4.004 0 0 0 4 4h28a8.01 8.01 0 0 0 8-8V8a4.004 4.004 0 0 0-4-4Zm0 48a4.004 4.004 0 0 1-4 4l-28 .003V12a4.004 4.004 0 0 1 4-4h28v44Zm-18-8a2 2 0 0 1 2-2h8a2 2 0 1 1 0 4h-8a2 2 0 0 1-2-2Zm0-12a2 2 0 0 1 2-2h8a2 2 0 1 1 0 4h-8a2 2 0 0 1-2-2Zm0-12a2 2 0 0 1 2-2h8a2 2 0 1 1 0 4h-8a2 2 0 0 1-2-2Zm-8 12a2 2 0 1 1 4 0 2 2 0 0 1-4 0Zm0-12a2 2 0 1 1 4 0 2 2 0 0 1-4 0Zm0 24a2 2 0 1 1 4 0 2 2 0 0 1-4 0Z" fill="#222"/></svg>