<svg width="64" height="65" fill="none" xmlns="http://www.w3.org/2000/svg"><path fill-rule="evenodd" clip-rule="evenodd" d="M45.613 30.958c4.401-7.15 2.546-16.484-4.254-21.408-6.8-4.924-16.247-3.774-21.667 2.639-5.42 6.412-4.98 15.918 1.01 21.803 5.988 5.885 15.5 6.158 21.817.627 7.517.282 13.47 6.452 13.481 13.974v2a4.004 4.004 0 0 1-4 4H12a4.004 4.004 0 0 1-4-4v-2a14.057 14.057 0 0 1 4.76-10.52 26.11 26.11 0 0 0 15.653 8.26 3.988 3.988 0 1 0 .29-4A22.089 22.089 0 0 1 14.13 33.43l-.003-.005A21.846 21.846 0 0 1 10 20.593a2 2 0 0 0-4 0 25.804 25.804 0 0 0 4.315 14.315A18.067 18.067 0 0 0 4 48.593v2a8.01 8.01 0 0 0 8 8h40a8.01 8.01 0 0 0 8-8v-2a18.03 18.03 0 0 0-14.387-17.635ZM32 34.593c-6.627 0-12-5.373-12-12s5.373-12 12-12 12 5.373 12 12c-.007 6.625-5.376 11.993-12 12Z" fill="#222"/></svg>