<svg width="64" height="64" fill="none" xmlns="http://www.w3.org/2000/svg"><path d="M58.298 33.47a6.392 6.392 0 0 0-5.13-1.815A19.998 19.998 0 0 0 32.176 6.062a19.996 19.996 0 0 0-16.01 28.97c-.054.05-.116.088-.168.14l-10 10a4.005 4.005 0 0 0 0 5.656L13.17 58a3.999 3.999 0 0 0 5.657 0l2-2H43.17A3.971 3.971 0 0 0 46 54.828L58.298 42.53a6.413 6.413 0 0 0 0-9.058Zm-20.3.53h-8.427a28.925 28.925 0 0 1-.996-6h10.844a28.834 28.834 0 0 1-.997 6.035c-.141-.01-.279-.035-.423-.035Zm-17.85 0a15.881 15.881 0 0 1-2.016-6h6.444a33.89 33.89 0 0 0 .846 6h-5.274Zm13.85-23.657c2.607 1.928 5.03 6.847 5.435 13.657H28.564c.405-6.81 2.829-11.73 5.435-13.658ZM43.439 28h6.423a15.843 15.843 0 0 1-3.021 7.502l-3.123 2.678a6 6 0 0 0-1.588-2.512A32.807 32.807 0 0 0 43.437 28Zm6.425-4h-6.422a28.295 28.295 0 0 0-3.547-12.875A16.038 16.038 0 0 1 49.863 24Zm-21.76-12.875A28.295 28.295 0 0 0 24.556 24h-6.421a16.038 16.038 0 0 1 9.968-12.875ZM55.47 39.701 43.17 52h-24L16 55.172 8.827 48l10-10h9.241l.006.001.012-.001H38c.26 0 .518.052.759.152.023.013.05.023.073.035a1.996 1.996 0 0 1-.305 3.743c-.246.047-.496.07-.747.07H28a2 2 0 0 0 0 4h10a5.97 5.97 0 0 0 1.43-.173 8.007 8.007 0 0 0 3.557-1.753l9.216-7.9A2.406 2.406 0 0 1 55.47 39.7Z" fill="#222"/></svg>