<svg width="64" height="64" fill="none" xmlns="http://www.w3.org/2000/svg"><path fill-rule="evenodd" clip-rule="evenodd" d="m59.369 20.446-10.77 10.769a2.154 2.154 0 0 1-3.045-3.046l7.093-7.092H23.385a2.154 2.154 0 0 1 0-4.308h29.262l-7.093-7.092A2.154 2.154 0 1 1 48.6 6.63L59.369 17.4a2.153 2.153 0 0 1 0 3.045Zm-18.754 22.17H11.353l7.093-7.093a2.154 2.154 0 0 0-3.046-3.046L4.631 43.247a2.153 2.153 0 0 0 0 3.045l10.77 10.77a2.154 2.154 0 0 0 3.045-3.047l-7.093-7.092h29.262a2.154 2.154 0 0 0 0-4.308Z" fill="#222"/></svg>