<svg width="64" height="64" fill="none" xmlns="http://www.w3.org/2000/svg"><path fill-rule="evenodd" clip-rule="evenodd" d="M10.334 34.167A2.167 2.167 0 0 1 8.167 32a23.83 23.83 0 0 1 41.167-16.354v-5.313a2.167 2.167 0 1 1 4.333 0v10.834c0 1.196-.97 2.166-2.167 2.166H40.667a2.167 2.167 0 0 1 0-4.333h5.864a19.498 19.498 0 0 0-34.03 13c0 1.197-.97 2.167-2.167 2.167Zm43.333-4.334c-1.197 0-2.167.97-2.167 2.167a19.498 19.498 0 0 1-34.03 13h5.864a2.167 2.167 0 1 0 0-4.334H12.5c-1.196 0-2.166.97-2.166 2.167v10.834a2.167 2.167 0 1 0 4.333 0v-5.313A23.83 23.83 0 0 0 55.834 32c0-1.197-.97-2.167-2.167-2.167Z" fill="#222"/></svg>