<svg width="64" height="64" fill="none" xmlns="http://www.w3.org/2000/svg"><path d="M38 55.512a7.975 7.975 0 0 1-5.656-2.34L9.172 30A3.972 3.972 0 0 1 8 27.171V12a4 4 0 0 1 4-4h15.171A3.972 3.972 0 0 1 30 9.172l23.172 23.172a8.007 8.007 0 0 1 0 11.312l-9.516 9.516A7.976 7.976 0 0 1 38 55.512ZM12 12v15.171l23.172 23.173a4.006 4.006 0 0 0 5.656 0l9.516-9.516a4 4 0 0 0 0-5.656L27.172 12H12Z" fill="#222"/><path d="M21 27a6 6 0 1 1 0-12 6 6 0 0 1 0 12Zm0-8a2 2 0 1 0 0 4 2 2 0 0 0 0-4Z" fill="#222"/></svg>