<svg width="64" height="64" fill="none" xmlns="http://www.w3.org/2000/svg"><path d="M28.002 40.35V16a2 2 0 0 0-4 0v24.35a6 6 0 1 0 4 0Zm-2 7.65a2 2 0 1 1 0-4 2 2 0 0 1 0 4Zm14-32a2 2 0 0 1 2-2h8a2 2 0 0 1 0 4h-8a2 2 0 0 1-2-2Zm0 8a2 2 0 0 1 2-2h4a2 2 0 0 1 0 4h-4a2 2 0 0 1-2-2Zm12 8a2 2 0 0 1-2 2h-8a2 2 0 1 1 0-4h8a2 2 0 0 1 2 2Zm-16-18a10 10 0 0 0-20 0v22.22a13.875 13.875 0 0 0-3.92 11.284 14.028 14.028 0 0 0 12.343 12.41 14.113 14.113 0 0 0 10.918-3.485 13.979 13.979 0 0 0 .659-20.207V14Zm-3.33 39.45a9.992 9.992 0 0 1-16.646-7.992 9.993 9.993 0 0 1 3.31-6.895l.666-.596V14a6 6 0 1 1 12 0v23.967l.665.596a9.979 9.979 0 0 1 .006 14.886l-.001.001Z" fill="#222"/></svg>