<svg width="64" height="64" fill="none" xmlns="http://www.w3.org/2000/svg"><path d="M35 4a23.028 23.028 0 0 0-22.987 22.225l-4.55 5.118A4 4 0 0 0 10.455 38H12v8a4.005 4.005 0 0 0 4 4h6a4.004 4.004 0 0 1 4 4v2a4.005 4.005 0 0 0 4 4h16a4.004 4.004 0 0 0 4-4V46l.036-1.093A24.042 24.042 0 0 0 58 27 23.026 23.026 0 0 0 35 4Zm12.4 37.897a4.048 4.048 0 0 0-1.4 3.038V56H30v-2a8.01 8.01 0 0 0-8-8h-6V34h-5.546L16 27.76V27a19 19 0 0 1 38 0 20.264 20.264 0 0 1-6.6 14.897ZM36 39a2 2 0 1 1-4 0 2 2 0 0 1 4 0Zm5.305-20.046a7.988 7.988 0 0 1-1.203 9.773l-4.688 4.687a2 2 0 0 1-2.828-2.828l4.687-4.688a3.995 3.995 0 0 0 .602-4.885 3.448 3.448 0 0 0-5.395-.665l-1.066 1.066a2 2 0 0 1-2.828-2.828l1.066-1.066a7.448 7.448 0 0 1 11.653 1.434Z" fill="#222"/></svg>