<svg width="64" height="64" fill="none" xmlns="http://www.w3.org/2000/svg"><path d="M31 52a2 2 0 1 1-4 0 2 2 0 0 1 4 0Z" fill="#222"/><path fill-rule="evenodd" clip-rule="evenodd" d="M50.57 22.38a2 2 0 0 0-2.83 0L45 25.12V12a8 8 0 0 0-8-8H21a8 8 0 0 0-8 8v40a8 8 0 0 0 8 8h16a8 8 0 0 0 8-8V36.64a2 2 0 1 0-4 0V44H17V12a4 4 0 0 1 4-4h16a4 4 0 0 1 4 4v13.12l-2.73-2.74a2.001 2.001 0 1 0-2.83 2.83l5.54 5.54a2.89 2.89 0 0 0 4.05 0l5.54-5.54a2 2 0 0 0 0-2.83ZM17 48h24v4a4 4 0 0 1-4 4H21a4 4 0 0 1-4-4v-4Z" fill="#222"/></svg>