<svg width="64" height="64" fill="none" xmlns="http://www.w3.org/2000/svg"><path fill-rule="evenodd" clip-rule="evenodd" d="M58.102 23.833a3.975 3.975 0 0 0-3.891-.175l-6.782 3.391a8.035 8.035 0 0 0-4.472-4.476A10.994 10.994 0 1 0 26.521 22h-4.604a8 8 0 1 0-13.323.772A8.003 8.003 0 0 0 4 30v10a8.01 8.01 0 0 0 8 8h15.172l-8.586 8.586a2 2 0 1 0 2.828 2.828L30 50.828l8.586 8.586a2 2 0 0 0 2.828-2.828L32.828 48H40a8.008 8.008 0 0 0 7.429-5.05l6.782 3.392A4 4 0 0 0 60 42.764V27.236a3.975 3.975 0 0 0-1.898-3.403ZM28 15a7 7 0 1 1 7 7 7.008 7.008 0 0 1-7-7Zm-13-1a4 4 0 1 1 0 8 4 4 0 0 1 0-8Zm29 26a4.004 4.004 0 0 1-4 4H12a4.004 4.004 0 0 1-4-4V30a4.004 4.004 0 0 1 4-4h28a4.004 4.004 0 0 1 4 4v10Zm12 2.764-8-4v-7.528l8-4v15.528Z" fill="#222"/></svg>