<svg width="64" height="64" fill="none" xmlns="http://www.w3.org/2000/svg"><path d="M54 44V12a8.01 8.01 0 0 0-8-8H18a8.01 8.01 0 0 0-8 8v32a4.004 4.004 0 0 0 4 4h3.73l-7.265 8.72a2 2 0 1 0 3.072 2.56L16.27 56h31.46l2.734 3.28a2 2 0 0 0 3.072-2.56L46.27 48H50a4.004 4.004 0 0 0 4-4Zm-3.997-14H34V16h16l.002 14ZM18 8h28a4.004 4.004 0 0 1 4 4H14a4.004 4.004 0 0 1 4-4Zm-4 8h16v14H14V16Zm5.603 36 3.333-4h18.128l3.333 4H19.604ZM14 44V34h36.002v10H14Zm32-5a3 3 0 1 1-6 0 3 3 0 0 1 6 0Zm-22 0a3 3 0 1 1-6 0 3 3 0 0 1 6 0Z" fill="#222"/></svg>