<svg width="64" height="64" fill="none" xmlns="http://www.w3.org/2000/svg"><path fill-rule="evenodd" clip-rule="evenodd" d="M46 41a3 3 0 1 1-6 0 3 3 0 0 1 6 0Zm-25-3a3 3 0 1 0 0 6 3 3 0 0 0 0-6Zm39-16v6a4.004 4.004 0 0 1-4 4h-2v14a4.004 4.004 0 0 1-4 4v4a4.004 4.004 0 0 1-4 4h-4a4.004 4.004 0 0 1-4-4v-4H26v4a4.004 4.004 0 0 1-4 4h-4a4.004 4.004 0 0 1-4-4v-4a4.004 4.004 0 0 1-4-4V32H8a4.004 4.004 0 0 1-4-4v-6a4.004 4.004 0 0 1 4-4h2v-4a8.01 8.01 0 0 1 8-8h28a8.01 8.01 0 0 1 8 8v4h2a4.004 4.004 0 0 1 4 4ZM30 32V18H14v14h16Zm4 0h16.001v-1.988L50 30l.001-.012v-9.983L50 20v-2H34v14ZM14 14h36a4.004 4.004 0 0 0-4-4H18a4.004 4.004 0 0 0-4 4Zm-4 14v-6H8v6h2Zm12 22h-4v4h4v-4Zm24 0h-4v4h4v-4Zm4.002-4V36H14v10h36.002ZM56 22h-2v6h2v-6Z" fill="#222"/></svg>