<svg width="64" height="64" fill="none" xmlns="http://www.w3.org/2000/svg"><path fill-rule="evenodd" clip-rule="evenodd" d="M52 10H12a8.01 8.01 0 0 0-8 8v22a8.01 8.01 0 0 0 8 8h40a8.01 8.01 0 0 0 8-8V18a8.01 8.01 0 0 0-8-8Zm4 30a4.005 4.005 0 0 1-4 4H12a4.005 4.005 0 0 1-4-4V18a4.005 4.005 0 0 1 4-4h40a4.005 4.005 0 0 1 4 4v22ZM44 52a2 2 0 0 1-2 2H22a2 2 0 1 1 0-4h20a2 2 0 0 1 2 2ZM31 19.993a3.62 3.62 0 0 1-.633 2.07c-.27.527-.791.88-1.381.937H25v12.993a3.62 3.62 0 0 1-.633 2.069c-.27.528-.791.881-1.381.938-.5 0-.998-.359-1.497-1.076a2.403 2.403 0 0 1-.489-1.13V23h-4.014c-.5 0-.998-.359-1.497-1.076a2.402 2.402 0 0 1-.489-1.13c0-.442.302-.851.906-1.228A3.656 3.656 0 0 1 17.878 19h12c.748 0 1.122.331 1.122.993Zm18-.031c0 .447-.082.89-.24 1.309L43.23 37.21a3.85 3.85 0 0 1-.788 1.309 1.388 1.388 0 0 1-1.002.48h-.775c-.499 0-.989-.346-1.47-1.041-.165-.24-.3-.5-.4-.775l-5.663-15.832a1.823 1.823 0 0 1-.16-.615 1.5 1.5 0 0 1 .84-1.189c.543-.359 1.18-.55 1.83-.547a.922.922 0 0 1 1.016.668L41.01 34l4.302-13.504c.183-.457.531-.83.975-1.042a3.294 3.294 0 0 1 1.67-.454c.695 0 1.042.32 1.042.962Z" fill="#222"/></svg>