<svg xmlns="http://www.w3.org/2000/svg" viewBox="0 0 64 64"><path fill="#222" fill-rule="evenodd" d="M60 15.443a22.752 22.752 0 0 1-6.595 1.833 11.627 11.627 0 0 0 5.05-6.427 22.758 22.758 0 0 1-7.29 2.817A11.437 11.437 0 0 0 42.778 10c-6.35 0-11.49 5.194-11.49 11.61 0 .906.102 1.8.303 2.648-9.551-.486-18.017-5.103-23.683-12.13a11.71 11.71 0 0 0-1.556 5.839c0 4.028 2.026 7.581 5.106 9.664a11.328 11.328 0 0 1-5.207-1.449v.147c0 5.624 3.964 10.32 9.216 11.384-.964.26-1.982.408-3.024.408-.739 0-1.456-.068-2.161-.204 1.467 4.617 5.7 7.966 10.727 8.057a22.892 22.892 0 0 1-14.266 4.968c-.929 0-1.836-.057-2.743-.159C9.084 54.076 15.12 56 21.603 56c21.13 0 32.686-17.687 32.686-33.032 0-.498-.011-1.007-.033-1.505 2.261-1.64 4.199-3.689 5.744-6.02z"/></svg>