<svg width="64" height="64" fill="none" xmlns="http://www.w3.org/2000/svg"><path d="m16.355 32.688 13.171-13.183a3.5 3.5 0 0 1 4.947 0l13.172 13.183a2.333 2.333 0 0 1-3.29 3.29l-10.022-10.01v31.699a2.333 2.333 0 0 1-4.667 0V25.968l-10.021 10.01a2.333 2.333 0 0 1-3.29-3.29Z" fill="#222"/><path d="M8.308 34.333c0 1.289-.965 2.334-2.154 2.334-1.19 0-2.154-1.045-2.154-2.334v-21C4 8.18 7.857 4 12.615 4h38.77C56.143 4 60 8.179 60 13.333v21c0 1.289-.964 2.334-2.154 2.334s-2.154-1.045-2.154-2.334v-21c0-2.577-1.928-4.666-4.307-4.666h-38.77c-2.379 0-4.307 2.089-4.307 4.666v21Z" fill="#222"/></svg>