<svg width="64" height="64" fill="none" xmlns="http://www.w3.org/2000/svg"><path d="m59.416 30.586-6-6a2 2 0 0 0-2.828 2.828L53.174 30H24.83l6.843-6.843a7.004 7.004 0 1 0-2.828-2.829L19.174 30h-1.467a7 7 0 1 0 0 4h7.467l8.977 8.977A3.955 3.955 0 0 0 34 44v6a4.004 4.004 0 0 0 4 4h6a4.004 4.004 0 0 0 4-4v-6a4.004 4.004 0 0 0-4-4h-6c-.345.005-.69.055-1.022.15L30.829 34h22.345l-2.586 2.586a2 2 0 0 0 2.828 2.828l6-6a2 2 0 0 0 0-2.828ZM35.002 14a3 3 0 1 1 0 6.001 3 3 0 0 1 0-6.001Zm9 30v6h-6v-6h6Zm-33-9a3 3 0 1 1 0-6 3 3 0 0 1 0 6Z" fill="#222"/></svg>