<svg width="64" height="64" fill="none" xmlns="http://www.w3.org/2000/svg"><path fill-rule="evenodd" clip-rule="evenodd" d="M48.015 21c0 8.837-7.164 16-16 16a15.94 15.94 0 0 1-10.65-4.059 2.01 2.01 0 0 1-.462.092 14.099 14.099 0 0 0-7.693 3.072c-1.555 1.258-2.86 2.907-3.852 4.873-.447.886-.868 2.098-1.095 3.286-.075.393-.12.763-.156 1.31l-.03.516-.03.719-.039 1.076c-.022.937.007 1.502.109 2l.041.157.11.34c.16.494.414.899.885 1.425.22.247.39.384.72.58.464.273.94.467 1.379.543l.074.011.19.023.646.054.334.004 1.222-.024 1.002-.008 1.788.006L32.013 53a2 2 0 1 1 .003 4H20.088l-4.979-.01-1.022.003-1.647.03c-.184 0-.345-.003-.498-.01l-.301-.02-.604-.057-.238-.03-.226-.035c-.97-.167-1.884-.538-2.734-1.04a6.592 6.592 0 0 1-1.667-1.357c-.815-.91-1.358-1.776-1.71-2.857l-.12-.374a6.609 6.609 0 0 1-.092-.33l-.053-.231c-.153-.755-.206-1.457-.196-2.448l.013-.632.048-1.249c.056-1.337.113-2.004.272-2.837.298-1.565.842-3.129 1.453-4.34 1.242-2.46 2.9-4.557 4.907-6.18a18.122 18.122 0 0 1 7.678-3.633A15.925 15.925 0 0 1 16.015 21c0-8.837 7.163-16 16-16 8.836 0 16 7.163 16 16Zm-28 0c0 6.627 5.372 12 12 12 6.627 0 12-5.373 12-12s-5.373-12-12-12c-6.628 0-12 5.373-12 12Z" fill="#222"/><path fill-rule="evenodd" clip-rule="evenodd" d="M58.014 44h-1.2a10.092 10.092 0 0 0-1.46-3.51l1.07-1.08a2 2 0 0 0-2.82-2.82l-1.08 1.07a10.09 10.09 0 0 0-3.51-1.46V35a2 2 0 0 0-4 0v1.2a10.09 10.09 0 0 0-3.51 1.46l-1.08-1.07a2 2 0 0 0-2.82 2.82l1.07 1.08a10.088 10.088 0 0 0-1.46 3.51h-1.2a2 2 0 1 0 0 4h1.2c.26 1.252.756 2.443 1.46 3.51l-1.07 1.08a2 2 0 1 0 2.82 2.82l1.08-1.07a10.09 10.09 0 0 0 3.51 1.46V57a2 2 0 1 0 4 0v-1.2a10.09 10.09 0 0 0 3.51-1.46l1.08 1.07a2 2 0 0 0 2.82-2.82l-1.07-1.08a10.092 10.092 0 0 0 1.46-3.51h1.2a2 2 0 0 0 0-4Zm-11 8a6 6 0 1 1 0-12 6 6 0 0 1 0 12Z" fill="#222"/></svg>