<svg width="64" height="64" fill="none" xmlns="http://www.w3.org/2000/svg"><path d="M52 12H12a8.01 8.01 0 0 0-8 8v20a8.01 8.01 0 0 0 8 8h18v4h-8a2 2 0 0 0 0 4h20a2 2 0 0 0 0-4h-8v-4h18a8.01 8.01 0 0 0 8-8V20a8.01 8.01 0 0 0-8-8ZM20 44a8.018 8.018 0 0 1 6.28-7.81 9.945 9.945 0 0 0 11.44 0A8.018 8.018 0 0 1 44 44H20Zm6-16a6 6 0 1 1 6 6 6.006 6.006 0 0 1-6-6Zm30 12a4.005 4.005 0 0 1-4 4h-4a12.04 12.04 0 0 0-7.326-11.044 10 10 0 1 0-17.348 0A12.04 12.04 0 0 0 16 44h-4a4.004 4.004 0 0 1-4-4V20a4.004 4.004 0 0 1 4-4h40a4.005 4.005 0 0 1 4 4v20Z" fill="#222"/></svg>