<svg width="64" height="64" fill="none" xmlns="http://www.w3.org/2000/svg"><path fill-rule="evenodd" clip-rule="evenodd" d="M33.658 9.332a4.32 4.32 0 0 0-4.722.94L18.103 21.105h-3.436A8.677 8.677 0 0 0 6 29.772v4.333a8.677 8.677 0 0 0 8.667 8.667h3.436l10.833 10.833a4.333 4.333 0 0 0 7.397-3.064V13.335a4.321 4.321 0 0 0-2.675-4.003ZM32 50.542 19.897 38.437h-5.23a4.338 4.338 0 0 1-4.334-4.333v-4.333a4.338 4.338 0 0 1 4.334-4.334h5.23L32 13.335v37.206Zm17.333-18.604a22.355 22.355 0 0 1-4.853 14.41 2.167 2.167 0 0 1-3.293-2.819A17.987 17.987 0 0 0 45 31.94c.118-4.19-1.23-8.29-3.813-11.591a2.167 2.167 0 0 1 3.293-2.819 22.356 22.356 0 0 1 4.853 14.41Zm8.667 0c0 8.077-2.559 15.697-7.02 20.91a2.167 2.167 0 0 1-3.293-2.819c3.8-4.439 5.98-11.032 5.98-18.09 0-7.06-2.18-13.652-5.98-18.091a2.167 2.167 0 0 1 3.293-2.819C55.44 16.242 58 23.862 58 31.94Z" fill="#222"/></svg>