<svg width="64" height="64" fill="none" xmlns="http://www.w3.org/2000/svg"><path d="M59.412 14.586a2 2 0 0 0-2.828 0l-8.586 8.586L40.826 16l8.586-8.586a2 2 0 1 0-2.828-2.828l-8.586 8.586L34.826 10a4.002 4.002 0 0 0-5.656 0l-9.586 9.586a17.57 17.57 0 0 0-3.589 19.589L5.582 49.588a6.242 6.242 0 0 0 8.828 8.828l10.414-10.413a17.526 17.526 0 0 0 19.588-3.589l9.586-9.586a4.004 4.004 0 0 0 0-5.656L50.826 26l8.586-8.586a2 2 0 0 0 0-2.828Zm-47.83 41.002a2.243 2.243 0 0 1-3.172-3.172l9.701-9.7a15.837 15.837 0 0 0 3.172 3.171l-9.7 9.7Zm30.002-14.002a13.557 13.557 0 0 1-19.172-19.172l9.586-9.586L51.17 32l-9.586 9.586Z" fill="#222"/></svg>