<svg width="64" height="64" fill="none" xmlns="http://www.w3.org/2000/svg"><path fill-rule="evenodd" clip-rule="evenodd" d="M43 16.873a9 9 0 0 1 2.933 17.512A9.468 9.468 0 0 1 49 41.373c0 .494-.038.98-.11 1.453A6.5 6.5 0 0 1 46 54.854v.02H12v-.015a8.5 8.5 0 0 1-8-8.486c0-4.544 3.882-8.617 8.083-8.523A13.046 13.046 0 0 1 12 36.373c0-7.456 6.268-13.5 14-13.5 2.983 0 5.748.9 8.019 2.433A8.998 8.998 0 0 1 43 16.873Zm-17 10c-5.555 0-10 4.287-10 9.5 0 .347.02.689.058 1.025l.518 4.554-4.583-.103C10.1 41.806 8 44.016 8 46.373a4.5 4.5 0 0 0 4.232 4.492l.133.008H45.6l.098-.007a2.5 2.5 0 0 0 1.104-4.628l-2.269-1.39.404-2.629c.042-.277.064-.56.064-.846 0-3.037-2.462-5.5-5.439-5.5l-3.135.048-.977-2.668c-1.38-3.771-5.14-6.38-9.449-6.38Zm26.99 9.962 1.438 1.39a2 2 0 0 1-2.779 2.877l-1.438-1.39a2 2 0 1 1 2.778-2.877ZM43 20.873a5 5 0 1 0 0 10 5 5 0 0 0 0-10Zm15 5a2 2 0 0 1 0 4h-2a2 2 0 1 1 0-4h2ZM30.181 14.517l1.439 1.39a2 2 0 0 1-2.779 2.877l-1.438-1.39a2 2 0 1 1 2.778-2.877Zm25.696-1.033a2 2 0 0 1-.049 2.828l-1.439 1.39a2 2 0 0 1-2.778-2.878l1.438-1.39a2 2 0 0 1 2.828.05ZM40.917 9a2 2 0 0 1 2 2v2a2 2 0 1 1-4 0v-2a2 2 0 0 1 2-2Z" fill="#222"/></svg>