<svg width="64" height="64" fill="none" xmlns="http://www.w3.org/2000/svg"><path fill-rule="evenodd" clip-rule="evenodd" d="M35.85 51.333a4.333 4.333 0 1 1-8.666 0 4.333 4.333 0 0 1 8.666 0Zm22.39-33.788c-15.543-12.727-37.903-12.727-53.445 0a2.167 2.167 0 1 0 2.744 3.353c13.946-11.42 34.01-11.42 47.956 0a2.166 2.166 0 1 0 2.745-3.353ZM31.517 34a16.227 16.227 0 0 0-10.658 4.003 2.167 2.167 0 0 0 2.848 3.267 11.852 11.852 0 0 1 15.62 0 2.167 2.167 0 0 0 2.848-3.267A16.227 16.227 0 0 0 31.517 34Zm0-13a29.28 29.28 0 0 0-18.683 6.755 2.166 2.166 0 1 0 2.77 3.332c9.222-7.672 22.605-7.672 31.827 0a2.167 2.167 0 1 0 2.77-3.332A29.28 29.28 0 0 0 31.516 21Z" fill="#222"/></svg>