<svg width="64" height="64" fill="none" xmlns="http://www.w3.org/2000/svg"><path d="M36 50a4 4 0 1 1-8 0 4 4 0 0 1 8 0Zm20.667-31.19a38.874 38.874 0 0 0-7.446-4.78l4.259-4.684a2 2 0 0 0-2.96-2.692l-5.191 5.711a38.87 38.87 0 0 0-37.996 6.446 2 2 0 0 0 2.533 3.095 34.884 34.884 0 0 1 32.53-6.315l-6.148 6.763a26.726 26.726 0 0 0-21.494 5.881 2 2 0 1 0 2.557 3.076A23.017 23.017 0 0 1 32 26c.3 0 .598.027.898.04L10.52 50.653a1.997 1.997 0 0 0 .133 2.825 1.998 1.998 0 0 0 2.826-.133l11.962-13.159a10.933 10.933 0 0 1 13.767.524 2 2 0 0 0 2.629-3.016A14.979 14.979 0 0 0 32 34c-.325 0-.647.018-.969.039l6.649-7.314a23.002 23.002 0 0 1 9.01 4.586 2.001 2.001 0 0 0 3.28-1.72 2.002 2.002 0 0 0-.724-1.356 26.98 26.98 0 0 0-8.589-4.785l5.755-6.33a34.924 34.924 0 0 1 7.722 4.786 1.999 1.999 0 0 0 2.533-3.095Z" fill="#222"/></svg>