<svg width="64" height="64" fill="none" xmlns="http://www.w3.org/2000/svg"><path fill-rule="evenodd" clip-rule="evenodd" d="M59.142 20.696s-.644-3.913-2.146-5.653c-2.145-2.173-4.506-2.173-5.578-2.39C43.694 12 31.893 12 31.893 12s-11.801 0-19.525.652c-1.073.218-3.433.218-5.579 2.392-1.716 1.739-2.145 5.652-2.145 5.652S4 25.26 4 29.826v4.348c0 4.565.644 9.13.644 9.13s.643 3.913 2.145 5.652c2.146 2.174 4.935 2.174 6.223 2.392 4.505.435 19.095.652 19.095.652s11.801 0 19.525-.652c1.073-.218 3.433-.218 5.579-2.392 1.716-1.739 2.145-5.652 2.145-5.652S60 38.74 60 34.174v-4.348c-.215-4.565-.858-9.13-.858-9.13ZM26.1 39.39v-15.87l15.019 8.044-15.02 7.826Z" fill="#222"/></svg>