<svg width="64" height="64" fill="none" xmlns="http://www.w3.org/2000/svg"><path d="M20 28.5a2 2 0 1 0 0 4h20a2 2 0 1 0 0-4H20Z" fill="#222"/><path fill-rule="evenodd" clip-rule="evenodd" d="m50.792 41.964 6.794 6.794a6 6 0 0 1 0 8.484l-.172.172a6.25 6.25 0 0 1-8.828 0l-6.622-6.622a24.032 24.032 0 1 1 8.828-8.828ZM13.37 18.889A20 20 0 0 0 10 29.998a20.022 20.022 0 0 0 20 20 20 20 0 1 0-16.63-31.11Zm41.216 35.697.172-.172a2.001 2.001 0 0 0 0-2.828l-6.284-6.284a24.225 24.225 0 0 1-3.172 3.172l6.112 6.112a2.244 2.244 0 0 0 3.172 0Z" fill="#222"/></svg>